<svg width="149" height="48" viewBox="0 0 149 48" fill="none" xmlns="http://www.w3.org/2000/svg">
<path d="M33.304 26.077C33.3317 23.6108 34.6196 21.3268 36.6968 20.0236C35.3812 18.1179 33.2486 16.9548 30.9499 16.8848C28.5264 16.6325 26.1861 18.3421 24.9536 18.3421C23.6935 18.3421 21.7963 16.8988 19.7606 16.9408C17.0741 17.0249 14.623 18.5383 13.3213 20.9204C10.5378 25.7968 12.615 32.9712 15.2877 36.9088C16.6171 38.8425 18.1819 41.0005 20.2176 40.9164C22.2117 40.8323 22.9595 39.6272 25.3691 39.6272C27.751 39.6272 28.4572 40.9164 30.5344 40.8744C32.6809 40.8323 34.0241 38.9406 35.312 36.9789C36.2675 35.6056 37.0153 34.0782 37.5 32.4668C34.952 31.4018 33.304 28.8796 33.304 26.077Z" fill="white"/>
<path d="M29.3666 14.2853C30.5298 12.87 31.1115 11.0344 30.973 9.19873C29.1866 9.39491 27.5387 10.2497 26.3477 11.6229C25.1845 12.9681 24.589 14.7337 24.6998 16.5273C26.5139 16.5273 28.2311 15.7146 29.3666 14.2853Z" fill="white"/>
<path d="M54.503 37.5004H56.9332L51.5909 22.704H49.1095L43.7672 37.5004H46.1564L47.5099 33.5013H53.1495L54.503 37.5004ZM50.2989 25.1649H50.3605L52.565 31.6556H48.0943L50.2989 25.1649Z" fill="white"/>
<path d="M64.0802 26.2518C62.5318 26.2518 61.1578 27.0106 60.5323 28.2103H60.4811V26.3646H58.338V41.1918H60.5631V35.6752H60.6041C61.2706 36.9056 62.5318 37.6132 64.1315 37.6132C66.9308 37.6132 68.7867 35.3778 68.7867 31.9325C68.7867 28.4769 66.9205 26.2518 64.0802 26.2518ZM63.5162 35.7264C61.7423 35.7264 60.5528 34.2089 60.5426 31.9325C60.5528 29.6664 61.7525 28.1385 63.5162 28.1385C65.3209 28.1385 66.5104 29.6356 66.5104 31.9325C66.5104 34.2396 65.3209 35.7264 63.5162 35.7264Z" fill="white"/>
<path d="M76.3028 26.2518C74.7545 26.2518 73.3805 27.0106 72.755 28.2103H72.7037V26.3646H70.5607V41.1918H72.7858V35.6752H72.8268C73.4933 36.9056 74.7545 37.6132 76.3541 37.6132C79.1534 37.6132 81.0094 35.3778 81.0094 31.9325C81.0094 28.4769 79.1432 26.2518 76.3028 26.2518ZM75.7389 35.7264C73.965 35.7264 72.7755 34.2089 72.7652 31.9325C72.7755 29.6664 73.9752 28.1385 75.7389 28.1385C77.5436 28.1385 78.733 29.6356 78.733 31.9325C78.733 34.2396 77.5436 35.7264 75.7389 35.7264Z" fill="white"/>
<path d="M87.1925 33.3783C87.336 36.0546 89.5509 37.7465 92.8321 37.7465C96.339 37.7465 98.5436 36.0135 98.5436 33.245C98.5436 31.0814 97.2823 29.8612 94.2472 29.1434L92.6168 28.7435C90.7096 28.2719 89.9303 27.6566 89.9303 26.6107C89.9303 25.2982 91.1505 24.3959 92.9347 24.3959C94.7189 24.3959 95.9391 25.288 96.0724 26.7645H98.3077C98.2359 24.2113 96.0929 22.4579 92.9654 22.4579C89.8072 22.4579 87.5821 24.2113 87.5821 26.7645C87.5821 28.8256 88.8434 30.097 91.5607 30.7533L93.4781 31.2147C95.3956 31.6864 96.2057 32.3734 96.2057 33.5219C96.2057 34.8446 94.8624 35.8085 92.9962 35.8085C91.048 35.8085 89.6227 34.8446 89.4586 33.3783H87.1925Z" fill="white"/>
<path d="M101.046 23.8627V26.3646H99.5074V28.118H101.046V34.5677C101.046 36.7211 101.907 37.5721 104.132 37.5721C104.614 37.5721 105.137 37.5209 105.383 37.4594V35.7059C105.239 35.7264 104.86 35.7572 104.624 35.7572C103.691 35.7572 103.26 35.306 103.26 34.3422V28.118H105.393V26.3646H103.26V23.8627H101.046Z" fill="white"/>
<path d="M111.771 37.6337C114.991 37.6337 117.031 35.4393 117.031 31.9325C117.031 28.4257 114.981 26.2211 111.771 26.2211C108.562 26.2211 106.501 28.4359 106.501 31.9325C106.501 35.4393 108.551 37.6337 111.771 37.6337ZM111.771 35.788C109.884 35.788 108.756 34.3627 108.756 31.9325C108.756 29.5126 109.884 28.0668 111.771 28.0668C113.658 28.0668 114.775 29.5023 114.775 31.9325C114.775 34.3627 113.658 35.788 111.771 35.788Z" fill="white"/>
<path d="M118.816 37.5004H121.041V30.8558C121.041 29.287 121.963 28.2719 123.43 28.2719C123.871 28.2719 124.26 28.3334 124.445 28.4052V26.3236C124.271 26.2826 123.994 26.2518 123.666 26.2518C122.353 26.2518 121.328 27.0004 120.979 28.2411H120.938V26.3646H118.816V37.5004Z" fill="white"/>
<path d="M130.033 28.036C131.653 28.036 132.751 29.1844 132.802 30.9174H127.152C127.275 29.205 128.434 28.036 130.033 28.036ZM132.792 34.2396C132.484 35.2137 131.469 35.829 130.177 35.829C128.352 35.829 127.142 34.5575 127.142 32.6298V32.4965H135.027V31.7172C135.027 28.3436 133.099 26.2211 130.044 26.2211C126.926 26.2211 124.896 28.4872 124.896 31.9735C124.896 35.4598 126.906 37.6337 130.136 37.6337C132.638 37.6337 134.596 36.2391 134.914 34.2396H132.792Z" fill="white"/>
<path d="M44.8433 17.9612V16.5H49.9087V17.9612H51.1084V15.3875H50.1855V9.10181H45.1816L44.915 13.4546C44.8586 14.4492 44.6895 15.0542 44.1665 15.3875H43.6384V17.9612H44.8433ZM46.1404 13.5366L46.3506 10.2144H48.8679V15.3875H45.6379V15.3464C45.9814 14.9414 46.084 14.3723 46.1404 13.5366Z" fill="white"/>
<path d="M55.0785 16.6077C56.673 16.6077 57.7086 15.5464 57.7086 13.7827V13.7725C57.7086 12.019 56.6576 10.9526 55.0785 10.9526C53.4943 10.9526 52.4484 12.0293 52.4484 13.7725V13.7827C52.4484 15.5413 53.4789 16.6077 55.0785 16.6077ZM55.0836 15.5771C54.2736 15.5771 53.7506 14.926 53.7506 13.7827V13.7725C53.7506 12.6445 54.2787 11.9883 55.0785 11.9883C55.8834 11.9883 56.4115 12.6394 56.4115 13.7725V13.7827C56.4115 14.9209 55.8937 15.5771 55.0836 15.5771Z" fill="white"/>
<path d="M61.7556 16.6077C63.1297 16.6077 64.0525 15.7463 64.1499 14.6133V14.5774H62.9451L62.9348 14.6235C62.8169 15.1926 62.4119 15.5771 61.7659 15.5771C60.9558 15.5771 60.4329 14.9209 60.4329 13.7878V13.7827C60.4329 12.6702 60.9507 11.9883 61.7556 11.9883C62.4375 11.9883 62.8272 12.4138 62.9348 12.9419L62.94 12.988H64.1448L64.1397 12.947C64.0628 11.8601 63.1758 10.9526 61.7454 10.9526C60.156 10.9526 59.1306 12.0396 59.1306 13.7725V13.7776C59.1306 15.5208 60.1407 16.6077 61.7556 16.6077Z" fill="white"/>
<path d="M69.8683 11.0654H65.2592V12.0549H66.9255V16.5H68.2021V12.0549H69.8683V11.0654Z" fill="white"/>
<path d="M72.1209 18.3047C73.2488 18.3047 73.8897 17.8792 74.2999 16.6846L76.2584 11.0654H74.91L73.6385 15.4131H73.5975L72.326 11.0654H70.9366L72.8899 16.5051L72.8079 16.7256C72.6439 17.1819 72.3773 17.3203 71.8851 17.3203C71.7056 17.3203 71.5569 17.2947 71.4647 17.2742V18.2483C71.6133 18.2739 71.8697 18.3047 72.1209 18.3047Z" fill="white"/>
<path d="M77.6752 16.5H78.9519V12.0498H81.1872V16.5H82.4689V11.0654H77.6752V16.5Z" fill="white"/>
<path d="M87.9105 16.5H89.1871V11.0654H87.9105V13.2085H85.6239V11.0654H84.3473V16.5H85.6239V14.198H87.9105V16.5Z" fill="white"/>
<path d="M93.4597 16.6077C95.0542 16.6077 96.0898 15.5464 96.0898 13.7827V13.7725C96.0898 12.019 95.0388 10.9526 93.4597 10.9526C91.8755 10.9526 90.8296 12.0293 90.8296 13.7725V13.7827C90.8296 15.5413 91.8601 16.6077 93.4597 16.6077ZM93.4648 15.5771C92.6548 15.5771 92.1318 14.926 92.1318 13.7827V13.7725C92.1318 12.6445 92.6599 11.9883 93.4597 11.9883C94.2646 11.9883 94.7927 12.6394 94.7927 13.7725V13.7827C94.7927 14.9209 94.2749 15.5771 93.4648 15.5771Z" fill="white"/>
<path d="M100.58 16.5H103.199C104.404 16.5 105.153 15.8899 105.153 14.9363V14.926C105.153 14.2544 104.671 13.7622 103.958 13.675V13.634C104.497 13.5417 104.912 13.0291 104.912 12.46V12.4497C104.912 11.5884 104.256 11.0654 103.158 11.0654H100.58V16.5ZM101.841 13.2803V11.9421H102.856C103.369 11.9421 103.656 12.1729 103.656 12.6035V12.6138C103.656 13.0598 103.353 13.2803 102.759 13.2803H101.841ZM101.841 15.6182V14.1365H102.8C103.487 14.1365 103.84 14.3672 103.84 14.8594V14.8696C103.84 15.3669 103.507 15.6182 102.902 15.6182H101.841Z" fill="white"/>
</svg>
