<svg width="149" height="48" viewBox="0 0 149 48" fill="none" xmlns="http://www.w3.org/2000/svg">
<path d="M33.304 26.077C33.3317 23.6108 34.6196 21.3268 36.6968 20.0236C35.3812 18.1179 33.2486 16.9548 30.9499 16.8848C28.5264 16.6325 26.1861 18.3421 24.9536 18.3421C23.6935 18.3421 21.7963 16.8988 19.7606 16.9408C17.0741 17.0249 14.623 18.5383 13.3213 20.9204C10.5378 25.7968 12.615 32.9712 15.2877 36.9088C16.6171 38.8425 18.1819 41.0005 20.2176 40.9164C22.2117 40.8323 22.9595 39.6272 25.3691 39.6272C27.751 39.6272 28.4572 40.9164 30.5344 40.8744C32.6809 40.8323 34.0241 38.9406 35.312 36.9789C36.2675 35.6056 37.0153 34.0782 37.5 32.4668C34.952 31.4018 33.304 28.8796 33.304 26.077Z" fill="white"/>
<path d="M29.3666 14.2853C30.5298 12.87 31.1115 11.0344 30.973 9.19873C29.1866 9.39491 27.5387 10.2497 26.3477 11.6229C25.1845 12.9681 24.589 14.7337 24.6998 16.5273C26.5139 16.5273 28.2311 15.7146 29.3666 14.2853Z" fill="white"/>
<path d="M54.503 37.5004H56.9332L51.5909 22.704H49.1095L43.7672 37.5004H46.1564L47.5099 33.5013H53.1495L54.503 37.5004ZM50.2989 25.1649H50.3605L52.565 31.6556H48.0943L50.2989 25.1649Z" fill="white"/>
<path d="M64.0802 26.2518C62.5318 26.2518 61.1578 27.0106 60.5323 28.2103H60.4811V26.3646H58.338V41.1918H60.5631V35.6752H60.6041C61.2706 36.9056 62.5318 37.6132 64.1315 37.6132C66.9308 37.6132 68.7867 35.3778 68.7867 31.9325C68.7867 28.4769 66.9205 26.2518 64.0802 26.2518ZM63.5162 35.7264C61.7423 35.7264 60.5528 34.2089 60.5426 31.9325C60.5528 29.6664 61.7525 28.1385 63.5162 28.1385C65.3209 28.1385 66.5104 29.6356 66.5104 31.9325C66.5104 34.2396 65.3209 35.7264 63.5162 35.7264Z" fill="white"/>
<path d="M76.3028 26.2518C74.7545 26.2518 73.3805 27.0106 72.755 28.2103H72.7037V26.3646H70.5607V41.1918H72.7858V35.6752H72.8268C73.4933 36.9056 74.7545 37.6132 76.3541 37.6132C79.1534 37.6132 81.0094 35.3778 81.0094 31.9325C81.0094 28.4769 79.1432 26.2518 76.3028 26.2518ZM75.7389 35.7264C73.965 35.7264 72.7755 34.2089 72.7652 31.9325C72.7755 29.6664 73.9752 28.1385 75.7389 28.1385C77.5436 28.1385 78.733 29.6356 78.733 31.9325C78.733 34.2396 77.5436 35.7264 75.7389 35.7264Z" fill="white"/>
<path d="M87.1925 33.3783C87.336 36.0546 89.5509 37.7465 92.8321 37.7465C96.339 37.7465 98.5436 36.0135 98.5436 33.245C98.5436 31.0814 97.2823 29.8612 94.2472 29.1434L92.6168 28.7435C90.7096 28.2719 89.9303 27.6566 89.9303 26.6107C89.9303 25.2982 91.1505 24.3959 92.9347 24.3959C94.7189 24.3959 95.9391 25.288 96.0724 26.7645H98.3077C98.2359 24.2113 96.0929 22.4579 92.9654 22.4579C89.8072 22.4579 87.5821 24.2113 87.5821 26.7645C87.5821 28.8256 88.8434 30.097 91.5607 30.7533L93.4781 31.2147C95.3956 31.6864 96.2057 32.3734 96.2057 33.5219C96.2057 34.8446 94.8624 35.8085 92.9962 35.8085C91.048 35.8085 89.6227 34.8446 89.4586 33.3783H87.1925Z" fill="white"/>
<path d="M101.046 23.8627V26.3646H99.5074V28.118H101.046V34.5677C101.046 36.7211 101.907 37.5721 104.132 37.5721C104.614 37.5721 105.137 37.5209 105.383 37.4594V35.7059C105.239 35.7264 104.86 35.7572 104.624 35.7572C103.691 35.7572 103.26 35.306 103.26 34.3422V28.118H105.393V26.3646H103.26V23.8627H101.046Z" fill="white"/>
<path d="M111.771 37.6337C114.991 37.6337 117.031 35.4393 117.031 31.9325C117.031 28.4257 114.981 26.2211 111.771 26.2211C108.562 26.2211 106.501 28.4359 106.501 31.9325C106.501 35.4393 108.551 37.6337 111.771 37.6337ZM111.771 35.788C109.884 35.788 108.756 34.3627 108.756 31.9325C108.756 29.5126 109.884 28.0668 111.771 28.0668C113.658 28.0668 114.775 29.5023 114.775 31.9325C114.775 34.3627 113.658 35.788 111.771 35.788Z" fill="white"/>
<path d="M118.816 37.5004H121.041V30.8558C121.041 29.287 121.963 28.2719 123.43 28.2719C123.871 28.2719 124.26 28.3334 124.445 28.4052V26.3236C124.271 26.2826 123.994 26.2518 123.666 26.2518C122.353 26.2518 121.328 27.0004 120.979 28.2411H120.938V26.3646H118.816V37.5004Z" fill="white"/>
<path d="M130.033 28.036C131.653 28.036 132.751 29.1844 132.802 30.9174H127.152C127.275 29.205 128.434 28.036 130.033 28.036ZM132.792 34.2396C132.484 35.2137 131.469 35.829 130.177 35.829C128.352 35.829 127.142 34.5575 127.142 32.6298V32.4965H135.027V31.7172C135.027 28.3436 133.099 26.2211 130.044 26.2211C126.926 26.2211 124.896 28.4872 124.896 31.9735C124.896 35.4598 126.906 37.6337 130.136 37.6337C132.638 37.6337 134.596 36.2391 134.914 34.2396H132.792Z" fill="white"/>
<path d="M44.1511 16.5H46.853C49.0679 16.5 50.3701 15.126 50.3701 12.783V12.7727C50.3701 10.4348 49.0576 9.10181 46.853 9.10181H44.1511V16.5ZM45.4739 15.3823V10.2195H46.7146C48.186 10.2195 49.0217 11.127 49.0217 12.7778V12.7881C49.0217 14.4749 48.2014 15.3823 46.7146 15.3823H45.4739Z" fill="white"/>
<path d="M52.7047 10.2861C53.1046 10.2861 53.4122 9.96826 53.4122 9.58887C53.4122 9.19922 53.1046 8.88647 52.7047 8.88647C52.3048 8.88647 51.9921 9.19922 51.9921 9.58887C51.9921 9.96826 52.3048 10.2861 52.7047 10.2861ZM52.0639 16.5H53.3405V11.0654H52.0639V16.5Z" fill="white"/>
<path d="M57.2849 16.6077C58.6179 16.6077 59.5664 15.9207 59.5664 14.8953V14.8901C59.5664 14.1006 59.1306 13.6597 58.0078 13.4084L57.1004 13.2085C56.5364 13.0803 56.3262 12.8752 56.3262 12.5625V12.5574C56.3262 12.1575 56.68 11.896 57.2439 11.896C57.8387 11.896 58.1873 12.2139 58.2437 12.6497L58.2488 12.6907H59.4383L59.4331 12.6343C59.387 11.696 58.5974 10.9526 57.2439 10.9526C55.9314 10.9526 55.065 11.6243 55.065 12.6189V12.624C55.065 13.429 55.5879 13.9365 56.6287 14.1672L57.531 14.3672C58.095 14.4954 58.2847 14.6799 58.2847 15.0081V15.0132C58.2847 15.4131 57.9104 15.6643 57.2901 15.6643C56.6441 15.6643 56.2903 15.3875 56.1929 14.9209L56.1826 14.8748H54.9265L54.9317 14.9209C55.0445 15.9309 55.8596 16.6077 57.2849 16.6077Z" fill="white"/>
<path d="M61.1166 18.2944H62.3932V15.5823H62.4189C62.7265 16.218 63.3468 16.6077 64.121 16.6077C65.4848 16.6077 66.3564 15.531 66.3564 13.7878V13.7827C66.3564 12.0293 65.4848 10.9526 64.1056 10.9526C63.3263 10.9526 62.7316 11.3525 62.4189 12.0037H62.3932V11.0654H61.1166V18.2944ZM63.7262 15.531C62.9367 15.531 62.383 14.8491 62.383 13.7878V13.7827C62.383 12.7163 62.9367 12.0293 63.7262 12.0293C64.5414 12.0293 65.0541 12.6958 65.0541 13.7827V13.7878C65.0541 14.8594 64.5414 15.531 63.7262 15.531Z" fill="white"/>
<path d="M70.3162 16.6077C71.9107 16.6077 72.9463 15.5464 72.9463 13.7827V13.7725C72.9463 12.019 71.8953 10.9526 70.3111 10.9526C68.732 10.9526 67.6861 12.0293 67.6861 13.7725V13.7827C67.6861 15.5413 68.7166 16.6077 70.3162 16.6077ZM70.3213 15.5771C69.5062 15.5771 68.9883 14.926 68.9883 13.7827V13.7725C68.9883 12.6445 69.5164 11.9883 70.3111 11.9883C71.1212 11.9883 71.6441 12.6394 71.6441 13.7725V13.7827C71.6441 14.9209 71.1263 15.5771 70.3213 15.5771Z" fill="white"/>
<path d="M74.5017 16.5H75.7783V13.3469C75.7783 12.5625 76.2448 12.0293 76.978 12.0293C77.706 12.0293 78.0649 12.4651 78.0649 13.2393V16.5H79.3415V12.9829C79.3415 11.7217 78.6596 10.9526 77.465 10.9526C76.6396 10.9526 76.0859 11.332 75.8039 11.9165H75.7783V11.0654H74.5017V16.5Z" fill="white"/>
<path d="M81.7787 10.2861C82.1786 10.2861 82.4862 9.96826 82.4862 9.58887C82.4862 9.19922 82.1786 8.88647 81.7787 8.88647C81.3788 8.88647 81.066 9.19922 81.066 9.58887C81.066 9.96826 81.3788 10.2861 81.7787 10.2861ZM81.1378 16.5H82.4144V11.0654H81.1378V16.5Z" fill="white"/>
<path d="M87.2715 16.6077C88.6455 16.6077 89.5171 15.531 89.5171 13.7827V13.7776C89.5171 12.0242 88.6404 10.9526 87.2766 10.9526C86.5075 10.9526 85.8872 11.3474 85.5796 11.9985H85.5488V9.10181H84.2722V16.5H85.5488V15.5771H85.5796C85.8872 16.218 86.487 16.6077 87.2715 16.6077ZM86.8869 15.531C86.0974 15.531 85.5488 14.8491 85.5488 13.7827V13.7776C85.5488 12.7163 86.1025 12.0293 86.8869 12.0293C87.7021 12.0293 88.2148 12.6958 88.2148 13.7776V13.7827C88.2148 14.8645 87.7073 15.531 86.8869 15.531Z" fill="white"/>
<path d="M91.1083 16.5H92.3849V9.10181H91.1083V16.5Z" fill="white"/>
<path d="M96.596 16.6077C98.0161 16.6077 98.8159 15.7668 98.9851 14.9312L99.0005 14.8748H97.8059L97.7957 14.9106C97.6726 15.2747 97.2573 15.613 96.6216 15.613C95.791 15.613 95.2681 15.0491 95.2476 14.0955H99.0518V13.6853C99.0518 12.0447 98.0879 10.9526 96.5344 10.9526C94.981 10.9526 93.9812 12.0806 93.9812 13.793V13.7981C93.9812 15.5259 94.9656 16.6077 96.596 16.6077ZM96.5498 11.9524C97.2266 11.9524 97.7188 12.3831 97.811 13.2444H95.2629C95.3655 12.4087 95.8731 11.9524 96.5498 11.9524Z" fill="white"/>
<path d="M105.838 16.6077C107.259 16.6077 108.058 15.7668 108.228 14.9312L108.243 14.8748H107.048L107.038 14.9106C106.915 15.2747 106.5 15.613 105.864 15.613C105.033 15.613 104.511 15.0491 104.49 14.0955H108.294V13.6853C108.294 12.0447 107.33 10.9526 105.777 10.9526C104.223 10.9526 103.224 12.0806 103.224 13.793V13.7981C103.224 15.5259 104.208 16.6077 105.838 16.6077ZM105.792 11.9524C106.469 11.9524 106.961 12.3831 107.054 13.2444H104.505C104.608 12.4087 105.116 11.9524 105.792 11.9524Z" fill="white"/>
<path d="M109.855 16.5H111.131V13.3469C111.131 12.5625 111.598 12.0293 112.331 12.0293C113.059 12.0293 113.418 12.4651 113.418 13.2393V16.5H114.695V12.9829C114.695 11.7217 114.013 10.9526 112.818 10.9526C111.993 10.9526 111.439 11.332 111.157 11.9165H111.131V11.0654H109.855V16.5Z" fill="white"/>
</svg>
