<svg width="149" height="48" viewBox="0 0 149 48" fill="none" xmlns="http://www.w3.org/2000/svg">
<path d="M33.304 26.077C33.3317 23.6108 34.6196 21.3268 36.6968 20.0236C35.3812 18.1179 33.2486 16.9548 30.9499 16.8848C28.5264 16.6325 26.1861 18.3421 24.9536 18.3421C23.6935 18.3421 21.7963 16.8988 19.7606 16.9408C17.0741 17.0249 14.623 18.5383 13.3213 20.9204C10.5378 25.7968 12.615 32.9712 15.2877 36.9088C16.6171 38.8425 18.1819 41.0005 20.2176 40.9164C22.2117 40.8323 22.9595 39.6272 25.3691 39.6272C27.751 39.6272 28.4572 40.9164 30.5344 40.8744C32.6809 40.8323 34.0241 38.9406 35.312 36.9789C36.2675 35.6056 37.0153 34.0782 37.5 32.4668C34.952 31.4018 33.304 28.8796 33.304 26.077Z" fill="white"/>
<path d="M29.3666 14.2853C30.5298 12.87 31.1115 11.0344 30.973 9.19873C29.1866 9.39491 27.5387 10.2497 26.3477 11.6229C25.1845 12.9681 24.589 14.7337 24.6998 16.5273C26.5139 16.5273 28.2311 15.7146 29.3666 14.2853Z" fill="white"/>
<path d="M54.503 37.5004H56.9332L51.5909 22.704H49.1095L43.7672 37.5004H46.1564L47.5099 33.5013H53.1495L54.503 37.5004ZM50.2989 25.1649H50.3605L52.565 31.6556H48.0943L50.2989 25.1649Z" fill="white"/>
<path d="M64.0802 26.2518C62.5318 26.2518 61.1578 27.0106 60.5323 28.2103H60.4811V26.3646H58.338V41.1918H60.5631V35.6752H60.6041C61.2706 36.9056 62.5318 37.6132 64.1315 37.6132C66.9308 37.6132 68.7867 35.3778 68.7867 31.9325C68.7867 28.4769 66.9205 26.2518 64.0802 26.2518ZM63.5162 35.7264C61.7423 35.7264 60.5528 34.2089 60.5426 31.9325C60.5528 29.6664 61.7525 28.1385 63.5162 28.1385C65.3209 28.1385 66.5104 29.6356 66.5104 31.9325C66.5104 34.2396 65.3209 35.7264 63.5162 35.7264Z" fill="white"/>
<path d="M76.3028 26.2518C74.7545 26.2518 73.3805 27.0106 72.755 28.2103H72.7037V26.3646H70.5607V41.1918H72.7858V35.6752H72.8268C73.4933 36.9056 74.7545 37.6132 76.3541 37.6132C79.1534 37.6132 81.0094 35.3778 81.0094 31.9325C81.0094 28.4769 79.1432 26.2518 76.3028 26.2518ZM75.7389 35.7264C73.965 35.7264 72.7755 34.2089 72.7652 31.9325C72.7755 29.6664 73.9752 28.1385 75.7389 28.1385C77.5436 28.1385 78.733 29.6356 78.733 31.9325C78.733 34.2396 77.5436 35.7264 75.7389 35.7264Z" fill="white"/>
<path d="M87.1925 33.3783C87.336 36.0546 89.5509 37.7465 92.8321 37.7465C96.339 37.7465 98.5436 36.0135 98.5436 33.245C98.5436 31.0814 97.2823 29.8612 94.2472 29.1434L92.6168 28.7435C90.7096 28.2719 89.9303 27.6566 89.9303 26.6107C89.9303 25.2982 91.1505 24.3959 92.9347 24.3959C94.7189 24.3959 95.9391 25.288 96.0724 26.7645H98.3077C98.2359 24.2113 96.0929 22.4579 92.9654 22.4579C89.8072 22.4579 87.5821 24.2113 87.5821 26.7645C87.5821 28.8256 88.8434 30.097 91.5607 30.7533L93.4781 31.2147C95.3956 31.6864 96.2057 32.3734 96.2057 33.5219C96.2057 34.8446 94.8624 35.8085 92.9962 35.8085C91.048 35.8085 89.6227 34.8446 89.4586 33.3783H87.1925Z" fill="white"/>
<path d="M101.046 23.8627V26.3646H99.5074V28.118H101.046V34.5677C101.046 36.7211 101.907 37.5721 104.132 37.5721C104.614 37.5721 105.137 37.5209 105.383 37.4594V35.7059C105.239 35.7264 104.86 35.7572 104.624 35.7572C103.691 35.7572 103.26 35.306 103.26 34.3422V28.118H105.393V26.3646H103.26V23.8627H101.046Z" fill="white"/>
<path d="M111.771 37.6337C114.991 37.6337 117.031 35.4393 117.031 31.9325C117.031 28.4257 114.981 26.2211 111.771 26.2211C108.562 26.2211 106.501 28.4359 106.501 31.9325C106.501 35.4393 108.551 37.6337 111.771 37.6337ZM111.771 35.788C109.884 35.788 108.756 34.3627 108.756 31.9325C108.756 29.5126 109.884 28.0668 111.771 28.0668C113.658 28.0668 114.775 29.5023 114.775 31.9325C114.775 34.3627 113.658 35.788 111.771 35.788Z" fill="white"/>
<path d="M118.816 37.5004H121.041V30.8558C121.041 29.287 121.963 28.2719 123.43 28.2719C123.871 28.2719 124.26 28.3334 124.445 28.4052V26.3236C124.271 26.2826 123.994 26.2518 123.666 26.2518C122.353 26.2518 121.328 27.0004 120.979 28.2411H120.938V26.3646H118.816V37.5004Z" fill="white"/>
<path d="M130.033 28.036C131.653 28.036 132.751 29.1844 132.802 30.9174H127.152C127.275 29.205 128.434 28.036 130.033 28.036ZM132.792 34.2396C132.484 35.2137 131.469 35.829 130.177 35.829C128.352 35.829 127.142 34.5575 127.142 32.6298V32.4965H135.027V31.7172C135.027 28.3436 133.099 26.2211 130.044 26.2211C126.926 26.2211 124.896 28.4872 124.896 31.9735C124.896 35.4598 126.906 37.6337 130.136 37.6337C132.638 37.6337 134.596 36.2391 134.914 34.2396H132.792Z" fill="white"/>
<path d="M43.6384 16.5H45.0227L45.6482 14.5876H48.4014L49.0269 16.5H50.4163L47.7708 9.10181H46.2839L43.6384 16.5ZM47.012 10.4194H47.0427L48.0681 13.5674H45.9814L47.012 10.4194Z" fill="white"/>
<path d="M52.8175 16.5H54.2223L56.1347 11.0654H54.8017L53.5455 15.3157H53.5148L52.2536 11.0654H50.8949L52.8175 16.5Z" fill="white"/>
<path d="M58.9409 16.5923C59.6587 16.5923 60.2637 16.2334 60.5764 15.6643H60.6072V16.5H61.8838V12.7625C61.8838 11.6704 61.0071 10.9526 59.6485 10.9526C58.2693 10.9526 57.4336 11.6755 57.3567 12.6394L57.3516 12.7009H58.5359L58.5462 12.6548C58.6282 12.2549 58.9973 11.9729 59.6023 11.9729C60.2483 11.9729 60.6072 12.3062 60.6072 12.8547V13.229L59.187 13.3162C57.8694 13.3982 57.1209 13.9775 57.1209 14.9414V14.9517C57.1209 15.9207 57.854 16.5923 58.9409 16.5923ZM58.3924 14.9004V14.8953C58.3924 14.4646 58.7359 14.1929 59.3665 14.1519L60.6072 14.075V14.4851C60.6072 15.1311 60.0535 15.6182 59.3203 15.6182C58.7615 15.6182 58.3924 15.3464 58.3924 14.9004Z" fill="white"/>
<path d="M64.3261 10.2861C64.726 10.2861 65.0336 9.96826 65.0336 9.58887C65.0336 9.19922 64.726 8.88647 64.3261 8.88647C63.9262 8.88647 63.6134 9.19922 63.6134 9.58887C63.6134 9.96826 63.9262 10.2861 64.3261 10.2861ZM63.6852 16.5H64.9618V11.0654H63.6852V16.5Z" fill="white"/>
<path d="M66.8196 16.5H68.0962V9.10181H66.8196V16.5Z" fill="white"/>
<path d="M71.5229 16.5923C72.2407 16.5923 72.8457 16.2334 73.1584 15.6643H73.1892V16.5H74.4658V12.7625C74.4658 11.6704 73.5891 10.9526 72.2304 10.9526C70.8513 10.9526 70.0156 11.6755 69.9387 12.6394L69.9335 12.7009H71.1179L71.1281 12.6548C71.2102 12.2549 71.5793 11.9729 72.1843 11.9729C72.8303 11.9729 73.1892 12.3062 73.1892 12.8547V13.229L71.769 13.3162C70.4514 13.3982 69.7028 13.9775 69.7028 14.9414V14.9517C69.7028 15.9207 70.436 16.5923 71.5229 16.5923ZM70.9743 14.9004V14.8953C70.9743 14.4646 71.3178 14.1929 71.9484 14.1519L73.1892 14.075V14.4851C73.1892 15.1311 72.6355 15.6182 71.9023 15.6182C71.3435 15.6182 70.9743 15.3464 70.9743 14.9004Z" fill="white"/>
<path d="M79.2664 16.6077C80.6405 16.6077 81.5121 15.531 81.5121 13.7827V13.7776C81.5121 12.0242 80.6353 10.9526 79.2716 10.9526C78.5025 10.9526 77.8822 11.3474 77.5746 11.9985H77.5438V9.10181H76.2672V16.5H77.5438V15.5771H77.5746C77.8822 16.218 78.482 16.6077 79.2664 16.6077ZM78.8819 15.531C78.0924 15.531 77.5438 14.8491 77.5438 13.7827V13.7776C77.5438 12.7163 78.0975 12.0293 78.8819 12.0293C79.6971 12.0293 80.2098 12.6958 80.2098 13.7776V13.7827C80.2098 14.8645 79.7022 15.531 78.8819 15.531Z" fill="white"/>
<path d="M83.1033 16.5H84.3799V9.10181H83.1033V16.5Z" fill="white"/>
<path d="M88.5909 16.6077C90.0111 16.6077 90.8109 15.7668 90.9801 14.9312L90.9955 14.8748H89.8009L89.7906 14.9106C89.6676 15.2747 89.2523 15.613 88.6166 15.613C87.786 15.613 87.2631 15.0491 87.2425 14.0955H91.0467V13.6853C91.0467 12.0447 90.0829 10.9526 88.5294 10.9526C86.9759 10.9526 85.9762 12.0806 85.9762 13.793V13.7981C85.9762 15.5259 86.9606 16.6077 88.5909 16.6077ZM88.5448 11.9524C89.2216 11.9524 89.7137 12.3831 89.806 13.2444H87.2579C87.3605 12.4087 87.868 11.9524 88.5448 11.9524Z" fill="white"/>
<path d="M96.121 10.2861C96.5209 10.2861 96.8285 9.96826 96.8285 9.58887C96.8285 9.19922 96.5209 8.88647 96.121 8.88647C95.7211 8.88647 95.4084 9.19922 95.4084 9.58887C95.4084 9.96826 95.7211 10.2861 96.121 10.2861ZM95.4801 16.5H96.7567V11.0654H95.4801V16.5Z" fill="white"/>
<path d="M98.5787 16.5H99.8553V13.3469C99.8553 12.5625 100.322 12.0293 101.055 12.0293C101.783 12.0293 102.142 12.4651 102.142 13.2393V16.5H103.418V12.9829C103.418 11.7217 102.737 10.9526 101.542 10.9526C100.717 10.9526 100.163 11.332 99.8809 11.9165H99.8553V11.0654H98.5787V16.5Z" fill="white"/>
</svg>
