<svg width="149" height="48" viewBox="0 0 149 48" fill="none" xmlns="http://www.w3.org/2000/svg">
<path d="M33.304 26.077C33.3317 23.6108 34.6196 21.3268 36.6968 20.0236C35.3812 18.1179 33.2486 16.9548 30.9499 16.8848C28.5264 16.6325 26.1861 18.3421 24.9536 18.3421C23.6935 18.3421 21.7963 16.8988 19.7606 16.9408C17.0741 17.0249 14.623 18.5383 13.3213 20.9204C10.5378 25.7968 12.615 32.9712 15.2877 36.9088C16.6171 38.8425 18.1819 41.0005 20.2176 40.9164C22.2117 40.8323 22.9595 39.6272 25.3691 39.6272C27.751 39.6272 28.4572 40.9164 30.5344 40.8744C32.6809 40.8323 34.0241 38.9406 35.312 36.9789C36.2675 35.6056 37.0153 34.0782 37.5 32.4668C34.952 31.4018 33.304 28.8796 33.304 26.077Z" fill="white"/>
<path d="M29.3666 14.2853C30.5298 12.87 31.1115 11.0344 30.973 9.19873C29.1866 9.39491 27.5387 10.2497 26.3477 11.6229C25.1845 12.9681 24.589 14.7337 24.6998 16.5273C26.5139 16.5273 28.2311 15.7146 29.3666 14.2853Z" fill="white"/>
<path d="M54.503 37.5004H56.9332L51.5909 22.704H49.1095L43.7672 37.5004H46.1564L47.5099 33.5013H53.1495L54.503 37.5004ZM50.2989 25.1649H50.3605L52.565 31.6556H48.0943L50.2989 25.1649Z" fill="white"/>
<path d="M64.0802 26.2518C62.5318 26.2518 61.1578 27.0106 60.5323 28.2103H60.4811V26.3646H58.338V41.1918H60.5631V35.6752H60.6041C61.2706 36.9056 62.5318 37.6132 64.1315 37.6132C66.9308 37.6132 68.7867 35.3778 68.7867 31.9325C68.7867 28.4769 66.9205 26.2518 64.0802 26.2518ZM63.5162 35.7264C61.7423 35.7264 60.5528 34.2089 60.5426 31.9325C60.5528 29.6664 61.7525 28.1385 63.5162 28.1385C65.3209 28.1385 66.5104 29.6356 66.5104 31.9325C66.5104 34.2396 65.3209 35.7264 63.5162 35.7264Z" fill="white"/>
<path d="M76.3028 26.2518C74.7545 26.2518 73.3805 27.0106 72.755 28.2103H72.7037V26.3646H70.5607V41.1918H72.7858V35.6752H72.8268C73.4933 36.9056 74.7545 37.6132 76.3541 37.6132C79.1534 37.6132 81.0094 35.3778 81.0094 31.9325C81.0094 28.4769 79.1432 26.2518 76.3028 26.2518ZM75.7389 35.7264C73.965 35.7264 72.7755 34.2089 72.7652 31.9325C72.7755 29.6664 73.9752 28.1385 75.7389 28.1385C77.5436 28.1385 78.733 29.6356 78.733 31.9325C78.733 34.2396 77.5436 35.7264 75.7389 35.7264Z" fill="white"/>
<path d="M87.1925 33.3783C87.336 36.0546 89.5509 37.7465 92.8321 37.7465C96.339 37.7465 98.5436 36.0135 98.5436 33.245C98.5436 31.0814 97.2823 29.8612 94.2472 29.1434L92.6168 28.7435C90.7096 28.2719 89.9303 27.6566 89.9303 26.6107C89.9303 25.2982 91.1505 24.3959 92.9347 24.3959C94.7189 24.3959 95.9391 25.288 96.0724 26.7645H98.3077C98.2359 24.2113 96.0929 22.4579 92.9654 22.4579C89.8072 22.4579 87.5821 24.2113 87.5821 26.7645C87.5821 28.8256 88.8434 30.097 91.5607 30.7533L93.4781 31.2147C95.3956 31.6864 96.2057 32.3734 96.2057 33.5219C96.2057 34.8446 94.8624 35.8085 92.9962 35.8085C91.048 35.8085 89.6227 34.8446 89.4586 33.3783H87.1925Z" fill="white"/>
<path d="M101.046 23.8627V26.3646H99.5074V28.118H101.046V34.5677C101.046 36.7211 101.907 37.5721 104.132 37.5721C104.614 37.5721 105.137 37.5209 105.383 37.4594V35.7059C105.239 35.7264 104.86 35.7572 104.624 35.7572C103.691 35.7572 103.26 35.306 103.26 34.3422V28.118H105.393V26.3646H103.26V23.8627H101.046Z" fill="white"/>
<path d="M111.771 37.6337C114.991 37.6337 117.031 35.4393 117.031 31.9325C117.031 28.4257 114.981 26.2211 111.771 26.2211C108.562 26.2211 106.501 28.4359 106.501 31.9325C106.501 35.4393 108.551 37.6337 111.771 37.6337ZM111.771 35.788C109.884 35.788 108.756 34.3627 108.756 31.9325C108.756 29.5126 109.884 28.0668 111.771 28.0668C113.658 28.0668 114.775 29.5023 114.775 31.9325C114.775 34.3627 113.658 35.788 111.771 35.788Z" fill="white"/>
<path d="M118.816 37.5004H121.041V30.8558C121.041 29.287 121.963 28.2719 123.43 28.2719C123.871 28.2719 124.26 28.3334 124.445 28.4052V26.3236C124.271 26.2826 123.994 26.2518 123.666 26.2518C122.353 26.2518 121.328 27.0004 120.979 28.2411H120.938V26.3646H118.816V37.5004Z" fill="white"/>
<path d="M130.033 28.036C131.653 28.036 132.751 29.1844 132.802 30.9174H127.152C127.275 29.205 128.434 28.036 130.033 28.036ZM132.792 34.2396C132.484 35.2137 131.469 35.829 130.177 35.829C128.352 35.829 127.142 34.5575 127.142 32.6298V32.4965H135.027V31.7172C135.027 28.3436 133.099 26.2211 130.044 26.2211C126.926 26.2211 124.896 28.4872 124.896 31.9735C124.896 35.4598 126.906 37.6337 130.136 37.6337C132.638 37.6337 134.596 36.2391 134.914 34.2396H132.792Z" fill="white"/>
<path d="M47.1965 16.6282C49.0781 16.6282 50.2317 15.5259 50.2317 13.8904V9.10181H48.9141V13.7827C48.9141 14.8081 48.2937 15.4797 47.1965 15.4797C46.0994 15.4797 45.4739 14.8081 45.4739 13.7827V9.10181H44.1511V13.8904C44.1511 15.5259 45.3201 16.6282 47.1965 16.6282Z" fill="white"/>
<path d="M52.879 18.3047C54.0121 18.3047 54.6478 17.8792 55.0631 16.6846L57.0165 11.0654H55.6732L54.3966 15.4131H54.3607L53.0892 11.0654H51.6947L53.6481 16.5051L53.5712 16.7256C53.4071 17.1819 53.1354 17.3203 52.6483 17.3203C52.4689 17.3203 52.3202 17.2947 52.2228 17.2742V18.2483C52.3766 18.2739 52.6329 18.3047 52.879 18.3047Z" fill="white"/>
<path d="M60.597 18.4021C62.1709 18.4021 63.1604 17.5767 63.1604 16.3462V11.0654H61.8838V11.9883H61.8531C61.5454 11.3628 60.9507 10.9526 60.1817 10.9526C58.8076 10.9526 57.9207 12.0088 57.9207 13.7263V13.7314C57.9207 15.4233 58.7974 16.4692 60.1612 16.4692C60.9405 16.4692 61.5557 16.1001 61.8582 15.5208H61.8838V16.3052C61.8838 16.9973 61.4275 17.4382 60.597 17.4382C59.9304 17.4382 59.4947 17.2024 59.3562 16.8896L59.3408 16.8486H58.0847L58.095 16.8948C58.2488 17.7458 59.1563 18.4021 60.597 18.4021ZM60.5611 15.4849C59.7408 15.4849 59.2229 14.8235 59.2229 13.752V13.7468C59.2229 12.6907 59.7408 12.0293 60.5611 12.0293C61.3506 12.0293 61.8889 12.7009 61.8889 13.752V13.7571C61.8889 14.8132 61.3557 15.4849 60.5611 15.4849Z" fill="white"/>
<path d="M66.7922 16.6077C67.6125 16.6077 68.1713 16.2283 68.4533 15.6489H68.4789V16.5H69.7555V11.0654H68.4789V14.2134C68.4789 15.0029 68.0124 15.531 67.2792 15.531C66.5512 15.531 66.1923 15.0952 66.1923 14.3262V11.0654H64.9157V14.5774C64.9157 15.8386 65.5976 16.6077 66.7922 16.6077Z" fill="white"/>
<path d="M71.5416 16.5H72.8182V13.3469C72.8182 12.5625 73.2847 12.0293 74.0179 12.0293C74.7459 12.0293 75.1048 12.4651 75.1048 13.2393V16.5H76.3814V12.9829C76.3814 11.7217 75.6995 10.9526 74.5049 10.9526C73.6795 10.9526 73.1258 11.332 72.8438 11.9165H72.8182V11.0654H71.5416V16.5Z" fill="white"/>
</svg>
