<svg width="167" height="48" viewBox="0 0 167 48" fill="none" xmlns="http://www.w3.org/2000/svg">
<path d="M14.6263 12L31.6909 21.6129L28.0091 25.2642L14.6263 12Z" fill="white"/>
<path d="M33.7676 22.7854L29.5392 26.9789L33.7675 31.1723L39.5145 27.9329C40.2453 27.5194 40.3539 27.1297 40.3539 26.974C40.3539 26.8202 40.2482 26.4347 39.5195 26.0276L39.5159 26.0256L33.7676 22.7854Z" fill="white"/>
<path d="M26.4755 26.9794L12 12.6379V41.3353L26.4755 26.9794Z" fill="white"/>
<path d="M14.5795 42L31.6918 32.3458L28.003 28.6874L14.5795 42Z" fill="white"/>
<path fill-rule="evenodd" clip-rule="evenodd" d="M83.0365 28.6561C80.1166 28.6561 77.7499 30.8757 77.7499 33.9373C77.7499 36.971 80.1321 39.2185 83.0365 39.2185C85.9563 39.2185 88.3231 36.9834 88.3231 33.9373C88.3231 30.8757 85.9563 28.6561 83.0365 28.6561ZM83.0365 37.1258C81.4391 37.1258 80.0641 35.8009 80.0641 33.9249C80.0641 32.0211 81.4422 30.724 83.0365 30.724C84.6339 30.724 86.0088 32.0211 86.0088 33.9249C86.0119 35.8132 84.6339 37.1258 83.0365 37.1258ZM71.5023 28.6561C68.5825 28.6561 66.2157 30.8757 66.2157 33.9373C66.2157 36.971 68.5979 39.2185 71.5023 39.2185C74.4222 39.2185 76.7889 36.9834 76.7889 33.9373C76.7889 30.8757 74.4191 28.6561 71.5023 28.6561ZM71.5023 37.1258C69.9049 37.1258 68.53 35.8009 68.53 33.9249C68.53 32.0211 69.908 30.724 71.5023 30.724C73.0997 30.724 74.4747 32.0211 74.4747 33.9249C74.4747 35.8132 73.0997 37.1258 71.5023 37.1258ZM57.7775 30.2689V32.504H63.1321C62.9684 33.7577 62.5543 34.6833 61.9209 35.3179C61.1361 36.1042 59.9249 36.9586 57.7899 36.9586C54.4993 36.9586 51.9255 34.2964 51.9255 30.9995C51.9255 27.7027 54.4993 25.0404 57.7899 25.0404C59.5665 25.0404 60.8611 25.7431 61.822 26.6409L63.404 25.0559C62.0692 23.7743 60.2926 22.793 57.8022 22.793C53.2881 22.793 49.5 26.4768 49.5 30.9871C49.5 35.5099 53.285 39.1813 57.8022 39.1813C60.2401 39.1813 62.0692 38.3826 63.5152 36.8781C64.9891 35.4015 65.4556 33.3182 65.4556 31.6372C65.4556 31.1141 65.4155 30.6435 65.332 30.2442H57.7744C57.7775 30.2411 57.7775 30.2689 57.7775 30.2689ZM113.916 32.0087C113.474 30.8231 112.139 28.6437 109.402 28.6437C106.689 28.6437 104.433 30.7828 104.433 33.9249C104.433 36.8905 106.664 39.2061 109.664 39.2061C112.074 39.2061 113.477 37.7294 114.055 36.8627L112.266 35.6616C111.673 36.5438 110.848 37.1227 109.677 37.1227C108.493 37.1227 107.665 36.5841 107.115 35.5223L114.163 32.5969C114.163 32.6 113.916 32.0087 113.916 32.0087ZM106.729 33.7732C106.673 31.7332 108.311 30.6961 109.482 30.6961C110.406 30.6961 111.175 31.1512 111.438 31.8137L106.729 33.7732ZM101.004 38.8903H103.318V23.3749H101.004V38.8903ZM97.2031 29.8294H97.1197C96.5975 29.2071 95.6057 28.6437 94.3389 28.6437C91.7095 28.6437 89.2871 30.9624 89.2871 33.9404C89.2871 36.906 91.6971 39.1968 94.3389 39.1968C95.5902 39.1968 96.5975 38.6303 97.1197 37.9957H97.2031V38.7541C97.2031 40.7694 96.1279 41.8559 94.3945 41.8559C92.9763 41.8559 92.0957 40.8344 91.7373 39.98L89.7259 40.822C90.3036 42.215 91.8454 43.9393 94.3914 43.9393C97.1042 43.9393 99.403 42.3389 99.403 38.4353V28.9595H97.2155V29.8294C97.2186 29.8294 97.2031 29.8294 97.2031 29.8294ZM94.5459 37.1258C92.9485 37.1258 91.6137 35.7885 91.6137 33.9404C91.6137 32.0768 92.9485 30.7271 94.5459 30.7271C96.1279 30.7271 97.3545 32.0923 97.3545 33.9404C97.37 35.7885 96.131 37.1258 94.5459 37.1258ZM124.752 23.3749H119.218V38.8903H121.532V33.0148H124.755C127.316 33.0148 129.834 31.1543 129.834 28.2011C129.834 25.2478 127.325 23.3749 124.752 23.3749ZM124.82 30.8478H121.529V25.5233H124.82C126.553 25.5233 127.532 26.9566 127.532 28.1856C127.532 29.4022 126.541 30.8478 124.82 30.8478ZM139.11 28.6283C137.429 28.6283 135.696 29.3743 134.979 30.9995L137.03 31.8539C137.472 30.9995 138.282 30.7085 139.138 30.7085C140.336 30.7085 141.548 31.4267 141.575 32.7083V32.8724C141.161 32.6371 140.253 32.278 139.165 32.278C136.95 32.278 134.704 33.4915 134.704 35.7668C134.704 37.8502 136.521 39.1875 138.544 39.1875C140.099 39.1875 140.954 38.4848 141.489 37.6706H141.572V38.8717H143.803V32.9281C143.803 30.1606 141.752 28.6283 139.11 28.6283ZM138.819 37.1258C138.062 37.1258 137.003 36.7543 137.003 35.8009C137.003 34.5998 138.325 34.1447 139.453 34.1447C140.472 34.1447 140.954 34.3645 141.56 34.6679C141.393 36.0609 140.219 37.1134 138.819 37.1258ZM151.942 28.9595L149.284 35.6894H149.201L146.448 28.9595H143.958L148.089 38.3672L145.734 43.5957H148.144L154.5 28.9595H151.942ZM131.11 38.8903H133.425V23.3749H131.11V38.8903Z" fill="white"/>
<path d="M50.4229 16.5L51.0601 14.6279H53.3672L54.0044 16.5H54.6812L52.5278 10.5059H51.8994L49.7461 16.5H50.4229ZM52.2246 11.3013L53.1826 14.0962H51.2402L52.1982 11.3013H52.2246Z" fill="white"/>
<path d="M57.3043 16.5H57.9371L60.13 10.5059H59.4005L57.6383 15.7222H57.6032L55.8454 10.5059H55.1115L57.3043 16.5Z" fill="white"/>
<path d="M61.2415 16.5L61.8787 14.6279H64.1858L64.823 16.5H65.4998L63.3465 10.5059H62.718L60.5647 16.5H61.2415ZM63.0432 11.3013L64.0012 14.0962H62.0589L63.0169 11.3013H63.0432Z" fill="white"/>
<path d="M67.6308 16.5V10.5059H66.9848V16.5H67.6308Z" fill="white"/>
<path d="M73.2115 15.9155H70.377V10.5059H69.7354V16.5H73.2115V15.9155Z" fill="white"/>
<path d="M74.9865 16.5L75.6237 14.6279H77.9309L78.5681 16.5H79.2448L77.0915 10.5059H76.4631L74.3098 16.5H74.9865ZM76.7883 11.3013L77.7463 14.0962H75.8039L76.7619 11.3013H76.7883Z" fill="white"/>
<path d="M80.721 16.5H82.8172C83.2538 16.5 83.6258 16.4326 83.9334 16.2979C84.244 16.1631 84.4813 15.9712 84.6454 15.7222C84.8123 15.4731 84.8958 15.1758 84.8958 14.8301C84.8958 14.5488 84.8416 14.3042 84.7332 14.0962C84.6278 13.8853 84.4769 13.7168 84.2806 13.5908C84.0843 13.4619 83.8529 13.3799 83.5863 13.3447V13.314C83.7796 13.2524 83.9481 13.1631 84.0916 13.0459C84.2381 12.9258 84.3509 12.7764 84.43 12.5977C84.5091 12.4189 84.5487 12.2124 84.5487 11.978C84.5487 11.5239 84.3993 11.165 84.1004 10.9014C83.8045 10.6377 83.4002 10.5059 82.8875 10.5059H80.721V16.5ZM81.3626 11.0903H82.7909C83.1395 11.0903 83.4105 11.1782 83.6038 11.354C83.7972 11.5269 83.8939 11.7715 83.8939 12.0879C83.8939 12.3252 83.8382 12.5215 83.7269 12.6768C83.6156 12.8291 83.4486 12.9419 83.2259 13.0151C83.0062 13.0884 82.7293 13.125 82.3954 13.125H81.3626V11.0903ZM81.3626 13.7095H82.8963C83.1717 13.7095 83.409 13.7534 83.6082 13.8413C83.8104 13.9292 83.9642 14.0581 84.0697 14.228C84.1781 14.3979 84.2323 14.6045 84.2323 14.8477C84.2323 15.2168 84.096 15.4863 83.8236 15.6562C83.554 15.8262 83.119 15.9111 82.5184 15.9111H81.3626V13.7095Z" fill="white"/>
<path d="M90.1294 15.9155H87.2949V10.5059H86.6533V16.5H90.1294V15.9155Z" fill="white"/>
<path d="M95.1256 15.9111H92.234V13.7271H94.9674V13.1426H92.234V11.0903H95.1256V10.5059H91.5924V16.5H95.1256V15.9111Z" fill="white"/>
<path d="M100.034 16.5V10.5059H99.3876V16.5H100.034Z" fill="white"/>
<path d="M102.78 16.5V11.6133H102.811L105.944 16.5H106.585V10.5059H105.944V15.3926H105.909L102.784 10.5059H102.138V16.5H102.78Z" fill="white"/>
</svg>
