<svg width="167" height="48" viewBox="0 0 167 48" fill="none" xmlns="http://www.w3.org/2000/svg">
<path d="M14.6263 12L31.6909 21.6129L28.0091 25.2642L14.6263 12Z" fill="white"/>
<path d="M33.7676 22.7854L29.5392 26.9789L33.7675 31.1723L39.5145 27.9329C40.2453 27.5194 40.3539 27.1297 40.3539 26.974C40.3539 26.8202 40.2482 26.4347 39.5195 26.0276L39.5159 26.0256L33.7676 22.7854Z" fill="white"/>
<path d="M26.4755 26.9794L12 12.6379V41.3353L26.4755 26.9794Z" fill="white"/>
<path d="M14.5795 42L31.6918 32.3458L28.003 28.6874L14.5795 42Z" fill="white"/>
<path fill-rule="evenodd" clip-rule="evenodd" d="M83.0365 28.6561C80.1166 28.6561 77.7499 30.8757 77.7499 33.9373C77.7499 36.971 80.1321 39.2185 83.0365 39.2185C85.9563 39.2185 88.3231 36.9834 88.3231 33.9373C88.3231 30.8757 85.9563 28.6561 83.0365 28.6561ZM83.0365 37.1258C81.4391 37.1258 80.0641 35.8009 80.0641 33.9249C80.0641 32.0211 81.4422 30.724 83.0365 30.724C84.6339 30.724 86.0088 32.0211 86.0088 33.9249C86.0119 35.8132 84.6339 37.1258 83.0365 37.1258ZM71.5023 28.6561C68.5825 28.6561 66.2157 30.8757 66.2157 33.9373C66.2157 36.971 68.5979 39.2185 71.5023 39.2185C74.4222 39.2185 76.7889 36.9834 76.7889 33.9373C76.7889 30.8757 74.4191 28.6561 71.5023 28.6561ZM71.5023 37.1258C69.9049 37.1258 68.53 35.8009 68.53 33.9249C68.53 32.0211 69.908 30.724 71.5023 30.724C73.0997 30.724 74.4747 32.0211 74.4747 33.9249C74.4747 35.8132 73.0997 37.1258 71.5023 37.1258ZM57.7775 30.2689V32.504H63.1321C62.9684 33.7577 62.5543 34.6833 61.9209 35.3179C61.1361 36.1042 59.9249 36.9586 57.7899 36.9586C54.4993 36.9586 51.9255 34.2964 51.9255 30.9995C51.9255 27.7027 54.4993 25.0404 57.7899 25.0404C59.5665 25.0404 60.8611 25.7431 61.822 26.6409L63.404 25.0559C62.0692 23.7743 60.2926 22.793 57.8022 22.793C53.2881 22.793 49.5 26.4768 49.5 30.9871C49.5 35.5099 53.285 39.1813 57.8022 39.1813C60.2401 39.1813 62.0692 38.3826 63.5152 36.8781C64.9891 35.4015 65.4556 33.3182 65.4556 31.6372C65.4556 31.1141 65.4155 30.6435 65.332 30.2442H57.7744C57.7775 30.2411 57.7775 30.2689 57.7775 30.2689ZM113.916 32.0087C113.474 30.8231 112.139 28.6437 109.402 28.6437C106.689 28.6437 104.433 30.7828 104.433 33.9249C104.433 36.8905 106.664 39.2061 109.664 39.2061C112.074 39.2061 113.477 37.7294 114.055 36.8627L112.266 35.6616C111.673 36.5438 110.848 37.1227 109.677 37.1227C108.493 37.1227 107.665 36.5841 107.115 35.5223L114.163 32.5969C114.163 32.6 113.916 32.0087 113.916 32.0087ZM106.729 33.7732C106.673 31.7332 108.311 30.6961 109.482 30.6961C110.406 30.6961 111.175 31.1512 111.438 31.8137L106.729 33.7732ZM101.004 38.8903H103.318V23.3749H101.004V38.8903ZM97.2031 29.8294H97.1197C96.5975 29.2071 95.6057 28.6437 94.3389 28.6437C91.7095 28.6437 89.2871 30.9624 89.2871 33.9404C89.2871 36.906 91.6971 39.1968 94.3389 39.1968C95.5902 39.1968 96.5975 38.6303 97.1197 37.9957H97.2031V38.7541C97.2031 40.7694 96.1279 41.8559 94.3945 41.8559C92.9763 41.8559 92.0957 40.8344 91.7373 39.98L89.7259 40.822C90.3036 42.215 91.8454 43.9393 94.3914 43.9393C97.1042 43.9393 99.403 42.3389 99.403 38.4353V28.9595H97.2155V29.8294C97.2186 29.8294 97.2031 29.8294 97.2031 29.8294ZM94.5459 37.1258C92.9485 37.1258 91.6137 35.7885 91.6137 33.9404C91.6137 32.0768 92.9485 30.7271 94.5459 30.7271C96.1279 30.7271 97.3545 32.0923 97.3545 33.9404C97.37 35.7885 96.131 37.1258 94.5459 37.1258ZM124.752 23.3749H119.218V38.8903H121.532V33.0148H124.755C127.316 33.0148 129.834 31.1543 129.834 28.2011C129.834 25.2478 127.325 23.3749 124.752 23.3749ZM124.82 30.8478H121.529V25.5233H124.82C126.553 25.5233 127.532 26.9566 127.532 28.1856C127.532 29.4022 126.541 30.8478 124.82 30.8478ZM139.11 28.6283C137.429 28.6283 135.696 29.3743 134.979 30.9995L137.03 31.8539C137.472 30.9995 138.282 30.7085 139.138 30.7085C140.336 30.7085 141.548 31.4267 141.575 32.7083V32.8724C141.161 32.6371 140.253 32.278 139.165 32.278C136.95 32.278 134.704 33.4915 134.704 35.7668C134.704 37.8502 136.521 39.1875 138.544 39.1875C140.099 39.1875 140.954 38.4848 141.489 37.6706H141.572V38.8717H143.803V32.9281C143.803 30.1606 141.752 28.6283 139.11 28.6283ZM138.819 37.1258C138.062 37.1258 137.003 36.7543 137.003 35.8009C137.003 34.5998 138.325 34.1447 139.453 34.1447C140.472 34.1447 140.954 34.3645 141.56 34.6679C141.393 36.0609 140.219 37.1134 138.819 37.1258ZM151.942 28.9595L149.284 35.6894H149.201L146.448 28.9595H143.958L148.089 38.3672L145.734 43.5957H148.144L154.5 28.9595H151.942ZM131.11 38.8903H133.425V23.3749H131.11V38.8903Z" fill="white"/>
<path d="M50.3657 10.5059V16.5H52.2026C52.7886 16.5 53.2764 16.3857 53.666 16.1572C54.0557 15.9287 54.3472 15.5918 54.5405 15.1465C54.7368 14.7012 54.835 14.1533 54.835 13.5029C54.835 12.8525 54.7368 12.3047 54.5405 11.8594C54.3472 11.4141 54.0542 11.0771 53.6616 10.8486C53.272 10.6201 52.7856 10.5059 52.2026 10.5059H50.3657ZM51.0073 11.0903H52.1807C52.626 11.0903 52.9951 11.1812 53.2881 11.3628C53.584 11.5415 53.8052 11.811 53.9517 12.1714C54.0981 12.5288 54.1714 12.9727 54.1714 13.5029C54.1714 13.9014 54.1304 14.2515 54.0483 14.5532C53.9663 14.8521 53.8433 15.1025 53.6792 15.3047C53.5151 15.5068 53.3071 15.6592 53.0552 15.7617C52.8062 15.8613 52.5146 15.9111 52.1807 15.9111H51.0073V11.0903Z" fill="white"/>
<path d="M57.2692 16.5V10.5059H56.6232V16.5H57.2692Z" fill="white"/>
<path d="M58.9256 15.0146C58.9461 15.249 59.0091 15.4644 59.1145 15.6606C59.2229 15.8569 59.3679 16.0283 59.5496 16.1748C59.7342 16.3184 59.951 16.4297 60.2 16.5088C60.4519 16.5879 60.7317 16.6274 61.0393 16.6274C61.4817 16.6274 61.867 16.5557 62.1951 16.4121C62.5232 16.2656 62.7781 16.0605 62.9597 15.7969C63.1414 15.5332 63.2322 15.2241 63.2322 14.8696C63.2322 14.5854 63.1751 14.3408 63.0608 14.1357C62.9495 13.9307 62.7781 13.7563 62.5467 13.6128C62.3181 13.4692 62.0252 13.3491 61.6678 13.2524L60.6614 12.98C60.3684 12.9009 60.1443 12.7837 59.989 12.6284C59.8367 12.4702 59.7605 12.2725 59.7605 12.0352C59.7605 11.71 59.885 11.4478 60.1341 11.2485C60.386 11.0493 60.7141 10.9497 61.1184 10.9497C61.3763 10.9497 61.6004 10.9893 61.7908 11.0684C61.9842 11.1445 62.1394 11.2544 62.2566 11.3979C62.3767 11.5386 62.4544 11.7026 62.4895 11.8901H63.1531C63.1238 11.5913 63.0213 11.3276 62.8455 11.0991C62.6697 10.8677 62.4353 10.6875 62.1424 10.5586C61.8523 10.4268 61.5169 10.3608 61.136 10.3608C60.7405 10.3608 60.3904 10.4341 60.0857 10.5806C59.781 10.7271 59.5408 10.9277 59.365 11.1826C59.1922 11.4375 59.1057 11.729 59.1057 12.0571C59.1057 12.3149 59.1585 12.5464 59.2639 12.7515C59.3723 12.9565 59.5291 13.1323 59.7342 13.2788C59.9422 13.4224 60.1927 13.5322 60.4856 13.6084L61.5139 13.8853C61.8772 13.979 62.1438 14.1064 62.3137 14.2676C62.4837 14.4258 62.5686 14.6411 62.5686 14.9136C62.5686 15.1421 62.51 15.3413 62.3929 15.5112C62.2757 15.6782 62.1087 15.8086 61.8919 15.9023C61.6751 15.9961 61.4173 16.043 61.1184 16.043C60.8987 16.043 60.701 16.0181 60.5252 15.9683C60.3494 15.9155 60.1956 15.8438 60.0638 15.7529C59.9348 15.6592 59.8294 15.5493 59.7473 15.4233C59.6682 15.2974 59.614 15.1611 59.5847 15.0146H58.9256Z" fill="white"/>
<path d="M67.1122 10.5059H64.9985V16.5H65.6401V14.1665H67.1122C67.4931 14.1665 67.8241 14.0903 68.1054 13.938C68.3866 13.7856 68.6049 13.5718 68.7602 13.2964C68.9184 13.021 68.9975 12.7017 68.9975 12.3384C68.9975 11.9692 68.9184 11.6484 68.7602 11.376C68.6049 11.1006 68.3866 10.8867 68.1054 10.7344C67.8241 10.582 67.4931 10.5059 67.1122 10.5059ZM68.3339 12.3384C68.3339 12.5991 68.2841 12.8232 68.1845 13.0107C68.0878 13.1953 67.9472 13.3374 67.7626 13.437C67.578 13.5337 67.3525 13.582 67.0859 13.582H65.6401V11.0903H67.0859C67.4843 11.0903 67.7919 11.2002 68.0087 11.4199C68.2255 11.6367 68.3339 11.9429 68.3339 12.3384Z" fill="white"/>
<path d="M74.4332 13.0327V13.9731C74.4332 14.4272 74.3585 14.8081 74.209 15.1157C74.0596 15.4233 73.856 15.6548 73.5982 15.8101C73.3404 15.9653 73.046 16.043 72.7149 16.043C72.3868 16.043 72.0938 15.9653 71.836 15.8101C71.5782 15.6548 71.3746 15.4233 71.2252 15.1157C71.0757 14.8081 71.001 14.4272 71.001 13.9731V13.0327C71.001 12.5757 71.0757 12.1948 71.2252 11.8901C71.3746 11.5825 71.5782 11.3511 71.836 11.1958C72.0938 11.0405 72.3868 10.9629 72.7149 10.9629C73.046 10.9629 73.3404 11.0405 73.5982 11.1958C73.856 11.3511 74.0596 11.5825 74.209 11.8901C74.3585 12.1948 74.4332 12.5757 74.4332 13.0327ZM75.0748 13.9688V13.0415C75.0748 12.479 74.9781 12 74.7847 11.6045C74.5914 11.2061 74.3174 10.9014 73.9629 10.6904C73.6114 10.4795 73.1954 10.374 72.7149 10.374C72.2374 10.374 71.8213 10.4795 71.4669 10.6904C71.1153 10.9014 70.8428 11.2061 70.6495 11.6045C70.4561 12 70.3594 12.4775 70.3594 13.0371V13.9688C70.3594 14.5254 70.4561 15.0029 70.6495 15.4014C70.8428 15.7998 71.1153 16.1045 71.4669 16.3154C71.8213 16.5234 72.2374 16.6274 72.7149 16.6274C73.1954 16.6274 73.6114 16.5234 73.9629 16.3154C74.3174 16.1045 74.5914 15.7998 74.7847 15.4014C74.9781 15.0029 75.0748 14.5254 75.0748 13.9688Z" fill="white"/>
<path d="M77.5749 16.5V11.6133H77.6057L80.739 16.5H81.3806V10.5059H80.739V15.3926H80.7038L77.5793 10.5059H76.9333V16.5H77.5749Z" fill="white"/>
<path d="M84.1268 16.5V10.5059H83.4808V16.5H84.1268ZM83.5467 9.85547H84.0477L85.2606 8.45361H84.6014L83.5467 9.85547Z" fill="white"/>
<path d="M87.7651 16.5H88.3979L90.5908 10.5059H89.8613L88.0991 15.7222H88.0639L86.3061 10.5059H85.5722L87.7651 16.5Z" fill="white"/>
<path d="M95.5651 15.9111H92.6735V13.7271H95.4069V13.1426H92.6735V11.0903H95.5651V10.5059H92.0319V16.5H95.5651V15.9111Z" fill="white"/>
<path d="M100.886 15.9155H98.052V10.5059H97.4104V16.5H100.886V15.9155Z" fill="white"/>
<path d="M108.291 15.9111H105.399V13.7271H108.132V13.1426H105.399V11.0903H108.291V10.5059H104.757V16.5H108.291V15.9111Z" fill="white"/>
<path d="M110.742 16.5V11.9121H110.773L112.557 16.0386H113.142L114.922 11.9121H114.957V16.5H115.546V10.5059H114.922L112.865 15.3574H112.839L110.778 10.5059H110.153V16.5H110.742Z" fill="white"/>
</svg>
