<svg width="167" height="48" viewBox="0 0 167 48" fill="none" xmlns="http://www.w3.org/2000/svg">
<path d="M14.6263 12L31.6909 21.6129L28.0091 25.2642L14.6263 12Z" fill="white"/>
<path d="M33.7676 22.7854L29.5392 26.9789L33.7675 31.1723L39.5145 27.9329C40.2453 27.5194 40.3539 27.1297 40.3539 26.974C40.3539 26.8202 40.2482 26.4347 39.5195 26.0276L39.5159 26.0256L33.7676 22.7854Z" fill="white"/>
<path d="M26.4755 26.9794L12 12.6379V41.3353L26.4755 26.9794Z" fill="white"/>
<path d="M14.5795 42L31.6918 32.3458L28.003 28.6874L14.5795 42Z" fill="white"/>
<path fill-rule="evenodd" clip-rule="evenodd" d="M83.0365 28.6561C80.1166 28.6561 77.7499 30.8757 77.7499 33.9373C77.7499 36.971 80.1321 39.2185 83.0365 39.2185C85.9563 39.2185 88.3231 36.9834 88.3231 33.9373C88.3231 30.8757 85.9563 28.6561 83.0365 28.6561ZM83.0365 37.1258C81.4391 37.1258 80.0641 35.8009 80.0641 33.9249C80.0641 32.0211 81.4422 30.724 83.0365 30.724C84.6339 30.724 86.0088 32.0211 86.0088 33.9249C86.0119 35.8132 84.6339 37.1258 83.0365 37.1258ZM71.5023 28.6561C68.5825 28.6561 66.2157 30.8757 66.2157 33.9373C66.2157 36.971 68.5979 39.2185 71.5023 39.2185C74.4222 39.2185 76.7889 36.9834 76.7889 33.9373C76.7889 30.8757 74.4191 28.6561 71.5023 28.6561ZM71.5023 37.1258C69.9049 37.1258 68.53 35.8009 68.53 33.9249C68.53 32.0211 69.908 30.724 71.5023 30.724C73.0997 30.724 74.4747 32.0211 74.4747 33.9249C74.4747 35.8132 73.0997 37.1258 71.5023 37.1258ZM57.7775 30.2689V32.504H63.1321C62.9684 33.7577 62.5543 34.6833 61.9209 35.3179C61.1361 36.1042 59.9249 36.9586 57.7899 36.9586C54.4993 36.9586 51.9255 34.2964 51.9255 30.9995C51.9255 27.7027 54.4993 25.0404 57.7899 25.0404C59.5665 25.0404 60.8611 25.7431 61.822 26.6409L63.404 25.0559C62.0692 23.7743 60.2926 22.793 57.8022 22.793C53.2881 22.793 49.5 26.4768 49.5 30.9871C49.5 35.5099 53.285 39.1813 57.8022 39.1813C60.2401 39.1813 62.0692 38.3826 63.5152 36.8781C64.9891 35.4015 65.4556 33.3182 65.4556 31.6372C65.4556 31.1141 65.4155 30.6435 65.332 30.2442H57.7744C57.7775 30.2411 57.7775 30.2689 57.7775 30.2689ZM113.916 32.0087C113.474 30.8231 112.139 28.6437 109.402 28.6437C106.689 28.6437 104.433 30.7828 104.433 33.9249C104.433 36.8905 106.664 39.2061 109.664 39.2061C112.074 39.2061 113.477 37.7294 114.055 36.8627L112.266 35.6616C111.673 36.5438 110.848 37.1227 109.677 37.1227C108.493 37.1227 107.665 36.5841 107.115 35.5223L114.163 32.5969C114.163 32.6 113.916 32.0087 113.916 32.0087ZM106.729 33.7732C106.673 31.7332 108.311 30.6961 109.482 30.6961C110.406 30.6961 111.175 31.1512 111.438 31.8137L106.729 33.7732ZM101.004 38.8903H103.318V23.3749H101.004V38.8903ZM97.2031 29.8294H97.1197C96.5975 29.2071 95.6057 28.6437 94.3389 28.6437C91.7095 28.6437 89.2871 30.9624 89.2871 33.9404C89.2871 36.906 91.6971 39.1968 94.3389 39.1968C95.5902 39.1968 96.5975 38.6303 97.1197 37.9957H97.2031V38.7541C97.2031 40.7694 96.1279 41.8559 94.3945 41.8559C92.9763 41.8559 92.0957 40.8344 91.7373 39.98L89.7259 40.822C90.3036 42.215 91.8454 43.9393 94.3914 43.9393C97.1042 43.9393 99.403 42.3389 99.403 38.4353V28.9595H97.2155V29.8294C97.2186 29.8294 97.2031 29.8294 97.2031 29.8294ZM94.5459 37.1258C92.9485 37.1258 91.6137 35.7885 91.6137 33.9404C91.6137 32.0768 92.9485 30.7271 94.5459 30.7271C96.1279 30.7271 97.3545 32.0923 97.3545 33.9404C97.37 35.7885 96.131 37.1258 94.5459 37.1258ZM124.752 23.3749H119.218V38.8903H121.532V33.0148H124.755C127.316 33.0148 129.834 31.1543 129.834 28.2011C129.834 25.2478 127.325 23.3749 124.752 23.3749ZM124.82 30.8478H121.529V25.5233H124.82C126.553 25.5233 127.532 26.9566 127.532 28.1856C127.532 29.4022 126.541 30.8478 124.82 30.8478ZM139.11 28.6283C137.429 28.6283 135.696 29.3743 134.979 30.9995L137.03 31.8539C137.472 30.9995 138.282 30.7085 139.138 30.7085C140.336 30.7085 141.548 31.4267 141.575 32.7083V32.8724C141.161 32.6371 140.253 32.278 139.165 32.278C136.95 32.278 134.704 33.4915 134.704 35.7668C134.704 37.8502 136.521 39.1875 138.544 39.1875C140.099 39.1875 140.954 38.4848 141.489 37.6706H141.572V38.8717H143.803V32.9281C143.803 30.1606 141.752 28.6283 139.11 28.6283ZM138.819 37.1258C138.062 37.1258 137.003 36.7543 137.003 35.8009C137.003 34.5998 138.325 34.1447 139.453 34.1447C140.472 34.1447 140.954 34.3645 141.56 34.6679C141.393 36.0609 140.219 37.1134 138.819 37.1258ZM151.942 28.9595L149.284 35.6894H149.201L146.448 28.9595H143.958L148.089 38.3672L145.734 43.5957H148.144L154.5 28.9595H151.942ZM131.11 38.8903H133.425V23.3749H131.11V38.8903Z" fill="white"/>
<path d="M52.5234 16.043C52.0312 16.043 51.6431 15.8979 51.3589 15.6079C51.0747 15.3149 50.9326 14.9224 50.9326 14.4302V10.5059H50.291V14.4302C50.291 14.8696 50.3833 15.2549 50.5679 15.5859C50.7524 15.9141 51.0117 16.1704 51.3457 16.355C51.6826 16.5366 52.0752 16.6274 52.5234 16.6274C52.9746 16.6274 53.3672 16.5366 53.7012 16.355C54.0352 16.1704 54.2944 15.9141 54.479 15.5859C54.6636 15.2549 54.7559 14.8696 54.7559 14.4302V10.5059H54.1099V14.4302C54.1099 14.9224 53.9678 15.3149 53.6836 15.6079C53.3994 15.8979 53.0127 16.043 52.5234 16.043Z" fill="white"/>
<path d="M58.7018 16.5V13.8589L60.7189 10.5059H59.9762L58.403 13.2261H58.3634L56.7902 10.5059H56.0475L58.0602 13.8633V16.5H58.7018Z" fill="white"/>
<path d="M66.2073 12.0879C66.1663 11.8359 66.0872 11.606 65.97 11.3979C65.8528 11.187 65.7005 11.0054 65.513 10.853C65.3284 10.7007 65.1145 10.5835 64.8714 10.5015C64.6282 10.4165 64.3601 10.374 64.0672 10.374C63.5779 10.374 63.1575 10.4839 62.8059 10.7036C62.4544 10.9204 62.1834 11.2295 61.9929 11.6309C61.8054 12.0322 61.7117 12.5068 61.7117 13.0547V13.916C61.7117 14.3438 61.7644 14.7261 61.8699 15.063C61.9754 15.397 62.1292 15.6812 62.3313 15.9155C62.5364 16.147 62.7854 16.3242 63.0784 16.4473C63.3743 16.5674 63.7097 16.6274 64.0847 16.6274C64.4246 16.6274 64.7278 16.5806 64.9944 16.4868C65.261 16.3901 65.4881 16.2539 65.6756 16.0781C65.8631 15.9023 66.0066 15.6943 66.1062 15.4541C66.2058 15.2139 66.2556 14.9473 66.2556 14.6543V13.4238H63.9925V14.0083H65.6228V14.6543C65.6228 14.9297 65.5642 15.1714 65.4471 15.3794C65.3299 15.5874 65.1555 15.75 64.9241 15.8672C64.6956 15.9844 64.4129 16.043 64.076 16.043C63.7127 16.043 63.4021 15.9595 63.1443 15.7925C62.8865 15.6226 62.6902 15.3794 62.5554 15.063C62.4207 14.7437 62.3533 14.3613 62.3533 13.916V13.0547C62.3533 12.4014 62.5027 11.8901 62.8015 11.521C63.1004 11.1489 63.5164 10.9629 64.0496 10.9629C64.2547 10.9629 64.4407 10.9907 64.6077 11.0464C64.7747 11.0991 64.9226 11.1753 65.0515 11.2749C65.1804 11.3745 65.2874 11.4932 65.3723 11.6309C65.4573 11.7686 65.5188 11.9209 65.5569 12.0879H66.2073Z" fill="white"/>
<path d="M70.2675 16.043C69.7753 16.043 69.3871 15.8979 69.1029 15.6079C68.8188 15.3149 68.6767 14.9224 68.6767 14.4302V10.5059H68.0351V14.4302C68.0351 14.8696 68.1274 15.2549 68.3119 15.5859C68.4965 15.9141 68.7558 16.1704 69.0898 16.355C69.4267 16.5366 69.8193 16.6274 70.2675 16.6274C70.7187 16.6274 71.1113 16.5366 71.4452 16.355C71.7792 16.1704 72.0385 15.9141 72.2231 15.5859C72.4076 15.2549 72.4999 14.8696 72.4999 14.4302V10.5059H71.8539V14.4302C71.8539 14.9224 71.7118 15.3149 71.4277 15.6079C71.1435 15.8979 70.7568 16.043 70.2675 16.043Z" fill="white"/>
<path d="M75.1583 16.5V11.6133H75.189L78.3223 16.5H78.9639V10.5059H78.3223V15.3926H78.2872L75.1627 10.5059H74.5167V16.5H75.1583Z" fill="white"/>
</svg>
