<svg width="167" height="48" viewBox="0 0 167 48" fill="none" xmlns="http://www.w3.org/2000/svg">
<path d="M14.6263 12L31.6909 21.6129L28.0091 25.2642L14.6263 12Z" fill="white"/>
<path d="M33.7676 22.7854L29.5392 26.9789L33.7675 31.1723L39.5145 27.9329C40.2453 27.5194 40.3539 27.1297 40.3539 26.974C40.3539 26.8202 40.2482 26.4347 39.5195 26.0276L39.5159 26.0256L33.7676 22.7854Z" fill="white"/>
<path d="M26.4755 26.9794L12 12.6379V41.3353L26.4755 26.9794Z" fill="white"/>
<path d="M14.5795 42L31.6918 32.3458L28.003 28.6874L14.5795 42Z" fill="white"/>
<path fill-rule="evenodd" clip-rule="evenodd" d="M83.0365 28.6561C80.1166 28.6561 77.7499 30.8757 77.7499 33.9373C77.7499 36.971 80.1321 39.2185 83.0365 39.2185C85.9563 39.2185 88.3231 36.9834 88.3231 33.9373C88.3231 30.8757 85.9563 28.6561 83.0365 28.6561ZM83.0365 37.1258C81.4391 37.1258 80.0641 35.8009 80.0641 33.9249C80.0641 32.0211 81.4422 30.724 83.0365 30.724C84.6339 30.724 86.0088 32.0211 86.0088 33.9249C86.0119 35.8132 84.6339 37.1258 83.0365 37.1258ZM71.5023 28.6561C68.5825 28.6561 66.2157 30.8757 66.2157 33.9373C66.2157 36.971 68.5979 39.2185 71.5023 39.2185C74.4222 39.2185 76.7889 36.9834 76.7889 33.9373C76.7889 30.8757 74.4191 28.6561 71.5023 28.6561ZM71.5023 37.1258C69.9049 37.1258 68.53 35.8009 68.53 33.9249C68.53 32.0211 69.908 30.724 71.5023 30.724C73.0997 30.724 74.4747 32.0211 74.4747 33.9249C74.4747 35.8132 73.0997 37.1258 71.5023 37.1258ZM57.7775 30.2689V32.504H63.1321C62.9684 33.7577 62.5543 34.6833 61.9209 35.3179C61.1361 36.1042 59.9249 36.9586 57.7899 36.9586C54.4993 36.9586 51.9255 34.2964 51.9255 30.9995C51.9255 27.7027 54.4993 25.0404 57.7899 25.0404C59.5665 25.0404 60.8611 25.7431 61.822 26.6409L63.404 25.0559C62.0692 23.7743 60.2926 22.793 57.8022 22.793C53.2881 22.793 49.5 26.4768 49.5 30.9871C49.5 35.5099 53.285 39.1813 57.8022 39.1813C60.2401 39.1813 62.0692 38.3826 63.5152 36.8781C64.9891 35.4015 65.4556 33.3182 65.4556 31.6372C65.4556 31.1141 65.4155 30.6435 65.332 30.2442H57.7744C57.7775 30.2411 57.7775 30.2689 57.7775 30.2689ZM113.916 32.0087C113.474 30.8231 112.139 28.6437 109.402 28.6437C106.689 28.6437 104.433 30.7828 104.433 33.9249C104.433 36.8905 106.664 39.2061 109.664 39.2061C112.074 39.2061 113.477 37.7294 114.055 36.8627L112.266 35.6616C111.673 36.5438 110.848 37.1227 109.677 37.1227C108.493 37.1227 107.665 36.5841 107.115 35.5223L114.163 32.5969C114.163 32.6 113.916 32.0087 113.916 32.0087ZM106.729 33.7732C106.673 31.7332 108.311 30.6961 109.482 30.6961C110.406 30.6961 111.175 31.1512 111.438 31.8137L106.729 33.7732ZM101.004 38.8903H103.318V23.3749H101.004V38.8903ZM97.2031 29.8294H97.1197C96.5975 29.2071 95.6057 28.6437 94.3389 28.6437C91.7095 28.6437 89.2871 30.9624 89.2871 33.9404C89.2871 36.906 91.6971 39.1968 94.3389 39.1968C95.5902 39.1968 96.5975 38.6303 97.1197 37.9957H97.2031V38.7541C97.2031 40.7694 96.1279 41.8559 94.3945 41.8559C92.9763 41.8559 92.0957 40.8344 91.7373 39.98L89.7259 40.822C90.3036 42.215 91.8454 43.9393 94.3914 43.9393C97.1042 43.9393 99.403 42.3389 99.403 38.4353V28.9595H97.2155V29.8294C97.2186 29.8294 97.2031 29.8294 97.2031 29.8294ZM94.5459 37.1258C92.9485 37.1258 91.6137 35.7885 91.6137 33.9404C91.6137 32.0768 92.9485 30.7271 94.5459 30.7271C96.1279 30.7271 97.3545 32.0923 97.3545 33.9404C97.37 35.7885 96.131 37.1258 94.5459 37.1258ZM124.752 23.3749H119.218V38.8903H121.532V33.0148H124.755C127.316 33.0148 129.834 31.1543 129.834 28.2011C129.834 25.2478 127.325 23.3749 124.752 23.3749ZM124.82 30.8478H121.529V25.5233H124.82C126.553 25.5233 127.532 26.9566 127.532 28.1856C127.532 29.4022 126.541 30.8478 124.82 30.8478ZM139.11 28.6283C137.429 28.6283 135.696 29.3743 134.979 30.9995L137.03 31.8539C137.472 30.9995 138.282 30.7085 139.138 30.7085C140.336 30.7085 141.548 31.4267 141.575 32.7083V32.8724C141.161 32.6371 140.253 32.278 139.165 32.278C136.95 32.278 134.704 33.4915 134.704 35.7668C134.704 37.8502 136.521 39.1875 138.544 39.1875C140.099 39.1875 140.954 38.4848 141.489 37.6706H141.572V38.8717H143.803V32.9281C143.803 30.1606 141.752 28.6283 139.11 28.6283ZM138.819 37.1258C138.062 37.1258 137.003 36.7543 137.003 35.8009C137.003 34.5998 138.325 34.1447 139.453 34.1447C140.472 34.1447 140.954 34.3645 141.56 34.6679C141.393 36.0609 140.219 37.1134 138.819 37.1258ZM151.942 28.9595L149.284 35.6894H149.201L146.448 28.9595H143.958L148.089 38.3672L145.734 43.5957H148.144L154.5 28.9595H151.942ZM131.11 38.8903H133.425V23.3749H131.11V38.8903Z" fill="white"/>
<path d="M53.9956 15.9155H51.0073V15.8892C51.1128 15.7603 51.1948 15.5962 51.2534 15.397C51.3149 15.1948 51.3618 14.9546 51.394 14.6763C51.4292 14.395 51.4556 14.0728 51.4731 13.7095C51.4907 13.3462 51.5068 12.939 51.5215 12.4878L51.5698 11.0859H53.9956V15.9155ZM50.2998 17.7568V16.5H54.8438V17.7568H55.4282V15.9155H54.6372V10.5059H50.9326L50.8843 12.4351C50.8726 13.0063 50.8564 13.4927 50.8359 13.894C50.8184 14.2925 50.7876 14.625 50.7437 14.8916C50.6997 15.1553 50.6353 15.3677 50.5503 15.5288C50.4653 15.6899 50.3511 15.8188 50.2075 15.9155H49.7153V17.7568H50.2998Z" fill="white"/>
<path d="M60.82 13.0327V13.9731C60.82 14.4272 60.7453 14.8081 60.5958 15.1157C60.4464 15.4233 60.2428 15.6548 59.985 15.8101C59.7272 15.9653 59.4328 16.043 59.1017 16.043C58.7736 16.043 58.4806 15.9653 58.2228 15.8101C57.965 15.6548 57.7614 15.4233 57.612 15.1157C57.4625 14.8081 57.3878 14.4272 57.3878 13.9731V13.0327C57.3878 12.5757 57.4625 12.1948 57.612 11.8901C57.7614 11.5825 57.965 11.3511 58.2228 11.1958C58.4806 11.0405 58.7736 10.9629 59.1017 10.9629C59.4328 10.9629 59.7272 11.0405 59.985 11.1958C60.2428 11.3511 60.4464 11.5825 60.5958 11.8901C60.7453 12.1948 60.82 12.5757 60.82 13.0327ZM61.4616 13.9688V13.0415C61.4616 12.479 61.3649 12 61.1715 11.6045C60.9782 11.2061 60.7042 10.9014 60.3497 10.6904C59.9982 10.4795 59.5822 10.374 59.1017 10.374C58.6242 10.374 58.2081 10.4795 57.8537 10.6904C57.5021 10.9014 57.2296 11.2061 57.0363 11.6045C56.8429 12 56.7462 12.4775 56.7462 13.0371V13.9688C56.7462 14.5254 56.8429 15.0029 57.0363 15.4014C57.2296 15.7998 57.5021 16.1045 57.8537 16.3154C58.2081 16.5234 58.6242 16.6274 59.1017 16.6274C59.5822 16.6274 59.9982 16.5234 60.3497 16.3154C60.7042 16.1045 60.9782 15.7998 61.1715 15.4014C61.3649 15.0029 61.4616 14.5254 61.4616 13.9688Z" fill="white"/>
<path d="M63.8474 13.0635C63.8474 12.6328 63.9134 12.2607 64.0452 11.9473C64.177 11.6338 64.3689 11.3921 64.6209 11.2222C64.8728 11.0493 65.1775 10.9629 65.5349 10.9629C65.8103 10.9629 66.0564 11.0171 66.2732 11.1255C66.49 11.2339 66.6643 11.3818 66.7962 11.5693C66.9309 11.7539 67.01 11.9619 67.0335 12.1934H67.6751C67.6751 12.1904 67.6751 12.189 67.6751 12.189C67.6546 11.9341 67.5872 11.6968 67.4729 11.4771C67.3616 11.2573 67.2107 11.0654 67.0203 10.9014C66.8328 10.7344 66.6131 10.6055 66.3611 10.5146C66.1092 10.4209 65.8338 10.374 65.5349 10.374C65.0428 10.374 64.6223 10.4839 64.2737 10.7036C63.9251 10.9204 63.6599 11.2295 63.4783 11.6309C63.2967 12.0322 63.2058 12.5068 63.2058 13.0547V13.9819C63.2058 14.5327 63.2952 15.0059 63.4739 15.4014C63.6526 15.7969 63.9148 16.1001 64.2605 16.311C64.6092 16.522 65.0354 16.6274 65.5393 16.6274C65.9319 16.6274 66.2849 16.5527 66.5984 16.4033C66.9119 16.251 67.1638 16.0444 67.3543 15.7837C67.5447 15.5229 67.6546 15.23 67.6839 14.9048H67.0423C67.0159 15.1245 66.9353 15.3208 66.8006 15.4937C66.6687 15.6665 66.4944 15.8013 66.2776 15.8979C66.0637 15.9946 65.8177 16.043 65.5393 16.043C65.1731 16.043 64.864 15.9609 64.6121 15.7969C64.3601 15.6299 64.1697 15.3926 64.0408 15.085C63.9119 14.7744 63.8474 14.4053 63.8474 13.9775V13.0635Z" fill="white"/>
<path d="M71.3837 16.5V11.0903H73.247V10.5059H68.8744V11.0903H70.7377V16.5H71.3837Z" fill="white"/>
<path d="M75.1714 16.5396C75.4322 16.5396 75.6622 16.4868 75.8614 16.3813C76.0635 16.2729 76.2466 16.106 76.4107 15.8804C76.5748 15.6519 76.7344 15.3574 76.8897 14.9971L78.8277 10.5059H78.1597L76.5777 14.2412H76.5513L74.8902 10.5059H74.2003L76.2657 15.041L76.3316 14.8037C76.1558 15.1963 75.9815 15.4805 75.8087 15.6562C75.6358 15.832 75.4249 15.9199 75.1758 15.9199C75.1085 15.9199 75.0411 15.917 74.9737 15.9111C74.9063 15.9023 74.8536 15.8921 74.8155 15.8804V16.5C74.8477 16.5117 74.8961 16.5205 74.9605 16.5264C75.0279 16.5352 75.0982 16.5396 75.1714 16.5396Z" fill="white"/>
<path d="M84.6501 16.5V10.5059H80.2819V16.5H80.9235V11.0859H84.0041V16.5H84.6501Z" fill="white"/>
<path d="M91.2767 16.5V10.5059H90.6351V13.0942H87.471V10.5059H86.8294V16.5H87.471V13.6743H90.6351V16.5H91.2767Z" fill="white"/>
<path d="M97.2925 13.0327V13.9731C97.2925 14.4272 97.2178 14.8081 97.0683 15.1157C96.9189 15.4233 96.7153 15.6548 96.4575 15.8101C96.1997 15.9653 95.9053 16.043 95.5742 16.043C95.2461 16.043 94.9531 15.9653 94.6953 15.8101C94.4375 15.6548 94.2339 15.4233 94.0845 15.1157C93.935 14.8081 93.8603 14.4272 93.8603 13.9731V13.0327C93.8603 12.5757 93.935 12.1948 94.0845 11.8901C94.2339 11.5825 94.4375 11.3511 94.6953 11.1958C94.9531 11.0405 95.2461 10.9629 95.5742 10.9629C95.9053 10.9629 96.1997 11.0405 96.4575 11.1958C96.7153 11.3511 96.9189 11.5825 97.0683 11.8901C97.2178 12.1948 97.2925 12.5757 97.2925 13.0327ZM97.9341 13.9688V13.0415C97.9341 12.479 97.8374 12 97.644 11.6045C97.4507 11.2061 97.1767 10.9014 96.8222 10.6904C96.4707 10.4795 96.0547 10.374 95.5742 10.374C95.0967 10.374 94.6806 10.4795 94.3262 10.6904C93.9746 10.9014 93.7021 11.2061 93.5088 11.6045C93.3154 12 93.2187 12.4775 93.2187 13.0371V13.9688C93.2187 14.5254 93.3154 15.0029 93.5088 15.4014C93.7021 15.7998 93.9746 16.1045 94.3262 16.3154C94.6806 16.5234 95.0967 16.6274 95.5742 16.6274C96.0547 16.6274 96.4707 16.5234 96.8222 16.3154C97.1767 16.1045 97.4507 15.7998 97.644 15.4014C97.8374 15.0029 97.9341 14.5254 97.9341 13.9688Z" fill="white"/>
<path d="M102.288 16.5H104.385C104.821 16.5 105.193 16.4326 105.501 16.2979C105.811 16.1631 106.049 15.9712 106.213 15.7222C106.38 15.4731 106.463 15.1758 106.463 14.8301C106.463 14.5488 106.409 14.3042 106.301 14.0962C106.195 13.8853 106.044 13.7168 105.848 13.5908C105.652 13.4619 105.42 13.3799 105.154 13.3447V13.314C105.347 13.2524 105.515 13.1631 105.659 13.0459C105.805 12.9258 105.918 12.7764 105.997 12.5977C106.076 12.4189 106.116 12.2124 106.116 11.978C106.116 11.5239 105.967 11.165 105.668 10.9014C105.372 10.6377 104.968 10.5059 104.455 10.5059H102.288V16.5ZM102.93 11.0903H104.358C104.707 11.0903 104.978 11.1782 105.171 11.354C105.365 11.5269 105.461 11.7715 105.461 12.0879C105.461 12.3252 105.406 12.5215 105.294 12.6768C105.183 12.8291 105.016 12.9419 104.793 13.0151C104.573 13.0884 104.297 13.125 103.963 13.125H102.93V11.0903ZM102.93 13.7095H104.464C104.739 13.7095 104.976 13.7534 105.176 13.8413C105.378 13.9292 105.532 14.0581 105.637 14.228C105.745 14.3979 105.8 14.6045 105.8 14.8477C105.8 15.2168 105.663 15.4863 105.391 15.6562C105.121 15.8262 104.686 15.9111 104.086 15.9111H102.93V13.7095Z" fill="white"/>
</svg>
