<svg width="20" height="20" viewBox="0 0 20 20" fill="none" xmlns="http://www.w3.org/2000/svg">
<path fill-rule="evenodd" clip-rule="evenodd" d="M2.5 2.14286C2.30276 2.14286 2.14286 2.30276 2.14286 2.5V6.42857H0V2.5C0 1.11929 1.11929 0 2.5 0H17.5C18.8807 0 20 1.11929 20 2.5V17.5C20 18.8807 18.8807 20 17.5 20H2.5C1.11929 20 0 18.8807 0 17.5V13.5714H2.14286V17.5C2.14286 17.6972 2.30276 17.8571 2.5 17.8571H17.5C17.6972 17.8571 17.8571 17.6972 17.8571 17.5V2.5C17.8571 2.30276 17.6972 2.14286 17.5 2.14286H2.5Z" fill="black"/>
<path fill-rule="evenodd" clip-rule="evenodd" d="M9.32904 4.24265L15.0867 10.0003L9.32904 15.7579L7.81381 14.2427L10.9848 11.0717H0V8.92884H10.9848L7.81381 5.75788L9.32904 4.24265Z" fill="black"/>
</svg>
