<svg width="49" height="48" viewBox="0 0 49 48" fill="none" xmlns="http://www.w3.org/2000/svg">
<path fill-rule="evenodd" clip-rule="evenodd" d="M14.2776 39.9284L23.8349 23.9996L14.2776 8.07073C14.8292 7.69863 15.4012 7.35443 15.9916 7.04016L25.0011 22.056L34.0104 7.04041C34.6008 7.35469 35.1728 7.6989 35.7244 8.07102L26.1673 23.9996L35.7244 39.9281C35.1728 40.3002 34.6007 40.6444 34.0104 40.9587L25.0011 25.9433L15.9916 40.959C15.4013 40.6447 14.8293 40.3005 14.2776 39.9284Z" fill="white"/>
<path fill-rule="evenodd" clip-rule="evenodd" d="M24.6 47C37.3025 47 47.6 36.7025 47.6 24C47.6 11.2975 37.3025 1 24.6 1C11.8974 1 1.59998 11.2975 1.59998 24C1.59998 36.7025 11.8974 47 24.6 47ZM24.6 48C37.8548 48 48.6 37.2548 48.6 24C48.6 10.7452 37.8548 0 24.6 0C11.3451 0 0.599976 10.7452 0.599976 24C0.599976 37.2548 11.3451 48 24.6 48Z" fill="transparent" fill-opacity="0.12"/>
</svg>
