<svg width="49" height="48" viewBox="0 0 49 48" fill="none" xmlns="http://www.w3.org/2000/svg">
<path fill-rule="evenodd" clip-rule="evenodd" d="M10.1991 9.60034H23.8791V23.2803H10.1991V9.60034ZM25.3185 9.60034H38.9985V23.2803H25.3185V9.60034ZM23.8791 24.7205H10.1991V38.4005H23.8791V24.7205ZM25.3185 24.7205H38.9985V38.4005H25.3185V24.7205Z" fill="white"/>
<path fill-rule="evenodd" clip-rule="evenodd" d="M24.6 47C37.3025 47 47.6 36.7025 47.6 24C47.6 11.2975 37.3025 1 24.6 1C11.8974 1 1.59998 11.2975 1.59998 24C1.59998 36.7025 11.8974 47 24.6 47ZM24.6 48C37.8548 48 48.6 37.2548 48.6 24C48.6 10.7452 37.8548 0 24.6 0C11.3451 0 0.599976 10.7452 0.599976 24C0.599976 37.2548 11.3451 48 24.6 48Z" fill="transparent" fill-opacity="0.12"/>
</svg>
