<svg width="141" height="32" viewBox="0 0 141 32" fill="none" xmlns="http://www.w3.org/2000/svg">
<path d="M11.9578 23H14.1178L17.3578 8.82H15.0178L12.9778 19.4H12.8378L10.0578 8.82H8.27781L5.67781 19.4H5.53781L3.29781 8.82H1.05781L4.29781 23H6.45781L9.09781 13.02H9.23781L11.9578 23ZM23.5359 21.84C21.4759 21.84 20.4959 20.78 20.4959 18.38H27.0159V17.64C27.0159 14.38 25.4759 12.76 22.9759 12.76C19.9759 12.76 18.4359 14.96 18.4359 18C18.4359 21.16 19.8159 23.24 23.1759 23.24C24.6159 23.24 25.8159 22.84 26.7159 22.32V20.8C25.6159 21.46 24.6159 21.84 23.5359 21.84ZM22.9159 14.1C23.9959 14.1 25.0159 14.94 25.1159 17.04H20.5359C20.7559 15.04 21.6959 14.1 22.9159 14.1ZM31.4181 7.8L29.3381 8.3V22.26C30.5381 22.9 32.1781 23.24 33.2381 23.24C36.1381 23.24 37.9381 21.42 37.9381 17.68C37.9381 14.48 36.5981 12.76 34.1181 12.76C33.0381 12.76 32.0181 13.18 31.4181 13.5V7.8ZM31.3981 14.98C32.1981 14.54 32.7781 14.32 33.5781 14.32C34.9181 14.32 35.8381 15.14 35.8381 17.68C35.8381 20.92 34.7181 21.84 33.2381 21.84C32.7381 21.84 32.0381 21.8 31.3981 21.52V14.98ZM43.0653 8.82H40.6453V23H42.4453V12.96H42.6253L46.7053 23H47.9853L52.0653 12.72H52.2453V23H54.4053V8.82H51.9253L47.6453 20H47.5453L43.0653 8.82ZM61.6592 23.24C64.3992 23.24 66.2192 21.42 66.2192 18C66.2192 14.5 64.2992 12.76 61.6592 12.76C59.0192 12.76 57.0992 14.5 57.0992 18C57.0992 21.42 58.9192 23.24 61.6592 23.24ZM61.6592 21.84C60.2392 21.84 59.1992 20.74 59.1992 18C59.1992 15.3 60.3392 14.16 61.6592 14.16C63.0192 14.16 64.1192 15.3 64.1192 18C64.1192 20.74 63.0792 21.84 61.6592 21.84ZM68.6273 23H70.7073V15.08C71.3273 14.72 72.3473 14.36 73.1473 14.36C74.1673 14.36 74.9473 14.64 74.9473 16.22V23H77.0273V15.76C77.0273 13.7 76.1273 12.76 73.7273 12.76C71.4273 12.76 69.5273 13.7 68.6273 14.24V23ZM84.4852 21.84C82.4252 21.84 81.4452 20.78 81.4452 18.38H87.9652V17.64C87.9652 14.38 86.4252 12.76 83.9252 12.76C80.9252 12.76 79.3852 14.96 79.3852 18C79.3852 21.16 80.7652 23.24 84.1252 23.24C85.5652 23.24 86.7652 22.84 87.6652 22.32V20.8C86.5652 21.46 85.5652 21.84 84.4852 21.84ZM83.8652 14.1C84.9452 14.1 85.9652 14.94 86.0652 17.04H81.4852C81.7052 15.04 82.6452 14.1 83.8652 14.1ZM93.9673 20.46H93.8473L91.2873 13.1H89.0873L92.9273 23.1C92.4473 24.58 91.6073 25.66 90.2473 25.66V27.3C92.5473 27.3 93.7673 25.86 94.7673 23.1L98.3873 13.1H96.2473L93.9673 20.46Z" fill="#ffffff"/>
<path d="M123.67 0C126.284 0 128.77 0.580808 131.002 1.61977C131.352 1.77291 131.704 1.95619 132.053 2.13964L130.523 3.45424L128.229 1.16178L124.277 4.52367L121.949 2.1087L114.682 8.37479L119.335 13.2958L117.518 14.8237L122.109 19.7447L120.292 21.272L126.859 28.2715L130.745 24.8481L134.126 28.5169C133.456 29.006 132.723 29.496 131.927 29.9232C129.504 31.2373 126.698 32 123.703 32C114.49 32 107 24.8187 107 15.9863C106.968 7.21349 114.458 0 123.67 0ZM120.61 15.0075L124.594 11.584L128.165 15.4045L124.18 18.8276L120.61 15.0075ZM123.447 21.6097L127.4 18.1559L131.002 21.9761L127.017 25.3997L123.447 21.6097ZM117.775 8.49747L121.758 5.07401L125.328 8.8945L121.343 12.3178L117.775 8.49747ZM125.073 6.66298L128.037 4.09567L130.715 6.93832L127.751 9.53596L125.073 6.66298ZM130.364 18.4304L133.328 15.863L136.006 18.7353L133.041 21.3044L130.364 18.4304ZM132.978 24.2078L135.943 21.6398L138.619 24.4823L135.655 27.0796L132.978 24.2078ZM134.189 11.0032L136.165 9.29139L137.95 11.1871L135.974 12.8983L134.189 11.0032ZM131.639 5.3487L133.615 3.60689L135.401 5.53214L133.424 7.24379L131.639 5.3487ZM136.707 16.6582L138.683 14.9465L140.5 16.8416L138.493 18.5528L136.707 16.6582ZM127.814 12.4095L130.779 9.84206L133.456 12.6841L130.492 15.252L127.814 12.4095Z" fill="#ffffff"/>
</svg>
