<svg width="168" height="40" viewBox="0 0 168 40" fill="none" xmlns="http://www.w3.org/2000/svg">
<path d="M147.387 1.25C150.357 1.25 153.184 1.93063 155.72 3.14817C156.118 3.32763 156.518 3.54242 156.915 3.75739L155.176 5.29793L152.568 2.61146L148.076 6.55117L145.43 3.72113L137.169 11.0642L142.458 16.831L140.393 18.6215L145.612 24.3884L143.547 26.1781L151.011 34.3807L155.429 30.3689L159.271 34.6682C158.51 35.2414 157.676 35.8156 156.772 36.3162C154.017 37.8562 150.829 38.75 147.423 38.75C136.951 38.75 128.438 30.3344 128.438 19.9839C128.401 9.7033 136.915 1.25 147.387 1.25ZM143.908 18.8369L148.437 14.825L152.496 19.3022L147.966 23.3136L143.908 18.8369ZM147.133 26.5738L151.626 22.5265L155.72 27.0032L151.191 31.0153L147.133 26.5738ZM140.685 11.208L145.213 7.1961L149.271 11.6732L144.741 15.6849L140.685 11.208ZM148.98 9.05818L152.35 6.04962L155.395 9.38085L152.025 12.425L148.98 9.05818ZM154.996 22.8482L158.364 19.8394L161.409 23.2054L158.038 26.216L154.996 22.8482ZM157.966 29.6185L161.336 26.6092L164.378 29.9402L161.009 32.9839L157.966 29.6185ZM159.343 14.1444L161.589 12.1384L163.618 14.3599L161.372 16.3652L159.343 14.1444ZM156.445 7.51801L158.691 5.47682L160.721 7.73298L158.473 9.73882L156.445 7.51801ZM162.205 20.7713L164.452 18.7655L166.517 20.9863L164.235 22.9916L162.205 20.7713ZM152.097 15.7924L155.467 12.7837L158.51 16.1142L155.141 19.1235L152.097 15.7924Z" fill="white"/>
<path d="M10.1573 10.6253H9.98269L6.70355 23.08H4.02332L0 5.38586H2.78089L5.56244 18.5887H5.73614L8.96396 5.38586H11.1749L14.6268 18.5887H14.8007L17.3341 5.38586H20.2398L16.2155 23.08H13.5332L10.1573 10.6253Z" fill="white"/>
<path d="M23.7673 15.5472H29.4531C29.3298 12.9276 28.0625 11.8804 26.722 11.8804C25.2072 11.8804 24.0393 13.053 23.7673 15.5472ZM31.4395 20.2404V22.1374C30.3223 22.7861 28.833 23.2856 27.044 23.2856C22.8731 23.2856 21.1597 20.6901 21.1597 16.7474C21.1597 12.9525 23.0714 10.2072 26.7965 10.2072C29.8998 10.2072 31.8132 12.2301 31.8132 16.297V17.2205H23.7175C23.7175 20.2143 24.9336 21.5374 27.4924 21.5374C28.833 21.5374 30.0747 21.0624 31.4395 20.2404Z" fill="white"/>
<path d="M37.5903 21.2845C38.3851 21.6338 39.2549 21.6855 39.8768 21.6855C41.714 21.6855 43.1032 20.5358 43.1032 16.494C43.1032 13.3245 41.961 12.3012 40.2979 12.3012C39.3038 12.3012 38.5839 12.5766 37.5903 13.1246V21.2845H37.5903ZM37.6164 11.2783C38.3596 10.8803 39.6259 10.3544 40.9674 10.3544C44.0471 10.3544 45.7112 12.5006 45.7112 16.494C45.7112 21.1611 43.4758 23.4322 39.8768 23.4322C38.5596 23.4322 36.5234 23.0077 35.0326 22.2074V4.78961L37.6165 4.16659V11.2783H37.6164Z" fill="white"/>
<path d="M56.8879 19.3256H57.0123L62.3256 5.37488H65.4066V23.0703H62.7246V10.2418H62.5007L57.4339 23.0703H55.8461L50.7782 10.5417H50.5555V23.0703H48.3203V5.37488H51.326L56.8879 19.3256Z" fill="white"/>
<path d="M76.364 16.7467C76.364 13.3778 74.9992 11.956 73.3106 11.956C71.6721 11.956 70.2554 13.3779 70.2554 16.7467C70.2554 20.1661 71.5483 21.5374 73.3106 21.5374C75.0728 21.5374 76.364 20.1661 76.364 16.7467ZM67.6489 16.7467C67.6489 12.3777 70.0335 10.2072 73.3106 10.2072C76.5896 10.2072 78.9729 12.3777 78.9729 16.7467C78.9729 21.0134 76.7132 23.2856 73.3106 23.2856C69.9086 23.2856 67.6489 21.0134 67.6489 16.7467Z" fill="white"/>
<path d="M80.9367 12.0554C82.054 11.3805 84.4142 10.2072 87.2693 10.2072C90.2491 10.2072 91.3646 11.3805 91.3646 13.9503V22.9858H88.7838V14.525C88.7838 12.5539 87.8169 12.2046 86.5488 12.2046C85.5567 12.2046 84.2886 12.6544 83.5194 13.1036V22.9858H80.9367V12.0554H80.9367Z" fill="white"/>
<path d="M96.8313 15.5472H102.518C102.395 12.9276 101.127 11.8804 99.7864 11.8804C98.2712 11.8804 97.1056 13.053 96.8313 15.5472ZM104.504 20.2404V22.1374C103.387 22.7861 101.897 23.2856 100.109 23.2856C95.939 23.2856 94.2245 20.6901 94.2245 16.7474C94.2245 12.9525 96.1355 10.2072 99.8609 10.2072C102.966 10.2072 104.879 12.2301 104.879 16.297V17.2205H96.7825C96.7825 20.2143 97.9994 21.5374 100.557 21.5374C101.897 21.5374 103.14 21.0624 104.504 20.2404Z" fill="white"/>
<path d="M115.193 10.2072H117.851L113.356 22.6838C112.113 26.1281 110.6 27.9251 107.744 27.9251V25.8801C109.434 25.8801 110.475 24.5318 111.073 22.6838L106.305 10.2072H109.037L112.215 19.391H112.364L115.193 10.2072Z" fill="white"/>
<path d="M26.8235 34.5813V33.5037C27.7444 33.9712 28.6207 34.206 29.451 34.206C30.1425 34.206 30.6723 34.0792 31.0424 33.8232C31.4127 33.5689 31.5981 33.2251 31.5981 32.7904C31.5981 32.3559 31.4458 32.03 31.1412 31.8131C30.8374 31.5966 30.2695 31.3285 29.4389 31.0108C29.1506 30.9025 28.9664 30.832 28.8832 30.7984C28.8014 30.7657 28.641 30.698 28.4021 30.5982C28.1638 30.4986 28.0076 30.4228 27.9338 30.373C27.8595 30.3215 27.7346 30.2461 27.5573 30.1472C27.3807 30.0459 27.2615 29.9568 27.1994 29.8788C27.1384 29.7986 27.0536 29.6973 26.9466 29.5765C26.8399 29.456 26.7676 29.3362 26.7305 29.2142C26.6938 29.0933 26.6583 28.9535 26.6258 28.7944C26.5932 28.6351 26.5765 28.4644 26.5765 28.2806C26.5765 27.5706 26.8379 27 27.3598 26.5651C27.8826 26.1318 28.6038 25.9146 29.5253 25.9146C30.3392 25.9146 31.15 26.0645 31.9553 26.3654V27.5044C31.1742 27.1197 30.3928 26.9293 29.6114 26.9293C29.0604 26.9293 28.6491 27.0443 28.3777 27.2778C28.1063 27.5114 27.9704 27.8205 27.9704 28.2051C27.9704 28.6145 28.1063 28.9249 28.3777 29.1383C28.6491 29.3525 29.1347 29.5884 29.8339 29.8465C31.0343 30.2892 31.8611 30.6898 32.3131 31.0494C32.7658 31.4073 32.9919 31.9433 32.9919 32.652C32.9919 33.3959 32.6815 34.0039 32.0604 34.4757C31.4394 34.9474 30.5864 35.1834 29.5004 35.1834C28.5057 35.1835 27.613 34.982 26.8235 34.5813ZM39.3764 34.9938H38.2046L38.118 34.2674C37.4101 34.8526 36.7032 35.1453 35.9959 35.1453C35.404 35.1453 34.9453 34.9848 34.6207 34.6625C34.2952 34.3411 34.133 33.9351 34.133 33.4412C34.133 33.1819 34.1802 32.9343 34.2749 32.6961C34.3696 32.4578 34.526 32.2269 34.7437 32.0015C34.9616 31.7757 35.2905 31.5945 35.7304 31.4562C36.1703 31.3176 36.6991 31.2492 37.3161 31.2492H38.0812V30.9111C38.0812 30.3517 37.9784 29.9708 37.7727 29.7652C37.5666 29.5605 37.2213 29.4582 36.7363 29.4582C36.1441 29.4582 35.416 29.7034 34.5528 30.1974V29.1956C35.4411 28.7866 36.3126 28.5804 37.1678 28.5804C37.9982 28.5804 38.5746 28.7526 38.8948 29.0956C39.216 29.4372 39.3764 29.9556 39.3764 30.6471V34.9938ZM38.0936 32.1256H37.4392C36.0902 32.1256 35.416 32.531 35.416 33.3412C35.416 33.6261 35.5061 33.8306 35.6873 33.9608C35.8686 34.0906 36.0948 34.1547 36.3665 34.1547C36.7112 34.1547 37.0446 34.071 37.3654 33.9036C37.6861 33.7377 37.9291 33.5457 38.0936 33.3285V32.1256H38.0936ZM41.3811 37.4997V29.4966C41.7432 29.2203 42.1702 28.9981 42.6642 28.8314C43.158 28.6657 43.6425 28.5803 44.1202 28.5803C45.8303 28.5803 46.6861 29.6289 46.6861 31.7257C46.6861 32.8111 46.4641 33.642 46.0197 34.2172C45.5757 34.794 44.9389 35.0808 44.1075 35.0808C43.5316 35.0808 43.0504 34.9347 42.6642 34.6442V37.4997H41.3811ZM42.6518 29.921V33.7177C42.8163 33.8756 43.0237 33.9933 43.2747 34.0731C43.5257 34.1524 43.7459 34.1919 43.9349 34.1919C44.3869 34.1919 44.7431 34.0155 45.0022 33.6607C45.2613 33.3051 45.3903 32.6602 45.3903 31.7257C45.3903 30.9658 45.2574 30.4089 44.99 30.0602C44.7227 29.7082 44.3748 29.5337 43.947 29.5337C43.4625 29.5337 43.0307 29.6624 42.6518 29.921ZM49.6286 28.6448V34.9938H48.3456V28.9572L49.6286 28.6448ZM48.148 26.8025C48.148 26.5771 48.2322 26.3794 48.4006 26.2072C48.5698 26.0362 48.7652 25.9503 48.9864 25.9503C49.2091 25.9503 49.4044 26.0362 49.5733 26.2072C49.7419 26.3794 49.8261 26.5771 49.8261 26.8025C49.8261 27.0279 49.7419 27.2269 49.5733 27.3987C49.4043 27.5683 49.2091 27.6542 48.9864 27.6542C48.7652 27.6542 48.5698 27.5683 48.4006 27.3987C48.2322 27.2269 48.148 27.0279 48.148 26.8025ZM54.4338 34.2674C55.0265 34.2674 55.6796 34.0501 56.3954 33.6168V34.5686C55.7377 34.9533 55.0096 35.1452 54.2119 35.1452C53.2084 35.1452 52.4705 34.8569 51.9976 34.2804C51.5245 33.7038 51.2881 32.8985 51.2881 31.8631C51.2881 30.8772 51.5309 30.0831 52.0155 29.4839C52.5013 28.8827 53.1916 28.5803 54.088 28.5803C54.8783 28.5803 55.4902 28.8399 55.9272 29.3582C56.3629 29.8767 56.5802 30.6355 56.5802 31.6373V32.1014H52.5588C52.5588 32.8449 52.711 33.3925 53.015 33.7411C53.3194 34.0933 53.7924 34.2674 54.4338 34.2674ZM54.051 29.421C53.665 29.421 53.3398 29.5757 53.0765 29.8834C52.8138 30.1928 52.6489 30.653 52.5832 31.2608H55.4083C55.3751 30.6437 55.2316 30.1835 54.9765 29.8788C54.722 29.5732 54.4134 29.421 54.051 29.421ZM58.2147 34.9938V29.5084C59.2264 28.89 60.2751 28.5803 61.3612 28.5803C62.0932 28.5803 62.6151 28.7318 62.9276 29.0327C63.2402 29.3335 63.3965 29.8091 63.3965 30.4598V34.9938H62.1137V30.7482C62.1137 30.2892 62.0189 29.9798 61.8299 29.822C61.6406 29.6623 61.3653 29.5837 61.0031 29.5837C60.5099 29.5837 60.008 29.7346 59.4983 30.0349V34.9938H58.2147V34.9938ZM66.6226 28.8827H68.5719L68.2634 29.7346H66.6226V33.0403C66.6226 33.8757 66.9764 34.293 67.6835 34.293C67.9549 34.293 68.2303 34.235 68.511 34.1178V34.9187C68.1241 35.0694 67.6632 35.1453 67.1286 35.1453C66.5117 35.1453 66.0594 34.9674 65.7713 34.6114C65.4837 34.258 65.3396 33.792 65.3396 33.2144V28.0552L66.6226 27.1148V28.8827H66.6226ZM71.0833 28.6448V34.9938H69.7998V28.9572L71.0833 28.6448ZM69.6028 26.8025C69.6028 26.5771 69.6871 26.3794 69.8548 26.2072C70.0233 26.0362 70.2186 25.9503 70.4413 25.9503C70.6631 25.9503 70.859 26.0362 71.027 26.2072C71.1959 26.3794 71.2802 26.5771 71.2802 26.8025C71.2802 27.0279 71.1959 27.2269 71.027 27.3987C70.859 27.5683 70.6631 27.6542 70.4413 27.6542C70.2187 27.6542 70.0233 27.5683 69.8548 27.3987C69.6871 27.2269 69.6028 27.0279 69.6028 26.8025ZM79.8176 29.0825V30.0832C79.2006 29.6662 78.5753 29.4582 77.9426 29.4582C77.6218 29.4582 77.3587 29.5208 77.1524 29.6464C76.9472 29.7707 76.8443 29.972 76.8443 30.2461C76.8443 30.5064 76.9571 30.7125 77.1832 30.8668C77.4096 31.0217 77.7654 31.1783 78.2511 31.3359C78.5225 31.4279 78.7257 31.4993 78.8611 31.5491C78.9973 31.6005 79.1756 31.6841 79.3981 31.8002C79.62 31.9177 79.7869 32.0334 79.8977 32.1512C80.0088 32.2685 80.1094 32.4221 80.2002 32.6148C80.2906 32.8067 80.3353 33.019 80.3353 33.253C80.3353 33.8297 80.1071 34.2887 79.6514 34.6312C79.1947 34.9735 78.5836 35.1453 77.8193 35.1453C76.9635 35.1453 76.2516 34.9615 75.6845 34.593V33.6168C76.408 34.0502 77.0703 34.2674 77.6713 34.2674C78.5753 34.2674 79.0279 33.9677 79.0279 33.3657C79.0279 33.2494 79.0011 33.1399 78.9477 33.0404C78.8942 32.9402 78.8327 32.8588 78.7629 32.7959C78.6927 32.7334 78.5794 32.6627 78.4231 32.5821C78.2667 32.5044 78.1355 32.4462 78.0284 32.408C77.9217 32.3708 77.7531 32.3101 77.523 32.2269C77.1855 32.1015 76.9183 31.9933 76.7206 31.9009C76.5229 31.8084 76.3262 31.6898 76.1287 31.5442C75.9309 31.398 75.7868 31.2235 75.6969 31.0238C75.6066 30.824 75.5613 30.5853 75.5613 30.3101C75.5613 29.9593 75.6433 29.6595 75.8078 29.4096C75.9722 29.1574 76.1865 28.978 76.4492 28.8698C76.7124 28.7609 76.953 28.6853 77.1709 28.6448C77.3892 28.6016 77.605 28.5804 77.8193 28.5804C78.5185 28.5803 79.1844 28.7478 79.8176 29.0825ZM86.6336 34.9938H85.4618L85.375 34.2674C84.6672 34.8526 83.9605 35.1453 83.2535 35.1453C82.6614 35.1453 82.2028 34.9848 81.8778 34.6625C81.5526 34.3411 81.3905 33.9351 81.3905 33.4412C81.3905 33.1819 81.4377 32.9343 81.5325 32.6961C81.627 32.4578 81.7833 32.2269 82.0013 32.0015C82.2198 31.7757 82.5479 31.5945 82.9879 31.4562C83.4282 31.3176 83.9569 31.2492 84.5729 31.2492H85.3387V30.9111C85.3387 30.3517 85.2353 29.9708 85.0308 29.7652C84.8238 29.5605 84.4786 29.4582 83.9942 29.4582C83.4016 29.4582 82.6734 29.7034 81.8101 30.1974V29.1956C82.6986 28.7866 83.57 28.5804 84.4252 28.5804C85.2564 28.5804 85.8313 28.7526 86.1523 29.0956C86.4729 29.4372 86.6335 29.9556 86.6335 30.6471V34.9938H86.6336ZM85.3516 32.1256H84.697C83.348 32.1256 82.6734 32.531 82.6734 33.3412C82.6734 33.6261 82.764 33.8306 82.9448 33.9608C83.1261 34.0906 83.3516 34.1547 83.6236 34.1547C83.9687 34.1547 84.3009 34.071 84.6229 33.9036C84.9435 33.7377 85.1866 33.5457 85.3516 33.3285V32.1256H85.3516ZM89.8604 28.8827H91.8095L91.5003 29.7346H89.8604V33.0403C89.8604 33.8757 90.2137 34.293 90.9202 34.293C91.192 34.293 91.4666 34.235 91.7475 34.1178V34.9187C91.3608 35.0694 90.9008 35.1453 90.3647 35.1453C89.7488 35.1453 89.2967 34.9674 89.0088 34.6114C88.7206 34.258 88.5762 33.792 88.5762 33.2144V28.0552L89.8604 27.1148V28.8827H89.8604Z" fill="white"/>
</svg>
