<svg width="25" height="24" viewBox="0 0 25 24" fill="none" xmlns="http://www.w3.org/2000/svg">
<g id="Headset" clip-path="url(#clip0_15992_72948)">
<g id="Group">
<g id="Group_2">
<g id="Group_3">
<path id="Vector" d="M6.125 9.51562H4.27255C4.58548 5.25 8.15591 1.875 12.5 1.875C15.9375 1.875 19.0481 4.04016 20.2402 7.26277C20.4199 7.74834 20.9591 7.99636 21.4448 7.81678C21.9304 7.63711 22.1784 7.09786 21.9988 6.61223C21.2883 4.69148 20.026 3.04786 18.3485 1.85902C16.6324 0.642844 14.61 0 12.5 0C9.79555 0 7.25291 1.05319 5.34055 2.96555C3.45312 4.85297 2.40336 7.35441 2.37627 10.0194C1.25586 10.6686 0.5 11.8801 0.5 13.2656V16.4531C0.5 18.5209 2.18225 20.2031 4.25 20.2031H6.125C6.64278 20.2031 7.0625 19.7834 7.0625 19.2656V10.4531C7.0625 9.93534 6.64278 9.51562 6.125 9.51562ZM5.1875 18.3281H4.25C3.21613 18.3281 2.375 17.487 2.375 16.4531V13.2656C2.375 12.2318 3.21613 11.3906 4.25 11.3906H5.1875V18.3281Z" fill="#384250"/>
<path id="Vector_2" d="M20.75 9.51562H18.875C18.3572 9.51562 17.9375 9.93534 17.9375 10.4531V16.875V19.2656V20.25C17.9375 20.7669 17.5169 21.1875 17 21.1875H14.1406V21.2172C13.8208 20.6405 13.2061 20.25 12.5 20.25C11.4645 20.25 10.625 21.0895 10.625 22.125C10.625 23.1605 11.4645 24 12.5 24C13.2061 24 13.8208 23.6095 14.1406 23.0328V23.0625H17C18.5508 23.0625 19.8125 21.8008 19.8125 20.25V20.2031H20.75C22.8177 20.2031 24.5 18.5209 24.5 16.4531V13.2656C24.5 11.1979 22.8177 9.51562 20.75 9.51562ZM22.625 16.4531C22.625 17.487 21.7839 18.3281 20.75 18.3281H19.8125V16.875V11.3906H20.75C21.7839 11.3906 22.625 12.2318 22.625 13.2656V16.4531Z" fill="#384250"/>
</g>
</g>
</g>
</g>
<defs>
<clipPath id="clip0_15992_72948">
<rect width="24" height="24" fill="white" transform="translate(0.5)"/>
</clipPath>
</defs>
</svg>
