<svg width="24" height="24" viewBox="0 0 24 24" fill="none" xmlns="http://www.w3.org/2000/svg">
<g id="wm_ic_24_stroke_settings">
<path id="Icon" d="M12.0571 16.5273C9.57636 16.5273 7.55713 14.5081 7.55713 12.0273C7.55713 9.54657 9.57636 7.52734 12.0571 7.52734C14.5379 7.52734 16.5571 9.54657 16.5571 12.0273C16.5571 14.5081 14.5379 16.5273 12.0571 16.5273ZM12.0571 9.22418C10.5113 9.22418 9.25396 10.4815 9.25396 12.0273C9.25396 13.5732 10.5113 14.8305 12.0571 14.8305C13.6029 14.8305 14.8603 13.5732 14.8603 12.0273C14.8603 10.4815 13.6029 9.22418 12.0571 9.22418Z" fill="#384250"/>
<path id="Icon_2" d="M13.5603 23H10.4401C9.57088 23 8.8014 22.4097 8.61335 21.5975L8.24684 20.041C7.66734 19.7953 7.11277 19.4873 6.587 19.1207L5.00199 19.5992C4.15384 19.8522 3.23085 19.5057 2.80293 18.7797L1.24863 16.213C0.814956 15.4742 0.962711 14.5685 1.59787 13.9983L2.8298 12.9148C2.7991 12.6123 2.78183 12.3062 2.78183 12C2.78183 11.6938 2.7991 11.3877 2.8298 11.0852L1.60554 10.009C0.962711 9.4315 0.814956 8.52583 1.24287 7.798L2.80869 5.20933C3.23085 4.49433 4.15192 4.14783 4.99815 4.399L6.587 4.87933C7.11086 4.51083 7.66734 4.20283 8.24684 3.959L8.61335 2.40067C8.8014 1.59033 9.57088 1 10.4401 1H13.5603C14.4295 1 15.199 1.59033 15.3871 2.4025L15.7536 3.959C16.3331 4.20467 16.8876 4.51267 17.4134 4.87933L18.9984 4.40083C19.8466 4.14967 20.7696 4.49433 21.1975 5.22033L22.7518 7.787C23.1855 8.524 23.0377 9.42967 22.4025 10.0017L21.1706 11.0852C21.2013 11.3877 21.2186 11.6938 21.2186 12C21.2186 12.3062 21.2013 12.6123 21.1706 12.9148L22.3949 13.991C22.3968 13.9928 22.4006 13.9947 22.4025 13.9983C23.0377 14.5685 23.1835 15.4742 22.7575 16.202L21.1917 18.7907C20.7696 19.5057 19.8504 19.8522 19.0023 19.601L17.4134 19.1207C16.8896 19.4892 16.3331 19.7972 15.7536 20.041L15.3871 21.5993C15.199 22.4097 14.4295 23 13.5603 23ZM6.77889 17.1865C6.99956 17.1865 7.2164 17.2598 7.3891 17.3955C8.0089 17.885 8.68819 18.2608 9.40394 18.5138C9.70904 18.622 9.93547 18.8695 10.0065 19.172L10.4843 21.1978L13.5603 21.1667L13.992 19.172C14.063 18.8695 14.2914 18.622 14.5946 18.5138C15.3122 18.2608 15.9896 17.8832 16.6094 17.3955C16.8608 17.1993 17.2004 17.137 17.5094 17.2287L19.5741 17.852L21.0728 15.3202L19.5088 13.9452C19.2747 13.7398 19.1615 13.4373 19.2095 13.1367C19.2671 12.7682 19.2997 12.3832 19.2997 12C19.2997 11.6168 19.2671 11.2318 19.2095 10.8633C19.1634 10.5627 19.2747 10.2602 19.5088 10.0548L21.0958 8.65967L19.528 6.12967L17.5094 6.77317C17.2004 6.87033 16.8627 6.80433 16.6094 6.60633C15.9896 6.11683 15.3103 5.741 14.5946 5.488C14.2894 5.37983 14.063 5.13233 13.992 4.82983L13.5142 2.804L10.4401 2.83333L10.0084 4.828C9.93739 5.1305 9.70904 5.378 9.40586 5.48617C8.68819 5.73917 8.01082 6.11683 7.39101 6.6045C7.13772 6.8025 6.80191 6.8685 6.48913 6.77133L4.4244 6.148L2.91039 8.70733L4.48964 10.0548C4.72375 10.2602 4.83696 10.5627 4.79091 10.8633C4.73334 11.2318 4.70072 11.6168 4.70072 12C4.70072 12.3832 4.73334 12.7682 4.79091 13.1367C4.83696 13.4373 4.72567 13.7398 4.49156 13.9452L2.90272 15.3403L4.47045 17.8703L6.48913 17.2268C6.58508 17.1993 6.68294 17.1865 6.77889 17.1865Z" fill="#384250"/>
</g>
</svg>
