<svg width="28" height="28" viewBox="0 0 28 28" fill="none" xmlns="http://www.w3.org/2000/svg">
<g id="wm_ic_28_crypto_coin_variants_v2">
<circle id="Ellipse 112" cx="14" cy="14" r="14" fill="#E6F2FB"/>
<g id="Br">
<path d="M7.3 19.5C7.13432 19.5 7 19.3657 7 19.2V8.8C7 8.63431 7.13431 8.5 7.3 8.5H11.2755C12.0043 8.5 12.6008 8.65023 13.0651 8.95069C13.5343 9.24606 13.8812 9.62546 14.1059 10.0889C14.3355 10.5523 14.4503 11.031 14.4503 11.525C14.4503 12.131 14.3081 12.6454 14.0235 13.0681C13.744 13.4907 13.3621 13.7759 12.8779 13.9236V13.5417C13.5568 13.6995 14.0709 14.028 14.4204 14.5271C14.7748 15.0262 14.952 15.594 14.952 16.2306C14.952 16.8824 14.8297 17.4528 14.5851 17.9417C14.3405 18.4306 13.9761 18.8125 13.4919 19.0875C13.0127 19.3625 12.4186 19.5 11.7098 19.5H7.3ZM8.82701 17.766H11.4852C11.7997 17.766 12.0817 17.7023 12.3313 17.575C12.5809 17.4426 12.7756 17.2593 12.9153 17.025C13.0601 16.7856 13.1325 16.503 13.1325 16.1771C13.1325 15.8817 13.0701 15.6169 12.9453 15.3826C12.8205 15.1484 12.6383 14.9625 12.3987 14.825C12.1591 14.6824 11.872 14.6111 11.5376 14.6111H8.82701V17.766ZM8.82701 12.8924H11.253C11.5126 12.8924 11.7447 12.8414 11.9494 12.7396C12.1541 12.6377 12.3163 12.4875 12.4361 12.2889C12.5559 12.0903 12.6158 11.8458 12.6158 11.5556C12.6158 11.1736 12.496 10.8553 12.2564 10.6007C12.0168 10.3461 11.6823 10.2188 11.253 10.2188H8.82701V12.8924Z" fill="#0080D8"/>
<path d="M16.7474 19.5C16.5818 19.5 16.4474 19.3657 16.4474 19.2V11.55C16.4474 11.3843 16.5818 11.25 16.7474 11.25H17.7423C17.908 11.25 18.0423 11.3843 18.0423 11.55V13.259L17.8477 12.9993C17.9475 12.7243 18.0798 12.4748 18.2445 12.2507C18.4142 12.0215 18.6164 11.8331 18.851 11.6854C19.0507 11.5479 19.2703 11.441 19.5099 11.3646C19.7545 11.2831 20.0041 11.2347 20.2587 11.2194C20.4253 11.2061 20.5886 11.2059 20.7487 11.2187C20.8945 11.2304 21 11.357 21 11.5033V12.5665C21 12.7672 20.8049 12.9133 20.6049 12.8975C20.4686 12.8867 20.3232 12.8875 20.1689 12.9C19.8594 12.9255 19.5798 13.0146 19.3302 13.1674C19.0806 13.3049 18.876 13.4806 18.7162 13.6944C18.5615 13.9083 18.4467 14.1528 18.3718 14.4278C18.2969 14.6977 18.2595 14.9905 18.2595 15.3062V19.2C18.2595 19.3657 18.1252 19.5 17.9595 19.5H16.7474Z" fill="#0080D8"/>
</g>
</g>
</svg>
