<svg width="28" height="28" viewBox="0 0 28 28" fill="none" xmlns="http://www.w3.org/2000/svg">
<circle cx="14" cy="14" r="14" fill="#E6F2FB"/>
<path d="M15.1237 20.75C13.8486 20.75 12.7501 20.462 11.8282 19.886C10.9122 19.31 10.2029 18.515 9.7 17.501C9.20313 16.481 8.94272 15.314 8.91878 14C8.94871 12.644 9.2151 11.462 9.71796 10.454C10.2208 9.44 10.9302 8.654 11.8461 8.096C12.762 7.532 13.8546 7.25 15.1237 7.25C15.7403 7.25 16.3329 7.328 16.9016 7.484C17.3755 7.60769 17.8209 7.78443 18.2379 8.0142C18.3843 8.09491 18.4261 8.28308 18.3358 8.42382L17.5208 9.69385C17.4282 9.83814 17.2342 9.87441 17.0858 9.78857C16.8444 9.64893 16.5824 9.53774 16.3 9.455C15.9169 9.341 15.5248 9.284 15.1237 9.284C14.2497 9.284 13.5253 9.482 12.9506 9.878C12.3819 10.274 11.9509 10.829 11.6576 11.543C11.3702 12.251 11.2235 13.07 11.2176 14C11.2235 14.948 11.3732 15.776 11.6665 16.484C11.9599 17.192 12.3939 17.741 12.9686 18.131C13.5493 18.521 14.2676 18.713 15.1237 18.707C15.8519 18.7226 16.5123 18.5571 17.1049 18.2104C17.2524 18.1241 17.4453 18.1612 17.5372 18.3052L18.3383 19.5606C18.4276 19.7005 18.3867 19.887 18.2422 19.9684C17.8231 20.2043 17.3732 20.3869 16.8927 20.516C16.318 20.672 15.7283 20.75 15.1237 20.75ZM7.8 16.358C7.63432 16.358 7.5 16.2237 7.5 16.058V14.957C7.5 14.7913 7.63431 14.657 7.8 14.657H15.6947C15.8604 14.657 15.9947 14.7913 15.9947 14.957V16.058C15.9947 16.2237 15.8604 16.358 15.6947 16.358H7.8ZM7.8 13.361C7.63432 13.361 7.5 13.2267 7.5 13.061V11.96C7.5 11.7943 7.63431 11.66 7.8 11.66H15.6947C15.8604 11.66 15.9947 11.7943 15.9947 11.96V13.061C15.9947 13.2267 15.8604 13.361 15.6947 13.361H7.8Z" fill="#0080D8"/>
</svg>
