<svg width="28" height="28" viewBox="0 0 28 28" fill="none" xmlns="http://www.w3.org/2000/svg">
<g id="wm_ic_28_crypto_coin_variants_v2">
<circle id="Ellipse 113" cx="14" cy="14" r="14" fill="#E6F2FB"/>
<path id="ethereum-coins 1 (Traced)" fill-rule="evenodd" clip-rule="evenodd" d="M14.3235 6.14671C14.5135 6.34088 18.9339 12.4774 18.9809 12.6122C19.039 12.7788 18.9619 12.9945 18.7844 13.1612C18.7064 13.2345 17.6319 13.8991 16.3966 14.638C14.6159 15.7032 14.1194 15.9815 14 15.9815C13.7802 15.9815 9.30319 13.2988 9.12715 13.0616C8.90922 12.768 8.94202 12.6568 9.45807 11.9394C12.1798 8.15525 13.687 6.10304 13.7848 6.04818C13.9479 5.95662 14.1789 5.99889 14.3235 6.14671ZM11.837 15.7521C12.9955 16.4451 13.9743 17.0109 14.0123 17.0095C14.0502 17.0081 15.0194 16.4422 16.166 15.7519C17.3126 15.0617 18.3027 14.484 18.3661 14.468C18.6571 14.3951 18.9854 14.7462 18.8965 15.0354C18.86 15.1543 14.6963 20.4662 14.3517 20.8334C14.2025 20.9924 14.0277 21.0409 13.8396 20.9754C13.7388 20.9403 13.2011 20.2909 11.5625 18.2253C8.85215 14.8085 9.09422 15.1315 9.09422 14.9317C9.09422 14.6442 9.33229 14.4269 9.59908 14.4706C9.67151 14.4825 10.6786 15.0592 11.837 15.7521Z" fill="#0080D8"/>
</g>
</svg>
