<svg width="28" height="28" viewBox="0 0 28 28" fill="none" xmlns="http://www.w3.org/2000/svg">
<g id="wm_ic_28_crypto_coin_variants_v2">
<circle id="Ellipse 112" cx="14" cy="14" r="14" fill="#E6F2FB"/>
<g id="Au">
<path d="M5.41212 19.2682C5.20854 19.2682 5.06408 19.0697 5.12663 18.876L8.4099 8.70782C8.4499 8.58395 8.56522 8.5 8.69539 8.5H10.9621C11.0923 8.5 11.2076 8.58394 11.2476 8.70782L14.5309 18.876C14.5934 19.0697 14.449 19.2682 14.2454 19.2682H12.9758C12.846 19.2682 12.7309 19.1847 12.6906 19.0613L9.60282 9.60673H10.0164L6.9664 19.0603C6.92643 19.1842 6.81109 19.2682 6.6809 19.2682H5.41212ZM6.93763 16.9351V15.2526H12.7275V16.9351H6.93763Z" fill="#0080D8"/>
<path d="M18.6652 19.5C18.0525 19.5 17.5471 19.4003 17.1488 19.2009C16.7506 19.0015 16.434 18.7472 16.1992 18.4381C15.9643 18.1291 15.7907 17.8 15.6784 17.4511C15.566 17.1021 15.492 16.7731 15.4563 16.464C15.4256 16.1499 15.4103 15.8956 15.4103 15.7012V11.492C15.4103 11.3264 15.5446 11.192 15.7103 11.192H16.979C17.1447 11.192 17.279 11.3264 17.279 11.492V15.0806C17.279 15.3298 17.2969 15.6115 17.3326 15.9256C17.3684 16.2346 17.4501 16.5338 17.5777 16.8229C17.7105 17.1071 17.9045 17.3414 18.1598 17.5258C18.4202 17.7103 18.7699 17.8025 19.209 17.8025C19.4439 17.8025 19.6762 17.7651 19.9059 17.6903C20.1357 17.6156 20.3425 17.4884 20.5263 17.309C20.7152 17.1245 20.8658 16.8728 20.9781 16.5537C21.0905 16.2346 21.1466 15.8308 21.1466 15.3423L22.2418 15.7984C22.2418 16.4864 22.1039 17.1096 21.8282 17.6679C21.5576 18.2263 21.1568 18.6724 20.6258 19.0065C20.0948 19.3355 19.4413 19.5 18.6652 19.5ZM21.6687 19.2682C21.503 19.2682 21.3687 19.1339 21.3687 18.9682V16.7631H21.1466V11.492C21.1466 11.3264 21.2809 11.192 21.4466 11.192H22.7C22.8657 11.192 23 11.3264 23 11.492V18.9682C23 19.1339 22.8657 19.2682 22.7 19.2682H21.6687Z" fill="#0080D8"/>
</g>
</g>
</svg>
