<svg width="28" height="28" viewBox="0 0 28 28" fill="none" xmlns="http://www.w3.org/2000/svg">
<g id="wm_ic_28_crypto_coin_variants_v2">
<circle id="Ellipse 112" cx="14" cy="14" r="14" fill="#E6F2FB"/>
<path id="Union" fill-rule="evenodd" clip-rule="evenodd" d="M13.8378 21.5488C13.6778 21.5917 13.5133 21.4967 13.4704 21.3367L13.1386 20.0981L10.4563 20.8168C10.2963 20.8597 10.1318 20.7647 10.0889 20.6047L9.83423 19.6542C9.79135 19.4942 9.88633 19.3297 10.0464 19.2868L11.4536 18.9098L9.28725 10.825L7.88005 11.202C7.72001 11.2449 7.55551 11.1499 7.51263 10.9899L7.25795 10.0394C7.21507 9.87937 7.31004 9.71487 7.47008 9.67199L10.1523 8.95329L9.8221 7.72097C9.77922 7.56093 9.87419 7.39643 10.0342 7.35355L10.9847 7.09887C11.1447 7.05599 11.3092 7.15096 11.3521 7.311L11.6845 8.55125L12.8977 8.22618L12.5653 6.98593C12.5224 6.82589 12.6174 6.66139 12.7775 6.6185L13.7357 6.36176C13.8957 6.31887 14.0602 6.41385 14.1031 6.57389L14.4744 7.95954C14.7547 7.96452 15.0168 8.00521 15.2608 8.08163C15.8251 8.25067 16.286 8.53853 16.6434 8.94521C17.006 9.35051 17.2542 9.80301 17.3881 10.3027C17.5524 10.9158 17.545 11.4754 17.3659 11.9817C17.2569 12.2981 17.0918 12.571 16.8705 12.8004C17.3714 12.864 17.8049 13.0465 18.1709 13.3479C18.672 13.7547 19.0088 14.2801 19.1813 14.9241C19.358 15.5835 19.3864 16.1943 19.2665 16.7565C19.1466 17.3187 18.874 17.8058 18.4489 18.2179C18.1696 18.491 17.8214 18.7166 17.4045 18.8947L17.7514 20.1896C17.7943 20.3496 17.6993 20.5141 17.5393 20.557L16.5811 20.8138C16.421 20.8566 16.2565 20.7617 16.2136 20.6016L15.8793 19.3536L14.666 19.6787L15.0004 20.9267C15.0433 21.0867 14.9484 21.2512 14.7883 21.2941L13.8378 21.5488ZM13.2765 18.171L16.0197 17.4359C16.3443 17.349 16.6181 17.2066 16.8411 17.0088C17.0628 16.8058 17.214 16.5665 17.2948 16.2909C17.3793 16.0088 17.3774 15.7028 17.2891 15.3731C17.209 15.0743 17.0728 14.8237 16.8805 14.6212C16.6882 14.4188 16.4498 14.2811 16.1653 14.2083C15.8794 14.1303 15.5638 14.1375 15.2187 14.23L12.4213 14.9796L13.2765 18.171ZM11.9555 13.2409L14.4591 12.57C14.727 12.4983 14.9528 12.3826 15.1364 12.2229C15.32 12.0633 15.4467 11.8665 15.5165 11.6324C15.5863 11.3984 15.5819 11.1346 15.5032 10.8409C15.3997 10.4545 15.1897 10.1657 14.8734 9.97437C14.5571 9.78305 14.1775 9.74674 13.7344 9.86546L11.2308 10.5363L11.9555 13.2409Z" fill="#0080D8"/>
</g>
</svg>
