<svg width="28" height="28" viewBox="0 0 28 28" fill="none" xmlns="http://www.w3.org/2000/svg">
<g id="wm_ic_28_crypto_coin_variants_v2">
<circle id="Ellipse 112" cx="14" cy="14" r="14" fill="#E6F2FB"/>
<g id="Vector">
<path d="M8 8.3C8 8.13431 8.13431 8 8.3 8H19.7C19.8657 8 20 8.13431 20 8.3V9.7C20 9.86569 19.8657 10 19.7 10H8.3C8.13431 10 8 9.86569 8 9.7V8.3Z" fill="#0080D8"/>
<path d="M8 11.3C8 11.1343 8.13431 11 8.3 11H19.7C19.8657 11 20 11.1343 20 11.3V12.7C20 12.8657 19.8657 13 19.7 13H8.3C8.13431 13 8 12.8657 8 12.7V11.3Z" fill="#0080D8"/>
<path d="M14.7 11C14.8657 11 15 11.1343 15 11.3L15 21.7C15 21.8657 14.8657 22 14.7 22H13.3C13.1343 22 13 21.8657 13 21.7L13 11.3C13 11.1343 13.1343 11 13.3 11H14.7Z" fill="#0080D8"/>
</g>
</g>
</svg>
