<svg width="28" height="28" viewBox="0 0 28 28" fill="none" xmlns="http://www.w3.org/2000/svg">
<g id="wm_ic_28_crypto_coin_variants_v2">
<circle id="Ellipse 113" cx="14" cy="14" r="14" fill="#E6F2FB"/>
<path id="Union" fill-rule="evenodd" clip-rule="evenodd" d="M14.563 6.5958C14.5909 6.43274 14.4816 6.27784 14.3186 6.24956L13.1763 6.05139C13.0128 6.02302 12.8574 6.13276 12.8293 6.29631L11.6345 13.2696L8.25178 15.4194C8.1125 15.508 8.07086 15.6923 8.15859 15.8321L8.7789 16.8204C8.86733 16.9613 9.05351 17.0033 9.19391 16.9141L11.232 15.6189L10.5491 19.6042C10.5153 19.8018 10.681 19.9764 10.8801 19.9528L19.7025 18.9084C19.8669 18.8889 19.9844 18.74 19.9652 18.5756L19.8294 17.4137C19.8101 17.249 19.6608 17.1311 19.4961 17.1506L12.6149 17.9653L13.235 14.3459L17.0427 11.926C17.182 11.8375 17.2236 11.6531 17.1359 11.5134L16.5156 10.5251C16.4271 10.3842 16.2409 10.3421 16.1006 10.4314L13.6376 11.9966L14.563 6.5958Z" fill="#0080D8"/>
</g>
</svg>
