<svg width="28" height="28" viewBox="0 0 28 28" fill="none" xmlns="http://www.w3.org/2000/svg">
<circle cx="14" cy="14" r="14" fill="#E6F2FB"/>
<path fill-rule="evenodd" clip-rule="evenodd" d="M14 4.875C11.5629 4.875 9.27095 5.82434 7.54764 7.54764C5.82434 9.27095 4.875 11.5629 4.875 14C4.875 16.4371 5.82434 18.7291 7.54764 20.4524C9.27095 22.1757 11.5629 23.125 14 23.125C16.4371 23.125 18.7291 22.1757 20.4524 20.4524C22.1757 18.7291 23.125 16.4371 23.125 14C23.125 11.5629 22.1757 9.27095 20.4524 7.54764C18.7291 5.82434 16.4371 4.875 14 4.875ZM6.53125 14C6.53125 9.88187 9.88187 6.53125 14 6.53125C18.1181 6.53125 21.4688 9.88187 21.4688 14C21.4688 14.9206 21.3011 15.8024 20.9952 16.6172H19.293V9.80985L14 15.1446L8.70703 9.80985V16.6172H7.00482C6.69894 15.8024 6.53125 14.9206 6.53125 14ZM10.3633 18.2734V13.8308L14 17.496L17.6367 13.8308V18.2734H20.1216C18.7698 20.2042 16.5298 21.4688 14 21.4688C11.4702 21.4688 9.23019 20.2042 7.87836 18.2734H10.3633Z" fill="#0080D8"/>
</svg>
