<svg width="28" height="28" viewBox="0 0 28 28" fill="none" xmlns="http://www.w3.org/2000/svg">
<g id="wm_ic_28_crypto_coin_variants_v2">
<circle id="Ellipse 112" cx="14" cy="14" r="14" fill="#E6F2FB"/>
<path id="Union" d="M9.5 7.5C9.22386 7.5 9 7.72386 9 8V16.8055H9.00645C9.00876 16.896 9.01388 17.0019 9.02381 17.1202C9.05524 17.4946 9.13609 18.009 9.33839 18.5571C9.75382 19.6826 10.6849 20.9339 12.6164 21.3656C14.8013 21.854 17.2537 20.9676 18.4186 19.4085C19.0289 18.5915 19.3089 17.5455 18.9224 16.4506C18.4728 15.1768 17.3338 14.1289 16.0247 13.6067C14.4425 13.0607 13.65 12.3765 13.3164 11.809C13.0061 11.2812 13.0455 10.7846 13.3083 10.356C13.8324 9.50113 15.434 8.75472 17.4634 9.48652C17.7237 9.58039 18.0211 9.4726 18.136 9.22088L18.4229 8.5925C18.5374 8.34182 18.4275 8.0438 18.17 7.94577C15.5173 6.93611 12.9337 7.73886 11.873 9.46923C11.293 10.4152 11.2271 11.5841 11.8649 12.6689C12.4715 13.7007 13.6576 14.5673 15.4089 15.1831C16.638 15.8603 17.1586 16.5191 17.3338 17.0156C17.4979 17.4805 17.408 17.9413 17.0703 18.3933C16.3391 19.372 14.5824 20.0718 12.9827 19.7142C11.7218 19.4323 11.1791 18.6745 10.9188 17.9692C10.7832 17.6019 10.7257 17.2456 10.7032 16.9781C10.6921 16.8458 10.6899 16.7393 10.6903 16.6692C10.6905 16.6343 10.6913 16.6088 10.6919 16.5942L10.6925 16.5805L10.6925 16.5817L10.6924 16.5829C10.6924 16.5829 10.6923 16.5836 10.6854 16.5831V8C10.6854 7.72386 10.4615 7.5 10.1854 7.5H9.5Z" fill="#0080D8"/>
</g>
</svg>
