<svg width="28" height="28" viewBox="0 0 28 28" fill="none" xmlns="http://www.w3.org/2000/svg">
<g id="wm_ic_28_crypto_coin_variants_v2">
<circle id="Ellipse 113" cx="14" cy="14" r="14" fill="#E6F2FB"/>
<path id="tether 1 (Traced)" fill-rule="evenodd" clip-rule="evenodd" d="M20.0937 7.098C20.3645 7.28776 20.3996 7.49696 20.3996 8.91875C20.3996 10.4065 20.3654 10.567 20.0124 10.7347C19.8441 10.8146 19.5158 10.8291 17.8651 10.8291H15.9164V12.1397L16.1107 12.1675C16.2176 12.1828 16.6558 12.2372 17.0846 12.2884C18.9647 12.5126 20.1476 13.0458 20.3384 13.755C20.5409 14.5077 19.8527 15.1129 18.3672 15.4882C17.9851 15.5847 17.2789 15.6947 16.1705 15.8304L15.9164 15.8615V18.1966C15.9164 20.7376 15.911 20.7806 15.575 20.9339C15.3817 21.022 12.6255 21.022 12.4322 20.9339C12.0962 20.7806 12.0908 20.7376 12.0908 18.1966V15.8615L11.8367 15.8304C9.68755 15.5674 8.96193 15.3848 8.22914 14.9226C7.55564 14.4979 7.43968 13.8072 7.9556 13.2935C8.45946 12.7921 9.77703 12.3741 11.2838 12.2379C11.5139 12.2171 11.7897 12.1865 11.8965 12.1699L12.0908 12.1397V10.8291H10.1421C7.96947 10.8291 7.87879 10.8146 7.70186 10.4415C7.57196 10.1675 7.56312 7.70137 7.69092 7.3952C7.86803 6.97106 7.39826 7.00043 14.0036 7.00043C19.4086 7.00043 19.9674 7.00941 20.0937 7.098ZM8.92266 9.51296H10.8374C12.8913 9.51296 13.0483 9.53289 13.2486 9.81908C13.3346 9.94201 13.3461 10.2298 13.3461 12.2717C13.3461 14.326 13.3566 14.5891 13.4406 14.6214C13.5634 14.6685 14.4438 14.6685 14.5666 14.6214C14.6506 14.5891 14.6611 14.326 14.6611 12.2717C14.6611 10.2298 14.6726 9.94201 14.7586 9.81908C14.9589 9.53289 15.1159 9.51296 17.1698 9.51296H19.0845V8.2567H8.92266V9.51296ZM11.3436 13.5024C10.5403 13.6068 9.22154 13.9157 9.22154 13.9996C9.22154 14.1102 10.7253 14.4307 11.629 14.5127L12.0908 14.5545V13.4612L11.8068 13.4702C11.6506 13.4751 11.4422 13.4896 11.3436 13.5024ZM15.9164 14.5545L16.3782 14.5127C17.2819 14.4307 18.7857 14.1102 18.7857 13.9996C18.7857 13.8905 17.2212 13.5529 16.396 13.4841L15.9164 13.444V14.5545ZM13.3461 19.7426H14.6611V15.9139H13.3461V19.7426Z" fill="#0080D8"/>
</g>
</svg>
