<svg width="28" height="28" viewBox="0 0 28 28" fill="none" xmlns="http://www.w3.org/2000/svg">
<g id="wm_ic_28_crypto_coin_variants_v2">
<circle id="Ellipse 112" cx="14" cy="14" r="14" fill="#E6F2FB"/>
<path id="Union" fill-rule="evenodd" clip-rule="evenodd" d="M10.0343 20.643C9.8743 20.6001 9.77933 20.4356 9.82221 20.2755L10.1541 19.037L7.47185 18.3183C7.31181 18.2754 7.21684 18.1109 7.25972 17.9509L7.5144 17.0004C7.55728 16.8404 7.72178 16.7454 7.88182 16.7883L9.28902 17.1654L11.4553 9.08056L10.0481 8.7035C9.8881 8.66062 9.79312 8.49612 9.836 8.33608L10.0907 7.3856C10.1336 7.22556 10.2981 7.13059 10.4581 7.17347L13.1403 7.89217L13.4705 6.65985C13.5134 6.49981 13.6779 6.40484 13.8379 6.44772L14.7884 6.7024C14.9485 6.74528 15.0434 6.90978 15.0005 7.06982L14.6682 8.31007L15.8814 8.63515L16.2138 7.3949C16.2566 7.23486 16.4211 7.13988 16.5812 7.18277L17.5394 7.43951C17.6994 7.4824 17.7944 7.6469 17.7515 7.80694L17.3802 9.19259C17.6205 9.33704 17.8271 9.50335 18.0002 9.69152C18.4044 10.1201 18.6596 10.5998 18.7658 11.1307C18.8772 11.663 18.8659 12.179 18.732 12.6787C18.5677 13.2918 18.2815 13.7727 17.8733 14.1216C17.6207 14.3412 17.3412 14.495 17.0349 14.583C17.4369 14.8885 17.721 15.2633 17.8874 15.7073C18.1179 16.3102 18.1468 16.9336 17.9743 17.5775C17.7976 18.2369 17.5168 18.7801 17.1318 19.207C16.7469 19.6339 16.2673 19.9195 15.6931 20.0638C15.3147 20.1607 14.9004 20.182 14.4501 20.1278L14.1032 21.4226C14.0603 21.5827 13.8958 21.6776 13.7358 21.6348L12.7776 21.378C12.6175 21.3351 12.5226 21.1706 12.5654 21.0106L12.8998 19.7626L11.6866 19.4375L11.3522 20.6855C11.3094 20.8456 11.1449 20.9405 10.9848 20.8976L10.0343 20.643ZM11.2371 17.437L13.9803 18.1721C14.3049 18.259 14.6132 18.2726 14.9053 18.2129C15.1987 18.1479 15.4493 18.0163 15.6571 17.818C15.8714 17.6159 16.0227 17.35 16.111 17.0203C16.1911 16.7215 16.1985 16.4364 16.1332 16.1649C16.0679 15.8934 15.9302 15.655 15.7202 15.4496C15.5116 15.2391 15.2347 15.0876 14.8895 14.9951L12.0922 14.2456L11.2371 17.437ZM12.5581 12.5069L15.0618 13.1778C15.3297 13.2496 15.583 13.2622 15.8218 13.2158C16.0607 13.1694 16.2688 13.0623 16.4463 12.8945C16.6238 12.7267 16.7518 12.496 16.8305 12.2023C16.934 11.816 16.8967 11.4609 16.7184 11.137C16.5402 10.8132 16.2295 10.5919 15.7865 10.4732L13.2828 9.80234L12.5581 12.5069Z" fill="#0080D8"/>
</g>
</svg>
