<svg width="28" height="28" viewBox="0 0 28 28" fill="none" xmlns="http://www.w3.org/2000/svg">
<circle cx="14" cy="14" r="14" fill="#E6F2FB"/>
<path d="M13.3928 21.5C13.2271 21.5 13.0928 21.3657 13.0928 21.2V19.5648H15.0607V21.2C15.0607 21.3657 14.9264 21.5 14.7607 21.5H13.3928ZM13.0928 8.43522V6.8C13.0928 6.63431 13.2271 6.5 13.3928 6.5H14.7607C14.9264 6.5 15.0607 6.63431 15.0607 6.8V8.43522H13.0928ZM14.1217 20.12C13.2942 20.12 12.5539 19.9676 11.9007 19.6628C11.2474 19.3579 10.7112 18.9279 10.2921 18.3726C9.93222 17.8897 9.68563 17.3285 9.55229 16.6891C9.51869 16.528 9.63094 16.3757 9.79346 16.3497L11.1659 16.1306C11.322 16.1057 11.4691 16.2068 11.517 16.3574C11.6899 16.9014 11.992 17.3445 12.4232 17.6867C12.9295 18.0787 13.5338 18.2746 14.236 18.2746C14.911 18.2746 15.4662 18.1168 15.9017 17.801C16.3372 17.4799 16.555 17.0743 16.555 16.5844C16.555 16.2414 16.4516 15.9638 16.2447 15.7515C16.0378 15.5338 15.7058 15.3541 15.2485 15.2126L12.4151 14.3307C10.7657 13.819 9.94094 12.8174 9.94094 11.3258C9.94094 10.629 10.107 10.022 10.439 9.5049C10.7765 8.98231 11.2501 8.5822 11.8598 8.30457C12.4695 8.0215 13.1881 7.88269 14.0155 7.88813C14.7831 7.89358 15.4662 8.03239 16.0651 8.30457C16.6693 8.57676 17.1701 8.9687 17.5675 9.4804C17.9121 9.91815 18.1711 10.4316 18.3444 11.0207C18.3928 11.1854 18.2833 11.3516 18.1145 11.3824L16.6989 11.6403C16.5376 11.6696 16.3844 11.5632 16.3354 11.4068C16.2507 11.1363 16.1252 10.8916 15.9589 10.6726C15.7357 10.3786 15.4554 10.15 15.1179 9.98666C14.7803 9.82335 14.4047 9.73626 13.991 9.72537C13.5936 9.71992 13.2371 9.78253 12.9213 9.91317C12.6056 10.0384 12.3552 10.218 12.1701 10.4521C11.985 10.6807 11.8925 10.9393 11.8925 11.2278C11.8925 11.549 12.0204 11.8239 12.2763 12.0525C12.5376 12.2812 12.9486 12.4771 13.5093 12.6404L15.6241 13.2529C16.6421 13.5468 17.3743 13.9469 17.8206 14.4532C18.2725 14.954 18.4984 15.6208 18.4984 16.4537C18.4984 17.1832 18.316 17.8228 17.9513 18.3726C17.5866 18.9224 17.0748 19.3525 16.4162 19.6628C15.7575 19.9676 14.9927 20.12 14.1217 20.12Z" fill="#0080D8"/>
</svg>
