<svg width="68" height="68" viewBox="0 0 68 68" fill="none" xmlns="http://www.w3.org/2000/svg">
<rect x="1" y="1" width="66" height="66" rx="13" fill="url(#paint0_linear_381_18100)"/>
<rect x="1" y="1" width="66" height="66" rx="13" stroke="white" stroke-width="2"/>
<path d="M43.4365 20.3369V23.4738H41.3452V20.3369H26.6365V23.4738H24.5452V20.3369H17.2V25.5651H50.7999V20.3369H43.4365Z" fill="white"/>
<path d="M17.2 50.0332H34.987C28.736 43.9434 33.1153 33.0753 41.9379 33.0938C45.8128 33.0938 49.1756 35.3322 50.7999 38.5848V27.6565H17.2V50.0332ZM31.5162 30.3054H36.4656V32.3967H31.5162V30.3054ZM21.6523 30.3054H26.6016V32.3967H21.6523V30.3054ZM21.6523 37.2763H26.6016V39.3676H21.6523V37.2763ZM21.6523 44.2473H26.6016V46.3386H21.6523V44.2473Z" fill="white"/>
<path d="M41.938 35.185C34.1741 35.25 31.2616 45.2637 37.637 49.5054C38.8708 50.3231 40.35 50.8 41.938 50.8C46.2521 50.8138 49.7608 47.2477 49.7454 42.9925C49.7454 38.6873 46.2432 35.185 41.938 35.185ZM44.6998 46.011C44.3422 46.6808 43.7483 47.1946 43.0359 47.4539V48.7087H40.9446C40.9446 48.4942 40.9446 47.7723 40.9446 47.571C40.4692 47.4866 40.0335 47.3075 39.4835 46.9478L38.6086 46.3755L39.7532 44.6251L40.6281 45.1981C41.1314 45.5271 41.2932 45.5522 41.9832 45.5481C42.6448 45.5438 42.9083 45.0246 42.9592 44.7185C43.0268 44.3205 42.8532 44.0458 42.4454 43.9015C41.5838 43.5969 40.7006 43.2477 40.0739 42.7562C38.5686 41.5816 39.2347 39.0575 40.9446 38.4007V37.2066H43.0359V38.2502C44.0064 38.4692 44.4931 38.8414 45.2373 39.2219L44.2453 41.063C43.618 40.7687 42.6956 40.0156 41.7644 40.3247C41.4351 40.4443 41.231 40.8866 41.3649 41.1103C41.7553 41.4164 42.4824 41.6966 43.1425 41.9294C44.8672 42.4998 45.5478 44.4687 44.6998 46.011Z" fill="white"/>
<path d="M41.3452 17.2H43.4365V20.337H41.3452V17.2Z" fill="white"/>
<path d="M24.5452 17.2H26.6364V20.337H24.5452V17.2Z" fill="white"/>
<defs>
<linearGradient id="paint0_linear_381_18100" x1="67" y1="-0.800001" x2="-2.2" y2="67.2" gradientUnits="userSpaceOnUse">
<stop stop-color="#289526"/>
<stop offset="1" stop-color="#196F17"/>
</linearGradient>
</defs>
</svg>
