<svg width="68" height="68" viewBox="0 0 68 68" fill="none" xmlns="http://www.w3.org/2000/svg">
<rect x="1" y="1" width="66" height="66" rx="13" stroke="white" stroke-width="2"/>
<rect x="2" y="2" width="64" height="64" rx="12" fill="url(#paint0_linear_168_680)"/>
<path d="M47.9852 45.348C50.2659 45.4722 52.3025 43.8904 52.6262 41.6695L55.2045 23.9786C55.5458 21.6376 53.8543 19.4731 51.4266 19.1441L42.9844 18L47.9852 45.348Z" fill="white"/>
<path fill-rule="evenodd" clip-rule="evenodd" d="M19.6458 53.0893C19.9672 53.1994 20.3126 53.2277 20.6487 53.1715C20.9932 53.1035 21.3127 52.9486 21.5747 52.7224L30.8933 44.917L43.0866 49.0843C43.4141 49.1991 43.7673 49.229 44.1105 49.1707C44.4537 49.1123 44.775 48.9678 45.042 48.7518C45.3074 48.537 45.5099 48.2591 45.6295 47.9454C45.749 47.6318 45.7813 47.2934 45.7232 46.9641L40.6653 19.3039C40.485 18.1687 39.848 17.1478 38.8925 16.4624C37.9368 15.7769 36.7396 15.4822 35.5602 15.6421L16.7891 18.8338C15.6242 19.0725 14.6037 19.7443 13.9489 20.7035C13.294 21.6627 13.0576 22.8322 13.2908 23.9584L18.3486 51.6186C18.4103 51.9525 18.5629 52.2648 18.7909 52.5231C19.0188 52.7816 19.3138 52.9769 19.6458 53.0893ZM22.8912 32.7033L22.8769 32.6909C22.2979 32.1719 21.3921 32.2018 20.8511 32.7586C20.3089 33.3167 20.3385 34.1931 20.9174 34.7161L21.8992 33.7054C20.9174 34.7161 20.9178 34.7165 20.9182 34.7168L20.9192 34.7176L20.9213 34.7195L20.9264 34.7241L20.9404 34.7365L20.9829 34.7735C21.0178 34.8033 21.0654 34.8434 21.1255 34.8919C21.2454 34.9889 21.4153 35.1206 21.6311 35.2729C22.0612 35.5767 22.6813 35.9687 23.4577 36.3342C25.0043 37.0625 27.2404 37.7166 29.8385 37.2749C32.4365 36.8331 34.3058 35.481 35.5008 34.2865C36.1007 33.6869 36.5444 33.1141 36.8408 32.6868C36.9895 32.4724 37.1024 32.2928 37.1808 32.162C37.22 32.0966 37.2506 32.0433 37.2726 32.0038L37.2996 31.9549L37.3084 31.9387L37.3115 31.9328L37.3134 31.9292C37.3136 31.9286 37.3139 31.9282 36.0328 31.3022L37.3139 31.9282C37.6724 31.2459 37.3894 30.4126 36.6819 30.0669C35.976 29.722 35.1142 29.993 34.7542 30.6717L34.7453 30.6878C34.7356 30.7052 34.7183 30.7354 34.6934 30.7769C34.6436 30.8601 34.5637 30.9877 34.4535 31.1468C34.2317 31.4662 33.8927 31.9048 33.4337 32.3634C32.511 33.2857 31.1584 34.238 29.3397 34.5472C27.521 34.8564 25.9122 34.4077 24.718 33.8454C24.124 33.5658 23.6499 33.2654 23.3282 33.0384C23.1681 32.9253 23.0478 32.8318 22.9715 32.77C22.9334 32.7392 22.9064 32.7164 22.8912 32.7033ZM36.0328 31.3022L34.7518 30.6763L34.7523 30.6754C34.752 30.6759 34.7518 30.6763 36.0328 31.3022ZM21.8992 33.7054L22.8769 32.6909L22.8783 32.6922L22.8795 32.6934L22.8803 32.694C22.8807 32.6944 22.8811 32.6947 21.8992 33.7054Z" fill="white"/>
<defs>
<linearGradient id="paint0_linear_168_680" x1="67" y1="-0.800001" x2="-2.2" y2="67.2" gradientUnits="userSpaceOnUse">
<stop stop-color="#595959"/>
<stop offset="1" stop-color="#252525"/>
</linearGradient>
</defs>
</svg>
