<svg width="68" height="68" viewBox="0 0 68 68" fill="none" xmlns="http://www.w3.org/2000/svg">
<path d="M54 1C61.1797 1 67 6.8203 67 14V54C67 61.1797 61.1797 67 54 67H14C6.8203 67 1 61.1797 1 54V14C1 6.8203 6.8203 1 14 1H54Z" stroke="white" stroke-width="2"/>
<rect x="2" y="2" width="64" height="64" rx="12" fill="url(#paint0_linear_168_3586)"/>
<path d="M25.6281 34.2031C25.1863 34.2031 24.8281 34.5613 24.8281 35.0031V42.6031C24.8281 42.8241 25.0072 43.0031 25.2281 43.0031H35.6281C35.849 43.0031 36.0281 42.8241 36.0281 42.6031V36.2031C36.0281 35.9822 35.849 35.8031 35.6281 35.8031H29.9481L29.7567 34.8462C29.682 34.4723 29.3536 34.2031 28.9723 34.2031H25.6281Z" fill="black"/>
<path opacity="0.8" d="M28.9033 16.6035C29.2439 16.6035 29.5749 16.7198 29.8408 16.9326L33.668 19.9941H56.4297C57.5343 19.9941 58.4297 20.8896 58.4297 21.9941V49.1055C58.4297 49.9339 57.7581 50.6055 56.9297 50.6055H12.4297C11.3251 50.6055 10.4297 49.71 10.4297 48.6055V18.1035C10.4297 17.2751 11.1013 16.6036 11.9297 16.6035H28.9033Z" fill="#99CCEF"/>
<path d="M28.3316 17.7285H11.9297C11.1013 17.7285 10.4297 18.4001 10.4297 19.2285V46.1579C10.4297 46.9864 11.1013 47.6579 11.9297 47.6579H52.9767C53.8052 47.6579 54.4767 46.9864 54.4767 46.1579V25.4282C54.4767 24.5998 53.8052 23.9282 52.9767 23.9282H36.36C35.989 23.9282 35.6311 23.7907 35.3555 23.5422L29.336 18.1145C29.0605 17.866 28.7026 17.7285 28.3316 17.7285Z" fill="#CCE6F7"/>
<path d="M10.4297 49.1016V25.1016C10.4297 24.8254 10.6535 24.6016 10.9297 24.6016H28.2369C28.361 24.6016 28.4806 24.5554 28.5726 24.4721L31.8457 21.5074C32.1216 21.2575 32.4805 21.1191 32.8527 21.1191H55.8003C56.6287 21.1191 57.3003 21.7907 57.3003 22.6191V49.1016C57.3003 49.93 56.6287 50.6016 55.8003 50.6016H11.9297C11.1013 50.6016 10.4297 49.93 10.4297 49.1016Z" fill="#E6F2FB"/>
<path d="M33.582 27.4023C35.2079 27.4023 36.7478 27.7706 38.1191 28.4248C38.3346 28.5243 38.5502 28.6341 38.7656 28.7549L37.8115 29.585L36.3799 28.1436L33.9619 30.2422L32.5264 28.7168L28.0234 32.668L30.9102 35.7646L29.7754 36.7363L32.6191 39.8379L31.4912 40.8066L35.5547 45.209L37.9668 43.0479L40.0518 45.3633C39.637 45.6771 39.1853 45.9731 38.6875 46.2461C37.1796 47.0831 35.4366 47.5625 33.582 47.5625C27.8785 47.5624 23.2266 43.0335 23.2266 37.4824C23.2266 31.9301 27.8785 27.4024 33.582 27.4023ZM42.8672 42.8135L41.0205 44.4326L39.3574 42.6357L41.2041 41.0166L42.8672 42.8135ZM38.126 41.2256L35.6641 43.3848L33.4463 40.9873L35.9082 38.8291L38.126 41.2256ZM41.2432 39.1836L39.3965 40.8018L37.7334 39.0039L39.5811 37.3848L41.2432 39.1836ZM36.375 37.084L33.9121 39.2422L31.6953 36.8447L34.1572 34.6865L36.375 37.084ZM44.0156 37.9932L42.7842 39.0723L41.6758 37.874L42.9072 36.7949L44.0156 37.9932ZM39.6631 35.3838L37.8174 37.0029L36.1543 35.2051L38.001 33.5869L39.6631 35.3838ZM42.4414 34.4326L41.2109 35.5117L40.1016 34.3135L41.333 33.2344L42.4414 34.4326ZM34.6123 32.9912L32.1494 35.1484L29.9326 32.752L32.3955 30.5938L34.6123 32.9912ZM37.9609 31.7695L36.1143 33.3887L34.4521 31.5898L36.2988 29.9717L37.9609 31.7695ZM40.8682 30.8721L39.6367 31.9502L38.5283 30.752L39.7598 29.6729L40.8682 30.8721Z" fill="#0068A3"/>
<defs>
<linearGradient id="paint0_linear_168_3586" x1="34" y1="2" x2="34" y2="66" gradientUnits="userSpaceOnUse">
<stop stop-color="#005895"/>
<stop offset="1" stop-color="#0080D8"/>
</linearGradient>
</defs>
</svg>
