<?xml version="1.0" encoding="UTF-8"?>
<svg width="512px" height="512px" viewBox="0 0 512 512" version="1.1" xmlns="http://www.w3.org/2000/svg" xmlns:xlink="http://www.w3.org/1999/xlink">
    <title>Untitled</title>
    <g id="Page-1" stroke="none" stroke-width="1" fill="none" fill-rule="evenodd">
        <g id="android" fill-rule="nonzero">
            <path d="M384,512 L128,512 C57.308833,512 0,454.691167 0,384 L0,128 C0,57.308833 57.308833,0 128,0 L384,0 C454.692448,0 512,57.307552 512,128 L512,384 C512,454.692448 454.692448,512 384,512" id="Path" fill="#A5C639"></path>
            <path d="M240,144 L384,144 C422.333291,143.99762 453.944279,113.963104 455.905982,75.6800401 C457.867685,37.3969766 429.492268,4.28863289 391.36,0.368 C388.912,0.232 386.488,0 384,0 L128,0 C57.308833,0 5.68434189e-14,57.308833 5.68434189e-14,128 L5.68434189e-14,384 C5.68434189e-14,251.452941 107.452941,144.003093 240,144" id="Path" fill="#BFE052"></path>
            <path d="M384,256 C313.307552,256 256,313.307552 256,384 C256,454.692448 313.307552,512 384,512 C454.692448,512 512,454.692448 512,384 L512,128 C512,198.692448 454.692448,256 384,256" id="Path" fill="#8FAE29"></path>
            <g id="Group" transform="translate(80.000000, 96.000000)" fill="#FFFFFF">
                <path d="M287.999999,160 L63.9999993,160 L63.9999993,272 C63.9999993,276.243854 65.6840267,280.314257 68.6848849,283.315115 C71.6857431,286.315973 75.7561458,288 79.9999993,288 L271.999999,288 C276.243854,288 280.314257,286.315973 283.315115,283.315115 C286.315973,280.314257 287.999999,276.243854 287.999999,272 L287.999999,160 Z" id="Path"></path>
                <path d="M48,184 C48,170.745166 37.254834,160 24,160 C10.745166,160 0,170.745166 0,184 L0,264 C0,277.254834 10.745166,288 24,288 C37.254834,288 48,277.254834 48,264 L48,184 Z" id="Path"></path>
                <path d="M352,184 C352,170.745166 341.254834,160 328,160 C314.745166,160 304,170.745166 304,184 L304,264 C304,277.254834 314.745166,288 328,288 C341.254834,288 352,277.254834 352,264 L352,184 Z" id="Path"></path>
                <path d="M63.9999522,144 L288,144 C287.977943,109.748405 272.305699,77.3844402 245.448,56.128 L270.928,12 C273.101522,8.17712028 271.781933,3.31663636 267.973554,1.11780374 C264.165176,-1.08102888 259.296046,0.206291091 257.072,4 L232.184,47.112 C197.434944,26.9684343 154.562791,26.9623302 119.808,47.096 L94.928,4 C92.7039538,0.206291091 87.8348237,-1.08102888 84.0264456,1.11780374 C80.2180675,3.31663636 78.8984777,8.17712028 81.072,12 L106.552,56.128 C79.6513323,77.3499393 63.9683455,109.736089 63.9999522,144 L63.9999522,144 Z M228,88 C234.627417,88 240,93.372583 240,100 C240,106.627417 234.627417,112 228,112 C221.372583,112 216,106.627417 216,100 C216.002208,93.3734977 221.373498,88.0022077 228,88 L228,88 Z M124,88 C130.627417,88 136,93.372583 136,100 C136,106.627417 130.627417,112 124,112 C117.372583,112 112,106.627417 112,100 C112.002208,93.3734977 117.373498,88.0022077 124,88 L124,88 Z" id="Shape"></path>
            </g>
        </g>
    </g>
</svg>