<?xml version="1.0" encoding="UTF-8"?>
<svg width="243px" height="292px" viewBox="0 0 243 292" version="1.1" xmlns="http://www.w3.org/2000/svg" xmlns:xlink="http://www.w3.org/1999/xlink">
    <title>Shape</title>
    <g id="Page-1" stroke="none" stroke-width="1" fill="none" fill-rule="evenodd">
        <g id="mac" transform="translate(-128.000000, -92.000000)" fill="#FFFFFF" fill-rule="nonzero">
            <path d="M312.5536,97.696 C312.359619,112.809008 306.681539,127.33684 296.576,138.576 C287.026833,151.241123 272.636674,159.359808 256.8584,160.984 C255.344558,161.015178 253.881894,160.435652 252.800214,159.376096 C251.718533,158.31654 251.108909,156.866163 251.1088,155.352 L251.0288,155.352 C251.54059,139.99407 257.556235,125.331874 267.9784,114.04 C273.761503,107.55232 280.781275,102.284091 288.6264,98.544 C294.266699,95.7043068 300.277979,93.6711033 306.484,92.504 C307.997928,92.273167 309.537225,92.7143086 310.699079,93.7119842 C311.860933,94.7096598 312.52971,96.1645755 312.5304,97.696 L312.5536,97.696 Z M368.9264,319.52 C364.665793,329.443556 359.402749,338.905992 353.2192,347.76 C347.399362,356.634831 340.613362,364.83695 332.9856,372.216 C326.051967,379.145078 316.778105,383.231284 306.9856,383.672 C298.686393,383.307526 290.533266,381.360616 282.9648,377.936 C274.795694,374.375315 266.013547,372.432783 257.1048,372.216 C247.955736,372.397416 238.927264,374.339462 230.5128,377.936 C223.243326,381.214656 215.477275,383.256077 207.5352,383.976 C197.436929,383.853051 187.828634,379.603896 180.9432,372.216 C172.981523,364.577936 165.884665,356.086819 159.7808,346.896 C150.242403,333.221359 142.706538,318.254153 137.4016,302.448 C131.349755,285.430616 128.172477,267.524632 128,249.464 C127.518933,231.746804 131.913742,214.237859 140.7048,198.848 C147.112618,187.738716 156.277025,178.469605 167.3128,171.936 C178.192916,165.425596 190.607146,161.922136 203.2856,161.784 C212.860474,162.351585 222.269179,164.542801 231.1096,168.264 C238.156438,171.366954 245.574219,173.547626 253.1792,174.752 C261.565448,173.004068 269.761289,170.442616 277.6504,167.104 C288.199133,162.818174 299.533471,160.806355 310.9128,161.2 C326.146326,161.934182 340.813303,167.202036 353.0328,176.328 C356.474096,179.197181 358.502049,183.417698 358.591825,187.897281 C358.681601,192.376863 356.824376,196.675243 353.5008,199.68 C340.277915,211.4716 332.985131,228.533831 333.6,246.24 C333.37799,263.914847 340.752556,280.834922 353.8512,292.704 C356.6878,295.407974 359.75221,297.862393 363.0104,300.04 C369.353954,304.264558 371.804471,312.398259 368.8504,319.424 C368.9432,319.48 368.9344,319.504 368.9264,319.52 L368.9264,319.52 Z" id="Shape"></path>
        </g>
    </g>
</svg>