<?xml version="1.0" encoding="UTF-8"?>
<svg width="512px" height="512px" viewBox="0 0 512 512" version="1.1" xmlns="http://www.w3.org/2000/svg" xmlns:xlink="http://www.w3.org/1999/xlink">
    <title>Untitled 3</title>
    <g id="Page-1" stroke="none" stroke-width="1" fill="none" fill-rule="evenodd">
        <g id="microsoft-(1)" fill-rule="nonzero">
            <path d="M384,512 L128,512 C57.308833,512 0,454.691167 0,384 L0,128 C0,57.308833 57.308833,0 128,0 L384,0 C454.692448,0 512,57.307552 512,128 L512,384 C512,454.692448 454.692448,512 384,512" id="Path" fill="#00B4FF"></path>
            <path d="M240,144 L384,144 C422.333291,143.99762 453.944279,113.963104 455.905982,75.6800401 C457.867685,37.3969766 429.492268,4.28863289 391.36,0.368 C388.912,0.232 386.488,0 384,0 L128,0 C57.308833,0 5.68434189e-14,57.308833 5.68434189e-14,128 L5.68434189e-14,384 C5.68434189e-14,251.452941 107.452941,144.003093 240,144" id="Path" fill="#1EC8FF"></path>
            <path d="M384,256 C313.307552,256 256,313.307552 256,384 C256,454.692448 313.307552,512 384,512 C454.692448,512 512,454.692448 512,384 L512,128 C512,198.692448 454.692448,256 384,256" id="Path" fill="#00A0F0"></path>
        </g>
        <g id="app-store" transform="translate(85.000000, 105.000000)" fill="#FFFFFF" fill-rule="nonzero">
            <g id="Group">
                <path d="M72.649,289.515 C68.024,297.526 59.603,302.009 50.956,302.01 C46.717,302.01 42.425,300.933 38.498,298.666 L38.498,298.666 C26.56,291.774 22.455,276.454 29.347,264.516 L34.264,256 L91.999,256 L72.649,289.515 Z" id="Path"></path>
                <path d="M25.5,236 C11.715,236 0.5,224.785 0.5,211 C0.5,197.215 11.715,186 25.5,186 L74.678,186 L142.132,69.166 L123.851,37.502 C116.959,25.564 121.063,10.244 133.001,3.351 L133.002,3.351 C144.94,-3.541 160.26,0.565 167.152,12.502 L171,19.167 L174.848,12.503 C181.743,0.564 197.063,-3.54 208.998,3.352 C214.781,6.691 218.918,12.082 220.646,18.532 C222.375,24.982 221.487,31.72 218.148,37.503 L132.413,186 L186.492,186 L215.36,236 L25.5,236 Z" id="Path"></path>
            </g>
            <g id="Group" transform="translate(171.000000, 0.000000)">
                <path d="M145.5,236 L125.189,236 L141.652,264.515 C148.545,276.452 144.44,291.772 132.503,298.665 C128.65,300.889 124.374,302.026 120.042,302.026 C117.87,302.026 115.686,301.741 113.531,301.163 C107.08,299.434 101.689,295.297 98.35,289.513 L11.546,139.165 L40.413,89.165 L96.322,186 L145.5,186 C159.285,186 170.5,197.215 170.5,211 C170.5,224.785 159.285,236 145.5,236 Z" id="Path"></path>
                <polygon id="Path" points="0 186 0 236 44.36 236 15.493 186"></polygon>
                <path d="M49.646,18.531 C47.917,12.081 43.781,6.689 37.998,3.351 C26.062,-3.541 10.742,0.562 3.848,12.502 L0,19.166 L0,19.166 L0,119.166 L47.148,37.502 C50.487,31.719 51.375,24.982 49.646,18.531 Z" id="Path"></path>
            </g>
        </g>
    </g>
</svg>