<?xml version="1.0" encoding="UTF-8"?>
<svg width="512px" height="512px" viewBox="0 0 512 512" version="1.1" xmlns="http://www.w3.org/2000/svg" xmlns:xlink="http://www.w3.org/1999/xlink">
    <title>blackberry 2</title>
    <g id="Page-1" stroke="none" stroke-width="1" fill="none" fill-rule="evenodd">
        <g id="myspace">
            <path d="M384,512 L128,512 C57.308833,512 0,454.691167 0,384 L0,128 C0,57.308833 57.308833,0 128,0 L384,0 C454.692448,0 512,57.307552 512,128 L512,384 C512,454.692448 454.692448,512 384,512" id="Path" fill="#2D2D2D"></path>
            <path d="M240,144 L384,144 C422.333291,143.99762 453.944279,113.963104 455.905982,75.6800401 C457.867685,37.3969766 429.492268,4.28863289 391.36,0.368 C388.912,0.232 386.488,0 384,0 L128,0 C57.308833,0 5.68434189e-14,57.308833 5.68434189e-14,128 L5.68434189e-14,384 C5.68434189e-14,251.452941 107.452941,144.003093 240,144" id="Path" fill="#464646"></path>
            <path d="M384,256 C313.307552,256 256,313.307552 256,384 C256,454.692448 313.307552,512 384,512 C454.692448,512 512,454.692448 512,384 L512,128 C512,198.692448 454.692448,256 384,256" id="Path" fill="#141414"></path>
            <g id="blackberry" transform="translate(79.000000, 134.000000)" fill="#FFFFFF" fill-rule="nonzero">
                <path d="M76.7040359,0 L32.309417,0 L11,66 L76.7040359,66 C95.0834081,66 110,51.216 110,33 C110,14.784 95.0834081,0 76.7040359,0 Z" id="Path"></path>
                <path d="M209.704036,0 L165.309417,0 L144,66 L209.704036,66 C228.083408,66 243,51.216 243,33 C243,14.784 228.083408,0 209.704036,0 Z" id="Path"></path>
                <path d="M187.704036,89 L143.309417,89 L122,155 L187.704036,155 C206.083408,155 221,140.216 221,122 C221,103.784 206.083408,89 187.704036,89 Z" id="Path"></path>
                <path d="M320.704036,44 L276.309417,44 L255,110 L320.704036,110 C339.083408,110 354,95.216 354,77 C354,58.784 339.083408,44 320.704036,44 Z" id="Path"></path>
                <path d="M299.704036,145 L255.309417,145 L234,211 L299.704036,211 C318.083408,211 333,196.216 333,178 C333,159.784 318.083408,145 299.704036,145 Z" id="Path"></path>
                <path d="M165.704036,178 L121.309417,178 L100,244 L165.704036,244 C184.083408,244 199,229.216 199,211 C199,192.784 184.083408,178 165.704036,178 Z" id="Path"></path>
                <path d="M65.7040359,89 L21.309417,89 L0,155 L65.7040359,155 C84.0834081,155 99,140.216 99,122 C99,103.784 84.0834081,89 65.7040359,89 Z" id="Path"></path>
            </g>
        </g>
    </g>
</svg>