<?xml version="1.0" encoding="UTF-8"?>
<svg width="135px" height="40px" viewBox="0 0 135 40" version="1.1" xmlns="http://www.w3.org/2000/svg" xmlns:xlink="http://www.w3.org/1999/xlink">
    <title>btn-microsoft-ru-white</title>
    <g id="Page-1" stroke="none" stroke-width="1" fill="none" fill-rule="evenodd">
        <g id="Artboard" transform="translate(-327.000000, -245.000000)" fill-rule="nonzero">
            <g id="btn-microsoft-ru-white" transform="translate(327.000000, 245.000000)">
                <rect id="Rectangle-path" stroke="#909090" fill="#FFFFFF" x="0.5" y="0.5" width="134" height="39"></rect>
                <g id="Layer_1" transform="translate(12.000000, 8.000000)">
                    <path d="M43.4993103,12.2139175 C43.4993103,11.8917526 43.616,11.6340206 43.8493793,11.4149485 C44.0827586,11.1958763 44.3550345,11.0927835 44.6662069,11.0927835 C45.0033103,11.0927835 45.2885517,11.2087629 45.5089655,11.4149485 C45.7293793,11.6340206 45.846069,11.8917526 45.846069,12.2010309 C45.846069,12.5103093 45.7293793,12.7680412 45.5089655,12.9871134 C45.2755862,13.193299 45.0033103,13.3092784 44.6791724,13.3092784 C44.3550345,13.3092784 44.0697931,13.2061856 43.8493793,12.9871134 C43.616,12.7809278 43.4993103,12.5231959 43.4993103,12.2139175 L43.4993103,12.2139175 Z M45.6126897,22.6778351 L43.6937931,22.6778351 L43.6937931,14.5592784 L45.6126897,14.5592784 L45.6126897,22.6778351 Z" id="Shape" fill="#000000"></path>
                    <path d="M51.4471724,21.2860825 C51.7324138,21.2860825 52.0435862,21.2216495 52.3936552,21.0927835 C52.7307586,20.9639175 53.0548966,20.7835052 53.3531034,20.5773196 L53.3531034,22.3556701 C53.041931,22.5360825 52.6918621,22.6649485 52.3028966,22.7551546 C51.913931,22.8453608 51.486069,22.8840206 51.0193103,22.8840206 C49.8135172,22.8840206 48.8411034,22.5103093 48.0891034,21.75 C47.3371034,20.9896907 46.9611034,20.0231959 46.9611034,18.8505155 C46.9611034,17.5489691 47.350069,16.4664948 48.1150345,15.6159794 C48.88,14.7654639 49.9691034,14.3530928 51.3823448,14.3530928 C51.7453793,14.3530928 52.1084138,14.4046392 52.4714483,14.4948454 C52.8344828,14.5850515 53.1326897,14.6881443 53.3531034,14.8170103 L53.3531034,16.6469072 C53.0548966,16.4278351 52.7566897,16.2603093 52.4455172,16.1443299 C52.1343448,16.0283505 51.8231724,15.9639175 51.4990345,15.9639175 C50.7470345,15.9639175 50.1246897,16.2087629 49.657931,16.6984536 C49.1911724,17.1881443 48.9577931,17.8453608 48.9577931,18.6829897 C48.9577931,19.507732 49.1782069,20.1391753 49.632,20.6030928 C50.0728276,21.0670103 50.6822069,21.2860825 51.4471724,21.2860825" id="Shape" fill="#000000"></path>
                    <path d="M58.8245517,14.4304124 C58.9801379,14.4304124 59.1097931,14.443299 59.2394483,14.4561856 C59.3561379,14.4819588 59.4598621,14.507732 59.5506207,14.5335052 L59.5506207,16.4664948 C59.4468966,16.3891753 59.3042759,16.3247423 59.1097931,16.2603093 C58.9153103,16.1958763 58.681931,16.1572165 58.4096552,16.1572165 C57.9428966,16.1572165 57.5409655,16.3505155 57.2168276,16.75 C56.8926897,17.1494845 56.7241379,17.7551546 56.7241379,18.5798969 L56.7241379,22.6778351 L54.8052414,22.6778351 L54.8052414,14.5592784 L56.7241379,14.5592784 L56.7241379,15.8350515 L56.750069,15.8350515 C56.9315862,15.3969072 57.1908966,15.0489691 57.5409655,14.7912371 C57.904,14.5463918 58.3318621,14.4304124 58.8245517,14.4304124" id="Shape" fill="#000000"></path>
                    <path d="M59.6543448,18.7345361 C59.6543448,17.3943299 60.0303448,16.3247423 60.7953103,15.5386598 C61.5602759,14.7525773 62.6234483,14.3659794 63.9718621,14.3659794 C65.2424828,14.3659794 66.2408276,14.7396907 66.9668966,15.5 C67.68,16.2603093 68.0430345,17.2783505 68.0430345,18.5670103 C68.0430345,19.8814433 67.6670345,20.9381443 66.902069,21.7113402 C66.1371034,22.4974227 65.0998621,22.8840206 63.7903448,22.8840206 C62.5197241,22.8840206 61.5213793,22.5103093 60.7693793,21.7757732 C60.0303448,21.0283505 59.6543448,20.0231959 59.6543448,18.7345361 M61.664,18.6701031 C61.664,19.5206186 61.8584828,20.1649485 62.2474483,20.6159794 C62.6364138,21.0670103 63.193931,21.2860825 63.9070345,21.2860825 C64.6071724,21.2860825 65.1387586,21.0670103 65.5017931,20.6159794 C65.8648276,20.1649485 66.0463448,19.507732 66.0463448,18.6314433 C66.0463448,17.7551546 65.8518621,17.0979381 65.4758621,16.6469072 C65.0998621,16.1958763 64.5682759,15.9768041 63.8811034,15.9768041 C63.1809655,15.9768041 62.6364138,16.2087629 62.2344828,16.6726804 C61.8584828,17.1494845 61.664,17.806701 61.664,18.6701031" id="Shape" fill="#000000"></path>
                    <path d="M70.9084138,16.6984536 C70.9084138,16.9690722 70.9991724,17.1881443 71.1677241,17.3427835 C71.3362759,17.4974227 71.7252414,17.6907216 72.3346207,17.935567 C73.0995862,18.2448454 73.6441379,18.5798969 73.9553103,18.9664948 C74.2664828,19.3530928 74.422069,19.8170103 74.422069,20.3582474 C74.422069,21.1185567 74.1238621,21.7371134 73.5404138,22.2010309 C72.944,22.6649485 72.1531034,22.8969072 71.1417931,22.8969072 C70.8046897,22.8969072 70.4286897,22.8582474 70.0137931,22.7680412 C69.5988966,22.6907216 69.2488276,22.5876289 68.9635862,22.4587629 L68.9635862,20.5773196 C69.3136552,20.8221649 69.6896552,21.0154639 70.0915862,21.1572165 C70.4935172,21.2989691 70.8565517,21.3762887 71.1936552,21.3762887 C71.6344828,21.3762887 71.9456552,21.3118557 72.1531034,21.1958763 C72.3605517,21.0798969 72.4642759,20.8737113 72.4642759,20.5902062 C72.4642759,20.3324742 72.3605517,20.1005155 72.1401379,19.9201031 C71.9197241,19.7396907 71.5177931,19.5335052 70.9213793,19.2886598 C70.2082759,18.992268 69.7026207,18.6572165 69.4173793,18.2963918 C69.1191724,17.9226804 68.9765517,17.4587629 68.9765517,16.8917526 C68.9765517,16.1572165 69.2747586,15.564433 69.8582069,15.0876289 C70.4416552,14.6108247 71.2066207,14.378866 72.1401379,14.378866 C72.4253793,14.378866 72.7495172,14.4046392 73.0995862,14.4690722 C73.4496552,14.5335052 73.7478621,14.6108247 73.9942069,14.7139175 L73.9942069,16.5309278 C73.7348966,16.3634021 73.4366897,16.2216495 73.0995862,16.0927835 C72.7624828,15.9768041 72.4253793,15.9123711 72.0882759,15.9123711 C71.7252414,15.9123711 71.44,15.9896907 71.2325517,16.1314433 C71.0121379,16.2474227 70.9084138,16.4407216 70.9084138,16.6984536" id="Shape" fill="#000000"></path>
                    <path d="M75.2648276,18.7345361 C75.2648276,17.3943299 75.6408276,16.3247423 76.4057931,15.5386598 C77.1707586,14.7525773 78.233931,14.3659794 79.5823448,14.3659794 C80.8529655,14.3659794 81.8513103,14.7396907 82.5773793,15.5 C83.2904828,16.2603093 83.6535172,17.2783505 83.6535172,18.5670103 C83.6535172,19.8814433 83.2775172,20.9381443 82.5125517,21.7113402 C81.7475862,22.4974227 80.7103448,22.8840206 79.4008276,22.8840206 C78.1302069,22.8840206 77.1318621,22.5103093 76.3798621,21.7757732 C75.6278621,21.0283505 75.2648276,20.0231959 75.2648276,18.7345361 M77.2615172,18.6701031 C77.2615172,19.5206186 77.456,20.1649485 77.8449655,20.6159794 C78.233931,21.0670103 78.7914483,21.2860825 79.5045517,21.2860825 C80.2046897,21.2860825 80.7362759,21.0670103 81.0993103,20.6159794 C81.4623448,20.1649485 81.6438621,19.507732 81.6438621,18.6314433 C81.6438621,17.7551546 81.4493793,17.0979381 81.0733793,16.6469072 C80.6973793,16.1958763 80.1657931,15.9768041 79.4786207,15.9768041 C78.7784828,15.9768041 78.2209655,16.2087629 77.832,16.6726804 C77.456,17.1494845 77.2615172,17.806701 77.2615172,18.6701031" id="Shape" fill="#000000"></path>
                    <path d="M90.0195862,16.1185567 L90.0195862,20.2938144 C90.0195862,21.1572165 90.2270345,21.8015464 90.6289655,22.2396907 C91.0308966,22.6649485 91.6402759,22.8840206 92.4571034,22.8840206 C92.7293793,22.8840206 93.0146207,22.8582474 93.2998621,22.7938144 C93.5851034,22.742268 93.7795862,22.6778351 93.9092414,22.6005155 L93.9092414,21.0154639 C93.7925517,21.0927835 93.649931,21.1572165 93.4943448,21.2087629 C93.3387586,21.2603093 93.2091034,21.2860825 93.0924138,21.2860825 C92.7034483,21.2860825 92.4182069,21.1829897 92.2366897,20.9768041 C92.0551724,20.7706186 91.9644138,20.4226804 91.9644138,19.9201031 L91.9644138,16.1185567 L93.9092414,16.1185567 L93.9092414,14.5592784 L91.9644138,14.5592784 L91.9644138,12.1494845 L90.0325517,12.7293814 L90.0325517,14.5592784 L87.1671724,14.5592784 L87.1671724,13.5798969 C87.1671724,13.0902062 87.2708966,12.7164948 87.4913103,12.4716495 C87.7117241,12.2268041 88.0228966,12.0979381 88.4248276,12.0979381 C88.6322759,12.0979381 88.8137931,12.1237113 88.9693793,12.1752577 C89.1249655,12.2268041 89.2416552,12.2783505 89.3064828,12.3041237 L89.3064828,10.6546392 C89.1638621,10.6030928 89.0082759,10.5773196 88.8267586,10.5515464 C88.6452414,10.5257732 88.4377931,10.5128866 88.2044138,10.5128866 C87.3357241,10.5128866 86.6096552,10.7835052 86.0521379,11.3247423 C85.4946207,11.8659794 85.2093793,12.5747423 85.2093793,13.4252577 L85.2093793,14.5592784 L83.848,14.5592784 L83.848,16.1185567 L85.2093793,16.1185567 L85.2093793,22.6778351 L87.1542069,22.6778351 L87.1542069,16.1185567 L90.0195862,16.1185567 Z" id="Shape" fill="#000000"></path>
                    <polygon id="Shape" fill="#000000" points="41.8397241 11.3505155 41.8397241 22.6778351 39.8689655 22.6778351 39.8689655 13.7989691 39.830069 13.7989691 36.2904828 22.6778351 34.9809655 22.6778351 31.3506207 13.7989691 31.3376552 13.7989691 31.3376552 22.6778351 29.4965517 22.6778351 29.4965517 11.3505155 32.336 11.3505155 35.6162759 19.7525773 35.6681379 19.7525773 39.129931 11.3505155"></polygon>
                    <rect id="Rectangle-path" fill="#F25022" x="0.0259310345" y="0.13917526" width="10.7743448" height="10.7087629"></rect>
                    <rect id="Rectangle-path" fill="#7FBA00" x="11.9282759" y="0.13917526" width="10.7743448" height="10.7087629"></rect>
                    <rect id="Rectangle-path" fill="#00A4EF" x="0.0259310345" y="11.9690722" width="10.7743448" height="10.7087629"></rect>
                    <rect id="Rectangle-path" fill="#FFB900" x="11.9282759" y="11.9690722" width="10.7743448" height="10.7087629"></rect>
                    <path d="M29.6437135,3.58161276 C29.6437135,3.99838565 29.696888,4.37513664 29.8032386,4.71187705 C29.9095892,5.04861746 30.0592375,5.33476701 30.2521879,5.5703343 C30.4451382,5.80590158 30.6775868,5.98785947 30.9495405,6.11621344 C31.2214942,6.24456741 31.5215504,6.30874343 31.8497179,6.30874343 C32.1353453,6.30874343 32.3913426,6.25740261 32.6177174,6.15471944 C32.8440923,6.05203627 33.0393187,5.91688911 33.2034025,5.74927393 C33.3674863,5.58165875 33.4996629,5.39215074 33.5999364,5.1807442 C33.7002098,4.96933767 33.7670577,4.75491425 33.8004822,4.53746753 L34.6664757,4.53746753 C34.6482442,4.73075351 34.6064642,4.92781164 34.5411345,5.12864785 C34.4758049,5.32948406 34.3876871,5.52427716 34.2767786,5.71303299 C34.1658701,5.90178883 34.0329339,6.07997166 33.8779658,6.24758685 C33.7229978,6.41520203 33.5444834,6.56091935 33.3424172,6.68474317 C33.1403511,6.808567 32.9147392,6.90671856 32.665575,6.9792008 C32.4164107,7.05168305 32.1444611,7.08792362 31.8497179,7.08792362 C31.6461325,7.08792362 31.428117,7.06678329 31.195665,7.02450198 C30.9632129,6.98222067 30.7322836,6.91124954 30.5028702,6.81158646 C30.2734567,6.71192338 30.0531623,6.57828625 29.8419804,6.41067107 C29.6307985,6.24305589 29.4446877,6.03240754 29.2836425,5.7787197 C29.1225973,5.52503185 28.9934592,5.22529208 28.8962244,4.87949139 C28.7989895,4.5336907 28.7503728,4.1312693 28.7503728,3.67221511 C28.7503728,3.2222212 28.7936721,2.82055481 28.8802719,2.46720389 C28.9668716,2.11385296 29.0853748,1.80505305 29.235785,1.54079488 C29.3861951,1.27653671 29.5624306,1.05229814 29.7644968,0.86807245 C29.9665629,0.68384675 30.1830592,0.53435437 30.4139919,0.41959083 C30.6449247,0.30482728 30.8849696,0.22177596 31.1341339,0.17043437 C31.3832981,0.11909278 31.6309394,0.09342237 31.8770651,0.09342237 C32.180924,0.09342237 32.4581911,0.12437787 32.7088746,0.18628978 C32.9595582,0.24820169 33.1844104,0.33276304 33.383438,0.43997635 C33.5824656,0.54718967 33.7564222,0.67176665 33.905313,0.81371104 C34.0542039,0.95565543 34.1795438,1.10590282 34.2813365,1.26445772 C34.3831292,1.42301262 34.4621313,1.5853402 34.5183452,1.75144534 C34.5745591,1.91755047 34.6087427,2.07912304 34.6208971,2.2361679 L33.7457879,2.2361679 C33.6880547,2.02174127 33.6029755,1.82996822 33.4905477,1.66084299 C33.3781199,1.49171776 33.2421451,1.34902049 33.0826192,1.2327469 C32.9230933,1.1164733 32.7438192,1.02738188 32.5447917,0.96546997 C32.3457641,0.90355806 32.1323064,0.87260256 31.9044123,0.87260256 C31.5610517,0.87260256 31.2503607,0.93602357 30.9723298,1.06286749 C30.6942989,1.18971142 30.4565329,1.3709143 30.2590246,1.60648158 C30.0615164,1.84204886 29.9095892,2.12668839 29.8032386,2.46040871 C29.696888,2.79412903 29.6437135,3.16785997 29.6437135,3.58161276 Z M35.7421308,2.06855355 L36.5807771,2.06855355 L36.5807771,4.41515436 L39.0465796,2.06855355 L40.145024,2.06855355 L37.8524202,4.21129908 L40.1814869,6.92030928 L39.1012739,6.92030928 L37.1960883,4.71867223 L36.5807771,5.23057549 L36.5807771,6.92030928 L35.7421308,6.92030928 L35.7421308,2.06855355 Z M40.8469345,3.52272124 C40.8560502,3.22675209 40.9122633,2.97684311 41.0155753,2.77298681 C41.1188873,2.56913051 41.2586603,2.40378288 41.4348985,2.27693895 C41.6111366,2.15009503 41.8200365,2.05873858 42.0616043,2.00286685 C42.3031721,1.94699513 42.5667657,1.91905968 42.8523931,1.91905968 C43.089403,1.91905968 43.3195727,1.94322007 43.5429089,1.99154156 C43.7662452,2.03986305 43.9645102,2.11762929 44.1377097,2.2248426 C44.3109093,2.33205592 44.4499226,2.47097813 44.554754,2.6416134 C44.6595853,2.81224868 44.7120001,3.01987698 44.7120001,3.26450455 L44.7120001,6.08676768 C44.7120001,6.16529011 44.7332699,6.23248618 44.7758102,6.2883579 C44.8183504,6.34422963 44.8867177,6.37216507 44.9809139,6.37216507 C45.0234542,6.37216507 45.067513,6.36839001 45.1130919,6.36083978 C45.1586707,6.35328955 45.2057681,6.34498442 45.2543855,6.33592414 L45.2543855,6.91124904 C45.184498,6.9293696 45.1153711,6.94597987 45.0470029,6.96108033 C44.9786346,6.9761808 44.8973536,6.98373092 44.8031574,6.98373092 C44.6573051,6.98373092 44.5319652,6.97165073 44.4271339,6.94748998 C44.3223025,6.92332924 44.2341848,6.8833136 44.162778,6.82744187 C44.0913711,6.77157014 44.0359177,6.69908899 43.9964161,6.60999624 C43.9569144,6.52090348 43.9310868,6.41142674 43.9189324,6.28156273 C43.8156204,6.39330618 43.7062328,6.49674283 43.5907665,6.59187577 C43.4753001,6.68700871 43.346162,6.77006003 43.2033483,6.84103222 C43.0605347,6.91200442 42.9010111,6.96787531 42.724773,7.00864657 C42.5485348,7.04941783 42.3495102,7.06980315 42.1276933,7.06980315 C41.9393008,7.06980315 41.7562285,7.03960267 41.5784711,6.9792008 C41.4007136,6.91879894 41.2411901,6.82970752 41.0998957,6.71192388 C40.9586014,6.59414024 40.8454156,6.44842292 40.7603351,6.27476755 C40.6752546,6.10111218 40.632715,5.89952397 40.632715,5.66999688 C40.632715,5.41932913 40.6752546,5.20264068 40.7603351,5.01992503 C40.8454156,4.83720939 40.9563224,4.68469696 41.0930589,4.56238318 C41.2297954,4.4400694 41.3862804,4.34569289 41.5625186,4.27925084 C41.7387567,4.21280879 41.9180308,4.16901809 42.1003461,4.14787744 L43.4722621,3.98026309 C43.6029214,3.96516263 43.7054723,3.91457682 43.7799177,3.82850416 C43.8543631,3.7424315 43.8915853,3.6042643 43.8915853,3.41399842 C43.8915853,3.12104936 43.7951115,2.91040101 43.6021611,2.78204704 C43.4092107,2.65369308 43.1319437,2.58951705 42.7703516,2.58951705 C42.3996438,2.58951705 42.1231363,2.66728329 41.940821,2.8228181 C41.7585057,2.97835291 41.6551952,3.21165162 41.6308865,3.52272124 L40.8469345,3.52272124 Z M43.8733538,4.4513953 C43.8065049,4.4997168 43.7237046,4.53973243 43.6249504,4.57144341 C43.5261963,4.60315439 43.4175684,4.62957981 43.2990634,4.65072047 C43.1805584,4.67186112 43.0544589,4.69073642 42.920761,4.70734693 C42.7870631,4.72395745 42.6533672,4.74132272 42.5196693,4.75944328 C42.3677398,4.78058394 42.2279668,4.81078442 42.1003461,4.85004563 C41.9727254,4.88930685 41.8618185,4.94064766 41.7676223,5.00406962 C41.673426,5.06749158 41.600501,5.1437478 41.548845,5.23284055 C41.497189,5.32193331 41.4713614,5.42687998 41.4713614,5.54768371 C41.4713614,5.686608 41.4933908,5.80891995 41.5374503,5.91462322 C41.5815099,6.02032649 41.6422807,6.1094179 41.7197648,6.18190014 C41.7972488,6.25438238 41.890684,6.30874325 42.0000732,6.34498437 C42.1094624,6.38122549 42.2294848,6.39934578 42.3601441,6.39934578 C42.442186,6.39934578 42.5363809,6.38953062 42.6427315,6.36990002 C42.7490821,6.35026941 42.8584697,6.32082394 42.9708974,6.28156273 C43.0833252,6.24230151 43.1934724,6.19171571 43.3013423,6.12980379 C43.4092122,6.06789188 43.505686,5.99314569 43.5907665,5.90556298 C43.675847,5.81798028 43.7442142,5.71831869 43.7958702,5.60657524 C43.8475262,5.49483178 43.8733538,5.36949979 43.8733538,5.23057549 L43.8733538,4.4513953 Z M48.9872732,4.96329857 C48.8049579,5.01162006 48.6051737,5.05239071 48.3879146,5.08561174 C48.1706555,5.11883276 47.9678327,5.13544303 47.7794402,5.13544303 C47.1261436,5.13544303 46.641496,5.01086604 46.3254827,4.76170834 C46.0094695,4.51255064 45.8514653,4.11918938 45.8514653,3.58161276 L45.8514653,2.06855355 L46.6901116,2.06855355 L46.6901116,3.41399842 C46.6901116,3.59520402 46.712141,3.75224652 46.7562006,3.88513063 C46.8002601,4.01801474 46.8724255,4.12749148 46.9726989,4.21356414 C47.0729724,4.2996368 47.205149,4.36381282 47.3692328,4.40609413 C47.5333166,4.44837543 47.7353797,4.46951577 47.9754282,4.46951577 C48.0392386,4.46951577 48.1159618,4.46347567 48.2056002,4.4513953 C48.2952385,4.43931493 48.3871545,4.42421469 48.4813507,4.40609413 C48.575547,4.38797357 48.6674629,4.36758824 48.7571013,4.34493754 C48.8467397,4.32228684 48.9234629,4.29888147 48.9872732,4.27472072 L48.9872732,2.06855355 L49.8304774,2.06855355 L49.8304774,6.92030928 L48.9872732,6.92030928 L48.9872732,4.96329857 Z M51.0610998,3.52272124 C51.0702155,3.22675209 51.1264286,2.97684311 51.2297406,2.77298681 C51.3330526,2.56913051 51.4728256,2.40378288 51.6490637,2.27693895 C51.8253019,2.15009503 52.0342018,2.05873858 52.2757696,2.00286685 C52.5173374,1.94699513 52.780931,1.91905968 53.0665584,1.91905968 C53.3035683,1.91905968 53.5337379,1.94322007 53.7570742,1.99154156 C53.9804105,2.03986305 54.1786754,2.11762929 54.351875,2.2248426 C54.5250746,2.33205592 54.6640879,2.47097813 54.7689192,2.6416134 C54.8737505,2.81224868 54.9261654,3.01987698 54.9261654,3.26450455 L54.9261654,6.08676768 C54.9261654,6.16529011 54.9474352,6.23248618 54.9899755,6.2883579 C55.0325157,6.34422963 55.1008829,6.37216507 55.1950792,6.37216507 C55.2376194,6.37216507 55.2816783,6.36839001 55.3272571,6.36083978 C55.372836,6.35328955 55.4199334,6.34498442 55.4685508,6.33592414 L55.4685508,6.91124904 C55.3986633,6.9293696 55.3295364,6.94597987 55.2611682,6.96108033 C55.1927999,6.9761808 55.1115189,6.98373092 55.0173226,6.98373092 C54.8714704,6.98373092 54.7461305,6.97165073 54.6412991,6.94748998 C54.5364678,6.92332924 54.4483501,6.8833136 54.3769432,6.82744187 C54.3055364,6.77157014 54.250083,6.69908899 54.2105813,6.60999624 C54.1710797,6.52090348 54.1452521,6.41142674 54.1330977,6.28156273 C54.0297857,6.39330618 53.9203981,6.49674283 53.8049317,6.59187577 C53.6894654,6.68700871 53.5603273,6.77006003 53.4175136,6.84103222 C53.2746999,6.91200442 53.1151764,6.96787531 52.9389383,7.00864657 C52.7627001,7.04941783 52.5636755,7.06980315 52.3418585,7.06980315 C52.153466,7.06980315 51.9703938,7.03960267 51.7926364,6.9792008 C51.6148789,6.91879894 51.4553554,6.82970752 51.314061,6.71192388 C51.1727666,6.59414024 51.0595809,6.44842292 50.9745004,6.27476755 C50.8894199,6.10111218 50.8468803,5.89952397 50.8468803,5.66999688 C50.8468803,5.41932913 50.8894199,5.20264068 50.9745004,5.01992503 C51.0595809,4.83720939 51.1704877,4.68469696 51.3072242,4.56238318 C51.4439607,4.4400694 51.6004457,4.34569289 51.7766838,4.27925084 C51.952922,4.21280879 52.132196,4.16901809 52.3145114,4.14787744 L53.6864274,3.98026309 C53.8170867,3.96516263 53.9196375,3.91457682 53.994083,3.82850416 C54.0685284,3.7424315 54.1057505,3.6042643 54.1057505,3.41399842 C54.1057505,3.12104936 54.0092768,2.91040101 53.8163264,2.78204704 C53.623376,2.65369308 53.3461089,2.58951705 52.9845169,2.58951705 C52.613809,2.58951705 52.3373016,2.66728329 52.1549863,2.8228181 C51.9726709,2.97835291 51.8693605,3.21165162 51.8450517,3.52272124 L51.0610998,3.52272124 Z M54.0875191,4.4513953 C54.0206701,4.4997168 53.9378698,4.53973243 53.8391157,4.57144341 C53.7403616,4.60315439 53.6317336,4.62957981 53.5132287,4.65072047 C53.3947237,4.67186112 53.2686242,4.69073642 53.1349263,4.70734693 C53.0012283,4.72395745 52.8675324,4.74132272 52.7338345,4.75944328 C52.5819051,4.78058394 52.4421321,4.81078442 52.3145114,4.85004563 C52.1868906,4.88930685 52.0759838,4.94064766 51.9817876,5.00406962 C51.8875913,5.06749158 51.8146663,5.1437478 51.7630103,5.23284055 C51.7113543,5.32193331 51.6855266,5.42687998 51.6855266,5.54768371 C51.6855266,5.686608 51.7075561,5.80891995 51.7516156,5.91462322 C51.7956751,6.02032649 51.856446,6.1094179 51.93393,6.18190014 C52.011414,6.25438238 52.1048492,6.30874325 52.2142384,6.34498437 C52.3236276,6.38122549 52.4436501,6.39934578 52.5743094,6.39934578 C52.6563513,6.39934578 52.7505462,6.38953062 52.8568968,6.36990002 C52.9632474,6.35026941 53.0726349,6.32082394 53.1850627,6.28156273 C53.2974905,6.24230151 53.4076377,6.19171571 53.5155076,6.12980379 C53.6233775,6.06789188 53.7198513,5.99314569 53.8049317,5.90556298 C53.8900122,5.81798028 53.9583795,5.71831869 54.0100355,5.60657524 C54.0616915,5.49483178 54.0875191,5.36949979 54.0875191,5.23057549 L54.0875191,4.4513953 Z M57.5606088,2.79337234 L55.8787583,2.79337234 L55.8787583,2.06855355 L60.0811056,2.06855355 L60.0811056,2.79337234 L58.3992551,2.79337234 L58.3992551,6.92030928 L57.5606088,6.92030928 L57.5606088,2.79337234 Z M60.9288676,2.06855355 L61.767514,2.06855355 L61.767514,3.89419086 L63.1211985,3.89419086 C63.3885943,3.89419086 63.62712,3.92967643 63.8367826,4.00064862 C64.0464452,4.07162082 64.2242,4.17279243 64.3700523,4.30416649 C64.5159045,4.43554055 64.627571,4.59409307 64.705055,4.77982881 C64.782539,4.96556455 64.8212805,5.17470288 64.8212805,5.40725007 C64.8212805,5.64281735 64.782539,5.8534657 64.705055,6.03920145 C64.627571,6.22493719 64.5159045,6.38348971 64.3700523,6.51486377 C64.2242,6.64623783 64.0464452,6.74665443 63.8367826,6.81611658 C63.62712,6.88557873 63.3885943,6.92030928 63.1211985,6.92030928 L60.9288676,6.92030928 L60.9288676,2.06855355 Z M61.767514,6.25438202 L62.9571155,6.25438202 C63.1029678,6.25438202 63.2389426,6.23928178 63.365044,6.20908085 C63.4911455,6.17887991 63.5997734,6.12980413 63.6909311,6.06185203 C63.7820887,5.99389993 63.8534945,5.90631854 63.9051505,5.79910522 C63.9568065,5.69189191 63.9826341,5.56127483 63.9826341,5.40725007 C63.9826341,5.2562454 63.9560469,5.12789336 63.9028716,5.02219009 C63.8496963,4.91648682 63.775252,4.82966044 63.6795364,4.76170834 C63.5838209,4.69375624 63.4683562,4.64392545 63.333139,4.61221447 C63.1979218,4.58050349 63.0467543,4.56464824 62.8796319,4.56464824 L61.767514,4.56464824 L61.767514,6.25438202 Z M67.6745011,2.06855355 L68.5951889,2.06855355 L69.8941791,6.01881592 L69.9124106,6.01881592 L71.2114008,2.06855355 L72.1320886,2.06855355 L70.2679237,7.11510433 C70.1737274,7.36879217 70.087129,7.58925568 70.0081257,7.77650146 C69.9291223,7.96374725 69.8516395,8.1230548 69.7756748,8.2544288 C69.69971,8.3858029 69.6229868,8.4922596 69.5455028,8.5738021 C69.4680188,8.6553446 69.3829396,8.7195207 69.2902626,8.7663321 C69.1975857,8.8131436 69.0942752,8.8448541 68.9803281,8.8614646 C68.866381,8.8780751 68.734964,8.8863802 68.5860732,8.8863802 C68.4645296,8.8863802 68.3695752,8.8810951 68.3012069,8.8705248 C68.2328387,8.8599545 68.1728274,8.8471193 68.1211714,8.8320188 L68.1211714,8.0800193 C68.175866,8.0981399 68.2472718,8.1162602 68.3353909,8.1343807 C68.4235099,8.1525013 68.5161855,8.1615614 68.6134204,8.1615614 C68.7683884,8.1615614 68.8937283,8.1245659 68.9894438,8.0505736 C69.0851594,7.97658128 69.1588441,7.87163461 69.2105001,7.73573041 L69.4839717,7.05168268 L67.6745011,2.06855355 Z" id="Скачать-у" fill="#000000"></path>
                </g>
            </g>
        </g>
    </g>
</svg>