<?xml version="1.0" encoding="UTF-8"?>
<svg width="135px" height="40px" viewBox="0 0 135 40" version="1.1" xmlns="http://www.w3.org/2000/svg" xmlns:xlink="http://www.w3.org/1999/xlink">
    <title>btn-appgallery-en-white</title>
    <g id="Page-1" stroke="none" stroke-width="1" fill="none" fill-rule="evenodd">
        <g id="Artboard" transform="translate(-473.000000, -192.000000)">
            <g id="btn-appgallery-en-white" transform="translate(473.000000, 192.000000)">
                <g id="btn-microsoft-en-copy-4" fill="#FFFFFF" fill-rule="nonzero" stroke="#909090">
                    <rect id="Rectangle-path" x="0.5" y="0.5" width="134" height="39" rx="6"></rect>
                </g>
                <g id="APP_GALLERY_BTN-Copy-2" transform="translate(8.000000, 7.000000)">
                    <path d="M42.1093,20.3402 L37.36,20.3402 L36.2071,23.51 L34.12,23.51 L38.7613,11.6678 L40.7323,11.6678 L45.4843,23.51 L43.3,23.51 L42.1093,20.3402 Z M37.9648,18.7202 L41.5018,18.7202 L40.2355,15.329 C40.0627,14.8619 39.8899,14.3435 39.7225,13.7765 C39.5686,14.2787 39.4012,14.789 39.223,15.3128 L37.9648,18.7202 Z" id="Shape" fill="#000000" fill-rule="nonzero"></path>
                    <path d="M46.324,16.8491 C46.324,16.1957 46.3024,15.4757 46.2592,14.6891 L48.1492,14.6891 C48.2202088,15.059341 48.2688966,15.4335159 48.295,15.8096 C48.9642151,15.0075712 49.9505328,14.538084 50.995,14.5244 C52.2328822,14.50484 53.3592054,15.237217 53.8435,16.3766 C54.175645,17.1423554 54.3333513,17.9723883 54.3052,18.8066 C54.3257442,19.7161798 54.141178,20.6187086 53.7652,21.4472 C53.4506691,22.1348077 52.9371484,22.7122834 52.291,23.105 C51.6261795,23.4891724 50.8689911,23.6843048 50.1013,23.6693 C49.4972048,23.668938 48.8974959,23.5667045 48.3274,23.3669 L48.3274,27.02 L46.3078,27.1928 L46.324,16.8491 Z M51.6322,21.35 C52.0426,20.7965 52.2505,20 52.2505,18.92 C52.2505,17.9336 52.0795,17.2136 51.7375,16.76 C51.4238365,16.3303893 50.9192551,16.0821352 50.3875,16.0958 C50.010194,16.0907651 49.6380477,16.1838017 49.3075,16.3658 C48.9563721,16.5647024 48.6369436,16.8149668 48.3598,17.1083 L48.3598,21.8333 C48.5835508,21.938799 48.8192723,22.0167684 49.0618,22.0655 C49.3226558,22.1219477 49.5887085,22.1509058 49.8556,22.1519 C50.5436531,22.193109 51.2079587,21.8932629 51.6322,21.35 L51.6322,21.35 Z" id="Shape" fill="#000000" fill-rule="nonzero"></path>
                    <path d="M55.5337,16.8491 C55.5337,16.1957 55.5121,15.4757 55.4689,14.6891 L57.3589,14.6891 C57.4321365,15.0590688 57.4817369,15.4333263 57.5074,15.8096 C58.2922,14.9528 59.1922,14.5244 60.2074,14.5244 C61.4452822,14.50484 62.5716054,15.237217 63.0559,16.3766 C63.388045,17.1423554 63.5457513,17.9723883 63.5176,18.8066 C63.542381,19.7151487 63.362438,20.6176321 62.9911,21.4472 C62.6758484,22.1351818 62.1613497,22.7126995 61.5142,23.105 C60.849537,23.4895576 60.0922393,23.6847181 59.3245,23.6693 C58.7204048,23.668938 58.1206959,23.5667045 57.5506,23.3669 L57.5506,27.02 L55.531,27.1928 L55.5337,16.8491 Z M60.85,21.35 C61.2604,20.7956 61.4656,19.9856 61.4656,18.92 C61.4656,17.9336 61.2955,17.2136 60.9553,16.76 C60.6416365,16.3303893 60.1370551,16.0821352 59.6053,16.0958 C59.2280515,16.0912575 58.8560287,16.1842632 58.5253,16.3658 C58.1741721,16.5647024 57.8547436,16.8149668 57.5776,17.1083 L57.5776,21.8333 C57.8016668,21.938006 58.0372915,22.0159434 58.2796,22.0655 C58.5404558,22.1219477 58.8065085,22.1509058 59.0734,22.1519 C59.7612792,22.1921665 60.4251669,21.892509 60.85,21.35 L60.85,21.35 Z" id="Shape" fill="#000000" fill-rule="nonzero"></path>
                    <path d="M67.2301,22.9511 C66.3672712,22.4779085 65.6664877,21.7564307 65.2186,20.8802 C64.7290535,19.8901044 64.4881053,18.7956437 64.5166,17.6915 C64.4815863,16.5101812 64.7611254,15.3407757 65.3266,14.303 C65.8372121,13.4024244 66.6041202,12.6740496 67.5298,12.2105 C68.5026455,11.7351675 69.5737522,11.4956021 70.6564,11.5112 C71.3129437,11.5083555 71.9674457,11.5845025 72.6058,11.738 C73.2028205,11.8785723 73.7823755,12.0850388 74.3338,12.3536 L73.8208,13.9061 C72.865721,13.424332 71.8149605,13.1623338 70.7455,13.1393 C69.9905983,13.1267219 69.2456706,13.3129539 68.5855,13.6793 C67.9590987,14.0388759 67.4556849,14.5789871 67.141,15.2291 C66.779081,16.0001683 66.6033608,16.8454749 66.628,17.6969 C66.6145503,18.4640176 66.748368,19.2265948 67.0222,19.9433 C67.2708094,20.5776898 67.7080891,21.1205197 68.275,21.4985 C68.9208627,21.9026179 69.673768,22.1021379 70.435,22.0709 C70.8294755,22.0699371 71.2232033,22.0365244 71.6122,21.971 C71.9886125,21.9111681 72.3584098,21.8153282 72.7165,21.6848 L72.7165,19.2899 L69.9679,19.2899 L69.9679,17.7212 L74.6686,17.7212 L74.6686,22.7 C73.9866115,23.0178215 73.2723992,23.2613236 72.5383,23.4263 C71.8103807,23.5939904 71.0658844,23.6791274 70.3189,23.6801 C69.2438299,23.7059125 68.1801798,23.4548762 67.2301,22.9511 L67.2301,22.9511 Z" id="Path" fill="#000000" fill-rule="nonzero"></path>
                    <path d="M81.8425,23.51 C81.7661267,23.1244233 81.7191914,22.733596 81.7021,22.3409 C81.3648137,22.7333316 80.9526833,23.0545914 80.4898,23.2859 C79.9672146,23.5506003 79.3880255,23.6840454 78.8023,23.6747 C78.3230179,23.6807388 77.8485786,23.578282 77.4145,23.375 C77.0015808,23.1813448 76.6563614,22.8681076 76.4236,22.4759 C76.165661,22.0313919 76.0375115,21.523471 76.0537,21.0098 C76.0230212,20.2198528 76.366144,19.4615814 76.9798,18.9632 C77.5954,18.4538 78.6223,18.1991 80.0605,18.1991 C80.5962147,18.1988613 81.1312668,18.2367571 81.6616,18.3125 L81.6616,18.1397 C81.6616,17.3621 81.496,16.8131 81.1648,16.4927 C80.7688752,16.1519979 80.2550004,15.9803831 79.7338,16.0148 C79.266964,16.0204815 78.8026291,16.0839648 78.3514,16.2038 C77.9043669,16.3115872 77.4686033,16.4616635 77.05,16.652 L76.7314,15.1832 C77.1892749,14.9877848 77.6648578,14.8367918 78.1516,14.7323 C78.7637902,14.5938715 79.3896576,14.5250351 80.0173,14.5271 C80.6823086,14.5089249 81.3439681,14.6274723 81.9613,14.8754 C82.5042686,15.1154716 82.9464018,15.5375512 83.2114,16.0688 C83.5427552,16.7801335 83.6974391,17.5609632 83.6623,18.3449 L83.6623,21.8549 C83.6623,22.2149 83.6839,22.7675 83.7271,23.5127 L81.8425,23.51 Z M80.6329,21.89 C81.0220912,21.7091438 81.3716922,21.4531368 81.6616,21.1367 L81.6616,19.5167 C81.2134394,19.4637196 80.7628362,19.4339797 80.3116,19.4276 C79.4764,19.4276 78.8995,19.5626 78.5809,19.8326 C78.2642289,20.1001297 78.0880301,20.4983192 78.103,20.9126 C78.0734198,21.2700655 78.2005089,21.6227621 78.4513,21.8792 C78.7144947,22.1011474 79.0525426,22.214152 79.3963,22.1951 C79.8263178,22.1886039 80.2492097,22.084266 80.6329,21.89 Z" id="Shape" fill="#000000" fill-rule="nonzero"></path>
                    <path d="M85.2229,21.3932 L85.2229,10.9712 L87.2317,10.8092 L87.2317,21.0341 C87.2061945,21.3134625 87.2735778,21.5934351 87.4234,21.8306 C87.5797552,21.9987171 87.8048749,22.0853783 88.0336,22.0655 C88.2167268,22.057566 88.3981388,22.0267259 88.5736,21.9737 L88.8112,23.4209 C88.5851182,23.5062493 88.3507499,23.5677823 88.1119,23.6045 C87.8541581,23.6492044 87.5931823,23.6726831 87.3316,23.6747 C85.9258,23.6747 85.2229,22.9142 85.2229,21.3932 Z" id="Path" fill="#000000" fill-rule="nonzero"></path>
                    <path d="M90.2476,21.3932 L90.2476,10.9712 L92.2591,10.8092 L92.2591,21.0341 C92.2335945,21.3134625 92.3009778,21.5934351 92.4508,21.8306 C92.6071552,21.9987171 92.8322749,22.0853783 93.061,22.0655 C93.2441268,22.057566 93.4255388,22.0267259 93.601,21.9737 L93.8359,23.4209 C93.610754,23.506275 93.377278,23.5678113 93.1393,23.6045 C92.880666,23.6493275 92.6187832,23.6728066 92.3563,23.6747 C90.9523,23.6747 90.2494,22.9142 90.2476,21.3932 Z" id="Path" fill="#000000" fill-rule="nonzero"></path>
                    <path d="M102.0979,19.3574 L96.328,19.3574 C96.4198,21.206 97.3,22.1303 98.9686,22.1303 C99.3968498,22.1280875 99.8234703,22.0773641 100.2403,21.9791 C100.666042,21.8800279 101.082476,21.7445287 101.485,21.5741 L101.9278,22.9565 C100.888267,23.4464051 99.7504577,23.6920686 98.6014,23.6747 C97.7782111,23.6984575 96.9624854,23.512643 96.2308,23.1347 C95.5968673,22.7921336 95.0881906,22.2569831 94.7782,21.6065 C94.435482,20.8529091 94.269262,20.0310438 94.2922,19.2035 C94.2698129,18.3363364 94.4462178,17.4755542 94.8079,16.6871 C95.1162986,16.0179957 95.614948,15.4545501 96.2416,15.0671 C96.8838653,14.6888031 97.6185493,14.4962524 98.3638,14.5109 C99.1034595,14.4847526 99.832912,14.6895277 100.4509,15.0968 C101.0082,15.4836201 101.439979,16.0252209 101.6929,16.6547 C101.970986,17.3403721 102.108703,18.0748612 102.0979,18.8147 L102.0979,19.3574 Z M100.1296,18.0749 C100.133453,17.5016497 99.9431218,16.9439794 99.5896,16.4927 C99.2662633,16.1383821 98.8025309,15.9455722 98.3233,15.9662 C97.8393593,15.9562231 97.3740196,16.1525689 97.0435,16.5062 C96.6627936,16.9497573 96.4296979,17.5008823 96.3766,18.083 L100.1296,18.0749 Z" id="Shape" fill="#000000" fill-rule="nonzero"></path>
                    <path d="M103.6261,16.9058 C103.6261,16.4225 103.6018,15.6827 103.5586,14.6918 L105.4486,14.6918 C105.481,14.9375 105.5107,15.2318 105.5431,15.5693 C105.5755,15.9068 105.5917,16.1876 105.6025,16.4009 C105.805817,16.0567678 106.036991,15.729874 106.2937,15.4235 C106.516598,15.1616528 106.785654,14.9429308 107.0875,14.7782 C107.404846,14.6068997 107.761034,14.5204101 108.1216,14.5271 C108.395042,14.5204243 108.667974,14.554086 108.9316,14.627 L108.6778,16.3766 C108.038227,16.1914599 107.349951,16.2897852 106.7878,16.6466 C106.346457,16.9809231 105.962529,17.3849146 105.6511,17.8427 L105.6511,23.5127 L103.6423,23.5127 L103.6261,16.9058 Z" id="Path" fill="#000000" fill-rule="nonzero"></path>
                    <path d="M110.0548,27.1199 C109.808566,27.0800729 109.565752,27.0214005 109.3285,26.9444 L109.6957,25.4729 C109.865588,25.5186185 110.037716,25.5555673 110.2114,25.5836 C110.405733,25.6181171 110.602631,25.6361811 110.8,25.6376 C111.7,25.6376 112.3696,25.0625 112.8088,23.9123 L112.9411,23.5856 L109.7011,14.6918 L111.8611,14.6918 L113.4973,19.6625 C113.70879,20.3018806 113.880124,20.9538507 114.0103,21.6146 C114.1642,20.9774 114.3424,20.3402 114.5503,19.703 L116.2108,14.6918 L118.2439,14.6918 L115.0039,23.6261 C114.759358,24.3457411 114.426518,25.0322797 114.013,25.67 C113.697642,26.1516963 113.267024,26.5470483 112.7602,26.8202 C112.216979,27.0854491 111.617584,27.2151482 111.0133,27.1982 C110.69213,27.2000542 110.371411,27.1738546 110.0548,27.1199 L110.0548,27.1199 Z" id="Path" fill="#000000" fill-rule="nonzero"></path>
                    <polygon id="Path" fill="#000000" fill-rule="nonzero" points="34.12 0.3926 37.711 0.3926 37.6111 1.262 35.1811 1.262 35.1811 2.9441 37.4842 2.9441 37.4842 3.7541 35.1811 3.7541 35.1811 5.6171 37.7542 5.6171 37.6651 6.4946 34.12 6.4946"></polygon>
                    <polygon id="Path" fill="#000000" fill-rule="nonzero" points="40.1923 3.3842 38.3023 0.3926 39.5011 0.3926 40.7863 2.5904 42.1363 0.3926 43.3 0.3926 41.41 3.3464 43.4539 6.5 42.2389 6.5 40.7836 4.097 39.3013 6.5 38.1376 6.5"></polygon>
                    <path d="M44.2288,0.3926 L45.8758,0.3926 C46.648,0.3926 47.2402,0.5501 47.6524,0.8651 C48.0685466,1.19252458 48.29841,1.70266019 48.268,2.2313 C48.2794312,2.60333697 48.1858597,2.97107318 47.998,3.2924 C47.8146855,3.59447869 47.5472738,3.83655661 47.2285,3.989 C46.8743207,4.15643577 46.4861884,4.23960697 46.0945,4.232 C45.8225535,4.22815278 45.551487,4.20014258 45.2845,4.1483 L45.2845,6.5 L44.2288,6.5 L44.2288,0.3926 Z M46.8748,3.1196 C47.1079243,2.89572519 47.2312663,2.5809564 47.2123,2.2583 C47.24021,1.94801463 47.1116098,1.64423469 46.8694,1.4483 C46.5655212,1.26323759 46.2119244,1.1764885 45.8569,1.1999 L45.2845,1.1999 L45.2845,3.3599 C45.4851225,3.39604441 45.6882138,3.41680485 45.892,3.422 C46.2459927,3.44856686 46.5969733,3.34057283 46.8748,3.1196 L46.8748,3.1196 Z" id="Shape" fill="#000000" fill-rule="nonzero"></path>
                    <polygon id="Path" fill="#000000" fill-rule="nonzero" points="49.3102 0.3926 50.3632 0.3926 50.3632 5.5982 52.8904 5.5982 52.8013 6.5 49.3102 6.5"></polygon>
                    <path d="M54.4942,6.2003 C54.0516646,5.95129562 53.694198,5.57501491 53.4682,5.1203 C53.2226105,4.61629811 53.1013264,4.06079849 53.1145,3.5003 C53.1015855,2.91458432 53.2313135,2.33451514 53.4925,1.8101 C53.7319285,1.33739098 54.108304,0.94784237 54.5725,0.6923 C55.0921627,0.420129974 55.6737503,0.287993282 56.26,0.3089 C56.8143256,0.294021253 57.3628018,0.42532029 57.8503,0.6896 C58.2901438,0.93948333 58.6447711,1.31574563 58.8682,1.7696 C59.1089902,2.26834734 59.228342,2.81699558 59.2165,3.3707 C59.2311202,3.96294528 59.1004095,4.5497528 58.8358,5.0798 C58.5940699,5.55086649 58.2182753,5.93981394 57.7558,6.1976 C57.2452549,6.46920054 56.6734438,6.60494756 56.0953,6.5918 C55.5362883,6.6059375 54.9836129,6.47079765 54.4942,6.2003 L54.4942,6.2003 Z M57.2266,5.4524 C57.5242615,5.25516391 57.7556928,4.97293063 57.8908,4.6424 C58.0422915,4.26403181 58.1166473,3.85920593 58.1095,3.4517 C58.1162702,3.05166455 58.0504035,2.6537198 57.9151,2.2772 C57.7939355,1.9510766 57.5775837,1.66887867 57.2941,1.4672 C56.6237671,1.05702805 55.7801329,1.05702805 55.1098,1.4672 C54.8113156,1.67428541 54.5788382,1.96300725 54.4402,2.2988 C54.2865816,2.66157443 54.2102587,3.05238403 54.2161,3.4463 C54.2095927,3.85213113 54.2810875,4.25543556 54.4267,4.6343 C54.6921101,5.34565283 55.3883827,5.80254758 56.1466,5.7629 C56.5298882,5.77232853 56.9068442,5.6639537 57.2266,5.4524 L57.2266,5.4524 Z" id="Shape" fill="#000000" fill-rule="nonzero"></path>
                    <path d="M60.391,0.3926 L62.3026,0.3926 C62.8626471,0.352956662 63.4200322,0.500136699 63.8875,0.8111 C64.2515279,1.09689237 64.4531145,1.54239887 64.4275,2.0045 C64.4338321,2.30055739 64.367061,2.59360814 64.2331,2.8577 C64.1159369,3.08926757 63.9523388,3.29422471 63.7525,3.4598 C63.5738417,3.60405254 63.3733243,3.71889431 63.1585,3.8 L65.0485,6.5 L63.82,6.5 L62.2297,4.07 L61.4548,4.07 L61.4548,6.5 L60.391,6.5 L60.391,0.3926 Z M62.0461,3.2816 C62.2805969,3.28671761 62.5129302,3.23580791 62.7238,3.1331 C62.9137133,3.04189879 63.0738235,2.89864233 63.1855,2.72 C63.2969254,2.529319 63.3538935,2.31171941 63.3502,2.0909 C63.3722971,1.8320133 63.2627168,1.57936982 63.0586,1.4186 C62.8054573,1.26012615 62.5087979,1.18548891 62.2108,1.2053 L61.4467,1.2053 L61.4467,3.2924 L62.0461,3.2816 Z" id="Shape" fill="#000000" fill-rule="nonzero"></path>
                    <polygon id="Path" fill="#000000" fill-rule="nonzero" points="65.872 0.3926 69.4711 0.3926 69.3685 1.262 66.9385 1.262 66.9385 2.9441 69.22 2.9441 69.22 3.7541 66.9169 3.7541 66.9169 5.6171 69.49 5.6171 69.4009 6.4946 65.872 6.4946"></polygon>
                    <polygon id="Path" fill="#000000" fill-rule="nonzero" points="73.3861 0.3926 74.4391 0.3926 74.4391 6.5 73.3861 6.5"></polygon>
                    <polygon id="Path" fill="#000000" fill-rule="nonzero" points="77.2282 1.2728 75.3382 1.2728 75.43 0.3926 80.182 0.3926 80.0848 1.2728 78.2839 1.2728 78.2839 6.5 77.2282 6.5"></polygon>
                    <path d="M84.7585,6.2003 C84.3167582,5.95113522 83.9602036,5.57482429 83.7352,5.1203 C83.4873679,4.6169878 83.3650841,4.06115276 83.3788,3.5003 C83.3658855,2.91458432 83.4956135,2.33451514 83.7568,1.8101 C83.9969149,1.33787983 84.3731162,0.948511484 84.8368,0.6923 C85.3524603,0.418789689 85.9299884,0.28301013 86.5135,0.2981 C87.0678923,0.282581331 87.6165321,0.413919556 88.1038,0.6788 C88.5442714,0.927883588 88.8991065,1.3043665 89.1217,1.7588 C89.3634221,2.25731891 89.4837014,2.80597796 89.4727,3.3599 C89.4877053,3.95249113 89.3559992,4.53960325 89.0893,5.069 C88.848372,5.54063991 88.472376,5.92979577 88.0093,6.1868 C87.4990152,6.45908933 86.9270209,6.59487985 86.3488,6.581 C85.7944077,6.59651867 85.2457679,6.46518044 84.7585,6.2003 L84.7585,6.2003 Z M87.4936,5.4524 C87.7898108,5.25426401 88.020142,4.97222582 88.1551,4.6424 C88.3065915,4.26403181 88.3809473,3.85920593 88.3738,3.4517 C88.3805702,3.05166455 88.3147035,2.6537198 88.1794,2.2772 C88.0592579,1.95126865 87.8438174,1.66903221 87.5611,1.4672 C86.8899312,1.05654712 86.0452688,1.05654712 85.3741,1.4672 C85.0756156,1.67428541 84.8431382,1.96300725 84.7045,2.2988 C84.5521529,2.66196195 84.4758824,3.0525033 84.4804,3.4463 C84.4738927,3.85213113 84.5453875,4.25543556 84.691,4.6343 C84.8198367,4.96735615 85.0443667,5.25482972 85.3363,5.4605 C85.6559472,5.67147871 86.033571,5.77721337 86.4163,5.7629 C86.7985394,5.77074343 87.1741703,5.66247887 87.4936,5.4524 L87.4936,5.4524 Z" id="Shape" fill="#000000" fill-rule="nonzero"></path>
                    <path d="M90.658,0.3926 L91.8676,0.3926 L94.8889,5.1257 C94.8619,4.6748 94.8511,4.2617 94.8511,3.881 L94.8511,0.3926 L95.8285,0.3926 L95.8285,6.5 L94.6567,6.5 L91.5895,1.6913 C91.6192,2.2313 91.6354,2.72 91.6354,3.1439 L91.6354,6.5 L90.658,6.5 L90.658,0.3926 Z" id="Path" fill="#000000" fill-rule="nonzero"></path>
                    <g id="形状_1_拷贝_25" transform="translate(0.640000, 0.290000)" fill="#C8102E">
                        <path d="M18.63,0.135 L7.4223,0.135 C2.1384,0.135 0.2052,2.0682 0.2052,7.3521 L0.2052,18.5679 C0.2052,23.8518 2.1384,25.785 7.4223,25.785 L18.63,25.785 C23.9139,25.785 25.8498113,23.8518 25.8498113,18.5679 L25.8498113,7.3521 C25.8552,2.0682 23.922,0.135 18.63,0.135 Z" id="Path"></path>
                    </g>
                    <path d="M5.9239,13.25 L6.6043,13.25 L6.6043,16.6034 L5.9239,16.6034 L5.9239,15.2399 L4.3876,15.2399 L4.3876,16.6034 L3.7072,16.6034 L3.7072,13.25 L4.3876,13.25 L4.3876,14.6 L5.9239,14.6 L5.9239,13.25 Z M9.7579,15.1697 C9.7579,15.7097 9.4879,16.0067 8.9965,16.0067 C8.5051,16.0067 8.2297,15.707 8.2297,15.1454 L8.2297,13.2554 L7.5493,13.2554 L7.5493,15.1724 C7.5493,16.1147 8.0731,16.6547 8.9857,16.6547 C9.8983,16.6547 10.4383,16.1147 10.4383,15.1427 L10.4383,13.2527 L9.7579,13.2527 L9.7579,15.1697 Z M17.6203,15.5558 L16.8589,13.25 L16.3,13.25 L15.5386,15.5558 L14.8015,13.25 L14.0779,13.25 L15.247,16.6034 L15.8113,16.6034 L16.5727,14.4002 L17.3341,16.6034 L17.9038,16.6034 L19.0702,13.25 L18.3628,13.25 L17.6203,15.5558 Z M20.2879,15.1589 L21.5272,15.1589 L21.5272,14.5487 L20.2879,14.5487 L20.2879,13.8629 L22.0861,13.8629 L22.0861,13.25 L19.6183,13.25 L19.6183,16.598 L22.1509,16.598 L22.1509,15.9878 L20.2879,15.9878 L20.2879,15.1589 Z M22.9609,16.598 L23.6332,16.598 L23.6332,13.25 L22.9609,13.25 L22.9609,16.598 Z M11.7829,15.9041 L11.4778,16.6007 L10.7839,16.6007 L12.25,13.25 L12.8494,13.25 L14.3209,16.6007 L13.6081,16.6007 L13.33,15.9068 L11.7829,15.9041 Z M12.0367,15.2993 L13.06,15.2993 L12.5416,14.0978 L12.0367,15.2993 Z" id="Shape" fill="#FFFFFF" fill-rule="nonzero"></path>
                    <path d="M13.6702,8.9813 C11.3132793,8.97981063 9.40298937,7.06952072 9.4015,4.7126 L10.0036,4.7126 C10.0036002,6.73760714 11.6451929,8.37919969 13.6702,8.37919969 C15.6952071,8.37919969 17.3367998,6.73760714 17.3368,4.7126 L17.9389,4.7126 C17.9374106,7.06952072 16.0271207,8.97981063 13.6702,8.9813 Z" id="Path" fill="#FFFFFF" fill-rule="nonzero"></path>
                </g>
            </g>
        </g>
    </g>
</svg>