<svg xmlns="http://www.w3.org/2000/svg" width="156" height="40" viewBox="0 0 156 40">
    <g fill="none" fill-rule="evenodd">
        <g>
            <g>
                <g fill="#FFF" fill-rule="nonzero" stroke="#909090" transform="translate(-198 -538) translate(198 538)">
                    <rect width="155" height="39" x=".5" y=".5" rx="4"/>
                </g>
                <g>
                    <path fill="#000" fill-rule="nonzero" d="M42.11 20.34h-4.75l-1.153 3.17H34.12l4.641-11.842h1.971l4.752 11.842H43.3l-1.19-3.17zm-4.145-1.62h3.537l-1.267-3.391c-.172-.467-.345-.986-.513-1.553-.153.503-.32 1.013-.499 1.537l-1.258 3.407zM46.324 16.85c0-.654-.022-1.374-.065-2.16h1.89c.071.37.12.744.146 1.12.67-.802 1.656-1.272 2.7-1.286 1.238-.02 2.364.713 2.849 1.853.332.765.49 1.595.461 2.43.02.91-.164 1.812-.54 2.64-.314.688-.828 1.265-1.474 1.658-.665.384-1.422.58-2.19.564-.604 0-1.204-.102-1.774-.302v3.653l-2.02.173.017-10.344zm5.308 4.5c.41-.553.619-1.35.619-2.43 0-.986-.171-1.706-.514-2.16-.313-.43-.818-.678-1.35-.664-.377-.005-.749.088-1.08.27-.35.199-.67.449-.947.742v4.725c.224.106.46.184.702.233.26.056.527.085.794.086.688.041 1.352-.259 1.776-.802zM55.534 16.85c0-.654-.022-1.374-.065-2.16h1.89c.073.37.123.743.148 1.12.785-.857 1.685-1.286 2.7-1.286 1.238-.02 2.365.713 2.849 1.853.332.765.49 1.595.462 2.43.024.908-.156 1.81-.527 2.64-.315.688-.83 1.266-1.477 1.658-.664.385-1.422.58-2.19.564-.604 0-1.203-.102-1.773-.302v3.653l-2.02.173.003-10.344zm5.316 4.5c.41-.554.616-1.364.616-2.43 0-.986-.17-1.706-.51-2.16-.314-.43-.819-.678-1.35-.664-.378-.005-.75.088-1.08.27-.352.199-.671.449-.948.742v4.725c.224.105.46.183.702.233.26.056.527.085.793.086.688.04 1.352-.26 1.777-.802zM67.23 22.951c-.863-.473-1.564-1.195-2.011-2.07-.49-.99-.73-2.085-.702-3.19-.035-1.18.244-2.35.81-3.388.51-.9 1.277-1.629 2.203-2.093.973-.475 2.044-.714 3.126-.699.657-.003 1.311.074 1.95.227.597.14 1.176.347 1.728.616l-.513 1.552c-.955-.482-2.006-.744-3.075-.767-.755-.012-1.5.174-2.16.54-.627.36-1.13.9-1.445 1.55-.362.771-.538 1.616-.513 2.468-.013.767.12 1.53.394 2.246.249.635.686 1.178 1.253 1.555.646.405 1.399.604 2.16.573.394-.001.788-.034 1.177-.1.377-.06.746-.156 1.105-.286V19.29h-2.75V17.72h4.702V22.7c-.682.318-1.397.561-2.13.726-.729.168-1.473.253-2.22.254-1.075.026-2.139-.225-3.089-.729zM81.843 23.51c-.077-.386-.124-.776-.14-1.17-.338.393-.75.715-1.213.946-.523.265-1.102.398-1.688.389-.479.006-.953-.097-1.388-.3-.412-.194-.758-.507-.99-.9-.258-.444-.386-.952-.37-1.465-.031-.79.312-1.548.926-2.047.615-.51 1.642-.764 3.08-.764.536 0 1.071.038 1.602.113v-.172c0-.778-.166-1.327-.497-1.647-.396-.341-.91-.513-1.431-.478-.467.005-.931.069-1.383.189-.447.108-.882.258-1.301.448l-.319-1.469c.458-.195.934-.346 1.42-.45.613-.14 1.239-.208 1.866-.206.665-.018 1.327.1 1.944.348.543.24.985.663 1.25 1.194.332.711.486 1.492.451 2.276v3.51c0 .36.022.912.065 1.658l-1.885-.003zm-1.21-1.62c.39-.18.739-.437 1.029-.753v-1.62c-.449-.053-.9-.083-1.35-.09-.836 0-1.412.136-1.731.406-.317.267-.493.665-.478 1.08-.03.357.098.71.348.966.263.222.602.335.945.316.43-.006.853-.11 1.237-.305zM85.223 21.393V10.971l2.009-.162v10.225c-.026.28.042.56.191.797.157.168.382.254.61.235.184-.008.365-.04.54-.092l.238 1.447c-.226.085-.46.147-.7.184-.257.044-.518.068-.78.07-1.405 0-2.108-.76-2.108-2.282zM90.248 21.393V10.971l2.011-.162v10.225c-.025.28.042.56.192.797.156.168.381.254.61.235.183-.008.365-.04.54-.092l.235 1.447c-.225.085-.459.147-.697.184-.258.044-.52.068-.783.07-1.404 0-2.107-.76-2.108-2.282zM102.098 19.357h-5.77c.092 1.849.972 2.773 2.64 2.773.429-.002.855-.053 1.272-.15.426-.1.842-.235 1.245-.406l.443 1.382c-1.04.49-2.178.736-3.327.719-.823.023-1.639-.162-2.37-.54-.634-.343-1.143-.878-1.453-1.529-.343-.753-.509-1.575-.486-2.403-.022-.867.154-1.727.516-2.516.308-.669.807-1.232 1.434-1.62.642-.378 1.377-.57 2.122-.556.74-.026 1.469.179 2.087.586.557.387.989.928 1.242 1.558.278.685.416 1.42.405 2.16v.542zm-1.968-1.282c.003-.573-.187-1.131-.54-1.582-.324-.355-.787-.547-1.267-.527-.484-.01-.949.187-1.28.54-.38.444-.613.995-.666 1.577l3.753-.008zM103.626 16.906c0-.483-.024-1.223-.067-2.214h1.89c.032.245.062.54.094.877.032.338.049.619.06.832.203-.344.434-.671.69-.977.224-.262.493-.481.794-.646.318-.171.674-.258 1.035-.25.273-.008.546.026.81.099l-.254 1.75c-.64-.186-1.328-.087-1.89.27-.442.334-.825.738-1.137 1.196v5.67h-2.009l-.016-6.607zM110.055 27.12c-.246-.04-.49-.099-.727-.176l.368-1.471c.17.046.342.083.515.11.195.035.392.053.589.055.9 0 1.57-.576 2.009-1.726l.132-.326-3.24-8.894h2.16l1.636 4.97c.212.64.383 1.292.513 1.953.154-.638.332-1.275.54-1.912l1.66-5.011h2.034l-3.24 8.934c-.245.72-.577 1.406-.991 2.044-.315.482-.746.877-1.253 1.15-.543.265-1.142.395-1.747.378-.32.002-.642-.024-.958-.078z" transform="translate(-198 -538) translate(198 538) translate(8 7)"/>
                    <g fill="#C8102E">
                        <path d="M18.63.135H7.422C2.138.135.205 2.068.205 7.352v11.216c0 5.284 1.933 7.217 7.217 7.217H18.63c5.284 0 7.22-1.933 7.22-7.217V7.352c.005-5.284-1.928-7.217-7.22-7.217z" transform="translate(-198 -538) translate(198 538) translate(8 7) translate(.64 .29)"/>
                    </g>
                    <path fill="#FFF" fill-rule="nonzero" d="M5.924 13.25h.68v3.353h-.68V15.24H4.388v1.363h-.68V13.25h.68v1.35h1.536v-1.35zm3.834 1.92c0 .54-.27.837-.761.837-.492 0-.767-.3-.767-.862v-1.89h-.68v1.917c0 .943.523 1.483 1.436 1.483.912 0 1.452-.54 1.452-1.512v-1.89h-.68v1.917zm7.862.386l-.761-2.306H16.3l-.761 2.306-.737-2.306h-.724l1.169 3.353h.564l.762-2.203.761 2.203h.57l1.166-3.353h-.707l-.743 2.306zm2.668-.397h1.24v-.61h-1.24v-.686h1.798v-.613h-2.468v3.348h2.533v-.61h-1.863v-.83zm2.673 1.439h.672V13.25h-.672v3.348zm-11.178-.694l-.305.697h-.694l1.466-3.351h.6l1.47 3.35h-.712l-.278-.693-1.547-.003zm.254-.605h1.023l-.518-1.201-.505 1.201zM13.67 8.981C11.313 8.98 9.403 7.07 9.402 4.713h.602c0 2.025 1.641 3.666 3.666 3.666s3.667-1.641 3.667-3.666h.602C17.937 7.07 16.027 8.98 13.67 8.98z" transform="translate(-198 -538) translate(198 538) translate(8 7)"/>
                </g>
                <path fill="#000" fill-rule="nonzero" d="M45.4 15.152c.432 0 .833-.073 1.204-.22.37-.147.69-.353.96-.62s.48-.583.632-.948c.152-.365.228-.77.228-1.212 0-.443-.076-.847-.228-1.212-.152-.365-.363-.677-.632-.936-.27-.259-.59-.46-.96-.604-.37-.144-.772-.216-1.204-.216-.432 0-.832.072-1.2.216-.368.144-.688.345-.96.604s-.484.57-.636.936c-.152.365-.228.77-.228 1.212 0 .443.076.847.228 1.212.152.365.364.681.636.948.272.267.592.473.96.62.368.147.768.22 1.2.22zm0-.912c-.299 0-.568-.055-.808-.164-.24-.11-.444-.257-.612-.444-.168-.187-.299-.408-.392-.664-.093-.256-.14-.528-.14-.816 0-.283.045-.55.136-.8.09-.25.221-.47.392-.656.17-.187.376-.335.616-.444.24-.11.51-.164.808-.164.299 0 .568.055.808.164.24.11.445.257.616.444.17.187.301.405.392.656.09.25.136.517.136.8 0 .288-.047.56-.14.816-.093.256-.224.477-.392.664-.168.187-.373.335-.616.444-.243.11-.51.164-.804.164zm6.216.76v-4.8h1.736v-.864h-4.48v.864h1.736V15h1.008zm3.464 0v-2.584c.39-.01.73.032 1.024.128.293.096.544.25.752.464.208.213.38.485.516.816.136.33.247.723.332 1.176H58.8c-.15-.87-.396-1.56-.74-2.072s-.801-.88-1.372-1.104l2.024-2.488h-1.096l-1.92 2.256c-.101-.01-.203-.02-.304-.028-.101-.008-.205-.012-.312-.012V9.336h-1V15h1zm5.624 0v-2.368h.832c.293 0 .568-.03.824-.092.256-.061.479-.159.668-.292.19-.133.339-.305.448-.516.11-.21.164-.463.164-.756s-.052-.543-.156-.748c-.104-.205-.248-.375-.432-.508s-.404-.23-.66-.292c-.256-.061-.533-.092-.832-.092h-1.856V15h1zm.76-3.176h-.76V10.16h.776c.165 0 .319.013.46.04.141.027.263.072.364.136.101.064.181.148.24.252.059.104.088.233.088.388 0 .15-.028.277-.084.384-.056.107-.136.195-.24.264-.104.07-.228.12-.372.152s-.301.048-.472.048zm5.872 3.328c.432 0 .833-.073 1.204-.22.37-.147.69-.353.96-.62s.48-.583.632-.948c.152-.365.228-.77.228-1.212 0-.443-.076-.847-.228-1.212-.152-.365-.363-.677-.632-.936-.27-.259-.59-.46-.96-.604-.37-.144-.772-.216-1.204-.216-.432 0-.832.072-1.2.216-.368.144-.688.345-.96.604s-.484.57-.636.936c-.152.365-.228.77-.228 1.212 0 .443.076.847.228 1.212.152.365.364.681.636.948.272.267.592.473.96.62.368.147.768.22 1.2.22zm0-.912c-.299 0-.568-.055-.808-.164-.24-.11-.444-.257-.612-.444-.168-.187-.299-.408-.392-.664-.093-.256-.14-.528-.14-.816 0-.283.045-.55.136-.8.09-.25.221-.47.392-.656.17-.187.376-.335.616-.444.24-.11.51-.164.808-.164.299 0 .568.055.808.164.24.11.445.257.616.444.17.187.301.405.392.656.09.25.136.517.136.8 0 .288-.047.56-.14.816-.093.256-.224.477-.392.664-.168.187-.373.335-.616.444-.243.11-.51.164-.804.164zm6.552-5.352c.187 0 .361-.024.524-.072.163-.048.31-.115.44-.2s.241-.183.332-.292c.09-.11.16-.225.208-.348l-.568-.296c-.075.176-.196.323-.364.44-.168.117-.359.176-.572.176-.208 0-.399-.059-.572-.176-.173-.117-.297-.264-.372-.44l-.568.296c.048.123.119.239.212.348.093.11.205.207.336.292.13.085.277.152.44.2.163.048.337.072.524.072zM72.608 15l2.744-4.24h.024c0 .71-.001 1.415-.004 2.116-.003.701-.004 1.41-.004 2.124h1V9.336H75.16l-2.736 4.216H72.4c0-.71.001-1.412.004-2.108l.003-1.049.001-1.059h-1V15h1.2zm7.232 0v-4.8h1.736v-.864h-4.48v.864h1.736V15h1.008zm6.256 0v-.864H83.28v-1.64h2.528v-.824H83.28V10.2h2.696v-.864h-3.672V15h3.792zm5 0c.293 0 .57-.032.828-.096.259-.064.485-.163.68-.296.195-.133.348-.301.46-.504.112-.203.168-.44.168-.712 0-.197-.03-.375-.092-.532-.061-.157-.147-.293-.256-.408-.11-.115-.239-.208-.388-.28-.15-.072-.31-.121-.48-.148v-.016c.288-.08.52-.227.696-.44.176-.213.264-.472.264-.776 0-.288-.057-.525-.172-.712-.115-.187-.261-.335-.44-.444-.179-.11-.38-.187-.604-.232-.224-.045-.445-.068-.664-.068h-1.992V15h1.992zm-.088-3.304h-.928v-1.544h.824c.325 0 .59.059.792.176.203.117.304.31.304.576 0 .144-.027.265-.08.364-.053.099-.125.18-.216.244-.09.064-.196.11-.316.14-.12.03-.247.044-.38.044zm-.024 2.48h-.904v-1.72h.952c.368 0 .659.065.872.196.213.13.32.348.32.652 0 .165-.036.304-.108.416-.072.112-.165.201-.28.268-.115.067-.247.115-.396.144-.15.03-.301.044-.456.044z" transform="translate(-198 -538) translate(198 538)"/>
            </g>
        </g>
    </g>
</svg>
