<?xml version="1.0" encoding="UTF-8"?>
<svg width="512px" height="512px" viewBox="0 0 512 512" version="1.1" xmlns="http://www.w3.org/2000/svg" xmlns:xlink="http://www.w3.org/1999/xlink">
    <title>Untitled 4</title>
    <g id="Page-1" stroke="none" stroke-width="1" fill="none" fill-rule="evenodd">
        <g id="google" fill-rule="nonzero">
            <g id="Group">
                <path d="M384,512 L128,512 C57.308833,512 0,454.691167 0,384 L0,128 C0,57.308833 57.308833,0 128,0 L384,0 C454.692448,0 512,57.307552 512,128 L512,384 C512,454.692448 454.692448,512 384,512" id="Path" fill="#DEEBF5"></path>
                <path d="M240,144 L384,144 C422.333291,143.99762 453.944279,113.963104 455.905982,75.6800401 C457.867685,37.3969766 429.492268,4.28863289 391.36,0.368 C388.912,0.232 386.488,2.49800181e-15 384,2.49800181e-15 L128,2.49800181e-15 C57.308833,2.49800181e-15 5.68459058e-14,57.308833 5.68459058e-14,128 L5.68459058e-14,384 C5.68459058e-14,251.452941 107.452941,144.003093 240,144" id="Path" fill="#F0FAFF"></path>
                <path d="M384,256 C313.307552,256 256,313.307552 256,384 C256,454.692448 313.307552,512 384,512 C454.692448,512 512,454.692448 512,384 L512,128 C512,198.692448 454.692448,256 384,256" id="Path" fill="#CDDCEB"></path>
            </g>
        </g>
        <g id="google-play" transform="translate(144.000000, 107.000000)" fill-rule="nonzero">
            <path d="M2.88,7.856 C4.20585591,5.87262862 5.9893589,4.23729358 8.08,3.088 C13.0417745,0.237519983 19.1527872,0.27418606 24.08,3.184 L191.44,101.592 C191.44,101.592 162.56,149.952 149.84,171.192 C148.508686,173.417195 146.184555,174.862327 143.6,175.072 C140.990605,175.278927 138.446853,174.186609 136.8,172.152 C108,136.824 2.88,7.856 2.88,7.856 Z" id="Path" fill="#00FF64"></path>
            <path d="M191.44,101.592 L248.56,135.208 C253.46528,138.06952 256.481567,143.321085 256.481567,149 C256.481567,154.678915 253.46528,159.93048 248.56,162.792 L191.44,196.408 L163.6,196.408 C152.38157,196.386371 142.277918,189.617221 137.990481,179.250373 C133.703044,168.883525 136.073963,156.955243 144,149.016 L191.44,101.592 Z" id="Path" fill="#FFC800"></path>
            <path d="M191.44,196.408 L24.08,294.816 C19.1527872,297.725814 13.0417745,297.76248 8.08,294.912 C5.9893589,293.762706 4.20585591,292.127371 2.88,290.144 C2.88,290.144 81.2,191.768 113.92,150.688 C117.503,146.187447 122.835151,143.428355 128.578582,143.102995 C134.322014,142.777636 139.931651,144.916888 144,148.984 L144,149 L191.44,196.408 Z" id="Path" fill="#FF003C"></path>
            <path d="M144,149 L2.88,290.144 C1.00731186,287.47135 0.00186547197,284.287436 0,281.024 L0,16.976 C0.00186547197,13.7125637 1.00731186,10.5286502 2.88,7.856 L144,149 Z" id="Path" fill="#00D2FF"></path>
        </g>
    </g>
</svg>