<?xml version="1.0" encoding="UTF-8"?>
<svg width="512px" height="512px" viewBox="0 0 512 512" version="1.1" xmlns="http://www.w3.org/2000/svg" xmlns:xlink="http://www.w3.org/1999/xlink">
    <title>Untitled</title>
    <g id="Page-1" stroke="none" stroke-width="1" fill="none" fill-rule="evenodd">
        <g id="microsoft" fill-rule="nonzero">
            <path d="M384,512 L128,512 C57.308833,512 0,454.691167 0,384 L0,128 C0,57.308833 57.308833,0 128,0 L384,0 C454.692448,0 512,57.307552 512,128 L512,384 C512,454.692448 454.692448,512 384,512" id="Path" fill="#7B2B8F"></path>
            <path d="M240,144 L384,144 C422.333291,143.99762 453.944279,113.963104 455.905982,75.6800401 C457.867685,37.3969766 429.492268,4.28863289 391.36,0.368 C388.912,0.232 386.488,0 384,0 L128,0 C57.308833,0 5.68434189e-14,57.308833 5.68434189e-14,128 L5.68434189e-14,384 C5.68434189e-14,251.452941 107.452941,144.003093 240,144" id="Path" fill="#933DA8"></path>
            <path d="M384,256 C313.307552,256 256,313.307552 256,384 C256,454.692448 313.307552,512 384,512 C454.692448,512 512,454.692448 512,384 L512,128 C512,198.692448 454.692448,256 384,256" id="Path" fill="#68217A"></path>
            <path d="M383.984,240 C383.984,244.418278 380.402278,248 375.984,248 L248,248 C243.581722,248 240,244.418278 240,240 L240,144.12 C240,140.238672 242.786219,136.917273 246.608,136.24 C269.8,132.152 347.536,118.432 374.608,113.656 C376.937513,113.244386 379.329754,113.884861 381.141986,115.405345 C382.954218,116.925829 384,119.170401 384,121.536 C383.992,147.024 383.984,216.384 383.984,240 Z M214.608,141.888 C216.937513,141.476386 219.329754,142.116861 221.141986,143.637345 C222.954218,145.157829 224,147.402401 224,149.768 L224,240 C224,244.418278 220.418278,248 216,248 L120.016,248 C115.597722,248 112.016,244.418278 112.016,240 C112.008,222.824 111.992,182.672 111.984,166.712 C111.984,162.829962 114.769179,159.507475 118.592,158.832 C137.616,155.48 192.504,145.792 214.608,141.888 Z M112.032,272 C112.032,267.581722 115.613722,264 120.032,264 L216,264 C220.418278,264 224,267.581722 224,272 L224,362.224 C224,364.589599 222.954218,366.834171 221.141986,368.354655 C219.329754,369.875139 216.937513,370.515614 214.608,370.104 C192.512,366.2 137.672,356.52 118.672,353.168 C114.849179,352.492525 112.063013,349.170038 112.064,345.288 C112.056,329.336 112.04,289.184 112.032,272 Z M383.968,390.464 C383.968602,392.829599 382.922218,395.074171 381.109986,396.594655 C379.297754,398.115139 376.905513,398.755614 374.576,398.344 C347.512,393.568 269.8,379.848 246.608,375.752 C242.785179,375.076525 240,371.754038 240,367.872 L240,272 C240,267.581722 243.581722,264 248,264 L375.984,264 C380.402278,264 383.984,267.581722 383.984,272 C383.976,295.624 383.968,364.984 383.968,390.464 L383.968,390.464 Z" id="Shape" fill="#FFFFFF"></path>
        </g>
    </g>
</svg>