<?xml version="1.0" encoding="UTF-8"?>
<svg width="273px" height="286px" viewBox="0 0 273 286" version="1.1" xmlns="http://www.w3.org/2000/svg" xmlns:xlink="http://www.w3.org/1999/xlink">
    <title>Shape</title>
    <g id="Page-1" stroke="none" stroke-width="1" fill="none" fill-rule="evenodd">
        <g id="microsoft" transform="translate(-111.000000, -113.000000)" fill="#FFFFFF" fill-rule="nonzero">
            <path d="M383.984,240 C383.984,244.418278 380.402278,248 375.984,248 L248,248 C243.581722,248 240,244.418278 240,240 L240,144.12 C240,140.238672 242.786219,136.917273 246.608,136.24 C269.8,132.152 347.536,118.432 374.608,113.656 C376.937513,113.244386 379.329754,113.884861 381.141986,115.405345 C382.954218,116.925829 384,119.170401 384,121.536 C383.992,147.024 383.984,216.384 383.984,240 Z M214.608,141.888 C216.937513,141.476386 219.329754,142.116861 221.141986,143.637345 C222.954218,145.157829 224,147.402401 224,149.768 L224,240 C224,244.418278 220.418278,248 216,248 L120.016,248 C115.597722,248 112.016,244.418278 112.016,240 C112.008,222.824 111.992,182.672 111.984,166.712 C111.984,162.829962 114.769179,159.507475 118.592,158.832 C137.616,155.48 192.504,145.792 214.608,141.888 Z M112.032,272 C112.032,267.581722 115.613722,264 120.032,264 L216,264 C220.418278,264 224,267.581722 224,272 L224,362.224 C224,364.589599 222.954218,366.834171 221.141986,368.354655 C219.329754,369.875139 216.937513,370.515614 214.608,370.104 C192.512,366.2 137.672,356.52 118.672,353.168 C114.849179,352.492525 112.063013,349.170038 112.064,345.288 C112.056,329.336 112.04,289.184 112.032,272 Z M383.968,390.464 C383.968602,392.829599 382.922218,395.074171 381.109986,396.594655 C379.297754,398.115139 376.905513,398.755614 374.576,398.344 C347.512,393.568 269.8,379.848 246.608,375.752 C242.785179,375.076525 240,371.754038 240,367.872 L240,272 C240,267.581722 243.581722,264 248,264 L375.984,264 C380.402278,264 383.984,267.581722 383.984,272 C383.976,295.624 383.968,364.984 383.968,390.464 L383.968,390.464 Z" id="Shape"></path>
        </g>
    </g>
</svg>