<?xml version="1.0" encoding="UTF-8"?>
<svg width="128px" height="128px" viewBox="0 0 128 128" version="1.1" xmlns="http://www.w3.org/2000/svg" xmlns:xlink="http://www.w3.org/1999/xlink">
    <title>wm_128x128</title>
    <g id="Page-1" stroke="none" stroke-width="1" fill="none" fill-rule="evenodd">
        <g id="wm_128x128" fill="#006CB4" fill-rule="nonzero">
            <path d="M63.7443585,0 C73.7381071,0 83.2464063,2.32323445 91.7787493,6.47908241 C93.1168989,7.09164356 94.4637605,7.82477998 95.7974904,8.55856638 L89.9470202,13.8169464 L81.1763051,4.64711888 L66.0633972,18.0946696 L57.1637936,8.43480613 L29.3734074,33.499179 L47.1656939,53.1832966 L40.219794,59.2948033 L57.7737118,78.978921 L50.8271712,85.0878927 L75.936966,113.086176 L90.7983768,99.39234 L103.724214,114.067483 C101.162452,116.023857 98.3591867,117.984001 95.3156957,119.692789 C86.0507604,124.949284 75.3232067,128 63.8674837,128 C28.6394748,128 7.38964445e-13,99.274885 7.38964445e-13,63.9450423 C-0.123601831,28.8539452 28.5201286,0 63.7443585,0 Z M51.8623076,60.4249366 L66.9926401,46.7478261 L80.5518728,62.0111446 L65.4184238,75.6869565 L51.8623076,60.4249366 Z M62.8967557,86.1456731 L77.9060204,72.3478261 L91.586321,87.6095346 L76.453371,101.286957 L62.8967557,86.1456731 Z M40.8278594,33.7115861 L55.957761,20.0347826 L69.5174246,35.2977589 L54.3824931,48.973913 L40.8278594,33.7115861 Z M68.4139798,26.0876783 L80.0086273,15.5826087 L90.4828762,27.2143329 L78.888232,37.8434783 L68.4139798,26.0876783 Z M89.3794314,73.9470794 L100.972553,63.4434783 L111.448328,75.1942318 L99.8506844,85.7043478 L89.3794314,73.9470794 Z M99.3104347,97.3259961 L110.910075,86.8173913 L121.379331,98.449493 L109.784213,109.078261 L99.3104347,97.3259961 Z M103.724214,43.5975834 L111.261995,36.7304348 L118.068997,44.3353937 L110.532429,51.2 L103.724214,43.5975834 Z M93.7932106,21.3994195 L101.328677,14.4695652 L108.137993,22.1292692 L100.596907,28.9391304 L93.7932106,21.3994195 Z M113.655217,66.9720513 L121.128638,60.1043478 L128,67.7081003 L120.407775,74.573913 L113.655217,66.9720513 Z M79.448428,50.1059531 L91.0460713,40.0695652 L101.517324,51.1791614 L89.9247944,61.2173913 L79.448428,50.1059531 Z" id="Combined-Shape"></path>
        </g>
    </g>
</svg>