<svg width="655" height="96" viewBox="0 0 655 96" fill="none" xmlns="http://www.w3.org/2000/svg">
<path d="M329.843 15.748L337.392 37.6394L338.248 40.484L339.198 37.6394L345.921 15.748H350.071L339.877 44.1539L339.693 44.658L339.504 45.1601C338.169 48.6335 336.658 51.2463 334.988 52.9953L334.748 53.2393L334.514 53.4633L334.247 53.701C332.805 54.9375 331.058 55.6714 328.983 55.9035L328.59 55.9411L328.49 55.947V53.045L328.558 53.037L328.824 52.9976C332.172 52.443 334.639 49.7791 336.218 45.1783L336.344 44.801L336.453 44.4656L325.52 15.748H329.843ZM505.482 14.7368L505.982 14.7431L506.514 14.7636C508.821 14.8839 511.047 15.4099 513.196 16.3436L513.656 16.5499L514.035 16.731V19.089L513.974 19.0545L513.542 18.8223C511.088 17.5435 508.596 16.9009 506.071 16.9009C504.367 16.9009 502.932 17.2403 501.779 17.9377C500.484 18.7214 499.823 20.0029 499.823 21.6486C499.823 23.2157 500.532 24.5042 501.883 25.4207C502.983 26.1675 504.615 26.8977 506.794 27.6288L507.55 27.8807L509.153 28.4295L509.954 28.7135L510.308 28.8451L510.507 28.9255L510.72 29.0155L511.184 29.224L511.436 29.3425L511.976 29.6079C512.165 29.7027 512.362 29.8038 512.567 29.9111C513.54 30.4199 514.25 30.9155 514.696 31.3817C515.147 31.8536 515.571 32.499 515.96 33.3201C516.327 34.0949 516.512 34.9598 516.512 35.9255C516.512 38.3466 515.57 40.2303 513.642 41.6673C511.735 43.0885 509.171 43.8411 505.928 43.9038L505.482 43.9081L504.997 43.9038L504.469 43.8891C501.505 43.7759 498.965 43.1582 496.84 42.0432L496.469 41.8413L496.279 41.73V39.355L496.538 39.4903L497 39.7208C499.76 41.0661 502.35 41.744 504.774 41.744C509.585 41.744 512.261 39.9771 512.261 36.4609C512.261 35.7418 512.093 35.0636 511.759 34.4412C511.45 33.8665 511.084 33.3867 510.658 33.0073C510.247 32.6412 509.64 32.2626 508.822 31.8501L508.534 31.7067L508.256 31.5727L507.733 31.333C507.482 31.2225 507.248 31.1261 507.028 31.0437L504.405 30.1068L503.642 29.8214L502.933 29.549L501.973 29.1653L501.403 28.9263L501.139 28.8118L500.653 28.5932C499.772 28.186 498.886 27.6553 497.995 27C497.185 26.4044 496.608 25.7144 496.248 24.9231C495.879 24.1095 495.689 23.1193 495.689 21.9461C495.689 20.4691 496.03 19.2333 496.703 18.2144C497.38 17.19 498.245 16.4688 499.315 16.0303C500.514 15.5388 501.601 15.2015 502.572 15.0166C503.39 14.8611 504.199 14.7705 505.001 14.7446L505.482 14.7368ZM555.593 14.7368C558.96 14.7368 561.542 15.7699 563.412 17.8376L563.617 18.0716L563.811 18.309L563.999 18.5544C565.597 20.7165 566.442 23.7862 566.502 27.786L566.505 28.2517L566.505 29.452L547.271 29.4527L547.283 30.8801L547.294 31.3009C547.407 34.6341 548.198 37.1733 549.709 38.9033C551.312 40.7389 553.723 41.6734 556.877 41.7402L557.244 41.744L557.624 41.7383L558.052 41.7186C560.203 41.5847 562.483 40.9213 564.893 39.737L565.377 39.4932L565.62 39.364V41.585L565.266 41.7741C562.509 43.1953 559.483 43.9081 556.182 43.9081C551.663 43.9081 548.419 42.6505 546.367 40.1666C544.27 37.6274 543.205 34.0242 543.205 29.3225C543.205 24.8595 544.297 21.3147 546.461 18.6504C548.582 16.0399 551.596 14.7368 555.593 14.7368ZM442.691 14.7368C446.281 14.7368 448.732 15.4232 450.076 16.7158L450.22 16.8619L450.384 17.0432L450.541 17.2329C451.614 18.5868 452.191 20.5517 452.244 23.1567L452.248 23.5522L452.247 43.194H448.533L448.011 38.8318L446.242 40.2577L445.886 40.5342C442.921 42.7925 439.991 43.9081 437.089 43.9081C434.504 43.9081 432.565 43.2327 431.214 41.9048C429.856 40.5699 429.184 38.8947 429.184 36.8178C429.184 35.7154 429.385 34.6616 429.79 33.6498C430.191 32.6479 430.865 31.6556 431.82 30.6742C432.732 29.7368 434.161 28.9526 436.118 28.344C437.984 27.7635 440.223 27.4509 442.834 27.4118L443.399 27.4076H448.055V24.8014L448.053 24.4515L448.043 24.0859C447.956 21.5609 447.396 19.7465 446.284 18.6472C445.139 17.5155 443.364 16.9555 440.988 16.9047L440.627 16.9009L440.3 16.9056L439.953 16.9205C437.629 17.0534 434.97 17.8634 431.963 19.3393L431.485 19.5779L431.188 19.73V17.3L431.739 17.0647C435.46 15.5118 439.111 14.7368 442.691 14.7368ZM241.826 14.7368C245.604 14.7368 248.588 15.9645 250.85 18.4284C253.12 20.902 254.272 24.5182 254.272 29.3225C254.272 34.0892 253.129 37.6977 250.874 40.1924C248.668 42.6731 245.679 43.9081 241.826 43.9081C237.972 43.9081 234.972 42.6722 232.752 40.1954C230.515 37.7005 229.38 34.0906 229.38 29.3225C229.38 24.5182 230.532 20.902 232.803 18.4284C235.064 15.9645 238.049 14.7368 241.826 14.7368ZM150.73 0.255L150.731 17.5945L152.648 16.5849L153.099 16.3608C155.352 15.2765 157.55 14.7368 159.692 14.7368C163.051 14.7368 165.546 15.8535 167.275 18.0951C169.049 20.3962 169.956 23.8145 169.956 28.3707C169.956 33.5815 168.806 37.4652 166.546 40.0571C164.308 42.6243 161.185 43.9081 157.097 43.9081C155.661 43.9081 154.003 43.7001 152.126 43.2814L151.609 43.162L151.047 43.0221L150.497 42.8729C149.409 42.5651 148.391 42.2017 147.443 41.7829L146.974 41.5688L146.597 41.384V1.258L150.73 0.255ZM126.38 14.7368C129.748 14.7368 132.33 15.7699 134.2 17.8376L134.405 18.0716L134.599 18.309L134.787 18.5544C136.385 20.7165 137.229 23.7862 137.29 27.786L137.293 28.2517L137.293 29.452L118.059 29.4527L118.071 30.8801L118.082 31.3009C118.195 34.6341 118.986 37.1733 120.496 38.9033C122.1 40.7389 124.511 41.6734 127.665 41.7402L128.032 41.744L128.412 41.7383L128.84 41.7186C130.991 41.5847 133.27 40.9213 135.681 39.737L136.165 39.4932L136.408 39.364V41.585L136.053 41.7741C133.297 43.1953 130.271 43.9081 126.97 43.9081C122.451 43.9081 119.207 42.6505 117.155 40.1666C115.057 37.6274 113.993 34.0242 113.993 29.3225C113.993 24.8595 115.085 21.3147 117.249 18.6504C119.37 16.0399 122.384 14.7368 126.38 14.7368ZM308.391 14.7368C311.759 14.7368 314.341 15.7699 316.211 17.8376L316.415 18.0716L316.61 18.309L316.798 18.5544C318.396 20.7165 319.24 23.7862 319.3 27.786L319.304 28.2517L319.303 29.452L300.07 29.4527L300.082 30.8801L300.092 31.3009C300.206 34.6341 300.996 37.1733 302.507 38.9033C304.11 40.7389 306.522 41.6734 309.675 41.7402L310.042 41.744L310.423 41.7383L310.851 41.7186C313.001 41.5847 315.281 40.9213 317.691 39.737L318.175 39.4932L318.419 39.364V41.584L318.064 41.7741C315.308 43.1953 312.282 43.9081 308.981 43.9081C304.461 43.9081 301.218 42.6505 299.166 40.1666C297.068 37.6274 296.004 34.0242 296.004 29.3225C296.004 24.8595 297.095 21.3147 299.259 18.6504C301.38 16.0399 304.395 14.7368 308.391 14.7368ZM539.385 0V2.053L539.025 2.07454C532.871 2.49853 529.594 5.88246 529.481 11.9799L529.478 12.3091V16.1645L538.512 16.164L537.726 18.447L529.478 18.4476L529.478 43.194H525.344L525.345 12.5471L525.349 12.1275L525.361 11.7215C525.517 7.70002 526.854 4.82234 529.355 3.00543C531.72 1.28791 534.747 0.297473 538.453 0.0473291L538.94 0.0189009L539.385 0ZM477.478 14.7368C480.613 14.7368 482.818 15.3316 484.119 16.4578L484.276 16.6013L484.439 16.7642L484.594 16.936C485.606 18.1112 486.155 19.8849 486.205 22.2938L486.208 22.6599L486.208 43.194H482.074L482.075 24.0281L482.072 23.6957L482.061 23.375C481.97 21.2666 481.431 19.751 480.359 18.8578C479.253 17.9365 477.712 17.4958 475.767 17.4958C473.363 17.4958 470.937 18.1782 468.498 19.5291L468.067 19.7744L467.572 20.0641L467.572 43.194H463.439V18.706L463.955 18.4113C468.322 15.9599 472.827 14.7368 477.478 14.7368ZM185.837 3.017L199.048 36.2712L199.748 38.984L200.712 36.2712L213.332 3.017H218.955V43.194H214.586L214.748 5.984L212.374 12.6178L200.343 43.194H197.925L185.895 13.3317L183.748 6.984L183.689 13.3317L183.688 43.194H180.381V3.017H185.837ZM396.534 3.017V5.895L384.268 5.89579L384.267 43.194H379.898L379.898 5.89579L367.631 5.895V3.017H396.534ZM65.541 3.017L72.1464 34.4866L73.248 38.984L74.1567 34.4866L81.823 3.017H85.513L93.7111 34.4866L94.748 38.984L95.7237 34.4866L101.739 3.017H106.559L97.459 43.194H92.654L84.6342 13.5102L83.748 7.984L82.6842 13.5102L74.899 43.194H70.101L61 3.017H65.541ZM417.636 14.7368C419.737 14.7368 421.313 15.1497 422.389 15.9418L422.574 16.0856L422.708 16.2034L422.837 16.3308C423.632 17.1653 424.077 18.5712 424.122 20.5922L424.126 20.9348L424.125 23.018L420.464 23.98L420.464 23.0168L420.461 22.7353L420.451 22.46C420.296 19.2878 418.78 17.4958 416.044 17.4958C413.898 17.4958 411.639 18.2517 409.266 19.7387L408.89 19.9795L408.438 20.2757L408.438 43.194H404.305V18.996L404.401 18.9384L405.018 18.579C406.882 17.5213 408.864 16.6493 410.957 15.9665C413.478 15.1445 415.706 14.7368 417.636 14.7368ZM277.851 14.7368C280.986 14.7368 283.192 15.3316 284.492 16.4578L284.65 16.6013L284.812 16.7642L284.967 16.936C285.98 18.1112 286.528 19.8849 286.578 22.2938L286.582 22.6599L286.581 43.194H282.448L282.448 24.0281L282.445 23.6957L282.435 23.375C282.344 21.2666 281.804 19.751 280.732 18.8578C279.626 17.9365 278.086 17.4958 276.141 17.4958C273.736 17.4958 271.31 18.1782 268.871 19.5291L268.44 19.7744L267.946 20.0641L267.945 43.194H263.812V18.707L264.328 18.4113C268.695 15.9599 273.2 14.7368 277.851 14.7368ZM589.258 14.7368C591.359 14.7368 592.935 15.1497 594.011 15.9418L594.196 16.0856L594.331 16.2034L594.46 16.3308C595.255 17.1653 595.7 18.5712 595.744 20.5922L595.748 20.9348V23.018L592.086 23.98L592.086 23.0168L592.083 22.7353L592.073 22.46C591.919 19.2878 590.402 17.4958 587.666 17.4958C585.521 17.4958 583.261 18.2517 580.888 19.7387L580.512 19.9795L580.061 20.2757L580.06 43.194H575.927V18.996L576.023 18.9384L576.64 18.579C578.505 17.5213 580.486 16.6493 582.58 15.9665C585.1 15.1445 587.328 14.7368 589.258 14.7368ZM241.826 16.9009C239.41 16.9009 237.384 18.0154 235.826 20.1705C234.308 22.2704 233.572 25.3234 233.572 29.3225C233.572 33.3947 234.264 36.4593 235.698 38.5194C237.182 40.6509 239.257 41.744 241.826 41.744C244.396 41.744 246.471 40.6509 247.955 38.5194C249.389 36.4593 250.08 33.3947 250.08 29.3225C250.08 25.3278 249.367 22.2796 247.893 20.1816C246.373 18.017 244.322 16.9009 241.826 16.9009ZM158.1 17.3768C156.104 17.3768 153.939 18.0042 151.601 19.2409L151.187 19.4655L150.672 19.7511V40.4599L151.584 40.8385L151.92 40.9643C153.392 41.4886 155.114 41.744 157.097 41.744C162.888 41.744 165.764 37.1015 165.764 28.3707C165.764 21.221 163.201 17.3768 158.1 17.3768ZM448.114 29.5717H443.989L443.622 29.5738L443.26 29.5801C436.801 29.7327 433.317 31.9708 433.317 36.3419C433.317 37.9943 433.885 39.2847 435.035 40.1017C436.079 40.8437 437.363 41.2086 438.858 41.2086C440.671 41.2086 442.421 40.7729 444.094 39.9071C445.624 39.1161 446.828 38.2007 447.699 37.1534L447.91 36.8889L448.114 36.6203V29.5717ZM126.204 16.7225C124.06 16.7225 122.231 17.5865 120.785 19.2726C119.446 20.8343 118.608 23.0559 118.243 25.924L118.191 26.3591L118.071 27.4671H133.746L133.689 26.4136L133.663 25.9909C133.452 23.0642 132.707 20.812 131.392 19.2497C129.987 17.582 128.236 16.7225 126.204 16.7225ZM555.416 16.7225C553.272 16.7225 551.443 17.5865 549.997 19.2726C548.658 20.8343 547.821 23.0559 547.455 25.924L547.403 26.3591L547.283 27.4671H562.958L562.901 26.4136L562.875 25.9909C562.664 23.0642 561.919 20.812 560.604 19.2497C559.2 17.582 557.448 16.7225 555.416 16.7225ZM308.214 16.7225C306.071 16.7225 304.242 17.5865 302.796 19.2726C301.457 20.8343 300.619 23.0559 300.253 25.924L300.202 26.3591L300.082 27.4671H315.756L315.7 26.4136L315.673 25.9909C315.462 23.0642 314.718 20.812 313.402 19.2497C311.998 17.582 310.247 16.7225 308.214 16.7225Z" fill="#006CB4"/>
<path d="M51.5215 89.5469C53.5905 89.5469 55.2129 88.8656 56.3887 87.5029C57.5645 86.1403 58.1523 84.2467 58.1523 81.8223C58.1523 79.4342 57.5713 77.5544 56.4092 76.1826C55.2471 74.8109 53.6452 74.125 51.6035 74.125C49.5527 74.125 47.9395 74.8018 46.7637 76.1553C45.5879 77.5088 45 79.3978 45 81.8223C45 83.3626 45.2643 84.7207 45.793 85.8965C46.3216 87.0723 47.0827 87.9746 48.0762 88.6035C49.0697 89.2324 50.2181 89.5469 51.5215 89.5469ZM51.5762 88.3164C49.9355 88.3164 48.6663 87.7445 47.7686 86.6006C46.8708 85.4567 46.4219 83.8639 46.4219 81.8223C46.4219 79.7624 46.8662 78.1696 47.7549 77.0439C48.6436 75.9183 49.9082 75.3555 51.5488 75.3555C53.1895 75.3555 54.4632 75.9206 55.3701 77.0508C56.277 78.181 56.7305 79.7715 56.7305 81.8223C56.7305 83.8639 56.2816 85.4567 55.3838 86.6006C54.486 87.7445 53.2168 88.3164 51.5762 88.3164ZM73.1464 89.2734V81.0703C73.1464 79.0742 73.5019 77.6227 74.2128 76.7158C74.9237 75.8089 76.0585 75.3555 77.6171 75.3555C79.914 75.3555 81.0624 76.6087 81.0624 79.1152V89.2734H82.4433V80.5645C82.4433 78.7689 82.8078 77.4518 83.537 76.6133C84.2662 75.7747 85.3918 75.3555 86.914 75.3555C88.0806 75.3555 88.9465 75.6882 89.5116 76.3535C90.0767 77.0189 90.3593 78.0762 90.3593 79.5254V89.2734H91.6991V79.5527C91.6991 77.666 91.2935 76.2897 90.4823 75.4238C89.6711 74.5579 88.4543 74.125 86.8319 74.125C85.7929 74.125 84.8655 74.3529 84.0497 74.8086C83.234 75.2643 82.5845 75.916 82.1015 76.7637H82.0468C81.3814 75.0046 79.8775 74.125 77.5351 74.125C76.6236 74.125 75.7896 74.3278 75.0331 74.7334C74.2766 75.139 73.6933 75.7109 73.2831 76.4492H73.2011L72.914 74.4121H71.7929V89.2734H73.1464ZM103.639 89.5469C104.496 89.5469 105.28 89.4808 105.991 89.3486C106.702 89.2165 107.477 88.9681 108.315 88.6035V87.373C107.331 87.765 106.517 88.0202 105.875 88.1387C105.232 88.2572 104.487 88.3164 103.639 88.3164C101.899 88.3164 100.561 87.7786 99.6268 86.7031C98.6926 85.6276 98.2163 84.069 98.1981 82.0273H108.903V80.9336C108.903 78.8372 108.397 77.1784 107.386 75.957C106.374 74.7357 104.993 74.125 103.243 74.125C101.265 74.125 99.6929 74.8382 98.5262 76.2646C97.3595 77.6911 96.7762 79.5892 96.7762 81.959C96.7762 84.3561 97.3801 86.2201 98.5877 87.5508C99.7954 88.8815 101.479 89.5469 103.639 89.5469ZM107.468 80.8242H98.2801C98.426 79.0469 98.9318 77.6865 99.7977 76.7432C100.664 75.7998 101.812 75.3281 103.243 75.3281C104.565 75.3281 105.599 75.8135 106.347 76.7842C107.094 77.7549 107.468 79.1016 107.468 80.8242ZM115.484 89.2734V68H114.131V89.2734H115.484ZM122.94 89.2734V81.0703C122.94 79.056 123.353 77.5999 124.177 76.7021C125.002 75.8044 126.303 75.3555 128.081 75.3555C129.402 75.3555 130.378 75.695 131.007 76.374C131.635 77.0531 131.95 78.14 131.95 79.6348V89.2734H133.29V79.5527C133.29 75.9342 131.604 74.125 128.231 74.125C126.973 74.125 125.921 74.3255 125.073 74.7266C124.225 75.1276 123.524 75.7747 122.968 76.668H122.872L122.94 74.7676V68H121.587V89.2734H122.94ZM144.888 89.5469C146.957 89.5469 148.58 88.8656 149.756 87.5029C150.931 86.1403 151.519 84.2467 151.519 81.8223C151.519 79.4342 150.938 77.5544 149.776 76.1826C148.614 74.8109 147.012 74.125 144.97 74.125C142.92 74.125 141.306 74.8018 140.131 76.1553C138.955 77.5088 138.367 79.3978 138.367 81.8223C138.367 83.3626 138.631 84.7207 139.16 85.8965C139.688 87.0723 140.45 87.9746 141.443 88.6035C142.437 89.2324 143.585 89.5469 144.888 89.5469ZM144.943 88.3164C143.302 88.3164 142.033 87.7445 141.135 86.6006C140.238 85.4567 139.789 83.8639 139.789 81.8223C139.789 79.7624 140.233 78.1696 141.122 77.0439C142.01 75.9183 143.275 75.3555 144.916 75.3555C146.556 75.3555 147.83 75.9206 148.737 77.0508C149.644 78.181 150.097 79.7715 150.097 81.8223C150.097 83.8639 149.648 85.4567 148.751 86.6006C147.853 87.7445 146.584 88.3164 144.943 88.3164ZM158.114 89.2734V81.0703C158.114 79.4297 158.52 78.0716 159.331 76.9961C160.142 75.9206 161.181 75.3828 162.448 75.3828C163.113 75.3828 163.756 75.4603 164.376 75.6152L164.635 74.3164C163.915 74.1888 163.241 74.125 162.612 74.125C161.628 74.125 160.789 74.346 160.096 74.7881C159.404 75.2301 158.752 75.998 158.141 77.0918H158.046L157.909 74.4121H156.76V89.2734H158.114ZM180.573 89.5469C182.432 89.5469 183.868 89.1891 184.879 88.4736C185.891 87.7581 186.397 86.735 186.397 85.4043C186.397 84.7389 186.244 84.1602 185.939 83.668C185.634 83.1758 185.176 82.736 184.565 82.3486C183.954 81.9613 182.979 81.526 181.639 81.043C180.035 80.4688 178.957 79.9492 178.406 79.4844C177.854 79.0195 177.579 78.3997 177.579 77.625C177.579 76.9141 177.934 76.3581 178.645 75.957C179.356 75.556 180.318 75.3555 181.53 75.3555C182.779 75.3555 184.132 75.6562 185.59 76.2578L186.096 75.0273C184.656 74.4258 183.134 74.125 181.53 74.125C179.853 74.125 178.547 74.4486 177.613 75.0957C176.679 75.7428 176.211 76.6224 176.211 77.7344C176.211 78.4362 176.364 79.0309 176.669 79.5186C176.975 80.0062 177.428 80.4437 178.03 80.8311C178.631 81.2184 179.675 81.681 181.161 82.2188C182.546 82.7109 183.542 83.2122 184.148 83.7227C184.754 84.2331 185.057 84.862 185.057 85.6094C185.057 86.4206 184.677 87.07 183.916 87.5576C183.154 88.0452 182.04 88.2891 180.573 88.2891C178.914 88.2891 177.337 87.9154 175.842 87.168V88.6309C177.009 89.2415 178.586 89.5469 180.573 89.5469ZM192.021 71.6094C192.304 71.6094 192.525 71.4909 192.684 71.2539C192.844 71.0169 192.923 70.6934 192.923 70.2832C192.923 69.8639 192.844 69.5404 192.684 69.3125C192.525 69.0846 192.304 68.9707 192.021 68.9707C191.447 68.9707 191.16 69.4082 191.16 70.2832C191.16 71.1673 191.447 71.6094 192.021 71.6094ZM192.705 89.2734V74.4121H191.351V89.2734H192.705ZM202.198 89.5469C204.057 89.5469 205.493 89.1891 206.504 88.4736C207.516 87.7581 208.022 86.735 208.022 85.4043C208.022 84.7389 207.869 84.1602 207.564 83.668C207.259 83.1758 206.801 82.736 206.19 82.3486C205.579 81.9613 204.604 81.526 203.264 81.043C201.66 80.4688 200.582 79.9492 200.031 79.4844C199.479 79.0195 199.204 78.3997 199.204 77.625C199.204 76.9141 199.559 76.3581 200.27 75.957C200.981 75.556 201.942 75.3555 203.155 75.3555C204.403 75.3555 205.757 75.6562 207.215 76.2578L207.721 75.0273C206.281 74.4258 204.759 74.125 203.155 74.125C201.478 74.125 200.172 74.4486 199.238 75.0957C198.303 75.7428 197.836 76.6224 197.836 77.7344C197.836 78.4362 197.989 79.0309 198.294 79.5186C198.6 80.0062 199.053 80.4437 199.655 80.8311C200.256 81.2184 201.3 81.681 202.786 82.2188C204.171 82.7109 205.167 83.2122 205.773 83.7227C206.379 84.2331 206.682 84.862 206.682 85.6094C206.682 86.4206 206.302 87.07 205.54 87.5576C204.779 88.0452 203.665 88.2891 202.198 88.2891C200.539 88.2891 198.962 87.9154 197.467 87.168V88.6309C198.634 89.2415 200.211 89.5469 202.198 89.5469ZM216.872 89.5469C217.729 89.5469 218.486 89.4375 219.142 89.2188V88.125C218.504 88.2708 217.757 88.3438 216.9 88.3438C216.043 88.3438 215.414 88.0703 215.013 87.5234C214.612 86.9766 214.411 86.1335 214.411 84.9941V75.5879H218.773V74.4121H214.411V70.8164H213.714L213.031 74.1797L210.829 74.7949V75.5879H213.031V85.1855C213.031 86.6895 213.343 87.7923 213.967 88.4941C214.592 89.196 215.56 89.5469 216.872 89.5469ZM229.483 89.5469C230.34 89.5469 231.123 89.4808 231.834 89.3486C232.545 89.2165 233.32 88.9681 234.159 88.6035V87.373C233.174 87.765 232.361 88.0202 231.718 88.1387C231.076 88.2572 230.33 88.3164 229.483 88.3164C227.742 88.3164 226.404 87.7786 225.47 86.7031C224.536 85.6276 224.06 84.069 224.041 82.0273H234.746V80.9336C234.746 78.8372 234.241 77.1784 233.229 75.957C232.217 74.7357 230.836 74.125 229.086 74.125C227.108 74.125 225.536 74.8382 224.369 76.2646C223.203 77.6911 222.619 79.5892 222.619 81.959C222.619 84.3561 223.223 86.2201 224.431 87.5508C225.639 88.8815 227.323 89.5469 229.483 89.5469ZM233.311 80.8242H224.123C224.269 79.0469 224.775 77.6865 225.641 76.7432C226.507 75.7998 227.655 75.3281 229.086 75.3281C230.408 75.3281 231.442 75.8135 232.19 76.7842C232.937 77.7549 233.311 79.1016 233.311 80.8242ZM241.327 89.2734V81.0703C241.327 79.0742 241.683 77.6227 242.394 76.7158C243.105 75.8089 244.24 75.3555 245.798 75.3555C248.095 75.3555 249.243 76.6087 249.243 79.1152V89.2734H250.624V80.5645C250.624 78.7689 250.989 77.4518 251.718 76.6133C252.447 75.7747 253.573 75.3555 255.095 75.3555C256.262 75.3555 257.128 75.6882 257.693 76.3535C258.258 77.0189 258.54 78.0762 258.54 79.5254V89.2734H259.88V79.5527C259.88 77.666 259.475 76.2897 258.663 75.4238C257.852 74.5579 256.635 74.125 255.013 74.125C253.974 74.125 253.046 74.3529 252.231 74.8086C251.415 75.2643 250.766 75.916 250.282 76.7637H250.228C249.562 75.0046 248.059 74.125 245.716 74.125C244.805 74.125 243.971 74.3278 243.214 74.7334C242.458 75.139 241.874 75.7109 241.464 76.4492H241.382L241.095 74.4121H239.974V89.2734H241.327ZM269.291 89.5469C270.367 89.5469 271.299 89.3486 272.087 88.9521C272.876 88.5557 273.643 87.8789 274.391 86.9219H274.5L274.842 89.2734H275.84V79.3887C275.84 77.5931 275.437 76.2715 274.63 75.4238C273.823 74.5762 272.604 74.1523 270.973 74.1523C269.378 74.1523 267.765 74.5352 266.133 75.3008L266.639 76.4766C268.115 75.7109 269.542 75.3281 270.918 75.3281C272.194 75.3281 273.119 75.6882 273.694 76.4082C274.268 77.1283 274.555 78.1947 274.555 79.6074V80.5918L271.725 80.6738C269.437 80.7194 267.689 81.1432 266.482 81.9453C265.274 82.7474 264.67 83.873 264.67 85.3223C264.67 86.6439 265.076 87.6784 265.887 88.4258C266.698 89.1732 267.833 89.5469 269.291 89.5469ZM269.373 88.3164C268.334 88.3164 267.53 88.0589 266.96 87.5439C266.391 87.029 266.106 86.3066 266.106 85.377C266.106 84.2103 266.55 83.3512 267.439 82.7998C268.327 82.2484 269.815 81.9225 271.903 81.8223L274.5 81.7129V83.1758C274.5 84.7891 274.042 86.0492 273.126 86.9561C272.21 87.863 270.959 88.3164 269.373 88.3164ZM295.647 89.5469C297.761 89.5469 299.384 88.6992 300.514 87.0039H300.623L300.965 89.2734H301.854V68H300.514V73.3457C300.514 74.4486 300.541 75.5742 300.596 76.7227H300.514C299.894 75.7747 299.192 75.1048 298.408 74.7129C297.624 74.321 296.695 74.125 295.619 74.125C293.568 74.125 292.005 74.804 290.93 76.1621C289.854 77.5202 289.317 79.4844 289.317 82.0547C289.317 84.4974 289.859 86.3568 290.943 87.6328C292.028 88.9089 293.596 89.5469 295.647 89.5469ZM295.647 88.3438C292.374 88.3438 290.738 86.2383 290.738 82.0273C290.738 79.8581 291.146 78.2038 291.962 77.0645C292.778 75.9251 293.997 75.3555 295.619 75.3555C297.342 75.3555 298.588 75.859 299.359 76.8662C300.129 77.8734 300.514 79.5254 300.514 81.8223V82.0547C300.514 84.2969 300.122 85.9056 299.338 86.8809C298.554 87.8561 297.324 88.3438 295.647 88.3438ZM313.972 89.5469C314.829 89.5469 315.612 89.4808 316.323 89.3486C317.034 89.2165 317.809 88.9681 318.648 88.6035V87.373C317.663 87.765 316.85 88.0202 316.207 88.1387C315.565 88.2572 314.819 88.3164 313.972 88.3164C312.231 88.3164 310.893 87.7786 309.959 86.7031C309.025 85.6276 308.549 84.069 308.53 82.0273H319.235V80.9336C319.235 78.8372 318.73 77.1784 317.718 75.957C316.706 74.7357 315.325 74.125 313.575 74.125C311.597 74.125 310.025 74.8382 308.858 76.2646C307.692 77.6911 307.108 79.5892 307.108 81.959C307.108 84.3561 307.712 86.2201 308.92 87.5508C310.128 88.8815 311.812 89.5469 313.972 89.5469ZM317.8 80.8242H308.612C308.758 79.0469 309.264 77.6865 310.13 76.7432C310.996 75.7998 312.144 75.3281 313.575 75.3281C314.897 75.3281 315.931 75.8135 316.679 76.7842C317.426 77.7549 317.8 79.1016 317.8 80.8242ZM334.216 96V90.3398C334.216 89.5378 334.198 88.7995 334.161 88.125L334.12 86.9766H334.216C335.264 88.6901 336.932 89.5469 339.22 89.5469C341.134 89.5469 342.644 88.8747 343.752 87.5303C344.859 86.1859 345.413 84.2923 345.413 81.8496C345.413 79.334 344.887 77.4176 343.834 76.1006C342.781 74.7835 341.252 74.125 339.247 74.125C337.005 74.125 335.373 74.9271 334.352 76.5312H334.27L334.011 74.4121H332.862V96H334.216ZM339.192 88.3438C337.433 88.3438 336.164 87.847 335.385 86.8535C334.605 85.86 334.216 84.2012 334.216 81.877V81.4395C334.216 79.2884 334.621 77.7367 335.433 76.7842C336.244 75.8317 337.515 75.3555 339.247 75.3555C342.401 75.3555 343.977 77.5384 343.977 81.9043C343.977 83.9368 343.56 85.5182 342.727 86.6484C341.893 87.7786 340.714 88.3438 339.192 88.3438ZM354.127 89.5469C355.202 89.5469 356.134 89.3486 356.923 88.9521C357.711 88.5557 358.479 87.8789 359.227 86.9219H359.336L359.678 89.2734H360.676V79.3887C360.676 77.5931 360.272 76.2715 359.466 75.4238C358.659 74.5762 357.44 74.1523 355.809 74.1523C354.213 74.1523 352.6 74.5352 350.969 75.3008L351.475 76.4766C352.951 75.7109 354.377 75.3281 355.754 75.3281C357.03 75.3281 357.955 75.6882 358.529 76.4082C359.103 77.1283 359.391 78.1947 359.391 79.6074V80.5918L356.56 80.6738C354.273 80.7194 352.525 81.1432 351.317 81.9453C350.11 82.7474 349.506 83.873 349.506 85.3223C349.506 86.6439 349.911 87.6784 350.723 88.4258C351.534 89.1732 352.668 89.5469 354.127 89.5469ZM354.209 88.3164C353.17 88.3164 352.365 88.0589 351.796 87.5439C351.226 87.029 350.941 86.3066 350.941 85.377C350.941 84.2103 351.386 83.3512 352.274 82.7998C353.163 82.2484 354.651 81.9225 356.738 81.8223L359.336 81.7129V83.1758C359.336 84.7891 358.878 86.0492 357.962 86.9561C357.046 87.863 355.795 88.3164 354.209 88.3164ZM370.62 96C372.972 96 374.783 95.5739 376.055 94.7217C377.326 93.8695 377.962 92.6595 377.962 91.0918C377.962 89.8158 377.533 88.8519 376.677 88.2002C375.82 87.5485 374.585 87.2227 372.972 87.2227H370.374C369.526 87.2227 368.922 87.1133 368.562 86.8945C368.202 86.6758 368.022 86.3294 368.022 85.8555C368.022 85.4271 368.164 85.0215 368.446 84.6387C368.729 84.2559 369.139 83.9232 369.677 83.6406C369.95 83.6953 370.424 83.7227 371.099 83.7227C372.703 83.7227 373.981 83.2783 374.933 82.3896C375.886 81.501 376.362 80.3411 376.362 78.9102C376.362 77.6888 375.952 76.5677 375.132 75.5469L378.208 75.3555V74.4121H373.45C372.912 74.2207 372.156 74.125 371.181 74.125C369.576 74.125 368.303 74.5739 367.359 75.4717C366.416 76.3695 365.944 77.5612 365.944 79.0469C365.944 80.0312 366.186 80.904 366.669 81.665C367.152 82.4261 367.826 82.9844 368.692 83.3398C367.425 84.0964 366.792 84.9714 366.792 85.9648C366.792 86.4206 366.926 86.8239 367.195 87.1748C367.464 87.5257 367.822 87.7969 368.268 87.9883C367.184 88.2344 366.325 88.6947 365.691 89.3691C365.058 90.0436 364.741 90.8913 364.741 91.9121C364.741 93.1973 365.254 94.1999 366.279 94.9199C367.305 95.64 368.752 96 370.62 96ZM371.153 82.6699C369.987 82.6699 369.055 82.3532 368.357 81.7197C367.66 81.0863 367.311 80.1953 367.311 79.0469C367.311 77.8346 367.651 76.889 368.33 76.21C369.009 75.5309 369.941 75.1914 371.126 75.1914C372.347 75.1914 373.297 75.5081 373.976 76.1416C374.655 76.7751 374.995 77.7253 374.995 78.9922C374.995 80.1862 374.665 81.0977 374.004 81.7266C373.343 82.3555 372.393 82.6699 371.153 82.6699ZM370.729 94.8516C367.694 94.8516 366.177 93.8307 366.177 91.7891C366.177 89.6471 367.539 88.5762 370.265 88.5762H372.698C374.065 88.5762 375.054 88.7767 375.665 89.1777C376.276 89.5788 376.581 90.2259 376.581 91.1191C376.581 93.6074 374.63 94.8516 370.729 94.8516ZM385.855 89.5469C386.931 89.5469 387.863 89.3486 388.651 88.9521C389.44 88.5557 390.208 87.8789 390.955 86.9219H391.064L391.406 89.2734H392.404V79.3887C392.404 77.5931 392.001 76.2715 391.194 75.4238C390.388 74.5762 389.168 74.1523 387.537 74.1523C385.942 74.1523 384.329 74.5352 382.697 75.3008L383.203 76.4766C384.68 75.7109 386.106 75.3281 387.482 75.3281C388.758 75.3281 389.683 75.6882 390.258 76.4082C390.832 77.1283 391.119 78.1947 391.119 79.6074V80.5918L388.289 80.6738C386.001 80.7194 384.253 81.1432 383.046 81.9453C381.838 82.7474 381.234 83.873 381.234 85.3223C381.234 86.6439 381.64 87.6784 382.451 88.4258C383.262 89.1732 384.397 89.5469 385.855 89.5469ZM385.937 88.3164C384.898 88.3164 384.094 88.0589 383.524 87.5439C382.955 87.029 382.67 86.3066 382.67 85.377C382.67 84.2103 383.114 83.3512 384.003 82.7998C384.891 82.2484 386.379 81.9225 388.467 81.8223L391.064 81.7129V83.1758C391.064 84.7891 390.606 86.0492 389.69 86.9561C388.774 87.863 387.523 88.3164 385.937 88.3164ZM399.696 89.2734V81.0703C399.696 79.0742 400.052 77.6227 400.762 76.7158C401.473 75.8089 402.608 75.3555 404.167 75.3555C406.464 75.3555 407.612 76.6087 407.612 79.1152V89.2734H408.993V80.5645C408.993 78.7689 409.358 77.4518 410.087 76.6133C410.816 75.7747 411.941 75.3555 413.464 75.3555C414.63 75.3555 415.496 75.6882 416.061 76.3535C416.626 77.0189 416.909 78.0762 416.909 79.5254V89.2734H418.249V79.5527C418.249 77.666 417.843 76.2897 417.032 75.4238C416.221 74.5579 415.004 74.125 413.382 74.125C412.343 74.125 411.415 74.3529 410.599 74.8086C409.784 75.2643 409.134 75.916 408.651 76.7637H408.596C407.931 75.0046 406.427 74.125 404.085 74.125C403.173 74.125 402.339 74.3278 401.583 74.7334C400.826 75.139 400.243 75.7109 399.833 76.4492H399.751L399.464 74.4121H398.343V89.2734H399.696ZM430.189 89.5469C431.046 89.5469 431.83 89.4808 432.541 89.3486C433.252 89.2165 434.026 88.9681 434.865 88.6035V87.373C433.881 87.765 433.067 88.0202 432.424 88.1387C431.782 88.2572 431.037 88.3164 430.189 88.3164C428.448 88.3164 427.111 87.7786 426.176 86.7031C425.242 85.6276 424.766 84.069 424.748 82.0273H435.453V80.9336C435.453 78.8372 434.947 77.1784 433.935 75.957C432.924 74.7357 431.543 74.125 429.793 74.125C427.815 74.125 426.243 74.8382 425.076 76.2646C423.909 77.6911 423.326 79.5892 423.326 81.959C423.326 84.3561 423.93 86.2201 425.137 87.5508C426.345 88.8815 428.029 89.5469 430.189 89.5469ZM434.017 80.8242H424.83C424.976 79.0469 425.481 77.6865 426.347 76.7432C427.213 75.7998 428.362 75.3281 429.793 75.3281C431.114 75.3281 432.149 75.8135 432.896 76.7842C433.644 77.7549 434.017 79.1016 434.017 80.8242ZM442.034 89.2734V81.0703C442.034 79.056 442.446 77.5999 443.271 76.7021C444.096 75.8044 445.397 75.3555 447.174 75.3555C448.496 75.3555 449.471 75.695 450.1 76.374C450.729 77.0531 451.044 78.14 451.044 79.6348V89.2734H452.383V79.5527C452.383 75.9342 450.697 74.125 447.325 74.125C444.855 74.125 443.137 74.8997 442.171 76.4492H442.089L441.829 74.4121H440.68V89.2734H442.034ZM462.218 89.5469C463.075 89.5469 463.832 89.4375 464.488 89.2188V88.125C463.85 88.2708 463.102 88.3438 462.246 88.3438C461.389 88.3438 460.76 88.0703 460.359 87.5234C459.958 86.9766 459.757 86.1335 459.757 84.9941V75.5879H464.119V74.4121H459.757V70.8164H459.06L458.377 74.1797L456.175 74.7949V75.5879H458.377V85.1855C458.377 86.6895 458.689 87.7923 459.313 88.4941C459.937 89.196 460.906 89.5469 462.218 89.5469ZM474.487 89.5469C476.556 89.5469 478.178 88.8656 479.354 87.5029C480.53 86.1403 481.118 84.2467 481.118 81.8223C481.118 79.4342 480.537 77.5544 479.375 76.1826C478.212 74.8109 476.611 74.125 474.569 74.125C472.518 74.125 470.905 74.8018 469.729 76.1553C468.553 77.5088 467.965 79.3978 467.965 81.8223C467.965 83.3626 468.23 84.7207 468.758 85.8965C469.287 87.0723 470.048 87.9746 471.042 88.6035C472.035 89.2324 473.183 89.5469 474.487 89.5469ZM474.542 88.3164C472.901 88.3164 471.632 87.7445 470.734 86.6006C469.836 85.4567 469.387 83.8639 469.387 81.8223C469.387 79.7624 469.832 78.1696 470.72 77.0439C471.609 75.9183 472.874 75.3555 474.514 75.3555C476.155 75.3555 477.429 75.9206 478.336 77.0508C479.242 78.181 479.696 79.7715 479.696 81.8223C479.696 83.8639 479.247 85.4567 478.349 86.6006C477.451 87.7445 476.182 88.3164 474.542 88.3164ZM499.666 89.5469C502.136 89.5469 503.855 88.7721 504.821 87.2227H504.903L505.149 89.2734H506.297V74.4121H504.957V82.6152C504.957 84.6296 504.54 86.0833 503.706 86.9766C502.872 87.8698 501.571 88.3164 499.803 88.3164C498.482 88.3164 497.506 87.9769 496.877 87.2979C496.248 86.6188 495.934 85.5319 495.934 84.0371V74.4121H494.594V84.1191C494.594 87.7376 496.285 89.5469 499.666 89.5469ZM513.753 89.2734V81.0703C513.753 79.056 514.166 77.5999 514.991 76.7021C515.815 75.8044 517.117 75.3555 518.894 75.3555C520.216 75.3555 521.191 75.695 521.82 76.374C522.449 77.0531 522.763 78.14 522.763 79.6348V89.2734H524.103V79.5527C524.103 75.9342 522.417 74.125 519.044 74.125C516.574 74.125 514.856 74.8997 513.89 76.4492H513.808L513.548 74.4121H512.4V89.2734H513.753ZM530.711 71.6094C530.994 71.6094 531.215 71.4909 531.374 71.2539C531.534 71.0169 531.614 70.6934 531.614 70.2832C531.614 69.8639 531.534 69.5404 531.374 69.3125C531.215 69.0846 530.994 68.9707 530.711 68.9707C530.137 68.9707 529.85 69.4082 529.85 70.2832C529.85 71.1673 530.137 71.6094 530.711 71.6094ZM531.395 89.2734V74.4121H530.041V89.2734H531.395ZM542.118 89.2734L547.861 74.4121H546.466L542.624 84.4883C542.232 85.5273 541.85 86.6667 541.476 87.9062H541.394C541.139 86.9401 540.756 85.8099 540.245 84.5156L536.404 74.4121H535.009L540.751 89.2734H542.118ZM557.477 89.5469C558.334 89.5469 559.117 89.4808 559.828 89.3486C560.539 89.2165 561.314 88.9681 562.153 88.6035V87.373C561.168 87.765 560.355 88.0202 559.712 88.1387C559.07 88.2572 558.324 88.3164 557.477 88.3164C555.736 88.3164 554.398 87.7786 553.464 86.7031C552.53 85.6276 552.054 84.069 552.035 82.0273H562.74V80.9336C562.74 78.8372 562.235 77.1784 561.223 75.957C560.211 74.7357 558.83 74.125 557.08 74.125C555.102 74.125 553.53 74.8382 552.364 76.2646C551.197 77.6911 550.614 79.5892 550.614 81.959C550.614 84.3561 551.217 86.2201 552.425 87.5508C553.633 88.8815 555.317 89.5469 557.477 89.5469ZM561.305 80.8242H552.117C552.263 79.0469 552.769 77.6865 553.635 76.7432C554.501 75.7998 555.649 75.3281 557.08 75.3281C558.402 75.3281 559.436 75.8135 560.184 76.7842C560.931 77.7549 561.305 79.1016 561.305 80.8242ZM569.321 89.2734V81.0703C569.321 79.4297 569.727 78.0716 570.538 76.9961C571.349 75.9206 572.389 75.3828 573.655 75.3828C574.321 75.3828 574.963 75.4603 575.583 75.6152L575.843 74.3164C575.123 74.1888 574.448 74.125 573.82 74.125C572.835 74.125 571.997 74.346 571.304 74.7881C570.611 75.2301 569.959 75.998 569.349 77.0918H569.253L569.116 74.4121H567.968V89.2734H569.321ZM583.381 89.5469C585.24 89.5469 586.676 89.1891 587.688 88.4736C588.699 87.7581 589.205 86.735 589.205 85.4043C589.205 84.7389 589.053 84.1602 588.747 83.668C588.442 83.1758 587.984 82.736 587.373 82.3486C586.762 81.9613 585.787 81.526 584.447 81.043C582.843 80.4688 581.765 79.9492 581.214 79.4844C580.663 79.0195 580.387 78.3997 580.387 77.625C580.387 76.9141 580.742 76.3581 581.453 75.957C582.164 75.556 583.126 75.3555 584.338 75.3555C585.587 75.3555 586.94 75.6562 588.399 76.2578L588.904 75.0273C587.464 74.4258 585.942 74.125 584.338 74.125C582.661 74.125 581.355 74.4486 580.421 75.0957C579.487 75.7428 579.02 76.6224 579.02 77.7344C579.02 78.4362 579.172 79.0309 579.478 79.5186C579.783 80.0062 580.236 80.4437 580.838 80.8311C581.44 81.2184 582.483 81.681 583.969 82.2188C585.354 82.7109 586.35 83.2122 586.956 83.7227C587.562 84.2331 587.865 84.862 587.865 85.6094C587.865 86.4206 587.485 87.07 586.724 87.5576C585.963 88.0452 584.848 88.2891 583.381 88.2891C581.722 88.2891 580.145 87.9154 578.651 87.168V88.6309C579.817 89.2415 581.394 89.5469 583.381 89.5469ZM597.632 89.5469C598.707 89.5469 599.639 89.3486 600.428 88.9521C601.216 88.5557 601.984 87.8789 602.732 86.9219H602.841L603.183 89.2734H604.181V79.3887C604.181 77.5931 603.777 76.2715 602.971 75.4238C602.164 74.5762 600.945 74.1523 599.314 74.1523C597.718 74.1523 596.105 74.5352 594.474 75.3008L594.98 76.4766C596.456 75.7109 597.883 75.3281 599.259 75.3281C600.535 75.3281 601.46 75.6882 602.034 76.4082C602.608 77.1283 602.896 78.1947 602.896 79.6074V80.5918L600.065 80.6738C597.778 80.7194 596.03 81.1432 594.822 81.9453C593.615 82.7474 593.011 83.873 593.011 85.3223C593.011 86.6439 593.416 87.6784 594.228 88.4258C595.039 89.1732 596.174 89.5469 597.632 89.5469ZM597.714 88.3164C596.675 88.3164 595.871 88.0589 595.301 87.5439C594.731 87.029 594.446 86.3066 594.446 85.377C594.446 84.2103 594.891 83.3512 595.779 82.7998C596.668 82.2484 598.156 81.9225 600.243 81.8223L602.841 81.7129V83.1758C602.841 84.7891 602.383 86.0492 601.467 86.9561C600.551 87.863 599.3 88.3164 597.714 88.3164ZM611.473 89.2734V68H610.119V89.2734H611.473Z" fill="#006CB4"/>
</svg>
