<svg width="655" height="96" viewBox="0 0 655 96" fill="none" xmlns="http://www.w3.org/2000/svg">
<path d="M329.843 15.748L337.392 37.6394L338.248 40.484L339.198 37.6394L345.921 15.748H350.071L339.877 44.1539L339.693 44.658L339.504 45.1601C338.169 48.6335 336.658 51.2463 334.988 52.9953L334.748 53.2393L334.514 53.4633L334.247 53.701C332.805 54.9375 331.058 55.6714 328.983 55.9035L328.59 55.9411L328.49 55.947V53.045L328.558 53.037L328.824 52.9976C332.172 52.443 334.639 49.7791 336.218 45.1783L336.344 44.801L336.453 44.4656L325.52 15.748H329.843ZM505.482 14.7368L505.982 14.7431L506.514 14.7636C508.821 14.8839 511.047 15.4099 513.196 16.3436L513.656 16.5499L514.035 16.731V19.089L513.974 19.0545L513.542 18.8223C511.088 17.5435 508.596 16.9009 506.071 16.9009C504.367 16.9009 502.932 17.2403 501.779 17.9377C500.484 18.7214 499.823 20.0029 499.823 21.6486C499.823 23.2157 500.532 24.5042 501.883 25.4207C502.983 26.1675 504.615 26.8977 506.794 27.6288L507.55 27.8807L509.153 28.4295L509.954 28.7135L510.308 28.8451L510.507 28.9255L510.72 29.0155L511.184 29.224L511.436 29.3425L511.976 29.6079C512.165 29.7027 512.362 29.8038 512.567 29.9111C513.54 30.4199 514.25 30.9155 514.696 31.3817C515.147 31.8536 515.571 32.499 515.96 33.3201C516.327 34.0949 516.512 34.9598 516.512 35.9255C516.512 38.3466 515.57 40.2303 513.642 41.6673C511.735 43.0885 509.171 43.8411 505.928 43.9038L505.482 43.9081L504.997 43.9038L504.469 43.8891C501.505 43.7759 498.965 43.1582 496.84 42.0432L496.469 41.8413L496.279 41.73V39.355L496.538 39.4903L497 39.7208C499.76 41.0661 502.35 41.744 504.774 41.744C509.585 41.744 512.261 39.9771 512.261 36.4609C512.261 35.7418 512.093 35.0636 511.759 34.4412C511.45 33.8665 511.084 33.3867 510.658 33.0073C510.247 32.6412 509.64 32.2626 508.822 31.8501L508.534 31.7067L508.256 31.5727L507.733 31.333C507.482 31.2225 507.248 31.1261 507.028 31.0437L504.405 30.1068L503.642 29.8214L502.933 29.549L501.973 29.1653L501.403 28.9263L501.139 28.8118L500.653 28.5932C499.772 28.186 498.886 27.6553 497.995 27C497.185 26.4044 496.608 25.7144 496.248 24.9231C495.879 24.1095 495.689 23.1193 495.689 21.9461C495.689 20.4691 496.03 19.2333 496.703 18.2144C497.38 17.19 498.245 16.4688 499.315 16.0303C500.514 15.5388 501.601 15.2015 502.572 15.0166C503.39 14.8611 504.199 14.7705 505.001 14.7446L505.482 14.7368ZM555.593 14.7368C558.96 14.7368 561.542 15.7699 563.412 17.8376L563.617 18.0716L563.811 18.309L563.999 18.5544C565.597 20.7165 566.442 23.7862 566.502 27.786L566.505 28.2517L566.505 29.452L547.271 29.4527L547.283 30.8801L547.294 31.3009C547.407 34.6341 548.198 37.1733 549.709 38.9033C551.312 40.7389 553.723 41.6734 556.877 41.7402L557.244 41.744L557.624 41.7383L558.052 41.7186C560.203 41.5847 562.483 40.9213 564.893 39.737L565.377 39.4932L565.62 39.364V41.585L565.266 41.7741C562.509 43.1953 559.483 43.9081 556.182 43.9081C551.663 43.9081 548.419 42.6505 546.367 40.1666C544.27 37.6274 543.205 34.0242 543.205 29.3225C543.205 24.8595 544.297 21.3147 546.461 18.6504C548.582 16.0399 551.596 14.7368 555.593 14.7368ZM442.691 14.7368C446.281 14.7368 448.732 15.4232 450.076 16.7158L450.22 16.8619L450.384 17.0432L450.541 17.2329C451.614 18.5868 452.191 20.5517 452.244 23.1567L452.248 23.5522L452.247 43.194H448.533L448.011 38.8318L446.242 40.2577L445.886 40.5342C442.921 42.7925 439.991 43.9081 437.089 43.9081C434.504 43.9081 432.565 43.2327 431.214 41.9048C429.856 40.5699 429.184 38.8947 429.184 36.8178C429.184 35.7154 429.385 34.6616 429.79 33.6498C430.191 32.6479 430.865 31.6556 431.82 30.6742C432.732 29.7368 434.161 28.9526 436.118 28.344C437.984 27.7635 440.223 27.4509 442.834 27.4118L443.399 27.4076H448.055V24.8014L448.053 24.4515L448.043 24.0859C447.956 21.5609 447.396 19.7465 446.284 18.6472C445.139 17.5155 443.364 16.9555 440.988 16.9047L440.627 16.9009L440.3 16.9056L439.953 16.9205C437.629 17.0534 434.97 17.8634 431.963 19.3393L431.485 19.5779L431.188 19.73V17.3L431.739 17.0647C435.46 15.5118 439.111 14.7368 442.691 14.7368ZM241.826 14.7368C245.604 14.7368 248.588 15.9645 250.85 18.4284C253.12 20.902 254.272 24.5182 254.272 29.3225C254.272 34.0892 253.129 37.6977 250.874 40.1924C248.668 42.6731 245.679 43.9081 241.826 43.9081C237.972 43.9081 234.972 42.6722 232.752 40.1954C230.515 37.7005 229.38 34.0906 229.38 29.3225C229.38 24.5182 230.532 20.902 232.803 18.4284C235.064 15.9645 238.049 14.7368 241.826 14.7368ZM150.73 0.255L150.731 17.5945L152.648 16.5849L153.099 16.3608C155.352 15.2765 157.55 14.7368 159.692 14.7368C163.051 14.7368 165.546 15.8535 167.275 18.0951C169.049 20.3962 169.956 23.8145 169.956 28.3707C169.956 33.5815 168.806 37.4652 166.546 40.0571C164.308 42.6243 161.185 43.9081 157.097 43.9081C155.661 43.9081 154.003 43.7001 152.126 43.2814L151.609 43.162L151.047 43.0221L150.497 42.8729C149.409 42.5651 148.391 42.2017 147.443 41.7829L146.974 41.5688L146.597 41.384V1.258L150.73 0.255ZM126.38 14.7368C129.748 14.7368 132.33 15.7699 134.2 17.8376L134.405 18.0716L134.599 18.309L134.787 18.5544C136.385 20.7165 137.229 23.7862 137.29 27.786L137.293 28.2517L137.293 29.452L118.059 29.4527L118.071 30.8801L118.082 31.3009C118.195 34.6341 118.986 37.1733 120.496 38.9033C122.1 40.7389 124.511 41.6734 127.665 41.7402L128.032 41.744L128.412 41.7383L128.84 41.7186C130.991 41.5847 133.27 40.9213 135.681 39.737L136.165 39.4932L136.408 39.364V41.585L136.053 41.7741C133.297 43.1953 130.271 43.9081 126.97 43.9081C122.451 43.9081 119.207 42.6505 117.155 40.1666C115.057 37.6274 113.993 34.0242 113.993 29.3225C113.993 24.8595 115.085 21.3147 117.249 18.6504C119.37 16.0399 122.384 14.7368 126.38 14.7368ZM308.391 14.7368C311.759 14.7368 314.341 15.7699 316.211 17.8376L316.415 18.0716L316.61 18.309L316.798 18.5544C318.396 20.7165 319.24 23.7862 319.3 27.786L319.304 28.2517L319.303 29.452L300.07 29.4527L300.082 30.8801L300.092 31.3009C300.206 34.6341 300.996 37.1733 302.507 38.9033C304.11 40.7389 306.522 41.6734 309.675 41.7402L310.042 41.744L310.423 41.7383L310.851 41.7186C313.001 41.5847 315.281 40.9213 317.691 39.737L318.175 39.4932L318.419 39.364V41.584L318.064 41.7741C315.308 43.1953 312.282 43.9081 308.981 43.9081C304.461 43.9081 301.218 42.6505 299.166 40.1666C297.068 37.6274 296.004 34.0242 296.004 29.3225C296.004 24.8595 297.095 21.3147 299.259 18.6504C301.38 16.0399 304.395 14.7368 308.391 14.7368ZM539.385 0V2.053L539.025 2.07454C532.871 2.49853 529.594 5.88246 529.481 11.9799L529.478 12.3091V16.1645L538.512 16.164L537.726 18.447L529.478 18.4476L529.478 43.194H525.344L525.345 12.5471L525.349 12.1275L525.361 11.7215C525.517 7.70002 526.854 4.82234 529.355 3.00543C531.72 1.28791 534.747 0.297473 538.453 0.0473291L538.94 0.0189009L539.385 0ZM477.478 14.7368C480.613 14.7368 482.818 15.3316 484.119 16.4578L484.276 16.6013L484.439 16.7642L484.594 16.936C485.606 18.1112 486.155 19.8849 486.205 22.2938L486.208 22.6599L486.208 43.194H482.074L482.075 24.0281L482.072 23.6957L482.061 23.375C481.97 21.2666 481.431 19.751 480.359 18.8578C479.253 17.9365 477.712 17.4958 475.767 17.4958C473.363 17.4958 470.937 18.1782 468.498 19.5291L468.067 19.7744L467.572 20.0641L467.572 43.194H463.439V18.706L463.955 18.4113C468.322 15.9599 472.827 14.7368 477.478 14.7368ZM185.837 3.017L199.048 36.2712L199.748 38.984L200.712 36.2712L213.332 3.017H218.955V43.194H214.586L214.748 5.984L212.374 12.6178L200.343 43.194H197.925L185.895 13.3317L183.748 6.984L183.689 13.3317L183.688 43.194H180.381V3.017H185.837ZM396.534 3.017V5.895L384.268 5.89579L384.267 43.194H379.898L379.898 5.89579L367.631 5.895V3.017H396.534ZM65.541 3.017L72.1464 34.4866L73.248 38.984L74.1567 34.4866L81.823 3.017H85.513L93.7111 34.4866L94.748 38.984L95.7237 34.4866L101.739 3.017H106.559L97.459 43.194H92.654L84.6342 13.5102L83.748 7.984L82.6842 13.5102L74.899 43.194H70.101L61 3.017H65.541ZM417.636 14.7368C419.737 14.7368 421.313 15.1497 422.389 15.9418L422.574 16.0856L422.708 16.2034L422.837 16.3308C423.632 17.1653 424.077 18.5712 424.122 20.5922L424.126 20.9348L424.125 23.018L420.464 23.98L420.464 23.0168L420.461 22.7353L420.451 22.46C420.296 19.2878 418.78 17.4958 416.044 17.4958C413.898 17.4958 411.639 18.2517 409.266 19.7387L408.89 19.9795L408.438 20.2757L408.438 43.194H404.305V18.996L404.401 18.9384L405.018 18.579C406.882 17.5213 408.864 16.6493 410.957 15.9665C413.478 15.1445 415.706 14.7368 417.636 14.7368ZM277.851 14.7368C280.986 14.7368 283.192 15.3316 284.492 16.4578L284.65 16.6013L284.812 16.7642L284.967 16.936C285.98 18.1112 286.528 19.8849 286.578 22.2938L286.582 22.6599L286.581 43.194H282.448L282.448 24.0281L282.445 23.6957L282.435 23.375C282.344 21.2666 281.804 19.751 280.732 18.8578C279.626 17.9365 278.086 17.4958 276.141 17.4958C273.736 17.4958 271.31 18.1782 268.871 19.5291L268.44 19.7744L267.946 20.0641L267.945 43.194H263.812V18.707L264.328 18.4113C268.695 15.9599 273.2 14.7368 277.851 14.7368ZM589.258 14.7368C591.359 14.7368 592.935 15.1497 594.011 15.9418L594.196 16.0856L594.331 16.2034L594.46 16.3308C595.255 17.1653 595.7 18.5712 595.744 20.5922L595.748 20.9348V23.018L592.086 23.98L592.086 23.0168L592.083 22.7353L592.073 22.46C591.919 19.2878 590.402 17.4958 587.666 17.4958C585.521 17.4958 583.261 18.2517 580.888 19.7387L580.512 19.9795L580.061 20.2757L580.06 43.194H575.927V18.996L576.023 18.9384L576.64 18.579C578.505 17.5213 580.486 16.6493 582.58 15.9665C585.1 15.1445 587.328 14.7368 589.258 14.7368ZM241.826 16.9009C239.41 16.9009 237.384 18.0154 235.826 20.1705C234.308 22.2704 233.572 25.3234 233.572 29.3225C233.572 33.3947 234.264 36.4593 235.698 38.5194C237.182 40.6509 239.257 41.744 241.826 41.744C244.396 41.744 246.471 40.6509 247.955 38.5194C249.389 36.4593 250.08 33.3947 250.08 29.3225C250.08 25.3278 249.367 22.2796 247.893 20.1816C246.373 18.017 244.322 16.9009 241.826 16.9009ZM158.1 17.3768C156.104 17.3768 153.939 18.0042 151.601 19.2409L151.187 19.4655L150.672 19.7511V40.4599L151.584 40.8385L151.92 40.9643C153.392 41.4886 155.114 41.744 157.097 41.744C162.888 41.744 165.764 37.1015 165.764 28.3707C165.764 21.221 163.201 17.3768 158.1 17.3768ZM448.114 29.5717H443.989L443.622 29.5738L443.26 29.5801C436.801 29.7327 433.317 31.9708 433.317 36.3419C433.317 37.9943 433.885 39.2847 435.035 40.1017C436.079 40.8437 437.363 41.2086 438.858 41.2086C440.671 41.2086 442.421 40.7729 444.094 39.9071C445.624 39.1161 446.828 38.2007 447.699 37.1534L447.91 36.8889L448.114 36.6203V29.5717ZM126.204 16.7225C124.06 16.7225 122.231 17.5865 120.785 19.2726C119.446 20.8343 118.608 23.0559 118.243 25.924L118.191 26.3591L118.071 27.4671H133.746L133.689 26.4136L133.663 25.9909C133.452 23.0642 132.707 20.812 131.392 19.2497C129.987 17.582 128.236 16.7225 126.204 16.7225ZM555.416 16.7225C553.272 16.7225 551.443 17.5865 549.997 19.2726C548.658 20.8343 547.821 23.0559 547.455 25.924L547.403 26.3591L547.283 27.4671H562.958L562.901 26.4136L562.875 25.9909C562.664 23.0642 561.919 20.812 560.604 19.2497C559.2 17.582 557.448 16.7225 555.416 16.7225ZM308.214 16.7225C306.071 16.7225 304.242 17.5865 302.796 19.2726C301.457 20.8343 300.619 23.0559 300.253 25.924L300.202 26.3591L300.082 27.4671H315.756L315.7 26.4136L315.673 25.9909C315.462 23.0642 314.718 20.812 313.402 19.2497C311.998 17.582 310.247 16.7225 308.214 16.7225Z" fill="#006CB4"/>
<path d="M145.072 89.5469C147.542 89.5469 149.26 88.7721 150.227 87.2227H150.309L150.555 89.2734H151.703V74.4121H150.363V82.6152C150.363 84.6296 149.946 86.0833 149.112 86.9766C148.278 87.8698 146.977 88.3164 145.209 88.3164C143.887 88.3164 142.912 87.9769 142.283 87.2979C141.654 86.6188 141.34 85.5319 141.34 84.0371V74.4121H140V84.1191C140 87.7376 141.691 89.5469 145.072 89.5469ZM159.159 89.2734V81.0703C159.159 79.056 159.572 77.5999 160.396 76.7021C161.221 75.8044 162.522 75.3555 164.3 75.3555C165.621 75.3555 166.597 75.695 167.226 76.374C167.854 77.0531 168.169 78.14 168.169 79.6348V89.2734H169.509V79.5527C169.509 75.9342 167.823 74.125 164.45 74.125C161.98 74.125 160.262 74.8997 159.296 76.4492H159.214L158.954 74.4121H157.806V89.2734H159.159ZM176.117 71.6094C176.4 71.6094 176.621 71.4909 176.78 71.2539C176.94 71.0169 177.019 70.6934 177.019 70.2832C177.019 69.8639 176.94 69.5404 176.78 69.3125C176.621 69.0846 176.4 68.9707 176.117 68.9707C175.543 68.9707 175.256 69.4082 175.256 70.2832C175.256 71.1673 175.543 71.6094 176.117 71.6094ZM176.801 89.2734V74.4121H175.447V89.2734H176.801ZM187.524 89.2734L193.266 74.4121H191.872L188.03 84.4883C187.638 85.5273 187.255 86.6667 186.882 87.9062H186.8C186.544 86.9401 186.162 85.8099 185.651 84.5156L181.809 74.4121H180.415L186.157 89.2734H187.524ZM202.883 89.5469C203.739 89.5469 204.523 89.4808 205.234 89.3486C205.945 89.2165 206.72 88.9681 207.558 88.6035V87.373C206.574 87.765 205.761 88.0202 205.118 88.1387C204.475 88.2572 203.73 88.3164 202.883 88.3164C201.142 88.3164 199.804 87.7786 198.87 86.7031C197.936 85.6276 197.459 84.069 197.441 82.0273H208.146V80.9336C208.146 78.8372 207.64 77.1784 206.629 75.957C205.617 74.7357 204.236 74.125 202.486 74.125C200.508 74.125 198.936 74.8382 197.769 76.2646C196.603 77.6911 196.019 79.5892 196.019 81.959C196.019 84.3561 196.623 86.2201 197.831 87.5508C199.039 88.8815 200.722 89.5469 202.883 89.5469ZM206.711 80.8242H197.523C197.669 79.0469 198.175 77.6865 199.041 76.7432C199.907 75.7998 201.055 75.3281 202.486 75.3281C203.808 75.3281 204.842 75.8135 205.59 76.7842C206.337 77.7549 206.711 79.1016 206.711 80.8242ZM214.727 89.2734V81.0703C214.727 79.4297 215.133 78.0716 215.944 76.9961C216.755 75.9206 217.794 75.3828 219.061 75.3828C219.727 75.3828 220.369 75.4603 220.989 75.6152L221.249 74.3164C220.529 74.1888 219.854 74.125 219.225 74.125C218.241 74.125 217.402 74.346 216.71 74.7881C216.017 75.2301 215.365 75.998 214.755 77.0918H214.659L214.522 74.4121H213.374V89.2734H214.727ZM228.787 89.5469C230.646 89.5469 232.082 89.1891 233.093 88.4736C234.105 87.7581 234.611 86.735 234.611 85.4043C234.611 84.7389 234.458 84.1602 234.153 83.668C233.848 83.1758 233.39 82.736 232.779 82.3486C232.168 81.9613 231.193 81.526 229.853 81.043C228.249 80.4688 227.171 79.9492 226.62 79.4844C226.068 79.0195 225.793 78.3997 225.793 77.625C225.793 76.9141 226.148 76.3581 226.859 75.957C227.57 75.556 228.532 75.3555 229.744 75.3555C230.993 75.3555 232.346 75.6562 233.804 76.2578L234.31 75.0273C232.87 74.4258 231.348 74.125 229.744 74.125C228.067 74.125 226.761 74.4486 225.827 75.0957C224.893 75.7428 224.425 76.6224 224.425 77.7344C224.425 78.4362 224.578 79.0309 224.883 79.5186C225.189 80.0062 225.642 80.4437 226.244 80.8311C226.845 81.2184 227.889 81.681 229.375 82.2188C230.76 82.7109 231.756 83.2122 232.362 83.7227C232.968 84.2331 233.271 84.862 233.271 85.6094C233.271 86.4206 232.891 87.07 232.13 87.5576C231.369 88.0452 230.254 88.2891 228.787 88.2891C227.128 88.2891 225.551 87.9154 224.056 87.168V88.6309C225.223 89.2415 226.8 89.5469 228.787 89.5469ZM243.038 89.5469C244.113 89.5469 245.045 89.3486 245.834 88.9521C246.622 88.5557 247.39 87.8789 248.137 86.9219H248.247L248.589 89.2734H249.587V79.3887C249.587 77.5931 249.183 76.2715 248.377 75.4238C247.57 74.5762 246.351 74.1523 244.719 74.1523C243.124 74.1523 241.511 74.5352 239.88 75.3008L240.385 76.4766C241.862 75.7109 243.288 75.3281 244.665 75.3281C245.941 75.3281 246.866 75.6882 247.44 76.4082C248.014 77.1283 248.301 78.1947 248.301 79.6074V80.5918L245.471 80.6738C243.184 80.7194 241.436 81.1432 240.228 81.9453C239.02 82.7474 238.417 83.873 238.417 85.3223C238.417 86.6439 238.822 87.6784 239.633 88.4258C240.445 89.1732 241.579 89.5469 243.038 89.5469ZM243.12 88.3164C242.081 88.3164 241.276 88.0589 240.707 87.5439C240.137 87.029 239.852 86.3066 239.852 85.377C239.852 84.2103 240.297 83.3512 241.185 82.7998C242.074 82.2484 243.562 81.9225 245.649 81.8223L248.247 81.7129V83.1758C248.247 84.7891 247.789 86.0492 246.873 86.9561C245.957 87.863 244.706 88.3164 243.12 88.3164ZM256.878 89.2734V68H255.525V89.2734H256.878ZM274.771 89.5469C276.63 89.5469 278.066 89.1891 279.078 88.4736C280.089 87.7581 280.595 86.735 280.595 85.4043C280.595 84.7389 280.443 84.1602 280.137 83.668C279.832 83.1758 279.374 82.736 278.763 82.3486C278.152 81.9613 277.177 81.526 275.837 81.043C274.233 80.4688 273.155 79.9492 272.604 79.4844C272.053 79.0195 271.777 78.3997 271.777 77.625C271.777 76.9141 272.132 76.3581 272.843 75.957C273.554 75.556 274.516 75.3555 275.728 75.3555C276.977 75.3555 278.33 75.6562 279.789 76.2578L280.294 75.0273C278.854 74.4258 277.332 74.125 275.728 74.125C274.051 74.125 272.745 74.4486 271.811 75.0957C270.877 75.7428 270.41 76.6224 270.41 77.7344C270.41 78.4362 270.562 79.0309 270.868 79.5186C271.173 80.0062 271.626 80.4437 272.228 80.8311C272.83 81.2184 273.873 81.681 275.359 82.2188C276.744 82.7109 277.74 83.2122 278.346 83.7227C278.952 84.2331 279.255 84.862 279.255 85.6094C279.255 86.4206 278.875 87.07 278.114 87.5576C277.353 88.0452 276.238 88.2891 274.771 88.2891C273.112 88.2891 271.535 87.9154 270.041 87.168V88.6309C271.207 89.2415 272.784 89.5469 274.771 89.5469ZM291.551 89.5469C292.408 89.5469 293.192 89.4808 293.903 89.3486C294.614 89.2165 295.388 88.9681 296.227 88.6035V87.373C295.243 87.765 294.429 88.0202 293.787 88.1387C293.144 88.2572 292.399 88.3164 291.551 88.3164C289.81 88.3164 288.473 87.7786 287.538 86.7031C286.604 85.6276 286.128 84.069 286.11 82.0273H296.815V80.9336C296.815 78.8372 296.309 77.1784 295.297 75.957C294.286 74.7357 292.905 74.125 291.155 74.125C289.177 74.125 287.605 74.8382 286.438 76.2646C285.271 77.6911 284.688 79.5892 284.688 81.959C284.688 84.3561 285.292 86.2201 286.499 87.5508C287.707 88.8815 289.391 89.5469 291.551 89.5469ZM295.379 80.8242H286.192C286.338 79.0469 286.844 77.6865 287.709 76.7432C288.575 75.7998 289.724 75.3281 291.155 75.3281C292.476 75.3281 293.511 75.8135 294.258 76.7842C295.006 77.7549 295.379 79.1016 295.379 80.8242ZM305.939 89.5469C306.796 89.5469 307.552 89.4375 308.208 89.2188V88.125C307.57 88.2708 306.823 88.3438 305.966 88.3438C305.109 88.3438 304.481 88.0703 304.079 87.5234C303.678 86.9766 303.478 86.1335 303.478 84.9941V75.5879H307.839V74.4121H303.478V70.8164H302.781L302.097 74.1797L299.896 74.7949V75.5879H302.097V85.1855C302.097 86.6895 302.409 87.7923 303.034 88.4941C303.658 89.196 304.626 89.5469 305.939 89.5469ZM316.444 89.5469C317.3 89.5469 318.057 89.4375 318.713 89.2188V88.125C318.075 88.2708 317.328 88.3438 316.471 88.3438C315.614 88.3438 314.985 88.0703 314.584 87.5234C314.183 86.9766 313.983 86.1335 313.983 84.9941V75.5879H318.344V74.4121H313.983V70.8164H313.285L312.602 74.1797L310.401 74.7949V75.5879H312.602V85.1855C312.602 86.6895 312.914 87.7923 313.538 88.4941C314.163 89.196 315.131 89.5469 316.444 89.5469ZM324.406 89.2734V68H323.052V89.2734H324.406ZM336.51 89.5469C337.367 89.5469 338.151 89.4808 338.862 89.3486C339.572 89.2165 340.347 88.9681 341.186 88.6035V87.373C340.201 87.765 339.388 88.0202 338.745 88.1387C338.103 88.2572 337.358 88.3164 336.51 88.3164C334.769 88.3164 333.432 87.7786 332.497 86.7031C331.563 85.6276 331.087 84.069 331.069 82.0273H341.774V80.9336C341.774 78.8372 341.268 77.1784 340.256 75.957C339.244 74.7357 337.864 74.125 336.114 74.125C334.136 74.125 332.563 74.8382 331.397 76.2646C330.23 77.6911 329.647 79.5892 329.647 81.959C329.647 84.3561 330.251 86.2201 331.458 87.5508C332.666 88.8815 334.35 89.5469 336.51 89.5469ZM340.338 80.8242H331.151C331.296 79.0469 331.802 77.6865 332.668 76.7432C333.534 75.7998 334.683 75.3281 336.114 75.3281C337.435 75.3281 338.47 75.8135 339.217 76.7842C339.964 77.7549 340.338 79.1016 340.338 80.8242ZM348.355 89.2734V81.0703C348.355 79.0742 348.71 77.6227 349.421 76.7158C350.132 75.8089 351.267 75.3555 352.825 75.3555C355.122 75.3555 356.271 76.6087 356.271 79.1152V89.2734H357.652V80.5645C357.652 78.7689 358.016 77.4518 358.745 76.6133C359.474 75.7747 360.6 75.3555 362.122 75.3555C363.289 75.3555 364.155 75.6882 364.72 76.3535C365.285 77.0189 365.568 78.0762 365.568 79.5254V89.2734H366.907V79.5527C366.907 77.666 366.502 76.2897 365.691 75.4238C364.879 74.5579 363.663 74.125 362.04 74.125C361.001 74.125 360.074 74.3529 359.258 74.8086C358.442 75.2643 357.793 75.916 357.31 76.7637H357.255C356.59 75.0046 355.086 74.125 352.743 74.125C351.832 74.125 350.998 74.3278 350.241 74.7334C349.485 75.139 348.902 75.7109 348.491 76.4492H348.409L348.122 74.4121H347.001V89.2734H348.355ZM378.848 89.5469C379.705 89.5469 380.488 89.4808 381.199 89.3486C381.91 89.2165 382.685 88.9681 383.524 88.6035V87.373C382.539 87.765 381.726 88.0202 381.083 88.1387C380.441 88.2572 379.695 88.3164 378.848 88.3164C377.107 88.3164 375.769 87.7786 374.835 86.7031C373.901 85.6276 373.425 84.069 373.406 82.0273H384.111V80.9336C384.111 78.8372 383.606 77.1784 382.594 75.957C381.582 74.7357 380.201 74.125 378.451 74.125C376.473 74.125 374.901 74.8382 373.734 76.2646C372.568 77.6911 371.984 79.5892 371.984 81.959C371.984 84.3561 372.588 86.2201 373.796 87.5508C375.004 88.8815 376.688 89.5469 378.848 89.5469ZM382.676 80.8242H373.488C373.634 79.0469 374.14 77.6865 375.006 76.7432C375.872 75.7998 377.02 75.3281 378.451 75.3281C379.773 75.3281 380.807 75.8135 381.555 76.7842C382.302 77.7549 382.676 79.1016 382.676 80.8242ZM390.692 89.2734V81.0703C390.692 79.056 391.105 77.5999 391.93 76.7021C392.755 75.8044 394.056 75.3555 395.833 75.3555C397.155 75.3555 398.13 75.695 398.759 76.374C399.388 77.0531 399.702 78.14 399.702 79.6348V89.2734H401.042V79.5527C401.042 75.9342 399.356 74.125 395.983 74.125C393.513 74.125 391.795 74.8997 390.829 76.4492H390.747L390.487 74.4121H389.339V89.2734H390.692ZM410.877 89.5469C411.734 89.5469 412.49 89.4375 413.146 89.2188V88.125C412.508 88.2708 411.761 88.3438 410.904 88.3438C410.048 88.3438 409.419 88.0703 409.018 87.5234C408.617 86.9766 408.416 86.1335 408.416 84.9941V75.5879H412.777V74.4121H408.416V70.8164H407.719L407.035 74.1797L404.834 74.7949V75.5879H407.035V85.1855C407.035 86.6895 407.347 87.7923 407.972 88.4941C408.596 89.196 409.564 89.5469 410.877 89.5469ZM429.275 89.5469C431.135 89.5469 432.57 89.1891 433.582 88.4736C434.594 87.7581 435.099 86.735 435.099 85.4043C435.099 84.7389 434.947 84.1602 434.641 83.668C434.336 83.1758 433.878 82.736 433.267 82.3486C432.657 81.9613 431.682 81.526 430.342 81.043C428.738 80.4688 427.66 79.9492 427.108 79.4844C426.557 79.0195 426.281 78.3997 426.281 77.625C426.281 76.9141 426.637 76.3581 427.348 75.957C428.058 75.556 429.02 75.3555 430.232 75.3555C431.481 75.3555 432.835 75.6562 434.293 76.2578L434.799 75.0273C433.359 74.4258 431.836 74.125 430.232 74.125C428.555 74.125 427.25 74.4486 426.315 75.0957C425.381 75.7428 424.914 76.6224 424.914 77.7344C424.914 78.4362 425.067 79.0309 425.372 79.5186C425.677 80.0062 426.131 80.4437 426.732 80.8311C427.334 81.2184 428.377 81.681 429.863 82.2188L430.176 82.3325C431.399 82.7881 432.291 83.2515 432.85 83.7227C433.457 84.2331 433.76 84.862 433.76 85.6094C433.76 86.4206 433.379 87.07 432.618 87.5576C431.857 88.0452 430.743 88.2891 429.275 88.2891C427.616 88.2891 426.04 87.9154 424.545 87.168V88.6309C425.711 89.2415 427.288 89.5469 429.275 89.5469ZM439.356 96C440.049 96 440.639 95.877 441.127 95.6309C441.614 95.3848 442.041 95.0156 442.405 94.5234C442.77 94.0312 443.221 93.0833 443.759 91.6797L450.417 74.4121H449.022L445.878 82.6699C445.012 85.0033 444.388 86.7578 444.005 87.9336H443.923C443.668 87.0404 443.061 85.3132 442.104 82.752L438.96 74.4121H437.565L443.253 89.2734C443.143 89.5742 442.9 90.2236 442.521 91.2217C442.143 92.2197 441.81 92.9489 441.523 93.4092C441.236 93.8695 440.915 94.209 440.559 94.4277C440.204 94.6465 439.794 94.7559 439.329 94.7559C438.718 94.7559 438.149 94.6829 437.62 94.5371V95.7129C438.258 95.9043 438.837 96 439.356 96ZM457.422 89.5469C459.281 89.5469 460.717 89.1891 461.728 88.4736C462.74 87.7581 463.246 86.735 463.246 85.4043C463.246 84.7389 463.093 84.1602 462.788 83.668C462.483 83.1758 462.025 82.736 461.414 82.3486C460.803 81.9613 459.828 81.526 458.488 81.043C456.884 80.4688 455.806 79.9492 455.255 79.4844C454.703 79.0195 454.428 78.3997 454.428 77.625C454.428 76.9141 454.783 76.3581 455.494 75.957C456.205 75.556 457.166 75.3555 458.379 75.3555C459.627 75.3555 460.981 75.6562 462.439 76.2578L462.945 75.0273C461.505 74.4258 459.983 74.125 458.379 74.125C456.702 74.125 455.396 74.4486 454.462 75.0957C453.527 75.7428 453.06 76.6224 453.06 77.7344C453.06 78.4362 453.213 79.0309 453.518 79.5186C453.824 80.0062 454.277 80.4437 454.879 80.8311C455.48 81.2184 456.524 81.681 458.01 82.2188C459.395 82.7109 460.391 83.2122 460.997 83.7227C461.603 84.2331 461.906 84.862 461.906 85.6094C461.906 86.4206 461.526 87.07 460.764 87.5576C460.003 88.0452 458.889 88.2891 457.422 88.2891C455.763 88.2891 454.186 87.9154 452.691 87.168V88.6309C453.858 89.2415 455.435 89.5469 457.422 89.5469ZM472.096 89.5469C472.953 89.5469 473.71 89.4375 474.366 89.2188V88.125C473.728 88.2708 472.981 88.3438 472.124 88.3438C471.267 88.3438 470.638 88.0703 470.237 87.5234C469.836 86.9766 469.635 86.1335 469.635 84.9941V75.5879H473.997V74.4121H469.635V70.8164H468.938L468.255 74.1797L466.053 74.7949V75.5879H468.255V85.1855C468.255 86.6895 468.567 87.7923 469.191 88.4941C469.816 89.196 470.784 89.5469 472.096 89.5469ZM484.707 89.5469C485.563 89.5469 486.347 89.4808 487.058 89.3486C487.769 89.2165 488.544 88.9681 489.383 88.6035V87.373C488.398 87.765 487.585 88.0202 486.942 88.1387C486.299 88.2572 485.554 88.3164 484.707 88.3164C482.966 88.3164 481.628 87.7786 480.694 86.7031C479.76 85.6276 479.284 84.069 479.265 82.0273H489.97V80.9336C489.97 78.8372 489.465 77.1784 488.453 75.957C487.441 74.7357 486.06 74.125 484.31 74.125C482.332 74.125 480.76 74.8382 479.593 76.2646C478.427 77.6911 477.843 79.5892 477.843 81.959C477.843 84.3561 478.447 86.2201 479.655 87.5508C480.863 88.8815 482.547 89.5469 484.707 89.5469ZM488.535 80.8242H479.347C479.493 79.0469 479.999 77.6865 480.865 76.7432C481.731 75.7998 482.879 75.3281 484.31 75.3281C485.632 75.3281 486.666 75.8135 487.414 76.7842C488.161 77.7549 488.535 79.1016 488.535 80.8242ZM496.551 89.2734V81.0703C496.551 79.0742 496.907 77.6227 497.618 76.7158C498.329 75.8089 499.464 75.3555 501.022 75.3555C503.319 75.3555 504.467 76.6087 504.467 79.1152V89.2734H505.848V80.5645C505.848 78.7689 506.213 77.4518 506.942 76.6133C507.671 75.7747 508.797 75.3555 510.319 75.3555C511.486 75.3555 512.352 75.6882 512.917 76.3535C513.482 77.0189 513.764 78.0762 513.764 79.5254V89.2734H515.104V79.5527C515.104 77.666 514.699 76.2897 513.887 75.4238C513.076 74.5579 511.859 74.125 510.237 74.125C509.198 74.125 508.27 74.3529 507.455 74.8086C506.639 75.2643 505.99 75.916 505.506 76.7637H505.452C504.786 75.0046 503.283 74.125 500.94 74.125C500.029 74.125 499.195 74.3278 498.438 74.7334C497.682 75.139 497.098 75.7109 496.688 76.4492H496.606L496.319 74.4121H495.198V89.2734H496.551Z" fill="#006CB4"/>
</svg>
