<svg width="655" height="96" viewBox="0 0 655 96" fill="none" xmlns="http://www.w3.org/2000/svg">
<path d="M329.843 15.748L337.392 37.6394L338.248 40.484L339.198 37.6394L345.921 15.748H350.071L339.877 44.1539L339.693 44.658L339.504 45.1601C338.169 48.6335 336.658 51.2463 334.988 52.9953L334.748 53.2393L334.514 53.4633L334.247 53.701C332.805 54.9375 331.058 55.6714 328.983 55.9035L328.59 55.9411L328.49 55.947V53.045L328.558 53.037L328.824 52.9976C332.172 52.443 334.639 49.7791 336.218 45.1783L336.344 44.801L336.453 44.4656L325.52 15.748H329.843ZM505.482 14.7368L505.982 14.7431L506.514 14.7636C508.821 14.8839 511.047 15.4099 513.196 16.3436L513.656 16.5499L514.035 16.731V19.089L513.974 19.0545L513.542 18.8223C511.088 17.5435 508.596 16.9009 506.071 16.9009C504.367 16.9009 502.932 17.2403 501.779 17.9377C500.484 18.7214 499.823 20.0029 499.823 21.6486C499.823 23.2157 500.532 24.5042 501.883 25.4207C502.983 26.1675 504.615 26.8977 506.794 27.6288L507.55 27.8807L509.153 28.4295L509.954 28.7135L510.308 28.8451L510.507 28.9255L510.72 29.0155L511.184 29.224L511.436 29.3425L511.976 29.6079C512.165 29.7027 512.362 29.8038 512.567 29.9111C513.54 30.4199 514.25 30.9155 514.696 31.3817C515.147 31.8536 515.571 32.499 515.96 33.3201C516.327 34.0949 516.512 34.9598 516.512 35.9255C516.512 38.3466 515.57 40.2303 513.642 41.6673C511.735 43.0885 509.171 43.8411 505.928 43.9038L505.482 43.9081L504.997 43.9038L504.469 43.8891C501.505 43.7759 498.965 43.1582 496.84 42.0432L496.469 41.8413L496.279 41.73V39.355L496.538 39.4903L497 39.7208C499.76 41.0661 502.35 41.744 504.774 41.744C509.585 41.744 512.261 39.9771 512.261 36.4609C512.261 35.7418 512.093 35.0636 511.759 34.4412C511.45 33.8665 511.084 33.3867 510.658 33.0073C510.247 32.6412 509.64 32.2626 508.822 31.8501L508.534 31.7067L508.256 31.5727L507.733 31.333C507.482 31.2225 507.248 31.1261 507.028 31.0437L504.405 30.1068L503.642 29.8214L502.933 29.549L501.973 29.1653L501.403 28.9263L501.139 28.8118L500.653 28.5932C499.772 28.186 498.886 27.6553 497.995 27C497.185 26.4044 496.608 25.7144 496.248 24.9231C495.879 24.1095 495.689 23.1193 495.689 21.9461C495.689 20.4691 496.03 19.2333 496.703 18.2144C497.38 17.19 498.245 16.4688 499.315 16.0303C500.514 15.5388 501.601 15.2015 502.572 15.0166C503.39 14.8611 504.199 14.7705 505.001 14.7446L505.482 14.7368ZM555.593 14.7368C558.96 14.7368 561.542 15.7699 563.412 17.8376L563.617 18.0716L563.811 18.309L563.999 18.5544C565.597 20.7165 566.442 23.7862 566.502 27.786L566.505 28.2517L566.505 29.452L547.271 29.4527L547.283 30.8801L547.294 31.3009C547.407 34.6341 548.198 37.1733 549.709 38.9033C551.312 40.7389 553.723 41.6734 556.877 41.7402L557.244 41.744L557.624 41.7383L558.052 41.7186C560.203 41.5847 562.483 40.9213 564.893 39.737L565.377 39.4932L565.62 39.364V41.585L565.266 41.7741C562.509 43.1953 559.483 43.9081 556.182 43.9081C551.663 43.9081 548.419 42.6505 546.367 40.1666C544.27 37.6274 543.205 34.0242 543.205 29.3225C543.205 24.8595 544.297 21.3147 546.461 18.6504C548.582 16.0399 551.596 14.7368 555.593 14.7368ZM442.691 14.7368C446.281 14.7368 448.732 15.4232 450.076 16.7158L450.22 16.8619L450.384 17.0432L450.541 17.2329C451.614 18.5868 452.191 20.5517 452.244 23.1567L452.248 23.5522L452.247 43.194H448.533L448.011 38.8318L446.242 40.2577L445.886 40.5342C442.921 42.7925 439.991 43.9081 437.089 43.9081C434.504 43.9081 432.565 43.2327 431.214 41.9048C429.856 40.5699 429.184 38.8947 429.184 36.8178C429.184 35.7154 429.385 34.6616 429.79 33.6498C430.191 32.6479 430.865 31.6556 431.82 30.6742C432.732 29.7368 434.161 28.9526 436.118 28.344C437.984 27.7635 440.223 27.4509 442.834 27.4118L443.399 27.4076H448.055V24.8014L448.053 24.4515L448.043 24.0859C447.956 21.5609 447.396 19.7465 446.284 18.6472C445.139 17.5155 443.364 16.9555 440.988 16.9047L440.627 16.9009L440.3 16.9056L439.953 16.9205C437.629 17.0534 434.97 17.8634 431.963 19.3393L431.485 19.5779L431.188 19.73V17.3L431.739 17.0647C435.46 15.5118 439.111 14.7368 442.691 14.7368ZM241.826 14.7368C245.604 14.7368 248.588 15.9645 250.85 18.4284C253.12 20.902 254.272 24.5182 254.272 29.3225C254.272 34.0892 253.129 37.6977 250.874 40.1924C248.668 42.6731 245.679 43.9081 241.826 43.9081C237.972 43.9081 234.972 42.6722 232.752 40.1954C230.515 37.7005 229.38 34.0906 229.38 29.3225C229.38 24.5182 230.532 20.902 232.803 18.4284C235.064 15.9645 238.049 14.7368 241.826 14.7368ZM150.73 0.255L150.731 17.5945L152.648 16.5849L153.099 16.3608C155.352 15.2765 157.55 14.7368 159.692 14.7368C163.051 14.7368 165.546 15.8535 167.275 18.0951C169.049 20.3962 169.956 23.8145 169.956 28.3707C169.956 33.5815 168.806 37.4652 166.546 40.0571C164.308 42.6243 161.185 43.9081 157.097 43.9081C155.661 43.9081 154.003 43.7001 152.126 43.2814L151.609 43.162L151.047 43.0221L150.497 42.8729C149.409 42.5651 148.391 42.2017 147.443 41.7829L146.974 41.5688L146.597 41.384V1.258L150.73 0.255ZM126.38 14.7368C129.748 14.7368 132.33 15.7699 134.2 17.8376L134.405 18.0716L134.599 18.309L134.787 18.5544C136.385 20.7165 137.229 23.7862 137.29 27.786L137.293 28.2517L137.293 29.452L118.059 29.4527L118.071 30.8801L118.082 31.3009C118.195 34.6341 118.986 37.1733 120.496 38.9033C122.1 40.7389 124.511 41.6734 127.665 41.7402L128.032 41.744L128.412 41.7383L128.84 41.7186C130.991 41.5847 133.27 40.9213 135.681 39.737L136.165 39.4932L136.408 39.364V41.585L136.053 41.7741C133.297 43.1953 130.271 43.9081 126.97 43.9081C122.451 43.9081 119.207 42.6505 117.155 40.1666C115.057 37.6274 113.993 34.0242 113.993 29.3225C113.993 24.8595 115.085 21.3147 117.249 18.6504C119.37 16.0399 122.384 14.7368 126.38 14.7368ZM308.391 14.7368C311.759 14.7368 314.341 15.7699 316.211 17.8376L316.415 18.0716L316.61 18.309L316.798 18.5544C318.396 20.7165 319.24 23.7862 319.3 27.786L319.304 28.2517L319.303 29.452L300.07 29.4527L300.082 30.8801L300.092 31.3009C300.206 34.6341 300.996 37.1733 302.507 38.9033C304.11 40.7389 306.522 41.6734 309.675 41.7402L310.042 41.744L310.423 41.7383L310.851 41.7186C313.001 41.5847 315.281 40.9213 317.691 39.737L318.175 39.4932L318.419 39.364V41.584L318.064 41.7741C315.308 43.1953 312.282 43.9081 308.981 43.9081C304.461 43.9081 301.218 42.6505 299.166 40.1666C297.068 37.6274 296.004 34.0242 296.004 29.3225C296.004 24.8595 297.095 21.3147 299.259 18.6504C301.38 16.0399 304.395 14.7368 308.391 14.7368ZM539.385 0V2.053L539.025 2.07454C532.871 2.49853 529.594 5.88246 529.481 11.9799L529.478 12.3091V16.1645L538.512 16.164L537.726 18.447L529.478 18.4476L529.478 43.194H525.344L525.345 12.5471L525.349 12.1275L525.361 11.7215C525.517 7.70002 526.854 4.82234 529.355 3.00543C531.72 1.28791 534.747 0.297473 538.453 0.0473291L538.94 0.0189009L539.385 0ZM477.478 14.7368C480.613 14.7368 482.818 15.3316 484.119 16.4578L484.276 16.6013L484.439 16.7642L484.594 16.936C485.606 18.1112 486.155 19.8849 486.205 22.2938L486.208 22.6599L486.208 43.194H482.074L482.075 24.0281L482.072 23.6957L482.061 23.375C481.97 21.2666 481.431 19.751 480.359 18.8578C479.253 17.9365 477.712 17.4958 475.767 17.4958C473.363 17.4958 470.937 18.1782 468.498 19.5291L468.067 19.7744L467.572 20.0641L467.572 43.194H463.439V18.706L463.955 18.4113C468.322 15.9599 472.827 14.7368 477.478 14.7368ZM185.837 3.017L199.048 36.2712L199.748 38.984L200.712 36.2712L213.332 3.017H218.955V43.194H214.586L214.748 5.984L212.374 12.6178L200.343 43.194H197.925L185.895 13.3317L183.748 6.984L183.689 13.3317L183.688 43.194H180.381V3.017H185.837ZM396.534 3.017V5.895L384.268 5.89579L384.267 43.194H379.898L379.898 5.89579L367.631 5.895V3.017H396.534ZM65.541 3.017L72.1464 34.4866L73.248 38.984L74.1567 34.4866L81.823 3.017H85.513L93.7111 34.4866L94.748 38.984L95.7237 34.4866L101.739 3.017H106.559L97.459 43.194H92.654L84.6342 13.5102L83.748 7.984L82.6842 13.5102L74.899 43.194H70.101L61 3.017H65.541ZM417.636 14.7368C419.737 14.7368 421.313 15.1497 422.389 15.9418L422.574 16.0856L422.708 16.2034L422.837 16.3308C423.632 17.1653 424.077 18.5712 424.122 20.5922L424.126 20.9348L424.125 23.018L420.464 23.98L420.464 23.0168L420.461 22.7353L420.451 22.46C420.296 19.2878 418.78 17.4958 416.044 17.4958C413.898 17.4958 411.639 18.2517 409.266 19.7387L408.89 19.9795L408.438 20.2757L408.438 43.194H404.305V18.996L404.401 18.9384L405.018 18.579C406.882 17.5213 408.864 16.6493 410.957 15.9665C413.478 15.1445 415.706 14.7368 417.636 14.7368ZM277.851 14.7368C280.986 14.7368 283.192 15.3316 284.492 16.4578L284.65 16.6013L284.812 16.7642L284.967 16.936C285.98 18.1112 286.528 19.8849 286.578 22.2938L286.582 22.6599L286.581 43.194H282.448L282.448 24.0281L282.445 23.6957L282.435 23.375C282.344 21.2666 281.804 19.751 280.732 18.8578C279.626 17.9365 278.086 17.4958 276.141 17.4958C273.736 17.4958 271.31 18.1782 268.871 19.5291L268.44 19.7744L267.946 20.0641L267.945 43.194H263.812V18.707L264.328 18.4113C268.695 15.9599 273.2 14.7368 277.851 14.7368ZM589.258 14.7368C591.359 14.7368 592.935 15.1497 594.011 15.9418L594.196 16.0856L594.331 16.2034L594.46 16.3308C595.255 17.1653 595.7 18.5712 595.744 20.5922L595.748 20.9348V23.018L592.086 23.98L592.086 23.0168L592.083 22.7353L592.073 22.46C591.919 19.2878 590.402 17.4958 587.666 17.4958C585.521 17.4958 583.261 18.2517 580.888 19.7387L580.512 19.9795L580.061 20.2757L580.06 43.194H575.927V18.996L576.023 18.9384L576.64 18.579C578.505 17.5213 580.486 16.6493 582.58 15.9665C585.1 15.1445 587.328 14.7368 589.258 14.7368ZM241.826 16.9009C239.41 16.9009 237.384 18.0154 235.826 20.1705C234.308 22.2704 233.572 25.3234 233.572 29.3225C233.572 33.3947 234.264 36.4593 235.698 38.5194C237.182 40.6509 239.257 41.744 241.826 41.744C244.396 41.744 246.471 40.6509 247.955 38.5194C249.389 36.4593 250.08 33.3947 250.08 29.3225C250.08 25.3278 249.367 22.2796 247.893 20.1816C246.373 18.017 244.322 16.9009 241.826 16.9009ZM158.1 17.3768C156.104 17.3768 153.939 18.0042 151.601 19.2409L151.187 19.4655L150.672 19.7511V40.4599L151.584 40.8385L151.92 40.9643C153.392 41.4886 155.114 41.744 157.097 41.744C162.888 41.744 165.764 37.1015 165.764 28.3707C165.764 21.221 163.201 17.3768 158.1 17.3768ZM448.114 29.5717H443.989L443.622 29.5738L443.26 29.5801C436.801 29.7327 433.317 31.9708 433.317 36.3419C433.317 37.9943 433.885 39.2847 435.035 40.1017C436.079 40.8437 437.363 41.2086 438.858 41.2086C440.671 41.2086 442.421 40.7729 444.094 39.9071C445.624 39.1161 446.828 38.2007 447.699 37.1534L447.91 36.8889L448.114 36.6203V29.5717ZM126.204 16.7225C124.06 16.7225 122.231 17.5865 120.785 19.2726C119.446 20.8343 118.608 23.0559 118.243 25.924L118.191 26.3591L118.071 27.4671H133.746L133.689 26.4136L133.663 25.9909C133.452 23.0642 132.707 20.812 131.392 19.2497C129.987 17.582 128.236 16.7225 126.204 16.7225ZM555.416 16.7225C553.272 16.7225 551.443 17.5865 549.997 19.2726C548.658 20.8343 547.821 23.0559 547.455 25.924L547.403 26.3591L547.283 27.4671H562.958L562.901 26.4136L562.875 25.9909C562.664 23.0642 561.919 20.812 560.604 19.2497C559.2 17.582 557.448 16.7225 555.416 16.7225ZM308.214 16.7225C306.071 16.7225 304.242 17.5865 302.796 19.2726C301.457 20.8343 300.619 23.0559 300.253 25.924L300.202 26.3591L300.082 27.4671H315.756L315.7 26.4136L315.673 25.9909C315.462 23.0642 314.718 20.812 313.402 19.2497C311.998 17.582 310.247 16.7225 308.214 16.7225Z" fill="#006CB4"/>
<path d="M99.8633 89.5469C100.72 89.5469 101.504 89.4808 102.215 89.3486C102.926 89.2165 103.701 88.9681 104.539 88.6035V87.373C103.555 87.765 102.741 88.0202 102.099 88.1387C101.456 88.2572 100.711 88.3164 99.8633 88.3164C98.1224 88.3164 96.7848 87.7786 95.8506 86.7031C94.9163 85.6276 94.4401 84.069 94.4219 82.0273H105.127V80.9336C105.127 78.8372 104.621 77.1784 103.609 75.957C102.598 74.7357 101.217 74.125 99.4668 74.125C97.4889 74.125 95.9167 74.8382 94.75 76.2646C93.5833 77.6911 93 79.5892 93 81.959C93 84.3561 93.6038 86.2201 94.8115 87.5508C96.0192 88.8815 97.7031 89.5469 99.8633 89.5469ZM103.691 80.8242H94.5039C94.6497 79.0469 95.1556 77.6865 96.0215 76.7432C96.8874 75.7998 98.0358 75.3281 99.4668 75.3281C100.788 75.3281 101.823 75.8135 102.57 76.7842C103.318 77.7549 103.691 79.1016 103.691 80.8242ZM111.708 89.2734V68H110.354V89.2734H111.708ZM127.563 89.2734V81.0703C127.563 79.0742 127.919 77.6227 128.63 76.7158C129.341 75.8089 130.475 75.3555 132.034 75.3555C134.331 75.3555 135.479 76.6087 135.479 79.1152V89.2734H136.86V80.5645C136.86 78.7689 137.225 77.4518 137.954 76.6133C138.683 75.7747 139.809 75.3555 141.331 75.3555C142.498 75.3555 143.363 75.6882 143.929 76.3535C144.494 77.0189 144.776 78.0762 144.776 79.5254V89.2734H146.116V79.5527C146.116 77.666 145.71 76.2897 144.899 75.4238C144.088 74.5579 142.871 74.125 141.249 74.125C140.21 74.125 139.282 74.3529 138.467 74.8086C137.651 75.2643 137.001 75.916 136.518 76.7637H136.464C135.798 75.0046 134.294 74.125 131.952 74.125C131.041 74.125 130.207 74.3278 129.45 74.7334C128.694 75.139 128.11 75.7109 127.7 76.4492H127.618L127.331 74.4121H126.21V89.2734H127.563ZM158.056 89.5469C158.913 89.5469 159.697 89.4808 160.408 89.3486C161.119 89.2165 161.894 88.9681 162.732 88.6035V87.373C161.748 87.765 160.934 88.0202 160.292 88.1387C159.649 88.2572 158.904 88.3164 158.056 88.3164C156.316 88.3164 154.978 87.7786 154.044 86.7031C153.109 85.6276 152.633 84.069 152.615 82.0273H163.32V80.9336C163.32 78.8372 162.814 77.1784 161.803 75.957C160.791 74.7357 159.41 74.125 157.66 74.125C155.682 74.125 154.11 74.8382 152.943 76.2646C151.776 77.6911 151.193 79.5892 151.193 81.959C151.193 84.3561 151.797 86.2201 153.005 87.5508C154.212 88.8815 155.896 89.5469 158.056 89.5469ZM161.885 80.8242H152.697C152.843 79.0469 153.349 77.6865 154.215 76.7432C155.081 75.7998 156.229 75.3281 157.66 75.3281C158.982 75.3281 160.016 75.8135 160.763 76.7842C161.511 77.7549 161.885 79.1016 161.885 80.8242ZM169.218 71.6094C169.5 71.6094 169.721 71.4909 169.881 71.2539C170.04 71.0169 170.12 70.6934 170.12 70.2832C170.12 69.8639 170.04 69.5404 169.881 69.3125C169.721 69.0846 169.5 68.9707 169.218 68.9707C168.643 68.9707 168.356 69.4082 168.356 70.2832C168.356 71.1673 168.643 71.6094 169.218 71.6094ZM166.565 96C167.632 96 168.454 95.6673 169.033 95.002C169.612 94.3366 169.901 93.3887 169.901 92.1582V74.4121H168.548V92.3496C168.548 93.9538 167.859 94.7559 166.483 94.7559C165.936 94.7559 165.348 94.6647 164.719 94.4824V95.6582C165.221 95.8861 165.836 96 166.565 96ZM181.664 89.5469C183.733 89.5469 185.355 88.8656 186.531 87.5029C187.707 86.1403 188.295 84.2467 188.295 81.8223C188.295 79.4342 187.714 77.5544 186.551 76.1826C185.389 74.8109 183.787 74.125 181.746 74.125C179.695 74.125 178.082 74.8018 176.906 76.1553C175.73 77.5088 175.142 79.3978 175.142 81.8223C175.142 83.3626 175.407 84.7207 175.935 85.8965C176.464 87.0723 177.225 87.9746 178.218 88.6035C179.212 89.2324 180.36 89.5469 181.664 89.5469ZM181.718 88.3164C180.078 88.3164 178.809 87.7445 177.911 86.6006C177.013 85.4567 176.564 83.8639 176.564 81.8223C176.564 79.7624 177.008 78.1696 177.897 77.0439C178.786 75.9183 180.05 75.3555 181.691 75.3555C183.332 75.3555 184.605 75.9206 185.512 77.0508C186.419 78.181 186.873 79.7715 186.873 81.8223C186.873 83.8639 186.424 85.4567 185.526 86.6006C184.628 87.7445 183.359 88.3164 181.718 88.3164ZM194.889 89.2734V81.0703C194.889 79.4297 195.295 78.0716 196.106 76.9961C196.917 75.9206 197.956 75.3828 199.223 75.3828C199.889 75.3828 200.531 75.4603 201.151 75.6152L201.411 74.3164C200.691 74.1888 200.016 74.125 199.387 74.125C198.403 74.125 197.564 74.346 196.872 74.7881C196.179 75.2301 195.527 75.998 194.917 77.0918H194.821L194.684 74.4121H193.536V89.2734H194.889ZM217.348 89.5469C219.208 89.5469 220.643 89.1891 221.655 88.4736C222.667 87.7581 223.172 86.735 223.172 85.4043C223.172 84.7389 223.02 84.1602 222.714 83.668C222.409 83.1758 221.951 82.736 221.34 82.3486C220.73 81.9613 219.754 81.526 218.415 81.043C216.81 80.4688 215.733 79.9492 215.181 79.4844C214.63 79.0195 214.354 78.3997 214.354 77.625C214.354 76.9141 214.71 76.3581 215.42 75.957C216.131 75.556 217.093 75.3555 218.305 75.3555C219.554 75.3555 220.907 75.6562 222.366 76.2578L222.872 75.0273C221.432 74.4258 219.909 74.125 218.305 74.125C216.628 74.125 215.322 74.4486 214.388 75.0957C213.454 75.7428 212.987 76.6224 212.987 77.7344C212.987 78.4362 213.14 79.0309 213.445 79.5186C213.75 80.0062 214.204 80.4437 214.805 80.8311C215.407 81.2184 216.45 81.681 217.936 82.2188C219.321 82.7109 220.317 83.2122 220.923 83.7227C221.529 84.2331 221.833 84.862 221.833 85.6094C221.833 86.4206 221.452 87.07 220.691 87.5576C219.93 88.0452 218.816 88.2891 217.348 88.2891C215.689 88.2891 214.113 87.9154 212.618 87.168V88.6309C213.784 89.2415 215.361 89.5469 217.348 89.5469ZM228.796 71.6094C229.079 71.6094 229.3 71.4909 229.459 71.2539C229.619 71.0169 229.699 70.6934 229.699 70.2832C229.699 69.8639 229.619 69.5404 229.459 69.3125C229.3 69.0846 229.079 68.9707 228.796 68.9707C228.222 68.9707 227.935 69.4082 227.935 70.2832C227.935 71.1673 228.222 71.6094 228.796 71.6094ZM229.48 89.2734V74.4121H228.126V89.2734H229.48ZM238.973 89.5469C240.832 89.5469 242.268 89.1891 243.28 88.4736C244.291 87.7581 244.797 86.735 244.797 85.4043C244.797 84.7389 244.645 84.1602 244.339 83.668C244.034 83.1758 243.576 82.736 242.965 82.3486C242.355 81.9613 241.379 81.526 240.039 81.043C238.435 80.4688 237.358 79.9492 236.806 79.4844C236.255 79.0195 235.979 78.3997 235.979 77.625C235.979 76.9141 236.334 76.3581 237.045 75.957C237.756 75.556 238.718 75.3555 239.93 75.3555C241.179 75.3555 242.532 75.6562 243.991 76.2578L244.497 75.0273C243.056 74.4258 241.534 74.125 239.93 74.125C238.253 74.125 236.947 74.4486 236.013 75.0957C235.079 75.7428 234.612 76.6224 234.612 77.7344C234.612 78.4362 234.764 79.0309 235.07 79.5186C235.375 80.0062 235.829 80.4437 236.43 80.8311C237.032 81.2184 238.075 81.681 239.561 82.2188C240.946 82.7109 241.942 83.2122 242.548 83.7227C243.154 84.2331 243.457 84.862 243.457 85.6094C243.457 86.4206 243.077 87.07 242.316 87.5576C241.555 88.0452 240.441 88.2891 238.973 88.2891C237.314 88.2891 235.737 87.9154 234.243 87.168V88.6309C235.409 89.2415 236.986 89.5469 238.973 89.5469ZM253.648 89.5469C254.505 89.5469 255.261 89.4375 255.917 89.2188V88.125C255.279 88.2708 254.532 88.3438 253.675 88.3438C252.818 88.3438 252.189 88.0703 251.788 87.5234C251.387 86.9766 251.187 86.1335 251.187 84.9941V75.5879H255.548V74.4121H251.187V70.8164H250.49L249.806 74.1797L247.605 74.7949V75.5879H249.806V85.1855C249.806 86.6895 250.118 87.7923 250.743 88.4941C251.367 89.196 252.335 89.5469 253.648 89.5469ZM266.258 89.5469C267.115 89.5469 267.899 89.4808 268.61 89.3486C269.321 89.2165 270.095 88.9681 270.934 88.6035V87.373C269.95 87.765 269.136 88.0202 268.493 88.1387C267.851 88.2572 267.106 88.3164 266.258 88.3164C264.517 88.3164 263.18 87.7786 262.245 86.7031C261.311 85.6276 260.835 84.069 260.817 82.0273H271.522V80.9336C271.522 78.8372 271.016 77.1784 270.004 75.957C268.993 74.7357 267.612 74.125 265.862 74.125C263.884 74.125 262.312 74.8382 261.145 76.2646C259.978 77.6911 259.395 79.5892 259.395 81.959C259.395 84.3561 259.999 86.2201 261.206 87.5508C262.414 88.8815 264.098 89.5469 266.258 89.5469ZM270.086 80.8242H260.899C261.045 79.0469 261.55 77.6865 262.416 76.7432C263.282 75.7998 264.431 75.3281 265.862 75.3281C267.183 75.3281 268.218 75.8135 268.965 76.7842C269.713 77.7549 270.086 79.1016 270.086 80.8242ZM278.103 89.2734V81.0703C278.103 79.0742 278.458 77.6227 279.169 76.7158C279.88 75.8089 281.015 75.3555 282.574 75.3555C284.87 75.3555 286.019 76.6087 286.019 79.1152V89.2734H287.4V80.5645C287.4 78.7689 287.764 77.4518 288.493 76.6133C289.223 75.7747 290.348 75.3555 291.87 75.3555C293.037 75.3555 293.903 75.6882 294.468 76.3535C295.033 77.0189 295.316 78.0762 295.316 79.5254V89.2734H296.656V79.5527C296.656 77.666 296.25 76.2897 295.439 75.4238C294.628 74.5579 293.411 74.125 291.788 74.125C290.749 74.125 289.822 74.3529 289.006 74.8086C288.19 75.2643 287.541 75.916 287.058 76.7637H287.003C286.338 75.0046 284.834 74.125 282.491 74.125C281.58 74.125 280.746 74.3278 279.99 74.7334C279.233 75.139 278.65 75.7109 278.24 76.4492H278.158L277.87 74.4121H276.749V89.2734H278.103ZM306.067 89.5469C307.142 89.5469 308.074 89.3486 308.863 88.9521C309.651 88.5557 310.419 87.8789 311.166 86.9219H311.276L311.617 89.2734H312.615V79.3887C312.615 77.5931 312.212 76.2715 311.405 75.4238C310.599 74.5762 309.38 74.1523 307.748 74.1523C306.153 74.1523 304.54 74.5352 302.908 75.3008L303.414 76.4766C304.891 75.7109 306.317 75.3281 307.694 75.3281C308.97 75.3281 309.895 75.6882 310.469 76.4082C311.043 77.1283 311.33 78.1947 311.33 79.6074V80.5918L308.5 80.6738C306.212 80.7194 304.465 81.1432 303.257 81.9453C302.049 82.7474 301.446 83.873 301.446 85.3223C301.446 86.6439 301.851 87.6784 302.662 88.4258C303.474 89.1732 304.608 89.5469 306.067 89.5469ZM306.149 88.3164C305.11 88.3164 304.305 88.0589 303.736 87.5439C303.166 87.029 302.881 86.3066 302.881 85.377C302.881 84.2103 303.325 83.3512 304.214 82.7998C305.103 82.2484 306.591 81.9225 308.678 81.8223L311.276 81.7129V83.1758C311.276 84.7891 310.818 86.0492 309.902 86.9561C308.986 87.863 307.735 88.3164 306.149 88.3164ZM331.861 89.5469C334.332 89.5469 336.05 88.7721 337.016 87.2227H337.098L337.344 89.2734H338.492V74.4121H337.152V82.6152C337.152 84.6296 336.735 86.0833 335.901 86.9766C335.068 87.8698 333.766 88.3164 331.998 88.3164C330.677 88.3164 329.701 87.9769 329.072 87.2979C328.443 86.6188 328.129 85.5319 328.129 84.0371V74.4121H326.789V84.1191C326.789 87.7376 328.48 89.5469 331.861 89.5469ZM345.948 89.2734V81.0703C345.948 79.056 346.361 77.5999 347.186 76.7021C348.01 75.8044 349.312 75.3555 351.089 75.3555C352.411 75.3555 353.386 75.695 354.015 76.374C354.644 77.0531 354.958 78.14 354.958 79.6348V89.2734H356.298V79.5527C356.298 75.9342 354.612 74.125 351.239 74.125C348.769 74.125 347.051 74.8997 346.085 76.4492H346.003L345.743 74.4121H344.595V89.2734H345.948ZM362.906 71.6094C363.189 71.6094 363.41 71.4909 363.569 71.2539C363.729 71.0169 363.809 70.6934 363.809 70.2832C363.809 69.8639 363.729 69.5404 363.569 69.3125C363.41 69.0846 363.189 68.9707 362.906 68.9707C362.332 68.9707 362.045 69.4082 362.045 70.2832C362.045 71.1673 362.332 71.6094 362.906 71.6094ZM363.59 89.2734V74.4121H362.236V89.2734H363.59ZM374.313 89.2734L380.056 74.4121H378.661L374.819 84.4883C374.427 85.5273 374.045 86.6667 373.671 87.9062H373.589C373.334 86.9401 372.951 85.8099 372.44 84.5156L368.599 74.4121H367.204L372.946 89.2734H374.313ZM389.672 89.5469C390.529 89.5469 391.312 89.4808 392.023 89.3486C392.734 89.2165 393.509 88.9681 394.348 88.6035V87.373C393.363 87.765 392.55 88.0202 391.907 88.1387C391.265 88.2572 390.519 88.3164 389.672 88.3164C387.931 88.3164 386.593 87.7786 385.659 86.7031C384.725 85.6276 384.249 84.069 384.23 82.0273H394.935V80.9336C394.935 78.8372 394.43 77.1784 393.418 75.957C392.406 74.7357 391.025 74.125 389.275 74.125C387.297 74.125 385.725 74.8382 384.559 76.2646C383.392 77.6911 382.809 79.5892 382.809 81.959C382.809 84.3561 383.412 86.2201 384.62 87.5508C385.828 88.8815 387.512 89.5469 389.672 89.5469ZM393.5 80.8242H384.312C384.458 79.0469 384.964 77.6865 385.83 76.7432C386.696 75.7998 387.844 75.3281 389.275 75.3281C390.597 75.3281 391.631 75.8135 392.379 76.7842C393.126 77.7549 393.5 79.1016 393.5 80.8242ZM401.516 89.2734V81.0703C401.516 79.4297 401.922 78.0716 402.733 76.9961C403.544 75.9206 404.584 75.3828 405.85 75.3828C406.516 75.3828 407.158 75.4603 407.778 75.6152L408.038 74.3164C407.318 74.1888 406.643 74.125 406.015 74.125C405.03 74.125 404.192 74.346 403.499 74.7881C402.806 75.2301 402.155 75.998 401.544 77.0918H401.448L401.311 74.4121H400.163V89.2734H401.516ZM415.576 89.5469C417.435 89.5469 418.871 89.1891 419.883 88.4736C420.894 87.7581 421.4 86.735 421.4 85.4043C421.4 84.7389 421.248 84.1602 420.942 83.668C420.637 83.1758 420.179 82.736 419.568 82.3486C418.957 81.9613 417.982 81.526 416.642 81.043C415.038 80.4688 413.96 79.9492 413.409 79.4844C412.858 79.0195 412.582 78.3997 412.582 77.625C412.582 76.9141 412.937 76.3581 413.648 75.957C414.359 75.556 415.321 75.3555 416.533 75.3555C417.782 75.3555 419.135 75.6562 420.594 76.2578L421.099 75.0273C419.659 74.4258 418.137 74.125 416.533 74.125C414.856 74.125 413.55 74.4486 412.616 75.0957C411.682 75.7428 411.215 76.6224 411.215 77.7344C411.215 78.4362 411.367 79.0309 411.673 79.5186C411.978 80.0062 412.431 80.4437 413.033 80.8311C413.635 81.2184 414.678 81.681 416.164 82.2188C417.549 82.7109 418.545 83.2122 419.151 83.7227C419.757 84.2331 420.06 84.862 420.06 85.6094C420.06 86.4206 419.68 87.07 418.919 87.5576C418.158 88.0452 417.043 88.2891 415.576 88.2891C413.917 88.2891 412.34 87.9154 410.846 87.168V88.6309C412.012 89.2415 413.589 89.5469 415.576 89.5469ZM429.827 89.5469C430.902 89.5469 431.834 89.3486 432.623 88.9521C433.411 88.5557 434.179 87.8789 434.927 86.9219H435.036L435.378 89.2734H436.376V79.3887C436.376 77.5931 435.972 76.2715 435.166 75.4238C434.359 74.5762 433.14 74.1523 431.509 74.1523C429.913 74.1523 428.3 74.5352 426.669 75.3008L427.175 76.4766C428.651 75.7109 430.078 75.3281 431.454 75.3281C432.73 75.3281 433.655 75.6882 434.229 76.4082C434.803 77.1283 435.091 78.1947 435.091 79.6074V80.5918L432.26 80.6738C429.973 80.7194 428.225 81.1432 427.017 81.9453C425.81 82.7474 425.206 83.873 425.206 85.3223C425.206 86.6439 425.611 87.6784 426.423 88.4258C427.234 89.1732 428.369 89.5469 429.827 89.5469ZM429.909 88.3164C428.87 88.3164 428.066 88.0589 427.496 87.5439C426.926 87.029 426.641 86.3066 426.641 85.377C426.641 84.2103 427.086 83.3512 427.974 82.7998C428.863 82.2484 430.351 81.9225 432.438 81.8223L435.036 81.7129V83.1758C435.036 84.7891 434.578 86.0492 433.662 86.9561C432.746 87.863 431.495 88.3164 429.909 88.3164ZM443.668 89.2734V68H442.314V89.2734H443.668ZM463.638 89.5469C465.753 89.5469 467.375 88.6992 468.505 87.0039H468.615L468.957 89.2734H469.845V68H468.505V73.3457C468.505 74.4486 468.533 75.5742 468.587 76.7227H468.505C467.886 75.7747 467.184 75.1048 466.4 74.7129C465.616 74.321 464.686 74.125 463.611 74.125C461.56 74.125 459.997 74.804 458.921 76.1621C457.846 77.5202 457.308 79.4844 457.308 82.0547C457.308 84.4974 457.851 86.3568 458.935 87.6328C460.02 88.9089 461.587 89.5469 463.638 89.5469ZM463.638 88.3438C460.366 88.3438 458.73 86.2383 458.73 82.0273C458.73 79.8581 459.138 78.2038 459.954 77.0645C460.769 75.9251 461.989 75.3555 463.611 75.3555C465.334 75.3555 466.58 75.859 467.35 76.8662C468.12 77.8734 468.505 79.5254 468.505 81.8223V82.0547C468.505 84.2969 468.114 85.9056 467.33 86.8809C466.546 87.8561 465.315 88.3438 463.638 88.3438ZM481.963 89.5469C482.82 89.5469 483.604 89.4808 484.315 89.3486C485.026 89.2165 485.801 88.9681 486.639 88.6035V87.373C485.655 87.765 484.841 88.0202 484.199 88.1387C483.556 88.2572 482.811 88.3164 481.963 88.3164C480.223 88.3164 478.885 87.7786 477.951 86.7031C477.016 85.6276 476.54 84.069 476.522 82.0273H487.227V80.9336C487.227 78.8372 486.721 77.1784 485.71 75.957C484.698 74.7357 483.317 74.125 481.567 74.125C479.589 74.125 478.017 74.8382 476.85 76.2646C475.683 77.6911 475.1 79.5892 475.1 81.959C475.1 84.3561 475.704 86.2201 476.912 87.5508C478.119 88.8815 479.803 89.5469 481.963 89.5469ZM485.792 80.8242H476.604C476.75 79.0469 477.256 77.6865 478.122 76.7432C478.988 75.7998 480.136 75.3281 481.567 75.3281C482.889 75.3281 483.923 75.8135 484.67 76.7842C485.418 77.7549 485.792 79.1016 485.792 80.8242ZM502.207 96V90.3398C502.207 89.5378 502.189 88.7995 502.153 88.125L502.112 86.9766H502.207C503.256 88.6901 504.924 89.5469 507.211 89.5469C509.125 89.5469 510.636 88.8747 511.744 87.5303C512.851 86.1859 513.405 84.2923 513.405 81.8496C513.405 79.334 512.878 77.4176 511.826 76.1006C510.773 74.7835 509.244 74.125 507.239 74.125C504.997 74.125 503.365 74.9271 502.344 76.5312H502.262L502.002 74.4121H500.854V96H502.207ZM507.184 88.3438C505.425 88.3438 504.156 87.847 503.376 86.8535C502.597 85.86 502.207 84.2012 502.207 81.877V81.4395C502.207 79.2884 502.613 77.7367 503.424 76.7842C504.235 75.8317 505.507 75.3555 507.239 75.3555C510.392 75.3555 511.969 77.5384 511.969 81.9043C511.969 83.9368 511.552 85.5182 510.718 86.6484C509.884 87.7786 508.706 88.3438 507.184 88.3438ZM522.119 89.5469C523.194 89.5469 524.126 89.3486 524.914 88.9521C525.703 88.5557 526.471 87.8789 527.218 86.9219H527.328L527.669 89.2734H528.667V79.3887C528.667 77.5931 528.264 76.2715 527.457 75.4238C526.651 74.5762 525.432 74.1523 523.8 74.1523C522.205 74.1523 520.592 74.5352 518.96 75.3008L519.466 76.4766C520.943 75.7109 522.369 75.3281 523.745 75.3281C525.022 75.3281 525.947 75.6882 526.521 76.4082C527.095 77.1283 527.382 78.1947 527.382 79.6074V80.5918L524.552 80.6738C522.264 80.7194 520.517 81.1432 519.309 81.9453C518.101 82.7474 517.497 83.873 517.497 85.3223C517.497 86.6439 517.903 87.6784 518.714 88.4258C519.525 89.1732 520.66 89.5469 522.119 89.5469ZM522.201 88.3164C521.161 88.3164 520.357 88.0589 519.787 87.5439C519.218 87.029 518.933 86.3066 518.933 85.377C518.933 84.2103 519.377 83.3512 520.266 82.7998C521.155 82.2484 522.643 81.9225 524.73 81.8223L527.328 81.7129V83.1758C527.328 84.7891 526.87 86.0492 525.953 86.9561C525.037 87.863 523.786 88.3164 522.201 88.3164ZM538.612 96C540.963 96 542.775 95.5739 544.046 94.7217C545.318 93.8695 545.953 92.6595 545.953 91.0918C545.953 89.8158 545.525 88.8519 544.668 88.2002C543.812 87.5485 542.576 87.2227 540.963 87.2227H538.366C537.518 87.2227 536.914 87.1133 536.554 86.8945C536.194 86.6758 536.014 86.3294 536.014 85.8555C536.014 85.4271 536.155 85.0215 536.438 84.6387C536.72 84.2559 537.131 83.9232 537.668 83.6406C537.942 83.6953 538.416 83.7227 539.09 83.7227C540.694 83.7227 541.973 83.2783 542.925 82.3896C543.878 81.501 544.354 80.3411 544.354 78.9102C544.354 77.6888 543.944 76.5677 543.123 75.5469L546.2 75.3555V74.4121H541.442C540.904 74.2207 540.147 74.125 539.172 74.125C537.568 74.125 536.294 74.5739 535.351 75.4717C534.408 76.3695 533.936 77.5612 533.936 79.0469C533.936 80.0312 534.177 80.904 534.66 81.665C535.144 82.4261 535.818 82.9844 536.684 83.3398C535.417 84.0964 534.784 84.9714 534.784 85.9648C534.784 86.4206 534.918 86.8239 535.187 87.1748C535.456 87.5257 535.813 87.7969 536.26 87.9883C535.175 88.2344 534.316 88.6947 533.683 89.3691C533.049 90.0436 532.733 90.8913 532.733 91.9121C532.733 93.1973 533.245 94.1999 534.271 94.9199C535.296 95.64 536.743 96 538.612 96ZM539.145 82.6699C537.978 82.6699 537.046 82.3532 536.349 81.7197C535.652 81.0863 535.303 80.1953 535.303 79.0469C535.303 77.8346 535.643 76.889 536.322 76.21C537.001 75.5309 537.933 75.1914 539.117 75.1914C540.339 75.1914 541.289 75.5081 541.968 76.1416C542.647 76.7751 542.987 77.7253 542.987 78.9922C542.987 80.1862 542.656 81.0977 541.995 81.7266C541.335 82.3555 540.384 82.6699 539.145 82.6699ZM538.721 94.8516C535.686 94.8516 534.168 93.8307 534.168 91.7891C534.168 89.6471 535.531 88.5762 538.256 88.5762H540.69C542.057 88.5762 543.046 88.7767 543.657 89.1777C544.267 89.5788 544.573 90.2259 544.573 91.1191C544.573 93.6074 542.622 94.8516 538.721 94.8516ZM556.034 89.5469C558.103 89.5469 559.726 88.8656 560.902 87.5029C562.077 86.1403 562.665 84.2467 562.665 81.8223C562.665 79.4342 562.084 77.5544 560.922 76.1826C559.76 74.8109 558.158 74.125 556.117 74.125C554.066 74.125 552.452 74.8018 551.277 76.1553C550.101 77.5088 549.513 79.3978 549.513 81.8223C549.513 83.3626 549.777 84.7207 550.306 85.8965C550.835 87.0723 551.596 87.9746 552.589 88.6035C553.583 89.2324 554.731 89.5469 556.034 89.5469ZM556.089 88.3164C554.449 88.3164 553.179 87.7445 552.282 86.6006C551.384 85.4567 550.935 83.8639 550.935 81.8223C550.935 79.7624 551.379 78.1696 552.268 77.0439C553.157 75.9183 554.421 75.3555 556.062 75.3555C557.702 75.3555 558.976 75.9206 559.883 77.0508C560.79 78.181 561.243 79.7715 561.243 81.8223C561.243 83.8639 560.795 85.4567 559.897 86.6006C558.999 87.7445 557.73 88.3164 556.089 88.3164Z" fill="#006CB4"/>
</svg>
