<svg width="655" height="96" viewBox="0 0 655 96" fill="none" xmlns="http://www.w3.org/2000/svg">
<path d="M329.843 15.748L337.392 37.6394L338.248 40.484L339.198 37.6394L345.921 15.748H350.071L339.877 44.1539L339.693 44.658L339.504 45.1601C338.169 48.6335 336.658 51.2463 334.988 52.9953L334.748 53.2393L334.514 53.4633L334.247 53.701C332.805 54.9375 331.058 55.6714 328.983 55.9035L328.59 55.9411L328.49 55.947V53.045L328.558 53.037L328.824 52.9976C332.172 52.443 334.639 49.7791 336.218 45.1783L336.344 44.801L336.453 44.4656L325.52 15.748H329.843ZM505.482 14.7368L505.982 14.7431L506.514 14.7636C508.821 14.8839 511.047 15.4099 513.196 16.3436L513.656 16.5499L514.035 16.731V19.089L513.974 19.0545L513.542 18.8223C511.088 17.5435 508.596 16.9009 506.071 16.9009C504.367 16.9009 502.932 17.2403 501.779 17.9377C500.484 18.7214 499.823 20.0029 499.823 21.6486C499.823 23.2157 500.532 24.5042 501.883 25.4207C502.983 26.1675 504.615 26.8977 506.794 27.6288L507.55 27.8807L509.153 28.4295L509.954 28.7135L510.308 28.8451L510.507 28.9255L510.72 29.0155L511.184 29.224L511.436 29.3425L511.976 29.6079C512.165 29.7027 512.362 29.8038 512.567 29.9111C513.54 30.4199 514.25 30.9155 514.696 31.3817C515.147 31.8536 515.571 32.499 515.96 33.3201C516.327 34.0949 516.512 34.9598 516.512 35.9255C516.512 38.3466 515.57 40.2303 513.642 41.6673C511.735 43.0885 509.171 43.8411 505.928 43.9038L505.482 43.9081L504.997 43.9038L504.469 43.8891C501.505 43.7759 498.965 43.1582 496.84 42.0432L496.469 41.8413L496.279 41.73V39.355L496.538 39.4903L497 39.7208C499.76 41.0661 502.35 41.744 504.774 41.744C509.585 41.744 512.261 39.9771 512.261 36.4609C512.261 35.7418 512.093 35.0636 511.759 34.4412C511.45 33.8665 511.084 33.3867 510.658 33.0073C510.247 32.6412 509.64 32.2626 508.822 31.8501L508.534 31.7067L508.256 31.5727L507.733 31.333C507.482 31.2225 507.248 31.1261 507.028 31.0437L504.405 30.1068L503.642 29.8214L502.933 29.549L501.973 29.1653L501.403 28.9263L501.139 28.8118L500.653 28.5932C499.772 28.186 498.886 27.6553 497.995 27C497.185 26.4044 496.608 25.7144 496.248 24.9231C495.879 24.1095 495.689 23.1193 495.689 21.9461C495.689 20.4691 496.03 19.2333 496.703 18.2144C497.38 17.19 498.245 16.4688 499.315 16.0303C500.514 15.5388 501.601 15.2015 502.572 15.0166C503.39 14.8611 504.199 14.7705 505.001 14.7446L505.482 14.7368ZM555.593 14.7368C558.96 14.7368 561.542 15.7699 563.412 17.8376L563.617 18.0716L563.811 18.309L563.999 18.5544C565.597 20.7165 566.442 23.7862 566.502 27.786L566.505 28.2517L566.505 29.452L547.271 29.4527L547.283 30.8801L547.294 31.3009C547.407 34.6341 548.198 37.1733 549.709 38.9033C551.312 40.7389 553.723 41.6734 556.877 41.7402L557.244 41.744L557.624 41.7383L558.052 41.7186C560.203 41.5847 562.483 40.9213 564.893 39.737L565.377 39.4932L565.62 39.364V41.585L565.266 41.7741C562.509 43.1953 559.483 43.9081 556.182 43.9081C551.663 43.9081 548.419 42.6505 546.367 40.1666C544.27 37.6274 543.205 34.0242 543.205 29.3225C543.205 24.8595 544.297 21.3147 546.461 18.6504C548.582 16.0399 551.596 14.7368 555.593 14.7368ZM442.691 14.7368C446.281 14.7368 448.732 15.4232 450.076 16.7158L450.22 16.8619L450.384 17.0432L450.541 17.2329C451.614 18.5868 452.191 20.5517 452.244 23.1567L452.248 23.5522L452.247 43.194H448.533L448.011 38.8318L446.242 40.2577L445.886 40.5342C442.921 42.7925 439.991 43.9081 437.089 43.9081C434.504 43.9081 432.565 43.2327 431.214 41.9048C429.856 40.5699 429.184 38.8947 429.184 36.8178C429.184 35.7154 429.385 34.6616 429.79 33.6498C430.191 32.6479 430.865 31.6556 431.82 30.6742C432.732 29.7368 434.161 28.9526 436.118 28.344C437.984 27.7635 440.223 27.4509 442.834 27.4118L443.399 27.4076H448.055V24.8014L448.053 24.4515L448.043 24.0859C447.956 21.5609 447.396 19.7465 446.284 18.6472C445.139 17.5155 443.364 16.9555 440.988 16.9047L440.627 16.9009L440.3 16.9056L439.953 16.9205C437.629 17.0534 434.97 17.8634 431.963 19.3393L431.485 19.5779L431.188 19.73V17.3L431.739 17.0647C435.46 15.5118 439.111 14.7368 442.691 14.7368ZM241.826 14.7368C245.604 14.7368 248.588 15.9645 250.85 18.4284C253.12 20.902 254.272 24.5182 254.272 29.3225C254.272 34.0892 253.129 37.6977 250.874 40.1924C248.668 42.6731 245.679 43.9081 241.826 43.9081C237.972 43.9081 234.972 42.6722 232.752 40.1954C230.515 37.7005 229.38 34.0906 229.38 29.3225C229.38 24.5182 230.532 20.902 232.803 18.4284C235.064 15.9645 238.049 14.7368 241.826 14.7368ZM150.73 0.255L150.731 17.5945L152.648 16.5849L153.099 16.3608C155.352 15.2765 157.55 14.7368 159.692 14.7368C163.051 14.7368 165.546 15.8535 167.275 18.0951C169.049 20.3962 169.956 23.8145 169.956 28.3707C169.956 33.5815 168.806 37.4652 166.546 40.0571C164.308 42.6243 161.185 43.9081 157.097 43.9081C155.661 43.9081 154.003 43.7001 152.126 43.2814L151.609 43.162L151.047 43.0221L150.497 42.8729C149.409 42.5651 148.391 42.2017 147.443 41.7829L146.974 41.5688L146.597 41.384V1.258L150.73 0.255ZM126.38 14.7368C129.748 14.7368 132.33 15.7699 134.2 17.8376L134.405 18.0716L134.599 18.309L134.787 18.5544C136.385 20.7165 137.229 23.7862 137.29 27.786L137.293 28.2517L137.293 29.452L118.059 29.4527L118.071 30.8801L118.082 31.3009C118.195 34.6341 118.986 37.1733 120.496 38.9033C122.1 40.7389 124.511 41.6734 127.665 41.7402L128.032 41.744L128.412 41.7383L128.84 41.7186C130.991 41.5847 133.27 40.9213 135.681 39.737L136.165 39.4932L136.408 39.364V41.585L136.053 41.7741C133.297 43.1953 130.271 43.9081 126.97 43.9081C122.451 43.9081 119.207 42.6505 117.155 40.1666C115.057 37.6274 113.993 34.0242 113.993 29.3225C113.993 24.8595 115.085 21.3147 117.249 18.6504C119.37 16.0399 122.384 14.7368 126.38 14.7368ZM308.391 14.7368C311.759 14.7368 314.341 15.7699 316.211 17.8376L316.415 18.0716L316.61 18.309L316.798 18.5544C318.396 20.7165 319.24 23.7862 319.3 27.786L319.304 28.2517L319.303 29.452L300.07 29.4527L300.082 30.8801L300.092 31.3009C300.206 34.6341 300.996 37.1733 302.507 38.9033C304.11 40.7389 306.522 41.6734 309.675 41.7402L310.042 41.744L310.423 41.7383L310.851 41.7186C313.001 41.5847 315.281 40.9213 317.691 39.737L318.175 39.4932L318.419 39.364V41.584L318.064 41.7741C315.308 43.1953 312.282 43.9081 308.981 43.9081C304.461 43.9081 301.218 42.6505 299.166 40.1666C297.068 37.6274 296.004 34.0242 296.004 29.3225C296.004 24.8595 297.095 21.3147 299.259 18.6504C301.38 16.0399 304.395 14.7368 308.391 14.7368ZM539.385 0V2.053L539.025 2.07454C532.871 2.49853 529.594 5.88246 529.481 11.9799L529.478 12.3091V16.1645L538.512 16.164L537.726 18.447L529.478 18.4476L529.478 43.194H525.344L525.345 12.5471L525.349 12.1275L525.361 11.7215C525.517 7.70002 526.854 4.82234 529.355 3.00543C531.72 1.28791 534.747 0.297473 538.453 0.0473291L538.94 0.0189009L539.385 0ZM477.478 14.7368C480.613 14.7368 482.818 15.3316 484.119 16.4578L484.276 16.6013L484.439 16.7642L484.594 16.936C485.606 18.1112 486.155 19.8849 486.205 22.2938L486.208 22.6599L486.208 43.194H482.074L482.075 24.0281L482.072 23.6957L482.061 23.375C481.97 21.2666 481.431 19.751 480.359 18.8578C479.253 17.9365 477.712 17.4958 475.767 17.4958C473.363 17.4958 470.937 18.1782 468.498 19.5291L468.067 19.7744L467.572 20.0641L467.572 43.194H463.439V18.706L463.955 18.4113C468.322 15.9599 472.827 14.7368 477.478 14.7368ZM185.837 3.017L199.048 36.2712L199.748 38.984L200.712 36.2712L213.332 3.017H218.955V43.194H214.586L214.748 5.984L212.374 12.6178L200.343 43.194H197.925L185.895 13.3317L183.748 6.984L183.689 13.3317L183.688 43.194H180.381V3.017H185.837ZM396.534 3.017V5.895L384.268 5.89579L384.267 43.194H379.898L379.898 5.89579L367.631 5.895V3.017H396.534ZM65.541 3.017L72.1464 34.4866L73.248 38.984L74.1567 34.4866L81.823 3.017H85.513L93.7111 34.4866L94.748 38.984L95.7237 34.4866L101.739 3.017H106.559L97.459 43.194H92.654L84.6342 13.5102L83.748 7.984L82.6842 13.5102L74.899 43.194H70.101L61 3.017H65.541ZM417.636 14.7368C419.737 14.7368 421.313 15.1497 422.389 15.9418L422.574 16.0856L422.708 16.2034L422.837 16.3308C423.632 17.1653 424.077 18.5712 424.122 20.5922L424.126 20.9348L424.125 23.018L420.464 23.98L420.464 23.0168L420.461 22.7353L420.451 22.46C420.296 19.2878 418.78 17.4958 416.044 17.4958C413.898 17.4958 411.639 18.2517 409.266 19.7387L408.89 19.9795L408.438 20.2757L408.438 43.194H404.305V18.996L404.401 18.9384L405.018 18.579C406.882 17.5213 408.864 16.6493 410.957 15.9665C413.478 15.1445 415.706 14.7368 417.636 14.7368ZM277.851 14.7368C280.986 14.7368 283.192 15.3316 284.492 16.4578L284.65 16.6013L284.812 16.7642L284.967 16.936C285.98 18.1112 286.528 19.8849 286.578 22.2938L286.582 22.6599L286.581 43.194H282.448L282.448 24.0281L282.445 23.6957L282.435 23.375C282.344 21.2666 281.804 19.751 280.732 18.8578C279.626 17.9365 278.086 17.4958 276.141 17.4958C273.736 17.4958 271.31 18.1782 268.871 19.5291L268.44 19.7744L267.946 20.0641L267.945 43.194H263.812V18.707L264.328 18.4113C268.695 15.9599 273.2 14.7368 277.851 14.7368ZM589.258 14.7368C591.359 14.7368 592.935 15.1497 594.011 15.9418L594.196 16.0856L594.331 16.2034L594.46 16.3308C595.255 17.1653 595.7 18.5712 595.744 20.5922L595.748 20.9348V23.018L592.086 23.98L592.086 23.0168L592.083 22.7353L592.073 22.46C591.919 19.2878 590.402 17.4958 587.666 17.4958C585.521 17.4958 583.261 18.2517 580.888 19.7387L580.512 19.9795L580.061 20.2757L580.06 43.194H575.927V18.996L576.023 18.9384L576.64 18.579C578.505 17.5213 580.486 16.6493 582.58 15.9665C585.1 15.1445 587.328 14.7368 589.258 14.7368ZM241.826 16.9009C239.41 16.9009 237.384 18.0154 235.826 20.1705C234.308 22.2704 233.572 25.3234 233.572 29.3225C233.572 33.3947 234.264 36.4593 235.698 38.5194C237.182 40.6509 239.257 41.744 241.826 41.744C244.396 41.744 246.471 40.6509 247.955 38.5194C249.389 36.4593 250.08 33.3947 250.08 29.3225C250.08 25.3278 249.367 22.2796 247.893 20.1816C246.373 18.017 244.322 16.9009 241.826 16.9009ZM158.1 17.3768C156.104 17.3768 153.939 18.0042 151.601 19.2409L151.187 19.4655L150.672 19.7511V40.4599L151.584 40.8385L151.92 40.9643C153.392 41.4886 155.114 41.744 157.097 41.744C162.888 41.744 165.764 37.1015 165.764 28.3707C165.764 21.221 163.201 17.3768 158.1 17.3768ZM448.114 29.5717H443.989L443.622 29.5738L443.26 29.5801C436.801 29.7327 433.317 31.9708 433.317 36.3419C433.317 37.9943 433.885 39.2847 435.035 40.1017C436.079 40.8437 437.363 41.2086 438.858 41.2086C440.671 41.2086 442.421 40.7729 444.094 39.9071C445.624 39.1161 446.828 38.2007 447.699 37.1534L447.91 36.8889L448.114 36.6203V29.5717ZM126.204 16.7225C124.06 16.7225 122.231 17.5865 120.785 19.2726C119.446 20.8343 118.608 23.0559 118.243 25.924L118.191 26.3591L118.071 27.4671H133.746L133.689 26.4136L133.663 25.9909C133.452 23.0642 132.707 20.812 131.392 19.2497C129.987 17.582 128.236 16.7225 126.204 16.7225ZM555.416 16.7225C553.272 16.7225 551.443 17.5865 549.997 19.2726C548.658 20.8343 547.821 23.0559 547.455 25.924L547.403 26.3591L547.283 27.4671H562.958L562.901 26.4136L562.875 25.9909C562.664 23.0642 561.919 20.812 560.604 19.2497C559.2 17.582 557.448 16.7225 555.416 16.7225ZM308.214 16.7225C306.071 16.7225 304.242 17.5865 302.796 19.2726C301.457 20.8343 300.619 23.0559 300.253 25.924L300.202 26.3591L300.082 27.4671H315.756L315.7 26.4136L315.673 25.9909C315.462 23.0642 314.718 20.812 313.402 19.2497C311.998 17.582 310.247 16.7225 308.214 16.7225Z" fill="#006CB4"/>
<path d="M88.539 95.999C89.2317 95.999 89.8219 95.876 90.3095 95.6299C90.7972 95.3838 91.2233 95.0146 91.5878 94.5224C91.9524 94.0303 92.4036 93.0823 92.9414 91.6787L99.5996 74.4111H98.205L95.0605 82.6689C94.1946 85.0023 93.5703 86.7568 93.1875 87.9326H93.1054C92.8502 87.0394 92.2441 85.3122 91.2871 82.751L88.1425 74.4111H86.748L92.4355 89.2724C92.3261 89.5732 92.0823 90.2226 91.7041 91.2207C91.3258 92.2187 90.9931 92.9479 90.706 93.4082C90.4189 93.8685 90.0976 94.208 89.7421 94.4267C89.3867 94.6455 88.9765 94.7549 88.5117 94.7549C87.901 94.7549 87.3313 94.682 86.8027 94.5361V95.7119C87.4407 95.9033 88.0195 95.999 88.539 95.999ZM104.567 89.2724V82.1084H114.001V89.2724H115.341V74.4111H114.001V80.9326H104.567V74.4111H103.214V89.2724H104.567ZM123.207 89.2724L132.025 75.7236L131.971 78.5947V89.2724H133.269V74.4111H131.465L122.646 87.9599L122.728 85.1572V74.4111H121.443V89.2724H123.207ZM145.647 89.2724C147.461 89.2724 148.84 88.8874 149.783 88.1172C150.726 87.347 151.198 86.2464 151.198 84.8154C151.198 83.7855 150.931 82.9948 150.398 82.4433C149.865 81.8919 149.001 81.5478 147.807 81.4111V81.3154C148.856 81.1058 149.612 80.7344 150.077 80.2012C150.542 79.668 150.774 78.932 150.774 77.9931C150.774 76.8265 150.348 75.9378 149.496 75.3271C148.644 74.7165 147.37 74.4111 145.675 74.4111H139.372V89.2724H145.647ZM145.456 80.7822H140.725V75.6963H145.62C146.86 75.6963 147.789 75.8808 148.409 76.25C149.029 76.6191 149.339 77.2366 149.339 78.1025C149.339 79.0322 149.038 79.7112 148.436 80.1396C147.835 80.568 146.841 80.7822 145.456 80.7822ZM145.757 87.9873H140.725V82.0537H145.565C148.363 82.0537 149.762 82.9652 149.762 84.7881C149.762 86.9209 148.427 87.9873 145.757 87.9873ZM162.345 89.5459C163.202 89.5459 163.986 89.4798 164.697 89.3476C165.408 89.2155 166.183 88.9671 167.021 88.6025V87.3721C166.037 87.764 165.223 88.0192 164.581 88.1377C163.938 88.2562 163.193 88.3154 162.345 88.3154C160.605 88.3154 159.267 87.7777 158.333 86.7021C157.399 85.6266 156.922 84.068 156.904 82.0264H167.609V80.9326C167.609 78.8362 167.103 77.1774 166.092 75.956C165.08 74.7347 163.699 74.124 161.949 74.124C159.971 74.124 158.399 74.8372 157.232 76.2637C156.066 77.6901 155.482 79.5882 155.482 81.958C155.482 84.3551 156.086 86.2191 157.294 87.5498C158.501 88.8805 160.185 89.5459 162.345 89.5459ZM166.174 80.8232H156.986C157.132 79.0459 157.638 77.6855 158.504 76.7422C159.37 75.7988 160.518 75.3271 161.949 75.3271C163.271 75.3271 164.305 75.8125 165.052 76.7832C165.8 77.7539 166.174 79.1006 166.174 80.8232ZM174.19 95.999V90.3389C174.19 89.5368 174.172 88.7985 174.135 88.124L174.094 86.9756H174.19C175.238 88.6891 176.906 89.5459 179.194 89.5459C181.108 89.5459 182.619 88.8737 183.726 87.5293C184.834 86.1849 185.387 84.2913 185.387 81.8486C185.387 79.333 184.861 77.4167 183.808 76.0996C182.756 74.7825 181.227 74.124 179.221 74.124C176.979 74.124 175.348 74.9261 174.327 76.5303H174.245L173.985 74.4111H172.837V95.999H174.19ZM179.167 88.3428C177.408 88.3428 176.138 87.846 175.359 86.8525C174.58 85.859 174.19 84.2002 174.19 81.876V81.4385C174.19 79.2874 174.596 77.7357 175.407 76.7832C176.218 75.8307 177.49 75.3545 179.221 75.3545C182.375 75.3545 183.952 77.5374 183.952 81.9033C183.952 83.9359 183.535 85.5172 182.701 86.6474C181.867 87.7777 180.689 88.3428 179.167 88.3428ZM196.562 89.5459C198.103 89.5459 199.347 89.3135 200.295 88.8486V87.5908C199.137 88.0739 197.884 88.3154 196.535 88.3154C194.849 88.3154 193.536 87.748 192.597 86.6133C191.659 85.4785 191.189 83.9085 191.189 81.9033C191.189 79.7887 191.659 78.1686 192.597 77.043C193.536 75.9173 194.917 75.3545 196.74 75.3545C197.688 75.3545 198.804 75.5687 200.089 75.9971L200.459 74.7939C199.283 74.3473 198.052 74.124 196.767 74.124C194.598 74.124 192.889 74.8099 191.64 76.1816C190.392 77.5534 189.767 79.4697 189.767 81.9306C189.767 84.3278 190.369 86.1963 191.572 87.5361C192.775 88.876 194.438 89.5459 196.562 89.5459ZM208.53 89.5459C209.605 89.5459 210.537 89.3476 211.326 88.9512C212.114 88.5547 212.882 87.8779 213.629 86.9209H213.739L214.081 89.2724H215.079V79.3877C215.079 77.5921 214.675 76.2705 213.869 75.4228C213.062 74.5752 211.843 74.1514 210.212 74.1514C208.616 74.1514 207.003 74.5342 205.372 75.2998L205.878 76.4756C207.354 75.7099 208.781 75.3271 210.157 75.3271C211.433 75.3271 212.358 75.6872 212.932 76.4072C213.506 77.1273 213.794 78.1937 213.794 79.6064V80.5908L210.963 80.6728C208.676 80.7184 206.928 81.1422 205.72 81.9443C204.513 82.7464 203.909 83.8721 203.909 85.3213C203.909 86.6429 204.314 87.6774 205.126 88.4248C205.937 89.1722 207.072 89.5459 208.53 89.5459ZM208.612 88.3154C207.573 88.3154 206.768 88.0579 206.199 87.543C205.629 87.028 205.344 86.3056 205.344 85.376C205.344 84.2093 205.789 83.3502 206.677 82.7988C207.566 82.2474 209.054 81.9215 211.141 81.8213L213.739 81.7119V83.1748C213.739 84.7881 213.281 86.0482 212.365 86.9551C211.449 87.862 210.198 88.3154 208.612 88.3154ZM219.732 89.4092C220.725 89.4092 221.534 88.9648 222.159 88.0762C222.783 87.1875 223.293 85.7975 223.69 83.9062C224.086 82.015 224.421 79.2692 224.695 75.6689H229.959V89.2724H231.298V74.4111H223.478C223.15 79.2236 222.669 82.7168 222.036 84.8906C221.402 87.0644 220.571 88.1514 219.541 88.1514C219.222 88.1514 218.975 88.124 218.802 88.0693V89.2998C219.067 89.3727 219.376 89.4092 219.732 89.4092ZM243.567 89.2724C245.39 89.2724 246.789 88.8782 247.764 88.0898C248.739 87.3014 249.227 86.2008 249.227 84.7881C249.227 82.0446 247.482 80.6728 243.991 80.6728H238.754V74.4111H237.401V89.2724H243.567ZM243.786 87.9873H238.754V81.958H243.704C245.208 81.958 246.265 82.179 246.875 82.6211C247.486 83.0631 247.791 83.7764 247.791 84.7607C247.791 85.818 247.447 86.6201 246.759 87.167C246.071 87.7139 245.08 87.9873 243.786 87.9873ZM255.808 89.2724V82.1084H265.242V89.2724H266.581V74.4111H265.242V80.9326H255.808V74.4111H254.455V89.2724H255.808ZM276.157 89.5459C277.232 89.5459 278.164 89.3476 278.953 88.9512C279.741 88.5547 280.509 87.8779 281.256 86.9209H281.366L281.707 89.2724H282.705V79.3877C282.705 77.5921 282.302 76.2705 281.495 75.4228C280.689 74.5752 279.47 74.1514 277.838 74.1514C276.243 74.1514 274.63 74.5342 272.998 75.2998L273.504 76.4756C274.981 75.7099 276.407 75.3271 277.784 75.3271C279.06 75.3271 279.985 75.6872 280.559 76.4072C281.133 77.1273 281.42 78.1937 281.42 79.6064V80.5908L278.59 80.6728C276.302 80.7184 274.555 81.1422 273.347 81.9443C272.139 82.7464 271.536 83.8721 271.536 85.3213C271.536 86.6429 271.941 87.6774 272.752 88.4248C273.564 89.1722 274.698 89.5459 276.157 89.5459ZM276.239 88.3154C275.2 88.3154 274.395 88.0579 273.826 87.543C273.256 87.028 272.971 86.3056 272.971 85.376C272.971 84.2093 273.415 83.3502 274.304 82.7988C275.193 82.2474 276.681 81.9215 278.768 81.8213L281.366 81.7119V83.1748C281.366 84.7881 280.908 86.0482 279.992 86.9551C279.076 87.862 277.825 88.3154 276.239 88.3154ZM288.425 89.2724L292.595 83.0244H297.134V89.2724H298.474V74.4111H292.349C290.818 74.4111 289.599 74.8008 288.692 75.5801C287.785 76.3594 287.331 77.4235 287.331 78.7724C287.331 79.8571 287.634 80.7458 288.241 81.4385C288.847 82.1312 289.833 82.6051 291.201 82.8603L286.716 89.2724H288.425ZM297.134 81.7392H292.732C291.401 81.7392 290.405 81.4909 289.744 80.9941C289.084 80.4974 288.753 79.7386 288.753 78.7178C288.753 77.7334 289.065 76.9837 289.69 76.4687C290.314 75.9538 291.191 75.6963 292.322 75.6963H297.134V81.7392ZM318.909 89.5459C320.45 89.5459 321.694 89.3135 322.642 88.8486V87.5908C321.484 88.0739 320.231 88.3154 318.882 88.3154C317.196 88.3154 315.883 87.748 314.945 86.6133C314.006 85.4785 313.536 83.9085 313.536 81.9033C313.536 79.7887 314.006 78.1686 314.945 77.043C315.883 75.9173 317.264 75.3545 319.087 75.3545C320.035 75.3545 321.152 75.5687 322.437 75.9971L322.806 74.7939C321.63 74.3473 320.4 74.124 319.114 74.124C316.945 74.124 315.236 74.8099 313.988 76.1816C312.739 77.5534 312.114 79.4697 312.114 81.9306C312.114 84.3278 312.716 86.1963 313.919 87.5361C315.122 88.876 316.786 89.5459 318.909 89.5459ZM329.168 89.2724L337.986 75.7236L337.932 78.5947V89.2724H339.231V74.4111H337.426L328.608 87.9599L328.69 85.1572V74.4111H327.404V89.2724H329.168ZM351.267 89.5459C352.807 89.5459 354.051 89.3135 354.999 88.8486V87.5908C353.842 88.0739 352.588 88.3154 351.239 88.3154C349.553 88.3154 348.241 87.748 347.302 86.6133C346.363 85.4785 345.894 83.9085 345.894 81.9033C345.894 79.7887 346.363 78.1686 347.302 77.043C348.241 75.9173 349.622 75.3545 351.444 75.3545C352.392 75.3545 353.509 75.5687 354.794 75.9971L355.163 74.7939C353.987 74.3473 352.757 74.124 351.472 74.124C349.303 74.124 347.594 74.8099 346.345 76.1816C345.096 77.5534 344.472 79.4697 344.472 81.9306C344.472 84.3278 345.073 86.1963 346.276 87.5361C347.48 88.876 349.143 89.5459 351.267 89.5459ZM364.246 89.2724V75.5869H369.195V74.4111H357.834V75.5869H362.906V89.2724H364.246ZM379.099 89.5459C379.955 89.5459 380.739 89.4798 381.45 89.3476C382.161 89.2155 382.936 88.9671 383.774 88.6025V87.3721C382.79 87.764 381.977 88.0192 381.334 88.1377C380.691 88.2562 379.946 88.3154 379.099 88.3154C377.358 88.3154 376.02 87.7777 375.086 86.7021C374.152 85.6266 373.675 84.068 373.657 82.0264H384.362V80.9326C384.362 78.8362 383.856 77.1774 382.845 75.956C381.833 74.7347 380.452 74.124 378.702 74.124C376.724 74.124 375.152 74.8372 373.985 76.2637C372.819 77.6901 372.235 79.5882 372.235 81.958C372.235 84.3551 372.839 86.2191 374.047 87.5498C375.255 88.8805 376.938 89.5459 379.099 89.5459ZM382.927 80.8232H373.739C373.885 79.0459 374.391 77.6855 375.257 76.7422C376.123 75.7988 377.271 75.3271 378.702 75.3271C380.024 75.3271 381.058 75.8125 381.806 76.7832C382.553 77.7539 382.927 79.1006 382.927 80.8232ZM390.82 89.2724V75.9971C391.003 76.5348 391.169 77.0361 391.319 77.501C391.47 77.9658 391.631 78.4079 391.805 78.8271L395.92 89.2724H397.123C399.876 82.236 401.364 78.417 401.587 77.8154C401.81 77.2139 402.022 76.626 402.223 76.0517V89.2724H403.508V74.4111H401.635L397.355 85.4306L396.508 87.8232C396.289 87.0576 396.011 86.2327 395.674 85.3486L391.381 74.4111H389.59V89.2724H390.82ZM413.083 89.5459C414.158 89.5459 415.09 89.3476 415.879 88.9512C416.667 88.5547 417.435 87.8779 418.183 86.9209H418.292L418.634 89.2724H419.632V79.3877C419.632 77.5921 419.228 76.2705 418.422 75.4228C417.615 74.5752 416.396 74.1514 414.765 74.1514C413.17 74.1514 411.556 74.5342 409.925 75.2998L410.431 76.4756C411.907 75.7099 413.334 75.3271 414.71 75.3271C415.986 75.3271 416.911 75.6872 417.485 76.4072C418.059 77.1273 418.347 78.1937 418.347 79.6064V80.5908L415.517 80.6728C413.229 80.7184 411.481 81.1422 410.273 81.9443C409.066 82.7464 408.462 83.8721 408.462 85.3213C408.462 86.6429 408.867 87.6774 409.679 88.4248C410.49 89.1722 411.625 89.5459 413.083 89.5459ZM413.165 88.3154C412.126 88.3154 411.322 88.0579 410.752 87.543C410.182 87.028 409.897 86.3056 409.897 85.376C409.897 84.2093 410.342 83.3502 411.23 82.7988C412.119 82.2474 413.607 81.9215 415.694 81.8213L418.292 81.7119V83.1748C418.292 84.7881 417.834 86.0482 416.918 86.9551C416.002 87.862 414.751 88.3154 413.165 88.3154ZM435.323 95.999V90.3389C435.323 89.5368 435.305 88.7985 435.268 88.124L435.227 86.9756H435.323C436.371 88.6891 438.039 89.5459 440.327 89.5459C442.241 89.5459 443.752 88.8737 444.859 87.5293C445.967 86.1849 446.52 84.2913 446.52 81.8486C446.52 79.333 445.994 77.4167 444.941 76.0996C443.888 74.7825 442.36 74.124 440.354 74.124C438.112 74.124 436.481 74.9261 435.46 76.5303H435.378L435.118 74.4111H433.97V95.999H435.323ZM440.3 88.3428C438.54 88.3428 437.271 87.846 436.492 86.8525C435.713 85.859 435.323 84.2002 435.323 81.876V81.4385C435.323 79.2874 435.729 77.7357 436.54 76.7832C437.351 75.8307 438.623 75.3545 440.354 75.3545C443.508 75.3545 445.085 77.5374 445.085 81.9033C445.085 83.9359 444.668 85.5172 443.834 86.6474C443 87.7777 441.822 88.3428 440.3 88.3428ZM455.234 89.5459C456.31 89.5459 457.242 89.3476 458.03 88.9512C458.818 88.5547 459.586 87.8779 460.334 86.9209H460.443L460.785 89.2724H461.783V79.3877C461.783 77.5921 461.38 76.2705 460.573 75.4228C459.766 74.5752 458.547 74.1514 456.916 74.1514C455.321 74.1514 453.707 74.5342 452.076 75.2998L452.582 76.4756C454.058 75.7099 455.485 75.3271 456.861 75.3271C458.137 75.3271 459.062 75.6872 459.636 76.4072C460.211 77.1273 460.498 78.1937 460.498 79.6064V80.5908L457.668 80.6728C455.38 80.7184 453.632 81.1422 452.425 81.9443C451.217 82.7464 450.613 83.8721 450.613 85.3213C450.613 86.6429 451.019 87.6774 451.83 88.4248C452.641 89.1722 453.776 89.5459 455.234 89.5459ZM455.316 88.3154C454.277 88.3154 453.473 88.0579 452.903 87.543C452.333 87.028 452.049 86.3056 452.049 85.376C452.049 84.2093 452.493 83.3502 453.382 82.7988C454.27 82.2474 455.758 81.9215 457.845 81.8213L460.443 81.7119V83.1748C460.443 84.7881 459.985 86.0482 459.069 86.9551C458.153 87.862 456.902 88.3154 455.316 88.3154ZM473.655 89.5459C475.195 89.5459 476.439 89.3135 477.387 88.8486V87.5908C476.23 88.0739 474.977 88.3154 473.628 88.3154C471.941 88.3154 470.629 87.748 469.69 86.6133C468.751 85.4785 468.282 83.9085 468.282 81.9033C468.282 79.7887 468.751 78.1686 469.69 77.043C470.629 75.9173 472.01 75.3545 473.833 75.3545C474.781 75.3545 475.897 75.5687 477.182 75.9971L477.551 74.7939C476.376 74.3473 475.145 74.124 473.86 74.124C471.691 74.124 469.982 74.8099 468.733 76.1816C467.484 77.5534 466.86 79.4697 466.86 81.9306C466.86 84.3278 467.462 86.1963 468.665 87.5361C469.868 88.876 471.531 89.5459 473.655 89.5459ZM493.416 89.2724V74.4111H492.062V80.9326C491.187 81.6344 490.344 82.1448 489.533 82.4639C488.722 82.7829 487.869 82.9424 486.976 82.9424C485.709 82.9424 484.77 82.6644 484.16 82.1084C483.549 81.5524 483.244 80.6455 483.244 79.3877V74.4111H481.904V79.5517C481.904 81.0465 482.294 82.1904 483.073 82.9834C483.852 83.7764 485.003 84.1728 486.525 84.1728C487.546 84.1728 488.496 84.0224 489.376 83.7217C490.255 83.4209 491.151 82.9196 492.062 82.2178V89.2724H493.416ZM505.52 89.5459C506.377 89.5459 507.161 89.4798 507.872 89.3476C508.583 89.2155 509.357 88.9671 510.196 88.6025V87.3721C509.212 87.764 508.398 88.0192 507.755 88.1377C507.113 88.2562 506.368 88.3154 505.52 88.3154C503.779 88.3154 502.442 87.7777 501.507 86.7021C500.573 85.6266 500.097 84.068 500.079 82.0264H510.784V80.9326C510.784 78.8362 510.278 77.1774 509.266 75.956C508.254 74.7347 506.874 74.124 505.124 74.124C503.146 74.124 501.574 74.8372 500.407 76.2637C499.24 77.6901 498.657 79.5882 498.657 81.958C498.657 84.3551 499.261 86.2191 500.468 87.5498C501.676 88.8805 503.36 89.5459 505.52 89.5459ZM509.348 80.8232H500.161C500.307 79.0459 500.812 77.6855 501.678 76.7422C502.544 75.7988 503.693 75.3271 505.124 75.3271C506.445 75.3271 507.48 75.8125 508.227 76.7832C508.975 77.7539 509.348 79.1006 509.348 80.8232ZM520.496 89.2724V75.5869H525.445V74.4111H514.084V75.5869H519.156V89.2724H520.496ZM535.006 89.5459C537.075 89.5459 538.698 88.8646 539.874 87.5019C541.049 86.1393 541.637 84.2458 541.637 81.8213C541.637 79.4333 541.056 77.5534 539.894 76.1816C538.732 74.8099 537.13 74.124 535.088 74.124C533.038 74.124 531.424 74.8008 530.249 76.1543C529.073 77.5078 528.485 79.3968 528.485 81.8213C528.485 83.3616 528.749 84.7197 529.278 85.8955C529.806 87.0713 530.568 87.9736 531.561 88.6025C532.555 89.2314 533.703 89.5459 535.006 89.5459ZM535.061 88.3154C533.42 88.3154 532.151 87.7435 531.253 86.5996C530.356 85.4557 529.907 83.8629 529.907 81.8213C529.907 79.7614 530.351 78.1686 531.24 77.043C532.128 75.9173 533.393 75.3545 535.034 75.3545C536.674 75.3545 537.948 75.9196 538.855 77.0498C539.762 78.18 540.215 79.7705 540.215 81.8213C540.215 83.8629 539.766 85.4557 538.869 86.5996C537.971 87.7435 536.702 88.3154 535.061 88.3154ZM553.154 89.2724C554.968 89.2724 556.346 88.8874 557.29 88.1172C558.233 87.347 558.705 86.2464 558.705 84.8154C558.705 83.7855 558.438 82.9948 557.905 82.4433C557.372 81.8919 556.508 81.5478 555.314 81.4111V81.3154C556.362 81.1058 557.119 80.7344 557.583 80.2012C558.048 79.668 558.281 78.932 558.281 77.9931C558.281 76.8265 557.855 75.9378 557.002 75.3271C556.15 74.7165 554.876 74.4111 553.181 74.4111H546.878V89.2724H553.154ZM552.962 80.7822H548.232V75.6963H553.126C554.366 75.6963 555.296 75.8808 555.915 76.25C556.535 76.6191 556.845 77.2366 556.845 78.1025C556.845 79.0322 556.544 79.7112 555.943 80.1396C555.341 80.568 554.348 80.7822 552.962 80.7822ZM553.263 87.9873H548.232V82.0537H553.072C555.87 82.0537 557.269 82.9652 557.269 84.7881C557.269 86.9209 555.934 87.9873 553.263 87.9873Z" fill="#006CB4"/>
</svg>
