<svg width="655" height="96" viewBox="0 0 655 96" fill="none" xmlns="http://www.w3.org/2000/svg">
<path d="M329.843 15.748L337.392 37.6394L338.248 40.484L339.198 37.6394L345.921 15.748H350.071L339.877 44.1539L339.693 44.658L339.504 45.1601C338.169 48.6335 336.658 51.2463 334.988 52.9953L334.748 53.2393L334.514 53.4633L334.247 53.701C332.805 54.9375 331.058 55.6714 328.983 55.9035L328.59 55.9411L328.49 55.947V53.045L328.558 53.037L328.824 52.9976C332.172 52.443 334.639 49.7791 336.218 45.1783L336.344 44.801L336.453 44.4656L325.52 15.748H329.843ZM505.482 14.7368L505.982 14.7431L506.514 14.7636C508.821 14.8839 511.047 15.4099 513.196 16.3436L513.656 16.5499L514.035 16.731V19.089L513.974 19.0545L513.542 18.8223C511.088 17.5435 508.596 16.9009 506.071 16.9009C504.367 16.9009 502.932 17.2403 501.779 17.9377C500.484 18.7214 499.823 20.0029 499.823 21.6486C499.823 23.2157 500.532 24.5042 501.883 25.4207C502.983 26.1675 504.615 26.8977 506.794 27.6288L507.55 27.8807L509.153 28.4295L509.954 28.7135L510.308 28.8451L510.507 28.9255L510.72 29.0155L511.184 29.224L511.436 29.3425L511.976 29.6079C512.165 29.7027 512.362 29.8038 512.567 29.9111C513.54 30.4199 514.25 30.9155 514.696 31.3817C515.147 31.8536 515.571 32.499 515.96 33.3201C516.327 34.0949 516.512 34.9598 516.512 35.9255C516.512 38.3466 515.57 40.2303 513.642 41.6673C511.735 43.0885 509.171 43.8411 505.928 43.9038L505.482 43.9081L504.997 43.9038L504.469 43.8891C501.505 43.7759 498.965 43.1582 496.84 42.0432L496.469 41.8413L496.279 41.73V39.355L496.538 39.4903L497 39.7208C499.76 41.0661 502.35 41.744 504.774 41.744C509.585 41.744 512.261 39.9771 512.261 36.4609C512.261 35.7418 512.093 35.0636 511.759 34.4412C511.45 33.8665 511.084 33.3867 510.658 33.0073C510.247 32.6412 509.64 32.2626 508.822 31.8501L508.534 31.7067L508.256 31.5727L507.733 31.333C507.482 31.2225 507.248 31.1261 507.028 31.0437L504.405 30.1068L503.642 29.8214L502.933 29.549L501.973 29.1653L501.403 28.9263L501.139 28.8118L500.653 28.5932C499.772 28.186 498.886 27.6553 497.995 27C497.185 26.4044 496.608 25.7144 496.248 24.9231C495.879 24.1095 495.689 23.1193 495.689 21.9461C495.689 20.4691 496.03 19.2333 496.703 18.2144C497.38 17.19 498.245 16.4688 499.315 16.0303C500.514 15.5388 501.601 15.2015 502.572 15.0166C503.39 14.8611 504.199 14.7705 505.001 14.7446L505.482 14.7368ZM555.593 14.7368C558.96 14.7368 561.542 15.7699 563.412 17.8376L563.617 18.0716L563.811 18.309L563.999 18.5544C565.597 20.7165 566.442 23.7862 566.502 27.786L566.505 28.2517L566.505 29.452L547.271 29.4527L547.283 30.8801L547.294 31.3009C547.407 34.6341 548.198 37.1733 549.709 38.9033C551.312 40.7389 553.723 41.6734 556.877 41.7402L557.244 41.744L557.624 41.7383L558.052 41.7186C560.203 41.5847 562.483 40.9213 564.893 39.737L565.377 39.4932L565.62 39.364V41.585L565.266 41.7741C562.509 43.1953 559.483 43.9081 556.182 43.9081C551.663 43.9081 548.419 42.6505 546.367 40.1666C544.27 37.6274 543.205 34.0242 543.205 29.3225C543.205 24.8595 544.297 21.3147 546.461 18.6504C548.582 16.0399 551.596 14.7368 555.593 14.7368ZM442.691 14.7368C446.281 14.7368 448.732 15.4232 450.076 16.7158L450.22 16.8619L450.384 17.0432L450.541 17.2329C451.614 18.5868 452.191 20.5517 452.244 23.1567L452.248 23.5522L452.247 43.194H448.533L448.011 38.8318L446.242 40.2577L445.886 40.5342C442.921 42.7925 439.991 43.9081 437.089 43.9081C434.504 43.9081 432.565 43.2327 431.214 41.9048C429.856 40.5699 429.184 38.8947 429.184 36.8178C429.184 35.7154 429.385 34.6616 429.79 33.6498C430.191 32.6479 430.865 31.6556 431.82 30.6742C432.732 29.7368 434.161 28.9526 436.118 28.344C437.984 27.7635 440.223 27.4509 442.834 27.4118L443.399 27.4076H448.055V24.8014L448.053 24.4515L448.043 24.0859C447.956 21.5609 447.396 19.7465 446.284 18.6472C445.139 17.5155 443.364 16.9555 440.988 16.9047L440.627 16.9009L440.3 16.9056L439.953 16.9205C437.629 17.0534 434.97 17.8634 431.963 19.3393L431.485 19.5779L431.188 19.73V17.3L431.739 17.0647C435.46 15.5118 439.111 14.7368 442.691 14.7368ZM241.826 14.7368C245.604 14.7368 248.588 15.9645 250.85 18.4284C253.12 20.902 254.272 24.5182 254.272 29.3225C254.272 34.0892 253.129 37.6977 250.874 40.1924C248.668 42.6731 245.679 43.9081 241.826 43.9081C237.972 43.9081 234.972 42.6722 232.752 40.1954C230.515 37.7005 229.38 34.0906 229.38 29.3225C229.38 24.5182 230.532 20.902 232.803 18.4284C235.064 15.9645 238.049 14.7368 241.826 14.7368ZM150.73 0.255L150.731 17.5945L152.648 16.5849L153.099 16.3608C155.352 15.2765 157.55 14.7368 159.692 14.7368C163.051 14.7368 165.546 15.8535 167.275 18.0951C169.049 20.3962 169.956 23.8145 169.956 28.3707C169.956 33.5815 168.806 37.4652 166.546 40.0571C164.308 42.6243 161.185 43.9081 157.097 43.9081C155.661 43.9081 154.003 43.7001 152.126 43.2814L151.609 43.162L151.047 43.0221L150.497 42.8729C149.409 42.5651 148.391 42.2017 147.443 41.7829L146.974 41.5688L146.597 41.384V1.258L150.73 0.255ZM126.38 14.7368C129.748 14.7368 132.33 15.7699 134.2 17.8376L134.405 18.0716L134.599 18.309L134.787 18.5544C136.385 20.7165 137.229 23.7862 137.29 27.786L137.293 28.2517L137.293 29.452L118.059 29.4527L118.071 30.8801L118.082 31.3009C118.195 34.6341 118.986 37.1733 120.496 38.9033C122.1 40.7389 124.511 41.6734 127.665 41.7402L128.032 41.744L128.412 41.7383L128.84 41.7186C130.991 41.5847 133.27 40.9213 135.681 39.737L136.165 39.4932L136.408 39.364V41.585L136.053 41.7741C133.297 43.1953 130.271 43.9081 126.97 43.9081C122.451 43.9081 119.207 42.6505 117.155 40.1666C115.057 37.6274 113.993 34.0242 113.993 29.3225C113.993 24.8595 115.085 21.3147 117.249 18.6504C119.37 16.0399 122.384 14.7368 126.38 14.7368ZM308.391 14.7368C311.759 14.7368 314.341 15.7699 316.211 17.8376L316.415 18.0716L316.61 18.309L316.798 18.5544C318.396 20.7165 319.24 23.7862 319.3 27.786L319.304 28.2517L319.303 29.452L300.07 29.4527L300.082 30.8801L300.092 31.3009C300.206 34.6341 300.996 37.1733 302.507 38.9033C304.11 40.7389 306.522 41.6734 309.675 41.7402L310.042 41.744L310.423 41.7383L310.851 41.7186C313.001 41.5847 315.281 40.9213 317.691 39.737L318.175 39.4932L318.419 39.364V41.584L318.064 41.7741C315.308 43.1953 312.282 43.9081 308.981 43.9081C304.461 43.9081 301.218 42.6505 299.166 40.1666C297.068 37.6274 296.004 34.0242 296.004 29.3225C296.004 24.8595 297.095 21.3147 299.259 18.6504C301.38 16.0399 304.395 14.7368 308.391 14.7368ZM539.385 0V2.053L539.025 2.07454C532.871 2.49853 529.594 5.88246 529.481 11.9799L529.478 12.3091V16.1645L538.512 16.164L537.726 18.447L529.478 18.4476L529.478 43.194H525.344L525.345 12.5471L525.349 12.1275L525.361 11.7215C525.517 7.70002 526.854 4.82234 529.355 3.00543C531.72 1.28791 534.747 0.297473 538.453 0.0473291L538.94 0.0189009L539.385 0ZM477.478 14.7368C480.613 14.7368 482.818 15.3316 484.119 16.4578L484.276 16.6013L484.439 16.7642L484.594 16.936C485.606 18.1112 486.155 19.8849 486.205 22.2938L486.208 22.6599L486.208 43.194H482.074L482.075 24.0281L482.072 23.6957L482.061 23.375C481.97 21.2666 481.431 19.751 480.359 18.8578C479.253 17.9365 477.712 17.4958 475.767 17.4958C473.363 17.4958 470.937 18.1782 468.498 19.5291L468.067 19.7744L467.572 20.0641L467.572 43.194H463.439V18.706L463.955 18.4113C468.322 15.9599 472.827 14.7368 477.478 14.7368ZM185.837 3.017L199.048 36.2712L199.748 38.984L200.712 36.2712L213.332 3.017H218.955V43.194H214.586L214.748 5.984L212.374 12.6178L200.343 43.194H197.925L185.895 13.3317L183.748 6.984L183.689 13.3317L183.688 43.194H180.381V3.017H185.837ZM396.534 3.017V5.895L384.268 5.89579L384.267 43.194H379.898L379.898 5.89579L367.631 5.895V3.017H396.534ZM65.541 3.017L72.1464 34.4866L73.248 38.984L74.1567 34.4866L81.823 3.017H85.513L93.7111 34.4866L94.748 38.984L95.7237 34.4866L101.739 3.017H106.559L97.459 43.194H92.654L84.6342 13.5102L83.748 7.984L82.6842 13.5102L74.899 43.194H70.101L61 3.017H65.541ZM417.636 14.7368C419.737 14.7368 421.313 15.1497 422.389 15.9418L422.574 16.0856L422.708 16.2034L422.837 16.3308C423.632 17.1653 424.077 18.5712 424.122 20.5922L424.126 20.9348L424.125 23.018L420.464 23.98L420.464 23.0168L420.461 22.7353L420.451 22.46C420.296 19.2878 418.78 17.4958 416.044 17.4958C413.898 17.4958 411.639 18.2517 409.266 19.7387L408.89 19.9795L408.438 20.2757L408.438 43.194H404.305V18.996L404.401 18.9384L405.018 18.579C406.882 17.5213 408.864 16.6493 410.957 15.9665C413.478 15.1445 415.706 14.7368 417.636 14.7368ZM277.851 14.7368C280.986 14.7368 283.192 15.3316 284.492 16.4578L284.65 16.6013L284.812 16.7642L284.967 16.936C285.98 18.1112 286.528 19.8849 286.578 22.2938L286.582 22.6599L286.581 43.194H282.448L282.448 24.0281L282.445 23.6957L282.435 23.375C282.344 21.2666 281.804 19.751 280.732 18.8578C279.626 17.9365 278.086 17.4958 276.141 17.4958C273.736 17.4958 271.31 18.1782 268.871 19.5291L268.44 19.7744L267.946 20.0641L267.945 43.194H263.812V18.707L264.328 18.4113C268.695 15.9599 273.2 14.7368 277.851 14.7368ZM589.258 14.7368C591.359 14.7368 592.935 15.1497 594.011 15.9418L594.196 16.0856L594.331 16.2034L594.46 16.3308C595.255 17.1653 595.7 18.5712 595.744 20.5922L595.748 20.9348V23.018L592.086 23.98L592.086 23.0168L592.083 22.7353L592.073 22.46C591.919 19.2878 590.402 17.4958 587.666 17.4958C585.521 17.4958 583.261 18.2517 580.888 19.7387L580.512 19.9795L580.061 20.2757L580.06 43.194H575.927V18.996L576.023 18.9384L576.64 18.579C578.505 17.5213 580.486 16.6493 582.58 15.9665C585.1 15.1445 587.328 14.7368 589.258 14.7368ZM241.826 16.9009C239.41 16.9009 237.384 18.0154 235.826 20.1705C234.308 22.2704 233.572 25.3234 233.572 29.3225C233.572 33.3947 234.264 36.4593 235.698 38.5194C237.182 40.6509 239.257 41.744 241.826 41.744C244.396 41.744 246.471 40.6509 247.955 38.5194C249.389 36.4593 250.08 33.3947 250.08 29.3225C250.08 25.3278 249.367 22.2796 247.893 20.1816C246.373 18.017 244.322 16.9009 241.826 16.9009ZM158.1 17.3768C156.104 17.3768 153.939 18.0042 151.601 19.2409L151.187 19.4655L150.672 19.7511V40.4599L151.584 40.8385L151.92 40.9643C153.392 41.4886 155.114 41.744 157.097 41.744C162.888 41.744 165.764 37.1015 165.764 28.3707C165.764 21.221 163.201 17.3768 158.1 17.3768ZM448.114 29.5717H443.989L443.622 29.5738L443.26 29.5801C436.801 29.7327 433.317 31.9708 433.317 36.3419C433.317 37.9943 433.885 39.2847 435.035 40.1017C436.079 40.8437 437.363 41.2086 438.858 41.2086C440.671 41.2086 442.421 40.7729 444.094 39.9071C445.624 39.1161 446.828 38.2007 447.699 37.1534L447.91 36.8889L448.114 36.6203V29.5717ZM126.204 16.7225C124.06 16.7225 122.231 17.5865 120.785 19.2726C119.446 20.8343 118.608 23.0559 118.243 25.924L118.191 26.3591L118.071 27.4671H133.746L133.689 26.4136L133.663 25.9909C133.452 23.0642 132.707 20.812 131.392 19.2497C129.987 17.582 128.236 16.7225 126.204 16.7225ZM555.416 16.7225C553.272 16.7225 551.443 17.5865 549.997 19.2726C548.658 20.8343 547.821 23.0559 547.455 25.924L547.403 26.3591L547.283 27.4671H562.958L562.901 26.4136L562.875 25.9909C562.664 23.0642 561.919 20.812 560.604 19.2497C559.2 17.582 557.448 16.7225 555.416 16.7225ZM308.214 16.7225C306.071 16.7225 304.242 17.5865 302.796 19.2726C301.457 20.8343 300.619 23.0559 300.253 25.924L300.202 26.3591L300.082 27.4671H315.756L315.7 26.4136L315.673 25.9909C315.462 23.0642 314.718 20.812 313.402 19.2497C311.998 17.582 310.247 16.7225 308.214 16.7225Z" fill="#006CB4"/>
<path d="M176.863 95.5469C177.72 95.5469 178.504 95.4808 179.215 95.3486C179.926 95.2165 180.701 94.9681 181.539 94.6035V93.373C180.555 93.765 179.741 94.0202 179.099 94.1387C178.456 94.2572 177.711 94.3164 176.863 94.3164C175.122 94.3164 173.785 93.7786 172.851 92.7031C171.916 91.6276 171.44 90.069 171.422 88.0273H182.127V86.9336C182.127 84.8372 181.621 83.1784 180.609 81.957C179.598 80.7357 178.217 80.125 176.467 80.125C174.489 80.125 172.917 80.8382 171.75 82.2646C170.583 83.6911 170 85.5892 170 87.959C170 90.3561 170.604 92.2201 171.812 93.5508C173.019 94.8815 174.703 95.5469 176.863 95.5469ZM180.691 86.8242H171.504C171.65 85.0469 172.156 83.6865 173.021 82.7432C173.887 81.7998 175.036 81.3281 176.467 81.3281C177.788 81.3281 178.823 81.8135 179.57 82.7842C180.318 83.7549 180.691 85.1016 180.691 86.8242ZM191.415 95.2734L197.157 80.4121H195.763L191.921 90.4883C191.529 91.5273 191.146 92.6667 190.772 93.9062H190.69C190.435 92.9401 190.052 91.8099 189.542 90.5156L185.7 80.4121H184.306L190.048 95.2734H191.415ZM202.125 95.2734V87.0703C202.125 85.4297 202.53 84.0716 203.342 82.9961C204.153 81.9206 205.192 81.3828 206.459 81.3828C207.124 81.3828 207.767 81.4603 208.387 81.6152L208.646 80.3164C207.926 80.1888 207.252 80.125 206.623 80.125C205.639 80.125 204.8 80.346 204.107 80.7881C203.415 81.2301 202.763 81.998 202.152 83.0918H202.057L201.92 80.4121H200.771V95.2734H202.125ZM218.235 95.5469C219.092 95.5469 219.876 95.4808 220.587 95.3486C221.298 95.2165 222.072 94.9681 222.911 94.6035V93.373C221.927 93.765 221.113 94.0202 220.471 94.1387C219.828 94.2572 219.083 94.3164 218.235 94.3164C216.494 94.3164 215.157 93.7786 214.223 92.7031C213.288 91.6276 212.812 90.069 212.794 88.0273H223.499V86.9336C223.499 84.8372 222.993 83.1784 221.981 81.957C220.97 80.7357 219.589 80.125 217.839 80.125C215.861 80.125 214.289 80.8382 213.122 82.2646C211.955 83.6911 211.372 85.5892 211.372 87.959C211.372 90.3561 211.976 92.2201 213.183 93.5508C214.391 94.8815 216.075 95.5469 218.235 95.5469ZM222.063 86.8242H212.876C213.022 85.0469 213.528 83.6865 214.393 82.7432C215.259 81.7998 216.408 81.3281 217.839 81.3281C219.16 81.3281 220.195 81.8135 220.942 82.7842C221.69 83.7549 222.063 85.1016 222.063 86.8242ZM230.08 95.2734V87.0703C230.08 85.056 230.492 83.5999 231.317 82.7021C232.142 81.8044 233.443 81.3555 235.22 81.3555C236.542 81.3555 237.517 81.695 238.146 82.374C238.775 83.0531 239.09 84.14 239.09 85.6348V95.2734H240.429V85.5527C240.429 81.9342 238.743 80.125 235.371 80.125C232.901 80.125 231.183 80.8997 230.217 82.4492H230.135L229.875 80.4121H228.726V95.2734H230.08ZM249.759 95.5469C251.618 95.5469 253.053 95.1891 254.065 94.4736C255.077 93.7581 255.583 92.735 255.583 91.4043C255.583 90.7389 255.43 90.1602 255.125 89.668C254.819 89.1758 254.361 88.736 253.751 88.3486C253.14 87.9613 252.165 87.526 250.825 87.043C249.221 86.4688 248.143 85.9492 247.592 85.4844C247.04 85.0195 246.764 84.3997 246.764 83.625C246.764 82.9141 247.12 82.3581 247.831 81.957C248.542 81.556 249.503 81.3555 250.716 81.3555C251.964 81.3555 253.318 81.6562 254.776 82.2578L255.282 81.0273C253.842 80.4258 252.32 80.125 250.716 80.125C249.038 80.125 247.733 80.4486 246.799 81.0957C245.864 81.7428 245.397 82.6224 245.397 83.7344C245.397 84.4362 245.55 85.0309 245.855 85.5186C246.161 86.0062 246.614 86.4437 247.216 86.8311C247.817 87.2184 248.861 87.681 250.346 88.2188L250.659 88.3325C251.883 88.7881 252.774 89.2515 253.334 89.7227C253.94 90.2331 254.243 90.862 254.243 91.6094C254.243 92.4206 253.862 93.07 253.101 93.5576C252.34 94.0452 251.226 94.2891 249.759 94.2891C248.1 94.2891 246.523 93.9154 245.028 93.168V94.6309C246.195 95.2415 247.772 95.5469 249.759 95.5469ZM266.539 95.5469C267.396 95.5469 268.179 95.4808 268.89 95.3486C269.601 95.2165 270.376 94.9681 271.215 94.6035V93.373C270.23 93.765 269.417 94.0202 268.774 94.1387C268.132 94.2572 267.386 94.3164 266.539 94.3164C264.798 94.3164 263.46 93.7786 262.526 92.7031C261.592 91.6276 261.116 90.069 261.097 88.0273H271.802V86.9336C271.802 84.8372 271.297 83.1784 270.285 81.957C269.273 80.7357 267.892 80.125 266.142 80.125C264.164 80.125 262.592 80.8382 261.425 82.2646C260.259 83.6911 259.675 85.5892 259.675 87.959C259.675 90.3561 260.279 92.2201 261.487 93.5508C262.695 94.8815 264.379 95.5469 266.539 95.5469ZM270.367 86.8242H261.179C261.325 85.0469 261.831 83.6865 262.697 82.7432C263.563 81.7998 264.711 81.3281 266.142 81.3281C267.464 81.3281 268.498 81.8135 269.246 82.7842C269.993 83.7549 270.367 85.1016 270.367 86.8242ZM278.383 95.2734V74H277.03V95.2734H278.383ZM295.989 77.459C296.572 77.459 296.864 77.0671 296.864 76.2832C296.864 75.4993 296.572 75.1074 295.989 75.1074C295.697 75.1074 295.481 75.1986 295.339 75.3809C295.198 75.5632 295.127 75.8639 295.127 76.2832C295.127 77.0671 295.415 77.459 295.989 77.459ZM301.198 77.459C301.781 77.459 302.073 77.0671 302.073 76.2832C302.073 75.4993 301.781 75.1074 301.198 75.1074C300.906 75.1074 300.69 75.1986 300.548 75.3809C300.407 75.5632 300.336 75.8639 300.336 76.2832C300.336 77.0671 300.624 77.459 301.198 77.459ZM298.545 95.5469C300.614 95.5469 302.237 94.8656 303.413 93.5029C304.588 92.1403 305.176 90.2467 305.176 87.8223C305.176 85.4342 304.595 83.5544 303.433 82.1826C302.271 80.8109 300.669 80.125 298.627 80.125C296.577 80.125 294.963 80.8018 293.788 82.1553C292.612 83.5088 292.024 85.3978 292.024 87.8223C292.024 89.3626 292.288 90.7207 292.817 91.8965C293.346 93.0723 294.107 93.9746 295.1 94.6035C296.094 95.2324 297.242 95.5469 298.545 95.5469ZM298.6 94.3164C296.959 94.3164 295.69 93.7445 294.792 92.6006C293.895 91.4567 293.446 89.8639 293.446 87.8223C293.446 85.7624 293.89 84.1696 294.779 83.0439C295.667 81.9183 296.932 81.3555 298.573 81.3555C300.213 81.3555 301.487 81.9206 302.394 83.0508C303.301 84.181 303.754 85.7715 303.754 87.8223C303.754 89.8639 303.306 91.4567 302.408 92.6006C301.51 93.7445 300.241 94.3164 298.6 94.3164ZM315.886 95.5469C318.001 95.5469 319.623 94.6992 320.753 93.0039H320.863L321.205 95.2734H322.093V74H320.753V79.3457C320.753 80.4486 320.781 81.5742 320.835 82.7227H320.753C320.134 81.7747 319.432 81.1048 318.648 80.7129C317.864 80.321 316.934 80.125 315.859 80.125C313.808 80.125 312.245 80.804 311.169 82.1621C310.094 83.5202 309.556 85.4844 309.556 88.0547C309.556 90.4974 310.098 92.3568 311.183 93.6328C312.268 94.9089 313.835 95.5469 315.886 95.5469ZM315.886 94.3438C312.614 94.3438 310.978 92.2383 310.978 88.0273C310.978 85.8581 311.386 84.2038 312.202 83.0645C313.017 81.9251 314.236 81.3555 315.859 81.3555C317.582 81.3555 318.828 81.859 319.598 82.8662C320.368 83.8734 320.753 85.5254 320.753 87.8223V88.0547C320.753 90.2969 320.361 91.9056 319.578 92.8809C318.794 93.8561 317.563 94.3438 315.886 94.3438ZM334.211 95.5469C335.068 95.5469 335.852 95.4808 336.563 95.3486C337.274 95.2165 338.049 94.9681 338.887 94.6035V93.373C337.903 93.765 337.089 94.0202 336.447 94.1387C335.804 94.2572 335.059 94.3164 334.211 94.3164C332.47 94.3164 331.133 93.7786 330.199 92.7031C329.264 91.6276 328.788 90.069 328.77 88.0273H339.475V86.9336C339.475 84.8372 338.969 83.1784 337.957 81.957C336.946 80.7357 335.565 80.125 333.815 80.125C331.837 80.125 330.265 80.8382 329.098 82.2646C327.931 83.6911 327.348 85.5892 327.348 87.959C327.348 90.3561 327.952 92.2201 329.16 93.5508C330.367 94.8815 332.051 95.5469 334.211 95.5469ZM338.039 86.8242H328.852C328.998 85.0469 329.504 83.6865 330.37 82.7432C331.235 81.7998 332.384 81.3281 333.815 81.3281C335.136 81.3281 336.171 81.8135 336.918 82.7842C337.666 83.7549 338.039 85.1016 338.039 86.8242ZM346.056 95.2734V87.0703C346.056 85.0742 346.411 83.6227 347.122 82.7158C347.833 81.8089 348.968 81.3555 350.527 81.3555C352.824 81.3555 353.972 82.6087 353.972 85.1152V95.2734H355.353V86.5645C355.353 84.7689 355.717 83.4518 356.447 82.6133C357.176 81.7747 358.301 81.3555 359.824 81.3555C360.99 81.3555 361.856 81.6882 362.421 82.3535C362.986 83.0189 363.269 84.0762 363.269 85.5254V95.2734H364.609V85.5527C364.609 83.666 364.203 82.2897 363.392 81.4238C362.581 80.5579 361.364 80.125 359.742 80.125C358.702 80.125 357.775 80.3529 356.959 80.8086C356.144 81.2643 355.494 81.916 355.011 82.7637H354.956C354.291 81.0046 352.787 80.125 350.445 80.125C349.533 80.125 348.699 80.3278 347.943 80.7334C347.186 81.139 346.603 81.7109 346.193 82.4492H346.111L345.824 80.4121H344.702V95.2734H346.056ZM376.549 95.5469C377.406 95.5469 378.19 95.4808 378.901 95.3486C379.612 95.2165 380.386 94.9681 381.225 94.6035V93.373C380.241 93.765 379.427 94.0202 378.785 94.1387C378.142 94.2572 377.397 94.3164 376.549 94.3164C374.808 94.3164 373.471 93.7786 372.536 92.7031C371.602 91.6276 371.126 90.069 371.108 88.0273H381.813V86.9336C381.813 84.8372 381.307 83.1784 380.295 81.957C379.284 80.7357 377.903 80.125 376.153 80.125C374.175 80.125 372.603 80.8382 371.436 82.2646C370.269 83.6911 369.686 85.5892 369.686 87.959C369.686 90.3561 370.29 92.2201 371.497 93.5508C372.705 94.8815 374.389 95.5469 376.549 95.5469ZM380.377 86.8242H371.19C371.336 85.0469 371.841 83.6865 372.707 82.7432C373.573 81.7998 374.722 81.3281 376.153 81.3281C377.474 81.3281 378.509 81.8135 379.256 82.7842C380.004 83.7549 380.377 85.1016 380.377 86.8242ZM398.83 95.5469C400.69 95.5469 402.125 95.1891 403.137 94.4736C404.149 93.7581 404.654 92.735 404.654 91.4043C404.654 90.7389 404.502 90.1602 404.196 89.668C403.891 89.1758 403.433 88.736 402.822 88.3486C402.212 87.9613 401.237 87.526 399.897 87.043C398.293 86.4688 397.215 85.9492 396.663 85.4844C396.112 85.0195 395.836 84.3997 395.836 83.625C395.836 82.9141 396.192 82.3581 396.903 81.957C397.613 81.556 398.575 81.3555 399.787 81.3555C401.036 81.3555 402.39 81.6562 403.848 82.2578L404.354 81.0273C402.914 80.4258 401.391 80.125 399.787 80.125C398.11 80.125 396.805 80.4486 395.87 81.0957C394.936 81.7428 394.469 82.6224 394.469 83.7344C394.469 84.4362 394.622 85.0309 394.927 85.5186C395.232 86.0062 395.686 86.4437 396.287 86.8311C396.889 87.2184 397.932 87.681 399.418 88.2188C400.804 88.7109 401.799 89.2122 402.405 89.7227C403.012 90.2331 403.315 90.862 403.315 91.6094C403.315 92.4206 402.934 93.07 402.173 93.5576C401.412 94.0452 400.298 94.2891 398.83 94.2891C397.171 94.2891 395.595 93.9154 394.1 93.168V94.6309C395.266 95.2415 396.843 95.5469 398.83 95.5469ZM410.278 77.6094C410.561 77.6094 410.782 77.4909 410.942 77.2539C411.101 77.0169 411.181 76.6934 411.181 76.2832C411.181 75.8639 411.101 75.5404 410.942 75.3125C410.782 75.0846 410.561 74.9707 410.278 74.9707C409.704 74.9707 409.417 75.4082 409.417 76.2832C409.417 77.1673 409.704 77.6094 410.278 77.6094ZM410.962 95.2734V80.4121H409.609V95.2734H410.962ZM420.455 95.5469C422.315 95.5469 423.75 95.1891 424.762 94.4736C425.774 93.7581 426.279 92.735 426.279 91.4043C426.279 90.7389 426.127 90.1602 425.821 89.668C425.516 89.1758 425.058 88.736 424.447 88.3486C423.837 87.9613 422.861 87.526 421.522 87.043C419.917 86.4688 418.84 85.9492 418.288 85.4844C417.737 85.0195 417.461 84.3997 417.461 83.625C417.461 82.9141 417.817 82.3581 418.527 81.957C419.238 81.556 420.2 81.3555 421.412 81.3555C422.661 81.3555 424.014 81.6562 425.473 82.2578L425.979 81.0273C424.539 80.4258 423.016 80.125 421.412 80.125C419.735 80.125 418.429 80.4486 417.495 81.0957C416.561 81.7428 416.094 82.6224 416.094 83.7344C416.094 84.4362 416.247 85.0309 416.552 85.5186C416.857 86.0062 417.311 86.4437 417.912 86.8311C418.514 87.2184 419.557 87.681 421.043 88.2188C422.428 88.7109 423.424 89.2122 424.03 89.7227C424.637 90.2331 424.94 90.862 424.94 91.6094C424.94 92.4206 424.559 93.07 423.798 93.5576C423.037 94.0452 421.923 94.2891 420.455 94.2891C418.796 94.2891 417.22 93.9154 415.725 93.168V94.6309C416.891 95.2415 418.468 95.5469 420.455 95.5469ZM435.13 95.5469C435.987 95.5469 436.743 95.4375 437.399 95.2188V94.125C436.761 94.2708 436.014 94.3438 435.157 94.3438C434.301 94.3438 433.672 94.0703 433.271 93.5234C432.87 92.9766 432.669 92.1335 432.669 90.9941V81.5879H437.03V80.4121H432.669V76.8164H431.972L431.288 80.1797L429.087 80.7949V81.5879H431.288V91.1855C431.288 92.6895 431.6 93.7923 432.225 94.4941C432.849 95.196 433.817 95.5469 435.13 95.5469ZM447.74 95.5469C448.597 95.5469 449.381 95.4808 450.092 95.3486C450.803 95.2165 451.577 94.9681 452.416 94.6035V93.373C451.432 93.765 450.618 94.0202 449.976 94.1387C449.333 94.2572 448.588 94.3164 447.74 94.3164C445.999 94.3164 444.662 93.7786 443.728 92.7031C442.793 91.6276 442.317 90.069 442.299 88.0273H453.004V86.9336C453.004 84.8372 452.498 83.1784 451.486 81.957C450.475 80.7357 449.094 80.125 447.344 80.125C445.366 80.125 443.794 80.8382 442.627 82.2646C441.46 83.6911 440.877 85.5892 440.877 87.959C440.877 90.3561 441.481 92.2201 442.688 93.5508C443.896 94.8815 445.58 95.5469 447.74 95.5469ZM451.568 86.8242H442.381C442.527 85.0469 443.033 83.6865 443.898 82.7432C444.764 81.7998 445.913 81.3281 447.344 81.3281C448.665 81.3281 449.7 81.8135 450.447 82.7842C451.195 83.7549 451.568 85.1016 451.568 86.8242ZM459.585 95.2734V87.0703C459.585 85.0742 459.94 83.6227 460.651 82.7158C461.362 81.8089 462.497 81.3555 464.056 81.3555C466.352 81.3555 467.501 82.6087 467.501 85.1152V95.2734H468.882V86.5645C468.882 84.7689 469.246 83.4518 469.976 82.6133C470.705 81.7747 471.83 81.3555 473.352 81.3555C474.519 81.3555 475.385 81.6882 475.95 82.3535C476.515 83.0189 476.798 84.0762 476.798 85.5254V95.2734H478.138V85.5527C478.138 83.666 477.732 82.2897 476.921 81.4238C476.11 80.5579 474.893 80.125 473.27 80.125C472.231 80.125 471.304 80.3529 470.488 80.8086C469.672 81.2643 469.023 81.916 468.54 82.7637H468.485C467.82 81.0046 466.316 80.125 463.974 80.125C463.062 80.125 462.228 80.3278 461.472 80.7334C460.715 81.139 460.132 81.7109 459.722 82.4492H459.64L459.352 80.4121H458.231V95.2734H459.585ZM484.746 77.6094C485.029 77.6094 485.25 77.4909 485.409 77.2539C485.569 77.0169 485.648 76.6934 485.648 76.2832C485.648 75.8639 485.569 75.5404 485.409 75.3125C485.25 75.0846 485.029 74.9707 484.746 74.9707C484.172 74.9707 483.885 75.4082 483.885 76.2832C483.885 77.1673 484.172 77.6094 484.746 77.6094ZM485.43 95.2734V80.4121H484.076V95.2734H485.43Z" fill="#006CB4"/>
</svg>
