<svg width="56" height="56" viewBox="0 0 56 56" fill="none" xmlns="http://www.w3.org/2000/svg">
<path fill-rule="evenodd" clip-rule="evenodd" d="M23 4C23 3.44772 23.4477 3 24 3C24.5523 3 25 3.44772 25 4C25 4.55228 24.5523 5 24 5C23.4477 5 23 4.55228 23 4ZM24 1C22.3431 1 21 2.34315 21 4C21 5.30622 21.8348 6.41746 23 6.82929V8.63352C14.3749 10.8544 8.00195 18.6844 8.00195 28.0029C8.00195 37.3214 14.3749 45.1514 23 47.3723V49.1707C21.8348 49.5825 21 50.6938 21 52C21 53.6569 22.3431 55 24 55C25.6569 55 27 53.6569 27 52C27 50.6938 26.1652 49.5825 25 49.1707V47.7791C25.9792 47.9265 26.9817 48.0029 28.002 48.0029C29.0209 48.0029 30.022 47.9267 31 47.7797V49.1707C29.8348 49.5825 29 50.6938 29 52C29 53.6569 30.3431 55 32 55C33.6569 55 35 53.6569 35 52C35 50.6938 34.1652 49.5825 33 49.1707V47.3733C41.6271 45.1538 48.002 37.3228 48.002 28.0029C48.002 18.683 41.6271 10.852 33 8.63251V6.82929C34.1652 6.41746 35 5.30622 35 4C35 2.34315 33.6569 1 32 1C30.3431 1 29 2.34315 29 4C29 5.30622 29.8348 6.41746 31 6.82929V8.22614C30.022 8.07913 29.0209 8.00293 28.002 8.00293C26.9817 8.00293 25.9792 8.07933 25 8.22672V6.82929C26.1652 6.41746 27 5.30622 27 4C27 2.34315 25.6569 1 24 1ZM33.6504 45.0988C37.5498 43.8112 40.8594 41.2266 43.0682 37.8559L37.881 34.8611C36.0319 37.8559 33.8299 40.371 31.5096 42.2761C32.3163 43.1973 33.0327 44.1426 33.6504 45.0988ZM38.881 33.1291L44.0698 36.1248C45.3056 33.6847 46.002 30.9252 46.002 28.0029C46.002 26.7502 45.874 25.5274 45.6304 24.3468C44.494 24.29 43.3177 24.1424 42.1171 23.9046C41.6272 26.8664 40.55 30.0306 38.881 33.1291ZM40.1656 23.4438C39.9347 24.8936 39.5479 26.4115 38.9999 27.9576C38.9926 26.0167 38.4826 24.1943 37.5934 22.6139C38.455 22.9341 39.3142 23.2108 40.1656 23.4438ZM32.5004 20.2096C32.4238 20.1654 32.3475 20.1209 32.2715 20.0763C31.0006 19.3897 29.5458 19 28 19C23.0294 19 19 23.0294 19 28C19 31.3041 20.7805 34.1924 23.4344 35.7576L23.5028 35.797L23.5774 35.8402C24.8835 36.5786 26.3926 37 28 37C32.9706 37 37 32.9706 37 28C37 24.7585 35.2864 21.9173 32.7156 20.3328C32.6438 20.2921 32.5721 20.251 32.5004 20.2096ZM25.8672 15.1888C26.4945 15.8094 27.1635 16.4149 27.8713 17.0007C25.9379 17.0229 24.1243 17.5439 22.5532 18.441C23.6145 17.1994 24.7314 16.1101 25.8672 15.1888ZM15.8374 32.5627C16.0677 31.1152 16.4537 29.5997 17.0001 28.0561C17.0098 29.9946 17.521 31.8146 18.4105 33.393C17.5486 33.0726 16.6891 32.7958 15.8374 32.5627ZM30.1348 40.8166C29.5055 40.1941 28.8343 39.5869 28.124 38.9993C30.0648 38.9779 31.885 38.4538 33.4606 37.5511C32.3957 38.7983 31.2747 39.892 30.1348 40.8166ZM24.4924 13.7292C22.1724 15.6344 19.9708 18.1493 18.1219 21.1438L12.9359 18.1496C15.1446 14.7794 18.4536 12.1951 22.3525 10.9073C22.97 11.8633 23.6861 12.8083 24.4924 13.7292ZM17.122 22.8759L11.9343 19.8808C10.6984 22.3209 10.002 25.0806 10.002 28.0029C10.002 29.2559 10.13 30.479 10.3737 31.6598C11.5098 31.7167 12.6857 31.8642 13.8859 32.102C14.3756 29.1397 15.4528 25.9749 17.122 22.8759ZM31.6075 45.6417C31.1043 44.9149 30.5361 44.1925 29.907 43.4825C28.3692 44.5373 26.804 45.3211 25.276 45.7979C26.165 45.9329 27.0753 46.0029 28.002 46.0029C29.2368 46.0029 30.4426 45.8786 31.6075 45.6417ZM28.5022 42.0174C28.1039 42.2809 27.7054 42.5232 27.3084 42.7436C24.4224 44.3457 21.8624 44.6817 19.9162 44.0073L23.3604 38.0417C25.3013 39.2424 27.0267 40.5912 28.5022 42.0174ZM21.6283 37.0418C19.618 35.9614 17.5869 35.1415 15.6138 34.577C15.5848 35.0534 15.5742 35.5194 15.5819 35.9733C15.6374 39.274 16.6266 41.6592 18.1841 43.0074L21.6283 37.0418ZM10.9222 33.7003C11.6019 35.7385 12.6361 37.6147 13.9518 39.2554C13.6017 37.6952 13.4982 35.9499 13.6426 34.0931C12.7131 33.9033 11.8034 33.7725 10.9222 33.7003ZM42.0518 16.7502C43.3678 18.3912 44.4023 20.2677 45.0819 22.3064C44.2005 22.2342 43.2904 22.1034 42.3606 21.9135C42.5052 20.0563 42.4019 18.3106 42.0518 16.7502ZM40.4215 20.031C40.4291 20.4856 40.4185 20.9524 40.3894 21.4296C38.4162 20.865 36.385 20.0452 34.3746 18.9647L37.8198 12.9973C39.3769 14.3456 40.366 16.7306 40.4215 20.031ZM36.0878 11.9972C34.1415 11.3225 31.5813 11.6584 28.695 13.2607C28.2974 13.4814 27.8985 13.724 27.4997 13.9878C28.9753 15.4145 30.7012 16.7637 32.6425 17.9647L36.0878 11.9972ZM30.7242 10.2074C29.1967 10.6844 27.6321 11.4682 26.095 12.5227C25.4662 11.813 24.8983 11.0909 24.3953 10.3643C25.5606 10.1274 26.7667 10.0029 28.002 10.0029C28.9273 10.0029 29.8364 10.0728 30.7242 10.2074ZM24 28C24 25.7909 25.7909 24 28 24C29.1846 24 30.2479 24.5137 30.9817 25.3336L32.472 23.9998C31.5851 23.0089 30.3713 22.3133 29 22.0831V20H27V22.083C24.1623 22.559 22 25.027 22 28C22 30.973 24.1623 33.441 27 33.917V36H29V33.9169C30.3713 33.6867 31.5851 32.9911 32.472 32.0002L30.9817 30.6664C30.2479 31.4863 29.1846 32 28 32C25.7909 32 24 30.2091 24 28ZM24 51C23.4477 51 23 51.4477 23 52C23 52.5523 23.4477 53 24 53C24.5523 53 25 52.5523 25 52C25 51.4477 24.5523 51 24 51ZM32 51C31.4477 51 31 51.4477 31 52C31 52.5523 31.4477 53 32 53C32.5523 53 33 52.5523 33 52C33 51.4477 32.5523 51 32 51ZM31 4C31 3.44772 31.4477 3 32 3C32.5523 3 33 3.44772 33 4C33 4.55228 32.5523 5 32 5C31.4477 5 31 4.55228 31 4Z" fill="#005BAB"/>
</svg>
