<svg width="48" height="48" viewBox="0 0 48 48" fill="none" xmlns="http://www.w3.org/2000/svg">
<g clip-path="url(#clip0_18320_19633)">
<g clip-path="url(#clip1_18320_19633)">
<path d="M45.9993 30.9986C45.9993 38.7296 39.732 44.9972 31.9997 44.9972C24.2673 44.9972 18 38.7296 18 30.9986C18 23.2677 24.2675 17 31.9997 17C39.7318 17 45.9993 23.2671 45.9993 30.9986Z" fill="white"/>
<path d="M31.9992 17C24.2696 17 17.9911 23.2765 18.001 30.9982C18.0029 32.543 18.2493 34.0291 18.7117 35.4192H22.9003V23.6432L31.9992 32.741L41.0976 23.6432V35.4194H45.2871C45.7501 34.0294 45.9952 32.5433 45.998 30.9984C46.0112 23.2687 39.7295 17.0019 31.9992 17.0019V17Z" fill="#F26822"/>
<path d="M29.9075 34.8325L25.9367 30.8619V38.272H22.9008L20.0361 38.2725C22.4934 42.3035 26.9342 45 32 45C37.0659 45 41.5069 42.3029 43.9646 38.2719H38.0625V30.8619L34.0914 34.8325L31.9996 36.9241L29.9077 34.8325H29.9075Z" fill="#4D4D4D"/>
</g>
<path d="M20.1543 7.06879L16.0163 12.1531C15.7878 12.4339 15.8302 12.8468 16.111 13.0754L20.1785 16.3857C20.4593 16.6143 20.8722 16.5719 21.1007 16.2911L25.2386 11.2067C25.4672 10.9259 25.4248 10.513 25.144 10.2845L21.0765 6.97415C20.7957 6.74562 20.3828 6.78799 20.1543 7.06879Z" fill="#0080D8"/>
<path d="M18.6801 6.80421C13.7728 3.34112 10.2155 3.25589 10.0517 3.25437C9.91585 3.25325 9.783 3.29436 9.67153 3.37202C9.56005 3.44968 9.47545 3.56005 9.42943 3.68787C9.3834 3.81569 9.37822 3.95466 9.4146 4.08555C9.45098 4.21645 9.52712 4.33281 9.6325 4.41856L16.2432 9.79871L18.6801 6.80421Z" fill="#0080D8"/>
<path d="M31.0271 20.3255C30.9923 20.1653 30.1864 16.6999 25.7997 12.5986L23.3627 15.5931L29.9723 20.9724C30.0777 21.0582 30.2071 21.1091 30.3426 21.1181C30.4782 21.1272 30.6132 21.0939 30.729 21.0228C30.8448 20.9518 30.9357 20.8465 30.9891 20.7216C31.0425 20.5967 31.0558 20.4583 31.0271 20.3255Z" fill="#0080D8"/>
<path d="M15.7946 14.5052L2.96481 30.2691C2.85505 30.404 2.80336 30.5769 2.82111 30.7499C2.83886 30.9229 2.9246 31.0817 3.05946 31.1915L5.09373 32.8467C5.22859 32.9564 5.40154 33.0081 5.57451 32.9904C5.74749 32.9726 5.90633 32.8869 6.01609 32.752L18.8457 16.9884L15.7946 14.5052Z" fill="#0080D8"/>
</g>
<defs>
<clipPath id="clip0_18320_19633">
<rect width="48" height="48" fill="white"/>
</clipPath>
<clipPath id="clip1_18320_19633">
<rect width="28" height="28" fill="white" transform="translate(18 17)"/>
</clipPath>
</defs>
</svg>
