<?xml version="1.0" encoding="UTF-8"?>
<svg width="655px" height="107px" viewBox="0 0 655 107" version="1.1" xmlns="http://www.w3.org/2000/svg" xmlns:xlink="http://www.w3.org/1999/xlink">
    <title>br</title>
    <g id="Events-to-Guru" stroke="none" stroke-width="1" fill="none" fill-rule="evenodd">
        <g id="br-copy" transform="translate(-253.000000, -72.000000)" fill="#006CB4">
            <g id="br" transform="translate(253.500000, 72.500000)">
                <g id="Group-4">
                    <g id="Group-3" transform="translate(64.000000, 0.000000)" fill-rule="nonzero">
                        <path d="M269.095,15.764 L276.644503,37.6553846 L277.5,40.5 L278.45029,37.6553846 L285.173,15.764 L289.323,15.764 L279.129062,44.1699062 L278.945444,44.6740006 L278.756,45.1760631 C277.421442,48.6495176 275.90969,51.2622681 274.239926,53.011271 L274.000316,53.2552524 L273.766175,53.4792819 L273.499276,53.7170128 C272.056831,54.9535005 270.310124,55.6874318 268.234816,55.9195042 L267.841839,55.9571368 L267.742,55.963 L267.742,53.061 L267.809797,53.0530163 L268.076126,53.01359 C271.42409,52.458952 273.890886,49.7950781 275.469532,45.1943101 L275.595584,44.8170338 L275.704705,44.4815829 L264.772,15.764 L269.095,15.764 Z M444.733673,14.7528205 L445.234385,14.7590832 L445.765673,14.7795723 C448.073448,14.8998631 450.299253,15.4259166 452.448325,16.3595739 L452.907668,16.5658829 L453.287,16.747 L453.287,19.105 L453.226508,19.0705403 L452.793798,18.8382802 C450.339585,17.55955 447.848214,16.9169231 445.323418,16.9169231 C443.619054,16.9169231 442.183672,17.2562654 441.031278,17.9537129 C439.736394,18.7373976 439.074689,20.0189157 439.074689,21.6646154 C439.074689,23.2316915 439.78436,24.5202048 441.134983,25.4367049 C442.235493,26.1834841 443.867427,26.9137162 446.045859,27.644839 L446.802234,27.8966723 L448.405148,28.4454671 L449.206232,28.7294853 L449.559545,28.8610535 L449.759425,28.9415252 L449.759425,28.9415252 L449.972235,29.0315214 L450.436404,29.2400378 L450.687646,29.3585333 L451.228147,29.6239372 C451.416723,29.7187108 451.613681,29.8197847 451.818944,29.9271423 C452.79173,30.4359354 453.502419,30.9315471 453.948033,31.3976828 C454.399177,31.8696028 454.822833,32.5149729 455.212168,33.3361142 C455.579521,34.1108934 455.764466,34.9758208 455.764466,35.9415385 C455.764466,38.3626144 454.822242,40.2463211 452.893869,41.6832696 C450.986581,43.1045064 448.423283,43.8570693 445.180136,43.9198229 L444.733673,43.9241026 L444.248849,43.9198094 L443.721386,43.90508 C440.757389,43.7919256 438.217463,43.1742237 436.091967,42.059183 L435.72118,41.8572499 L435.531,41.746 L435.531,39.371 L435.789894,39.5063466 L436.251597,39.7367551 C439.012315,41.0821329 441.602129,41.76 444.025979,41.76 C448.836996,41.76 451.513172,39.9930928 451.513172,36.4769231 C451.513172,35.7577744 451.345082,35.0795721 451.010846,34.4571563 C450.70223,33.8824497 450.336368,33.4026947 449.910058,33.0232682 C449.498726,32.6571732 448.891558,32.2785697 448.073738,31.866105 L447.785524,31.7227214 L447.785524,31.7227214 L447.508094,31.5887485 L446.985294,31.349 C446.734507,31.2385162 446.499568,31.1421093 446.280147,31.0597404 L443.657211,30.1227766 L442.893586,29.8373623 L442.184803,29.5650156 L441.225168,29.1813176 L440.654911,28.9422804 L440.390754,28.8278452 L439.904586,28.6092331 C439.023825,28.2020419 438.137734,27.6713512 437.24667,27.0159688 C436.436952,26.4204163 435.860012,25.7303835 435.500485,24.9391401 C435.130799,24.1255412 434.941343,23.1352808 434.941343,21.9620513 C434.941343,20.4850595 435.281656,19.2492827 435.955089,18.2303516 C436.632083,17.2060319 437.496783,16.4847751 438.566686,16.0463484 C439.766125,15.5548404 440.852964,15.2175211 441.824476,15.0326232 C442.64182,14.8770667 443.4513,14.7864636 444.253339,14.7605836 L444.733673,14.7528205 Z M494.844536,14.7528205 C498.212482,14.7528205 500.79419,15.7859415 502.664011,17.8535606 L502.868843,18.0875533 L503.063287,18.324954 L503.251049,18.5704021 C504.84933,20.7325139 505.693556,23.8021794 505.753898,27.8020405 L505.75738,28.2676923 L505.757,29.468 L486.523335,29.4687179 L486.535227,30.8961239 L486.545897,31.3169073 C486.659425,34.6501003 487.449622,37.1893049 488.960568,38.9193431 C490.563645,40.7548724 492.975368,41.6894427 496.128689,41.7561523 L496.495821,41.76 L496.876142,41.7543379 L497.304475,41.7346178 C499.45477,41.6007023 501.734535,40.9372541 504.145014,39.7529717 L504.628853,39.5091733 L504.872,39.38 L504.872,41.601 L504.517518,41.7900995 C501.761272,43.2112545 498.735034,43.9241026 495.434281,43.9241026 C490.914718,43.9241026 487.671429,42.6665403 485.6193,40.1825763 C483.521589,37.6434398 482.45733,34.0401742 482.45733,29.3384615 C482.45733,24.8754874 483.548599,21.3306792 485.712983,18.6664348 C487.833759,16.0558688 490.848001,14.7528205 494.844536,14.7528205 Z M381.943297,14.7528205 C385.532629,14.7528205 387.984261,15.4391725 389.327504,16.7317594 L389.472194,16.8778709 L389.635915,17.0592145 L389.792888,17.2488906 C390.865602,18.6027553 391.443206,20.5676791 391.495783,23.1726548 L391.499728,23.5682051 L391.499,43.21 L387.785,43.21 L387.262666,38.8477629 L385.494347,40.2736799 L385.138346,40.5501688 C382.173098,42.8085178 379.243286,43.9241026 376.340721,43.9241026 C373.755947,43.9241026 371.816868,43.2487346 370.466143,41.9207596 C369.108367,40.5858519 368.435575,38.9107273 368.435575,36.8338462 C368.435575,35.7313521 368.637486,34.6776028 369.042249,33.6657745 C369.443012,32.6639436 370.116619,31.6715703 371.07152,30.6901937 C371.98361,29.7528205 373.413363,28.9686293 375.369821,28.35999 C377.235803,27.7794971 379.475035,27.4668823 382.085845,27.4277803 L382.650991,27.4235897 L387.307408,27.4235897 L387.307408,24.8174359 L387.304588,24.4674838 L387.295274,24.1019271 C387.207662,21.5768685 386.64813,19.762486 385.536059,18.6631817 C384.391232,17.5314981 382.616424,16.9714943 380.24014,16.9207267 L379.87919,16.9169231 L379.552107,16.9215987 L379.205208,16.9364799 C376.88149,17.0693871 374.22166,17.8793552 371.214767,19.355283 L370.737108,19.5938569 L370.44,19.746 L370.44,17.316 L370.991147,17.0806579 C374.71238,15.5277573 378.363497,14.7528205 381.943297,14.7528205 Z M181.078301,14.7528205 C184.855948,14.7528205 187.840149,15.9805229 190.101892,18.4444416 C192.372485,20.9180004 193.524482,24.5341816 193.524482,29.3384615 C193.524482,34.1051773 192.381174,37.7137262 190.126213,40.2084101 C187.920034,42.689089 184.931132,43.9241026 181.078301,43.9241026 C177.22437,43.9241026 174.224351,42.6882179 172.003596,40.2114024 C169.766643,37.7165206 168.63212,34.106589 168.63212,29.3384615 C168.63212,24.5341816 169.784117,20.9180004 172.05471,18.4444416 C174.316453,15.9805229 177.300654,14.7528205 181.078301,14.7528205 Z M89.982,0.271 L89.9827422,17.6104868 L91.9002111,16.6009303 L92.3513834,16.376804 C94.6036477,15.2924894 96.8019152,14.7528205 98.9442966,14.7528205 C102.302949,14.7528205 104.798318,15.8695455 106.526755,18.1111404 C108.301011,20.4121588 109.208422,23.8305232 109.208422,28.3866667 C109.208422,33.5974768 108.057975,37.4812355 105.798253,40.0730963 C103.56006,42.6402644 100.436801,43.9241026 96.3494196,43.9241026 C94.9133616,43.9241026 93.2552318,43.7161249 91.3781662,43.2974453 L90.8608134,43.1780339 L90.2992131,43.0380961 L89.7492899,42.888866 C88.6611159,42.5811195 87.6429603,42.2176738 86.6945554,41.7988598 L86.2261643,41.5848403 L85.849,41.4 L85.849,1.274 L89.982,0.271 Z M65.6324382,14.7528205 C69.0003838,14.7528205 71.582092,15.7859415 73.4519127,17.8535606 L73.6567448,18.0875533 L73.8511892,18.324954 L74.038951,18.5704021 C75.6372326,20.7325139 76.4814577,23.8021794 76.5418004,27.8020405 L76.5452826,28.2676923 L76.545,29.468 L57.3112373,29.4687179 L57.323129,30.8961239 L57.3337989,31.3169073 C57.447327,34.6501003 58.2375243,37.1893049 59.74847,38.9193431 C61.3515474,40.7548724 63.7632701,41.6894427 66.9165915,41.7561523 L67.2837235,41.76 L67.6640441,41.7543379 L68.0923771,41.7346178 C70.2426716,41.6007023 72.522437,40.9372541 74.932916,39.7529717 L75.416755,39.5091733 L75.66,39.38 L75.66,41.601 L75.3054203,41.7900995 C72.5491744,43.2112545 69.5229356,43.9241026 66.2221829,43.9241026 C61.7026198,43.9241026 58.4593312,42.6665403 56.4072017,40.1825763 C54.3094913,37.6434398 53.2452318,34.0401742 53.2452318,29.3384615 C53.2452318,24.8754874 54.336501,21.3306792 56.5008848,18.6664348 C58.6216614,16.0558688 61.6359028,14.7528205 65.6324382,14.7528205 Z M247.643044,14.7528205 C251.010989,14.7528205 253.592697,15.7859415 255.462518,17.8535606 L255.66735,18.0875533 L255.861795,18.324954 L256.049556,18.5704021 C257.647838,20.7325139 258.492063,23.8021794 258.552406,27.8020405 L258.555888,28.2676923 L258.555,29.468 L239.321843,29.4687179 L239.333734,30.8961239 L239.344404,31.3169073 C239.457932,34.6501003 240.24813,37.1893049 241.759075,38.9193431 C243.362153,40.7548724 245.773876,41.6894427 248.927197,41.7561523 L249.294329,41.76 L249.67465,41.7543379 L250.102983,41.7346178 C252.253277,41.6007023 254.533042,40.9372541 256.943521,39.7529717 L257.42736,39.5091733 L257.671,39.38 L257.671,41.6 L257.316026,41.7900995 C254.55978,43.2112545 251.533541,43.9241026 248.232788,43.9241026 C243.713225,43.9241026 240.469937,42.6665403 238.417807,40.1825763 C236.320097,37.6434398 235.255837,34.0401742 235.255837,29.3384615 C235.255837,24.8754874 236.347106,21.3306792 238.51149,18.6664348 C240.632267,16.0558688 243.646508,14.7528205 247.643044,14.7528205 Z M478.637,0.016 L478.637,2.069 L478.277207,2.09053941 C472.123046,2.51453098 468.846241,5.89846403 468.73316,11.9958862 L468.73013,12.3251282 L468.73013,16.1805128 L477.764,16.18 L476.978,18.463 L468.73013,18.4635897 L468.73,43.21 L464.596,43.21 L464.596784,12.5630769 L464.600801,12.1435147 L464.612562,11.7375461 C464.769493,7.71601942 466.105773,4.83834009 468.607505,3.02143361 C470.972394,1.30391088 473.999235,0.313473428 477.704598,0.0633290957 L478.191756,0.0349009194 L478.637,0.016 Z M416.729517,14.7528205 C419.864825,14.7528205 422.070455,15.3476148 423.370596,16.4737963 L423.5284,16.617332 L423.690677,16.780178 L423.846017,16.9519749 C424.858435,18.1271847 425.406645,19.900947 425.45656,22.3098015 L425.460306,22.6758974 L425.46,43.21 L421.326,43.21 L421.32696,24.0441026 L421.323514,23.7117406 L421.313212,23.3910365 C421.222177,21.2826252 420.682659,19.7670333 419.610702,18.8738056 C418.505005,17.9524625 416.964465,17.5117949 415.019257,17.5117949 C412.614945,17.5117949 410.188842,18.1941605 407.749575,19.5451029 L407.318982,19.790442 L406.824371,20.0801319 L406.824,43.21 L402.691,43.21 L402.691,18.722 L403.206912,18.4273445 C407.573717,15.9758871 412.078756,14.7528205 416.729517,14.7528205 Z M125.089,3.033 L138.300488,36.2871795 L139,39 L139.964189,36.2871795 L152.584,3.033 L158.207,3.033 L158.207,43.21 L153.838,43.21 L154,6 L151.62632,12.6338462 L139.595,43.21 L137.177,43.21 L125.146755,13.3476923 L123,7 L122.940754,13.3476923 L122.94,43.21 L119.633,43.21 L119.633,3.033 L125.089,3.033 Z M335.786,3.033 L335.786,5.911 L323.519598,5.91179487 L323.519,43.21 L319.15,43.21 L319.150355,5.91179487 L306.883,5.911 L306.883,3.033 L335.786,3.033 Z M4.793,3.033 L11.3983878,34.5025641 L12.5,39 L13.4087253,34.5025641 L21.075,3.033 L24.765,3.033 L32.9630904,34.5025641 L34,39 L34.9757399,34.5025641 L40.991,3.033 L45.811,3.033 L36.711,43.21 L31.906,43.21 L23.8862251,13.5261538 L23,8 L21.9361735,13.5261538 L14.151,43.21 L9.353,43.21 L0.252,3.033 L4.793,3.033 Z M356.887865,14.7528205 C358.988677,14.7528205 360.565019,15.1656933 361.641036,15.9578402 L361.825732,16.1015611 L361.960371,16.2194184 L362.089199,16.3467864 C362.884406,17.1813308 363.329275,18.5872421 363.373901,20.6082345 L363.377624,20.9507692 L363.377,23.034 L359.716,23.996 L359.716074,23.0328205 L359.712865,22.7513316 L359.702942,22.4760499 C359.54822,19.3037562 358.031717,17.5117949 355.295554,17.5117949 C353.150355,17.5117949 350.890937,18.2677223 348.517764,19.7546654 L348.142107,19.9955172 L347.690413,20.2916706 L347.69,43.21 L343.557,43.21 L343.557,19.012 L343.652539,18.9543788 L344.269688,18.5949532 C346.134184,17.537287 348.115912,16.6652543 350.209438,15.9825157 C352.730073,15.1604887 354.957623,14.7528205 356.887865,14.7528205 Z M217.102986,14.7528205 C220.238294,14.7528205 222.443923,15.3476148 223.744065,16.4737963 L223.901868,16.617332 L224.064145,16.780178 L224.219485,16.9519749 C225.231903,18.1271847 225.780114,19.900947 225.830029,22.3098015 L225.833774,22.6758974 L225.833,43.21 L221.7,43.21 L221.700429,24.0441026 L221.696982,23.7117406 L221.68668,23.3910365 C221.595645,21.2826252 221.056127,19.7670333 219.984171,18.8738056 C218.878473,17.9524625 217.337933,17.5117949 215.392726,17.5117949 C212.988414,17.5117949 210.56231,18.1941605 208.123044,19.5451029 L207.69245,19.790442 L207.197839,20.0801319 L207.197,43.21 L203.064,43.21 L203.064,18.723 L203.58038,18.4273445 C207.947185,15.9758871 212.452224,14.7528205 217.102986,14.7528205 Z M528.510241,14.7528205 C530.611053,14.7528205 532.187395,15.1656933 533.263412,15.9578402 L533.448108,16.1015611 L533.582748,16.2194184 L533.711576,16.3467864 C534.506783,17.1813308 534.951651,18.5872421 534.996277,20.6082345 L535,20.9507692 L535,23.034 L531.338,23.996 L531.33845,23.0328205 L531.335241,22.7513316 L531.325318,22.4760499 C531.170596,19.3037562 529.654093,17.5117949 526.91793,17.5117949 C524.772731,17.5117949 522.513313,18.2677223 520.14014,19.7546654 L519.764483,19.9955172 L519.312789,20.2916706 L519.312,43.21 L515.179,43.21 L515.179,19.012 L515.274915,18.9543788 L515.892064,18.5949532 C517.75656,17.537287 519.738288,16.6652543 521.831814,15.9825157 C524.352449,15.1604887 526.579999,14.7528205 528.510241,14.7528205 Z M181.078301,16.9169231 C178.661567,16.9169231 176.635988,18.0313893 175.078122,20.1864657 C173.560091,22.286436 172.82444,25.3394241 172.82444,29.3384615 C172.82444,33.4107062 173.515898,36.4753427 174.949856,38.5354016 C176.433514,40.6668603 178.508719,41.76 181.078301,41.76 C183.647883,41.76 185.723088,40.6668603 187.206746,38.5354016 C188.640704,36.4753427 189.332162,33.4107062 189.332162,29.3384615 C189.332162,25.3437722 188.618654,22.2955869 187.145404,20.197622 C185.625332,18.0329822 183.573808,16.9169231 181.078301,16.9169231 Z M97.3519858,17.3928205 C95.3561662,17.3928205 93.190978,18.0201744 90.8530175,19.2568876 L90.4386421,19.481453 L89.9237677,19.7670957 L89.9237677,40.4759456 L90.8361833,40.8545284 L91.1716174,40.9803088 C92.6442926,41.5046401 94.3659525,41.76 96.3494196,41.76 C102.139528,41.76 105.016102,37.1174688 105.016102,28.3866667 C105.016102,21.2370484 102.452686,17.3928205 97.3519858,17.3928205 Z M387.366383,29.5876923 L383.240735,29.5876923 L382.873523,29.5897627 L382.511659,29.5960935 C376.053146,29.7486654 372.568921,31.9867987 372.568921,36.3579487 C372.568921,38.0103319 373.137477,39.3007041 374.287074,40.117689 C375.331197,40.8597159 376.614842,41.2246154 378.109956,41.2246154 C379.92302,41.2246154 381.6726,40.7888647 383.346338,39.9230759 C384.875531,39.1320567 386.079668,38.2167379 386.950726,37.1694349 L387.161547,36.904855 L387.366383,36.6362542 L387.366383,29.5876923 Z M65.4555147,16.7384615 C63.3119165,16.7384615 61.4830773,17.602453 60.037375,19.2885785 C58.6983264,20.8503136 57.8604898,23.0718871 57.4947292,25.9400032 L57.443402,26.375068 L57.3230229,27.4830769 L72.9977302,27.4830769 L72.9412745,26.4295655 L72.9147553,26.00688 C72.7037346,23.0801877 71.9590184,20.8279764 70.6435533,19.2656572 C69.2394259,17.5980378 67.4883962,16.7384615 65.4555147,16.7384615 Z M494.667613,16.7384615 C492.524014,16.7384615 490.695175,17.602453 489.249473,19.2885785 C487.910424,20.8503136 487.072588,23.0718871 486.706827,25.9400032 L486.6555,26.375068 L486.535121,27.4830769 L502.209828,27.4830769 L502.153372,26.4295655 L502.126853,26.00688 C501.915832,23.0801877 501.171116,20.8279764 499.855651,19.2656572 C498.451524,17.5980378 496.700494,16.7384615 494.667613,16.7384615 Z M247.46612,16.7384615 C245.322522,16.7384615 243.493683,17.602453 242.04798,19.2885785 C240.708932,20.8503136 239.871095,23.0718871 239.505335,25.9400032 L239.454007,26.375068 L239.333628,27.4830769 L255.008336,27.4830769 L254.95188,26.4295655 L254.925361,26.00688 C254.71434,23.0801877 253.969624,20.8279764 252.654159,19.2656572 C251.250031,17.5980378 249.499002,16.7384615 247.46612,16.7384615 Z" id="Shape"></path>
                    </g>
                    <path d="M1.50114767,60 C2.33020863,60 3.00229533,60.6715729 3.00229533,61.5 C3.00229533,62.3284271 2.33020863,63 1.50114767,63 C0.672086703,63 0,62.3284271 0,61.5 C0,60.6715729 0.672086703,60 1.50114767,60 Z M430.328998,60 C431.158059,60 431.830145,60.6715729 431.830145,61.5 C431.830145,62.3284271 431.158059,63 430.328998,63 C429.499937,63 428.82785,62.3284271 428.82785,61.5 C428.82785,60.6715729 429.499937,60 430.328998,60 Z M215.664881,60 C216.493942,60 217.166029,60.6715729 217.166029,61.5 C217.166029,62.3284271 216.493942,63 215.664881,63 C214.83582,63 214.163734,62.3284271 214.163734,61.5 C214.163734,60.6715729 214.83582,60 215.664881,60 Z M644.993114,60 C645.822175,60 646.494262,60.6715729 646.494262,61.5 C646.494262,62.3284271 645.822175,63 644.993114,63 C644.164053,63 643.491966,62.3284271 643.491966,61.5 C643.491966,60.6715729 644.164053,60 644.993114,60 Z M73.0558531,60 C73.8849141,60 74.5570008,60.6715729 74.5570008,61.5 C74.5570008,62.3284271 73.8849141,63 73.0558531,63 C72.2267921,63 71.5547054,62.3284271 71.5547054,61.5 C71.5547054,60.6715729 72.2267921,60 73.0558531,60 Z M501.883703,60 C502.712764,60 503.384851,60.6715729 503.384851,61.5 C503.384851,62.3284271 502.712764,63 501.883703,63 C501.054642,63 500.382555,62.3284271 500.382555,61.5 C500.382555,60.6715729 501.054642,60 501.883703,60 Z M287.719969,60 C288.54903,60 289.221117,60.6715729 289.221117,61.5 C289.221117,62.3284271 288.54903,63 287.719969,63 C286.890908,63 286.218822,62.3284271 286.218822,61.5 C286.218822,60.6715729 286.890908,60 287.719969,60 Z M144.110176,60 C144.939237,60 145.611324,60.6715729 145.611324,61.5 C145.611324,62.3284271 144.939237,63 144.110176,63 C143.281115,63 142.609028,62.3284271 142.609028,61.5 C142.609028,60.6715729 143.281115,60 144.110176,60 Z M572.938026,60 C573.767087,60 574.439174,60.6715729 574.439174,61.5 C574.439174,62.3284271 573.767087,63 572.938026,63 C572.108965,63 571.436878,62.3284271 571.436878,61.5 C571.436878,60.6715729 572.108965,60 572.938026,60 Z M358.774292,60 C359.603353,60 360.27544,60.6715729 360.27544,61.5 C360.27544,62.3284271 359.603353,63 358.774292,63 C357.945231,63 357.273145,62.3284271 357.273145,61.5 C357.273145,60.6715729 357.945231,60 358.774292,60 Z M25.0191278,60 C25.8481887,60 26.5202754,60.6715729 26.5202754,61.5 C26.5202754,62.3284271 25.8481887,63 25.0191278,63 C24.1900668,63 23.5179801,62.3284271 23.5179801,61.5 C23.5179801,60.6715729 24.1900668,60 25.0191278,60 Z M453.846978,60 C454.676039,60 455.348125,60.6715729 455.348125,61.5 C455.348125,62.3284271 454.676039,63 453.846978,63 C453.017917,63 452.34583,62.3284271 452.34583,61.5 C452.34583,60.6715729 453.017917,60 453.846978,60 Z M239.683244,60 C240.512305,60 241.184392,60.6715729 241.184392,61.5 C241.184392,62.3284271 240.512305,63 239.683244,63 C238.854183,63 238.182096,62.3284271 238.182096,61.5 C238.182096,60.6715729 238.854183,60 239.683244,60 Z M96.5738332,60 C97.4028942,60 98.0749809,60.6715729 98.0749809,61.5 C98.0749809,62.3284271 97.4028942,63 96.5738332,63 C95.7447722,63 95.0726855,62.3284271 95.0726855,61.5 C95.0726855,60.6715729 95.7447722,60 96.5738332,60 Z M525.401683,60 C526.230744,60 526.902831,60.6715729 526.902831,61.5 C526.902831,62.3284271 526.230744,63 525.401683,63 C524.572622,63 523.900536,62.3284271 523.900536,61.5 C523.900536,60.6715729 524.572622,60 525.401683,60 Z M311.23795,60 C312.06701,60 312.739097,60.6715729 312.739097,61.5 C312.739097,62.3284271 312.06701,63 311.23795,63 C310.408889,63 309.736802,62.3284271 309.736802,61.5 C309.736802,60.6715729 310.408889,60 311.23795,60 Z M168.128539,60 C168.9576,60 169.629686,60.6715729 169.629686,61.5 C169.629686,62.3284271 168.9576,63 168.128539,63 C167.299478,63 166.627391,62.3284271 166.627391,61.5 C166.627391,60.6715729 167.299478,60 168.128539,60 Z M596.956389,60 C597.78545,60 598.457536,60.6715729 598.457536,61.5 C598.457536,62.3284271 597.78545,63 596.956389,63 C596.127328,63 595.455241,62.3284271 595.455241,61.5 C595.455241,60.6715729 596.127328,60 596.956389,60 Z M382.792655,60 C383.621716,60 384.293803,60.6715729 384.293803,61.5 C384.293803,62.3284271 383.621716,63 382.792655,63 C381.963594,63 381.291507,62.3284271 381.291507,61.5 C381.291507,60.6715729 381.963594,60 382.792655,60 Z M49.0374904,60 C49.8665514,60 50.5386381,60.6715729 50.5386381,61.5 C50.5386381,62.3284271 49.8665514,63 49.0374904,63 C48.2084295,63 47.5363428,62.3284271 47.5363428,61.5 C47.5363428,60.6715729 48.2084295,60 49.0374904,60 Z M477.86534,60 C478.694401,60 479.366488,60.6715729 479.366488,61.5 C479.366488,62.3284271 478.694401,63 477.86534,63 C477.03628,63 476.364193,62.3284271 476.364193,61.5 C476.364193,60.6715729 477.03628,60 477.86534,60 Z M263.701607,60 C264.530668,60 265.202754,60.6715729 265.202754,61.5 C265.202754,62.3284271 264.530668,63 263.701607,63 C262.872546,63 262.200459,62.3284271 262.200459,61.5 C262.200459,60.6715729 262.872546,60 263.701607,60 Z M120.592196,60 C121.421257,60 122.093344,60.6715729 122.093344,61.5 C122.093344,62.3284271 121.421257,63 120.592196,63 C119.763135,63 119.091048,62.3284271 119.091048,61.5 C119.091048,60.6715729 119.763135,60 120.592196,60 Z M549.420046,60 C550.249107,60 550.921194,60.6715729 550.921194,61.5 C550.921194,62.3284271 550.249107,63 549.420046,63 C548.590985,63 547.918898,62.3284271 547.918898,61.5 C547.918898,60.6715729 548.590985,60 549.420046,60 Z M335.256312,60 C336.085373,60 336.75746,60.6715729 336.75746,61.5 C336.75746,62.3284271 336.085373,63 335.256312,63 C334.427251,63 333.755164,62.3284271 333.755164,61.5 C333.755164,60.6715729 334.427251,60 335.256312,60 Z M192.146901,60 C192.975962,60 193.648049,60.6715729 193.648049,61.5 C193.648049,62.3284271 192.975962,63 192.146901,63 C191.31784,63 190.645754,62.3284271 190.645754,61.5 C190.645754,60.6715729 191.31784,60 192.146901,60 Z M620.974751,60 C621.803812,60 622.475899,60.6715729 622.475899,61.5 C622.475899,62.3284271 621.803812,63 620.974751,63 C620.14569,63 619.473604,62.3284271 619.473604,61.5 C619.473604,60.6715729 620.14569,60 620.974751,60 Z M406.811018,60 C407.640079,60 408.312165,60.6715729 408.312165,61.5 C408.312165,62.3284271 407.640079,63 406.811018,63 C405.981957,63 405.30987,62.3284271 405.30987,61.5 C405.30987,60.6715729 405.981957,60 406.811018,60 Z M9.50726855,60 C10.3363295,60 11.0084162,60.6715729 11.0084162,61.5 C11.0084162,62.3284271 10.3363295,63 9.50726855,63 C8.67820759,63 8.00612089,62.3284271 8.00612089,61.5 C8.00612089,60.6715729 8.67820759,60 9.50726855,60 Z M438.335119,60 C439.16418,60 439.836266,60.6715729 439.836266,61.5 C439.836266,62.3284271 439.16418,63 438.335119,63 C437.506058,63 436.833971,62.3284271 436.833971,61.5 C436.833971,60.6715729 437.506058,60 438.335119,60 Z M223.671002,60 C224.500063,60 225.17215,60.6715729 225.17215,61.5 C225.17215,62.3284271 224.500063,63 223.671002,63 C222.841941,63 222.169855,62.3284271 222.169855,61.5 C222.169855,60.6715729 222.841941,60 223.671002,60 Z M652.498852,60 C653.327913,60 654,60.6715729 654,61.5 C654,62.3284271 653.327913,63 652.498852,63 C651.669791,63 650.997705,62.3284271 650.997705,61.5 C650.997705,60.6715729 651.669791,60 652.498852,60 Z M81.061974,60 C81.8910349,60 82.5631217,60.6715729 82.5631217,61.5 C82.5631217,62.3284271 81.8910349,63 81.061974,63 C80.232913,63 79.5608263,62.3284271 79.5608263,61.5 C79.5608263,60.6715729 80.232913,60 81.061974,60 Z M509.889824,60 C510.718885,60 511.390972,60.6715729 511.390972,61.5 C511.390972,62.3284271 510.718885,63 509.889824,63 C509.060763,63 508.388676,62.3284271 508.388676,61.5 C508.388676,60.6715729 509.060763,60 509.889824,60 Z M295.72609,60 C296.555151,60 297.227238,60.6715729 297.227238,61.5 C297.227238,62.3284271 296.555151,63 295.72609,63 C294.897029,63 294.224943,62.3284271 294.224943,61.5 C294.224943,60.6715729 294.897029,60 295.72609,60 Z M152.116297,60 C152.945358,60 153.617445,60.6715729 153.617445,61.5 C153.617445,62.3284271 152.945358,63 152.116297,63 C151.287236,63 150.615149,62.3284271 150.615149,61.5 C150.615149,60.6715729 151.287236,60 152.116297,60 Z M580.944147,60 C581.773208,60 582.445295,60.6715729 582.445295,61.5 C582.445295,62.3284271 581.773208,63 580.944147,63 C580.115086,63 579.442999,62.3284271 579.442999,61.5 C579.442999,60.6715729 580.115086,60 580.944147,60 Z M366.780413,60 C367.609474,60 368.281561,60.6715729 368.281561,61.5 C368.281561,62.3284271 367.609474,63 366.780413,63 C365.951352,63 365.279265,62.3284271 365.279265,61.5 C365.279265,60.6715729 365.951352,60 366.780413,60 Z M33.0252487,60 C33.8543096,60 34.5263963,60.6715729 34.5263963,61.5 C34.5263963,62.3284271 33.8543096,63 33.0252487,63 C32.1961877,63 31.524101,62.3284271 31.524101,61.5 C31.524101,60.6715729 32.1961877,60 33.0252487,60 Z M461.853099,60 C462.68216,60 463.354246,60.6715729 463.354246,61.5 C463.354246,62.3284271 462.68216,63 461.853099,63 C461.024038,63 460.351951,62.3284271 460.351951,61.5 C460.351951,60.6715729 461.024038,60 461.853099,60 Z M247.689365,60 C248.518426,60 249.190513,60.6715729 249.190513,61.5 C249.190513,62.3284271 248.518426,63 247.689365,63 C246.860304,63 246.188217,62.3284271 246.188217,61.5 C246.188217,60.6715729 246.860304,60 247.689365,60 Z M104.579954,60 C105.409015,60 106.081102,60.6715729 106.081102,61.5 C106.081102,62.3284271 105.409015,63 104.579954,63 C103.750893,63 103.078806,62.3284271 103.078806,61.5 C103.078806,60.6715729 103.750893,60 104.579954,60 Z M533.407804,60 C534.236865,60 534.908952,60.6715729 534.908952,61.5 C534.908952,62.3284271 534.236865,63 533.407804,63 C532.578743,63 531.906656,62.3284271 531.906656,61.5 C531.906656,60.6715729 532.578743,60 533.407804,60 Z M319.24407,60 C320.073131,60 320.745218,60.6715729 320.745218,61.5 C320.745218,62.3284271 320.073131,63 319.24407,63 C318.415009,63 317.742923,62.3284271 317.742923,61.5 C317.742923,60.6715729 318.415009,60 319.24407,60 Z M176.13466,60 C176.96372,60 177.635807,60.6715729 177.635807,61.5 C177.635807,62.3284271 176.96372,63 176.13466,63 C175.305599,63 174.633512,62.3284271 174.633512,61.5 C174.633512,60.6715729 175.305599,60 176.13466,60 Z M604.96251,60 C605.791571,60 606.463657,60.6715729 606.463657,61.5 C606.463657,62.3284271 605.791571,63 604.96251,63 C604.133449,63 603.461362,62.3284271 603.461362,61.5 C603.461362,60.6715729 604.133449,60 604.96251,60 Z M390.798776,60 C391.627837,60 392.299923,60.6715729 392.299923,61.5 C392.299923,62.3284271 391.627837,63 390.798776,63 C389.969715,63 389.297628,62.3284271 389.297628,61.5 C389.297628,60.6715729 389.969715,60 390.798776,60 Z M57.0436113,60 C57.8726723,60 58.544759,60.6715729 58.544759,61.5 C58.544759,62.3284271 57.8726723,63 57.0436113,63 C56.2145504,63 55.5424637,62.3284271 55.5424637,61.5 C55.5424637,60.6715729 56.2145504,60 57.0436113,60 Z M485.871461,60 C486.700522,60 487.372609,60.6715729 487.372609,61.5 C487.372609,62.3284271 486.700522,63 485.871461,63 C485.0424,63 484.370314,62.3284271 484.370314,61.5 C484.370314,60.6715729 485.0424,60 485.871461,60 Z M271.707728,60 C272.536789,60 273.208875,60.6715729 273.208875,61.5 C273.208875,62.3284271 272.536789,63 271.707728,63 C270.878667,63 270.20658,62.3284271 270.20658,61.5 C270.20658,60.6715729 270.878667,60 271.707728,60 Z M128.598317,60 C129.427378,60 130.099464,60.6715729 130.099464,61.5 C130.099464,62.3284271 129.427378,63 128.598317,63 C127.769256,63 127.097169,62.3284271 127.097169,61.5 C127.097169,60.6715729 127.769256,60 128.598317,60 Z M557.426167,60 C558.255228,60 558.927314,60.6715729 558.927314,61.5 C558.927314,62.3284271 558.255228,63 557.426167,63 C556.597106,63 555.925019,62.3284271 555.925019,61.5 C555.925019,60.6715729 556.597106,60 557.426167,60 Z M343.262433,60 C344.091494,60 344.763581,60.6715729 344.763581,61.5 C344.763581,62.3284271 344.091494,63 343.262433,63 C342.433372,63 341.761285,62.3284271 341.761285,61.5 C341.761285,60.6715729 342.433372,60 343.262433,60 Z M199.65264,60 C200.481701,60 201.153787,60.6715729 201.153787,61.5 C201.153787,62.3284271 200.481701,63 199.65264,63 C198.823579,63 198.151492,62.3284271 198.151492,61.5 C198.151492,60.6715729 198.823579,60 199.65264,60 Z M628.980872,60 C629.809933,60 630.48202,60.6715729 630.48202,61.5 C630.48202,62.3284271 629.809933,63 628.980872,63 C628.151811,63 627.479725,62.3284271 627.479725,61.5 C627.479725,60.6715729 628.151811,60 628.980872,60 Z M414.316756,60 C415.145817,60 415.817904,60.6715729 415.817904,61.5 C415.817904,62.3284271 415.145817,63 414.316756,63 C413.487695,63 412.815608,62.3284271 412.815608,61.5 C412.815608,60.6715729 413.487695,60 414.316756,60 Z M17.0130069,60 C17.8420678,60 18.5141546,60.6715729 18.5141546,61.5 C18.5141546,62.3284271 17.8420678,63 17.0130069,63 C16.1839459,63 15.5118592,62.3284271 15.5118592,61.5 C15.5118592,60.6715729 16.1839459,60 17.0130069,60 Z M445.840857,60 C446.669918,60 447.342005,60.6715729 447.342005,61.5 C447.342005,62.3284271 446.669918,63 445.840857,63 C445.011796,63 444.339709,62.3284271 444.339709,61.5 C444.339709,60.6715729 445.011796,60 445.840857,60 Z M232.177506,60 C233.006567,60 233.678653,60.6715729 233.678653,61.5 C233.678653,62.3284271 233.006567,63 232.177506,63 C231.348445,63 230.676358,62.3284271 230.676358,61.5 C230.676358,60.6715729 231.348445,60 232.177506,60 Z M88.5677123,60 C89.3967733,60 90.06886,60.6715729 90.06886,61.5 C90.06886,62.3284271 89.3967733,63 88.5677123,63 C87.7386514,63 87.0665647,62.3284271 87.0665647,61.5 C87.0665647,60.6715729 87.7386514,60 88.5677123,60 Z M517.395562,60 C518.224623,60 518.89671,60.6715729 518.89671,61.5 C518.89671,62.3284271 518.224623,63 517.395562,63 C516.566501,63 515.894415,62.3284271 515.894415,61.5 C515.894415,60.6715729 516.566501,60 517.395562,60 Z M303.231829,60 C304.06089,60 304.732976,60.6715729 304.732976,61.5 C304.732976,62.3284271 304.06089,63 303.231829,63 C302.402768,63 301.730681,62.3284271 301.730681,61.5 C301.730681,60.6715729 302.402768,60 303.231829,60 Z M160.122418,60 C160.951479,60 161.623565,60.6715729 161.623565,61.5 C161.623565,62.3284271 160.951479,63 160.122418,63 C159.293357,63 158.62127,62.3284271 158.62127,61.5 C158.62127,60.6715729 159.293357,60 160.122418,60 Z M588.950268,60 C589.779329,60 590.451415,60.6715729 590.451415,61.5 C590.451415,62.3284271 589.779329,63 588.950268,63 C588.121207,63 587.44912,62.3284271 587.44912,61.5 C587.44912,60.6715729 588.121207,60 588.950268,60 Z M374.786534,60 C375.615595,60 376.287682,60.6715729 376.287682,61.5 C376.287682,62.3284271 375.615595,63 374.786534,63 C373.957473,63 373.285386,62.3284271 373.285386,61.5 C373.285386,60.6715729 373.957473,60 374.786534,60 Z M41.0313695,60 C41.8604305,60 42.5325172,60.6715729 42.5325172,61.5 C42.5325172,62.3284271 41.8604305,63 41.0313695,63 C40.2023086,63 39.5302219,62.3284271 39.5302219,61.5 C39.5302219,60.6715729 40.2023086,60 41.0313695,60 Z M469.85922,60 C470.688281,60 471.360367,60.6715729 471.360367,61.5 C471.360367,62.3284271 470.688281,63 469.85922,63 C469.030159,63 468.358072,62.3284271 468.358072,61.5 C468.358072,60.6715729 469.030159,60 469.85922,60 Z M255.695486,60 C256.524547,60 257.196634,60.6715729 257.196634,61.5 C257.196634,62.3284271 256.524547,63 255.695486,63 C254.866425,63 254.194338,62.3284271 254.194338,61.5 C254.194338,60.6715729 254.866425,60 255.695486,60 Z M112.586075,60 C113.415136,60 114.087223,60.6715729 114.087223,61.5 C114.087223,62.3284271 113.415136,63 112.586075,63 C111.757014,63 111.084927,62.3284271 111.084927,61.5 C111.084927,60.6715729 111.757014,60 112.586075,60 Z M541.413925,60 C542.242986,60 542.915073,60.6715729 542.915073,61.5 C542.915073,62.3284271 542.242986,63 541.413925,63 C540.584864,63 539.912777,62.3284271 539.912777,61.5 C539.912777,60.6715729 540.584864,60 541.413925,60 Z M327.250191,60 C328.079252,60 328.751339,60.6715729 328.751339,61.5 C328.751339,62.3284271 328.079252,63 327.250191,63 C326.42113,63 325.749044,62.3284271 325.749044,61.5 C325.749044,60.6715729 326.42113,60 327.250191,60 Z M184.14078,60 C184.969841,60 185.641928,60.6715729 185.641928,61.5 C185.641928,62.3284271 184.969841,63 184.14078,63 C183.311719,63 182.639633,62.3284271 182.639633,61.5 C182.639633,60.6715729 183.311719,60 184.14078,60 Z M612.96863,60 C613.797691,60 614.469778,60.6715729 614.469778,61.5 C614.469778,62.3284271 613.797691,63 612.96863,63 C612.139569,63 611.467483,62.3284271 611.467483,61.5 C611.467483,60.6715729 612.139569,60 612.96863,60 Z M398.804897,60 C399.633958,60 400.306044,60.6715729 400.306044,61.5 C400.306044,62.3284271 399.633958,63 398.804897,63 C397.975836,63 397.303749,62.3284271 397.303749,61.5 C397.303749,60.6715729 397.975836,60 398.804897,60 Z M65.0497322,60 C65.8787932,60 66.5508799,60.6715729 66.5508799,61.5 C66.5508799,62.3284271 65.8787932,63 65.0497322,63 C64.2206712,63 63.5485845,62.3284271 63.5485845,61.5 C63.5485845,60.6715729 64.2206712,60 65.0497322,60 Z M493.877582,60 C494.706643,60 495.37873,60.6715729 495.37873,61.5 C495.37873,62.3284271 494.706643,63 493.877582,63 C493.048521,63 492.376435,62.3284271 492.376435,61.5 C492.376435,60.6715729 493.048521,60 493.877582,60 Z M279.713849,60 C280.542909,60 281.214996,60.6715729 281.214996,61.5 C281.214996,62.3284271 280.542909,63 279.713849,63 C278.884788,63 278.212701,62.3284271 278.212701,61.5 C278.212701,60.6715729 278.884788,60 279.713849,60 Z M136.604438,60 C137.433499,60 138.105585,60.6715729 138.105585,61.5 C138.105585,62.3284271 137.433499,63 136.604438,63 C135.775377,63 135.10329,62.3284271 135.10329,61.5 C135.10329,60.6715729 135.775377,60 136.604438,60 Z M565.432288,60 C566.261349,60 566.933435,60.6715729 566.933435,61.5 C566.933435,62.3284271 566.261349,63 565.432288,63 C564.603227,63 563.93114,62.3284271 563.93114,61.5 C563.93114,60.6715729 564.603227,60 565.432288,60 Z M351.268554,60 C352.097615,60 352.769702,60.6715729 352.769702,61.5 C352.769702,62.3284271 352.097615,63 351.268554,63 C350.439493,63 349.767406,62.3284271 349.767406,61.5 C349.767406,60.6715729 350.439493,60 351.268554,60 Z M207.658761,60 C208.487821,60 209.159908,60.6715729 209.159908,61.5 C209.159908,62.3284271 208.487821,63 207.658761,63 C206.8297,63 206.157613,62.3284271 206.157613,61.5 C206.157613,60.6715729 206.8297,60 207.658761,60 Z M636.986993,60 C637.816054,60 638.488141,60.6715729 638.488141,61.5 C638.488141,62.3284271 637.816054,63 636.986993,63 C636.157932,63 635.485845,62.3284271 635.485845,61.5 C635.485845,60.6715729 636.157932,60 636.986993,60 Z M422.322877,60 C423.151938,60 423.824024,60.6715729 423.824024,61.5 C423.824024,62.3284271 423.151938,63 422.322877,63 C421.493816,63 420.821729,62.3284271 420.821729,61.5 C420.821729,60.6715729 421.493816,60 422.322877,60 Z" id="Combined-Shape"></path>
                </g>
                <path d="M53.7915205,98.2734375 C55.860531,98.2734375 57.4829268,97.5921224 58.658708,96.2294922 C59.8344893,94.866862 60.4223799,92.9733073 60.4223799,90.5488281 C60.4223799,88.1608073 59.8413252,86.2809245 58.6792158,84.9091797 C57.5171065,83.5374349 55.9152185,82.8515625 53.8735518,82.8515625 C51.8227705,82.8515625 50.2094893,83.5283203 49.033708,84.8818359 C47.8579268,86.2353516 47.2700362,88.124349 47.2700362,90.5488281 C47.2700362,92.0891927 47.5343591,93.4472656 48.0630049,94.6230469 C48.5916507,95.7988281 49.3527185,96.7011719 50.346208,97.3300781 C51.3396976,97.9589844 52.4881351,98.2734375 53.7915205,98.2734375 Z M53.846208,97.0429688 C52.205583,97.0429688 50.9363773,96.4710286 50.0385908,95.3271484 C49.1408044,94.1832682 48.6919112,92.5904948 48.6919112,90.5488281 C48.6919112,88.4889323 49.1362471,86.8961589 50.024919,85.7705078 C50.9135908,84.6448568 52.1782393,84.0820312 53.8188643,84.0820312 C55.4594893,84.0820312 56.7332523,84.6471354 57.6401533,85.7773438 C58.5470544,86.9075521 59.0005049,88.4980469 59.0005049,90.5488281 C59.0005049,92.5904948 58.5516117,94.1832682 57.6538252,95.3271484 C56.7560388,96.4710286 55.486833,97.0429688 53.846208,97.0429688 Z M75.4164187,98 L75.4164187,89.796875 C75.4164187,87.8007812 75.7718874,86.3492839 76.4828249,85.4423828 C77.1937624,84.5354818 78.328528,84.0820312 79.8871218,84.0820312 C82.1839968,84.0820312 83.3324343,85.3352865 83.3324343,87.8417969 L83.3324343,87.8417969 L83.3324343,98 L84.7132937,98 L84.7132937,89.2910156 C84.7132937,87.4954427 85.077877,86.1783854 85.8070437,85.3398438 C86.5362103,84.5013021 87.6618614,84.0820312 89.1839968,84.0820312 C90.3506635,84.0820312 91.2165489,84.4147135 91.781653,85.0800781 C92.3467572,85.7454427 92.6293093,86.8027344 92.6293093,88.2519531 L92.6293093,88.2519531 L92.6293093,98 L93.969153,98 L93.969153,88.2792969 C93.969153,86.3925781 93.5635541,85.016276 92.7523562,84.1503906 C91.9411583,83.2845052 90.7243614,82.8515625 89.1019655,82.8515625 C88.062903,82.8515625 87.1354942,83.0794271 86.319739,83.5351562 C85.5039838,83.9908854 84.8545697,84.6425781 84.3714968,85.4902344 L84.3714968,85.4902344 L84.3168093,85.4902344 C83.6514447,83.7311198 82.1475385,82.8515625 79.8050905,82.8515625 C78.8936322,82.8515625 78.0596478,83.054362 77.3031374,83.4599609 C76.546627,83.8655599 75.9632937,84.4375 75.5531374,85.1757812 L75.5531374,85.1757812 L75.4711062,85.1757812 L75.1839968,83.1386719 L74.062903,83.1386719 L74.062903,98 L75.4164187,98 Z M105.909532,98.2734375 C106.766303,98.2734375 107.550157,98.2073568 108.261094,98.0751953 C108.972032,97.9430339 109.746771,97.6946615 110.585313,97.3300781 L110.585313,97.3300781 L110.585313,96.0996094 C109.600938,96.4915365 108.787461,96.7467448 108.144883,96.8652344 C107.502305,96.983724 106.757188,97.0429688 105.909532,97.0429688 C104.168646,97.0429688 102.831081,96.5052083 101.896836,95.4296875 C100.962592,94.3541667 100.486355,92.7955729 100.468126,90.7539062 L100.468126,90.7539062 L111.173204,90.7539062 L111.173204,89.6601562 C111.173204,87.5638021 110.667344,85.9049479 109.655626,84.6835938 C108.643907,83.4622396 107.263047,82.8515625 105.513047,82.8515625 C103.535183,82.8515625 101.962917,83.5647786 100.796251,84.9912109 C99.6295839,86.4176432 99.0462505,88.3157552 99.0462505,90.6855469 C99.0462505,93.0826823 99.6500917,94.9466146 100.857774,96.2773438 C102.065456,97.6080729 103.749376,98.2734375 105.909532,98.2734375 Z M109.737657,89.5507812 L100.550157,89.5507812 C100.69599,87.7734375 101.20185,86.4130859 102.067735,85.4697266 C102.93362,84.5263672 104.082058,84.0546875 105.513047,84.0546875 C106.834662,84.0546875 107.869167,84.5400391 108.616563,85.5107422 C109.363959,86.4814453 109.737657,87.828125 109.737657,89.5507812 L109.737657,89.5507812 Z M117.754207,98 L117.754207,76.7265625 L116.400692,76.7265625 L116.400692,98 L117.754207,98 Z M125.210211,98 L125.210211,89.796875 C125.210211,87.7825521 125.622646,86.3264974 126.447516,85.4287109 C127.272386,84.5309245 128.573492,84.0820312 130.350836,84.0820312 C131.672451,84.0820312 132.647711,84.4215495 133.276617,85.1005859 C133.905524,85.7796224 134.219977,86.8665365 134.219977,88.3613281 L134.219977,88.3613281 L134.219977,98 L135.559821,98 L135.559821,88.2792969 C135.559821,84.6608073 133.873623,82.8515625 130.501227,82.8515625 C129.243414,82.8515625 128.19068,83.0520833 127.343024,83.453125 C126.495367,83.8541667 125.793545,84.5013021 125.237555,85.3945312 L125.237555,85.3945312 L125.141852,85.3945312 L125.210211,83.4941406 L125.210211,76.7265625 L123.856696,76.7265625 L123.856696,98 L125.210211,98 Z M147.158402,98.2734375 C149.227413,98.2734375 150.849809,97.5921224 152.02559,96.2294922 C153.201371,94.866862 153.789262,92.9733073 153.789262,90.5488281 C153.789262,88.1608073 153.208207,86.2809245 152.046098,84.9091797 C150.883988,83.5374349 149.2821,82.8515625 147.240434,82.8515625 C145.189652,82.8515625 143.576371,83.5283203 142.40059,84.8818359 C141.224809,86.2353516 140.636918,88.124349 140.636918,90.5488281 C140.636918,92.0891927 140.901241,93.4472656 141.429887,94.6230469 C141.958533,95.7988281 142.7196,96.7011719 143.71309,97.3300781 C144.70658,97.9589844 145.855017,98.2734375 147.158402,98.2734375 Z M147.21309,97.0429688 C145.572465,97.0429688 144.303259,96.4710286 143.405473,95.3271484 C142.507686,94.1832682 142.058793,92.5904948 142.058793,90.5488281 C142.058793,88.4889323 142.503129,86.8961589 143.391801,85.7705078 C144.280473,84.6448568 145.545121,84.0820312 147.185746,84.0820312 C148.826371,84.0820312 150.100134,84.6471354 151.007035,85.7773438 C151.913936,86.9075521 152.367387,88.4980469 152.367387,90.5488281 C152.367387,92.5904948 151.918494,94.1832682 151.020707,95.3271484 C150.122921,96.4710286 148.853715,97.0429688 147.21309,97.0429688 Z M160.383937,98 L160.383937,89.796875 C160.383937,88.15625 160.789536,86.7981771 161.600734,85.7226562 C162.411932,84.6471354 163.450995,84.109375 164.717922,84.109375 C165.383286,84.109375 166.025865,84.186849 166.645656,84.3417969 L166.645656,84.3417969 L166.905422,83.0429688 C166.18537,82.9153646 165.510891,82.8515625 164.881984,82.8515625 C163.897609,82.8515625 163.059068,83.0725911 162.366359,83.5146484 C161.673651,83.9567057 161.021958,84.7246094 160.411281,85.8183594 L160.411281,85.8183594 L160.315578,85.8183594 L160.178859,83.1386719 L159.030422,83.1386719 L159.030422,98 L160.383937,98 Z M182.84282,98.2734375 C184.702195,98.2734375 186.137742,97.9156901 187.149461,97.2001953 C188.161179,96.4847005 188.667039,95.4615885 188.667039,94.1308594 C188.667039,93.4654948 188.514369,92.8867188 188.209031,92.3945312 C187.903692,91.9023438 187.445685,91.4625651 186.835007,91.0751953 C186.22433,90.6878255 185.24907,90.2526042 183.909226,89.7695312 C182.30506,89.1953125 181.22726,88.6757812 180.675828,88.2109375 C180.124395,87.7460938 179.848679,87.1263021 179.848679,86.3515625 C179.848679,85.640625 180.204148,85.0846354 180.915086,84.6835938 C181.626023,84.2825521 182.587612,84.0820312 183.799851,84.0820312 C185.048549,84.0820312 186.402065,84.3828125 187.860398,84.984375 L187.860398,84.984375 L188.366257,83.7539062 C186.926153,83.1523438 185.404018,82.8515625 183.799851,82.8515625 C182.122768,82.8515625 180.817104,83.1751302 179.882859,83.8222656 C178.948614,84.469401 178.481492,85.3489583 178.481492,86.4609375 C178.481492,87.1627604 178.634161,87.757487 178.9395,88.2451172 C179.244838,88.7327474 179.698289,89.1702474 180.299851,89.5576172 C180.901414,89.944987 181.945033,90.4075521 183.430711,90.9453125 C184.816127,91.4375 185.811895,91.9388021 186.418015,92.4492188 C187.024135,92.9596354 187.327195,93.5885417 187.327195,94.3359375 C187.327195,95.1471354 186.946661,95.7965495 186.185593,96.2841797 C185.424526,96.7718099 184.310268,97.015625 182.84282,97.015625 C181.183966,97.015625 179.607143,96.6419271 178.112351,95.8945312 L178.112351,95.8945312 L178.112351,97.3574219 C179.279018,97.968099 180.855841,98.2734375 182.84282,98.2734375 Z M194.291011,80.3359375 C194.573563,80.3359375 194.794592,80.2174479 194.954097,79.9804688 C195.113602,79.7434896 195.193355,79.4199219 195.193355,79.0097656 C195.193355,78.5904948 195.113602,78.2669271 194.954097,78.0390625 C194.794592,77.8111979 194.573563,77.6972656 194.291011,77.6972656 C193.716792,77.6972656 193.429683,78.1347656 193.429683,79.0097656 C193.429683,79.8938802 193.716792,80.3359375 194.291011,80.3359375 Z M194.974605,98 L194.974605,83.1386719 L193.621089,83.1386719 L193.621089,98 L194.974605,98 Z M204.467718,98.2734375 C206.327093,98.2734375 207.76264,97.9156901 208.774359,97.2001953 C209.786077,96.4847005 210.291937,95.4615885 210.291937,94.1308594 C210.291937,93.4654948 210.139268,92.8867188 209.833929,92.3945312 C209.52859,91.9023438 209.070583,91.4625651 208.459906,91.0751953 C207.849229,90.6878255 206.873968,90.2526042 205.534124,89.7695312 C203.929958,89.1953125 202.852158,88.6757812 202.300726,88.2109375 C201.749294,87.7460938 201.473577,87.1263021 201.473577,86.3515625 C201.473577,85.640625 201.829046,85.0846354 202.539984,84.6835938 C203.250921,84.2825521 204.21251,84.0820312 205.424749,84.0820312 C206.673447,84.0820312 208.026963,84.3828125 209.485296,84.984375 L209.485296,84.984375 L209.991156,83.7539062 C208.551051,83.1523438 207.028916,82.8515625 205.424749,82.8515625 C203.747666,82.8515625 202.442002,83.1751302 201.507757,83.8222656 C200.573512,84.469401 200.10639,85.3489583 200.10639,86.4609375 C200.10639,87.1627604 200.259059,87.757487 200.564398,88.2451172 C200.869736,88.7327474 201.323187,89.1702474 201.924749,89.5576172 C202.526312,89.944987 203.569932,90.4075521 205.055609,90.9453125 C206.441025,91.4375 207.436794,91.9388021 208.042913,92.4492188 C208.649033,92.9596354 208.952093,93.5885417 208.952093,94.3359375 C208.952093,95.1471354 208.571559,95.7965495 207.810492,96.2841797 C207.049424,96.7718099 205.935166,97.015625 204.467718,97.015625 C202.808864,97.015625 201.232041,96.6419271 199.737249,95.8945312 L199.737249,95.8945312 L199.737249,97.3574219 C200.903916,97.968099 202.480739,98.2734375 204.467718,98.2734375 Z M219.142472,98.2734375 C219.999243,98.2734375 220.755753,98.1640625 221.412003,97.9453125 L221.412003,97.9453125 L221.412003,96.8515625 C220.773982,96.9973958 220.026586,97.0703125 219.169816,97.0703125 C218.313045,97.0703125 217.684139,96.796875 217.283097,96.25 C216.882055,95.703125 216.681534,94.860026 216.681534,93.7207031 L216.681534,93.7207031 L216.681534,84.3144531 L221.042862,84.3144531 L221.042862,83.1386719 L216.681534,83.1386719 L216.681534,79.5429688 L215.984269,79.5429688 L215.300675,82.90625 L213.099503,83.5214844 L213.099503,84.3144531 L215.300675,84.3144531 L215.300675,93.9121094 C215.300675,95.4160156 215.612849,96.5188802 216.237198,97.2207031 C216.861547,97.922526 217.829972,98.2734375 219.142472,98.2734375 Z M231.752772,98.2734375 C232.609543,98.2734375 233.393397,98.2073568 234.104335,98.0751953 C234.815272,97.9430339 235.590012,97.6946615 236.428554,97.3300781 L236.428554,97.3300781 L236.428554,96.0996094 C235.444179,96.4915365 234.630702,96.7467448 233.988124,96.8652344 C233.345546,96.983724 232.600429,97.0429688 231.752772,97.0429688 C230.011887,97.0429688 228.674322,96.5052083 227.740077,95.4296875 C226.805832,94.3541667 226.329595,92.7955729 226.311366,90.7539062 L226.311366,90.7539062 L237.016444,90.7539062 L237.016444,89.6601562 C237.016444,87.5638021 236.510585,85.9049479 235.498866,84.6835938 C234.487147,83.4622396 233.106288,82.8515625 231.356288,82.8515625 C229.378424,82.8515625 227.806158,83.5647786 226.639491,84.9912109 C225.472825,86.4176432 224.889491,88.3157552 224.889491,90.6855469 C224.889491,93.0826823 225.493332,94.9466146 226.701015,96.2773438 C227.908697,97.6080729 229.592616,98.2734375 231.752772,98.2734375 Z M235.580897,89.5507812 L226.393397,89.5507812 C226.539231,87.7734375 227.04509,86.4130859 227.910976,85.4697266 C228.776861,84.5263672 229.925299,84.0546875 231.356288,84.0546875 C232.677903,84.0546875 233.712408,84.5400391 234.459804,85.5107422 C235.2072,86.4814453 235.580897,87.828125 235.580897,89.5507812 L235.580897,89.5507812 Z M243.597448,98 L243.597448,89.796875 C243.597448,87.8007812 243.952917,86.3492839 244.663854,85.4423828 C245.374792,84.5354818 246.509557,84.0820312 248.068151,84.0820312 C250.365026,84.0820312 251.513464,85.3352865 251.513464,87.8417969 L251.513464,87.8417969 L251.513464,98 L252.894323,98 L252.894323,89.2910156 C252.894323,87.4954427 253.258906,86.1783854 253.988073,85.3398438 C254.71724,84.5013021 255.842891,84.0820312 257.365026,84.0820312 C258.531693,84.0820312 259.397578,84.4147135 259.962682,85.0800781 C260.527787,85.7454427 260.810339,86.8027344 260.810339,88.2519531 L260.810339,88.2519531 L260.810339,98 L262.150182,98 L262.150182,88.2792969 C262.150182,86.3925781 261.744584,85.016276 260.933386,84.1503906 C260.122188,83.2845052 258.905391,82.8515625 257.282995,82.8515625 C256.243932,82.8515625 255.316524,83.0794271 254.500768,83.5351562 C253.685013,83.9908854 253.035599,84.6425781 252.552526,85.4902344 L252.552526,85.4902344 L252.497839,85.4902344 C251.832474,83.7311198 250.328568,82.8515625 247.98612,82.8515625 C247.074662,82.8515625 246.240677,83.054362 245.484167,83.4599609 C244.727656,83.8655599 244.144323,84.4375 243.734167,85.1757812 L243.734167,85.1757812 L243.652136,85.1757812 L243.365026,83.1386719 L242.243932,83.1386719 L242.243932,98 L243.597448,98 Z M271.561264,98.2734375 C272.636785,98.2734375 273.568751,98.0751953 274.357163,97.6787109 C275.145574,97.2822266 275.913478,96.6054688 276.660874,95.6484375 L276.660874,95.6484375 L276.770249,95.6484375 L277.112046,98 L278.110092,98 L278.110092,88.1152344 C278.110092,86.3196615 277.706772,84.9980469 276.900132,84.1503906 C276.093491,83.3027344 274.874415,82.8789062 273.242905,82.8789062 C271.647853,82.8789062 270.034572,83.2617188 268.403061,84.0273438 L268.403061,84.0273438 L268.908921,85.203125 C270.385483,84.4375 271.811915,84.0546875 273.188217,84.0546875 C274.464259,84.0546875 275.389389,84.4147135 275.963608,85.1347656 C276.537827,85.8548177 276.824936,86.921224 276.824936,88.3339844 L276.824936,88.3339844 L276.824936,89.3183594 L273.994858,89.4003906 C271.707098,89.4459635 269.959376,89.8697917 268.751694,90.671875 C267.544012,91.4739583 266.940171,92.5996094 266.940171,94.0488281 C266.940171,95.3704427 267.34577,96.4049479 268.156967,97.1523438 C268.968165,97.8997396 270.102931,98.2734375 271.561264,98.2734375 Z M271.643296,97.0429688 C270.604233,97.0429688 269.799871,96.7854818 269.23021,96.2705078 C268.660548,95.7555339 268.375717,95.0332031 268.375717,94.1035156 C268.375717,92.936849 268.820053,92.0777995 269.708725,91.5263672 C270.597397,90.9749349 272.085353,90.6490885 274.172592,90.5488281 L274.172592,90.5488281 L276.770249,90.4394531 L276.770249,91.9023438 C276.770249,93.515625 276.312241,94.7757161 275.396225,95.6826172 C274.48021,96.5895182 273.229233,97.0429688 271.643296,97.0429688 Z M297.916631,98.2734375 C300.031215,98.2734375 301.65361,97.4257812 302.783819,95.7304688 L302.783819,95.7304688 L302.893194,95.7304688 L303.234991,98 L304.123662,98 L304.123662,76.7265625 L302.783819,76.7265625 L302.783819,82.0722656 C302.783819,83.1751302 302.811162,84.3007812 302.86585,85.4492188 L302.86585,85.4492188 L302.783819,85.4492188 C302.164027,84.5013021 301.462204,83.8313802 300.67835,83.4394531 C299.894496,83.047526 298.964808,82.8515625 297.889287,82.8515625 C295.838506,82.8515625 294.275355,83.530599 293.199834,84.8886719 C292.124314,86.2467448 291.586553,88.2109375 291.586553,90.78125 C291.586553,93.2239583 292.128871,95.0833333 293.213506,96.359375 C294.298142,97.6354167 295.86585,98.2734375 297.916631,98.2734375 Z M297.916631,97.0703125 C294.644496,97.0703125 293.008428,94.9648438 293.008428,90.7539062 C293.008428,88.5846354 293.416306,86.9303385 294.232061,85.7910156 C295.047816,84.6516927 296.266892,84.0820312 297.889287,84.0820312 C299.611944,84.0820312 300.858363,84.585612 301.628545,85.5927734 C302.398728,86.5999349 302.783819,88.2519531 302.783819,90.5488281 L302.783819,90.5488281 L302.783819,90.78125 C302.783819,93.0234375 302.391892,94.6321615 301.608037,95.6074219 C300.824183,96.5826823 299.593715,97.0703125 297.916631,97.0703125 Z M316.241776,98.2734375 C317.098546,98.2734375 317.882401,98.2073568 318.593338,98.0751953 C319.304276,97.9430339 320.079015,97.6946615 320.917557,97.3300781 L320.917557,97.3300781 L320.917557,96.0996094 C319.933182,96.4915365 319.119705,96.7467448 318.477127,96.8652344 C317.834549,96.983724 317.089432,97.0429688 316.241776,97.0429688 C314.50089,97.0429688 313.163325,96.5052083 312.22908,95.4296875 C311.294836,94.3541667 310.818599,92.7955729 310.800369,90.7539062 L310.800369,90.7539062 L321.505447,90.7539062 L321.505447,89.6601562 C321.505447,87.5638021 320.999588,85.9049479 319.987869,84.6835938 C318.976151,83.4622396 317.595291,82.8515625 315.845291,82.8515625 C313.867427,82.8515625 312.295161,83.5647786 311.128494,84.9912109 C309.961828,86.4176432 309.378494,88.3157552 309.378494,90.6855469 C309.378494,93.0826823 309.982336,94.9466146 311.190018,96.2773438 C312.3977,97.6080729 314.081619,98.2734375 316.241776,98.2734375 Z M320.069901,89.5507812 L310.882401,89.5507812 C311.028234,87.7734375 311.534093,86.4130859 312.399979,85.4697266 C313.265864,84.5263672 314.414302,84.0546875 315.845291,84.0546875 C317.166906,84.0546875 318.201411,84.5400391 318.948807,85.5107422 C319.696203,86.4814453 320.069901,87.828125 320.069901,89.5507812 L320.069901,89.5507812 Z M336.485814,104.726562 L336.485814,99.0664062 C336.485814,98.2643229 336.467585,97.5260417 336.431127,96.8515625 L336.431127,96.8515625 L336.390111,95.703125 L336.485814,95.703125 C337.533991,97.4166667 339.20196,98.2734375 341.489721,98.2734375 C343.403783,98.2734375 344.914525,97.601237 346.021947,96.2568359 C347.129369,94.9124349 347.68308,93.0188802 347.68308,90.5761719 C347.68308,88.0605469 347.156713,86.1442057 346.103978,84.8271484 C345.051244,83.5100911 343.522273,82.8515625 341.517064,82.8515625 C339.274877,82.8515625 337.643366,83.6536458 336.622533,85.2578125 L336.622533,85.2578125 L336.540502,85.2578125 L336.280736,83.1386719 L335.132299,83.1386719 L335.132299,104.726562 L336.485814,104.726562 Z M341.462377,97.0703125 C339.703262,97.0703125 338.434057,96.5735677 337.65476,95.5800781 C336.875463,94.5865885 336.485814,92.9277344 336.485814,90.6035156 L336.485814,90.6035156 L336.485814,90.1660156 C336.485814,88.014974 336.891413,86.4632161 337.702611,85.5107422 C338.513809,84.5582682 339.785294,84.0820312 341.517064,84.0820312 C344.67071,84.0820312 346.247533,86.264974 346.247533,90.6308594 C346.247533,92.6634115 345.830541,94.2447917 344.996557,95.375 C344.162572,96.5052083 342.984512,97.0703125 341.462377,97.0703125 Z M356.396896,98.2734375 C357.472417,98.2734375 358.404383,98.0751953 359.192795,97.6787109 C359.981206,97.2822266 360.74911,96.6054688 361.496506,95.6484375 L361.496506,95.6484375 L361.605881,95.6484375 L361.947678,98 L362.945724,98 L362.945724,88.1152344 C362.945724,86.3196615 362.542404,84.9980469 361.735763,84.1503906 C360.929123,83.3027344 359.710047,82.8789062 358.078537,82.8789062 C356.483485,82.8789062 354.870204,83.2617188 353.238693,84.0273438 L353.238693,84.0273438 L353.744553,85.203125 C355.221115,84.4375 356.647547,84.0546875 358.023849,84.0546875 C359.299891,84.0546875 360.225021,84.4147135 360.79924,85.1347656 C361.373459,85.8548177 361.660568,86.921224 361.660568,88.3339844 L361.660568,88.3339844 L361.660568,89.3183594 L358.83049,89.4003906 C356.54273,89.4459635 354.795008,89.8697917 353.587326,90.671875 C352.379644,91.4739583 351.775803,92.5996094 351.775803,94.0488281 C351.775803,95.3704427 352.181401,96.4049479 352.992599,97.1523438 C353.803797,97.8997396 354.938563,98.2734375 356.396896,98.2734375 Z M356.478928,97.0429688 C355.439865,97.0429688 354.635503,96.7854818 354.065842,96.2705078 C353.49618,95.7555339 353.211349,95.0332031 353.211349,94.1035156 C353.211349,92.936849 353.655685,92.0777995 354.544357,91.5263672 C355.433029,90.9749349 356.920985,90.6490885 359.008224,90.5488281 L359.008224,90.5488281 L361.605881,90.4394531 L361.605881,91.9023438 C361.605881,93.515625 361.147873,94.7757161 360.231857,95.6826172 C359.315842,96.5895182 358.064865,97.0429688 356.478928,97.0429688 Z M372.890009,104.726562 C375.241572,104.726562 377.053095,104.300456 378.32458,103.448242 C379.596064,102.596029 380.231806,101.386068 380.231806,99.8183594 C380.231806,98.5423177 379.803421,97.5784505 378.94665,96.9267578 C378.089879,96.2750651 376.854853,95.9492188 375.241572,95.9492188 L375.241572,95.9492188 L372.643916,95.9492188 C371.796259,95.9492188 371.192418,95.8398438 370.832392,95.6210938 C370.472366,95.4023438 370.292353,95.0559896 370.292353,94.5820312 C370.292353,94.1536458 370.433629,93.7480469 370.716181,93.3652344 C370.998733,92.9824219 371.40889,92.6497396 371.94665,92.3671875 C372.220088,92.421875 372.694046,92.4492188 373.368525,92.4492188 C374.972692,92.4492188 376.251012,92.0048828 377.203486,91.1162109 C378.15596,90.2275391 378.632197,89.0677083 378.632197,87.6367188 C378.632197,86.4153646 378.222041,85.2942708 377.401728,84.2734375 L377.401728,84.2734375 L380.4779,84.0820312 L380.4779,83.1386719 L375.720088,83.1386719 C375.182327,82.9472656 374.425817,82.8515625 373.450556,82.8515625 C371.84639,82.8515625 370.572627,83.3004557 369.629267,84.1982422 C368.685908,85.0960286 368.214228,86.2877604 368.214228,87.7734375 C368.214228,88.7578125 368.455765,89.6305339 368.938838,90.3916016 C369.42191,91.1526693 370.09639,91.7109375 370.962275,92.0664062 C369.695348,92.8229167 369.061884,93.6979167 369.061884,94.6914062 C369.061884,95.1471354 369.196324,95.5504557 369.465205,95.9013672 C369.734085,96.2522786 370.091832,96.5234375 370.538447,96.7148438 C369.453811,96.9609375 368.594762,97.421224 367.961298,98.0957031 C367.327835,98.7701823 367.011103,99.6178385 367.011103,100.638672 C367.011103,101.923828 367.523798,102.926432 368.549189,103.646484 C369.57458,104.366536 371.02152,104.726562 372.890009,104.726562 Z M373.423213,91.3964844 C372.256546,91.3964844 371.32458,91.0797526 370.627314,90.4462891 C369.930048,89.8128255 369.581416,88.921875 369.581416,87.7734375 C369.581416,86.5611979 369.920934,85.6155599 370.59997,84.9365234 C371.279007,84.257487 372.210973,83.9179688 373.395869,83.9179688 C374.617223,83.9179688 375.567418,84.2347005 376.246455,84.8681641 C376.925491,85.5016276 377.265009,86.4518229 377.265009,87.71875 C377.265009,88.9127604 376.934606,89.8242188 376.273798,90.453125 C375.612991,91.0820312 374.662796,91.3964844 373.423213,91.3964844 Z M372.999384,103.578125 C369.964228,103.578125 368.44665,102.557292 368.44665,100.515625 C368.44665,98.3736979 369.80928,97.3027344 372.534541,97.3027344 L372.534541,97.3027344 L374.968134,97.3027344 C376.335322,97.3027344 377.324254,97.5032552 377.934931,97.9042969 C378.545608,98.3053385 378.850947,98.952474 378.850947,99.8457031 C378.850947,102.333984 376.900426,103.578125 372.999384,103.578125 Z M388.12531,98.2734375 C389.200831,98.2734375 390.132797,98.0751953 390.921208,97.6787109 C391.70962,97.2822266 392.477524,96.6054688 393.224919,95.6484375 L393.224919,95.6484375 L393.334294,95.6484375 L393.676091,98 L394.674138,98 L394.674138,88.1152344 C394.674138,86.3196615 394.270818,84.9980469 393.464177,84.1503906 C392.657537,83.3027344 391.438461,82.8789062 389.806951,82.8789062 C388.211899,82.8789062 386.598617,83.2617188 384.967107,84.0273438 L384.967107,84.0273438 L385.472966,85.203125 C386.949529,84.4375 388.375961,84.0546875 389.752263,84.0546875 C391.028305,84.0546875 391.953435,84.4147135 392.527654,85.1347656 C393.101873,85.8548177 393.388982,86.921224 393.388982,88.3339844 L393.388982,88.3339844 L393.388982,89.3183594 L390.558904,89.4003906 C388.271143,89.4459635 386.523422,89.8697917 385.31574,90.671875 C384.108057,91.4739583 383.504216,92.5996094 383.504216,94.0488281 C383.504216,95.3704427 383.909815,96.4049479 384.721013,97.1523438 C385.532211,97.8997396 386.666977,98.2734375 388.12531,98.2734375 Z M388.207341,97.0429688 C387.168279,97.0429688 386.363917,96.7854818 385.794255,96.2705078 C385.224594,95.7555339 384.939763,95.0332031 384.939763,94.1035156 C384.939763,92.936849 385.384099,92.0777995 386.272771,91.5263672 C387.161443,90.9749349 388.649399,90.6490885 390.736638,90.5488281 L390.736638,90.5488281 L393.334294,90.4394531 L393.334294,91.9023438 C393.334294,93.515625 392.876287,94.7757161 391.960271,95.6826172 C391.044255,96.5895182 389.793279,97.0429688 388.207341,97.0429688 Z M401.966079,98 L401.966079,89.796875 C401.966079,87.8007812 402.321548,86.3492839 403.032486,85.4423828 C403.743423,84.5354818 404.878189,84.0820312 406.436783,84.0820312 C408.733658,84.0820312 409.882095,85.3352865 409.882095,87.8417969 L409.882095,87.8417969 L409.882095,98 L411.262954,98 L411.262954,89.2910156 C411.262954,87.4954427 411.627538,86.1783854 412.356704,85.3398438 C413.085871,84.5013021 414.211522,84.0820312 415.733658,84.0820312 C416.900324,84.0820312 417.76621,84.4147135 418.331314,85.0800781 C418.896418,85.7454427 419.17897,86.8027344 419.17897,88.2519531 L419.17897,88.2519531 L419.17897,98 L420.518814,98 L420.518814,88.2792969 C420.518814,86.3925781 420.113215,85.016276 419.302017,84.1503906 C418.490819,83.2845052 417.274022,82.8515625 415.651626,82.8515625 C414.612564,82.8515625 413.685155,83.0794271 412.8694,83.5351562 C412.053645,83.9908854 411.40423,84.6425781 410.921158,85.4902344 L410.921158,85.4902344 L410.86647,85.4902344 C410.201105,83.7311198 408.697199,82.8515625 406.354751,82.8515625 C405.443293,82.8515625 404.609309,83.054362 403.852798,83.4599609 C403.096288,83.8655599 402.512954,84.4375 402.102798,85.1757812 L402.102798,85.1757812 L402.020767,85.1757812 L401.733658,83.1386719 L400.612564,83.1386719 L400.612564,98 L401.966079,98 Z M432.459193,98.2734375 C433.315963,98.2734375 434.099818,98.2073568 434.810755,98.0751953 C435.521693,97.9430339 436.296432,97.6946615 437.134974,97.3300781 L437.134974,97.3300781 L437.134974,96.0996094 C436.150599,96.4915365 435.337122,96.7467448 434.694544,96.8652344 C434.051966,96.983724 433.306849,97.0429688 432.459193,97.0429688 C430.718307,97.0429688 429.380742,96.5052083 428.446497,95.4296875 C427.512252,94.3541667 427.036015,92.7955729 427.017786,90.7539062 L427.017786,90.7539062 L437.722864,90.7539062 L437.722864,89.6601562 C437.722864,87.5638021 437.217005,85.9049479 436.205286,84.6835938 C435.193568,83.4622396 433.812708,82.8515625 432.062708,82.8515625 C430.084844,82.8515625 428.512578,83.5647786 427.345911,84.9912109 C426.179245,86.4176432 425.595911,88.3157552 425.595911,90.6855469 C425.595911,93.0826823 426.199752,94.9466146 427.407435,96.2773438 C428.615117,97.6080729 430.299036,98.2734375 432.459193,98.2734375 Z M436.287318,89.5507812 L427.099818,89.5507812 C427.245651,87.7734375 427.75151,86.4130859 428.617396,85.4697266 C429.483281,84.5263672 430.631719,84.0546875 432.062708,84.0546875 C433.384323,84.0546875 434.418828,84.5400391 435.166224,85.5107422 C435.91362,86.4814453 436.287318,87.828125 436.287318,89.5507812 L436.287318,89.5507812 Z M444.303868,98 L444.303868,89.796875 C444.303868,87.7825521 444.716303,86.3264974 445.541173,85.4287109 C446.366043,84.5309245 447.667149,84.0820312 449.444493,84.0820312 C450.766108,84.0820312 451.741368,84.4215495 452.370274,85.1005859 C452.999181,85.7796224 453.313634,86.8665365 453.313634,88.3613281 L453.313634,88.3613281 L453.313634,98 L454.653478,98 L454.653478,88.2792969 C454.653478,84.6608073 452.96728,82.8515625 449.594884,82.8515625 C447.124832,82.8515625 445.406733,83.6263021 444.440587,85.1757812 L444.440587,85.1757812 L444.358556,85.1757812 L444.09879,83.1386719 L442.950353,83.1386719 L442.950353,98 L444.303868,98 Z M464.488388,98.2734375 C465.345158,98.2734375 466.101669,98.1640625 466.757919,97.9453125 L466.757919,97.9453125 L466.757919,96.8515625 C466.119898,96.9973958 465.372502,97.0703125 464.515731,97.0703125 C463.65896,97.0703125 463.030054,96.796875 462.629013,96.25 C462.227971,95.703125 462.02745,94.860026 462.02745,93.7207031 L462.02745,93.7207031 L462.02745,84.3144531 L466.388778,84.3144531 L466.388778,83.1386719 L462.02745,83.1386719 L462.02745,79.5429688 L461.330184,79.5429688 L460.646591,82.90625 L458.445419,83.5214844 L458.445419,84.3144531 L460.646591,84.3144531 L460.646591,93.9121094 C460.646591,95.4160156 460.958765,96.5188802 461.583114,97.2207031 C462.207463,97.922526 463.175888,98.2734375 464.488388,98.2734375 Z M476.756891,98.2734375 C478.825902,98.2734375 480.448298,97.5921224 481.624079,96.2294922 C482.79986,94.866862 483.387751,92.9733073 483.387751,90.5488281 C483.387751,88.1608073 482.806696,86.2809245 481.644587,84.9091797 C480.482477,83.5374349 478.880589,82.8515625 476.838923,82.8515625 C474.788141,82.8515625 473.17486,83.5283203 471.999079,84.8818359 C470.823298,86.2353516 470.235407,88.124349 470.235407,90.5488281 C470.235407,92.0891927 470.49973,93.4472656 471.028376,94.6230469 C471.557021,95.7988281 472.318089,96.7011719 473.311579,97.3300781 C474.305068,97.9589844 475.453506,98.2734375 476.756891,98.2734375 Z M476.811579,97.0429688 C475.170954,97.0429688 473.901748,96.4710286 473.003962,95.3271484 C472.106175,94.1832682 471.657282,92.5904948 471.657282,90.5488281 C471.657282,88.4889323 472.101618,86.8961589 472.99029,85.7705078 C473.878962,84.6448568 475.14361,84.0820312 476.784235,84.0820312 C478.42486,84.0820312 479.698623,84.6471354 480.605524,85.7773438 C481.512425,86.9075521 481.965876,88.4980469 481.965876,90.5488281 C481.965876,92.5904948 481.516982,94.1832682 480.619196,95.3271484 C479.72141,96.4710286 478.452204,97.0429688 476.811579,97.0429688 Z M501.936477,98.2734375 C504.406529,98.2734375 506.124628,97.4986979 507.090774,95.9492188 L507.090774,95.9492188 L507.172805,95.9492188 L507.418899,98 L508.567336,98 L508.567336,83.1386719 L507.227493,83.1386719 L507.227493,91.3417969 C507.227493,93.3561198 506.8105,94.8098958 505.976516,95.703125 C505.142532,96.5963542 503.841425,97.0429688 502.073196,97.0429688 C500.751581,97.0429688 499.776321,96.7034505 499.147414,96.0244141 C498.518508,95.3453776 498.204055,94.2584635 498.204055,92.7636719 L498.204055,92.7636719 L498.204055,83.1386719 L496.864211,83.1386719 L496.864211,92.8457031 C496.864211,96.4641927 498.554967,98.2734375 501.936477,98.2734375 Z M516.02334,98 L516.02334,89.796875 C516.02334,87.7825521 516.435775,86.3264974 517.260645,85.4287109 C518.085515,84.5309245 519.386621,84.0820312 521.163965,84.0820312 C522.48558,84.0820312 523.46084,84.4215495 524.089746,85.1005859 C524.718653,85.7796224 525.033106,86.8665365 525.033106,88.3613281 L525.033106,88.3613281 L525.033106,98 L526.372949,98 L526.372949,88.2792969 C526.372949,84.6608073 524.686752,82.8515625 521.314356,82.8515625 C518.844304,82.8515625 517.126205,83.6263021 516.160059,85.1757812 L516.160059,85.1757812 L516.078028,85.1757812 L515.818262,83.1386719 L514.669824,83.1386719 L514.669824,98 L516.02334,98 Z M532.981297,80.3359375 C533.263849,80.3359375 533.484878,80.2174479 533.644383,79.9804688 C533.803888,79.7434896 533.883641,79.4199219 533.883641,79.0097656 C533.883641,78.5904948 533.803888,78.2669271 533.644383,78.0390625 C533.484878,77.8111979 533.263849,77.6972656 532.981297,77.6972656 C532.407078,77.6972656 532.119969,78.1347656 532.119969,79.0097656 C532.119969,79.8938802 532.407078,80.3359375 532.981297,80.3359375 Z M533.664891,98 L533.664891,83.1386719 L532.311375,83.1386719 L532.311375,98 L533.664891,98 Z M544.388473,98 L550.13066,83.1386719 L548.736129,83.1386719 L544.894332,93.2148438 C544.502405,94.2539062 544.119592,95.3932292 543.745894,96.6328125 L543.745894,96.6328125 L543.663863,96.6328125 C543.408655,95.6666667 543.025842,94.5364583 542.515426,93.2421875 L542.515426,93.2421875 L538.673629,83.1386719 L537.279098,83.1386719 L543.021285,98 L544.388473,98 Z M559.74682,98.2734375 C560.603591,98.2734375 561.387445,98.2073568 562.098383,98.0751953 C562.80932,97.9430339 563.58406,97.6946615 564.422601,97.3300781 L564.422601,97.3300781 L564.422601,96.0996094 C563.438226,96.4915365 562.62475,96.7467448 561.982172,96.8652344 C561.339594,96.983724 560.594476,97.0429688 559.74682,97.0429688 C558.005935,97.0429688 556.66837,96.5052083 555.734125,95.4296875 C554.79988,94.3541667 554.323643,92.7955729 554.305414,90.7539062 L554.305414,90.7539062 L565.010492,90.7539062 L565.010492,89.6601562 C565.010492,87.5638021 564.504633,85.9049479 563.492914,84.6835938 C562.481195,83.4622396 561.100336,82.8515625 559.350336,82.8515625 C557.372471,82.8515625 555.800205,83.5647786 554.633539,84.9912109 C553.466872,86.4176432 552.883539,88.3157552 552.883539,90.6855469 C552.883539,93.0826823 553.48738,94.9466146 554.695062,96.2773438 C555.902745,97.6080729 557.586664,98.2734375 559.74682,98.2734375 Z M563.574945,89.5507812 L554.387445,89.5507812 C554.533278,87.7734375 555.039138,86.4130859 555.905023,85.4697266 C556.770909,84.5263672 557.919346,84.0546875 559.350336,84.0546875 C560.67195,84.0546875 561.706455,84.5400391 562.453851,85.5107422 C563.201247,86.4814453 563.574945,87.828125 563.574945,89.5507812 L563.574945,89.5507812 Z M571.591496,98 L571.591496,89.796875 C571.591496,88.15625 571.997095,86.7981771 572.808293,85.7226562 C573.61949,84.6471354 574.658553,84.109375 575.92548,84.109375 C576.590845,84.109375 577.233423,84.186849 577.853214,84.3417969 L577.853214,84.3417969 L578.11298,83.0429688 C577.392928,82.9153646 576.718449,82.8515625 576.089543,82.8515625 C575.105168,82.8515625 574.266626,83.0725911 573.573918,83.5146484 C572.881209,83.9567057 572.229517,84.7246094 571.618839,85.8183594 L571.618839,85.8183594 L571.523136,85.8183594 L571.386418,83.1386719 L570.23798,83.1386719 L570.23798,98 L571.591496,98 Z M585.651015,98.2734375 C587.51039,98.2734375 588.945937,97.9156901 589.957656,97.2001953 C590.969374,96.4847005 591.475234,95.4615885 591.475234,94.1308594 C591.475234,93.4654948 591.322565,92.8867188 591.017226,92.3945312 C590.711887,91.9023438 590.25388,91.4625651 589.643203,91.0751953 C589.032525,90.6878255 588.057265,90.2526042 586.717421,89.7695312 C585.113255,89.1953125 584.035455,88.6757812 583.484023,88.2109375 C582.932591,87.7460938 582.656874,87.1263021 582.656874,86.3515625 C582.656874,85.640625 583.012343,85.0846354 583.723281,84.6835938 C584.434218,84.2825521 585.395807,84.0820312 586.608046,84.0820312 C587.856744,84.0820312 589.21026,84.3828125 590.668593,84.984375 L590.668593,84.984375 L591.174453,83.7539062 C589.734348,83.1523438 588.212213,82.8515625 586.608046,82.8515625 C584.930963,82.8515625 583.625299,83.1751302 582.691054,83.8222656 C581.756809,84.469401 581.289687,85.3489583 581.289687,86.4609375 C581.289687,87.1627604 581.442356,87.757487 581.747695,88.2451172 C582.053033,88.7327474 582.506484,89.1702474 583.108046,89.5576172 C583.709609,89.944987 584.753229,90.4075521 586.238906,90.9453125 C587.624322,91.4375 588.620091,91.9388021 589.22621,92.4492188 C589.83233,92.9596354 590.13539,93.5885417 590.13539,94.3359375 C590.13539,95.1471354 589.754856,95.7965495 588.993789,96.2841797 C588.232721,96.7718099 587.118463,97.015625 585.651015,97.015625 C583.992161,97.015625 582.415338,96.6419271 580.920546,95.8945312 L580.920546,95.8945312 L580.920546,97.3574219 C582.087213,97.968099 583.664036,98.2734375 585.651015,98.2734375 Z M599.901941,98.2734375 C600.977462,98.2734375 601.909428,98.0751953 602.697839,97.6787109 C603.486251,97.2822266 604.254154,96.6054688 605.00155,95.6484375 L605.00155,95.6484375 L605.110925,95.6484375 L605.452722,98 L606.450769,98 L606.450769,88.1152344 C606.450769,86.3196615 606.047449,84.9980469 605.240808,84.1503906 C604.434167,83.3027344 603.215092,82.8789062 601.583581,82.8789062 C599.988529,82.8789062 598.375248,83.2617188 596.743738,84.0273438 L596.743738,84.0273438 L597.249597,85.203125 C598.726159,84.4375 600.152592,84.0546875 601.528894,84.0546875 C602.804935,84.0546875 603.730066,84.4147135 604.304284,85.1347656 C604.878503,85.8548177 605.165613,86.921224 605.165613,88.3339844 L605.165613,88.3339844 L605.165613,89.3183594 L602.335534,89.4003906 C600.047774,89.4459635 598.300053,89.8697917 597.09237,90.671875 C595.884688,91.4739583 595.280847,92.5996094 595.280847,94.0488281 C595.280847,95.3704427 595.686446,96.4049479 596.497644,97.1523438 C597.308842,97.8997396 598.443607,98.2734375 599.901941,98.2734375 Z M599.983972,97.0429688 C598.944909,97.0429688 598.140547,96.7854818 597.570886,96.2705078 C597.001225,95.7555339 596.716394,95.0332031 596.716394,94.1035156 C596.716394,92.936849 597.16073,92.0777995 598.049402,91.5263672 C598.938074,90.9749349 600.426029,90.6490885 602.513269,90.5488281 L602.513269,90.5488281 L605.110925,90.4394531 L605.110925,91.9023438 C605.110925,93.515625 604.652917,94.7757161 603.736902,95.6826172 C602.820886,96.5895182 601.569909,97.0429688 599.983972,97.0429688 Z M613.74271,98 L613.74271,76.7265625 L612.389194,76.7265625 L612.389194,98 L613.74271,98 Z" id="omelhorsistemadepagamentouniversal" fill-rule="nonzero"></path>
            </g>
        </g>
    </g>
</svg>