<?xml version="1.0" encoding="UTF-8"?>
<svg width="655px" height="107px" viewBox="0 0 655 107" version="1.1" xmlns="http://www.w3.org/2000/svg" xmlns:xlink="http://www.w3.org/1999/xlink">
    <title>eng</title>
    <g id="Events-to-Guru" stroke="none" stroke-width="1" fill="none" fill-rule="evenodd">
        <g id="eng-copy" transform="translate(-253.000000, -72.000000)" fill="#006CB4">
            <g id="eng" transform="translate(253.500000, 72.500000)">
                <g id="Group-4">
                    <g id="Group-3" transform="translate(64.000000, 0.000000)" fill-rule="nonzero">
                        <path d="M269.095,15.764 L276.644503,37.6553846 L277.5,40.5 L278.45029,37.6553846 L285.173,15.764 L289.323,15.764 L279.129062,44.1699062 L278.945444,44.6740006 L278.756,45.1760631 C277.421442,48.6495176 275.90969,51.2622681 274.239926,53.011271 L274.000316,53.2552524 L273.766175,53.4792819 L273.499276,53.7170128 C272.056831,54.9535005 270.310124,55.6874318 268.234816,55.9195042 L267.841839,55.9571368 L267.742,55.963 L267.742,53.061 L267.809797,53.0530163 L268.076126,53.01359 C271.42409,52.458952 273.890886,49.7950781 275.469532,45.1943101 L275.595584,44.8170338 L275.704705,44.4815829 L264.772,15.764 L269.095,15.764 Z M444.733673,14.7528205 L445.234385,14.7590832 L445.765673,14.7795723 C448.073448,14.8998631 450.299253,15.4259166 452.448325,16.3595739 L452.907668,16.5658829 L453.287,16.747 L453.287,19.105 L453.226508,19.0705403 L452.793798,18.8382802 C450.339585,17.55955 447.848214,16.9169231 445.323418,16.9169231 C443.619054,16.9169231 442.183672,17.2562654 441.031278,17.9537129 C439.736394,18.7373976 439.074689,20.0189157 439.074689,21.6646154 C439.074689,23.2316915 439.78436,24.5202048 441.134983,25.4367049 C442.235493,26.1834841 443.867427,26.9137162 446.045859,27.644839 L446.802234,27.8966723 L448.405148,28.4454671 L449.206232,28.7294853 L449.559545,28.8610535 L449.759425,28.9415252 L449.759425,28.9415252 L449.972235,29.0315214 L450.436404,29.2400378 L450.687646,29.3585333 L451.228147,29.6239372 C451.416723,29.7187108 451.613681,29.8197847 451.818944,29.9271423 C452.79173,30.4359354 453.502419,30.9315471 453.948033,31.3976828 C454.399177,31.8696028 454.822833,32.5149729 455.212168,33.3361142 C455.579521,34.1108934 455.764466,34.9758208 455.764466,35.9415385 C455.764466,38.3626144 454.822242,40.2463211 452.893869,41.6832696 C450.986581,43.1045064 448.423283,43.8570693 445.180136,43.9198229 L444.733673,43.9241026 L444.248849,43.9198094 L443.721386,43.90508 C440.757389,43.7919256 438.217463,43.1742237 436.091967,42.059183 L435.72118,41.8572499 L435.531,41.746 L435.531,39.371 L435.789894,39.5063466 L436.251597,39.7367551 C439.012315,41.0821329 441.602129,41.76 444.025979,41.76 C448.836996,41.76 451.513172,39.9930928 451.513172,36.4769231 C451.513172,35.7577744 451.345082,35.0795721 451.010846,34.4571563 C450.70223,33.8824497 450.336368,33.4026947 449.910058,33.0232682 C449.498726,32.6571732 448.891558,32.2785697 448.073738,31.866105 L447.785524,31.7227214 L447.785524,31.7227214 L447.508094,31.5887485 L446.985294,31.349 C446.734507,31.2385162 446.499568,31.1421093 446.280147,31.0597404 L443.657211,30.1227766 L442.893586,29.8373623 L442.184803,29.5650156 L441.225168,29.1813176 L440.654911,28.9422804 L440.390754,28.8278452 L439.904586,28.6092331 C439.023825,28.2020419 438.137734,27.6713512 437.24667,27.0159688 C436.436952,26.4204163 435.860012,25.7303835 435.500485,24.9391401 C435.130799,24.1255412 434.941343,23.1352808 434.941343,21.9620513 C434.941343,20.4850595 435.281656,19.2492827 435.955089,18.2303516 C436.632083,17.2060319 437.496783,16.4847751 438.566686,16.0463484 C439.766125,15.5548404 440.852964,15.2175211 441.824476,15.0326232 C442.64182,14.8770667 443.4513,14.7864636 444.253339,14.7605836 L444.733673,14.7528205 Z M494.844536,14.7528205 C498.212482,14.7528205 500.79419,15.7859415 502.664011,17.8535606 L502.868843,18.0875533 L503.063287,18.324954 L503.251049,18.5704021 C504.84933,20.7325139 505.693556,23.8021794 505.753898,27.8020405 L505.75738,28.2676923 L505.757,29.468 L486.523335,29.4687179 L486.535227,30.8961239 L486.545897,31.3169073 C486.659425,34.6501003 487.449622,37.1893049 488.960568,38.9193431 C490.563645,40.7548724 492.975368,41.6894427 496.128689,41.7561523 L496.495821,41.76 L496.876142,41.7543379 L497.304475,41.7346178 C499.45477,41.6007023 501.734535,40.9372541 504.145014,39.7529717 L504.628853,39.5091733 L504.872,39.38 L504.872,41.601 L504.517518,41.7900995 C501.761272,43.2112545 498.735034,43.9241026 495.434281,43.9241026 C490.914718,43.9241026 487.671429,42.6665403 485.6193,40.1825763 C483.521589,37.6434398 482.45733,34.0401742 482.45733,29.3384615 C482.45733,24.8754874 483.548599,21.3306792 485.712983,18.6664348 C487.833759,16.0558688 490.848001,14.7528205 494.844536,14.7528205 Z M381.943297,14.7528205 C385.532629,14.7528205 387.984261,15.4391725 389.327504,16.7317594 L389.472194,16.8778709 L389.635915,17.0592145 L389.792888,17.2488906 C390.865602,18.6027553 391.443206,20.5676791 391.495783,23.1726548 L391.499728,23.5682051 L391.499,43.21 L387.785,43.21 L387.262666,38.8477629 L385.494347,40.2736799 L385.138346,40.5501688 C382.173098,42.8085178 379.243286,43.9241026 376.340721,43.9241026 C373.755947,43.9241026 371.816868,43.2487346 370.466143,41.9207596 C369.108367,40.5858519 368.435575,38.9107273 368.435575,36.8338462 C368.435575,35.7313521 368.637486,34.6776028 369.042249,33.6657745 C369.443012,32.6639436 370.116619,31.6715703 371.07152,30.6901937 C371.98361,29.7528205 373.413363,28.9686293 375.369821,28.35999 C377.235803,27.7794971 379.475035,27.4668823 382.085845,27.4277803 L382.650991,27.4235897 L387.307408,27.4235897 L387.307408,24.8174359 L387.304588,24.4674838 L387.295274,24.1019271 C387.207662,21.5768685 386.64813,19.762486 385.536059,18.6631817 C384.391232,17.5314981 382.616424,16.9714943 380.24014,16.9207267 L379.87919,16.9169231 L379.552107,16.9215987 L379.205208,16.9364799 C376.88149,17.0693871 374.22166,17.8793552 371.214767,19.355283 L370.737108,19.5938569 L370.44,19.746 L370.44,17.316 L370.991147,17.0806579 C374.71238,15.5277573 378.363497,14.7528205 381.943297,14.7528205 Z M181.078301,14.7528205 C184.855948,14.7528205 187.840149,15.9805229 190.101892,18.4444416 C192.372485,20.9180004 193.524482,24.5341816 193.524482,29.3384615 C193.524482,34.1051773 192.381174,37.7137262 190.126213,40.2084101 C187.920034,42.689089 184.931132,43.9241026 181.078301,43.9241026 C177.22437,43.9241026 174.224351,42.6882179 172.003596,40.2114024 C169.766643,37.7165206 168.63212,34.106589 168.63212,29.3384615 C168.63212,24.5341816 169.784117,20.9180004 172.05471,18.4444416 C174.316453,15.9805229 177.300654,14.7528205 181.078301,14.7528205 Z M89.982,0.271 L89.9827422,17.6104868 L91.9002111,16.6009303 L92.3513834,16.376804 C94.6036477,15.2924894 96.8019152,14.7528205 98.9442966,14.7528205 C102.302949,14.7528205 104.798318,15.8695455 106.526755,18.1111404 C108.301011,20.4121588 109.208422,23.8305232 109.208422,28.3866667 C109.208422,33.5974768 108.057975,37.4812355 105.798253,40.0730963 C103.56006,42.6402644 100.436801,43.9241026 96.3494196,43.9241026 C94.9133616,43.9241026 93.2552318,43.7161249 91.3781662,43.2974453 L90.8608134,43.1780339 L90.2992131,43.0380961 L89.7492899,42.888866 C88.6611159,42.5811195 87.6429603,42.2176738 86.6945554,41.7988598 L86.2261643,41.5848403 L85.849,41.4 L85.849,1.274 L89.982,0.271 Z M65.6324382,14.7528205 C69.0003838,14.7528205 71.582092,15.7859415 73.4519127,17.8535606 L73.6567448,18.0875533 L73.8511892,18.324954 L74.038951,18.5704021 C75.6372326,20.7325139 76.4814577,23.8021794 76.5418004,27.8020405 L76.5452826,28.2676923 L76.545,29.468 L57.3112373,29.4687179 L57.323129,30.8961239 L57.3337989,31.3169073 C57.447327,34.6501003 58.2375243,37.1893049 59.74847,38.9193431 C61.3515474,40.7548724 63.7632701,41.6894427 66.9165915,41.7561523 L67.2837235,41.76 L67.6640441,41.7543379 L68.0923771,41.7346178 C70.2426716,41.6007023 72.522437,40.9372541 74.932916,39.7529717 L75.416755,39.5091733 L75.66,39.38 L75.66,41.601 L75.3054203,41.7900995 C72.5491744,43.2112545 69.5229356,43.9241026 66.2221829,43.9241026 C61.7026198,43.9241026 58.4593312,42.6665403 56.4072017,40.1825763 C54.3094913,37.6434398 53.2452318,34.0401742 53.2452318,29.3384615 C53.2452318,24.8754874 54.336501,21.3306792 56.5008848,18.6664348 C58.6216614,16.0558688 61.6359028,14.7528205 65.6324382,14.7528205 Z M247.643044,14.7528205 C251.010989,14.7528205 253.592697,15.7859415 255.462518,17.8535606 L255.66735,18.0875533 L255.861795,18.324954 L256.049556,18.5704021 C257.647838,20.7325139 258.492063,23.8021794 258.552406,27.8020405 L258.555888,28.2676923 L258.555,29.468 L239.321843,29.4687179 L239.333734,30.8961239 L239.344404,31.3169073 C239.457932,34.6501003 240.24813,37.1893049 241.759075,38.9193431 C243.362153,40.7548724 245.773876,41.6894427 248.927197,41.7561523 L249.294329,41.76 L249.67465,41.7543379 L250.102983,41.7346178 C252.253277,41.6007023 254.533042,40.9372541 256.943521,39.7529717 L257.42736,39.5091733 L257.671,39.38 L257.671,41.6 L257.316026,41.7900995 C254.55978,43.2112545 251.533541,43.9241026 248.232788,43.9241026 C243.713225,43.9241026 240.469937,42.6665403 238.417807,40.1825763 C236.320097,37.6434398 235.255837,34.0401742 235.255837,29.3384615 C235.255837,24.8754874 236.347106,21.3306792 238.51149,18.6664348 C240.632267,16.0558688 243.646508,14.7528205 247.643044,14.7528205 Z M478.637,0.016 L478.637,2.069 L478.277207,2.09053941 C472.123046,2.51453098 468.846241,5.89846403 468.73316,11.9958862 L468.73013,12.3251282 L468.73013,16.1805128 L477.764,16.18 L476.978,18.463 L468.73013,18.4635897 L468.73,43.21 L464.596,43.21 L464.596784,12.5630769 L464.600801,12.1435147 L464.612562,11.7375461 C464.769493,7.71601942 466.105773,4.83834009 468.607505,3.02143361 C470.972394,1.30391088 473.999235,0.313473428 477.704598,0.0633290957 L478.191756,0.0349009194 L478.637,0.016 Z M416.729517,14.7528205 C419.864825,14.7528205 422.070455,15.3476148 423.370596,16.4737963 L423.5284,16.617332 L423.690677,16.780178 L423.846017,16.9519749 C424.858435,18.1271847 425.406645,19.900947 425.45656,22.3098015 L425.460306,22.6758974 L425.46,43.21 L421.326,43.21 L421.32696,24.0441026 L421.323514,23.7117406 L421.313212,23.3910365 C421.222177,21.2826252 420.682659,19.7670333 419.610702,18.8738056 C418.505005,17.9524625 416.964465,17.5117949 415.019257,17.5117949 C412.614945,17.5117949 410.188842,18.1941605 407.749575,19.5451029 L407.318982,19.790442 L406.824371,20.0801319 L406.824,43.21 L402.691,43.21 L402.691,18.722 L403.206912,18.4273445 C407.573717,15.9758871 412.078756,14.7528205 416.729517,14.7528205 Z M125.089,3.033 L138.300488,36.2871795 L139,39 L139.964189,36.2871795 L152.584,3.033 L158.207,3.033 L158.207,43.21 L153.838,43.21 L154,6 L151.62632,12.6338462 L139.595,43.21 L137.177,43.21 L125.146755,13.3476923 L123,7 L122.940754,13.3476923 L122.94,43.21 L119.633,43.21 L119.633,3.033 L125.089,3.033 Z M335.786,3.033 L335.786,5.911 L323.519598,5.91179487 L323.519,43.21 L319.15,43.21 L319.150355,5.91179487 L306.883,5.911 L306.883,3.033 L335.786,3.033 Z M4.793,3.033 L11.3983878,34.5025641 L12.5,39 L13.4087253,34.5025641 L21.075,3.033 L24.765,3.033 L32.9630904,34.5025641 L34,39 L34.9757399,34.5025641 L40.991,3.033 L45.811,3.033 L36.711,43.21 L31.906,43.21 L23.8862251,13.5261538 L23,8 L21.9361735,13.5261538 L14.151,43.21 L9.353,43.21 L0.252,3.033 L4.793,3.033 Z M356.887865,14.7528205 C358.988677,14.7528205 360.565019,15.1656933 361.641036,15.9578402 L361.825732,16.1015611 L361.960371,16.2194184 L362.089199,16.3467864 C362.884406,17.1813308 363.329275,18.5872421 363.373901,20.6082345 L363.377624,20.9507692 L363.377,23.034 L359.716,23.996 L359.716074,23.0328205 L359.712865,22.7513316 L359.702942,22.4760499 C359.54822,19.3037562 358.031717,17.5117949 355.295554,17.5117949 C353.150355,17.5117949 350.890937,18.2677223 348.517764,19.7546654 L348.142107,19.9955172 L347.690413,20.2916706 L347.69,43.21 L343.557,43.21 L343.557,19.012 L343.652539,18.9543788 L344.269688,18.5949532 C346.134184,17.537287 348.115912,16.6652543 350.209438,15.9825157 C352.730073,15.1604887 354.957623,14.7528205 356.887865,14.7528205 Z M217.102986,14.7528205 C220.238294,14.7528205 222.443923,15.3476148 223.744065,16.4737963 L223.901868,16.617332 L224.064145,16.780178 L224.219485,16.9519749 C225.231903,18.1271847 225.780114,19.900947 225.830029,22.3098015 L225.833774,22.6758974 L225.833,43.21 L221.7,43.21 L221.700429,24.0441026 L221.696982,23.7117406 L221.68668,23.3910365 C221.595645,21.2826252 221.056127,19.7670333 219.984171,18.8738056 C218.878473,17.9524625 217.337933,17.5117949 215.392726,17.5117949 C212.988414,17.5117949 210.56231,18.1941605 208.123044,19.5451029 L207.69245,19.790442 L207.197839,20.0801319 L207.197,43.21 L203.064,43.21 L203.064,18.723 L203.58038,18.4273445 C207.947185,15.9758871 212.452224,14.7528205 217.102986,14.7528205 Z M528.510241,14.7528205 C530.611053,14.7528205 532.187395,15.1656933 533.263412,15.9578402 L533.448108,16.1015611 L533.582748,16.2194184 L533.711576,16.3467864 C534.506783,17.1813308 534.951651,18.5872421 534.996277,20.6082345 L535,20.9507692 L535,23.034 L531.338,23.996 L531.33845,23.0328205 L531.335241,22.7513316 L531.325318,22.4760499 C531.170596,19.3037562 529.654093,17.5117949 526.91793,17.5117949 C524.772731,17.5117949 522.513313,18.2677223 520.14014,19.7546654 L519.764483,19.9955172 L519.312789,20.2916706 L519.312,43.21 L515.179,43.21 L515.179,19.012 L515.274915,18.9543788 L515.892064,18.5949532 C517.75656,17.537287 519.738288,16.6652543 521.831814,15.9825157 C524.352449,15.1604887 526.579999,14.7528205 528.510241,14.7528205 Z M181.078301,16.9169231 C178.661567,16.9169231 176.635988,18.0313893 175.078122,20.1864657 C173.560091,22.286436 172.82444,25.3394241 172.82444,29.3384615 C172.82444,33.4107062 173.515898,36.4753427 174.949856,38.5354016 C176.433514,40.6668603 178.508719,41.76 181.078301,41.76 C183.647883,41.76 185.723088,40.6668603 187.206746,38.5354016 C188.640704,36.4753427 189.332162,33.4107062 189.332162,29.3384615 C189.332162,25.3437722 188.618654,22.2955869 187.145404,20.197622 C185.625332,18.0329822 183.573808,16.9169231 181.078301,16.9169231 Z M97.3519858,17.3928205 C95.3561662,17.3928205 93.190978,18.0201744 90.8530175,19.2568876 L90.4386421,19.481453 L89.9237677,19.7670957 L89.9237677,40.4759456 L90.8361833,40.8545284 L91.1716174,40.9803088 C92.6442926,41.5046401 94.3659525,41.76 96.3494196,41.76 C102.139528,41.76 105.016102,37.1174688 105.016102,28.3866667 C105.016102,21.2370484 102.452686,17.3928205 97.3519858,17.3928205 Z M387.366383,29.5876923 L383.240735,29.5876923 L382.873523,29.5897627 L382.511659,29.5960935 C376.053146,29.7486654 372.568921,31.9867987 372.568921,36.3579487 C372.568921,38.0103319 373.137477,39.3007041 374.287074,40.117689 C375.331197,40.8597159 376.614842,41.2246154 378.109956,41.2246154 C379.92302,41.2246154 381.6726,40.7888647 383.346338,39.9230759 C384.875531,39.1320567 386.079668,38.2167379 386.950726,37.1694349 L387.161547,36.904855 L387.366383,36.6362542 L387.366383,29.5876923 Z M65.4555147,16.7384615 C63.3119165,16.7384615 61.4830773,17.602453 60.037375,19.2885785 C58.6983264,20.8503136 57.8604898,23.0718871 57.4947292,25.9400032 L57.443402,26.375068 L57.3230229,27.4830769 L72.9977302,27.4830769 L72.9412745,26.4295655 L72.9147553,26.00688 C72.7037346,23.0801877 71.9590184,20.8279764 70.6435533,19.2656572 C69.2394259,17.5980378 67.4883962,16.7384615 65.4555147,16.7384615 Z M494.667613,16.7384615 C492.524014,16.7384615 490.695175,17.602453 489.249473,19.2885785 C487.910424,20.8503136 487.072588,23.0718871 486.706827,25.9400032 L486.6555,26.375068 L486.535121,27.4830769 L502.209828,27.4830769 L502.153372,26.4295655 L502.126853,26.00688 C501.915832,23.0801877 501.171116,20.8279764 499.855651,19.2656572 C498.451524,17.5980378 496.700494,16.7384615 494.667613,16.7384615 Z M247.46612,16.7384615 C245.322522,16.7384615 243.493683,17.602453 242.04798,19.2885785 C240.708932,20.8503136 239.871095,23.0718871 239.505335,25.9400032 L239.454007,26.375068 L239.333628,27.4830769 L255.008336,27.4830769 L254.95188,26.4295655 L254.925361,26.00688 C254.71434,23.0801877 253.969624,20.8279764 252.654159,19.2656572 C251.250031,17.5980378 249.499002,16.7384615 247.46612,16.7384615 Z" id="Shape"></path>
                    </g>
                    <path d="M1.50114767,60 C2.33020863,60 3.00229533,60.6715729 3.00229533,61.5 C3.00229533,62.3284271 2.33020863,63 1.50114767,63 C0.672086703,63 0,62.3284271 0,61.5 C0,60.6715729 0.672086703,60 1.50114767,60 Z M430.328998,60 C431.158059,60 431.830145,60.6715729 431.830145,61.5 C431.830145,62.3284271 431.158059,63 430.328998,63 C429.499937,63 428.82785,62.3284271 428.82785,61.5 C428.82785,60.6715729 429.499937,60 430.328998,60 Z M215.664881,60 C216.493942,60 217.166029,60.6715729 217.166029,61.5 C217.166029,62.3284271 216.493942,63 215.664881,63 C214.83582,63 214.163734,62.3284271 214.163734,61.5 C214.163734,60.6715729 214.83582,60 215.664881,60 Z M644.993114,60 C645.822175,60 646.494262,60.6715729 646.494262,61.5 C646.494262,62.3284271 645.822175,63 644.993114,63 C644.164053,63 643.491966,62.3284271 643.491966,61.5 C643.491966,60.6715729 644.164053,60 644.993114,60 Z M73.0558531,60 C73.8849141,60 74.5570008,60.6715729 74.5570008,61.5 C74.5570008,62.3284271 73.8849141,63 73.0558531,63 C72.2267921,63 71.5547054,62.3284271 71.5547054,61.5 C71.5547054,60.6715729 72.2267921,60 73.0558531,60 Z M501.883703,60 C502.712764,60 503.384851,60.6715729 503.384851,61.5 C503.384851,62.3284271 502.712764,63 501.883703,63 C501.054642,63 500.382555,62.3284271 500.382555,61.5 C500.382555,60.6715729 501.054642,60 501.883703,60 Z M287.719969,60 C288.54903,60 289.221117,60.6715729 289.221117,61.5 C289.221117,62.3284271 288.54903,63 287.719969,63 C286.890908,63 286.218822,62.3284271 286.218822,61.5 C286.218822,60.6715729 286.890908,60 287.719969,60 Z M144.110176,60 C144.939237,60 145.611324,60.6715729 145.611324,61.5 C145.611324,62.3284271 144.939237,63 144.110176,63 C143.281115,63 142.609028,62.3284271 142.609028,61.5 C142.609028,60.6715729 143.281115,60 144.110176,60 Z M572.938026,60 C573.767087,60 574.439174,60.6715729 574.439174,61.5 C574.439174,62.3284271 573.767087,63 572.938026,63 C572.108965,63 571.436878,62.3284271 571.436878,61.5 C571.436878,60.6715729 572.108965,60 572.938026,60 Z M358.774292,60 C359.603353,60 360.27544,60.6715729 360.27544,61.5 C360.27544,62.3284271 359.603353,63 358.774292,63 C357.945231,63 357.273145,62.3284271 357.273145,61.5 C357.273145,60.6715729 357.945231,60 358.774292,60 Z M25.0191278,60 C25.8481887,60 26.5202754,60.6715729 26.5202754,61.5 C26.5202754,62.3284271 25.8481887,63 25.0191278,63 C24.1900668,63 23.5179801,62.3284271 23.5179801,61.5 C23.5179801,60.6715729 24.1900668,60 25.0191278,60 Z M453.846978,60 C454.676039,60 455.348125,60.6715729 455.348125,61.5 C455.348125,62.3284271 454.676039,63 453.846978,63 C453.017917,63 452.34583,62.3284271 452.34583,61.5 C452.34583,60.6715729 453.017917,60 453.846978,60 Z M239.683244,60 C240.512305,60 241.184392,60.6715729 241.184392,61.5 C241.184392,62.3284271 240.512305,63 239.683244,63 C238.854183,63 238.182096,62.3284271 238.182096,61.5 C238.182096,60.6715729 238.854183,60 239.683244,60 Z M96.5738332,60 C97.4028942,60 98.0749809,60.6715729 98.0749809,61.5 C98.0749809,62.3284271 97.4028942,63 96.5738332,63 C95.7447722,63 95.0726855,62.3284271 95.0726855,61.5 C95.0726855,60.6715729 95.7447722,60 96.5738332,60 Z M525.401683,60 C526.230744,60 526.902831,60.6715729 526.902831,61.5 C526.902831,62.3284271 526.230744,63 525.401683,63 C524.572622,63 523.900536,62.3284271 523.900536,61.5 C523.900536,60.6715729 524.572622,60 525.401683,60 Z M311.23795,60 C312.06701,60 312.739097,60.6715729 312.739097,61.5 C312.739097,62.3284271 312.06701,63 311.23795,63 C310.408889,63 309.736802,62.3284271 309.736802,61.5 C309.736802,60.6715729 310.408889,60 311.23795,60 Z M168.128539,60 C168.9576,60 169.629686,60.6715729 169.629686,61.5 C169.629686,62.3284271 168.9576,63 168.128539,63 C167.299478,63 166.627391,62.3284271 166.627391,61.5 C166.627391,60.6715729 167.299478,60 168.128539,60 Z M596.956389,60 C597.78545,60 598.457536,60.6715729 598.457536,61.5 C598.457536,62.3284271 597.78545,63 596.956389,63 C596.127328,63 595.455241,62.3284271 595.455241,61.5 C595.455241,60.6715729 596.127328,60 596.956389,60 Z M382.792655,60 C383.621716,60 384.293803,60.6715729 384.293803,61.5 C384.293803,62.3284271 383.621716,63 382.792655,63 C381.963594,63 381.291507,62.3284271 381.291507,61.5 C381.291507,60.6715729 381.963594,60 382.792655,60 Z M49.0374904,60 C49.8665514,60 50.5386381,60.6715729 50.5386381,61.5 C50.5386381,62.3284271 49.8665514,63 49.0374904,63 C48.2084295,63 47.5363428,62.3284271 47.5363428,61.5 C47.5363428,60.6715729 48.2084295,60 49.0374904,60 Z M477.86534,60 C478.694401,60 479.366488,60.6715729 479.366488,61.5 C479.366488,62.3284271 478.694401,63 477.86534,63 C477.03628,63 476.364193,62.3284271 476.364193,61.5 C476.364193,60.6715729 477.03628,60 477.86534,60 Z M263.701607,60 C264.530668,60 265.202754,60.6715729 265.202754,61.5 C265.202754,62.3284271 264.530668,63 263.701607,63 C262.872546,63 262.200459,62.3284271 262.200459,61.5 C262.200459,60.6715729 262.872546,60 263.701607,60 Z M120.592196,60 C121.421257,60 122.093344,60.6715729 122.093344,61.5 C122.093344,62.3284271 121.421257,63 120.592196,63 C119.763135,63 119.091048,62.3284271 119.091048,61.5 C119.091048,60.6715729 119.763135,60 120.592196,60 Z M549.420046,60 C550.249107,60 550.921194,60.6715729 550.921194,61.5 C550.921194,62.3284271 550.249107,63 549.420046,63 C548.590985,63 547.918898,62.3284271 547.918898,61.5 C547.918898,60.6715729 548.590985,60 549.420046,60 Z M335.256312,60 C336.085373,60 336.75746,60.6715729 336.75746,61.5 C336.75746,62.3284271 336.085373,63 335.256312,63 C334.427251,63 333.755164,62.3284271 333.755164,61.5 C333.755164,60.6715729 334.427251,60 335.256312,60 Z M192.146901,60 C192.975962,60 193.648049,60.6715729 193.648049,61.5 C193.648049,62.3284271 192.975962,63 192.146901,63 C191.31784,63 190.645754,62.3284271 190.645754,61.5 C190.645754,60.6715729 191.31784,60 192.146901,60 Z M620.974751,60 C621.803812,60 622.475899,60.6715729 622.475899,61.5 C622.475899,62.3284271 621.803812,63 620.974751,63 C620.14569,63 619.473604,62.3284271 619.473604,61.5 C619.473604,60.6715729 620.14569,60 620.974751,60 Z M406.811018,60 C407.640079,60 408.312165,60.6715729 408.312165,61.5 C408.312165,62.3284271 407.640079,63 406.811018,63 C405.981957,63 405.30987,62.3284271 405.30987,61.5 C405.30987,60.6715729 405.981957,60 406.811018,60 Z M9.50726855,60 C10.3363295,60 11.0084162,60.6715729 11.0084162,61.5 C11.0084162,62.3284271 10.3363295,63 9.50726855,63 C8.67820759,63 8.00612089,62.3284271 8.00612089,61.5 C8.00612089,60.6715729 8.67820759,60 9.50726855,60 Z M438.335119,60 C439.16418,60 439.836266,60.6715729 439.836266,61.5 C439.836266,62.3284271 439.16418,63 438.335119,63 C437.506058,63 436.833971,62.3284271 436.833971,61.5 C436.833971,60.6715729 437.506058,60 438.335119,60 Z M223.671002,60 C224.500063,60 225.17215,60.6715729 225.17215,61.5 C225.17215,62.3284271 224.500063,63 223.671002,63 C222.841941,63 222.169855,62.3284271 222.169855,61.5 C222.169855,60.6715729 222.841941,60 223.671002,60 Z M652.498852,60 C653.327913,60 654,60.6715729 654,61.5 C654,62.3284271 653.327913,63 652.498852,63 C651.669791,63 650.997705,62.3284271 650.997705,61.5 C650.997705,60.6715729 651.669791,60 652.498852,60 Z M81.061974,60 C81.8910349,60 82.5631217,60.6715729 82.5631217,61.5 C82.5631217,62.3284271 81.8910349,63 81.061974,63 C80.232913,63 79.5608263,62.3284271 79.5608263,61.5 C79.5608263,60.6715729 80.232913,60 81.061974,60 Z M509.889824,60 C510.718885,60 511.390972,60.6715729 511.390972,61.5 C511.390972,62.3284271 510.718885,63 509.889824,63 C509.060763,63 508.388676,62.3284271 508.388676,61.5 C508.388676,60.6715729 509.060763,60 509.889824,60 Z M295.72609,60 C296.555151,60 297.227238,60.6715729 297.227238,61.5 C297.227238,62.3284271 296.555151,63 295.72609,63 C294.897029,63 294.224943,62.3284271 294.224943,61.5 C294.224943,60.6715729 294.897029,60 295.72609,60 Z M152.116297,60 C152.945358,60 153.617445,60.6715729 153.617445,61.5 C153.617445,62.3284271 152.945358,63 152.116297,63 C151.287236,63 150.615149,62.3284271 150.615149,61.5 C150.615149,60.6715729 151.287236,60 152.116297,60 Z M580.944147,60 C581.773208,60 582.445295,60.6715729 582.445295,61.5 C582.445295,62.3284271 581.773208,63 580.944147,63 C580.115086,63 579.442999,62.3284271 579.442999,61.5 C579.442999,60.6715729 580.115086,60 580.944147,60 Z M366.780413,60 C367.609474,60 368.281561,60.6715729 368.281561,61.5 C368.281561,62.3284271 367.609474,63 366.780413,63 C365.951352,63 365.279265,62.3284271 365.279265,61.5 C365.279265,60.6715729 365.951352,60 366.780413,60 Z M33.0252487,60 C33.8543096,60 34.5263963,60.6715729 34.5263963,61.5 C34.5263963,62.3284271 33.8543096,63 33.0252487,63 C32.1961877,63 31.524101,62.3284271 31.524101,61.5 C31.524101,60.6715729 32.1961877,60 33.0252487,60 Z M461.853099,60 C462.68216,60 463.354246,60.6715729 463.354246,61.5 C463.354246,62.3284271 462.68216,63 461.853099,63 C461.024038,63 460.351951,62.3284271 460.351951,61.5 C460.351951,60.6715729 461.024038,60 461.853099,60 Z M247.689365,60 C248.518426,60 249.190513,60.6715729 249.190513,61.5 C249.190513,62.3284271 248.518426,63 247.689365,63 C246.860304,63 246.188217,62.3284271 246.188217,61.5 C246.188217,60.6715729 246.860304,60 247.689365,60 Z M104.579954,60 C105.409015,60 106.081102,60.6715729 106.081102,61.5 C106.081102,62.3284271 105.409015,63 104.579954,63 C103.750893,63 103.078806,62.3284271 103.078806,61.5 C103.078806,60.6715729 103.750893,60 104.579954,60 Z M533.407804,60 C534.236865,60 534.908952,60.6715729 534.908952,61.5 C534.908952,62.3284271 534.236865,63 533.407804,63 C532.578743,63 531.906656,62.3284271 531.906656,61.5 C531.906656,60.6715729 532.578743,60 533.407804,60 Z M319.24407,60 C320.073131,60 320.745218,60.6715729 320.745218,61.5 C320.745218,62.3284271 320.073131,63 319.24407,63 C318.415009,63 317.742923,62.3284271 317.742923,61.5 C317.742923,60.6715729 318.415009,60 319.24407,60 Z M176.13466,60 C176.96372,60 177.635807,60.6715729 177.635807,61.5 C177.635807,62.3284271 176.96372,63 176.13466,63 C175.305599,63 174.633512,62.3284271 174.633512,61.5 C174.633512,60.6715729 175.305599,60 176.13466,60 Z M604.96251,60 C605.791571,60 606.463657,60.6715729 606.463657,61.5 C606.463657,62.3284271 605.791571,63 604.96251,63 C604.133449,63 603.461362,62.3284271 603.461362,61.5 C603.461362,60.6715729 604.133449,60 604.96251,60 Z M390.798776,60 C391.627837,60 392.299923,60.6715729 392.299923,61.5 C392.299923,62.3284271 391.627837,63 390.798776,63 C389.969715,63 389.297628,62.3284271 389.297628,61.5 C389.297628,60.6715729 389.969715,60 390.798776,60 Z M57.0436113,60 C57.8726723,60 58.544759,60.6715729 58.544759,61.5 C58.544759,62.3284271 57.8726723,63 57.0436113,63 C56.2145504,63 55.5424637,62.3284271 55.5424637,61.5 C55.5424637,60.6715729 56.2145504,60 57.0436113,60 Z M485.871461,60 C486.700522,60 487.372609,60.6715729 487.372609,61.5 C487.372609,62.3284271 486.700522,63 485.871461,63 C485.0424,63 484.370314,62.3284271 484.370314,61.5 C484.370314,60.6715729 485.0424,60 485.871461,60 Z M271.707728,60 C272.536789,60 273.208875,60.6715729 273.208875,61.5 C273.208875,62.3284271 272.536789,63 271.707728,63 C270.878667,63 270.20658,62.3284271 270.20658,61.5 C270.20658,60.6715729 270.878667,60 271.707728,60 Z M128.598317,60 C129.427378,60 130.099464,60.6715729 130.099464,61.5 C130.099464,62.3284271 129.427378,63 128.598317,63 C127.769256,63 127.097169,62.3284271 127.097169,61.5 C127.097169,60.6715729 127.769256,60 128.598317,60 Z M557.426167,60 C558.255228,60 558.927314,60.6715729 558.927314,61.5 C558.927314,62.3284271 558.255228,63 557.426167,63 C556.597106,63 555.925019,62.3284271 555.925019,61.5 C555.925019,60.6715729 556.597106,60 557.426167,60 Z M343.262433,60 C344.091494,60 344.763581,60.6715729 344.763581,61.5 C344.763581,62.3284271 344.091494,63 343.262433,63 C342.433372,63 341.761285,62.3284271 341.761285,61.5 C341.761285,60.6715729 342.433372,60 343.262433,60 Z M199.65264,60 C200.481701,60 201.153787,60.6715729 201.153787,61.5 C201.153787,62.3284271 200.481701,63 199.65264,63 C198.823579,63 198.151492,62.3284271 198.151492,61.5 C198.151492,60.6715729 198.823579,60 199.65264,60 Z M628.980872,60 C629.809933,60 630.48202,60.6715729 630.48202,61.5 C630.48202,62.3284271 629.809933,63 628.980872,63 C628.151811,63 627.479725,62.3284271 627.479725,61.5 C627.479725,60.6715729 628.151811,60 628.980872,60 Z M414.316756,60 C415.145817,60 415.817904,60.6715729 415.817904,61.5 C415.817904,62.3284271 415.145817,63 414.316756,63 C413.487695,63 412.815608,62.3284271 412.815608,61.5 C412.815608,60.6715729 413.487695,60 414.316756,60 Z M17.0130069,60 C17.8420678,60 18.5141546,60.6715729 18.5141546,61.5 C18.5141546,62.3284271 17.8420678,63 17.0130069,63 C16.1839459,63 15.5118592,62.3284271 15.5118592,61.5 C15.5118592,60.6715729 16.1839459,60 17.0130069,60 Z M445.840857,60 C446.669918,60 447.342005,60.6715729 447.342005,61.5 C447.342005,62.3284271 446.669918,63 445.840857,63 C445.011796,63 444.339709,62.3284271 444.339709,61.5 C444.339709,60.6715729 445.011796,60 445.840857,60 Z M232.177506,60 C233.006567,60 233.678653,60.6715729 233.678653,61.5 C233.678653,62.3284271 233.006567,63 232.177506,63 C231.348445,63 230.676358,62.3284271 230.676358,61.5 C230.676358,60.6715729 231.348445,60 232.177506,60 Z M88.5677123,60 C89.3967733,60 90.06886,60.6715729 90.06886,61.5 C90.06886,62.3284271 89.3967733,63 88.5677123,63 C87.7386514,63 87.0665647,62.3284271 87.0665647,61.5 C87.0665647,60.6715729 87.7386514,60 88.5677123,60 Z M517.395562,60 C518.224623,60 518.89671,60.6715729 518.89671,61.5 C518.89671,62.3284271 518.224623,63 517.395562,63 C516.566501,63 515.894415,62.3284271 515.894415,61.5 C515.894415,60.6715729 516.566501,60 517.395562,60 Z M303.231829,60 C304.06089,60 304.732976,60.6715729 304.732976,61.5 C304.732976,62.3284271 304.06089,63 303.231829,63 C302.402768,63 301.730681,62.3284271 301.730681,61.5 C301.730681,60.6715729 302.402768,60 303.231829,60 Z M160.122418,60 C160.951479,60 161.623565,60.6715729 161.623565,61.5 C161.623565,62.3284271 160.951479,63 160.122418,63 C159.293357,63 158.62127,62.3284271 158.62127,61.5 C158.62127,60.6715729 159.293357,60 160.122418,60 Z M588.950268,60 C589.779329,60 590.451415,60.6715729 590.451415,61.5 C590.451415,62.3284271 589.779329,63 588.950268,63 C588.121207,63 587.44912,62.3284271 587.44912,61.5 C587.44912,60.6715729 588.121207,60 588.950268,60 Z M374.786534,60 C375.615595,60 376.287682,60.6715729 376.287682,61.5 C376.287682,62.3284271 375.615595,63 374.786534,63 C373.957473,63 373.285386,62.3284271 373.285386,61.5 C373.285386,60.6715729 373.957473,60 374.786534,60 Z M41.0313695,60 C41.8604305,60 42.5325172,60.6715729 42.5325172,61.5 C42.5325172,62.3284271 41.8604305,63 41.0313695,63 C40.2023086,63 39.5302219,62.3284271 39.5302219,61.5 C39.5302219,60.6715729 40.2023086,60 41.0313695,60 Z M469.85922,60 C470.688281,60 471.360367,60.6715729 471.360367,61.5 C471.360367,62.3284271 470.688281,63 469.85922,63 C469.030159,63 468.358072,62.3284271 468.358072,61.5 C468.358072,60.6715729 469.030159,60 469.85922,60 Z M255.695486,60 C256.524547,60 257.196634,60.6715729 257.196634,61.5 C257.196634,62.3284271 256.524547,63 255.695486,63 C254.866425,63 254.194338,62.3284271 254.194338,61.5 C254.194338,60.6715729 254.866425,60 255.695486,60 Z M112.586075,60 C113.415136,60 114.087223,60.6715729 114.087223,61.5 C114.087223,62.3284271 113.415136,63 112.586075,63 C111.757014,63 111.084927,62.3284271 111.084927,61.5 C111.084927,60.6715729 111.757014,60 112.586075,60 Z M541.413925,60 C542.242986,60 542.915073,60.6715729 542.915073,61.5 C542.915073,62.3284271 542.242986,63 541.413925,63 C540.584864,63 539.912777,62.3284271 539.912777,61.5 C539.912777,60.6715729 540.584864,60 541.413925,60 Z M327.250191,60 C328.079252,60 328.751339,60.6715729 328.751339,61.5 C328.751339,62.3284271 328.079252,63 327.250191,63 C326.42113,63 325.749044,62.3284271 325.749044,61.5 C325.749044,60.6715729 326.42113,60 327.250191,60 Z M184.14078,60 C184.969841,60 185.641928,60.6715729 185.641928,61.5 C185.641928,62.3284271 184.969841,63 184.14078,63 C183.311719,63 182.639633,62.3284271 182.639633,61.5 C182.639633,60.6715729 183.311719,60 184.14078,60 Z M612.96863,60 C613.797691,60 614.469778,60.6715729 614.469778,61.5 C614.469778,62.3284271 613.797691,63 612.96863,63 C612.139569,63 611.467483,62.3284271 611.467483,61.5 C611.467483,60.6715729 612.139569,60 612.96863,60 Z M398.804897,60 C399.633958,60 400.306044,60.6715729 400.306044,61.5 C400.306044,62.3284271 399.633958,63 398.804897,63 C397.975836,63 397.303749,62.3284271 397.303749,61.5 C397.303749,60.6715729 397.975836,60 398.804897,60 Z M65.0497322,60 C65.8787932,60 66.5508799,60.6715729 66.5508799,61.5 C66.5508799,62.3284271 65.8787932,63 65.0497322,63 C64.2206712,63 63.5485845,62.3284271 63.5485845,61.5 C63.5485845,60.6715729 64.2206712,60 65.0497322,60 Z M493.877582,60 C494.706643,60 495.37873,60.6715729 495.37873,61.5 C495.37873,62.3284271 494.706643,63 493.877582,63 C493.048521,63 492.376435,62.3284271 492.376435,61.5 C492.376435,60.6715729 493.048521,60 493.877582,60 Z M279.713849,60 C280.542909,60 281.214996,60.6715729 281.214996,61.5 C281.214996,62.3284271 280.542909,63 279.713849,63 C278.884788,63 278.212701,62.3284271 278.212701,61.5 C278.212701,60.6715729 278.884788,60 279.713849,60 Z M136.604438,60 C137.433499,60 138.105585,60.6715729 138.105585,61.5 C138.105585,62.3284271 137.433499,63 136.604438,63 C135.775377,63 135.10329,62.3284271 135.10329,61.5 C135.10329,60.6715729 135.775377,60 136.604438,60 Z M565.432288,60 C566.261349,60 566.933435,60.6715729 566.933435,61.5 C566.933435,62.3284271 566.261349,63 565.432288,63 C564.603227,63 563.93114,62.3284271 563.93114,61.5 C563.93114,60.6715729 564.603227,60 565.432288,60 Z M351.268554,60 C352.097615,60 352.769702,60.6715729 352.769702,61.5 C352.769702,62.3284271 352.097615,63 351.268554,63 C350.439493,63 349.767406,62.3284271 349.767406,61.5 C349.767406,60.6715729 350.439493,60 351.268554,60 Z M207.658761,60 C208.487821,60 209.159908,60.6715729 209.159908,61.5 C209.159908,62.3284271 208.487821,63 207.658761,63 C206.8297,63 206.157613,62.3284271 206.157613,61.5 C206.157613,60.6715729 206.8297,60 207.658761,60 Z M636.986993,60 C637.816054,60 638.488141,60.6715729 638.488141,61.5 C638.488141,62.3284271 637.816054,63 636.986993,63 C636.157932,63 635.485845,62.3284271 635.485845,61.5 C635.485845,60.6715729 636.157932,60 636.986993,60 Z M422.322877,60 C423.151938,60 423.824024,60.6715729 423.824024,61.5 C423.824024,62.3284271 423.151938,63 422.322877,63 C421.493816,63 420.821729,62.3284271 420.821729,61.5 C420.821729,60.6715729 421.493816,60 422.322877,60 Z" id="Combined-Shape"></path>
                </g>
                <path d="M148.457231,98.2734375 C150.927283,98.2734375 152.645382,97.4986979 153.611527,95.9492188 L153.611527,95.9492188 L153.693559,95.9492188 L153.939652,98 L155.08809,98 L155.08809,83.1386719 L153.748246,83.1386719 L153.748246,91.3417969 C153.748246,93.3561198 153.331254,94.8098958 152.49727,95.703125 C151.663285,96.5963542 150.362178,97.0429688 148.593949,97.0429688 C147.272335,97.0429688 146.297074,96.7034505 145.668168,96.0244141 C145.039262,95.3453776 144.724809,94.2584635 144.724809,92.7636719 L144.724809,92.7636719 L144.724809,83.1386719 L143.384965,83.1386719 L143.384965,92.8457031 C143.384965,96.4641927 145.07572,98.2734375 148.457231,98.2734375 Z M162.544094,98 L162.544094,89.796875 C162.544094,87.7825521 162.956529,86.3264974 163.781398,85.4287109 C164.606268,84.5309245 165.907375,84.0820312 167.684719,84.0820312 C169.006333,84.0820312 169.981594,84.4215495 170.6105,85.1005859 C171.239406,85.7796224 171.553859,86.8665365 171.553859,88.3613281 L171.553859,88.3613281 L171.553859,98 L172.893703,98 L172.893703,88.2792969 C172.893703,84.6608073 171.207505,82.8515625 167.835109,82.8515625 C165.365057,82.8515625 163.646958,83.6263021 162.680812,85.1757812 L162.680812,85.1757812 L162.598781,85.1757812 L162.339016,83.1386719 L161.190578,83.1386719 L161.190578,98 L162.544094,98 Z M179.502051,80.3359375 C179.784603,80.3359375 180.005631,80.2174479 180.165137,79.9804688 C180.324642,79.7434896 180.404394,79.4199219 180.404394,79.0097656 C180.404394,78.5904948 180.324642,78.2669271 180.165137,78.0390625 C180.005631,77.8111979 179.784603,77.6972656 179.502051,77.6972656 C178.927832,77.6972656 178.640722,78.1347656 178.640722,79.0097656 C178.640722,79.8938802 178.927832,80.3359375 179.502051,80.3359375 Z M180.185644,98 L180.185644,83.1386719 L178.832129,83.1386719 L178.832129,98 L180.185644,98 Z M190.909226,98 L196.651414,83.1386719 L195.256882,83.1386719 L191.415086,93.2148438 C191.023158,94.2539062 190.640346,95.3932292 190.266648,96.6328125 L190.266648,96.6328125 L190.184617,96.6328125 C189.929408,95.6666667 189.546596,94.5364583 189.036179,93.2421875 L189.036179,93.2421875 L185.194382,83.1386719 L183.799851,83.1386719 L189.542039,98 L190.909226,98 Z M206.267574,98.2734375 C207.124345,98.2734375 207.908199,98.2073568 208.619136,98.0751953 C209.330074,97.9430339 210.104813,97.6946615 210.943355,97.3300781 L210.943355,97.3300781 L210.943355,96.0996094 C209.95898,96.4915365 209.145503,96.7467448 208.502925,96.8652344 C207.860347,96.983724 207.11523,97.0429688 206.267574,97.0429688 C204.526688,97.0429688 203.189123,96.5052083 202.254878,95.4296875 C201.320634,94.3541667 200.844397,92.7955729 200.826167,90.7539062 L200.826167,90.7539062 L211.531246,90.7539062 L211.531246,89.6601562 C211.531246,87.5638021 211.025386,85.9049479 210.013667,84.6835938 C209.001949,83.4622396 207.621089,82.8515625 205.871089,82.8515625 C203.893225,82.8515625 202.320959,83.5647786 201.154292,84.9912109 C199.987626,86.4176432 199.404292,88.3157552 199.404292,90.6855469 C199.404292,93.0826823 200.008134,94.9466146 201.215816,96.2773438 C202.423498,97.6080729 204.107417,98.2734375 206.267574,98.2734375 Z M210.095699,89.5507812 L200.908199,89.5507812 C201.054032,87.7734375 201.559891,86.4130859 202.425777,85.4697266 C203.291662,84.5263672 204.4401,84.0546875 205.871089,84.0546875 C207.192704,84.0546875 208.227209,84.5400391 208.974605,85.5107422 C209.722001,86.4814453 210.095699,87.828125 210.095699,89.5507812 L210.095699,89.5507812 Z M218.112249,98 L218.112249,89.796875 C218.112249,88.15625 218.517848,86.7981771 219.329046,85.7226562 C220.140244,84.6471354 221.179307,84.109375 222.446234,84.109375 C223.111598,84.109375 223.754176,84.186849 224.373968,84.3417969 L224.373968,84.3417969 L224.633734,83.0429688 C223.913682,82.9153646 223.239202,82.8515625 222.610296,82.8515625 C221.625921,82.8515625 220.78738,83.0725911 220.094671,83.5146484 C219.401963,83.9567057 218.75027,84.7246094 218.139593,85.8183594 L218.139593,85.8183594 L218.04389,85.8183594 L217.907171,83.1386719 L216.758734,83.1386719 L216.758734,98 L218.112249,98 Z M232.171769,98.2734375 C234.031144,98.2734375 235.466691,97.9156901 236.478409,97.2001953 C237.490128,96.4847005 237.995987,95.4615885 237.995987,94.1308594 C237.995987,93.4654948 237.843318,92.8867188 237.53798,92.3945312 C237.232641,91.9023438 236.774633,91.4625651 236.163956,91.0751953 C235.553279,90.6878255 234.578019,90.2526042 233.238175,89.7695312 C231.634008,89.1953125 230.556209,88.6757812 230.004777,88.2109375 C229.453344,87.7460938 229.177628,87.1263021 229.177628,86.3515625 C229.177628,85.640625 229.533097,85.0846354 230.244034,84.6835938 C230.954972,84.2825521 231.91656,84.0820312 233.1288,84.0820312 C234.377498,84.0820312 235.731014,84.3828125 237.189347,84.984375 L237.189347,84.984375 L237.695206,83.7539062 C236.255102,83.1523438 234.732967,82.8515625 233.1288,82.8515625 C231.451717,82.8515625 230.146053,83.1751302 229.211808,83.8222656 C228.277563,84.469401 227.810441,85.3489583 227.810441,86.4609375 C227.810441,87.1627604 227.96311,87.757487 228.268448,88.2451172 C228.573787,88.7327474 229.027237,89.1702474 229.6288,89.5576172 C230.230362,89.944987 231.273982,90.4075521 232.759659,90.9453125 C234.145076,91.4375 235.140844,91.9388021 235.746964,92.4492188 C236.353084,92.9596354 236.656144,93.5885417 236.656144,94.3359375 C236.656144,95.1471354 236.27561,95.7965495 235.514542,96.2841797 C234.753474,96.7718099 233.639217,97.015625 232.171769,97.015625 C230.512915,97.015625 228.936092,96.6419271 227.4413,95.8945312 L227.4413,95.8945312 L227.4413,97.3574219 C228.607967,97.968099 230.18479,98.2734375 232.171769,98.2734375 Z M246.422694,98.2734375 C247.498215,98.2734375 248.430181,98.0751953 249.218593,97.6787109 C250.007004,97.2822266 250.774908,96.6054688 251.522304,95.6484375 L251.522304,95.6484375 L251.631679,95.6484375 L251.973476,98 L252.971522,98 L252.971522,88.1152344 C252.971522,86.3196615 252.568202,84.9980469 251.761562,84.1503906 C250.954921,83.3027344 249.735845,82.8789062 248.104335,82.8789062 C246.509283,82.8789062 244.896002,83.2617188 243.264491,84.0273438 L243.264491,84.0273438 L243.770351,85.203125 C245.246913,84.4375 246.673345,84.0546875 248.049647,84.0546875 C249.325689,84.0546875 250.250819,84.4147135 250.825038,85.1347656 C251.399257,85.8548177 251.686366,86.921224 251.686366,88.3339844 L251.686366,88.3339844 L251.686366,89.3183594 L248.856288,89.4003906 C246.568528,89.4459635 244.820806,89.8697917 243.613124,90.671875 C242.405442,91.4739583 241.801601,92.5996094 241.801601,94.0488281 C241.801601,95.3704427 242.2072,96.4049479 243.018397,97.1523438 C243.829595,97.8997396 244.964361,98.2734375 246.422694,98.2734375 Z M246.504726,97.0429688 C245.465663,97.0429688 244.661301,96.7854818 244.09164,96.2705078 C243.521978,95.7555339 243.237147,95.0332031 243.237147,94.1035156 C243.237147,92.936849 243.681483,92.0777995 244.570155,91.5263672 C245.458827,90.9749349 246.946783,90.6490885 249.034022,90.5488281 L249.034022,90.5488281 L251.631679,90.4394531 L251.631679,91.9023438 C251.631679,93.515625 251.173671,94.7757161 250.257655,95.6826172 C249.34164,96.5895182 248.090663,97.0429688 246.504726,97.0429688 Z M260.263464,98 L260.263464,76.7265625 L258.909948,76.7265625 L258.909948,98 L260.263464,98 Z M278.15594,98.2734375 C280.015315,98.2734375 281.450862,97.9156901 282.462581,97.2001953 C283.474299,96.4847005 283.980159,95.4615885 283.980159,94.1308594 C283.980159,93.4654948 283.827489,92.8867188 283.522151,92.3945312 C283.216812,91.9023438 282.758805,91.4625651 282.148127,91.0751953 C281.53745,90.6878255 280.56219,90.2526042 279.222346,89.7695312 C277.61818,89.1953125 276.54038,88.6757812 275.988948,88.2109375 C275.437516,87.7460938 275.161799,87.1263021 275.161799,86.3515625 C275.161799,85.640625 275.517268,85.0846354 276.228206,84.6835938 C276.939143,84.2825521 277.900732,84.0820312 279.112971,84.0820312 C280.361669,84.0820312 281.715185,84.3828125 283.173518,84.984375 L283.173518,84.984375 L283.679377,83.7539062 C282.239273,83.1523438 280.717138,82.8515625 279.112971,82.8515625 C277.435888,82.8515625 276.130224,83.1751302 275.195979,83.8222656 C274.261734,84.469401 273.794612,85.3489583 273.794612,86.4609375 C273.794612,87.1627604 273.947281,87.757487 274.25262,88.2451172 C274.557958,88.7327474 275.011409,89.1702474 275.612971,89.5576172 C276.214534,89.944987 277.258154,90.4075521 278.743831,90.9453125 C280.129247,91.4375 281.125016,91.9388021 281.731135,92.4492188 C282.337255,92.9596354 282.640315,93.5885417 282.640315,94.3359375 C282.640315,95.1471354 282.259781,95.7965495 281.498713,96.2841797 C280.737646,96.7718099 279.623388,97.015625 278.15594,97.015625 C276.497086,97.015625 274.920263,96.6419271 273.425471,95.8945312 L273.425471,95.8945312 L273.425471,97.3574219 C274.592138,97.968099 276.168961,98.2734375 278.15594,98.2734375 Z M294.936162,98.2734375 C295.792933,98.2734375 296.576787,98.2073568 297.287725,98.0751953 C297.998662,97.9430339 298.773402,97.6946615 299.611944,97.3300781 L299.611944,97.3300781 L299.611944,96.0996094 C298.627569,96.4915365 297.814092,96.7467448 297.171514,96.8652344 C296.528936,96.983724 295.783819,97.0429688 294.936162,97.0429688 C293.195277,97.0429688 291.857712,96.5052083 290.923467,95.4296875 C289.989222,94.3541667 289.512985,92.7955729 289.494756,90.7539062 L289.494756,90.7539062 L300.199834,90.7539062 L300.199834,89.6601562 C300.199834,87.5638021 299.693975,85.9049479 298.682256,84.6835938 C297.670537,83.4622396 296.289678,82.8515625 294.539678,82.8515625 C292.561814,82.8515625 290.989548,83.5647786 289.822881,84.9912109 C288.656215,86.4176432 288.072881,88.3157552 288.072881,90.6855469 C288.072881,93.0826823 288.676722,94.9466146 289.884405,96.2773438 C291.092087,97.6080729 292.776006,98.2734375 294.936162,98.2734375 Z M298.764287,89.5507812 L289.576787,89.5507812 C289.722621,87.7734375 290.22848,86.4130859 291.094366,85.4697266 C291.960251,84.5263672 293.108689,84.0546875 294.539678,84.0546875 C295.861293,84.0546875 296.895798,84.5400391 297.643194,85.5107422 C298.39059,86.4814453 298.764287,87.828125 298.764287,89.5507812 L298.764287,89.5507812 Z M309.323807,98.2734375 C310.180578,98.2734375 310.937088,98.1640625 311.593338,97.9453125 L311.593338,97.9453125 L311.593338,96.8515625 C310.955317,96.9973958 310.207921,97.0703125 309.351151,97.0703125 C308.49438,97.0703125 307.865474,96.796875 307.464432,96.25 C307.06339,95.703125 306.862869,94.860026 306.862869,93.7207031 L306.862869,93.7207031 L306.862869,84.3144531 L311.224197,84.3144531 L311.224197,83.1386719 L306.862869,83.1386719 L306.862869,79.5429688 L306.165604,79.5429688 L305.48201,82.90625 L303.280838,83.5214844 L303.280838,84.3144531 L305.48201,84.3144531 L305.48201,93.9121094 C305.48201,95.4160156 305.794184,96.5188802 306.418533,97.2207031 C307.042882,97.922526 308.011307,98.2734375 309.323807,98.2734375 Z M319.828639,98.2734375 C320.68541,98.2734375 321.44192,98.1640625 322.09817,97.9453125 L322.09817,97.9453125 L322.09817,96.8515625 C321.460149,96.9973958 320.712753,97.0703125 319.855982,97.0703125 C318.999212,97.0703125 318.370305,96.796875 317.969264,96.25 C317.568222,95.703125 317.367701,94.860026 317.367701,93.7207031 L317.367701,93.7207031 L317.367701,84.3144531 L321.729029,84.3144531 L321.729029,83.1386719 L317.367701,83.1386719 L317.367701,79.5429688 L316.670436,79.5429688 L315.986842,82.90625 L313.78567,83.5214844 L313.78567,84.3144531 L315.986842,84.3144531 L315.986842,93.9121094 C315.986842,95.4160156 316.299016,96.5188802 316.923365,97.2207031 C317.547714,97.922526 318.516139,98.2734375 319.828639,98.2734375 Z M327.790502,98 L327.790502,76.7265625 L326.436986,76.7265625 L326.436986,98 L327.790502,98 Z M339.894943,98.2734375 C340.751714,98.2734375 341.535568,98.2073568 342.246506,98.0751953 C342.957443,97.9430339 343.732183,97.6946615 344.570724,97.3300781 L344.570724,97.3300781 L344.570724,96.0996094 C343.586349,96.4915365 342.772873,96.7467448 342.130295,96.8652344 C341.487717,96.983724 340.742599,97.0429688 339.894943,97.0429688 C338.154058,97.0429688 336.816493,96.5052083 335.882248,95.4296875 C334.948003,94.3541667 334.471766,92.7955729 334.453537,90.7539062 L334.453537,90.7539062 L345.158615,90.7539062 L345.158615,89.6601562 C345.158615,87.5638021 344.652756,85.9049479 343.641037,84.6835938 C342.629318,83.4622396 341.248459,82.8515625 339.498459,82.8515625 C337.520594,82.8515625 335.948329,83.5647786 334.781662,84.9912109 C333.614995,86.4176432 333.031662,88.3157552 333.031662,90.6855469 C333.031662,93.0826823 333.635503,94.9466146 334.843185,96.2773438 C336.050868,97.6080729 337.734787,98.2734375 339.894943,98.2734375 Z M343.723068,89.5507812 L334.535568,89.5507812 C334.681401,87.7734375 335.187261,86.4130859 336.053146,85.4697266 C336.919032,84.5263672 338.067469,84.0546875 339.498459,84.0546875 C340.820073,84.0546875 341.854579,84.5400391 342.601974,85.5107422 C343.34937,86.4814453 343.723068,87.828125 343.723068,89.5507812 L343.723068,89.5507812 Z M351.739619,98 L351.739619,89.796875 C351.739619,87.8007812 352.095088,86.3492839 352.806025,85.4423828 C353.516963,84.5354818 354.651728,84.0820312 356.210322,84.0820312 C358.507197,84.0820312 359.655634,85.3352865 359.655634,87.8417969 L359.655634,87.8417969 L359.655634,98 L361.036494,98 L361.036494,89.2910156 C361.036494,87.4954427 361.401077,86.1783854 362.130244,85.3398438 C362.85941,84.5013021 363.985061,84.0820312 365.507197,84.0820312 C366.673864,84.0820312 367.539749,84.4147135 368.104853,85.0800781 C368.669957,85.7454427 368.952509,86.8027344 368.952509,88.2519531 L368.952509,88.2519531 L368.952509,98 L370.292353,98 L370.292353,88.2792969 C370.292353,86.3925781 369.886754,85.016276 369.075556,84.1503906 C368.264358,83.2845052 367.047561,82.8515625 365.425166,82.8515625 C364.386103,82.8515625 363.458694,83.0794271 362.642939,83.5351562 C361.827184,83.9908854 361.17777,84.6425781 360.694697,85.4902344 L360.694697,85.4902344 L360.640009,85.4902344 C359.974645,83.7311198 358.470739,82.8515625 356.128291,82.8515625 C355.216832,82.8515625 354.382848,83.054362 353.626338,83.4599609 C352.869827,83.8655599 352.286494,84.4375 351.876338,85.1757812 L351.876338,85.1757812 L351.794306,85.1757812 L351.507197,83.1386719 L350.386103,83.1386719 L350.386103,98 L351.739619,98 Z M382.232732,98.2734375 C383.089503,98.2734375 383.873357,98.2073568 384.584294,98.0751953 C385.295232,97.9430339 386.069971,97.6946615 386.908513,97.3300781 L386.908513,97.3300781 L386.908513,96.0996094 C385.924138,96.4915365 385.110662,96.7467448 384.468083,96.8652344 C383.825505,96.983724 383.080388,97.0429688 382.232732,97.0429688 C380.491846,97.0429688 379.154281,96.5052083 378.220037,95.4296875 C377.285792,94.3541667 376.809555,92.7955729 376.791326,90.7539062 L376.791326,90.7539062 L387.496404,90.7539062 L387.496404,89.6601562 C387.496404,87.5638021 386.990544,85.9049479 385.978826,84.6835938 C384.967107,83.4622396 383.586248,82.8515625 381.836248,82.8515625 C379.858383,82.8515625 378.286117,83.5647786 377.119451,84.9912109 C375.952784,86.4176432 375.369451,88.3157552 375.369451,90.6855469 C375.369451,93.0826823 375.973292,94.9466146 377.180974,96.2773438 C378.388656,97.6080729 380.072576,98.2734375 382.232732,98.2734375 Z M386.060857,89.5507812 L376.873357,89.5507812 C377.01919,87.7734375 377.52505,86.4130859 378.390935,85.4697266 C379.25682,84.5263672 380.405258,84.0546875 381.836248,84.0546875 C383.157862,84.0546875 384.192367,84.5400391 384.939763,85.5107422 C385.687159,86.4814453 386.060857,87.828125 386.060857,89.5507812 L386.060857,89.5507812 Z M394.077408,98 L394.077408,89.796875 C394.077408,87.7825521 394.489842,86.3264974 395.314712,85.4287109 C396.139582,84.5309245 397.440689,84.0820312 399.218033,84.0820312 C400.539647,84.0820312 401.514908,84.4215495 402.143814,85.1005859 C402.77272,85.7796224 403.087173,86.8665365 403.087173,88.3613281 L403.087173,88.3613281 L403.087173,98 L404.427017,98 L404.427017,88.2792969 C404.427017,84.6608073 402.740819,82.8515625 399.368423,82.8515625 C396.898371,82.8515625 395.180272,83.6263021 394.214126,85.1757812 L394.214126,85.1757812 L394.132095,85.1757812 L393.872329,83.1386719 L392.723892,83.1386719 L392.723892,98 L394.077408,98 Z M414.261927,98.2734375 C415.118698,98.2734375 415.875208,98.1640625 416.531458,97.9453125 L416.531458,97.9453125 L416.531458,96.8515625 C415.893437,96.9973958 415.146041,97.0703125 414.289271,97.0703125 C413.4325,97.0703125 412.803594,96.796875 412.402552,96.25 C412.00151,95.703125 411.800989,94.860026 411.800989,93.7207031 L411.800989,93.7207031 L411.800989,84.3144531 L416.162318,84.3144531 L416.162318,83.1386719 L411.800989,83.1386719 L411.800989,79.5429688 L411.103724,79.5429688 L410.42013,82.90625 L408.218958,83.5214844 L408.218958,84.3144531 L410.42013,84.3144531 L410.42013,93.9121094 C410.42013,95.4160156 410.732305,96.5188802 411.356653,97.2207031 C411.981002,97.922526 412.949427,98.2734375 414.261927,98.2734375 Z M432.660263,98.2734375 C434.519638,98.2734375 435.955184,97.9156901 436.966903,97.2001953 C437.978622,96.4847005 438.484481,95.4615885 438.484481,94.1308594 C438.484481,93.4654948 438.331812,92.8867188 438.026473,92.3945312 C437.721135,91.9023438 437.263127,91.4625651 436.65245,91.0751953 C436.041773,90.6878255 435.066513,90.2526042 433.726669,89.7695312 C432.122502,89.1953125 431.044703,88.6757812 430.49327,88.2109375 C429.941838,87.7460938 429.666122,87.1263021 429.666122,86.3515625 C429.666122,85.640625 430.021591,85.0846354 430.732528,84.6835938 C431.443466,84.2825521 432.405054,84.0820312 433.617294,84.0820312 C434.865992,84.0820312 436.219507,84.3828125 437.677841,84.984375 L437.677841,84.984375 L438.1837,83.7539062 C436.743596,83.1523438 435.22146,82.8515625 433.617294,82.8515625 C431.94021,82.8515625 430.634546,83.1751302 429.700302,83.8222656 C428.766057,84.469401 428.298934,85.3489583 428.298934,86.4609375 C428.298934,87.1627604 428.451604,87.757487 428.756942,88.2451172 C429.062281,88.7327474 429.515731,89.1702474 430.117294,89.5576172 C430.718856,89.944987 431.762476,90.4075521 433.248153,90.9453125 L433.560948,91.059056 C434.784459,91.5146773 435.675963,91.9780649 436.235458,92.4492188 C436.841578,92.9596354 437.144638,93.5885417 437.144638,94.3359375 C437.144638,95.1471354 436.764104,95.7965495 436.003036,96.2841797 C435.241968,96.7718099 434.12771,97.015625 432.660263,97.015625 C431.001408,97.015625 429.424585,96.6419271 427.929794,95.8945312 L427.929794,95.8945312 L427.929794,97.3574219 C429.09646,97.968099 430.673283,98.2734375 432.660263,98.2734375 Z M442.741266,104.726562 C443.433975,104.726562 444.024144,104.603516 444.511774,104.357422 C444.999404,104.111328 445.425511,103.742188 445.790094,103.25 C446.154678,102.757812 446.60585,101.809896 447.14361,100.40625 L447.14361,100.40625 L453.801813,83.1386719 L452.407282,83.1386719 L449.262751,91.3964844 C448.396865,93.7298177 447.772516,95.484375 447.389704,96.6601562 L447.389704,96.6601562 L447.307673,96.6601562 C447.052464,95.7669271 446.446344,94.0397135 445.489313,91.4785156 L445.489313,91.4785156 L442.344782,83.1386719 L440.950251,83.1386719 L446.637751,98 C446.528376,98.3007812 446.284561,98.9501953 445.906305,99.9482422 C445.52805,100.946289 445.195368,101.675456 444.908258,102.135742 C444.621149,102.596029 444.29986,102.935547 443.944391,103.154297 C443.588923,103.373047 443.178766,103.482422 442.713923,103.482422 C442.103245,103.482422 441.533584,103.409505 441.004938,103.263672 L441.004938,103.263672 L441.004938,104.439453 C441.642959,104.630859 442.221735,104.726562 442.741266,104.726562 Z M460.806645,98.2734375 C462.66602,98.2734375 464.101567,97.9156901 465.113286,97.2001953 C466.125004,96.4847005 466.630864,95.4615885 466.630864,94.1308594 C466.630864,93.4654948 466.478195,92.8867188 466.172856,92.3945312 C465.867517,91.9023438 465.40951,91.4625651 464.798833,91.0751953 C464.188155,90.6878255 463.212895,90.2526042 461.873051,89.7695312 C460.268885,89.1953125 459.191085,88.6757812 458.639653,88.2109375 C458.088221,87.7460938 457.812504,87.1263021 457.812504,86.3515625 C457.812504,85.640625 458.167973,85.0846354 458.878911,84.6835938 C459.589848,84.2825521 460.551437,84.0820312 461.763676,84.0820312 C463.012374,84.0820312 464.36589,84.3828125 465.824223,84.984375 L465.824223,84.984375 L466.330083,83.7539062 C464.889978,83.1523438 463.367843,82.8515625 461.763676,82.8515625 C460.086593,82.8515625 458.780929,83.1751302 457.846684,83.8222656 C456.912439,84.469401 456.445317,85.3489583 456.445317,86.4609375 C456.445317,87.1627604 456.597986,87.757487 456.903325,88.2451172 C457.208663,88.7327474 457.662114,89.1702474 458.263676,89.5576172 C458.865239,89.944987 459.908859,90.4075521 461.394536,90.9453125 C462.779952,91.4375 463.775721,91.9388021 464.38184,92.4492188 C464.98796,92.9596354 465.29102,93.5885417 465.29102,94.3359375 C465.29102,95.1471354 464.910486,95.7965495 464.149418,96.2841797 C463.388351,96.7718099 462.274093,97.015625 460.806645,97.015625 C459.147791,97.015625 457.570968,96.6419271 456.076176,95.8945312 L456.076176,95.8945312 L456.076176,97.3574219 C457.242843,97.968099 458.819666,98.2734375 460.806645,98.2734375 Z M475.481399,98.2734375 C476.33817,98.2734375 477.09468,98.1640625 477.75093,97.9453125 L477.75093,97.9453125 L477.75093,96.8515625 C477.112909,96.9973958 476.365513,97.0703125 475.508743,97.0703125 C474.651972,97.0703125 474.023065,96.796875 473.622024,96.25 C473.220982,95.703125 473.020461,94.860026 473.020461,93.7207031 L473.020461,93.7207031 L473.020461,84.3144531 L477.381789,84.3144531 L477.381789,83.1386719 L473.020461,83.1386719 L473.020461,79.5429688 L472.323196,79.5429688 L471.639602,82.90625 L469.43843,83.5214844 L469.43843,84.3144531 L471.639602,84.3144531 L471.639602,93.9121094 C471.639602,95.4160156 471.951776,96.5188802 472.576125,97.2207031 C473.200474,97.922526 474.168899,98.2734375 475.481399,98.2734375 Z M488.091699,98.2734375 C488.94847,98.2734375 489.732324,98.2073568 490.443262,98.0751953 C491.154199,97.9430339 491.928939,97.6946615 492.767481,97.3300781 L492.767481,97.3300781 L492.767481,96.0996094 C491.783106,96.4915365 490.969629,96.7467448 490.327051,96.8652344 C489.684473,96.983724 488.939356,97.0429688 488.091699,97.0429688 C486.350814,97.0429688 485.013249,96.5052083 484.079004,95.4296875 C483.144759,94.3541667 482.668522,92.7955729 482.650293,90.7539062 L482.650293,90.7539062 L493.355371,90.7539062 L493.355371,89.6601562 C493.355371,87.5638021 492.849512,85.9049479 491.837793,84.6835938 C490.826074,83.4622396 489.445215,82.8515625 487.695215,82.8515625 C485.71735,82.8515625 484.145085,83.5647786 482.978418,84.9912109 C481.811752,86.4176432 481.228418,88.3157552 481.228418,90.6855469 C481.228418,93.0826823 481.832259,94.9466146 483.039942,96.2773438 C484.247624,97.6080729 485.931543,98.2734375 488.091699,98.2734375 Z M491.919824,89.5507812 L482.732324,89.5507812 C482.878158,87.7734375 483.384017,86.4130859 484.249903,85.4697266 C485.115788,84.5263672 486.264225,84.0546875 487.695215,84.0546875 C489.01683,84.0546875 490.051335,84.5400391 490.798731,85.5107422 C491.546127,86.4814453 491.919824,87.828125 491.919824,89.5507812 L491.919824,89.5507812 Z M499.936375,98 L499.936375,89.796875 C499.936375,87.8007812 500.291844,86.3492839 501.002781,85.4423828 C501.713719,84.5354818 502.848484,84.0820312 504.407078,84.0820312 C506.703953,84.0820312 507.852391,85.3352865 507.852391,87.8417969 L507.852391,87.8417969 L507.852391,98 L509.23325,98 L509.23325,89.2910156 C509.23325,87.4954427 509.597833,86.1783854 510.327,85.3398438 C511.056167,84.5013021 512.181818,84.0820312 513.703953,84.0820312 C514.87062,84.0820312 515.736505,84.4147135 516.301609,85.0800781 C516.866714,85.7454427 517.149266,86.8027344 517.149266,88.2519531 L517.149266,88.2519531 L517.149266,98 L518.489109,98 L518.489109,88.2792969 C518.489109,86.3925781 518.08351,85.016276 517.272313,84.1503906 C516.461115,83.2845052 515.244318,82.8515625 513.621922,82.8515625 C512.582859,82.8515625 511.655451,83.0794271 510.839695,83.5351562 C510.02394,83.9908854 509.374526,84.6425781 508.891453,85.4902344 L508.891453,85.4902344 L508.836766,85.4902344 C508.171401,83.7311198 506.667495,82.8515625 504.325047,82.8515625 C503.413589,82.8515625 502.579604,83.054362 501.823094,83.4599609 C501.066583,83.8655599 500.48325,84.4375 500.073094,85.1757812 L500.073094,85.1757812 L499.991063,85.1757812 L499.703953,83.1386719 L498.582859,83.1386719 L498.582859,98 L499.936375,98 Z" id="universalsettlementsystem" fill-rule="nonzero"></path>
            </g>
        </g>
    </g>
</svg>