<?xml version="1.0" encoding="UTF-8"?>
<svg width="655px" height="107px" viewBox="0 0 655 107" version="1.1" xmlns="http://www.w3.org/2000/svg" xmlns:xlink="http://www.w3.org/1999/xlink">
    <title>span</title>
    <g id="Events-to-Guru" stroke="none" stroke-width="1" fill="none" fill-rule="evenodd">
        <g id="span-copy" transform="translate(-253.000000, -72.000000)" fill="#006CB4">
            <g id="span" transform="translate(253.500000, 72.500000)">
                <g id="Group-4">
                    <g id="Group-3" transform="translate(64.000000, 0.000000)" fill-rule="nonzero">
                        <path d="M269.095,15.764 L276.644503,37.6553846 L277.5,40.5 L278.45029,37.6553846 L285.173,15.764 L289.323,15.764 L279.129062,44.1699062 L278.945444,44.6740006 L278.756,45.1760631 C277.421442,48.6495176 275.90969,51.2622681 274.239926,53.011271 L274.000316,53.2552524 L273.766175,53.4792819 L273.499276,53.7170128 C272.056831,54.9535005 270.310124,55.6874318 268.234816,55.9195042 L267.841839,55.9571368 L267.742,55.963 L267.742,53.061 L267.809797,53.0530163 L268.076126,53.01359 C271.42409,52.458952 273.890886,49.7950781 275.469532,45.1943101 L275.595584,44.8170338 L275.704705,44.4815829 L264.772,15.764 L269.095,15.764 Z M444.733673,14.7528205 L445.234385,14.7590832 L445.765673,14.7795723 C448.073448,14.8998631 450.299253,15.4259166 452.448325,16.3595739 L452.907668,16.5658829 L453.287,16.747 L453.287,19.105 L453.226508,19.0705403 L452.793798,18.8382802 C450.339585,17.55955 447.848214,16.9169231 445.323418,16.9169231 C443.619054,16.9169231 442.183672,17.2562654 441.031278,17.9537129 C439.736394,18.7373976 439.074689,20.0189157 439.074689,21.6646154 C439.074689,23.2316915 439.78436,24.5202048 441.134983,25.4367049 C442.235493,26.1834841 443.867427,26.9137162 446.045859,27.644839 L446.802234,27.8966723 L448.405148,28.4454671 L449.206232,28.7294853 L449.559545,28.8610535 L449.759425,28.9415252 L449.759425,28.9415252 L449.972235,29.0315214 L450.436404,29.2400378 L450.687646,29.3585333 L451.228147,29.6239372 C451.416723,29.7187108 451.613681,29.8197847 451.818944,29.9271423 C452.79173,30.4359354 453.502419,30.9315471 453.948033,31.3976828 C454.399177,31.8696028 454.822833,32.5149729 455.212168,33.3361142 C455.579521,34.1108934 455.764466,34.9758208 455.764466,35.9415385 C455.764466,38.3626144 454.822242,40.2463211 452.893869,41.6832696 C450.986581,43.1045064 448.423283,43.8570693 445.180136,43.9198229 L444.733673,43.9241026 L444.248849,43.9198094 L443.721386,43.90508 C440.757389,43.7919256 438.217463,43.1742237 436.091967,42.059183 L435.72118,41.8572499 L435.531,41.746 L435.531,39.371 L435.789894,39.5063466 L436.251597,39.7367551 C439.012315,41.0821329 441.602129,41.76 444.025979,41.76 C448.836996,41.76 451.513172,39.9930928 451.513172,36.4769231 C451.513172,35.7577744 451.345082,35.0795721 451.010846,34.4571563 C450.70223,33.8824497 450.336368,33.4026947 449.910058,33.0232682 C449.498726,32.6571732 448.891558,32.2785697 448.073738,31.866105 L447.785524,31.7227214 L447.785524,31.7227214 L447.508094,31.5887485 L446.985294,31.349 C446.734507,31.2385162 446.499568,31.1421093 446.280147,31.0597404 L443.657211,30.1227766 L442.893586,29.8373623 L442.184803,29.5650156 L441.225168,29.1813176 L440.654911,28.9422804 L440.390754,28.8278452 L439.904586,28.6092331 C439.023825,28.2020419 438.137734,27.6713512 437.24667,27.0159688 C436.436952,26.4204163 435.860012,25.7303835 435.500485,24.9391401 C435.130799,24.1255412 434.941343,23.1352808 434.941343,21.9620513 C434.941343,20.4850595 435.281656,19.2492827 435.955089,18.2303516 C436.632083,17.2060319 437.496783,16.4847751 438.566686,16.0463484 C439.766125,15.5548404 440.852964,15.2175211 441.824476,15.0326232 C442.64182,14.8770667 443.4513,14.7864636 444.253339,14.7605836 L444.733673,14.7528205 Z M494.844536,14.7528205 C498.212482,14.7528205 500.79419,15.7859415 502.664011,17.8535606 L502.868843,18.0875533 L503.063287,18.324954 L503.251049,18.5704021 C504.84933,20.7325139 505.693556,23.8021794 505.753898,27.8020405 L505.75738,28.2676923 L505.757,29.468 L486.523335,29.4687179 L486.535227,30.8961239 L486.545897,31.3169073 C486.659425,34.6501003 487.449622,37.1893049 488.960568,38.9193431 C490.563645,40.7548724 492.975368,41.6894427 496.128689,41.7561523 L496.495821,41.76 L496.876142,41.7543379 L497.304475,41.7346178 C499.45477,41.6007023 501.734535,40.9372541 504.145014,39.7529717 L504.628853,39.5091733 L504.872,39.38 L504.872,41.601 L504.517518,41.7900995 C501.761272,43.2112545 498.735034,43.9241026 495.434281,43.9241026 C490.914718,43.9241026 487.671429,42.6665403 485.6193,40.1825763 C483.521589,37.6434398 482.45733,34.0401742 482.45733,29.3384615 C482.45733,24.8754874 483.548599,21.3306792 485.712983,18.6664348 C487.833759,16.0558688 490.848001,14.7528205 494.844536,14.7528205 Z M381.943297,14.7528205 C385.532629,14.7528205 387.984261,15.4391725 389.327504,16.7317594 L389.472194,16.8778709 L389.635915,17.0592145 L389.792888,17.2488906 C390.865602,18.6027553 391.443206,20.5676791 391.495783,23.1726548 L391.499728,23.5682051 L391.499,43.21 L387.785,43.21 L387.262666,38.8477629 L385.494347,40.2736799 L385.138346,40.5501688 C382.173098,42.8085178 379.243286,43.9241026 376.340721,43.9241026 C373.755947,43.9241026 371.816868,43.2487346 370.466143,41.9207596 C369.108367,40.5858519 368.435575,38.9107273 368.435575,36.8338462 C368.435575,35.7313521 368.637486,34.6776028 369.042249,33.6657745 C369.443012,32.6639436 370.116619,31.6715703 371.07152,30.6901937 C371.98361,29.7528205 373.413363,28.9686293 375.369821,28.35999 C377.235803,27.7794971 379.475035,27.4668823 382.085845,27.4277803 L382.650991,27.4235897 L387.307408,27.4235897 L387.307408,24.8174359 L387.304588,24.4674838 L387.295274,24.1019271 C387.207662,21.5768685 386.64813,19.762486 385.536059,18.6631817 C384.391232,17.5314981 382.616424,16.9714943 380.24014,16.9207267 L379.87919,16.9169231 L379.552107,16.9215987 L379.205208,16.9364799 C376.88149,17.0693871 374.22166,17.8793552 371.214767,19.355283 L370.737108,19.5938569 L370.44,19.746 L370.44,17.316 L370.991147,17.0806579 C374.71238,15.5277573 378.363497,14.7528205 381.943297,14.7528205 Z M181.078301,14.7528205 C184.855948,14.7528205 187.840149,15.9805229 190.101892,18.4444416 C192.372485,20.9180004 193.524482,24.5341816 193.524482,29.3384615 C193.524482,34.1051773 192.381174,37.7137262 190.126213,40.2084101 C187.920034,42.689089 184.931132,43.9241026 181.078301,43.9241026 C177.22437,43.9241026 174.224351,42.6882179 172.003596,40.2114024 C169.766643,37.7165206 168.63212,34.106589 168.63212,29.3384615 C168.63212,24.5341816 169.784117,20.9180004 172.05471,18.4444416 C174.316453,15.9805229 177.300654,14.7528205 181.078301,14.7528205 Z M89.982,0.271 L89.9827422,17.6104868 L91.9002111,16.6009303 L92.3513834,16.376804 C94.6036477,15.2924894 96.8019152,14.7528205 98.9442966,14.7528205 C102.302949,14.7528205 104.798318,15.8695455 106.526755,18.1111404 C108.301011,20.4121588 109.208422,23.8305232 109.208422,28.3866667 C109.208422,33.5974768 108.057975,37.4812355 105.798253,40.0730963 C103.56006,42.6402644 100.436801,43.9241026 96.3494196,43.9241026 C94.9133616,43.9241026 93.2552318,43.7161249 91.3781662,43.2974453 L90.8608134,43.1780339 L90.2992131,43.0380961 L89.7492899,42.888866 C88.6611159,42.5811195 87.6429603,42.2176738 86.6945554,41.7988598 L86.2261643,41.5848403 L85.849,41.4 L85.849,1.274 L89.982,0.271 Z M65.6324382,14.7528205 C69.0003838,14.7528205 71.582092,15.7859415 73.4519127,17.8535606 L73.6567448,18.0875533 L73.8511892,18.324954 L74.038951,18.5704021 C75.6372326,20.7325139 76.4814577,23.8021794 76.5418004,27.8020405 L76.5452826,28.2676923 L76.545,29.468 L57.3112373,29.4687179 L57.323129,30.8961239 L57.3337989,31.3169073 C57.447327,34.6501003 58.2375243,37.1893049 59.74847,38.9193431 C61.3515474,40.7548724 63.7632701,41.6894427 66.9165915,41.7561523 L67.2837235,41.76 L67.6640441,41.7543379 L68.0923771,41.7346178 C70.2426716,41.6007023 72.522437,40.9372541 74.932916,39.7529717 L75.416755,39.5091733 L75.66,39.38 L75.66,41.601 L75.3054203,41.7900995 C72.5491744,43.2112545 69.5229356,43.9241026 66.2221829,43.9241026 C61.7026198,43.9241026 58.4593312,42.6665403 56.4072017,40.1825763 C54.3094913,37.6434398 53.2452318,34.0401742 53.2452318,29.3384615 C53.2452318,24.8754874 54.336501,21.3306792 56.5008848,18.6664348 C58.6216614,16.0558688 61.6359028,14.7528205 65.6324382,14.7528205 Z M247.643044,14.7528205 C251.010989,14.7528205 253.592697,15.7859415 255.462518,17.8535606 L255.66735,18.0875533 L255.861795,18.324954 L256.049556,18.5704021 C257.647838,20.7325139 258.492063,23.8021794 258.552406,27.8020405 L258.555888,28.2676923 L258.555,29.468 L239.321843,29.4687179 L239.333734,30.8961239 L239.344404,31.3169073 C239.457932,34.6501003 240.24813,37.1893049 241.759075,38.9193431 C243.362153,40.7548724 245.773876,41.6894427 248.927197,41.7561523 L249.294329,41.76 L249.67465,41.7543379 L250.102983,41.7346178 C252.253277,41.6007023 254.533042,40.9372541 256.943521,39.7529717 L257.42736,39.5091733 L257.671,39.38 L257.671,41.6 L257.316026,41.7900995 C254.55978,43.2112545 251.533541,43.9241026 248.232788,43.9241026 C243.713225,43.9241026 240.469937,42.6665403 238.417807,40.1825763 C236.320097,37.6434398 235.255837,34.0401742 235.255837,29.3384615 C235.255837,24.8754874 236.347106,21.3306792 238.51149,18.6664348 C240.632267,16.0558688 243.646508,14.7528205 247.643044,14.7528205 Z M478.637,0.016 L478.637,2.069 L478.277207,2.09053941 C472.123046,2.51453098 468.846241,5.89846403 468.73316,11.9958862 L468.73013,12.3251282 L468.73013,16.1805128 L477.764,16.18 L476.978,18.463 L468.73013,18.4635897 L468.73,43.21 L464.596,43.21 L464.596784,12.5630769 L464.600801,12.1435147 L464.612562,11.7375461 C464.769493,7.71601942 466.105773,4.83834009 468.607505,3.02143361 C470.972394,1.30391088 473.999235,0.313473428 477.704598,0.0633290957 L478.191756,0.0349009194 L478.637,0.016 Z M416.729517,14.7528205 C419.864825,14.7528205 422.070455,15.3476148 423.370596,16.4737963 L423.5284,16.617332 L423.690677,16.780178 L423.846017,16.9519749 C424.858435,18.1271847 425.406645,19.900947 425.45656,22.3098015 L425.460306,22.6758974 L425.46,43.21 L421.326,43.21 L421.32696,24.0441026 L421.323514,23.7117406 L421.313212,23.3910365 C421.222177,21.2826252 420.682659,19.7670333 419.610702,18.8738056 C418.505005,17.9524625 416.964465,17.5117949 415.019257,17.5117949 C412.614945,17.5117949 410.188842,18.1941605 407.749575,19.5451029 L407.318982,19.790442 L406.824371,20.0801319 L406.824,43.21 L402.691,43.21 L402.691,18.722 L403.206912,18.4273445 C407.573717,15.9758871 412.078756,14.7528205 416.729517,14.7528205 Z M125.089,3.033 L138.300488,36.2871795 L139,39 L139.964189,36.2871795 L152.584,3.033 L158.207,3.033 L158.207,43.21 L153.838,43.21 L154,6 L151.62632,12.6338462 L139.595,43.21 L137.177,43.21 L125.146755,13.3476923 L123,7 L122.940754,13.3476923 L122.94,43.21 L119.633,43.21 L119.633,3.033 L125.089,3.033 Z M335.786,3.033 L335.786,5.911 L323.519598,5.91179487 L323.519,43.21 L319.15,43.21 L319.150355,5.91179487 L306.883,5.911 L306.883,3.033 L335.786,3.033 Z M4.793,3.033 L11.3983878,34.5025641 L12.5,39 L13.4087253,34.5025641 L21.075,3.033 L24.765,3.033 L32.9630904,34.5025641 L34,39 L34.9757399,34.5025641 L40.991,3.033 L45.811,3.033 L36.711,43.21 L31.906,43.21 L23.8862251,13.5261538 L23,8 L21.9361735,13.5261538 L14.151,43.21 L9.353,43.21 L0.252,3.033 L4.793,3.033 Z M356.887865,14.7528205 C358.988677,14.7528205 360.565019,15.1656933 361.641036,15.9578402 L361.825732,16.1015611 L361.960371,16.2194184 L362.089199,16.3467864 C362.884406,17.1813308 363.329275,18.5872421 363.373901,20.6082345 L363.377624,20.9507692 L363.377,23.034 L359.716,23.996 L359.716074,23.0328205 L359.712865,22.7513316 L359.702942,22.4760499 C359.54822,19.3037562 358.031717,17.5117949 355.295554,17.5117949 C353.150355,17.5117949 350.890937,18.2677223 348.517764,19.7546654 L348.142107,19.9955172 L347.690413,20.2916706 L347.69,43.21 L343.557,43.21 L343.557,19.012 L343.652539,18.9543788 L344.269688,18.5949532 C346.134184,17.537287 348.115912,16.6652543 350.209438,15.9825157 C352.730073,15.1604887 354.957623,14.7528205 356.887865,14.7528205 Z M217.102986,14.7528205 C220.238294,14.7528205 222.443923,15.3476148 223.744065,16.4737963 L223.901868,16.617332 L224.064145,16.780178 L224.219485,16.9519749 C225.231903,18.1271847 225.780114,19.900947 225.830029,22.3098015 L225.833774,22.6758974 L225.833,43.21 L221.7,43.21 L221.700429,24.0441026 L221.696982,23.7117406 L221.68668,23.3910365 C221.595645,21.2826252 221.056127,19.7670333 219.984171,18.8738056 C218.878473,17.9524625 217.337933,17.5117949 215.392726,17.5117949 C212.988414,17.5117949 210.56231,18.1941605 208.123044,19.5451029 L207.69245,19.790442 L207.197839,20.0801319 L207.197,43.21 L203.064,43.21 L203.064,18.723 L203.58038,18.4273445 C207.947185,15.9758871 212.452224,14.7528205 217.102986,14.7528205 Z M528.510241,14.7528205 C530.611053,14.7528205 532.187395,15.1656933 533.263412,15.9578402 L533.448108,16.1015611 L533.582748,16.2194184 L533.711576,16.3467864 C534.506783,17.1813308 534.951651,18.5872421 534.996277,20.6082345 L535,20.9507692 L535,23.034 L531.338,23.996 L531.33845,23.0328205 L531.335241,22.7513316 L531.325318,22.4760499 C531.170596,19.3037562 529.654093,17.5117949 526.91793,17.5117949 C524.772731,17.5117949 522.513313,18.2677223 520.14014,19.7546654 L519.764483,19.9955172 L519.312789,20.2916706 L519.312,43.21 L515.179,43.21 L515.179,19.012 L515.274915,18.9543788 L515.892064,18.5949532 C517.75656,17.537287 519.738288,16.6652543 521.831814,15.9825157 C524.352449,15.1604887 526.579999,14.7528205 528.510241,14.7528205 Z M181.078301,16.9169231 C178.661567,16.9169231 176.635988,18.0313893 175.078122,20.1864657 C173.560091,22.286436 172.82444,25.3394241 172.82444,29.3384615 C172.82444,33.4107062 173.515898,36.4753427 174.949856,38.5354016 C176.433514,40.6668603 178.508719,41.76 181.078301,41.76 C183.647883,41.76 185.723088,40.6668603 187.206746,38.5354016 C188.640704,36.4753427 189.332162,33.4107062 189.332162,29.3384615 C189.332162,25.3437722 188.618654,22.2955869 187.145404,20.197622 C185.625332,18.0329822 183.573808,16.9169231 181.078301,16.9169231 Z M97.3519858,17.3928205 C95.3561662,17.3928205 93.190978,18.0201744 90.8530175,19.2568876 L90.4386421,19.481453 L89.9237677,19.7670957 L89.9237677,40.4759456 L90.8361833,40.8545284 L91.1716174,40.9803088 C92.6442926,41.5046401 94.3659525,41.76 96.3494196,41.76 C102.139528,41.76 105.016102,37.1174688 105.016102,28.3866667 C105.016102,21.2370484 102.452686,17.3928205 97.3519858,17.3928205 Z M387.366383,29.5876923 L383.240735,29.5876923 L382.873523,29.5897627 L382.511659,29.5960935 C376.053146,29.7486654 372.568921,31.9867987 372.568921,36.3579487 C372.568921,38.0103319 373.137477,39.3007041 374.287074,40.117689 C375.331197,40.8597159 376.614842,41.2246154 378.109956,41.2246154 C379.92302,41.2246154 381.6726,40.7888647 383.346338,39.9230759 C384.875531,39.1320567 386.079668,38.2167379 386.950726,37.1694349 L387.161547,36.904855 L387.366383,36.6362542 L387.366383,29.5876923 Z M65.4555147,16.7384615 C63.3119165,16.7384615 61.4830773,17.602453 60.037375,19.2885785 C58.6983264,20.8503136 57.8604898,23.0718871 57.4947292,25.9400032 L57.443402,26.375068 L57.3230229,27.4830769 L72.9977302,27.4830769 L72.9412745,26.4295655 L72.9147553,26.00688 C72.7037346,23.0801877 71.9590184,20.8279764 70.6435533,19.2656572 C69.2394259,17.5980378 67.4883962,16.7384615 65.4555147,16.7384615 Z M494.667613,16.7384615 C492.524014,16.7384615 490.695175,17.602453 489.249473,19.2885785 C487.910424,20.8503136 487.072588,23.0718871 486.706827,25.9400032 L486.6555,26.375068 L486.535121,27.4830769 L502.209828,27.4830769 L502.153372,26.4295655 L502.126853,26.00688 C501.915832,23.0801877 501.171116,20.8279764 499.855651,19.2656572 C498.451524,17.5980378 496.700494,16.7384615 494.667613,16.7384615 Z M247.46612,16.7384615 C245.322522,16.7384615 243.493683,17.602453 242.04798,19.2885785 C240.708932,20.8503136 239.871095,23.0718871 239.505335,25.9400032 L239.454007,26.375068 L239.333628,27.4830769 L255.008336,27.4830769 L254.95188,26.4295655 L254.925361,26.00688 C254.71434,23.0801877 253.969624,20.8279764 252.654159,19.2656572 C251.250031,17.5980378 249.499002,16.7384615 247.46612,16.7384615 Z" id="Shape"></path>
                    </g>
                    <path d="M1.50114767,60 C2.33020863,60 3.00229533,60.6715729 3.00229533,61.5 C3.00229533,62.3284271 2.33020863,63 1.50114767,63 C0.672086703,63 0,62.3284271 0,61.5 C0,60.6715729 0.672086703,60 1.50114767,60 Z M430.328998,60 C431.158059,60 431.830145,60.6715729 431.830145,61.5 C431.830145,62.3284271 431.158059,63 430.328998,63 C429.499937,63 428.82785,62.3284271 428.82785,61.5 C428.82785,60.6715729 429.499937,60 430.328998,60 Z M215.664881,60 C216.493942,60 217.166029,60.6715729 217.166029,61.5 C217.166029,62.3284271 216.493942,63 215.664881,63 C214.83582,63 214.163734,62.3284271 214.163734,61.5 C214.163734,60.6715729 214.83582,60 215.664881,60 Z M644.993114,60 C645.822175,60 646.494262,60.6715729 646.494262,61.5 C646.494262,62.3284271 645.822175,63 644.993114,63 C644.164053,63 643.491966,62.3284271 643.491966,61.5 C643.491966,60.6715729 644.164053,60 644.993114,60 Z M73.0558531,60 C73.8849141,60 74.5570008,60.6715729 74.5570008,61.5 C74.5570008,62.3284271 73.8849141,63 73.0558531,63 C72.2267921,63 71.5547054,62.3284271 71.5547054,61.5 C71.5547054,60.6715729 72.2267921,60 73.0558531,60 Z M501.883703,60 C502.712764,60 503.384851,60.6715729 503.384851,61.5 C503.384851,62.3284271 502.712764,63 501.883703,63 C501.054642,63 500.382555,62.3284271 500.382555,61.5 C500.382555,60.6715729 501.054642,60 501.883703,60 Z M287.719969,60 C288.54903,60 289.221117,60.6715729 289.221117,61.5 C289.221117,62.3284271 288.54903,63 287.719969,63 C286.890908,63 286.218822,62.3284271 286.218822,61.5 C286.218822,60.6715729 286.890908,60 287.719969,60 Z M144.110176,60 C144.939237,60 145.611324,60.6715729 145.611324,61.5 C145.611324,62.3284271 144.939237,63 144.110176,63 C143.281115,63 142.609028,62.3284271 142.609028,61.5 C142.609028,60.6715729 143.281115,60 144.110176,60 Z M572.938026,60 C573.767087,60 574.439174,60.6715729 574.439174,61.5 C574.439174,62.3284271 573.767087,63 572.938026,63 C572.108965,63 571.436878,62.3284271 571.436878,61.5 C571.436878,60.6715729 572.108965,60 572.938026,60 Z M358.774292,60 C359.603353,60 360.27544,60.6715729 360.27544,61.5 C360.27544,62.3284271 359.603353,63 358.774292,63 C357.945231,63 357.273145,62.3284271 357.273145,61.5 C357.273145,60.6715729 357.945231,60 358.774292,60 Z M25.0191278,60 C25.8481887,60 26.5202754,60.6715729 26.5202754,61.5 C26.5202754,62.3284271 25.8481887,63 25.0191278,63 C24.1900668,63 23.5179801,62.3284271 23.5179801,61.5 C23.5179801,60.6715729 24.1900668,60 25.0191278,60 Z M453.846978,60 C454.676039,60 455.348125,60.6715729 455.348125,61.5 C455.348125,62.3284271 454.676039,63 453.846978,63 C453.017917,63 452.34583,62.3284271 452.34583,61.5 C452.34583,60.6715729 453.017917,60 453.846978,60 Z M239.683244,60 C240.512305,60 241.184392,60.6715729 241.184392,61.5 C241.184392,62.3284271 240.512305,63 239.683244,63 C238.854183,63 238.182096,62.3284271 238.182096,61.5 C238.182096,60.6715729 238.854183,60 239.683244,60 Z M96.5738332,60 C97.4028942,60 98.0749809,60.6715729 98.0749809,61.5 C98.0749809,62.3284271 97.4028942,63 96.5738332,63 C95.7447722,63 95.0726855,62.3284271 95.0726855,61.5 C95.0726855,60.6715729 95.7447722,60 96.5738332,60 Z M525.401683,60 C526.230744,60 526.902831,60.6715729 526.902831,61.5 C526.902831,62.3284271 526.230744,63 525.401683,63 C524.572622,63 523.900536,62.3284271 523.900536,61.5 C523.900536,60.6715729 524.572622,60 525.401683,60 Z M311.23795,60 C312.06701,60 312.739097,60.6715729 312.739097,61.5 C312.739097,62.3284271 312.06701,63 311.23795,63 C310.408889,63 309.736802,62.3284271 309.736802,61.5 C309.736802,60.6715729 310.408889,60 311.23795,60 Z M168.128539,60 C168.9576,60 169.629686,60.6715729 169.629686,61.5 C169.629686,62.3284271 168.9576,63 168.128539,63 C167.299478,63 166.627391,62.3284271 166.627391,61.5 C166.627391,60.6715729 167.299478,60 168.128539,60 Z M596.956389,60 C597.78545,60 598.457536,60.6715729 598.457536,61.5 C598.457536,62.3284271 597.78545,63 596.956389,63 C596.127328,63 595.455241,62.3284271 595.455241,61.5 C595.455241,60.6715729 596.127328,60 596.956389,60 Z M382.792655,60 C383.621716,60 384.293803,60.6715729 384.293803,61.5 C384.293803,62.3284271 383.621716,63 382.792655,63 C381.963594,63 381.291507,62.3284271 381.291507,61.5 C381.291507,60.6715729 381.963594,60 382.792655,60 Z M49.0374904,60 C49.8665514,60 50.5386381,60.6715729 50.5386381,61.5 C50.5386381,62.3284271 49.8665514,63 49.0374904,63 C48.2084295,63 47.5363428,62.3284271 47.5363428,61.5 C47.5363428,60.6715729 48.2084295,60 49.0374904,60 Z M477.86534,60 C478.694401,60 479.366488,60.6715729 479.366488,61.5 C479.366488,62.3284271 478.694401,63 477.86534,63 C477.03628,63 476.364193,62.3284271 476.364193,61.5 C476.364193,60.6715729 477.03628,60 477.86534,60 Z M263.701607,60 C264.530668,60 265.202754,60.6715729 265.202754,61.5 C265.202754,62.3284271 264.530668,63 263.701607,63 C262.872546,63 262.200459,62.3284271 262.200459,61.5 C262.200459,60.6715729 262.872546,60 263.701607,60 Z M120.592196,60 C121.421257,60 122.093344,60.6715729 122.093344,61.5 C122.093344,62.3284271 121.421257,63 120.592196,63 C119.763135,63 119.091048,62.3284271 119.091048,61.5 C119.091048,60.6715729 119.763135,60 120.592196,60 Z M549.420046,60 C550.249107,60 550.921194,60.6715729 550.921194,61.5 C550.921194,62.3284271 550.249107,63 549.420046,63 C548.590985,63 547.918898,62.3284271 547.918898,61.5 C547.918898,60.6715729 548.590985,60 549.420046,60 Z M335.256312,60 C336.085373,60 336.75746,60.6715729 336.75746,61.5 C336.75746,62.3284271 336.085373,63 335.256312,63 C334.427251,63 333.755164,62.3284271 333.755164,61.5 C333.755164,60.6715729 334.427251,60 335.256312,60 Z M192.146901,60 C192.975962,60 193.648049,60.6715729 193.648049,61.5 C193.648049,62.3284271 192.975962,63 192.146901,63 C191.31784,63 190.645754,62.3284271 190.645754,61.5 C190.645754,60.6715729 191.31784,60 192.146901,60 Z M620.974751,60 C621.803812,60 622.475899,60.6715729 622.475899,61.5 C622.475899,62.3284271 621.803812,63 620.974751,63 C620.14569,63 619.473604,62.3284271 619.473604,61.5 C619.473604,60.6715729 620.14569,60 620.974751,60 Z M406.811018,60 C407.640079,60 408.312165,60.6715729 408.312165,61.5 C408.312165,62.3284271 407.640079,63 406.811018,63 C405.981957,63 405.30987,62.3284271 405.30987,61.5 C405.30987,60.6715729 405.981957,60 406.811018,60 Z M9.50726855,60 C10.3363295,60 11.0084162,60.6715729 11.0084162,61.5 C11.0084162,62.3284271 10.3363295,63 9.50726855,63 C8.67820759,63 8.00612089,62.3284271 8.00612089,61.5 C8.00612089,60.6715729 8.67820759,60 9.50726855,60 Z M438.335119,60 C439.16418,60 439.836266,60.6715729 439.836266,61.5 C439.836266,62.3284271 439.16418,63 438.335119,63 C437.506058,63 436.833971,62.3284271 436.833971,61.5 C436.833971,60.6715729 437.506058,60 438.335119,60 Z M223.671002,60 C224.500063,60 225.17215,60.6715729 225.17215,61.5 C225.17215,62.3284271 224.500063,63 223.671002,63 C222.841941,63 222.169855,62.3284271 222.169855,61.5 C222.169855,60.6715729 222.841941,60 223.671002,60 Z M652.498852,60 C653.327913,60 654,60.6715729 654,61.5 C654,62.3284271 653.327913,63 652.498852,63 C651.669791,63 650.997705,62.3284271 650.997705,61.5 C650.997705,60.6715729 651.669791,60 652.498852,60 Z M81.061974,60 C81.8910349,60 82.5631217,60.6715729 82.5631217,61.5 C82.5631217,62.3284271 81.8910349,63 81.061974,63 C80.232913,63 79.5608263,62.3284271 79.5608263,61.5 C79.5608263,60.6715729 80.232913,60 81.061974,60 Z M509.889824,60 C510.718885,60 511.390972,60.6715729 511.390972,61.5 C511.390972,62.3284271 510.718885,63 509.889824,63 C509.060763,63 508.388676,62.3284271 508.388676,61.5 C508.388676,60.6715729 509.060763,60 509.889824,60 Z M295.72609,60 C296.555151,60 297.227238,60.6715729 297.227238,61.5 C297.227238,62.3284271 296.555151,63 295.72609,63 C294.897029,63 294.224943,62.3284271 294.224943,61.5 C294.224943,60.6715729 294.897029,60 295.72609,60 Z M152.116297,60 C152.945358,60 153.617445,60.6715729 153.617445,61.5 C153.617445,62.3284271 152.945358,63 152.116297,63 C151.287236,63 150.615149,62.3284271 150.615149,61.5 C150.615149,60.6715729 151.287236,60 152.116297,60 Z M580.944147,60 C581.773208,60 582.445295,60.6715729 582.445295,61.5 C582.445295,62.3284271 581.773208,63 580.944147,63 C580.115086,63 579.442999,62.3284271 579.442999,61.5 C579.442999,60.6715729 580.115086,60 580.944147,60 Z M366.780413,60 C367.609474,60 368.281561,60.6715729 368.281561,61.5 C368.281561,62.3284271 367.609474,63 366.780413,63 C365.951352,63 365.279265,62.3284271 365.279265,61.5 C365.279265,60.6715729 365.951352,60 366.780413,60 Z M33.0252487,60 C33.8543096,60 34.5263963,60.6715729 34.5263963,61.5 C34.5263963,62.3284271 33.8543096,63 33.0252487,63 C32.1961877,63 31.524101,62.3284271 31.524101,61.5 C31.524101,60.6715729 32.1961877,60 33.0252487,60 Z M461.853099,60 C462.68216,60 463.354246,60.6715729 463.354246,61.5 C463.354246,62.3284271 462.68216,63 461.853099,63 C461.024038,63 460.351951,62.3284271 460.351951,61.5 C460.351951,60.6715729 461.024038,60 461.853099,60 Z M247.689365,60 C248.518426,60 249.190513,60.6715729 249.190513,61.5 C249.190513,62.3284271 248.518426,63 247.689365,63 C246.860304,63 246.188217,62.3284271 246.188217,61.5 C246.188217,60.6715729 246.860304,60 247.689365,60 Z M104.579954,60 C105.409015,60 106.081102,60.6715729 106.081102,61.5 C106.081102,62.3284271 105.409015,63 104.579954,63 C103.750893,63 103.078806,62.3284271 103.078806,61.5 C103.078806,60.6715729 103.750893,60 104.579954,60 Z M533.407804,60 C534.236865,60 534.908952,60.6715729 534.908952,61.5 C534.908952,62.3284271 534.236865,63 533.407804,63 C532.578743,63 531.906656,62.3284271 531.906656,61.5 C531.906656,60.6715729 532.578743,60 533.407804,60 Z M319.24407,60 C320.073131,60 320.745218,60.6715729 320.745218,61.5 C320.745218,62.3284271 320.073131,63 319.24407,63 C318.415009,63 317.742923,62.3284271 317.742923,61.5 C317.742923,60.6715729 318.415009,60 319.24407,60 Z M176.13466,60 C176.96372,60 177.635807,60.6715729 177.635807,61.5 C177.635807,62.3284271 176.96372,63 176.13466,63 C175.305599,63 174.633512,62.3284271 174.633512,61.5 C174.633512,60.6715729 175.305599,60 176.13466,60 Z M604.96251,60 C605.791571,60 606.463657,60.6715729 606.463657,61.5 C606.463657,62.3284271 605.791571,63 604.96251,63 C604.133449,63 603.461362,62.3284271 603.461362,61.5 C603.461362,60.6715729 604.133449,60 604.96251,60 Z M390.798776,60 C391.627837,60 392.299923,60.6715729 392.299923,61.5 C392.299923,62.3284271 391.627837,63 390.798776,63 C389.969715,63 389.297628,62.3284271 389.297628,61.5 C389.297628,60.6715729 389.969715,60 390.798776,60 Z M57.0436113,60 C57.8726723,60 58.544759,60.6715729 58.544759,61.5 C58.544759,62.3284271 57.8726723,63 57.0436113,63 C56.2145504,63 55.5424637,62.3284271 55.5424637,61.5 C55.5424637,60.6715729 56.2145504,60 57.0436113,60 Z M485.871461,60 C486.700522,60 487.372609,60.6715729 487.372609,61.5 C487.372609,62.3284271 486.700522,63 485.871461,63 C485.0424,63 484.370314,62.3284271 484.370314,61.5 C484.370314,60.6715729 485.0424,60 485.871461,60 Z M271.707728,60 C272.536789,60 273.208875,60.6715729 273.208875,61.5 C273.208875,62.3284271 272.536789,63 271.707728,63 C270.878667,63 270.20658,62.3284271 270.20658,61.5 C270.20658,60.6715729 270.878667,60 271.707728,60 Z M128.598317,60 C129.427378,60 130.099464,60.6715729 130.099464,61.5 C130.099464,62.3284271 129.427378,63 128.598317,63 C127.769256,63 127.097169,62.3284271 127.097169,61.5 C127.097169,60.6715729 127.769256,60 128.598317,60 Z M557.426167,60 C558.255228,60 558.927314,60.6715729 558.927314,61.5 C558.927314,62.3284271 558.255228,63 557.426167,63 C556.597106,63 555.925019,62.3284271 555.925019,61.5 C555.925019,60.6715729 556.597106,60 557.426167,60 Z M343.262433,60 C344.091494,60 344.763581,60.6715729 344.763581,61.5 C344.763581,62.3284271 344.091494,63 343.262433,63 C342.433372,63 341.761285,62.3284271 341.761285,61.5 C341.761285,60.6715729 342.433372,60 343.262433,60 Z M199.65264,60 C200.481701,60 201.153787,60.6715729 201.153787,61.5 C201.153787,62.3284271 200.481701,63 199.65264,63 C198.823579,63 198.151492,62.3284271 198.151492,61.5 C198.151492,60.6715729 198.823579,60 199.65264,60 Z M628.980872,60 C629.809933,60 630.48202,60.6715729 630.48202,61.5 C630.48202,62.3284271 629.809933,63 628.980872,63 C628.151811,63 627.479725,62.3284271 627.479725,61.5 C627.479725,60.6715729 628.151811,60 628.980872,60 Z M414.316756,60 C415.145817,60 415.817904,60.6715729 415.817904,61.5 C415.817904,62.3284271 415.145817,63 414.316756,63 C413.487695,63 412.815608,62.3284271 412.815608,61.5 C412.815608,60.6715729 413.487695,60 414.316756,60 Z M17.0130069,60 C17.8420678,60 18.5141546,60.6715729 18.5141546,61.5 C18.5141546,62.3284271 17.8420678,63 17.0130069,63 C16.1839459,63 15.5118592,62.3284271 15.5118592,61.5 C15.5118592,60.6715729 16.1839459,60 17.0130069,60 Z M445.840857,60 C446.669918,60 447.342005,60.6715729 447.342005,61.5 C447.342005,62.3284271 446.669918,63 445.840857,63 C445.011796,63 444.339709,62.3284271 444.339709,61.5 C444.339709,60.6715729 445.011796,60 445.840857,60 Z M232.177506,60 C233.006567,60 233.678653,60.6715729 233.678653,61.5 C233.678653,62.3284271 233.006567,63 232.177506,63 C231.348445,63 230.676358,62.3284271 230.676358,61.5 C230.676358,60.6715729 231.348445,60 232.177506,60 Z M88.5677123,60 C89.3967733,60 90.06886,60.6715729 90.06886,61.5 C90.06886,62.3284271 89.3967733,63 88.5677123,63 C87.7386514,63 87.0665647,62.3284271 87.0665647,61.5 C87.0665647,60.6715729 87.7386514,60 88.5677123,60 Z M517.395562,60 C518.224623,60 518.89671,60.6715729 518.89671,61.5 C518.89671,62.3284271 518.224623,63 517.395562,63 C516.566501,63 515.894415,62.3284271 515.894415,61.5 C515.894415,60.6715729 516.566501,60 517.395562,60 Z M303.231829,60 C304.06089,60 304.732976,60.6715729 304.732976,61.5 C304.732976,62.3284271 304.06089,63 303.231829,63 C302.402768,63 301.730681,62.3284271 301.730681,61.5 C301.730681,60.6715729 302.402768,60 303.231829,60 Z M160.122418,60 C160.951479,60 161.623565,60.6715729 161.623565,61.5 C161.623565,62.3284271 160.951479,63 160.122418,63 C159.293357,63 158.62127,62.3284271 158.62127,61.5 C158.62127,60.6715729 159.293357,60 160.122418,60 Z M588.950268,60 C589.779329,60 590.451415,60.6715729 590.451415,61.5 C590.451415,62.3284271 589.779329,63 588.950268,63 C588.121207,63 587.44912,62.3284271 587.44912,61.5 C587.44912,60.6715729 588.121207,60 588.950268,60 Z M374.786534,60 C375.615595,60 376.287682,60.6715729 376.287682,61.5 C376.287682,62.3284271 375.615595,63 374.786534,63 C373.957473,63 373.285386,62.3284271 373.285386,61.5 C373.285386,60.6715729 373.957473,60 374.786534,60 Z M41.0313695,60 C41.8604305,60 42.5325172,60.6715729 42.5325172,61.5 C42.5325172,62.3284271 41.8604305,63 41.0313695,63 C40.2023086,63 39.5302219,62.3284271 39.5302219,61.5 C39.5302219,60.6715729 40.2023086,60 41.0313695,60 Z M469.85922,60 C470.688281,60 471.360367,60.6715729 471.360367,61.5 C471.360367,62.3284271 470.688281,63 469.85922,63 C469.030159,63 468.358072,62.3284271 468.358072,61.5 C468.358072,60.6715729 469.030159,60 469.85922,60 Z M255.695486,60 C256.524547,60 257.196634,60.6715729 257.196634,61.5 C257.196634,62.3284271 256.524547,63 255.695486,63 C254.866425,63 254.194338,62.3284271 254.194338,61.5 C254.194338,60.6715729 254.866425,60 255.695486,60 Z M112.586075,60 C113.415136,60 114.087223,60.6715729 114.087223,61.5 C114.087223,62.3284271 113.415136,63 112.586075,63 C111.757014,63 111.084927,62.3284271 111.084927,61.5 C111.084927,60.6715729 111.757014,60 112.586075,60 Z M541.413925,60 C542.242986,60 542.915073,60.6715729 542.915073,61.5 C542.915073,62.3284271 542.242986,63 541.413925,63 C540.584864,63 539.912777,62.3284271 539.912777,61.5 C539.912777,60.6715729 540.584864,60 541.413925,60 Z M327.250191,60 C328.079252,60 328.751339,60.6715729 328.751339,61.5 C328.751339,62.3284271 328.079252,63 327.250191,63 C326.42113,63 325.749044,62.3284271 325.749044,61.5 C325.749044,60.6715729 326.42113,60 327.250191,60 Z M184.14078,60 C184.969841,60 185.641928,60.6715729 185.641928,61.5 C185.641928,62.3284271 184.969841,63 184.14078,63 C183.311719,63 182.639633,62.3284271 182.639633,61.5 C182.639633,60.6715729 183.311719,60 184.14078,60 Z M612.96863,60 C613.797691,60 614.469778,60.6715729 614.469778,61.5 C614.469778,62.3284271 613.797691,63 612.96863,63 C612.139569,63 611.467483,62.3284271 611.467483,61.5 C611.467483,60.6715729 612.139569,60 612.96863,60 Z M398.804897,60 C399.633958,60 400.306044,60.6715729 400.306044,61.5 C400.306044,62.3284271 399.633958,63 398.804897,63 C397.975836,63 397.303749,62.3284271 397.303749,61.5 C397.303749,60.6715729 397.975836,60 398.804897,60 Z M65.0497322,60 C65.8787932,60 66.5508799,60.6715729 66.5508799,61.5 C66.5508799,62.3284271 65.8787932,63 65.0497322,63 C64.2206712,63 63.5485845,62.3284271 63.5485845,61.5 C63.5485845,60.6715729 64.2206712,60 65.0497322,60 Z M493.877582,60 C494.706643,60 495.37873,60.6715729 495.37873,61.5 C495.37873,62.3284271 494.706643,63 493.877582,63 C493.048521,63 492.376435,62.3284271 492.376435,61.5 C492.376435,60.6715729 493.048521,60 493.877582,60 Z M279.713849,60 C280.542909,60 281.214996,60.6715729 281.214996,61.5 C281.214996,62.3284271 280.542909,63 279.713849,63 C278.884788,63 278.212701,62.3284271 278.212701,61.5 C278.212701,60.6715729 278.884788,60 279.713849,60 Z M136.604438,60 C137.433499,60 138.105585,60.6715729 138.105585,61.5 C138.105585,62.3284271 137.433499,63 136.604438,63 C135.775377,63 135.10329,62.3284271 135.10329,61.5 C135.10329,60.6715729 135.775377,60 136.604438,60 Z M565.432288,60 C566.261349,60 566.933435,60.6715729 566.933435,61.5 C566.933435,62.3284271 566.261349,63 565.432288,63 C564.603227,63 563.93114,62.3284271 563.93114,61.5 C563.93114,60.6715729 564.603227,60 565.432288,60 Z M351.268554,60 C352.097615,60 352.769702,60.6715729 352.769702,61.5 C352.769702,62.3284271 352.097615,63 351.268554,63 C350.439493,63 349.767406,62.3284271 349.767406,61.5 C349.767406,60.6715729 350.439493,60 351.268554,60 Z M207.658761,60 C208.487821,60 209.159908,60.6715729 209.159908,61.5 C209.159908,62.3284271 208.487821,63 207.658761,63 C206.8297,63 206.157613,62.3284271 206.157613,61.5 C206.157613,60.6715729 206.8297,60 207.658761,60 Z M636.986993,60 C637.816054,60 638.488141,60.6715729 638.488141,61.5 C638.488141,62.3284271 637.816054,63 636.986993,63 C636.157932,63 635.485845,62.3284271 635.485845,61.5 C635.485845,60.6715729 636.157932,60 636.986993,60 Z M422.322877,60 C423.151938,60 423.824024,60.6715729 423.824024,61.5 C423.824024,62.3284271 423.151938,63 422.322877,63 C421.493816,63 420.821729,62.3284271 420.821729,61.5 C420.821729,60.6715729 421.493816,60 422.322877,60 Z" id="Combined-Shape"></path>
                </g>
                <path d="M102.967663,98.2734375 C103.824434,98.2734375 104.608288,98.2073568 105.319225,98.0751953 C106.030163,97.9430339 106.804902,97.6946615 107.643444,97.3300781 L107.643444,97.3300781 L107.643444,96.0996094 C106.659069,96.4915365 105.845592,96.7467448 105.203014,96.8652344 C104.560436,96.983724 103.815319,97.0429688 102.967663,97.0429688 C101.226777,97.0429688 99.8892122,96.5052083 98.9549674,95.4296875 C98.0207226,94.3541667 97.5444857,92.7955729 97.5262565,90.7539062 L97.5262565,90.7539062 L108.231335,90.7539062 L108.231335,89.6601562 C108.231335,87.5638021 107.725475,85.9049479 106.713756,84.6835938 C105.702038,83.4622396 104.321178,82.8515625 102.571178,82.8515625 C100.593314,82.8515625 99.0210482,83.5647786 97.8543815,84.9912109 C96.6877148,86.4176432 96.1043815,88.3157552 96.1043815,90.6855469 C96.1043815,93.0826823 96.7082226,94.9466146 97.9159049,96.2773438 C99.1235872,97.6080729 100.807506,98.2734375 102.967663,98.2734375 Z M106.795788,89.5507812 L97.6082877,89.5507812 C97.7541211,87.7734375 98.2599804,86.4130859 99.1258659,85.4697266 C99.9917513,84.5263672 101.140189,84.0546875 102.571178,84.0546875 C103.892793,84.0546875 104.927298,84.5400391 105.674694,85.5107422 C106.42209,86.4814453 106.795788,87.828125 106.795788,89.5507812 L106.795788,89.5507812 Z M114.812338,98 L114.812338,76.7265625 L113.458823,76.7265625 L113.458823,98 L114.812338,98 Z M130.667705,98 L130.667705,89.796875 C130.667705,87.8007812 131.023174,86.3492839 131.734111,85.4423828 C132.445049,84.5354818 133.579815,84.0820312 135.138408,84.0820312 C137.435283,84.0820312 138.583721,85.3352865 138.583721,87.8417969 L138.583721,87.8417969 L138.583721,98 L139.96458,98 L139.96458,89.2910156 C139.96458,87.4954427 140.329164,86.1783854 141.05833,85.3398438 C141.787497,84.5013021 142.913148,84.0820312 144.435283,84.0820312 C145.60195,84.0820312 146.467835,84.4147135 147.03294,85.0800781 C147.598044,85.7454427 147.880596,86.8027344 147.880596,88.2519531 L147.880596,88.2519531 L147.880596,98 L149.22044,98 L149.22044,88.2792969 C149.22044,86.3925781 148.814841,85.016276 148.003643,84.1503906 C147.192445,83.2845052 145.975648,82.8515625 144.353252,82.8515625 C143.31419,82.8515625 142.386781,83.0794271 141.571026,83.5351562 C140.75527,83.9908854 140.105856,84.6425781 139.622783,85.4902344 L139.622783,85.4902344 L139.568096,85.4902344 C138.902731,83.7311198 137.398825,82.8515625 135.056377,82.8515625 C134.144919,82.8515625 133.310934,83.054362 132.554424,83.4599609 C131.797914,83.8655599 131.21458,84.4375 130.804424,85.1757812 L130.804424,85.1757812 L130.722393,85.1757812 L130.435283,83.1386719 L129.31419,83.1386719 L129.31419,98 L130.667705,98 Z M161.160818,98.2734375 C162.017589,98.2734375 162.801443,98.2073568 163.512381,98.0751953 C164.223318,97.9430339 164.998058,97.6946615 165.8366,97.3300781 L165.8366,97.3300781 L165.8366,96.0996094 C164.852225,96.4915365 164.038748,96.7467448 163.39617,96.8652344 C162.753592,96.983724 162.008475,97.0429688 161.160818,97.0429688 C159.419933,97.0429688 158.082368,96.5052083 157.148123,95.4296875 C156.213878,94.3541667 155.737641,92.7955729 155.719412,90.7539062 L155.719412,90.7539062 L166.42449,90.7539062 L166.42449,89.6601562 C166.42449,87.5638021 165.918631,85.9049479 164.906912,84.6835938 C163.895193,83.4622396 162.514334,82.8515625 160.764334,82.8515625 C158.786469,82.8515625 157.214204,83.5647786 156.047537,84.9912109 C154.88087,86.4176432 154.297537,88.3157552 154.297537,90.6855469 C154.297537,93.0826823 154.901378,94.9466146 156.109061,96.2773438 C157.316743,97.6080729 159.000662,98.2734375 161.160818,98.2734375 Z M164.988943,89.5507812 L155.801443,89.5507812 C155.947277,87.7734375 156.453136,86.4130859 157.319022,85.4697266 C158.184907,84.5263672 159.333344,84.0546875 160.764334,84.0546875 C162.085949,84.0546875 163.120454,84.5400391 163.86785,85.5107422 C164.615245,86.4814453 164.988943,87.828125 164.988943,89.5507812 L164.988943,89.5507812 Z M172.3219,80.3359375 C172.604452,80.3359375 172.825481,80.2174479 172.984986,79.9804688 C173.144491,79.7434896 173.224244,79.4199219 173.224244,79.0097656 C173.224244,78.5904948 173.144491,78.2669271 172.984986,78.0390625 C172.825481,77.8111979 172.604452,77.6972656 172.3219,77.6972656 C171.747682,77.6972656 171.460572,78.1347656 171.460572,79.0097656 C171.460572,79.8938802 171.747682,80.3359375 172.3219,80.3359375 Z M169.669557,104.726562 C170.735963,104.726562 171.558554,104.39388 172.13733,103.728516 C172.716106,103.063151 173.005494,102.115234 173.005494,100.884766 L173.005494,100.884766 L173.005494,83.1386719 L171.651978,83.1386719 L171.651978,101.076172 C171.651978,102.680339 170.963827,103.482422 169.587525,103.482422 C169.04065,103.482422 168.45276,103.391276 167.823853,103.208984 L167.823853,103.208984 L167.823853,104.384766 C168.325155,104.61263 168.94039,104.726562 169.669557,104.726562 Z M184.768138,98.2734375 C186.837149,98.2734375 188.459545,97.5921224 189.635326,96.2294922 C190.811107,94.866862 191.398998,92.9733073 191.398998,90.5488281 C191.398998,88.1608073 190.817943,86.2809245 189.655834,84.9091797 C188.493724,83.5374349 186.891836,82.8515625 184.85017,82.8515625 C182.799388,82.8515625 181.186107,83.5283203 180.010326,84.8818359 C178.834545,86.2353516 178.246654,88.124349 178.246654,90.5488281 C178.246654,92.0891927 178.510977,93.4472656 179.039623,94.6230469 C179.568269,95.7988281 180.329336,96.7011719 181.322826,97.3300781 C182.316315,97.9589844 183.464753,98.2734375 184.768138,98.2734375 Z M184.822826,97.0429688 C183.182201,97.0429688 181.912995,96.4710286 181.015209,95.3271484 C180.117422,94.1832682 179.668529,92.5904948 179.668529,90.5488281 C179.668529,88.4889323 180.112865,86.8961589 181.001537,85.7705078 C181.890209,84.6448568 183.154857,84.0820312 184.795482,84.0820312 C186.436107,84.0820312 187.70987,84.6471354 188.616771,85.7773438 C189.523672,86.9075521 189.977123,88.4980469 189.977123,90.5488281 C189.977123,92.5904948 189.52823,94.1832682 188.630443,95.3271484 C187.732657,96.4710286 186.463451,97.0429688 184.822826,97.0429688 Z M197.993673,98 L197.993673,89.796875 C197.993673,88.15625 198.399272,86.7981771 199.21047,85.7226562 C200.021668,84.6471354 201.060731,84.109375 202.327658,84.109375 C202.993022,84.109375 203.6356,84.186849 204.255392,84.3417969 L204.255392,84.3417969 L204.515158,83.0429688 C203.795106,82.9153646 203.120627,82.8515625 202.49172,82.8515625 C201.507345,82.8515625 200.668804,83.0725911 199.976095,83.5146484 C199.283387,83.9567057 198.631694,84.7246094 198.021017,85.8183594 L198.021017,85.8183594 L197.925314,85.8183594 L197.788595,83.1386719 L196.640158,83.1386719 L196.640158,98 L197.993673,98 Z M220.452556,98.2734375 C222.311931,98.2734375 223.747478,97.9156901 224.759197,97.2001953 C225.770915,96.4847005 226.276775,95.4615885 226.276775,94.1308594 C226.276775,93.4654948 226.124105,92.8867188 225.818767,92.3945312 C225.513428,91.9023438 225.05542,91.4625651 224.444743,91.0751953 C223.834066,90.6878255 222.858806,90.2526042 221.518962,89.7695312 C219.914795,89.1953125 218.836996,88.6757812 218.285564,88.2109375 C217.734131,87.7460938 217.458415,87.1263021 217.458415,86.3515625 C217.458415,85.640625 217.813884,85.0846354 218.524822,84.6835938 C219.235759,84.2825521 220.197348,84.0820312 221.409587,84.0820312 C222.658285,84.0820312 224.011801,84.3828125 225.470134,84.984375 L225.470134,84.984375 L225.975993,83.7539062 C224.535889,83.1523438 223.013754,82.8515625 221.409587,82.8515625 C219.732504,82.8515625 218.42684,83.1751302 217.492595,83.8222656 C216.55835,84.469401 216.091228,85.3489583 216.091228,86.4609375 C216.091228,87.1627604 216.243897,87.757487 216.549236,88.2451172 C216.854574,88.7327474 217.308025,89.1702474 217.909587,89.5576172 C218.51115,89.944987 219.554769,90.4075521 221.040447,90.9453125 C222.425863,91.4375 223.421631,91.9388021 224.027751,92.4492188 C224.633871,92.9596354 224.936931,93.5885417 224.936931,94.3359375 C224.936931,95.1471354 224.556397,95.7965495 223.795329,96.2841797 C223.034262,96.7718099 221.920004,97.015625 220.452556,97.015625 C218.793702,97.015625 217.216879,96.6419271 215.722087,95.8945312 L215.722087,95.8945312 L215.722087,97.3574219 C216.888754,97.968099 218.465577,98.2734375 220.452556,98.2734375 Z M231.900747,80.3359375 C232.183299,80.3359375 232.404328,80.2174479 232.563833,79.9804688 C232.723338,79.7434896 232.803091,79.4199219 232.803091,79.0097656 C232.803091,78.5904948 232.723338,78.2669271 232.563833,78.0390625 C232.404328,77.8111979 232.183299,77.6972656 231.900747,77.6972656 C231.326528,77.6972656 231.039419,78.1347656 231.039419,79.0097656 C231.039419,79.8938802 231.326528,80.3359375 231.900747,80.3359375 Z M232.584341,98 L232.584341,83.1386719 L231.230825,83.1386719 L231.230825,98 L232.584341,98 Z M242.077454,98.2734375 C243.936829,98.2734375 245.372376,97.9156901 246.384095,97.2001953 C247.395813,96.4847005 247.901673,95.4615885 247.901673,94.1308594 C247.901673,93.4654948 247.749004,92.8867188 247.443665,92.3945312 C247.138326,91.9023438 246.680319,91.4625651 246.069642,91.0751953 C245.458964,90.6878255 244.483704,90.2526042 243.14386,89.7695312 C241.539694,89.1953125 240.461894,88.6757812 239.910462,88.2109375 C239.35903,87.7460938 239.083313,87.1263021 239.083313,86.3515625 C239.083313,85.640625 239.438782,85.0846354 240.14972,84.6835938 C240.860657,84.2825521 241.822246,84.0820312 243.034485,84.0820312 C244.283183,84.0820312 245.636699,84.3828125 247.095032,84.984375 L247.095032,84.984375 L247.600892,83.7539062 C246.160787,83.1523438 244.638652,82.8515625 243.034485,82.8515625 C241.357402,82.8515625 240.051738,83.1751302 239.117493,83.8222656 C238.183248,84.469401 237.716126,85.3489583 237.716126,86.4609375 C237.716126,87.1627604 237.868795,87.757487 238.174134,88.2451172 C238.479472,88.7327474 238.932923,89.1702474 239.534485,89.5576172 C240.136048,89.944987 241.179668,90.4075521 242.665345,90.9453125 C244.050761,91.4375 245.04653,91.9388021 245.652649,92.4492188 C246.258769,92.9596354 246.561829,93.5885417 246.561829,94.3359375 C246.561829,95.1471354 246.181295,95.7965495 245.420227,96.2841797 C244.65916,96.7718099 243.544902,97.015625 242.077454,97.015625 C240.4186,97.015625 238.841777,96.6419271 237.346985,95.8945312 L237.346985,95.8945312 L237.346985,97.3574219 C238.513652,97.968099 240.090475,98.2734375 242.077454,98.2734375 Z M256.752208,98.2734375 C257.608979,98.2734375 258.365489,98.1640625 259.021739,97.9453125 L259.021739,97.9453125 L259.021739,96.8515625 C258.383718,96.9973958 257.636322,97.0703125 256.779552,97.0703125 C255.922781,97.0703125 255.293874,96.796875 254.892833,96.25 C254.491791,95.703125 254.29127,94.860026 254.29127,93.7207031 L254.29127,93.7207031 L254.29127,84.3144531 L258.652598,84.3144531 L258.652598,83.1386719 L254.29127,83.1386719 L254.29127,79.5429688 L253.594005,79.5429688 L252.910411,82.90625 L250.709239,83.5214844 L250.709239,84.3144531 L252.910411,84.3144531 L252.910411,93.9121094 C252.910411,95.4160156 253.222585,96.5188802 253.846934,97.2207031 C254.471283,97.922526 255.439708,98.2734375 256.752208,98.2734375 Z M269.362508,98.2734375 C270.219279,98.2734375 271.003133,98.2073568 271.714071,98.0751953 C272.425008,97.9430339 273.199748,97.6946615 274.03829,97.3300781 L274.03829,97.3300781 L274.03829,96.0996094 C273.053915,96.4915365 272.240438,96.7467448 271.59786,96.8652344 C270.955282,96.983724 270.210165,97.0429688 269.362508,97.0429688 C267.621623,97.0429688 266.284058,96.5052083 265.349813,95.4296875 C264.415568,94.3541667 263.939331,92.7955729 263.921102,90.7539062 L263.921102,90.7539062 L274.62618,90.7539062 L274.62618,89.6601562 C274.62618,87.5638021 274.120321,85.9049479 273.108602,84.6835938 C272.096883,83.4622396 270.716024,82.8515625 268.966024,82.8515625 C266.988159,82.8515625 265.415894,83.5647786 264.249227,84.9912109 C263.082561,86.4176432 262.499227,88.3157552 262.499227,90.6855469 C262.499227,93.0826823 263.103068,94.9466146 264.310751,96.2773438 C265.518433,97.6080729 267.202352,98.2734375 269.362508,98.2734375 Z M273.190633,89.5507812 L264.003133,89.5507812 C264.148967,87.7734375 264.654826,86.4130859 265.520712,85.4697266 C266.386597,84.5263672 267.535034,84.0546875 268.966024,84.0546875 C270.287639,84.0546875 271.322144,84.5400391 272.06954,85.5107422 C272.816936,86.4814453 273.190633,87.828125 273.190633,89.5507812 L273.190633,89.5507812 Z M281.207184,98 L281.207184,89.796875 C281.207184,87.8007812 281.562653,86.3492839 282.27359,85.4423828 C282.984528,84.5354818 284.119293,84.0820312 285.677887,84.0820312 C287.974762,84.0820312 289.1232,85.3352865 289.1232,87.8417969 L289.1232,87.8417969 L289.1232,98 L290.504059,98 L290.504059,89.2910156 C290.504059,87.4954427 290.868642,86.1783854 291.597809,85.3398438 C292.326976,84.5013021 293.452627,84.0820312 294.974762,84.0820312 C296.141429,84.0820312 297.007314,84.4147135 297.572418,85.0800781 C298.137523,85.7454427 298.420075,86.8027344 298.420075,88.2519531 L298.420075,88.2519531 L298.420075,98 L299.759918,98 L299.759918,88.2792969 C299.759918,86.3925781 299.354319,85.016276 298.543122,84.1503906 C297.731924,83.2845052 296.515127,82.8515625 294.892731,82.8515625 C293.853668,82.8515625 292.92626,83.0794271 292.110504,83.5351562 C291.294749,83.9908854 290.645335,84.6425781 290.162262,85.4902344 L290.162262,85.4902344 L290.107575,85.4902344 C289.44221,83.7311198 287.938304,82.8515625 285.595856,82.8515625 C284.684398,82.8515625 283.850413,83.054362 283.093903,83.4599609 C282.337392,83.8655599 281.754059,84.4375 281.343903,85.1757812 L281.343903,85.1757812 L281.261872,85.1757812 L280.974762,83.1386719 L279.853668,83.1386719 L279.853668,98 L281.207184,98 Z M309.171,98.2734375 C310.246521,98.2734375 311.178487,98.0751953 311.966899,97.6787109 C312.75531,97.2822266 313.523214,96.6054688 314.27061,95.6484375 L314.27061,95.6484375 L314.379985,95.6484375 L314.721782,98 L315.719828,98 L315.719828,88.1152344 C315.719828,86.3196615 315.316508,84.9980469 314.509867,84.1503906 C313.703227,83.3027344 312.484151,82.8789062 310.852641,82.8789062 C309.257589,82.8789062 307.644308,83.2617188 306.012797,84.0273438 L306.012797,84.0273438 L306.518657,85.203125 C307.995219,84.4375 309.421651,84.0546875 310.797953,84.0546875 C312.073995,84.0546875 312.999125,84.4147135 313.573344,85.1347656 C314.147563,85.8548177 314.434672,86.921224 314.434672,88.3339844 L314.434672,88.3339844 L314.434672,89.3183594 L311.604594,89.4003906 C309.316834,89.4459635 307.569112,89.8697917 306.36143,90.671875 C305.153748,91.4739583 304.549907,92.5996094 304.549907,94.0488281 C304.549907,95.3704427 304.955506,96.4049479 305.766703,97.1523438 C306.577901,97.8997396 307.712667,98.2734375 309.171,98.2734375 Z M309.253032,97.0429688 C308.213969,97.0429688 307.409607,96.7854818 306.839946,96.2705078 C306.270284,95.7555339 305.985453,95.0332031 305.985453,94.1035156 C305.985453,92.936849 306.429789,92.0777995 307.318461,91.5263672 C308.207133,90.9749349 309.695089,90.6490885 311.782328,90.5488281 L311.782328,90.5488281 L314.379985,90.4394531 L314.379985,91.9023438 C314.379985,93.515625 313.921977,94.7757161 313.005961,95.6826172 C312.089946,96.5895182 310.838969,97.0429688 309.253032,97.0429688 Z M334.96582,98.2734375 C337.435872,98.2734375 339.153971,97.4986979 340.120117,95.9492188 L340.120117,95.9492188 L340.202148,95.9492188 L340.448242,98 L341.59668,98 L341.59668,83.1386719 L340.256836,83.1386719 L340.256836,91.3417969 C340.256836,93.3561198 339.839844,94.8098958 339.005859,95.703125 C338.171875,96.5963542 336.870768,97.0429688 335.102539,97.0429688 C333.780924,97.0429688 332.805664,96.7034505 332.176758,96.0244141 C331.547852,95.3453776 331.233398,94.2584635 331.233398,92.7636719 L331.233398,92.7636719 L331.233398,83.1386719 L329.893555,83.1386719 L329.893555,92.8457031 C329.893555,96.4641927 331.58431,98.2734375 334.96582,98.2734375 Z M349.052683,98 L349.052683,89.796875 C349.052683,87.7825521 349.465118,86.3264974 350.289988,85.4287109 C351.114858,84.5309245 352.415965,84.0820312 354.193308,84.0820312 C355.514923,84.0820312 356.490183,84.4215495 357.11909,85.1005859 C357.747996,85.7796224 358.062449,86.8665365 358.062449,88.3613281 L358.062449,88.3613281 L358.062449,98 L359.402293,98 L359.402293,88.2792969 C359.402293,84.6608073 357.716095,82.8515625 354.343699,82.8515625 C351.873647,82.8515625 350.155548,83.6263021 349.189402,85.1757812 L349.189402,85.1757812 L349.107371,85.1757812 L348.847605,83.1386719 L347.699168,83.1386719 L347.699168,98 L349.052683,98 Z M366.01064,80.3359375 C366.293192,80.3359375 366.514221,80.2174479 366.673726,79.9804688 C366.833231,79.7434896 366.912984,79.4199219 366.912984,79.0097656 C366.912984,78.5904948 366.833231,78.2669271 366.673726,78.0390625 C366.514221,77.8111979 366.293192,77.6972656 366.01064,77.6972656 C365.436422,77.6972656 365.149312,78.1347656 365.149312,79.0097656 C365.149312,79.8938802 365.436422,80.3359375 366.01064,80.3359375 Z M366.694234,98 L366.694234,83.1386719 L365.340718,83.1386719 L365.340718,98 L366.694234,98 Z M377.417816,98 L383.160003,83.1386719 L381.765472,83.1386719 L377.923675,93.2148438 C377.531748,94.2539062 377.148936,95.3932292 376.775238,96.6328125 L376.775238,96.6328125 L376.693207,96.6328125 C376.437998,95.6666667 376.055186,94.5364583 375.544769,93.2421875 L375.544769,93.2421875 L371.702972,83.1386719 L370.308441,83.1386719 L376.050628,98 L377.417816,98 Z M392.776163,98.2734375 C393.632934,98.2734375 394.416788,98.2073568 395.127726,98.0751953 C395.838663,97.9430339 396.613403,97.6946615 397.451945,97.3300781 L397.451945,97.3300781 L397.451945,96.0996094 C396.46757,96.4915365 395.654093,96.7467448 395.011515,96.8652344 C394.368937,96.983724 393.62382,97.0429688 392.776163,97.0429688 C391.035278,97.0429688 389.697713,96.5052083 388.763468,95.4296875 C387.829223,94.3541667 387.352986,92.7955729 387.334757,90.7539062 L387.334757,90.7539062 L398.039835,90.7539062 L398.039835,89.6601562 C398.039835,87.5638021 397.533976,85.9049479 396.522257,84.6835938 C395.510538,83.4622396 394.129679,82.8515625 392.379679,82.8515625 C390.401814,82.8515625 388.829549,83.5647786 387.662882,84.9912109 C386.496216,86.4176432 385.912882,88.3157552 385.912882,90.6855469 C385.912882,93.0826823 386.516723,94.9466146 387.724406,96.2773438 C388.932088,97.6080729 390.616007,98.2734375 392.776163,98.2734375 Z M396.604288,89.5507812 L387.416788,89.5507812 C387.562622,87.7734375 388.068481,86.4130859 388.934367,85.4697266 C389.800252,84.5263672 390.948689,84.0546875 392.379679,84.0546875 C393.701294,84.0546875 394.735799,84.5400391 395.483195,85.5107422 C396.230591,86.4814453 396.604288,87.828125 396.604288,89.5507812 L396.604288,89.5507812 Z M404.620839,98 L404.620839,89.796875 C404.620839,88.15625 405.026438,86.7981771 405.837636,85.7226562 C406.648834,84.6471354 407.687896,84.109375 408.954823,84.109375 C409.620188,84.109375 410.262766,84.186849 410.882558,84.3417969 L410.882558,84.3417969 L411.142323,83.0429688 C410.422271,82.9153646 409.747792,82.8515625 409.118886,82.8515625 C408.134511,82.8515625 407.295969,83.0725911 406.603261,83.5146484 C405.910553,83.9567057 405.25886,84.7246094 404.648183,85.8183594 L404.648183,85.8183594 L404.55248,85.8183594 L404.415761,83.1386719 L403.267323,83.1386719 L403.267323,98 L404.620839,98 Z M418.680358,98.2734375 C420.539733,98.2734375 421.97528,97.9156901 422.986999,97.2001953 C423.998718,96.4847005 424.504577,95.4615885 424.504577,94.1308594 C424.504577,93.4654948 424.351908,92.8867188 424.046569,92.3945312 C423.741231,91.9023438 423.283223,91.4625651 422.672546,91.0751953 C422.061869,90.6878255 421.086608,90.2526042 419.746765,89.7695312 C418.142598,89.1953125 417.064799,88.6757812 416.513366,88.2109375 C415.961934,87.7460938 415.686218,87.1263021 415.686218,86.3515625 C415.686218,85.640625 416.041687,85.0846354 416.752624,84.6835938 C417.463562,84.2825521 418.42515,84.0820312 419.63739,84.0820312 C420.886088,84.0820312 422.239603,84.3828125 423.697937,84.984375 L423.697937,84.984375 L424.203796,83.7539062 C422.763692,83.1523438 421.241556,82.8515625 419.63739,82.8515625 C417.960306,82.8515625 416.654642,83.1751302 415.720398,83.8222656 C414.786153,84.469401 414.31903,85.3489583 414.31903,86.4609375 C414.31903,87.1627604 414.4717,87.757487 414.777038,88.2451172 C415.082377,88.7327474 415.535827,89.1702474 416.13739,89.5576172 C416.738952,89.944987 417.782572,90.4075521 419.268249,90.9453125 C420.653666,91.4375 421.649434,91.9388021 422.255554,92.4492188 C422.861674,92.9596354 423.164733,93.5885417 423.164733,94.3359375 C423.164733,95.1471354 422.7842,95.7965495 422.023132,96.2841797 C421.262064,96.7718099 420.147806,97.015625 418.680358,97.015625 C417.021504,97.015625 415.444681,96.6419271 413.94989,95.8945312 L413.94989,95.8945312 L413.94989,97.3574219 C415.116556,97.968099 416.693379,98.2734375 418.680358,98.2734375 Z M432.931284,98.2734375 C434.006805,98.2734375 434.938771,98.0751953 435.727183,97.6787109 C436.515594,97.2822266 437.283498,96.6054688 438.030893,95.6484375 L438.030893,95.6484375 L438.140268,95.6484375 L438.482065,98 L439.480112,98 L439.480112,88.1152344 C439.480112,86.3196615 439.076792,84.9980469 438.270151,84.1503906 C437.463511,83.3027344 436.244435,82.8789062 434.612925,82.8789062 C433.017873,82.8789062 431.404591,83.2617188 429.773081,84.0273438 L429.773081,84.0273438 L430.27894,85.203125 C431.755503,84.4375 433.181935,84.0546875 434.558237,84.0546875 C435.834279,84.0546875 436.759409,84.4147135 437.333628,85.1347656 C437.907847,85.8548177 438.194956,86.921224 438.194956,88.3339844 L438.194956,88.3339844 L438.194956,89.3183594 L435.364878,89.4003906 C433.077117,89.4459635 431.329396,89.8697917 430.121714,90.671875 C428.914031,91.4739583 428.31019,92.5996094 428.31019,94.0488281 C428.31019,95.3704427 428.715789,96.4049479 429.526987,97.1523438 C430.338185,97.8997396 431.472951,98.2734375 432.931284,98.2734375 Z M433.013315,97.0429688 C431.974253,97.0429688 431.169891,96.7854818 430.600229,96.2705078 C430.030568,95.7555339 429.745737,95.0332031 429.745737,94.1035156 C429.745737,92.936849 430.190073,92.0777995 431.078745,91.5263672 C431.967417,90.9749349 433.455373,90.6490885 435.542612,90.5488281 L435.542612,90.5488281 L438.140268,90.4394531 L438.140268,91.9023438 C438.140268,93.515625 437.682261,94.7757161 436.766245,95.6826172 C435.850229,96.5895182 434.599253,97.0429688 433.013315,97.0429688 Z M446.772053,98 L446.772053,76.7265625 L445.418538,76.7265625 L445.418538,98 L446.772053,98 Z M466.742655,98.2734375 C468.857238,98.2734375 470.479634,97.4257812 471.609842,95.7304688 L471.609842,95.7304688 L471.719217,95.7304688 L472.061014,98 L472.949686,98 L472.949686,76.7265625 L471.609842,76.7265625 L471.609842,82.0722656 C471.609842,83.1751302 471.637186,84.3007812 471.691873,85.4492188 L471.691873,85.4492188 L471.609842,85.4492188 C470.990051,84.5013021 470.288228,83.8313802 469.504373,83.4394531 C468.720519,83.047526 467.790832,82.8515625 466.715311,82.8515625 C464.66453,82.8515625 463.101379,83.530599 462.025858,84.8886719 C460.950337,86.2467448 460.412577,88.2109375 460.412577,90.78125 C460.412577,93.2239583 460.954894,95.0833333 462.03953,96.359375 C463.124165,97.6354167 464.691873,98.2734375 466.742655,98.2734375 Z M466.742655,97.0703125 C463.470519,97.0703125 461.834452,94.9648438 461.834452,90.7539062 C461.834452,88.5846354 462.242329,86.9303385 463.058084,85.7910156 C463.87384,84.6516927 465.092915,84.0820312 466.715311,84.0820312 C468.437967,84.0820312 469.684387,84.585612 470.454569,85.5927734 C471.224751,86.5999349 471.609842,88.2519531 471.609842,90.5488281 L471.609842,90.5488281 L471.609842,90.78125 C471.609842,93.0234375 471.217915,94.6321615 470.434061,95.6074219 C469.650207,96.5826823 468.419738,97.0703125 466.742655,97.0703125 Z M485.067799,98.2734375 C485.92457,98.2734375 486.708424,98.2073568 487.419362,98.0751953 C488.130299,97.9430339 488.905039,97.6946615 489.74358,97.3300781 L489.74358,97.3300781 L489.74358,96.0996094 C488.759205,96.4915365 487.945729,96.7467448 487.303151,96.8652344 C486.660573,96.983724 485.915455,97.0429688 485.067799,97.0429688 C483.326914,97.0429688 481.989349,96.5052083 481.055104,95.4296875 C480.120859,94.3541667 479.644622,92.7955729 479.626393,90.7539062 L479.626393,90.7539062 L490.331471,90.7539062 L490.331471,89.6601562 C490.331471,87.5638021 489.825612,85.9049479 488.813893,84.6835938 C487.802174,83.4622396 486.421315,82.8515625 484.671315,82.8515625 C482.69345,82.8515625 481.121185,83.5647786 479.954518,84.9912109 C478.787851,86.4176432 478.204518,88.3157552 478.204518,90.6855469 C478.204518,93.0826823 478.808359,94.9466146 480.016041,96.2773438 C481.223724,97.6080729 482.907643,98.2734375 485.067799,98.2734375 Z M488.895924,89.5507812 L479.708424,89.5507812 C479.854257,87.7734375 480.360117,86.4130859 481.226002,85.4697266 C482.091888,84.5263672 483.240325,84.0546875 484.671315,84.0546875 C485.992929,84.0546875 487.027435,84.5400391 487.77483,85.5107422 C488.522226,86.4814453 488.895924,87.828125 488.895924,89.5507812 L488.895924,89.5507812 Z M505.311838,104.726562 L505.311838,99.0664062 C505.311838,98.2643229 505.293609,97.5260417 505.25715,96.8515625 L505.25715,96.8515625 L505.216135,95.703125 L505.311838,95.703125 C506.360015,97.4166667 508.027984,98.2734375 510.315744,98.2734375 C512.229807,98.2734375 513.740549,97.601237 514.847971,96.2568359 C515.955393,94.9124349 516.509103,93.0188802 516.509103,90.5761719 C516.509103,88.0605469 515.982736,86.1442057 514.930002,84.8271484 C513.877268,83.5100911 512.348296,82.8515625 510.343088,82.8515625 C508.1009,82.8515625 506.46939,83.6536458 505.448557,85.2578125 L505.448557,85.2578125 L505.366525,85.2578125 L505.10676,83.1386719 L503.958322,83.1386719 L503.958322,104.726562 L505.311838,104.726562 Z M510.2884,97.0703125 C508.529286,97.0703125 507.26008,96.5735677 506.480783,95.5800781 C505.701486,94.5865885 505.311838,92.9277344 505.311838,90.6035156 L505.311838,90.6035156 L505.311838,90.1660156 C505.311838,88.014974 505.717437,86.4632161 506.528635,85.5107422 C507.339833,84.5582682 508.611317,84.0820312 510.343088,84.0820312 C513.496734,84.0820312 515.073557,86.264974 515.073557,90.6308594 C515.073557,92.6634115 514.656564,94.2447917 513.82258,95.375 C512.988596,96.5052083 511.810536,97.0703125 510.2884,97.0703125 Z M525.22292,98.2734375 C526.298441,98.2734375 527.230407,98.0751953 528.018818,97.6787109 C528.80723,97.2822266 529.575133,96.6054688 530.322529,95.6484375 L530.322529,95.6484375 L530.431904,95.6484375 L530.773701,98 L531.771748,98 L531.771748,88.1152344 C531.771748,86.3196615 531.368428,84.9980469 530.561787,84.1503906 C529.755146,83.3027344 528.536071,82.8789062 526.90456,82.8789062 C525.309508,82.8789062 523.696227,83.2617188 522.064717,84.0273438 L522.064717,84.0273438 L522.570576,85.203125 C524.047139,84.4375 525.473571,84.0546875 526.849873,84.0546875 C528.125915,84.0546875 529.051045,84.4147135 529.625264,85.1347656 C530.199482,85.8548177 530.486592,86.921224 530.486592,88.3339844 L530.486592,88.3339844 L530.486592,89.3183594 L527.656514,89.4003906 C525.368753,89.4459635 523.621032,89.8697917 522.413349,90.671875 C521.205667,91.4739583 520.601826,92.5996094 520.601826,94.0488281 C520.601826,95.3704427 521.007425,96.4049479 521.818623,97.1523438 C522.629821,97.8997396 523.764586,98.2734375 525.22292,98.2734375 Z M525.304951,97.0429688 C524.265889,97.0429688 523.461527,96.7854818 522.891865,96.2705078 C522.322204,95.7555339 522.037373,95.0332031 522.037373,94.1035156 C522.037373,92.936849 522.481709,92.0777995 523.370381,91.5263672 C524.259053,90.9749349 525.747008,90.6490885 527.834248,90.5488281 L527.834248,90.5488281 L530.431904,90.4394531 L530.431904,91.9023438 C530.431904,93.515625 529.973896,94.7757161 529.057881,95.6826172 C528.141865,96.5895182 526.890889,97.0429688 525.304951,97.0429688 Z M541.716033,104.726562 C544.067595,104.726562 545.879119,104.300456 547.150603,103.448242 C548.422088,102.596029 549.05783,101.386068 549.05783,99.8183594 C549.05783,98.5423177 548.629444,97.5784505 547.772674,96.9267578 C546.915903,96.2750651 545.680877,95.9492188 544.067595,95.9492188 L544.067595,95.9492188 L541.469939,95.9492188 C540.622283,95.9492188 540.018442,95.8398438 539.658416,95.6210938 C539.29839,95.4023438 539.118377,95.0559896 539.118377,94.5820312 C539.118377,94.1536458 539.259653,93.7480469 539.542205,93.3652344 C539.824757,92.9824219 540.234913,92.6497396 540.772674,92.3671875 C541.046111,92.421875 541.520069,92.4492188 542.194549,92.4492188 C543.798715,92.4492188 545.077035,92.0048828 546.029509,91.1162109 C546.981983,90.2275391 547.45822,89.0677083 547.45822,87.6367188 C547.45822,86.4153646 547.048064,85.2942708 546.227752,84.2734375 L546.227752,84.2734375 L549.303924,84.0820312 L549.303924,83.1386719 L544.546111,83.1386719 C544.008351,82.9472656 543.25184,82.8515625 542.27658,82.8515625 C540.672413,82.8515625 539.39865,83.3004557 538.455291,84.1982422 C537.511931,85.0960286 537.040252,86.2877604 537.040252,87.7734375 C537.040252,88.7578125 537.281788,89.6305339 537.764861,90.3916016 C538.247934,91.1526693 538.922413,91.7109375 539.788299,92.0664062 C538.521371,92.8229167 537.887908,93.6979167 537.887908,94.6914062 C537.887908,95.1471354 538.022348,95.5504557 538.291228,95.9013672 C538.560108,96.2522786 538.917856,96.5234375 539.36447,96.7148438 C538.279835,96.9609375 537.420785,97.421224 536.787322,98.0957031 C536.153858,98.7701823 535.837127,99.6178385 535.837127,100.638672 C535.837127,101.923828 536.349822,102.926432 537.375213,103.646484 C538.400603,104.366536 539.847543,104.726562 541.716033,104.726562 Z M542.249236,91.3964844 C541.082569,91.3964844 540.150603,91.0797526 539.453338,90.4462891 C538.756072,89.8128255 538.407439,88.921875 538.407439,87.7734375 C538.407439,86.5611979 538.746957,85.6155599 539.425994,84.9365234 C540.10503,84.257487 541.036996,83.9179688 542.221892,83.9179688 C543.443246,83.9179688 544.393442,84.2347005 545.072478,84.8681641 C545.751515,85.5016276 546.091033,86.4518229 546.091033,87.71875 C546.091033,88.9127604 545.760629,89.8242188 545.099822,90.453125 C544.439015,91.0820312 543.488819,91.3964844 542.249236,91.3964844 Z M541.825408,103.578125 C538.790252,103.578125 537.272674,102.557292 537.272674,100.515625 C537.272674,98.3736979 538.635304,97.3027344 541.360564,97.3027344 L541.360564,97.3027344 L543.794158,97.3027344 C545.161345,97.3027344 546.150278,97.5032552 546.760955,97.9042969 C547.371632,98.3053385 547.67697,98.952474 547.67697,99.8457031 C547.67697,102.333984 545.72645,103.578125 541.825408,103.578125 Z M559.138834,98.2734375 C561.207844,98.2734375 562.83024,97.5921224 564.006021,96.2294922 C565.181802,94.866862 565.769693,92.9733073 565.769693,90.5488281 C565.769693,88.1608073 565.188638,86.2809245 564.026529,84.9091797 C562.864419,83.5374349 561.262531,82.8515625 559.220865,82.8515625 C557.170084,82.8515625 555.556802,83.5283203 554.381021,84.8818359 C553.20524,86.2353516 552.617349,88.124349 552.617349,90.5488281 C552.617349,92.0891927 552.881672,93.4472656 553.410318,94.6230469 C553.938964,95.7988281 554.700031,96.7011719 555.693521,97.3300781 C556.687011,97.9589844 557.835448,98.2734375 559.138834,98.2734375 Z M559.193521,97.0429688 C557.552896,97.0429688 556.28369,96.4710286 555.385904,95.3271484 C554.488117,94.1832682 554.039224,92.5904948 554.039224,90.5488281 C554.039224,88.4889323 554.48356,86.8961589 555.372232,85.7705078 C556.260904,84.6448568 557.525552,84.0820312 559.166177,84.0820312 C560.806802,84.0820312 562.080565,84.6471354 562.987466,85.7773438 C563.894367,86.9075521 564.347818,88.4980469 564.347818,90.5488281 C564.347818,92.5904948 563.898925,94.1832682 563.001138,95.3271484 C562.103352,96.4710286 560.834146,97.0429688 559.193521,97.0429688 Z" id="elmejorsistemauniversaldepago" fill-rule="nonzero"></path>
            </g>
        </g>
    </g>
</svg>