<?xml version="1.0" encoding="UTF-8"?>
<svg width="655px" height="106px" viewBox="0 0 655 106" version="1.1" xmlns="http://www.w3.org/2000/svg" xmlns:xlink="http://www.w3.org/1999/xlink">
    <title>Group 5</title>
    <g id="Events-to-Guru" stroke="none" stroke-width="1" fill="none" fill-rule="evenodd">
        <g id="Artboard-Copy-5" transform="translate(-253.000000, -72.000000)" fill="#006CB4">
            <g id="Group-5" transform="translate(253.500000, 72.500000)">
                <g id="Group-4">
                    <g id="Group-3" transform="translate(64.000000, 0.000000)" fill-rule="nonzero">
                        <path d="M269.095,15.764 L276.644503,37.6553846 L277.5,40.5 L278.45029,37.6553846 L285.173,15.764 L289.323,15.764 L279.129062,44.1699062 L278.945444,44.6740006 L278.756,45.1760631 C277.421442,48.6495176 275.90969,51.2622681 274.239926,53.011271 L274.000316,53.2552524 L273.766175,53.4792819 L273.499276,53.7170128 C272.056831,54.9535005 270.310124,55.6874318 268.234816,55.9195042 L267.841839,55.9571368 L267.742,55.963 L267.742,53.061 L267.809797,53.0530163 L268.076126,53.01359 C271.42409,52.458952 273.890886,49.7950781 275.469532,45.1943101 L275.595584,44.8170338 L275.704705,44.4815829 L264.772,15.764 L269.095,15.764 Z M444.733673,14.7528205 L445.234385,14.7590832 L445.765673,14.7795723 C448.073448,14.8998631 450.299253,15.4259166 452.448325,16.3595739 L452.907668,16.5658829 L453.287,16.747 L453.287,19.105 L453.226508,19.0705403 L452.793798,18.8382802 C450.339585,17.55955 447.848214,16.9169231 445.323418,16.9169231 C443.619054,16.9169231 442.183672,17.2562654 441.031278,17.9537129 C439.736394,18.7373976 439.074689,20.0189157 439.074689,21.6646154 C439.074689,23.2316915 439.78436,24.5202048 441.134983,25.4367049 C442.235493,26.1834841 443.867427,26.9137162 446.045859,27.644839 L446.802234,27.8966723 L448.405148,28.4454671 L449.206232,28.7294853 L449.559545,28.8610535 L449.759425,28.9415252 L449.759425,28.9415252 L449.972235,29.0315214 L450.436404,29.2400378 L450.687646,29.3585333 L451.228147,29.6239372 C451.416723,29.7187108 451.613681,29.8197847 451.818944,29.9271423 C452.79173,30.4359354 453.502419,30.9315471 453.948033,31.3976828 C454.399177,31.8696028 454.822833,32.5149729 455.212168,33.3361142 C455.579521,34.1108934 455.764466,34.9758208 455.764466,35.9415385 C455.764466,38.3626144 454.822242,40.2463211 452.893869,41.6832696 C450.986581,43.1045064 448.423283,43.8570693 445.180136,43.9198229 L444.733673,43.9241026 L444.248849,43.9198094 L443.721386,43.90508 C440.757389,43.7919256 438.217463,43.1742237 436.091967,42.059183 L435.72118,41.8572499 L435.531,41.746 L435.531,39.371 L435.789894,39.5063466 L436.251597,39.7367551 C439.012315,41.0821329 441.602129,41.76 444.025979,41.76 C448.836996,41.76 451.513172,39.9930928 451.513172,36.4769231 C451.513172,35.7577744 451.345082,35.0795721 451.010846,34.4571563 C450.70223,33.8824497 450.336368,33.4026947 449.910058,33.0232682 C449.498726,32.6571732 448.891558,32.2785697 448.073738,31.866105 L447.785524,31.7227214 L447.785524,31.7227214 L447.508094,31.5887485 L446.985294,31.349 C446.734507,31.2385162 446.499568,31.1421093 446.280147,31.0597404 L443.657211,30.1227766 L442.893586,29.8373623 L442.184803,29.5650156 L441.225168,29.1813176 L440.654911,28.9422804 L440.390754,28.8278452 L439.904586,28.6092331 C439.023825,28.2020419 438.137734,27.6713512 437.24667,27.0159688 C436.436952,26.4204163 435.860012,25.7303835 435.500485,24.9391401 C435.130799,24.1255412 434.941343,23.1352808 434.941343,21.9620513 C434.941343,20.4850595 435.281656,19.2492827 435.955089,18.2303516 C436.632083,17.2060319 437.496783,16.4847751 438.566686,16.0463484 C439.766125,15.5548404 440.852964,15.2175211 441.824476,15.0326232 C442.64182,14.8770667 443.4513,14.7864636 444.253339,14.7605836 L444.733673,14.7528205 Z M494.844536,14.7528205 C498.212482,14.7528205 500.79419,15.7859415 502.664011,17.8535606 L502.868843,18.0875533 L503.063287,18.324954 L503.251049,18.5704021 C504.84933,20.7325139 505.693556,23.8021794 505.753898,27.8020405 L505.75738,28.2676923 L505.757,29.468 L486.523335,29.4687179 L486.535227,30.8961239 L486.545897,31.3169073 C486.659425,34.6501003 487.449622,37.1893049 488.960568,38.9193431 C490.563645,40.7548724 492.975368,41.6894427 496.128689,41.7561523 L496.495821,41.76 L496.876142,41.7543379 L497.304475,41.7346178 C499.45477,41.6007023 501.734535,40.9372541 504.145014,39.7529717 L504.628853,39.5091733 L504.872,39.38 L504.872,41.601 L504.517518,41.7900995 C501.761272,43.2112545 498.735034,43.9241026 495.434281,43.9241026 C490.914718,43.9241026 487.671429,42.6665403 485.6193,40.1825763 C483.521589,37.6434398 482.45733,34.0401742 482.45733,29.3384615 C482.45733,24.8754874 483.548599,21.3306792 485.712983,18.6664348 C487.833759,16.0558688 490.848001,14.7528205 494.844536,14.7528205 Z M381.943297,14.7528205 C385.532629,14.7528205 387.984261,15.4391725 389.327504,16.7317594 L389.472194,16.8778709 L389.635915,17.0592145 L389.792888,17.2488906 C390.865602,18.6027553 391.443206,20.5676791 391.495783,23.1726548 L391.499728,23.5682051 L391.499,43.21 L387.785,43.21 L387.262666,38.8477629 L385.494347,40.2736799 L385.138346,40.5501688 C382.173098,42.8085178 379.243286,43.9241026 376.340721,43.9241026 C373.755947,43.9241026 371.816868,43.2487346 370.466143,41.9207596 C369.108367,40.5858519 368.435575,38.9107273 368.435575,36.8338462 C368.435575,35.7313521 368.637486,34.6776028 369.042249,33.6657745 C369.443012,32.6639436 370.116619,31.6715703 371.07152,30.6901937 C371.98361,29.7528205 373.413363,28.9686293 375.369821,28.35999 C377.235803,27.7794971 379.475035,27.4668823 382.085845,27.4277803 L382.650991,27.4235897 L387.307408,27.4235897 L387.307408,24.8174359 L387.304588,24.4674838 L387.295274,24.1019271 C387.207662,21.5768685 386.64813,19.762486 385.536059,18.6631817 C384.391232,17.5314981 382.616424,16.9714943 380.24014,16.9207267 L379.87919,16.9169231 L379.552107,16.9215987 L379.205208,16.9364799 C376.88149,17.0693871 374.22166,17.8793552 371.214767,19.355283 L370.737108,19.5938569 L370.44,19.746 L370.44,17.316 L370.991147,17.0806579 C374.71238,15.5277573 378.363497,14.7528205 381.943297,14.7528205 Z M181.078301,14.7528205 C184.855948,14.7528205 187.840149,15.9805229 190.101892,18.4444416 C192.372485,20.9180004 193.524482,24.5341816 193.524482,29.3384615 C193.524482,34.1051773 192.381174,37.7137262 190.126213,40.2084101 C187.920034,42.689089 184.931132,43.9241026 181.078301,43.9241026 C177.22437,43.9241026 174.224351,42.6882179 172.003596,40.2114024 C169.766643,37.7165206 168.63212,34.106589 168.63212,29.3384615 C168.63212,24.5341816 169.784117,20.9180004 172.05471,18.4444416 C174.316453,15.9805229 177.300654,14.7528205 181.078301,14.7528205 Z M89.982,0.271 L89.9827422,17.6104868 L91.9002111,16.6009303 L92.3513834,16.376804 C94.6036477,15.2924894 96.8019152,14.7528205 98.9442966,14.7528205 C102.302949,14.7528205 104.798318,15.8695455 106.526755,18.1111404 C108.301011,20.4121588 109.208422,23.8305232 109.208422,28.3866667 C109.208422,33.5974768 108.057975,37.4812355 105.798253,40.0730963 C103.56006,42.6402644 100.436801,43.9241026 96.3494196,43.9241026 C94.9133616,43.9241026 93.2552318,43.7161249 91.3781662,43.2974453 L90.8608134,43.1780339 L90.2992131,43.0380961 L89.7492899,42.888866 C88.6611159,42.5811195 87.6429603,42.2176738 86.6945554,41.7988598 L86.2261643,41.5848403 L85.849,41.4 L85.849,1.274 L89.982,0.271 Z M65.6324382,14.7528205 C69.0003838,14.7528205 71.582092,15.7859415 73.4519127,17.8535606 L73.6567448,18.0875533 L73.8511892,18.324954 L74.038951,18.5704021 C75.6372326,20.7325139 76.4814577,23.8021794 76.5418004,27.8020405 L76.5452826,28.2676923 L76.545,29.468 L57.3112373,29.4687179 L57.323129,30.8961239 L57.3337989,31.3169073 C57.447327,34.6501003 58.2375243,37.1893049 59.74847,38.9193431 C61.3515474,40.7548724 63.7632701,41.6894427 66.9165915,41.7561523 L67.2837235,41.76 L67.6640441,41.7543379 L68.0923771,41.7346178 C70.2426716,41.6007023 72.522437,40.9372541 74.932916,39.7529717 L75.416755,39.5091733 L75.66,39.38 L75.66,41.601 L75.3054203,41.7900995 C72.5491744,43.2112545 69.5229356,43.9241026 66.2221829,43.9241026 C61.7026198,43.9241026 58.4593312,42.6665403 56.4072017,40.1825763 C54.3094913,37.6434398 53.2452318,34.0401742 53.2452318,29.3384615 C53.2452318,24.8754874 54.336501,21.3306792 56.5008848,18.6664348 C58.6216614,16.0558688 61.6359028,14.7528205 65.6324382,14.7528205 Z M247.643044,14.7528205 C251.010989,14.7528205 253.592697,15.7859415 255.462518,17.8535606 L255.66735,18.0875533 L255.861795,18.324954 L256.049556,18.5704021 C257.647838,20.7325139 258.492063,23.8021794 258.552406,27.8020405 L258.555888,28.2676923 L258.555,29.468 L239.321843,29.4687179 L239.333734,30.8961239 L239.344404,31.3169073 C239.457932,34.6501003 240.24813,37.1893049 241.759075,38.9193431 C243.362153,40.7548724 245.773876,41.6894427 248.927197,41.7561523 L249.294329,41.76 L249.67465,41.7543379 L250.102983,41.7346178 C252.253277,41.6007023 254.533042,40.9372541 256.943521,39.7529717 L257.42736,39.5091733 L257.671,39.38 L257.671,41.6 L257.316026,41.7900995 C254.55978,43.2112545 251.533541,43.9241026 248.232788,43.9241026 C243.713225,43.9241026 240.469937,42.6665403 238.417807,40.1825763 C236.320097,37.6434398 235.255837,34.0401742 235.255837,29.3384615 C235.255837,24.8754874 236.347106,21.3306792 238.51149,18.6664348 C240.632267,16.0558688 243.646508,14.7528205 247.643044,14.7528205 Z M478.637,0.016 L478.637,2.069 L478.277207,2.09053941 C472.123046,2.51453098 468.846241,5.89846403 468.73316,11.9958862 L468.73013,12.3251282 L468.73013,16.1805128 L477.764,16.18 L476.978,18.463 L468.73013,18.4635897 L468.73,43.21 L464.596,43.21 L464.596784,12.5630769 L464.600801,12.1435147 L464.612562,11.7375461 C464.769493,7.71601942 466.105773,4.83834009 468.607505,3.02143361 C470.972394,1.30391088 473.999235,0.313473428 477.704598,0.0633290957 L478.191756,0.0349009194 L478.637,0.016 Z M416.729517,14.7528205 C419.864825,14.7528205 422.070455,15.3476148 423.370596,16.4737963 L423.5284,16.617332 L423.690677,16.780178 L423.846017,16.9519749 C424.858435,18.1271847 425.406645,19.900947 425.45656,22.3098015 L425.460306,22.6758974 L425.46,43.21 L421.326,43.21 L421.32696,24.0441026 L421.323514,23.7117406 L421.313212,23.3910365 C421.222177,21.2826252 420.682659,19.7670333 419.610702,18.8738056 C418.505005,17.9524625 416.964465,17.5117949 415.019257,17.5117949 C412.614945,17.5117949 410.188842,18.1941605 407.749575,19.5451029 L407.318982,19.790442 L406.824371,20.0801319 L406.824,43.21 L402.691,43.21 L402.691,18.722 L403.206912,18.4273445 C407.573717,15.9758871 412.078756,14.7528205 416.729517,14.7528205 Z M125.089,3.033 L138.300488,36.2871795 L139,39 L139.964189,36.2871795 L152.584,3.033 L158.207,3.033 L158.207,43.21 L153.838,43.21 L154,6 L151.62632,12.6338462 L139.595,43.21 L137.177,43.21 L125.146755,13.3476923 L123,7 L122.940754,13.3476923 L122.94,43.21 L119.633,43.21 L119.633,3.033 L125.089,3.033 Z M335.786,3.033 L335.786,5.911 L323.519598,5.91179487 L323.519,43.21 L319.15,43.21 L319.150355,5.91179487 L306.883,5.911 L306.883,3.033 L335.786,3.033 Z M4.793,3.033 L11.3983878,34.5025641 L12.5,39 L13.4087253,34.5025641 L21.075,3.033 L24.765,3.033 L32.9630904,34.5025641 L34,39 L34.9757399,34.5025641 L40.991,3.033 L45.811,3.033 L36.711,43.21 L31.906,43.21 L23.8862251,13.5261538 L23,8 L21.9361735,13.5261538 L14.151,43.21 L9.353,43.21 L0.252,3.033 L4.793,3.033 Z M356.887865,14.7528205 C358.988677,14.7528205 360.565019,15.1656933 361.641036,15.9578402 L361.825732,16.1015611 L361.960371,16.2194184 L362.089199,16.3467864 C362.884406,17.1813308 363.329275,18.5872421 363.373901,20.6082345 L363.377624,20.9507692 L363.377,23.034 L359.716,23.996 L359.716074,23.0328205 L359.712865,22.7513316 L359.702942,22.4760499 C359.54822,19.3037562 358.031717,17.5117949 355.295554,17.5117949 C353.150355,17.5117949 350.890937,18.2677223 348.517764,19.7546654 L348.142107,19.9955172 L347.690413,20.2916706 L347.69,43.21 L343.557,43.21 L343.557,19.012 L343.652539,18.9543788 L344.269688,18.5949532 C346.134184,17.537287 348.115912,16.6652543 350.209438,15.9825157 C352.730073,15.1604887 354.957623,14.7528205 356.887865,14.7528205 Z M217.102986,14.7528205 C220.238294,14.7528205 222.443923,15.3476148 223.744065,16.4737963 L223.901868,16.617332 L224.064145,16.780178 L224.219485,16.9519749 C225.231903,18.1271847 225.780114,19.900947 225.830029,22.3098015 L225.833774,22.6758974 L225.833,43.21 L221.7,43.21 L221.700429,24.0441026 L221.696982,23.7117406 L221.68668,23.3910365 C221.595645,21.2826252 221.056127,19.7670333 219.984171,18.8738056 C218.878473,17.9524625 217.337933,17.5117949 215.392726,17.5117949 C212.988414,17.5117949 210.56231,18.1941605 208.123044,19.5451029 L207.69245,19.790442 L207.197839,20.0801319 L207.197,43.21 L203.064,43.21 L203.064,18.723 L203.58038,18.4273445 C207.947185,15.9758871 212.452224,14.7528205 217.102986,14.7528205 Z M528.510241,14.7528205 C530.611053,14.7528205 532.187395,15.1656933 533.263412,15.9578402 L533.448108,16.1015611 L533.582748,16.2194184 L533.711576,16.3467864 C534.506783,17.1813308 534.951651,18.5872421 534.996277,20.6082345 L535,20.9507692 L535,23.034 L531.338,23.996 L531.33845,23.0328205 L531.335241,22.7513316 L531.325318,22.4760499 C531.170596,19.3037562 529.654093,17.5117949 526.91793,17.5117949 C524.772731,17.5117949 522.513313,18.2677223 520.14014,19.7546654 L519.764483,19.9955172 L519.312789,20.2916706 L519.312,43.21 L515.179,43.21 L515.179,19.012 L515.274915,18.9543788 L515.892064,18.5949532 C517.75656,17.537287 519.738288,16.6652543 521.831814,15.9825157 C524.352449,15.1604887 526.579999,14.7528205 528.510241,14.7528205 Z M181.078301,16.9169231 C178.661567,16.9169231 176.635988,18.0313893 175.078122,20.1864657 C173.560091,22.286436 172.82444,25.3394241 172.82444,29.3384615 C172.82444,33.4107062 173.515898,36.4753427 174.949856,38.5354016 C176.433514,40.6668603 178.508719,41.76 181.078301,41.76 C183.647883,41.76 185.723088,40.6668603 187.206746,38.5354016 C188.640704,36.4753427 189.332162,33.4107062 189.332162,29.3384615 C189.332162,25.3437722 188.618654,22.2955869 187.145404,20.197622 C185.625332,18.0329822 183.573808,16.9169231 181.078301,16.9169231 Z M97.3519858,17.3928205 C95.3561662,17.3928205 93.190978,18.0201744 90.8530175,19.2568876 L90.4386421,19.481453 L89.9237677,19.7670957 L89.9237677,40.4759456 L90.8361833,40.8545284 L91.1716174,40.9803088 C92.6442926,41.5046401 94.3659525,41.76 96.3494196,41.76 C102.139528,41.76 105.016102,37.1174688 105.016102,28.3866667 C105.016102,21.2370484 102.452686,17.3928205 97.3519858,17.3928205 Z M387.366383,29.5876923 L383.240735,29.5876923 L382.873523,29.5897627 L382.511659,29.5960935 C376.053146,29.7486654 372.568921,31.9867987 372.568921,36.3579487 C372.568921,38.0103319 373.137477,39.3007041 374.287074,40.117689 C375.331197,40.8597159 376.614842,41.2246154 378.109956,41.2246154 C379.92302,41.2246154 381.6726,40.7888647 383.346338,39.9230759 C384.875531,39.1320567 386.079668,38.2167379 386.950726,37.1694349 L387.161547,36.904855 L387.366383,36.6362542 L387.366383,29.5876923 Z M65.4555147,16.7384615 C63.3119165,16.7384615 61.4830773,17.602453 60.037375,19.2885785 C58.6983264,20.8503136 57.8604898,23.0718871 57.4947292,25.9400032 L57.443402,26.375068 L57.3230229,27.4830769 L72.9977302,27.4830769 L72.9412745,26.4295655 L72.9147553,26.00688 C72.7037346,23.0801877 71.9590184,20.8279764 70.6435533,19.2656572 C69.2394259,17.5980378 67.4883962,16.7384615 65.4555147,16.7384615 Z M494.667613,16.7384615 C492.524014,16.7384615 490.695175,17.602453 489.249473,19.2885785 C487.910424,20.8503136 487.072588,23.0718871 486.706827,25.9400032 L486.6555,26.375068 L486.535121,27.4830769 L502.209828,27.4830769 L502.153372,26.4295655 L502.126853,26.00688 C501.915832,23.0801877 501.171116,20.8279764 499.855651,19.2656572 C498.451524,17.5980378 496.700494,16.7384615 494.667613,16.7384615 Z M247.46612,16.7384615 C245.322522,16.7384615 243.493683,17.602453 242.04798,19.2885785 C240.708932,20.8503136 239.871095,23.0718871 239.505335,25.9400032 L239.454007,26.375068 L239.333628,27.4830769 L255.008336,27.4830769 L254.95188,26.4295655 L254.925361,26.00688 C254.71434,23.0801877 253.969624,20.8279764 252.654159,19.2656572 C251.250031,17.5980378 249.499002,16.7384615 247.46612,16.7384615 Z" id="Shape"></path>
                    </g>
                    <path d="M1.50114767,60 C2.33020863,60 3.00229533,60.6715729 3.00229533,61.5 C3.00229533,62.3284271 2.33020863,63 1.50114767,63 C0.672086703,63 0,62.3284271 0,61.5 C0,60.6715729 0.672086703,60 1.50114767,60 Z M430.328998,60 C431.158059,60 431.830145,60.6715729 431.830145,61.5 C431.830145,62.3284271 431.158059,63 430.328998,63 C429.499937,63 428.82785,62.3284271 428.82785,61.5 C428.82785,60.6715729 429.499937,60 430.328998,60 Z M215.664881,60 C216.493942,60 217.166029,60.6715729 217.166029,61.5 C217.166029,62.3284271 216.493942,63 215.664881,63 C214.83582,63 214.163734,62.3284271 214.163734,61.5 C214.163734,60.6715729 214.83582,60 215.664881,60 Z M644.993114,60 C645.822175,60 646.494262,60.6715729 646.494262,61.5 C646.494262,62.3284271 645.822175,63 644.993114,63 C644.164053,63 643.491966,62.3284271 643.491966,61.5 C643.491966,60.6715729 644.164053,60 644.993114,60 Z M73.0558531,60 C73.8849141,60 74.5570008,60.6715729 74.5570008,61.5 C74.5570008,62.3284271 73.8849141,63 73.0558531,63 C72.2267921,63 71.5547054,62.3284271 71.5547054,61.5 C71.5547054,60.6715729 72.2267921,60 73.0558531,60 Z M501.883703,60 C502.712764,60 503.384851,60.6715729 503.384851,61.5 C503.384851,62.3284271 502.712764,63 501.883703,63 C501.054642,63 500.382555,62.3284271 500.382555,61.5 C500.382555,60.6715729 501.054642,60 501.883703,60 Z M287.719969,60 C288.54903,60 289.221117,60.6715729 289.221117,61.5 C289.221117,62.3284271 288.54903,63 287.719969,63 C286.890908,63 286.218822,62.3284271 286.218822,61.5 C286.218822,60.6715729 286.890908,60 287.719969,60 Z M144.110176,60 C144.939237,60 145.611324,60.6715729 145.611324,61.5 C145.611324,62.3284271 144.939237,63 144.110176,63 C143.281115,63 142.609028,62.3284271 142.609028,61.5 C142.609028,60.6715729 143.281115,60 144.110176,60 Z M572.938026,60 C573.767087,60 574.439174,60.6715729 574.439174,61.5 C574.439174,62.3284271 573.767087,63 572.938026,63 C572.108965,63 571.436878,62.3284271 571.436878,61.5 C571.436878,60.6715729 572.108965,60 572.938026,60 Z M358.774292,60 C359.603353,60 360.27544,60.6715729 360.27544,61.5 C360.27544,62.3284271 359.603353,63 358.774292,63 C357.945231,63 357.273145,62.3284271 357.273145,61.5 C357.273145,60.6715729 357.945231,60 358.774292,60 Z M25.0191278,60 C25.8481887,60 26.5202754,60.6715729 26.5202754,61.5 C26.5202754,62.3284271 25.8481887,63 25.0191278,63 C24.1900668,63 23.5179801,62.3284271 23.5179801,61.5 C23.5179801,60.6715729 24.1900668,60 25.0191278,60 Z M453.846978,60 C454.676039,60 455.348125,60.6715729 455.348125,61.5 C455.348125,62.3284271 454.676039,63 453.846978,63 C453.017917,63 452.34583,62.3284271 452.34583,61.5 C452.34583,60.6715729 453.017917,60 453.846978,60 Z M239.683244,60 C240.512305,60 241.184392,60.6715729 241.184392,61.5 C241.184392,62.3284271 240.512305,63 239.683244,63 C238.854183,63 238.182096,62.3284271 238.182096,61.5 C238.182096,60.6715729 238.854183,60 239.683244,60 Z M96.5738332,60 C97.4028942,60 98.0749809,60.6715729 98.0749809,61.5 C98.0749809,62.3284271 97.4028942,63 96.5738332,63 C95.7447722,63 95.0726855,62.3284271 95.0726855,61.5 C95.0726855,60.6715729 95.7447722,60 96.5738332,60 Z M525.401683,60 C526.230744,60 526.902831,60.6715729 526.902831,61.5 C526.902831,62.3284271 526.230744,63 525.401683,63 C524.572622,63 523.900536,62.3284271 523.900536,61.5 C523.900536,60.6715729 524.572622,60 525.401683,60 Z M311.23795,60 C312.06701,60 312.739097,60.6715729 312.739097,61.5 C312.739097,62.3284271 312.06701,63 311.23795,63 C310.408889,63 309.736802,62.3284271 309.736802,61.5 C309.736802,60.6715729 310.408889,60 311.23795,60 Z M168.128539,60 C168.9576,60 169.629686,60.6715729 169.629686,61.5 C169.629686,62.3284271 168.9576,63 168.128539,63 C167.299478,63 166.627391,62.3284271 166.627391,61.5 C166.627391,60.6715729 167.299478,60 168.128539,60 Z M596.956389,60 C597.78545,60 598.457536,60.6715729 598.457536,61.5 C598.457536,62.3284271 597.78545,63 596.956389,63 C596.127328,63 595.455241,62.3284271 595.455241,61.5 C595.455241,60.6715729 596.127328,60 596.956389,60 Z M382.792655,60 C383.621716,60 384.293803,60.6715729 384.293803,61.5 C384.293803,62.3284271 383.621716,63 382.792655,63 C381.963594,63 381.291507,62.3284271 381.291507,61.5 C381.291507,60.6715729 381.963594,60 382.792655,60 Z M49.0374904,60 C49.8665514,60 50.5386381,60.6715729 50.5386381,61.5 C50.5386381,62.3284271 49.8665514,63 49.0374904,63 C48.2084295,63 47.5363428,62.3284271 47.5363428,61.5 C47.5363428,60.6715729 48.2084295,60 49.0374904,60 Z M477.86534,60 C478.694401,60 479.366488,60.6715729 479.366488,61.5 C479.366488,62.3284271 478.694401,63 477.86534,63 C477.03628,63 476.364193,62.3284271 476.364193,61.5 C476.364193,60.6715729 477.03628,60 477.86534,60 Z M263.701607,60 C264.530668,60 265.202754,60.6715729 265.202754,61.5 C265.202754,62.3284271 264.530668,63 263.701607,63 C262.872546,63 262.200459,62.3284271 262.200459,61.5 C262.200459,60.6715729 262.872546,60 263.701607,60 Z M120.592196,60 C121.421257,60 122.093344,60.6715729 122.093344,61.5 C122.093344,62.3284271 121.421257,63 120.592196,63 C119.763135,63 119.091048,62.3284271 119.091048,61.5 C119.091048,60.6715729 119.763135,60 120.592196,60 Z M549.420046,60 C550.249107,60 550.921194,60.6715729 550.921194,61.5 C550.921194,62.3284271 550.249107,63 549.420046,63 C548.590985,63 547.918898,62.3284271 547.918898,61.5 C547.918898,60.6715729 548.590985,60 549.420046,60 Z M335.256312,60 C336.085373,60 336.75746,60.6715729 336.75746,61.5 C336.75746,62.3284271 336.085373,63 335.256312,63 C334.427251,63 333.755164,62.3284271 333.755164,61.5 C333.755164,60.6715729 334.427251,60 335.256312,60 Z M192.146901,60 C192.975962,60 193.648049,60.6715729 193.648049,61.5 C193.648049,62.3284271 192.975962,63 192.146901,63 C191.31784,63 190.645754,62.3284271 190.645754,61.5 C190.645754,60.6715729 191.31784,60 192.146901,60 Z M620.974751,60 C621.803812,60 622.475899,60.6715729 622.475899,61.5 C622.475899,62.3284271 621.803812,63 620.974751,63 C620.14569,63 619.473604,62.3284271 619.473604,61.5 C619.473604,60.6715729 620.14569,60 620.974751,60 Z M406.811018,60 C407.640079,60 408.312165,60.6715729 408.312165,61.5 C408.312165,62.3284271 407.640079,63 406.811018,63 C405.981957,63 405.30987,62.3284271 405.30987,61.5 C405.30987,60.6715729 405.981957,60 406.811018,60 Z M9.50726855,60 C10.3363295,60 11.0084162,60.6715729 11.0084162,61.5 C11.0084162,62.3284271 10.3363295,63 9.50726855,63 C8.67820759,63 8.00612089,62.3284271 8.00612089,61.5 C8.00612089,60.6715729 8.67820759,60 9.50726855,60 Z M438.335119,60 C439.16418,60 439.836266,60.6715729 439.836266,61.5 C439.836266,62.3284271 439.16418,63 438.335119,63 C437.506058,63 436.833971,62.3284271 436.833971,61.5 C436.833971,60.6715729 437.506058,60 438.335119,60 Z M223.671002,60 C224.500063,60 225.17215,60.6715729 225.17215,61.5 C225.17215,62.3284271 224.500063,63 223.671002,63 C222.841941,63 222.169855,62.3284271 222.169855,61.5 C222.169855,60.6715729 222.841941,60 223.671002,60 Z M652.498852,60 C653.327913,60 654,60.6715729 654,61.5 C654,62.3284271 653.327913,63 652.498852,63 C651.669791,63 650.997705,62.3284271 650.997705,61.5 C650.997705,60.6715729 651.669791,60 652.498852,60 Z M81.061974,60 C81.8910349,60 82.5631217,60.6715729 82.5631217,61.5 C82.5631217,62.3284271 81.8910349,63 81.061974,63 C80.232913,63 79.5608263,62.3284271 79.5608263,61.5 C79.5608263,60.6715729 80.232913,60 81.061974,60 Z M509.889824,60 C510.718885,60 511.390972,60.6715729 511.390972,61.5 C511.390972,62.3284271 510.718885,63 509.889824,63 C509.060763,63 508.388676,62.3284271 508.388676,61.5 C508.388676,60.6715729 509.060763,60 509.889824,60 Z M295.72609,60 C296.555151,60 297.227238,60.6715729 297.227238,61.5 C297.227238,62.3284271 296.555151,63 295.72609,63 C294.897029,63 294.224943,62.3284271 294.224943,61.5 C294.224943,60.6715729 294.897029,60 295.72609,60 Z M152.116297,60 C152.945358,60 153.617445,60.6715729 153.617445,61.5 C153.617445,62.3284271 152.945358,63 152.116297,63 C151.287236,63 150.615149,62.3284271 150.615149,61.5 C150.615149,60.6715729 151.287236,60 152.116297,60 Z M580.944147,60 C581.773208,60 582.445295,60.6715729 582.445295,61.5 C582.445295,62.3284271 581.773208,63 580.944147,63 C580.115086,63 579.442999,62.3284271 579.442999,61.5 C579.442999,60.6715729 580.115086,60 580.944147,60 Z M366.780413,60 C367.609474,60 368.281561,60.6715729 368.281561,61.5 C368.281561,62.3284271 367.609474,63 366.780413,63 C365.951352,63 365.279265,62.3284271 365.279265,61.5 C365.279265,60.6715729 365.951352,60 366.780413,60 Z M33.0252487,60 C33.8543096,60 34.5263963,60.6715729 34.5263963,61.5 C34.5263963,62.3284271 33.8543096,63 33.0252487,63 C32.1961877,63 31.524101,62.3284271 31.524101,61.5 C31.524101,60.6715729 32.1961877,60 33.0252487,60 Z M461.853099,60 C462.68216,60 463.354246,60.6715729 463.354246,61.5 C463.354246,62.3284271 462.68216,63 461.853099,63 C461.024038,63 460.351951,62.3284271 460.351951,61.5 C460.351951,60.6715729 461.024038,60 461.853099,60 Z M247.689365,60 C248.518426,60 249.190513,60.6715729 249.190513,61.5 C249.190513,62.3284271 248.518426,63 247.689365,63 C246.860304,63 246.188217,62.3284271 246.188217,61.5 C246.188217,60.6715729 246.860304,60 247.689365,60 Z M104.579954,60 C105.409015,60 106.081102,60.6715729 106.081102,61.5 C106.081102,62.3284271 105.409015,63 104.579954,63 C103.750893,63 103.078806,62.3284271 103.078806,61.5 C103.078806,60.6715729 103.750893,60 104.579954,60 Z M533.407804,60 C534.236865,60 534.908952,60.6715729 534.908952,61.5 C534.908952,62.3284271 534.236865,63 533.407804,63 C532.578743,63 531.906656,62.3284271 531.906656,61.5 C531.906656,60.6715729 532.578743,60 533.407804,60 Z M319.24407,60 C320.073131,60 320.745218,60.6715729 320.745218,61.5 C320.745218,62.3284271 320.073131,63 319.24407,63 C318.415009,63 317.742923,62.3284271 317.742923,61.5 C317.742923,60.6715729 318.415009,60 319.24407,60 Z M176.13466,60 C176.96372,60 177.635807,60.6715729 177.635807,61.5 C177.635807,62.3284271 176.96372,63 176.13466,63 C175.305599,63 174.633512,62.3284271 174.633512,61.5 C174.633512,60.6715729 175.305599,60 176.13466,60 Z M604.96251,60 C605.791571,60 606.463657,60.6715729 606.463657,61.5 C606.463657,62.3284271 605.791571,63 604.96251,63 C604.133449,63 603.461362,62.3284271 603.461362,61.5 C603.461362,60.6715729 604.133449,60 604.96251,60 Z M390.798776,60 C391.627837,60 392.299923,60.6715729 392.299923,61.5 C392.299923,62.3284271 391.627837,63 390.798776,63 C389.969715,63 389.297628,62.3284271 389.297628,61.5 C389.297628,60.6715729 389.969715,60 390.798776,60 Z M57.0436113,60 C57.8726723,60 58.544759,60.6715729 58.544759,61.5 C58.544759,62.3284271 57.8726723,63 57.0436113,63 C56.2145504,63 55.5424637,62.3284271 55.5424637,61.5 C55.5424637,60.6715729 56.2145504,60 57.0436113,60 Z M485.871461,60 C486.700522,60 487.372609,60.6715729 487.372609,61.5 C487.372609,62.3284271 486.700522,63 485.871461,63 C485.0424,63 484.370314,62.3284271 484.370314,61.5 C484.370314,60.6715729 485.0424,60 485.871461,60 Z M271.707728,60 C272.536789,60 273.208875,60.6715729 273.208875,61.5 C273.208875,62.3284271 272.536789,63 271.707728,63 C270.878667,63 270.20658,62.3284271 270.20658,61.5 C270.20658,60.6715729 270.878667,60 271.707728,60 Z M128.598317,60 C129.427378,60 130.099464,60.6715729 130.099464,61.5 C130.099464,62.3284271 129.427378,63 128.598317,63 C127.769256,63 127.097169,62.3284271 127.097169,61.5 C127.097169,60.6715729 127.769256,60 128.598317,60 Z M557.426167,60 C558.255228,60 558.927314,60.6715729 558.927314,61.5 C558.927314,62.3284271 558.255228,63 557.426167,63 C556.597106,63 555.925019,62.3284271 555.925019,61.5 C555.925019,60.6715729 556.597106,60 557.426167,60 Z M343.262433,60 C344.091494,60 344.763581,60.6715729 344.763581,61.5 C344.763581,62.3284271 344.091494,63 343.262433,63 C342.433372,63 341.761285,62.3284271 341.761285,61.5 C341.761285,60.6715729 342.433372,60 343.262433,60 Z M199.65264,60 C200.481701,60 201.153787,60.6715729 201.153787,61.5 C201.153787,62.3284271 200.481701,63 199.65264,63 C198.823579,63 198.151492,62.3284271 198.151492,61.5 C198.151492,60.6715729 198.823579,60 199.65264,60 Z M628.980872,60 C629.809933,60 630.48202,60.6715729 630.48202,61.5 C630.48202,62.3284271 629.809933,63 628.980872,63 C628.151811,63 627.479725,62.3284271 627.479725,61.5 C627.479725,60.6715729 628.151811,60 628.980872,60 Z M414.316756,60 C415.145817,60 415.817904,60.6715729 415.817904,61.5 C415.817904,62.3284271 415.145817,63 414.316756,63 C413.487695,63 412.815608,62.3284271 412.815608,61.5 C412.815608,60.6715729 413.487695,60 414.316756,60 Z M17.0130069,60 C17.8420678,60 18.5141546,60.6715729 18.5141546,61.5 C18.5141546,62.3284271 17.8420678,63 17.0130069,63 C16.1839459,63 15.5118592,62.3284271 15.5118592,61.5 C15.5118592,60.6715729 16.1839459,60 17.0130069,60 Z M445.840857,60 C446.669918,60 447.342005,60.6715729 447.342005,61.5 C447.342005,62.3284271 446.669918,63 445.840857,63 C445.011796,63 444.339709,62.3284271 444.339709,61.5 C444.339709,60.6715729 445.011796,60 445.840857,60 Z M232.177506,60 C233.006567,60 233.678653,60.6715729 233.678653,61.5 C233.678653,62.3284271 233.006567,63 232.177506,63 C231.348445,63 230.676358,62.3284271 230.676358,61.5 C230.676358,60.6715729 231.348445,60 232.177506,60 Z M88.5677123,60 C89.3967733,60 90.06886,60.6715729 90.06886,61.5 C90.06886,62.3284271 89.3967733,63 88.5677123,63 C87.7386514,63 87.0665647,62.3284271 87.0665647,61.5 C87.0665647,60.6715729 87.7386514,60 88.5677123,60 Z M517.395562,60 C518.224623,60 518.89671,60.6715729 518.89671,61.5 C518.89671,62.3284271 518.224623,63 517.395562,63 C516.566501,63 515.894415,62.3284271 515.894415,61.5 C515.894415,60.6715729 516.566501,60 517.395562,60 Z M303.231829,60 C304.06089,60 304.732976,60.6715729 304.732976,61.5 C304.732976,62.3284271 304.06089,63 303.231829,63 C302.402768,63 301.730681,62.3284271 301.730681,61.5 C301.730681,60.6715729 302.402768,60 303.231829,60 Z M160.122418,60 C160.951479,60 161.623565,60.6715729 161.623565,61.5 C161.623565,62.3284271 160.951479,63 160.122418,63 C159.293357,63 158.62127,62.3284271 158.62127,61.5 C158.62127,60.6715729 159.293357,60 160.122418,60 Z M588.950268,60 C589.779329,60 590.451415,60.6715729 590.451415,61.5 C590.451415,62.3284271 589.779329,63 588.950268,63 C588.121207,63 587.44912,62.3284271 587.44912,61.5 C587.44912,60.6715729 588.121207,60 588.950268,60 Z M374.786534,60 C375.615595,60 376.287682,60.6715729 376.287682,61.5 C376.287682,62.3284271 375.615595,63 374.786534,63 C373.957473,63 373.285386,62.3284271 373.285386,61.5 C373.285386,60.6715729 373.957473,60 374.786534,60 Z M41.0313695,60 C41.8604305,60 42.5325172,60.6715729 42.5325172,61.5 C42.5325172,62.3284271 41.8604305,63 41.0313695,63 C40.2023086,63 39.5302219,62.3284271 39.5302219,61.5 C39.5302219,60.6715729 40.2023086,60 41.0313695,60 Z M469.85922,60 C470.688281,60 471.360367,60.6715729 471.360367,61.5 C471.360367,62.3284271 470.688281,63 469.85922,63 C469.030159,63 468.358072,62.3284271 468.358072,61.5 C468.358072,60.6715729 469.030159,60 469.85922,60 Z M255.695486,60 C256.524547,60 257.196634,60.6715729 257.196634,61.5 C257.196634,62.3284271 256.524547,63 255.695486,63 C254.866425,63 254.194338,62.3284271 254.194338,61.5 C254.194338,60.6715729 254.866425,60 255.695486,60 Z M112.586075,60 C113.415136,60 114.087223,60.6715729 114.087223,61.5 C114.087223,62.3284271 113.415136,63 112.586075,63 C111.757014,63 111.084927,62.3284271 111.084927,61.5 C111.084927,60.6715729 111.757014,60 112.586075,60 Z M541.413925,60 C542.242986,60 542.915073,60.6715729 542.915073,61.5 C542.915073,62.3284271 542.242986,63 541.413925,63 C540.584864,63 539.912777,62.3284271 539.912777,61.5 C539.912777,60.6715729 540.584864,60 541.413925,60 Z M327.250191,60 C328.079252,60 328.751339,60.6715729 328.751339,61.5 C328.751339,62.3284271 328.079252,63 327.250191,63 C326.42113,63 325.749044,62.3284271 325.749044,61.5 C325.749044,60.6715729 326.42113,60 327.250191,60 Z M184.14078,60 C184.969841,60 185.641928,60.6715729 185.641928,61.5 C185.641928,62.3284271 184.969841,63 184.14078,63 C183.311719,63 182.639633,62.3284271 182.639633,61.5 C182.639633,60.6715729 183.311719,60 184.14078,60 Z M612.96863,60 C613.797691,60 614.469778,60.6715729 614.469778,61.5 C614.469778,62.3284271 613.797691,63 612.96863,63 C612.139569,63 611.467483,62.3284271 611.467483,61.5 C611.467483,60.6715729 612.139569,60 612.96863,60 Z M398.804897,60 C399.633958,60 400.306044,60.6715729 400.306044,61.5 C400.306044,62.3284271 399.633958,63 398.804897,63 C397.975836,63 397.303749,62.3284271 397.303749,61.5 C397.303749,60.6715729 397.975836,60 398.804897,60 Z M65.0497322,60 C65.8787932,60 66.5508799,60.6715729 66.5508799,61.5 C66.5508799,62.3284271 65.8787932,63 65.0497322,63 C64.2206712,63 63.5485845,62.3284271 63.5485845,61.5 C63.5485845,60.6715729 64.2206712,60 65.0497322,60 Z M493.877582,60 C494.706643,60 495.37873,60.6715729 495.37873,61.5 C495.37873,62.3284271 494.706643,63 493.877582,63 C493.048521,63 492.376435,62.3284271 492.376435,61.5 C492.376435,60.6715729 493.048521,60 493.877582,60 Z M279.713849,60 C280.542909,60 281.214996,60.6715729 281.214996,61.5 C281.214996,62.3284271 280.542909,63 279.713849,63 C278.884788,63 278.212701,62.3284271 278.212701,61.5 C278.212701,60.6715729 278.884788,60 279.713849,60 Z M136.604438,60 C137.433499,60 138.105585,60.6715729 138.105585,61.5 C138.105585,62.3284271 137.433499,63 136.604438,63 C135.775377,63 135.10329,62.3284271 135.10329,61.5 C135.10329,60.6715729 135.775377,60 136.604438,60 Z M565.432288,60 C566.261349,60 566.933435,60.6715729 566.933435,61.5 C566.933435,62.3284271 566.261349,63 565.432288,63 C564.603227,63 563.93114,62.3284271 563.93114,61.5 C563.93114,60.6715729 564.603227,60 565.432288,60 Z M351.268554,60 C352.097615,60 352.769702,60.6715729 352.769702,61.5 C352.769702,62.3284271 352.097615,63 351.268554,63 C350.439493,63 349.767406,62.3284271 349.767406,61.5 C349.767406,60.6715729 350.439493,60 351.268554,60 Z M207.658761,60 C208.487821,60 209.159908,60.6715729 209.159908,61.5 C209.159908,62.3284271 208.487821,63 207.658761,63 C206.8297,63 206.157613,62.3284271 206.157613,61.5 C206.157613,60.6715729 206.8297,60 207.658761,60 Z M636.986993,60 C637.816054,60 638.488141,60.6715729 638.488141,61.5 C638.488141,62.3284271 637.816054,63 636.986993,63 C636.157932,63 635.485845,62.3284271 635.485845,61.5 C635.485845,60.6715729 636.157932,60 636.986993,60 Z M422.322877,60 C423.151938,60 423.824024,60.6715729 423.824024,61.5 C423.824024,62.3284271 423.151938,63 422.322877,63 C421.493816,63 420.821729,62.3284271 420.821729,61.5 C420.821729,60.6715729 421.493816,60 422.322877,60 Z" id="Combined-Shape"></path>
                </g>
                <path d="M91.7910156,104.726562 C92.483724,104.726562 93.0738932,104.603516 93.5615234,104.357422 C94.0491536,104.111328 94.4752604,103.742188 94.8398438,103.25 C95.2044271,102.757812 95.655599,101.809896 96.1933594,100.40625 L96.1933594,100.40625 L102.851562,83.1386719 L101.457031,83.1386719 L98.3125,91.3964844 C97.4466146,93.7298177 96.8222656,95.484375 96.4394531,96.6601562 L96.4394531,96.6601562 L96.3574219,96.6601562 C96.1022135,95.7669271 95.4960938,94.0397135 94.5390625,91.4785156 L94.5390625,91.4785156 L91.3945312,83.1386719 L90,83.1386719 L95.6875,98 C95.578125,98.3007812 95.3343099,98.9501953 94.9560547,99.9482422 C94.5777995,100.946289 94.2451172,101.675456 93.9580078,102.135742 C93.6708984,102.596029 93.3496094,102.935547 92.9941406,103.154297 C92.6386719,103.373047 92.2285156,103.482422 91.7636719,103.482422 C91.1529948,103.482422 90.5833333,103.409505 90.0546875,103.263672 L90.0546875,103.263672 L90.0546875,104.439453 C90.6927083,104.630859 91.2714844,104.726562 91.7910156,104.726562 Z M107.819285,98 L107.819285,90.8359375 L117.252879,90.8359375 L117.252879,98 L118.592723,98 L118.592723,83.1386719 L117.252879,83.1386719 L117.252879,89.6601562 L107.819285,89.6601562 L107.819285,83.1386719 L106.465769,83.1386719 L106.465769,98 L107.819285,98 Z M126.458883,98 L135.277242,84.4511719 L135.222554,87.3222656 L135.222554,98 L136.521383,98 L136.521383,83.1386719 L134.716695,83.1386719 L125.898336,96.6875 L125.980367,93.8847656 L125.980367,83.1386719 L124.695211,83.1386719 L124.695211,98 L126.458883,98 Z M148.899261,98 C150.713063,98 152.091644,97.6149089 153.035003,96.8447266 C153.978363,96.0745443 154.450043,94.9739583 154.450043,93.5429688 C154.450043,92.5130208 154.183441,91.7223307 153.650238,91.1708984 C153.117035,90.6194661 152.253428,90.2753906 151.059418,90.1386719 L151.059418,90.1386719 L151.059418,90.0429688 C152.107595,89.8333333 152.864105,89.4619141 153.328949,88.9287109 C153.793793,88.3955078 154.026214,87.6595052 154.026214,86.7207031 C154.026214,85.5540365 153.600108,84.6653646 152.747894,84.0546875 C151.895681,83.4440104 150.621918,83.1386719 148.926605,83.1386719 L148.926605,83.1386719 L142.623871,83.1386719 L142.623871,98 L148.899261,98 Z M148.707855,89.5097656 L143.977386,89.5097656 L143.977386,84.4238281 L148.871918,84.4238281 C150.111501,84.4238281 151.041188,84.6083984 151.66098,84.9775391 C152.280772,85.3466797 152.590668,85.9641927 152.590668,86.8300781 C152.590668,87.7597656 152.289886,88.4388021 151.688324,88.8671875 C151.086761,89.2955729 150.093272,89.5097656 148.707855,89.5097656 L148.707855,89.5097656 Z M149.008636,96.7148438 L143.977386,96.7148438 L143.977386,90.78125 L148.81723,90.78125 C151.615407,90.78125 153.014496,91.6927083 153.014496,93.515625 C153.014496,95.6484375 151.679209,96.7148438 149.008636,96.7148438 L149.008636,96.7148438 Z M165.597453,98.2734375 C166.454223,98.2734375 167.238078,98.2073568 167.949015,98.0751953 C168.659953,97.9430339 169.434692,97.6946615 170.273234,97.3300781 L170.273234,97.3300781 L170.273234,96.0996094 C169.288859,96.4915365 168.475382,96.7467448 167.832804,96.8652344 C167.190226,96.983724 166.445109,97.0429688 165.597453,97.0429688 C163.856567,97.0429688 162.519002,96.5052083 161.584757,95.4296875 C160.650512,94.3541667 160.174275,92.7955729 160.156046,90.7539062 L160.156046,90.7539062 L170.861124,90.7539062 L170.861124,89.6601562 C170.861124,87.5638021 170.355265,85.9049479 169.343546,84.6835938 C168.331828,83.4622396 166.950968,82.8515625 165.200968,82.8515625 C163.223104,82.8515625 161.650838,83.5647786 160.484171,84.9912109 C159.317505,86.4176432 158.734171,88.3157552 158.734171,90.6855469 C158.734171,93.0826823 159.338012,94.9466146 160.545695,96.2773438 C161.753377,97.6080729 163.437296,98.2734375 165.597453,98.2734375 Z M169.425578,89.5507812 L160.238078,89.5507812 C160.383911,87.7734375 160.88977,86.4130859 161.755656,85.4697266 C162.621541,84.5263672 163.769979,84.0546875 165.200968,84.0546875 C166.522583,84.0546875 167.557088,84.5400391 168.304484,85.5107422 C169.05188,86.4814453 169.425578,87.828125 169.425578,89.5507812 L169.425578,89.5507812 Z M177.442128,104.726562 L177.442128,99.0664062 C177.442128,98.2643229 177.423899,97.5260417 177.387441,96.8515625 L177.387441,96.8515625 L177.346425,95.703125 L177.442128,95.703125 C178.490305,97.4166667 180.158274,98.2734375 182.446034,98.2734375 C184.360097,98.2734375 185.870839,97.601237 186.978261,96.2568359 C188.085683,94.9124349 188.639394,93.0188802 188.639394,90.5761719 C188.639394,88.0605469 188.113027,86.1442057 187.060292,84.8271484 C186.007558,83.5100911 184.478586,82.8515625 182.473378,82.8515625 C180.231191,82.8515625 178.59968,83.6536458 177.578847,85.2578125 L177.578847,85.2578125 L177.496816,85.2578125 L177.23705,83.1386719 L176.088613,83.1386719 L176.088613,104.726562 L177.442128,104.726562 Z M182.418691,97.0703125 C180.659576,97.0703125 179.39037,96.5735677 178.611073,95.5800781 C177.831777,94.5865885 177.442128,92.9277344 177.442128,90.6035156 L177.442128,90.6035156 L177.442128,90.1660156 C177.442128,88.014974 177.847727,86.4632161 178.658925,85.5107422 C179.470123,84.5582682 180.741607,84.0820312 182.473378,84.0820312 C185.627024,84.0820312 187.203847,86.264974 187.203847,90.6308594 C187.203847,92.6634115 186.786855,94.2447917 185.95287,95.375 C185.118886,96.5052083 183.940826,97.0703125 182.418691,97.0703125 Z M199.814148,98.2734375 C201.354512,98.2734375 202.598653,98.0410156 203.546569,97.5761719 L203.546569,97.5761719 L203.546569,96.3183594 C202.389017,96.8014323 201.135762,97.0429688 199.786804,97.0429688 C198.100606,97.0429688 196.788106,96.4755859 195.849304,95.3408203 C194.910502,94.2060547 194.441101,92.6360677 194.441101,90.6308594 C194.441101,88.516276 194.910502,86.8961589 195.849304,85.7705078 C196.788106,84.6448568 198.168965,84.0820312 199.991882,84.0820312 C200.939799,84.0820312 202.056335,84.296224 203.341491,84.7246094 L203.341491,84.7246094 L203.710632,83.5214844 C202.534851,83.0748698 201.304382,82.8515625 200.019226,82.8515625 C197.849955,82.8515625 196.14097,83.5374349 194.892273,84.9091797 C193.643575,86.2809245 193.019226,88.1972656 193.019226,90.6582031 C193.019226,93.0553385 193.620788,94.9238281 194.823913,96.2636719 C196.027038,97.6035156 197.69045,98.2734375 199.814148,98.2734375 Z M211.78187,98.2734375 C212.857391,98.2734375 213.789357,98.0751953 214.577768,97.6787109 C215.36618,97.2822266 216.134084,96.6054688 216.881479,95.6484375 L216.881479,95.6484375 L216.990854,95.6484375 L217.332651,98 L218.330698,98 L218.330698,88.1152344 C218.330698,86.3196615 217.927378,84.9980469 217.120737,84.1503906 C216.314097,83.3027344 215.095021,82.8789062 213.463511,82.8789062 C211.868459,82.8789062 210.255177,83.2617188 208.623667,84.0273438 L208.623667,84.0273438 L209.129526,85.203125 C210.606089,84.4375 212.032521,84.0546875 213.408823,84.0546875 C214.684865,84.0546875 215.609995,84.4147135 216.184214,85.1347656 C216.758433,85.8548177 217.045542,86.921224 217.045542,88.3339844 L217.045542,88.3339844 L217.045542,89.3183594 L214.215464,89.4003906 C211.927703,89.4459635 210.179982,89.8697917 208.9723,90.671875 C207.764617,91.4739583 207.160776,92.5996094 207.160776,94.0488281 C207.160776,95.3704427 207.566375,96.4049479 208.377573,97.1523438 C209.188771,97.8997396 210.323537,98.2734375 211.78187,98.2734375 Z M211.863901,97.0429688 C210.824839,97.0429688 210.020477,96.7854818 209.450815,96.2705078 C208.881154,95.7555339 208.596323,95.0332031 208.596323,94.1035156 C208.596323,92.936849 209.040659,92.0777995 209.929331,91.5263672 C210.818003,90.9749349 212.305959,90.6490885 214.393198,90.5488281 L214.393198,90.5488281 L216.990854,90.4394531 L216.990854,91.9023438 C216.990854,93.515625 216.532847,94.7757161 215.616831,95.6826172 C214.700815,96.5895182 213.449839,97.0429688 211.863901,97.0429688 Z M222.983968,98.1367188 C223.977457,98.1367188 224.786376,97.6923828 225.410725,96.8037109 C226.035074,95.9150391 226.545491,94.5250651 226.941975,92.6337891 C227.33846,90.742513 227.673421,87.9967448 227.946858,84.3964844 L227.946858,84.3964844 L233.21053,84.3964844 L233.21053,98 L234.550374,98 L234.550374,83.1386719 L226.730061,83.1386719 C226.401936,87.9511719 225.921142,91.4443359 225.287678,93.6181641 C224.654215,95.7919922 223.822509,96.8789062 222.792561,96.8789062 C222.473551,96.8789062 222.227457,96.8515625 222.05428,96.796875 L222.05428,96.796875 L222.05428,98.0273438 C222.318603,98.1002604 222.628499,98.1367188 222.983968,98.1367188 Z M246.818878,98 C248.641794,98 250.040883,97.6057943 251.016143,96.8173828 C251.991404,96.0289714 252.479034,94.9283854 252.479034,93.515625 C252.479034,90.7721354 250.733591,89.4003906 247.242706,89.4003906 L247.242706,89.4003906 L242.006378,89.4003906 L242.006378,83.1386719 L240.652862,83.1386719 L240.652862,98 L246.818878,98 Z M247.037628,96.7148438 L242.006378,96.7148438 L242.006378,90.6855469 L246.955596,90.6855469 C248.459503,90.6855469 249.516794,90.9065755 250.127471,91.3486328 C250.738148,91.7906901 251.043487,92.5039062 251.043487,93.4882812 C251.043487,94.5455729 250.699411,95.3476562 250.01126,95.8945312 C249.323109,96.4414062 248.331898,96.7148438 247.037628,96.7148438 L247.037628,96.7148438 Z M259.060038,98 L259.060038,90.8359375 L268.493631,90.8359375 L268.493631,98 L269.833475,98 L269.833475,83.1386719 L268.493631,83.1386719 L268.493631,89.6601562 L259.060038,89.6601562 L259.060038,83.1386719 L257.706522,83.1386719 L257.706522,98 L259.060038,98 Z M279.408619,98.2734375 C280.48414,98.2734375 281.416106,98.0751953 282.204518,97.6787109 C282.992929,97.2822266 283.760833,96.6054688 284.508229,95.6484375 L284.508229,95.6484375 L284.617604,95.6484375 L284.959401,98 L285.957448,98 L285.957448,88.1152344 C285.957448,86.3196615 285.554127,84.9980469 284.747487,84.1503906 C283.940846,83.3027344 282.72177,82.8789062 281.09026,82.8789062 C279.495208,82.8789062 277.881927,83.2617188 276.250416,84.0273438 L276.250416,84.0273438 L276.756276,85.203125 C278.232838,84.4375 279.65927,84.0546875 281.035573,84.0546875 C282.311614,84.0546875 283.236744,84.4147135 283.810963,85.1347656 C284.385182,85.8548177 284.672291,86.921224 284.672291,88.3339844 L284.672291,88.3339844 L284.672291,89.3183594 L281.842213,89.4003906 C279.554453,89.4459635 277.806731,89.8697917 276.599049,90.671875 C275.391367,91.4739583 274.787526,92.5996094 274.787526,94.0488281 C274.787526,95.3704427 275.193125,96.4049479 276.004323,97.1523438 C276.81552,97.8997396 277.950286,98.2734375 279.408619,98.2734375 Z M279.490651,97.0429688 C278.451588,97.0429688 277.647226,96.7854818 277.077565,96.2705078 C276.507903,95.7555339 276.223073,95.0332031 276.223073,94.1035156 C276.223073,92.936849 276.667408,92.0777995 277.55608,91.5263672 C278.444752,90.9749349 279.932708,90.6490885 282.019948,90.5488281 L282.019948,90.5488281 L284.617604,90.4394531 L284.617604,91.9023438 C284.617604,93.515625 284.159596,94.7757161 283.24358,95.6826172 C282.327565,96.5895182 281.076588,97.0429688 279.490651,97.0429688 Z M291.677123,98 L295.847045,91.7519531 L300.386108,91.7519531 L300.386108,98 L301.725951,98 L301.725951,83.1386719 L295.600951,83.1386719 C294.069701,83.1386719 292.850626,83.5283203 291.943725,84.3076172 C291.036824,85.0869141 290.583373,86.1510417 290.583373,87.5 C290.583373,88.5846354 290.886433,89.4733073 291.492553,90.1660156 C292.098673,90.858724 293.085326,91.3326823 294.452514,91.5878906 L294.452514,91.5878906 L289.968139,98 L291.677123,98 Z M300.386108,90.4667969 L295.983764,90.4667969 C294.653035,90.4667969 293.657266,90.2184245 292.996459,89.7216797 C292.335652,89.2249349 292.005248,88.4661458 292.005248,87.4453125 C292.005248,86.4609375 292.317423,85.711263 292.941772,85.1962891 C293.566121,84.6813151 294.443399,84.4238281 295.573608,84.4238281 L295.573608,84.4238281 L300.386108,84.4238281 L300.386108,90.4667969 Z M322.161396,98.2734375 C323.701761,98.2734375 324.945902,98.0410156 325.893818,97.5761719 L325.893818,97.5761719 L325.893818,96.3183594 C324.736266,96.8014323 323.483011,97.0429688 322.134053,97.0429688 C320.447855,97.0429688 319.135355,96.4755859 318.196553,95.3408203 C317.25775,94.2060547 316.788349,92.6360677 316.788349,90.6308594 C316.788349,88.516276 317.25775,86.8961589 318.196553,85.7705078 C319.135355,84.6448568 320.516214,84.0820312 322.339131,84.0820312 C323.287047,84.0820312 324.403584,84.296224 325.68874,84.7246094 L325.68874,84.7246094 L326.057881,83.5214844 C324.882099,83.0748698 323.651631,82.8515625 322.366474,82.8515625 C320.197204,82.8515625 318.488219,83.5374349 317.239521,84.9091797 C315.990823,86.2809245 315.366474,88.1972656 315.366474,90.6582031 C315.366474,93.0553385 315.968037,94.9238281 317.171162,96.2636719 C318.374287,97.6035156 320.037698,98.2734375 322.161396,98.2734375 Z M332.420134,98 L341.238494,84.4511719 L341.183806,87.3222656 L341.183806,98 L342.482634,98 L342.482634,83.1386719 L340.677947,83.1386719 L331.859588,96.6875 L331.941619,93.8847656 L331.941619,83.1386719 L330.656463,83.1386719 L330.656463,98 L332.420134,98 Z M354.518716,98.2734375 C356.059081,98.2734375 357.303222,98.0410156 358.251138,97.5761719 L358.251138,97.5761719 L358.251138,96.3183594 C357.093586,96.8014323 355.840331,97.0429688 354.491373,97.0429688 C352.805175,97.0429688 351.492675,96.4755859 350.553873,95.3408203 C349.61507,94.2060547 349.145669,92.6360677 349.145669,90.6308594 C349.145669,88.516276 349.61507,86.8961589 350.553873,85.7705078 C351.492675,84.6448568 352.873534,84.0820312 354.696451,84.0820312 C355.644367,84.0820312 356.760904,84.296224 358.04606,84.7246094 L358.04606,84.7246094 L358.415201,83.5214844 C357.239419,83.0748698 356.008951,82.8515625 354.723794,82.8515625 C352.554524,82.8515625 350.845539,83.5374349 349.596841,84.9091797 C348.348143,86.2809245 347.723794,88.1972656 347.723794,90.6582031 C347.723794,93.0553385 348.325357,94.9238281 349.528482,96.2636719 C350.731607,97.6035156 352.395018,98.2734375 354.518716,98.2734375 Z M367.498158,98 L367.498158,84.3144531 L372.447376,84.3144531 L372.447376,83.1386719 L361.086048,83.1386719 L361.086048,84.3144531 L366.158314,84.3144531 L366.158314,98 L367.498158,98 Z M382.350646,98.2734375 C383.207417,98.2734375 383.991271,98.2073568 384.702208,98.0751953 C385.413146,97.9430339 386.187885,97.6946615 387.026427,97.3300781 L387.026427,97.3300781 L387.026427,96.0996094 C386.042052,96.4915365 385.228575,96.7467448 384.585997,96.8652344 C383.943419,96.983724 383.198302,97.0429688 382.350646,97.0429688 C380.60976,97.0429688 379.272195,96.5052083 378.33795,95.4296875 C377.403706,94.3541667 376.927469,92.7955729 376.909239,90.7539062 L376.909239,90.7539062 L387.614318,90.7539062 L387.614318,89.6601562 C387.614318,87.5638021 387.108458,85.9049479 386.096739,84.6835938 C385.085021,83.4622396 383.704161,82.8515625 381.954161,82.8515625 C379.976297,82.8515625 378.404031,83.5647786 377.237364,84.9912109 C376.070698,86.4176432 375.487364,88.3157552 375.487364,90.6855469 C375.487364,93.0826823 376.091206,94.9466146 377.298888,96.2773438 C378.50657,97.6080729 380.190489,98.2734375 382.350646,98.2734375 Z M386.178771,89.5507812 L376.991271,89.5507812 C377.137104,87.7734375 377.642963,86.4130859 378.508849,85.4697266 C379.374734,84.5263672 380.523172,84.0546875 381.954161,84.0546875 C383.275776,84.0546875 384.310281,84.5400391 385.057677,85.5107422 C385.805073,86.4814453 386.178771,87.828125 386.178771,89.5507812 L386.178771,89.5507812 Z M394.072274,98 L394.072274,84.7246094 C394.254566,85.2623698 394.420907,85.7636719 394.571298,86.2285156 C394.721689,86.6933594 394.883472,87.1354167 395.056649,87.5546875 L395.056649,87.5546875 L399.171884,98 L400.375009,98 C403.127613,90.9635417 404.615569,87.1445312 404.838876,86.5429688 C405.062183,85.9414062 405.274097,85.3535156 405.474618,84.7792969 L405.474618,84.7792969 L405.474618,98 L406.759774,98 L406.759774,83.1386719 L404.886728,83.1386719 L400.607431,94.1582031 L399.759774,96.5507812 C399.541024,95.7851562 399.26303,94.9602865 398.92579,94.0761719 L398.92579,94.0761719 L394.632821,83.1386719 L392.841806,83.1386719 L392.841806,98 L394.072274,98 Z M416.334919,98.2734375 C417.41044,98.2734375 418.342406,98.0751953 419.130817,97.6787109 C419.919229,97.2822266 420.687132,96.6054688 421.434528,95.6484375 L421.434528,95.6484375 L421.543903,95.6484375 L421.8857,98 L422.883747,98 L422.883747,88.1152344 C422.883747,86.3196615 422.480427,84.9980469 421.673786,84.1503906 C420.867145,83.3027344 419.64807,82.8789062 418.016559,82.8789062 C416.421507,82.8789062 414.808226,83.2617188 413.176716,84.0273438 L413.176716,84.0273438 L413.682575,85.203125 C415.159138,84.4375 416.58557,84.0546875 417.961872,84.0546875 C419.237914,84.0546875 420.163044,84.4147135 420.737263,85.1347656 C421.311481,85.8548177 421.598591,86.921224 421.598591,88.3339844 L421.598591,88.3339844 L421.598591,89.3183594 L418.768513,89.4003906 C416.480752,89.4459635 414.733031,89.8697917 413.525349,90.671875 C412.317666,91.4739583 411.713825,92.5996094 411.713825,94.0488281 C411.713825,95.3704427 412.119424,96.4049479 412.930622,97.1523438 C413.74182,97.8997396 414.876586,98.2734375 416.334919,98.2734375 Z M416.41695,97.0429688 C415.377888,97.0429688 414.573526,96.7854818 414.003864,96.2705078 C413.434203,95.7555339 413.149372,95.0332031 413.149372,94.1035156 C413.149372,92.936849 413.593708,92.0777995 414.48238,91.5263672 C415.371052,90.9749349 416.859007,90.6490885 418.946247,90.5488281 L418.946247,90.5488281 L421.543903,90.4394531 L421.543903,91.9023438 C421.543903,93.515625 421.085895,94.7757161 420.16988,95.6826172 C419.253864,96.5895182 418.002888,97.0429688 416.41695,97.0429688 Z M438.575051,104.726562 L438.575051,99.0664062 C438.575051,98.2643229 438.556822,97.5260417 438.520364,96.8515625 L438.520364,96.8515625 L438.479348,95.703125 L438.575051,95.703125 C439.623228,97.4166667 441.291197,98.2734375 443.578958,98.2734375 C445.49302,98.2734375 447.003762,97.601237 448.111184,96.2568359 C449.218606,94.9124349 449.772317,93.0188802 449.772317,90.5761719 C449.772317,88.0605469 449.24595,86.1442057 448.193215,84.8271484 C447.140481,83.5100911 445.61151,82.8515625 443.606301,82.8515625 C441.364114,82.8515625 439.732603,83.6536458 438.71177,85.2578125 L438.71177,85.2578125 L438.629739,85.2578125 L438.369973,83.1386719 L437.221536,83.1386719 L437.221536,104.726562 L438.575051,104.726562 Z M443.551614,97.0703125 C441.792499,97.0703125 440.523294,96.5735677 439.743997,95.5800781 C438.9647,94.5865885 438.575051,92.9277344 438.575051,90.6035156 L438.575051,90.6035156 L438.575051,90.1660156 C438.575051,88.014974 438.98065,86.4632161 439.791848,85.5107422 C440.603046,84.5582682 441.874531,84.0820312 443.606301,84.0820312 C446.759947,84.0820312 448.33677,86.264974 448.33677,90.6308594 C448.33677,92.6634115 447.919778,94.2447917 447.085794,95.375 C446.251809,96.5052083 445.073749,97.0703125 443.551614,97.0703125 Z M458.486133,98.2734375 C459.561654,98.2734375 460.49362,98.0751953 461.282032,97.6787109 C462.070443,97.2822266 462.838347,96.6054688 463.585743,95.6484375 L463.585743,95.6484375 L463.695118,95.6484375 L464.036914,98 L465.034961,98 L465.034961,88.1152344 C465.034961,86.3196615 464.631641,84.9980469 463.825,84.1503906 C463.01836,83.3027344 461.799284,82.8789062 460.167774,82.8789062 C458.572722,82.8789062 456.959441,83.2617188 455.32793,84.0273438 L455.32793,84.0273438 L455.833789,85.203125 C457.310352,84.4375 458.736784,84.0546875 460.113086,84.0546875 C461.389128,84.0546875 462.314258,84.4147135 462.888477,85.1347656 C463.462696,85.8548177 463.749805,86.921224 463.749805,88.3339844 L463.749805,88.3339844 L463.749805,89.3183594 L460.919727,89.4003906 C458.631967,89.4459635 456.884245,89.8697917 455.676563,90.671875 C454.468881,91.4739583 453.865039,92.5996094 453.865039,94.0488281 C453.865039,95.3704427 454.270638,96.4049479 455.081836,97.1523438 C455.893034,97.8997396 457.0278,98.2734375 458.486133,98.2734375 Z M458.568164,97.0429688 C457.529102,97.0429688 456.72474,96.7854818 456.155079,96.2705078 C455.585417,95.7555339 455.300586,95.0332031 455.300586,94.1035156 C455.300586,92.936849 455.744922,92.0777995 456.633594,91.5263672 C457.522266,90.9749349 459.010222,90.6490885 461.097461,90.5488281 L461.097461,90.5488281 L463.695118,90.4394531 L463.695118,91.9023438 C463.695118,93.515625 463.23711,94.7757161 462.321094,95.6826172 C461.405079,96.5895182 460.154102,97.0429688 458.568164,97.0429688 Z M476.906981,98.2734375 C478.447345,98.2734375 479.691486,98.0410156 480.639403,97.5761719 L480.639403,97.5761719 L480.639403,96.3183594 C479.481851,96.8014323 478.228595,97.0429688 476.879637,97.0429688 C475.193439,97.0429688 473.880939,96.4755859 472.942137,95.3408203 C472.003335,94.2060547 471.533934,92.6360677 471.533934,90.6308594 C471.533934,88.516276 472.003335,86.8961589 472.942137,85.7705078 C473.880939,84.6448568 475.261798,84.0820312 477.084715,84.0820312 C478.032632,84.0820312 479.149168,84.296224 480.434324,84.7246094 L480.434324,84.7246094 L480.803465,83.5214844 C479.627684,83.0748698 478.397215,82.8515625 477.112059,82.8515625 C474.942788,82.8515625 473.233804,83.5374349 471.985106,84.9091797 C470.736408,86.2809245 470.112059,88.1972656 470.112059,90.6582031 C470.112059,93.0553385 470.713621,94.9238281 471.916746,96.2636719 C473.119871,97.6035156 474.783283,98.2734375 476.906981,98.2734375 Z M496.667672,98 L496.667672,83.1386719 L495.314156,83.1386719 L495.314156,89.6601562 C494.439156,90.3619792 493.596057,90.8723958 492.784859,91.1914062 C491.973662,91.5104167 491.121448,91.6699219 490.228219,91.6699219 C488.961292,91.6699219 488.02249,91.3919271 487.411813,90.8359375 C486.801136,90.2799479 486.495797,89.3730469 486.495797,88.1152344 L486.495797,88.1152344 L486.495797,83.1386719 L485.155953,83.1386719 L485.155953,88.2792969 C485.155953,89.7740885 485.545602,90.9179688 486.324899,91.7109375 C487.104195,92.5039062 488.254912,92.9003906 489.777047,92.9003906 C490.79788,92.9003906 491.748076,92.75 492.627633,92.4492188 C493.50719,92.1484375 494.402698,91.6471354 495.314156,90.9453125 L495.314156,90.9453125 L495.314156,98 L496.667672,98 Z M508.772113,98.2734375 C509.628884,98.2734375 510.412738,98.2073568 511.123676,98.0751953 C511.834613,97.9430339 512.609353,97.6946615 513.447894,97.3300781 L513.447894,97.3300781 L513.447894,96.0996094 C512.463519,96.4915365 511.650043,96.7467448 511.007465,96.8652344 C510.364887,96.983724 509.619769,97.0429688 508.772113,97.0429688 C507.031228,97.0429688 505.693663,96.5052083 504.759418,95.4296875 C503.825173,94.3541667 503.348936,92.7955729 503.330707,90.7539062 L503.330707,90.7539062 L514.035785,90.7539062 L514.035785,89.6601562 C514.035785,87.5638021 513.529926,85.9049479 512.518207,84.6835938 C511.506488,83.4622396 510.125629,82.8515625 508.375629,82.8515625 C506.397764,82.8515625 504.825499,83.5647786 503.658832,84.9912109 C502.492165,86.4176432 501.908832,88.3157552 501.908832,90.6855469 C501.908832,93.0826823 502.512673,94.9466146 503.720355,96.2773438 C504.928038,97.6080729 506.611957,98.2734375 508.772113,98.2734375 Z M512.600238,89.5507812 L503.412738,89.5507812 C503.558572,87.7734375 504.064431,86.4130859 504.930316,85.4697266 C505.796202,84.5263672 506.944639,84.0546875 508.375629,84.0546875 C509.697243,84.0546875 510.731749,84.5400391 511.479144,85.5107422 C512.22654,86.4814453 512.600238,87.828125 512.600238,89.5507812 L512.600238,89.5507812 Z M523.747648,98 L523.747648,84.3144531 L528.696867,84.3144531 L528.696867,83.1386719 L517.335539,83.1386719 L517.335539,84.3144531 L522.407805,84.3144531 L522.407805,98 L523.747648,98 Z M538.25834,98.2734375 C540.32735,98.2734375 541.949746,97.5921224 543.125527,96.2294922 C544.301308,94.866862 544.889199,92.9733073 544.889199,90.5488281 C544.889199,88.1608073 544.308144,86.2809245 543.146035,84.9091797 C541.983925,83.5374349 540.382037,82.8515625 538.340371,82.8515625 C536.28959,82.8515625 534.676308,83.5283203 533.500527,84.8818359 C532.324746,86.2353516 531.736855,88.124349 531.736855,90.5488281 C531.736855,92.0891927 532.001178,93.4472656 532.529824,94.6230469 C533.05847,95.7988281 533.819537,96.7011719 534.813027,97.3300781 C535.806517,97.9589844 536.954954,98.2734375 538.25834,98.2734375 Z M538.313027,97.0429688 C536.672402,97.0429688 535.403196,96.4710286 534.50541,95.3271484 C533.607623,94.1832682 533.15873,92.5904948 533.15873,90.5488281 C533.15873,88.4889323 533.603066,86.8961589 534.491738,85.7705078 C535.38041,84.6448568 536.645058,84.0820312 538.285683,84.0820312 C539.926308,84.0820312 541.200071,84.6471354 542.106972,85.7773438 C543.013873,86.9075521 543.467324,88.4980469 543.467324,90.5488281 C543.467324,92.5904948 543.018431,94.1832682 542.120644,95.3271484 C541.222858,96.4710286 539.953652,97.0429688 538.313027,97.0429688 Z M556.40575,98 C558.219552,98 559.598132,97.6149089 560.541492,96.8447266 C561.484851,96.0745443 561.956531,94.9739583 561.956531,93.5429688 C561.956531,92.5130208 561.689929,91.7223307 561.156726,91.1708984 C560.623523,90.6194661 559.759916,90.2753906 558.565906,90.1386719 L558.565906,90.1386719 L558.565906,90.0429688 C559.614083,89.8333333 560.370593,89.4619141 560.835437,88.9287109 C561.300281,88.3955078 561.532703,87.6595052 561.532703,86.7207031 C561.532703,85.5540365 561.106596,84.6653646 560.254382,84.0546875 C559.402169,83.4440104 558.128406,83.1386719 556.433093,83.1386719 L556.433093,83.1386719 L550.130359,83.1386719 L550.130359,98 L556.40575,98 Z M556.214343,89.5097656 L551.483875,89.5097656 L551.483875,84.4238281 L556.378406,84.4238281 C557.617989,84.4238281 558.547677,84.6083984 559.167468,84.9775391 C559.78726,85.3466797 560.097156,85.9641927 560.097156,86.8300781 C560.097156,87.7597656 559.796375,88.4388021 559.194812,88.8671875 C558.59325,89.2955729 557.59976,89.5097656 556.214343,89.5097656 L556.214343,89.5097656 Z M556.515125,96.7148438 L551.483875,96.7148438 L551.483875,90.78125 L556.323718,90.78125 C559.121895,90.78125 560.520984,91.6927083 560.520984,93.515625 C560.520984,95.6484375 559.185697,96.7148438 556.515125,96.7148438 L556.515125,96.7148438 Z" id="" fill-rule="nonzero"></path>
            </g>
        </g>
    </g>
</svg>