<?xml version="1.0" encoding="UTF-8"?>
<svg width="655px" height="107px" viewBox="0 0 655 107" version="1.1" xmlns="http://www.w3.org/2000/svg" xmlns:xlink="http://www.w3.org/1999/xlink">
    <title>tr</title>
    <g id="Events-to-Guru" stroke="none" stroke-width="1" fill="none" fill-rule="evenodd">
        <g id="tr-copy" transform="translate(-253.000000, -72.000000)" fill="#006CB4">
            <g id="tr" transform="translate(253.500000, 72.500000)">
                <g id="Group-4">
                    <g id="Group-3" transform="translate(64.000000, 0.000000)" fill-rule="nonzero">
                        <path d="M269.095,15.764 L276.644503,37.6553846 L277.5,40.5 L278.45029,37.6553846 L285.173,15.764 L289.323,15.764 L279.129062,44.1699062 L278.945444,44.6740006 L278.756,45.1760631 C277.421442,48.6495176 275.90969,51.2622681 274.239926,53.011271 L274.000316,53.2552524 L273.766175,53.4792819 L273.499276,53.7170128 C272.056831,54.9535005 270.310124,55.6874318 268.234816,55.9195042 L267.841839,55.9571368 L267.742,55.963 L267.742,53.061 L267.809797,53.0530163 L268.076126,53.01359 C271.42409,52.458952 273.890886,49.7950781 275.469532,45.1943101 L275.595584,44.8170338 L275.704705,44.4815829 L264.772,15.764 L269.095,15.764 Z M444.733673,14.7528205 L445.234385,14.7590832 L445.765673,14.7795723 C448.073448,14.8998631 450.299253,15.4259166 452.448325,16.3595739 L452.907668,16.5658829 L453.287,16.747 L453.287,19.105 L453.226508,19.0705403 L452.793798,18.8382802 C450.339585,17.55955 447.848214,16.9169231 445.323418,16.9169231 C443.619054,16.9169231 442.183672,17.2562654 441.031278,17.9537129 C439.736394,18.7373976 439.074689,20.0189157 439.074689,21.6646154 C439.074689,23.2316915 439.78436,24.5202048 441.134983,25.4367049 C442.235493,26.1834841 443.867427,26.9137162 446.045859,27.644839 L446.802234,27.8966723 L448.405148,28.4454671 L449.206232,28.7294853 L449.559545,28.8610535 L449.759425,28.9415252 L449.759425,28.9415252 L449.972235,29.0315214 L450.436404,29.2400378 L450.687646,29.3585333 L451.228147,29.6239372 C451.416723,29.7187108 451.613681,29.8197847 451.818944,29.9271423 C452.79173,30.4359354 453.502419,30.9315471 453.948033,31.3976828 C454.399177,31.8696028 454.822833,32.5149729 455.212168,33.3361142 C455.579521,34.1108934 455.764466,34.9758208 455.764466,35.9415385 C455.764466,38.3626144 454.822242,40.2463211 452.893869,41.6832696 C450.986581,43.1045064 448.423283,43.8570693 445.180136,43.9198229 L444.733673,43.9241026 L444.248849,43.9198094 L443.721386,43.90508 C440.757389,43.7919256 438.217463,43.1742237 436.091967,42.059183 L435.72118,41.8572499 L435.531,41.746 L435.531,39.371 L435.789894,39.5063466 L436.251597,39.7367551 C439.012315,41.0821329 441.602129,41.76 444.025979,41.76 C448.836996,41.76 451.513172,39.9930928 451.513172,36.4769231 C451.513172,35.7577744 451.345082,35.0795721 451.010846,34.4571563 C450.70223,33.8824497 450.336368,33.4026947 449.910058,33.0232682 C449.498726,32.6571732 448.891558,32.2785697 448.073738,31.866105 L447.785524,31.7227214 L447.785524,31.7227214 L447.508094,31.5887485 L446.985294,31.349 C446.734507,31.2385162 446.499568,31.1421093 446.280147,31.0597404 L443.657211,30.1227766 L442.893586,29.8373623 L442.184803,29.5650156 L441.225168,29.1813176 L440.654911,28.9422804 L440.390754,28.8278452 L439.904586,28.6092331 C439.023825,28.2020419 438.137734,27.6713512 437.24667,27.0159688 C436.436952,26.4204163 435.860012,25.7303835 435.500485,24.9391401 C435.130799,24.1255412 434.941343,23.1352808 434.941343,21.9620513 C434.941343,20.4850595 435.281656,19.2492827 435.955089,18.2303516 C436.632083,17.2060319 437.496783,16.4847751 438.566686,16.0463484 C439.766125,15.5548404 440.852964,15.2175211 441.824476,15.0326232 C442.64182,14.8770667 443.4513,14.7864636 444.253339,14.7605836 L444.733673,14.7528205 Z M494.844536,14.7528205 C498.212482,14.7528205 500.79419,15.7859415 502.664011,17.8535606 L502.868843,18.0875533 L503.063287,18.324954 L503.251049,18.5704021 C504.84933,20.7325139 505.693556,23.8021794 505.753898,27.8020405 L505.75738,28.2676923 L505.757,29.468 L486.523335,29.4687179 L486.535227,30.8961239 L486.545897,31.3169073 C486.659425,34.6501003 487.449622,37.1893049 488.960568,38.9193431 C490.563645,40.7548724 492.975368,41.6894427 496.128689,41.7561523 L496.495821,41.76 L496.876142,41.7543379 L497.304475,41.7346178 C499.45477,41.6007023 501.734535,40.9372541 504.145014,39.7529717 L504.628853,39.5091733 L504.872,39.38 L504.872,41.601 L504.517518,41.7900995 C501.761272,43.2112545 498.735034,43.9241026 495.434281,43.9241026 C490.914718,43.9241026 487.671429,42.6665403 485.6193,40.1825763 C483.521589,37.6434398 482.45733,34.0401742 482.45733,29.3384615 C482.45733,24.8754874 483.548599,21.3306792 485.712983,18.6664348 C487.833759,16.0558688 490.848001,14.7528205 494.844536,14.7528205 Z M381.943297,14.7528205 C385.532629,14.7528205 387.984261,15.4391725 389.327504,16.7317594 L389.472194,16.8778709 L389.635915,17.0592145 L389.792888,17.2488906 C390.865602,18.6027553 391.443206,20.5676791 391.495783,23.1726548 L391.499728,23.5682051 L391.499,43.21 L387.785,43.21 L387.262666,38.8477629 L385.494347,40.2736799 L385.138346,40.5501688 C382.173098,42.8085178 379.243286,43.9241026 376.340721,43.9241026 C373.755947,43.9241026 371.816868,43.2487346 370.466143,41.9207596 C369.108367,40.5858519 368.435575,38.9107273 368.435575,36.8338462 C368.435575,35.7313521 368.637486,34.6776028 369.042249,33.6657745 C369.443012,32.6639436 370.116619,31.6715703 371.07152,30.6901937 C371.98361,29.7528205 373.413363,28.9686293 375.369821,28.35999 C377.235803,27.7794971 379.475035,27.4668823 382.085845,27.4277803 L382.650991,27.4235897 L387.307408,27.4235897 L387.307408,24.8174359 L387.304588,24.4674838 L387.295274,24.1019271 C387.207662,21.5768685 386.64813,19.762486 385.536059,18.6631817 C384.391232,17.5314981 382.616424,16.9714943 380.24014,16.9207267 L379.87919,16.9169231 L379.552107,16.9215987 L379.205208,16.9364799 C376.88149,17.0693871 374.22166,17.8793552 371.214767,19.355283 L370.737108,19.5938569 L370.44,19.746 L370.44,17.316 L370.991147,17.0806579 C374.71238,15.5277573 378.363497,14.7528205 381.943297,14.7528205 Z M181.078301,14.7528205 C184.855948,14.7528205 187.840149,15.9805229 190.101892,18.4444416 C192.372485,20.9180004 193.524482,24.5341816 193.524482,29.3384615 C193.524482,34.1051773 192.381174,37.7137262 190.126213,40.2084101 C187.920034,42.689089 184.931132,43.9241026 181.078301,43.9241026 C177.22437,43.9241026 174.224351,42.6882179 172.003596,40.2114024 C169.766643,37.7165206 168.63212,34.106589 168.63212,29.3384615 C168.63212,24.5341816 169.784117,20.9180004 172.05471,18.4444416 C174.316453,15.9805229 177.300654,14.7528205 181.078301,14.7528205 Z M89.982,0.271 L89.9827422,17.6104868 L91.9002111,16.6009303 L92.3513834,16.376804 C94.6036477,15.2924894 96.8019152,14.7528205 98.9442966,14.7528205 C102.302949,14.7528205 104.798318,15.8695455 106.526755,18.1111404 C108.301011,20.4121588 109.208422,23.8305232 109.208422,28.3866667 C109.208422,33.5974768 108.057975,37.4812355 105.798253,40.0730963 C103.56006,42.6402644 100.436801,43.9241026 96.3494196,43.9241026 C94.9133616,43.9241026 93.2552318,43.7161249 91.3781662,43.2974453 L90.8608134,43.1780339 L90.2992131,43.0380961 L89.7492899,42.888866 C88.6611159,42.5811195 87.6429603,42.2176738 86.6945554,41.7988598 L86.2261643,41.5848403 L85.849,41.4 L85.849,1.274 L89.982,0.271 Z M65.6324382,14.7528205 C69.0003838,14.7528205 71.582092,15.7859415 73.4519127,17.8535606 L73.6567448,18.0875533 L73.8511892,18.324954 L74.038951,18.5704021 C75.6372326,20.7325139 76.4814577,23.8021794 76.5418004,27.8020405 L76.5452826,28.2676923 L76.545,29.468 L57.3112373,29.4687179 L57.323129,30.8961239 L57.3337989,31.3169073 C57.447327,34.6501003 58.2375243,37.1893049 59.74847,38.9193431 C61.3515474,40.7548724 63.7632701,41.6894427 66.9165915,41.7561523 L67.2837235,41.76 L67.6640441,41.7543379 L68.0923771,41.7346178 C70.2426716,41.6007023 72.522437,40.9372541 74.932916,39.7529717 L75.416755,39.5091733 L75.66,39.38 L75.66,41.601 L75.3054203,41.7900995 C72.5491744,43.2112545 69.5229356,43.9241026 66.2221829,43.9241026 C61.7026198,43.9241026 58.4593312,42.6665403 56.4072017,40.1825763 C54.3094913,37.6434398 53.2452318,34.0401742 53.2452318,29.3384615 C53.2452318,24.8754874 54.336501,21.3306792 56.5008848,18.6664348 C58.6216614,16.0558688 61.6359028,14.7528205 65.6324382,14.7528205 Z M247.643044,14.7528205 C251.010989,14.7528205 253.592697,15.7859415 255.462518,17.8535606 L255.66735,18.0875533 L255.861795,18.324954 L256.049556,18.5704021 C257.647838,20.7325139 258.492063,23.8021794 258.552406,27.8020405 L258.555888,28.2676923 L258.555,29.468 L239.321843,29.4687179 L239.333734,30.8961239 L239.344404,31.3169073 C239.457932,34.6501003 240.24813,37.1893049 241.759075,38.9193431 C243.362153,40.7548724 245.773876,41.6894427 248.927197,41.7561523 L249.294329,41.76 L249.67465,41.7543379 L250.102983,41.7346178 C252.253277,41.6007023 254.533042,40.9372541 256.943521,39.7529717 L257.42736,39.5091733 L257.671,39.38 L257.671,41.6 L257.316026,41.7900995 C254.55978,43.2112545 251.533541,43.9241026 248.232788,43.9241026 C243.713225,43.9241026 240.469937,42.6665403 238.417807,40.1825763 C236.320097,37.6434398 235.255837,34.0401742 235.255837,29.3384615 C235.255837,24.8754874 236.347106,21.3306792 238.51149,18.6664348 C240.632267,16.0558688 243.646508,14.7528205 247.643044,14.7528205 Z M478.637,0.016 L478.637,2.069 L478.277207,2.09053941 C472.123046,2.51453098 468.846241,5.89846403 468.73316,11.9958862 L468.73013,12.3251282 L468.73013,16.1805128 L477.764,16.18 L476.978,18.463 L468.73013,18.4635897 L468.73,43.21 L464.596,43.21 L464.596784,12.5630769 L464.600801,12.1435147 L464.612562,11.7375461 C464.769493,7.71601942 466.105773,4.83834009 468.607505,3.02143361 C470.972394,1.30391088 473.999235,0.313473428 477.704598,0.0633290957 L478.191756,0.0349009194 L478.637,0.016 Z M416.729517,14.7528205 C419.864825,14.7528205 422.070455,15.3476148 423.370596,16.4737963 L423.5284,16.617332 L423.690677,16.780178 L423.846017,16.9519749 C424.858435,18.1271847 425.406645,19.900947 425.45656,22.3098015 L425.460306,22.6758974 L425.46,43.21 L421.326,43.21 L421.32696,24.0441026 L421.323514,23.7117406 L421.313212,23.3910365 C421.222177,21.2826252 420.682659,19.7670333 419.610702,18.8738056 C418.505005,17.9524625 416.964465,17.5117949 415.019257,17.5117949 C412.614945,17.5117949 410.188842,18.1941605 407.749575,19.5451029 L407.318982,19.790442 L406.824371,20.0801319 L406.824,43.21 L402.691,43.21 L402.691,18.722 L403.206912,18.4273445 C407.573717,15.9758871 412.078756,14.7528205 416.729517,14.7528205 Z M125.089,3.033 L138.300488,36.2871795 L139,39 L139.964189,36.2871795 L152.584,3.033 L158.207,3.033 L158.207,43.21 L153.838,43.21 L154,6 L151.62632,12.6338462 L139.595,43.21 L137.177,43.21 L125.146755,13.3476923 L123,7 L122.940754,13.3476923 L122.94,43.21 L119.633,43.21 L119.633,3.033 L125.089,3.033 Z M335.786,3.033 L335.786,5.911 L323.519598,5.91179487 L323.519,43.21 L319.15,43.21 L319.150355,5.91179487 L306.883,5.911 L306.883,3.033 L335.786,3.033 Z M4.793,3.033 L11.3983878,34.5025641 L12.5,39 L13.4087253,34.5025641 L21.075,3.033 L24.765,3.033 L32.9630904,34.5025641 L34,39 L34.9757399,34.5025641 L40.991,3.033 L45.811,3.033 L36.711,43.21 L31.906,43.21 L23.8862251,13.5261538 L23,8 L21.9361735,13.5261538 L14.151,43.21 L9.353,43.21 L0.252,3.033 L4.793,3.033 Z M356.887865,14.7528205 C358.988677,14.7528205 360.565019,15.1656933 361.641036,15.9578402 L361.825732,16.1015611 L361.960371,16.2194184 L362.089199,16.3467864 C362.884406,17.1813308 363.329275,18.5872421 363.373901,20.6082345 L363.377624,20.9507692 L363.377,23.034 L359.716,23.996 L359.716074,23.0328205 L359.712865,22.7513316 L359.702942,22.4760499 C359.54822,19.3037562 358.031717,17.5117949 355.295554,17.5117949 C353.150355,17.5117949 350.890937,18.2677223 348.517764,19.7546654 L348.142107,19.9955172 L347.690413,20.2916706 L347.69,43.21 L343.557,43.21 L343.557,19.012 L343.652539,18.9543788 L344.269688,18.5949532 C346.134184,17.537287 348.115912,16.6652543 350.209438,15.9825157 C352.730073,15.1604887 354.957623,14.7528205 356.887865,14.7528205 Z M217.102986,14.7528205 C220.238294,14.7528205 222.443923,15.3476148 223.744065,16.4737963 L223.901868,16.617332 L224.064145,16.780178 L224.219485,16.9519749 C225.231903,18.1271847 225.780114,19.900947 225.830029,22.3098015 L225.833774,22.6758974 L225.833,43.21 L221.7,43.21 L221.700429,24.0441026 L221.696982,23.7117406 L221.68668,23.3910365 C221.595645,21.2826252 221.056127,19.7670333 219.984171,18.8738056 C218.878473,17.9524625 217.337933,17.5117949 215.392726,17.5117949 C212.988414,17.5117949 210.56231,18.1941605 208.123044,19.5451029 L207.69245,19.790442 L207.197839,20.0801319 L207.197,43.21 L203.064,43.21 L203.064,18.723 L203.58038,18.4273445 C207.947185,15.9758871 212.452224,14.7528205 217.102986,14.7528205 Z M528.510241,14.7528205 C530.611053,14.7528205 532.187395,15.1656933 533.263412,15.9578402 L533.448108,16.1015611 L533.582748,16.2194184 L533.711576,16.3467864 C534.506783,17.1813308 534.951651,18.5872421 534.996277,20.6082345 L535,20.9507692 L535,23.034 L531.338,23.996 L531.33845,23.0328205 L531.335241,22.7513316 L531.325318,22.4760499 C531.170596,19.3037562 529.654093,17.5117949 526.91793,17.5117949 C524.772731,17.5117949 522.513313,18.2677223 520.14014,19.7546654 L519.764483,19.9955172 L519.312789,20.2916706 L519.312,43.21 L515.179,43.21 L515.179,19.012 L515.274915,18.9543788 L515.892064,18.5949532 C517.75656,17.537287 519.738288,16.6652543 521.831814,15.9825157 C524.352449,15.1604887 526.579999,14.7528205 528.510241,14.7528205 Z M181.078301,16.9169231 C178.661567,16.9169231 176.635988,18.0313893 175.078122,20.1864657 C173.560091,22.286436 172.82444,25.3394241 172.82444,29.3384615 C172.82444,33.4107062 173.515898,36.4753427 174.949856,38.5354016 C176.433514,40.6668603 178.508719,41.76 181.078301,41.76 C183.647883,41.76 185.723088,40.6668603 187.206746,38.5354016 C188.640704,36.4753427 189.332162,33.4107062 189.332162,29.3384615 C189.332162,25.3437722 188.618654,22.2955869 187.145404,20.197622 C185.625332,18.0329822 183.573808,16.9169231 181.078301,16.9169231 Z M97.3519858,17.3928205 C95.3561662,17.3928205 93.190978,18.0201744 90.8530175,19.2568876 L90.4386421,19.481453 L89.9237677,19.7670957 L89.9237677,40.4759456 L90.8361833,40.8545284 L91.1716174,40.9803088 C92.6442926,41.5046401 94.3659525,41.76 96.3494196,41.76 C102.139528,41.76 105.016102,37.1174688 105.016102,28.3866667 C105.016102,21.2370484 102.452686,17.3928205 97.3519858,17.3928205 Z M387.366383,29.5876923 L383.240735,29.5876923 L382.873523,29.5897627 L382.511659,29.5960935 C376.053146,29.7486654 372.568921,31.9867987 372.568921,36.3579487 C372.568921,38.0103319 373.137477,39.3007041 374.287074,40.117689 C375.331197,40.8597159 376.614842,41.2246154 378.109956,41.2246154 C379.92302,41.2246154 381.6726,40.7888647 383.346338,39.9230759 C384.875531,39.1320567 386.079668,38.2167379 386.950726,37.1694349 L387.161547,36.904855 L387.366383,36.6362542 L387.366383,29.5876923 Z M65.4555147,16.7384615 C63.3119165,16.7384615 61.4830773,17.602453 60.037375,19.2885785 C58.6983264,20.8503136 57.8604898,23.0718871 57.4947292,25.9400032 L57.443402,26.375068 L57.3230229,27.4830769 L72.9977302,27.4830769 L72.9412745,26.4295655 L72.9147553,26.00688 C72.7037346,23.0801877 71.9590184,20.8279764 70.6435533,19.2656572 C69.2394259,17.5980378 67.4883962,16.7384615 65.4555147,16.7384615 Z M494.667613,16.7384615 C492.524014,16.7384615 490.695175,17.602453 489.249473,19.2885785 C487.910424,20.8503136 487.072588,23.0718871 486.706827,25.9400032 L486.6555,26.375068 L486.535121,27.4830769 L502.209828,27.4830769 L502.153372,26.4295655 L502.126853,26.00688 C501.915832,23.0801877 501.171116,20.8279764 499.855651,19.2656572 C498.451524,17.5980378 496.700494,16.7384615 494.667613,16.7384615 Z M247.46612,16.7384615 C245.322522,16.7384615 243.493683,17.602453 242.04798,19.2885785 C240.708932,20.8503136 239.871095,23.0718871 239.505335,25.9400032 L239.454007,26.375068 L239.333628,27.4830769 L255.008336,27.4830769 L254.95188,26.4295655 L254.925361,26.00688 C254.71434,23.0801877 253.969624,20.8279764 252.654159,19.2656572 C251.250031,17.5980378 249.499002,16.7384615 247.46612,16.7384615 Z" id="Shape"></path>
                    </g>
                    <path d="M1.50114767,60 C2.33020863,60 3.00229533,60.6715729 3.00229533,61.5 C3.00229533,62.3284271 2.33020863,63 1.50114767,63 C0.672086703,63 0,62.3284271 0,61.5 C0,60.6715729 0.672086703,60 1.50114767,60 Z M430.328998,60 C431.158059,60 431.830145,60.6715729 431.830145,61.5 C431.830145,62.3284271 431.158059,63 430.328998,63 C429.499937,63 428.82785,62.3284271 428.82785,61.5 C428.82785,60.6715729 429.499937,60 430.328998,60 Z M215.664881,60 C216.493942,60 217.166029,60.6715729 217.166029,61.5 C217.166029,62.3284271 216.493942,63 215.664881,63 C214.83582,63 214.163734,62.3284271 214.163734,61.5 C214.163734,60.6715729 214.83582,60 215.664881,60 Z M644.993114,60 C645.822175,60 646.494262,60.6715729 646.494262,61.5 C646.494262,62.3284271 645.822175,63 644.993114,63 C644.164053,63 643.491966,62.3284271 643.491966,61.5 C643.491966,60.6715729 644.164053,60 644.993114,60 Z M73.0558531,60 C73.8849141,60 74.5570008,60.6715729 74.5570008,61.5 C74.5570008,62.3284271 73.8849141,63 73.0558531,63 C72.2267921,63 71.5547054,62.3284271 71.5547054,61.5 C71.5547054,60.6715729 72.2267921,60 73.0558531,60 Z M501.883703,60 C502.712764,60 503.384851,60.6715729 503.384851,61.5 C503.384851,62.3284271 502.712764,63 501.883703,63 C501.054642,63 500.382555,62.3284271 500.382555,61.5 C500.382555,60.6715729 501.054642,60 501.883703,60 Z M287.719969,60 C288.54903,60 289.221117,60.6715729 289.221117,61.5 C289.221117,62.3284271 288.54903,63 287.719969,63 C286.890908,63 286.218822,62.3284271 286.218822,61.5 C286.218822,60.6715729 286.890908,60 287.719969,60 Z M144.110176,60 C144.939237,60 145.611324,60.6715729 145.611324,61.5 C145.611324,62.3284271 144.939237,63 144.110176,63 C143.281115,63 142.609028,62.3284271 142.609028,61.5 C142.609028,60.6715729 143.281115,60 144.110176,60 Z M572.938026,60 C573.767087,60 574.439174,60.6715729 574.439174,61.5 C574.439174,62.3284271 573.767087,63 572.938026,63 C572.108965,63 571.436878,62.3284271 571.436878,61.5 C571.436878,60.6715729 572.108965,60 572.938026,60 Z M358.774292,60 C359.603353,60 360.27544,60.6715729 360.27544,61.5 C360.27544,62.3284271 359.603353,63 358.774292,63 C357.945231,63 357.273145,62.3284271 357.273145,61.5 C357.273145,60.6715729 357.945231,60 358.774292,60 Z M25.0191278,60 C25.8481887,60 26.5202754,60.6715729 26.5202754,61.5 C26.5202754,62.3284271 25.8481887,63 25.0191278,63 C24.1900668,63 23.5179801,62.3284271 23.5179801,61.5 C23.5179801,60.6715729 24.1900668,60 25.0191278,60 Z M453.846978,60 C454.676039,60 455.348125,60.6715729 455.348125,61.5 C455.348125,62.3284271 454.676039,63 453.846978,63 C453.017917,63 452.34583,62.3284271 452.34583,61.5 C452.34583,60.6715729 453.017917,60 453.846978,60 Z M239.683244,60 C240.512305,60 241.184392,60.6715729 241.184392,61.5 C241.184392,62.3284271 240.512305,63 239.683244,63 C238.854183,63 238.182096,62.3284271 238.182096,61.5 C238.182096,60.6715729 238.854183,60 239.683244,60 Z M96.5738332,60 C97.4028942,60 98.0749809,60.6715729 98.0749809,61.5 C98.0749809,62.3284271 97.4028942,63 96.5738332,63 C95.7447722,63 95.0726855,62.3284271 95.0726855,61.5 C95.0726855,60.6715729 95.7447722,60 96.5738332,60 Z M525.401683,60 C526.230744,60 526.902831,60.6715729 526.902831,61.5 C526.902831,62.3284271 526.230744,63 525.401683,63 C524.572622,63 523.900536,62.3284271 523.900536,61.5 C523.900536,60.6715729 524.572622,60 525.401683,60 Z M311.23795,60 C312.06701,60 312.739097,60.6715729 312.739097,61.5 C312.739097,62.3284271 312.06701,63 311.23795,63 C310.408889,63 309.736802,62.3284271 309.736802,61.5 C309.736802,60.6715729 310.408889,60 311.23795,60 Z M168.128539,60 C168.9576,60 169.629686,60.6715729 169.629686,61.5 C169.629686,62.3284271 168.9576,63 168.128539,63 C167.299478,63 166.627391,62.3284271 166.627391,61.5 C166.627391,60.6715729 167.299478,60 168.128539,60 Z M596.956389,60 C597.78545,60 598.457536,60.6715729 598.457536,61.5 C598.457536,62.3284271 597.78545,63 596.956389,63 C596.127328,63 595.455241,62.3284271 595.455241,61.5 C595.455241,60.6715729 596.127328,60 596.956389,60 Z M382.792655,60 C383.621716,60 384.293803,60.6715729 384.293803,61.5 C384.293803,62.3284271 383.621716,63 382.792655,63 C381.963594,63 381.291507,62.3284271 381.291507,61.5 C381.291507,60.6715729 381.963594,60 382.792655,60 Z M49.0374904,60 C49.8665514,60 50.5386381,60.6715729 50.5386381,61.5 C50.5386381,62.3284271 49.8665514,63 49.0374904,63 C48.2084295,63 47.5363428,62.3284271 47.5363428,61.5 C47.5363428,60.6715729 48.2084295,60 49.0374904,60 Z M477.86534,60 C478.694401,60 479.366488,60.6715729 479.366488,61.5 C479.366488,62.3284271 478.694401,63 477.86534,63 C477.03628,63 476.364193,62.3284271 476.364193,61.5 C476.364193,60.6715729 477.03628,60 477.86534,60 Z M263.701607,60 C264.530668,60 265.202754,60.6715729 265.202754,61.5 C265.202754,62.3284271 264.530668,63 263.701607,63 C262.872546,63 262.200459,62.3284271 262.200459,61.5 C262.200459,60.6715729 262.872546,60 263.701607,60 Z M120.592196,60 C121.421257,60 122.093344,60.6715729 122.093344,61.5 C122.093344,62.3284271 121.421257,63 120.592196,63 C119.763135,63 119.091048,62.3284271 119.091048,61.5 C119.091048,60.6715729 119.763135,60 120.592196,60 Z M549.420046,60 C550.249107,60 550.921194,60.6715729 550.921194,61.5 C550.921194,62.3284271 550.249107,63 549.420046,63 C548.590985,63 547.918898,62.3284271 547.918898,61.5 C547.918898,60.6715729 548.590985,60 549.420046,60 Z M335.256312,60 C336.085373,60 336.75746,60.6715729 336.75746,61.5 C336.75746,62.3284271 336.085373,63 335.256312,63 C334.427251,63 333.755164,62.3284271 333.755164,61.5 C333.755164,60.6715729 334.427251,60 335.256312,60 Z M192.146901,60 C192.975962,60 193.648049,60.6715729 193.648049,61.5 C193.648049,62.3284271 192.975962,63 192.146901,63 C191.31784,63 190.645754,62.3284271 190.645754,61.5 C190.645754,60.6715729 191.31784,60 192.146901,60 Z M620.974751,60 C621.803812,60 622.475899,60.6715729 622.475899,61.5 C622.475899,62.3284271 621.803812,63 620.974751,63 C620.14569,63 619.473604,62.3284271 619.473604,61.5 C619.473604,60.6715729 620.14569,60 620.974751,60 Z M406.811018,60 C407.640079,60 408.312165,60.6715729 408.312165,61.5 C408.312165,62.3284271 407.640079,63 406.811018,63 C405.981957,63 405.30987,62.3284271 405.30987,61.5 C405.30987,60.6715729 405.981957,60 406.811018,60 Z M9.50726855,60 C10.3363295,60 11.0084162,60.6715729 11.0084162,61.5 C11.0084162,62.3284271 10.3363295,63 9.50726855,63 C8.67820759,63 8.00612089,62.3284271 8.00612089,61.5 C8.00612089,60.6715729 8.67820759,60 9.50726855,60 Z M438.335119,60 C439.16418,60 439.836266,60.6715729 439.836266,61.5 C439.836266,62.3284271 439.16418,63 438.335119,63 C437.506058,63 436.833971,62.3284271 436.833971,61.5 C436.833971,60.6715729 437.506058,60 438.335119,60 Z M223.671002,60 C224.500063,60 225.17215,60.6715729 225.17215,61.5 C225.17215,62.3284271 224.500063,63 223.671002,63 C222.841941,63 222.169855,62.3284271 222.169855,61.5 C222.169855,60.6715729 222.841941,60 223.671002,60 Z M652.498852,60 C653.327913,60 654,60.6715729 654,61.5 C654,62.3284271 653.327913,63 652.498852,63 C651.669791,63 650.997705,62.3284271 650.997705,61.5 C650.997705,60.6715729 651.669791,60 652.498852,60 Z M81.061974,60 C81.8910349,60 82.5631217,60.6715729 82.5631217,61.5 C82.5631217,62.3284271 81.8910349,63 81.061974,63 C80.232913,63 79.5608263,62.3284271 79.5608263,61.5 C79.5608263,60.6715729 80.232913,60 81.061974,60 Z M509.889824,60 C510.718885,60 511.390972,60.6715729 511.390972,61.5 C511.390972,62.3284271 510.718885,63 509.889824,63 C509.060763,63 508.388676,62.3284271 508.388676,61.5 C508.388676,60.6715729 509.060763,60 509.889824,60 Z M295.72609,60 C296.555151,60 297.227238,60.6715729 297.227238,61.5 C297.227238,62.3284271 296.555151,63 295.72609,63 C294.897029,63 294.224943,62.3284271 294.224943,61.5 C294.224943,60.6715729 294.897029,60 295.72609,60 Z M152.116297,60 C152.945358,60 153.617445,60.6715729 153.617445,61.5 C153.617445,62.3284271 152.945358,63 152.116297,63 C151.287236,63 150.615149,62.3284271 150.615149,61.5 C150.615149,60.6715729 151.287236,60 152.116297,60 Z M580.944147,60 C581.773208,60 582.445295,60.6715729 582.445295,61.5 C582.445295,62.3284271 581.773208,63 580.944147,63 C580.115086,63 579.442999,62.3284271 579.442999,61.5 C579.442999,60.6715729 580.115086,60 580.944147,60 Z M366.780413,60 C367.609474,60 368.281561,60.6715729 368.281561,61.5 C368.281561,62.3284271 367.609474,63 366.780413,63 C365.951352,63 365.279265,62.3284271 365.279265,61.5 C365.279265,60.6715729 365.951352,60 366.780413,60 Z M33.0252487,60 C33.8543096,60 34.5263963,60.6715729 34.5263963,61.5 C34.5263963,62.3284271 33.8543096,63 33.0252487,63 C32.1961877,63 31.524101,62.3284271 31.524101,61.5 C31.524101,60.6715729 32.1961877,60 33.0252487,60 Z M461.853099,60 C462.68216,60 463.354246,60.6715729 463.354246,61.5 C463.354246,62.3284271 462.68216,63 461.853099,63 C461.024038,63 460.351951,62.3284271 460.351951,61.5 C460.351951,60.6715729 461.024038,60 461.853099,60 Z M247.689365,60 C248.518426,60 249.190513,60.6715729 249.190513,61.5 C249.190513,62.3284271 248.518426,63 247.689365,63 C246.860304,63 246.188217,62.3284271 246.188217,61.5 C246.188217,60.6715729 246.860304,60 247.689365,60 Z M104.579954,60 C105.409015,60 106.081102,60.6715729 106.081102,61.5 C106.081102,62.3284271 105.409015,63 104.579954,63 C103.750893,63 103.078806,62.3284271 103.078806,61.5 C103.078806,60.6715729 103.750893,60 104.579954,60 Z M533.407804,60 C534.236865,60 534.908952,60.6715729 534.908952,61.5 C534.908952,62.3284271 534.236865,63 533.407804,63 C532.578743,63 531.906656,62.3284271 531.906656,61.5 C531.906656,60.6715729 532.578743,60 533.407804,60 Z M319.24407,60 C320.073131,60 320.745218,60.6715729 320.745218,61.5 C320.745218,62.3284271 320.073131,63 319.24407,63 C318.415009,63 317.742923,62.3284271 317.742923,61.5 C317.742923,60.6715729 318.415009,60 319.24407,60 Z M176.13466,60 C176.96372,60 177.635807,60.6715729 177.635807,61.5 C177.635807,62.3284271 176.96372,63 176.13466,63 C175.305599,63 174.633512,62.3284271 174.633512,61.5 C174.633512,60.6715729 175.305599,60 176.13466,60 Z M604.96251,60 C605.791571,60 606.463657,60.6715729 606.463657,61.5 C606.463657,62.3284271 605.791571,63 604.96251,63 C604.133449,63 603.461362,62.3284271 603.461362,61.5 C603.461362,60.6715729 604.133449,60 604.96251,60 Z M390.798776,60 C391.627837,60 392.299923,60.6715729 392.299923,61.5 C392.299923,62.3284271 391.627837,63 390.798776,63 C389.969715,63 389.297628,62.3284271 389.297628,61.5 C389.297628,60.6715729 389.969715,60 390.798776,60 Z M57.0436113,60 C57.8726723,60 58.544759,60.6715729 58.544759,61.5 C58.544759,62.3284271 57.8726723,63 57.0436113,63 C56.2145504,63 55.5424637,62.3284271 55.5424637,61.5 C55.5424637,60.6715729 56.2145504,60 57.0436113,60 Z M485.871461,60 C486.700522,60 487.372609,60.6715729 487.372609,61.5 C487.372609,62.3284271 486.700522,63 485.871461,63 C485.0424,63 484.370314,62.3284271 484.370314,61.5 C484.370314,60.6715729 485.0424,60 485.871461,60 Z M271.707728,60 C272.536789,60 273.208875,60.6715729 273.208875,61.5 C273.208875,62.3284271 272.536789,63 271.707728,63 C270.878667,63 270.20658,62.3284271 270.20658,61.5 C270.20658,60.6715729 270.878667,60 271.707728,60 Z M128.598317,60 C129.427378,60 130.099464,60.6715729 130.099464,61.5 C130.099464,62.3284271 129.427378,63 128.598317,63 C127.769256,63 127.097169,62.3284271 127.097169,61.5 C127.097169,60.6715729 127.769256,60 128.598317,60 Z M557.426167,60 C558.255228,60 558.927314,60.6715729 558.927314,61.5 C558.927314,62.3284271 558.255228,63 557.426167,63 C556.597106,63 555.925019,62.3284271 555.925019,61.5 C555.925019,60.6715729 556.597106,60 557.426167,60 Z M343.262433,60 C344.091494,60 344.763581,60.6715729 344.763581,61.5 C344.763581,62.3284271 344.091494,63 343.262433,63 C342.433372,63 341.761285,62.3284271 341.761285,61.5 C341.761285,60.6715729 342.433372,60 343.262433,60 Z M199.65264,60 C200.481701,60 201.153787,60.6715729 201.153787,61.5 C201.153787,62.3284271 200.481701,63 199.65264,63 C198.823579,63 198.151492,62.3284271 198.151492,61.5 C198.151492,60.6715729 198.823579,60 199.65264,60 Z M628.980872,60 C629.809933,60 630.48202,60.6715729 630.48202,61.5 C630.48202,62.3284271 629.809933,63 628.980872,63 C628.151811,63 627.479725,62.3284271 627.479725,61.5 C627.479725,60.6715729 628.151811,60 628.980872,60 Z M414.316756,60 C415.145817,60 415.817904,60.6715729 415.817904,61.5 C415.817904,62.3284271 415.145817,63 414.316756,63 C413.487695,63 412.815608,62.3284271 412.815608,61.5 C412.815608,60.6715729 413.487695,60 414.316756,60 Z M17.0130069,60 C17.8420678,60 18.5141546,60.6715729 18.5141546,61.5 C18.5141546,62.3284271 17.8420678,63 17.0130069,63 C16.1839459,63 15.5118592,62.3284271 15.5118592,61.5 C15.5118592,60.6715729 16.1839459,60 17.0130069,60 Z M445.840857,60 C446.669918,60 447.342005,60.6715729 447.342005,61.5 C447.342005,62.3284271 446.669918,63 445.840857,63 C445.011796,63 444.339709,62.3284271 444.339709,61.5 C444.339709,60.6715729 445.011796,60 445.840857,60 Z M232.177506,60 C233.006567,60 233.678653,60.6715729 233.678653,61.5 C233.678653,62.3284271 233.006567,63 232.177506,63 C231.348445,63 230.676358,62.3284271 230.676358,61.5 C230.676358,60.6715729 231.348445,60 232.177506,60 Z M88.5677123,60 C89.3967733,60 90.06886,60.6715729 90.06886,61.5 C90.06886,62.3284271 89.3967733,63 88.5677123,63 C87.7386514,63 87.0665647,62.3284271 87.0665647,61.5 C87.0665647,60.6715729 87.7386514,60 88.5677123,60 Z M517.395562,60 C518.224623,60 518.89671,60.6715729 518.89671,61.5 C518.89671,62.3284271 518.224623,63 517.395562,63 C516.566501,63 515.894415,62.3284271 515.894415,61.5 C515.894415,60.6715729 516.566501,60 517.395562,60 Z M303.231829,60 C304.06089,60 304.732976,60.6715729 304.732976,61.5 C304.732976,62.3284271 304.06089,63 303.231829,63 C302.402768,63 301.730681,62.3284271 301.730681,61.5 C301.730681,60.6715729 302.402768,60 303.231829,60 Z M160.122418,60 C160.951479,60 161.623565,60.6715729 161.623565,61.5 C161.623565,62.3284271 160.951479,63 160.122418,63 C159.293357,63 158.62127,62.3284271 158.62127,61.5 C158.62127,60.6715729 159.293357,60 160.122418,60 Z M588.950268,60 C589.779329,60 590.451415,60.6715729 590.451415,61.5 C590.451415,62.3284271 589.779329,63 588.950268,63 C588.121207,63 587.44912,62.3284271 587.44912,61.5 C587.44912,60.6715729 588.121207,60 588.950268,60 Z M374.786534,60 C375.615595,60 376.287682,60.6715729 376.287682,61.5 C376.287682,62.3284271 375.615595,63 374.786534,63 C373.957473,63 373.285386,62.3284271 373.285386,61.5 C373.285386,60.6715729 373.957473,60 374.786534,60 Z M41.0313695,60 C41.8604305,60 42.5325172,60.6715729 42.5325172,61.5 C42.5325172,62.3284271 41.8604305,63 41.0313695,63 C40.2023086,63 39.5302219,62.3284271 39.5302219,61.5 C39.5302219,60.6715729 40.2023086,60 41.0313695,60 Z M469.85922,60 C470.688281,60 471.360367,60.6715729 471.360367,61.5 C471.360367,62.3284271 470.688281,63 469.85922,63 C469.030159,63 468.358072,62.3284271 468.358072,61.5 C468.358072,60.6715729 469.030159,60 469.85922,60 Z M255.695486,60 C256.524547,60 257.196634,60.6715729 257.196634,61.5 C257.196634,62.3284271 256.524547,63 255.695486,63 C254.866425,63 254.194338,62.3284271 254.194338,61.5 C254.194338,60.6715729 254.866425,60 255.695486,60 Z M112.586075,60 C113.415136,60 114.087223,60.6715729 114.087223,61.5 C114.087223,62.3284271 113.415136,63 112.586075,63 C111.757014,63 111.084927,62.3284271 111.084927,61.5 C111.084927,60.6715729 111.757014,60 112.586075,60 Z M541.413925,60 C542.242986,60 542.915073,60.6715729 542.915073,61.5 C542.915073,62.3284271 542.242986,63 541.413925,63 C540.584864,63 539.912777,62.3284271 539.912777,61.5 C539.912777,60.6715729 540.584864,60 541.413925,60 Z M327.250191,60 C328.079252,60 328.751339,60.6715729 328.751339,61.5 C328.751339,62.3284271 328.079252,63 327.250191,63 C326.42113,63 325.749044,62.3284271 325.749044,61.5 C325.749044,60.6715729 326.42113,60 327.250191,60 Z M184.14078,60 C184.969841,60 185.641928,60.6715729 185.641928,61.5 C185.641928,62.3284271 184.969841,63 184.14078,63 C183.311719,63 182.639633,62.3284271 182.639633,61.5 C182.639633,60.6715729 183.311719,60 184.14078,60 Z M612.96863,60 C613.797691,60 614.469778,60.6715729 614.469778,61.5 C614.469778,62.3284271 613.797691,63 612.96863,63 C612.139569,63 611.467483,62.3284271 611.467483,61.5 C611.467483,60.6715729 612.139569,60 612.96863,60 Z M398.804897,60 C399.633958,60 400.306044,60.6715729 400.306044,61.5 C400.306044,62.3284271 399.633958,63 398.804897,63 C397.975836,63 397.303749,62.3284271 397.303749,61.5 C397.303749,60.6715729 397.975836,60 398.804897,60 Z M65.0497322,60 C65.8787932,60 66.5508799,60.6715729 66.5508799,61.5 C66.5508799,62.3284271 65.8787932,63 65.0497322,63 C64.2206712,63 63.5485845,62.3284271 63.5485845,61.5 C63.5485845,60.6715729 64.2206712,60 65.0497322,60 Z M493.877582,60 C494.706643,60 495.37873,60.6715729 495.37873,61.5 C495.37873,62.3284271 494.706643,63 493.877582,63 C493.048521,63 492.376435,62.3284271 492.376435,61.5 C492.376435,60.6715729 493.048521,60 493.877582,60 Z M279.713849,60 C280.542909,60 281.214996,60.6715729 281.214996,61.5 C281.214996,62.3284271 280.542909,63 279.713849,63 C278.884788,63 278.212701,62.3284271 278.212701,61.5 C278.212701,60.6715729 278.884788,60 279.713849,60 Z M136.604438,60 C137.433499,60 138.105585,60.6715729 138.105585,61.5 C138.105585,62.3284271 137.433499,63 136.604438,63 C135.775377,63 135.10329,62.3284271 135.10329,61.5 C135.10329,60.6715729 135.775377,60 136.604438,60 Z M565.432288,60 C566.261349,60 566.933435,60.6715729 566.933435,61.5 C566.933435,62.3284271 566.261349,63 565.432288,63 C564.603227,63 563.93114,62.3284271 563.93114,61.5 C563.93114,60.6715729 564.603227,60 565.432288,60 Z M351.268554,60 C352.097615,60 352.769702,60.6715729 352.769702,61.5 C352.769702,62.3284271 352.097615,63 351.268554,63 C350.439493,63 349.767406,62.3284271 349.767406,61.5 C349.767406,60.6715729 350.439493,60 351.268554,60 Z M207.658761,60 C208.487821,60 209.159908,60.6715729 209.159908,61.5 C209.159908,62.3284271 208.487821,63 207.658761,63 C206.8297,63 206.157613,62.3284271 206.157613,61.5 C206.157613,60.6715729 206.8297,60 207.658761,60 Z M636.986993,60 C637.816054,60 638.488141,60.6715729 638.488141,61.5 C638.488141,62.3284271 637.816054,63 636.986993,63 C636.157932,63 635.485845,62.3284271 635.485845,61.5 C635.485845,60.6715729 636.157932,60 636.986993,60 Z M422.322877,60 C423.151938,60 423.824024,60.6715729 423.824024,61.5 C423.824024,62.3284271 423.151938,63 422.322877,63 C421.493816,63 420.821729,62.3284271 420.821729,61.5 C420.821729,60.6715729 421.493816,60 422.322877,60 Z" id="Combined-Shape"></path>
                </g>
                <path d="M179.654857,98.2734375 C180.511628,98.2734375 181.295482,98.2073568 182.00642,98.0751953 C182.717357,97.9430339 183.492097,97.6946615 184.330638,97.3300781 L184.330638,97.3300781 L184.330638,96.0996094 C183.346263,96.4915365 182.532787,96.7467448 181.890209,96.8652344 C181.247631,96.983724 180.502513,97.0429688 179.654857,97.0429688 C177.913972,97.0429688 176.576407,96.5052083 175.642162,95.4296875 C174.707917,94.3541667 174.23168,92.7955729 174.213451,90.7539062 L174.213451,90.7539062 L184.918529,90.7539062 L184.918529,89.6601562 C184.918529,87.5638021 184.41267,85.9049479 183.400951,84.6835938 C182.389232,83.4622396 181.008373,82.8515625 179.258373,82.8515625 C177.280508,82.8515625 175.708243,83.5647786 174.541576,84.9912109 C173.374909,86.4176432 172.791576,88.3157552 172.791576,90.6855469 C172.791576,93.0826823 173.395417,94.9466146 174.603099,96.2773438 C175.810782,97.6080729 177.494701,98.2734375 179.654857,98.2734375 Z M183.482982,89.5507812 L174.295482,89.5507812 C174.441315,87.7734375 174.947175,86.4130859 175.81306,85.4697266 C176.678946,84.5263672 177.827383,84.0546875 179.258373,84.0546875 C180.579987,84.0546875 181.614493,84.5400391 182.361888,85.5107422 C183.109284,86.4814453 183.482982,87.828125 183.482982,89.5507812 L183.482982,89.5507812 Z M194.206564,98 L199.948752,83.1386719 L198.55422,83.1386719 L194.712423,93.2148438 C194.320496,94.2539062 193.937684,95.3932292 193.563986,96.6328125 L193.563986,96.6328125 L193.481955,96.6328125 C193.226746,95.6666667 192.843934,94.5364583 192.333517,93.2421875 L192.333517,93.2421875 L188.49172,83.1386719 L187.097189,83.1386719 L192.839377,98 L194.206564,98 Z M204.916474,98 L204.916474,89.796875 C204.916474,88.15625 205.322073,86.7981771 206.133271,85.7226562 C206.944469,84.6471354 207.983531,84.109375 209.250458,84.109375 C209.915823,84.109375 210.558401,84.186849 211.178193,84.3417969 L211.178193,84.3417969 L211.437958,83.0429688 C210.717906,82.9153646 210.043427,82.8515625 209.414521,82.8515625 C208.430146,82.8515625 207.591604,83.0725911 206.898896,83.5146484 C206.206188,83.9567057 205.554495,84.7246094 204.943818,85.8183594 L204.943818,85.8183594 L204.848115,85.8183594 L204.711396,83.1386719 L203.562958,83.1386719 L203.562958,98 L204.916474,98 Z M221.026775,98.2734375 C221.883545,98.2734375 222.6674,98.2073568 223.378337,98.0751953 C224.089275,97.9430339 224.864014,97.6946615 225.702556,97.3300781 L225.702556,97.3300781 L225.702556,96.0996094 C224.718181,96.4915365 223.904704,96.7467448 223.262126,96.8652344 C222.619548,96.983724 221.874431,97.0429688 221.026775,97.0429688 C219.285889,97.0429688 217.948324,96.5052083 217.014079,95.4296875 C216.079835,94.3541667 215.603598,92.7955729 215.585368,90.7539062 L215.585368,90.7539062 L226.290447,90.7539062 L226.290447,89.6601562 C226.290447,87.5638021 225.784587,85.9049479 224.772868,84.6835938 C223.76115,83.4622396 222.38029,82.8515625 220.63029,82.8515625 C218.652426,82.8515625 217.08016,83.5647786 215.913493,84.9912109 C214.746827,86.4176432 214.163493,88.3157552 214.163493,90.6855469 C214.163493,93.0826823 214.767335,94.9466146 215.975017,96.2773438 C217.182699,97.6080729 218.866618,98.2734375 221.026775,98.2734375 Z M224.8549,89.5507812 L215.6674,89.5507812 C215.813233,87.7734375 216.319092,86.4130859 217.184978,85.4697266 C218.050863,84.5263672 219.199301,84.0546875 220.63029,84.0546875 C221.951905,84.0546875 222.98641,84.5400391 223.733806,85.5107422 C224.481202,86.4814453 224.8549,87.828125 224.8549,89.5507812 L224.8549,89.5507812 Z M232.87145,98 L232.87145,89.796875 C232.87145,87.7825521 233.283885,86.3264974 234.108755,85.4287109 C234.933625,84.5309245 236.234732,84.0820312 238.012075,84.0820312 C239.33369,84.0820312 240.30895,84.4215495 240.937857,85.1005859 C241.566763,85.7796224 241.881216,86.8665365 241.881216,88.3613281 L241.881216,88.3613281 L241.881216,98 L243.22106,98 L243.22106,88.2792969 C243.22106,84.6608073 241.534862,82.8515625 238.162466,82.8515625 C235.692414,82.8515625 233.974315,83.6263021 233.008169,85.1757812 L233.008169,85.1757812 L232.926138,85.1757812 L232.666372,83.1386719 L231.517935,83.1386719 L231.517935,98 L232.87145,98 Z M252.55011,98.2734375 C254.409485,98.2734375 255.845032,97.9156901 256.856751,97.2001953 C257.86847,96.4847005 258.374329,95.4615885 258.374329,94.1308594 C258.374329,93.4654948 258.22166,92.8867188 257.916321,92.3945312 C257.610983,91.9023438 257.152975,91.4625651 256.542298,91.0751953 C255.931621,90.6878255 254.95636,90.2526042 253.616517,89.7695312 C252.01235,89.1953125 250.93455,88.6757812 250.383118,88.2109375 C249.831686,87.7460938 249.55597,87.1263021 249.55597,86.3515625 C249.55597,85.640625 249.911438,85.0846354 250.622376,84.6835938 C251.333313,84.2825521 252.294902,84.0820312 253.507142,84.0820312 C254.755839,84.0820312 256.109355,84.3828125 257.567688,84.984375 L257.567688,84.984375 L258.073548,83.7539062 C256.633444,83.1523438 255.111308,82.8515625 253.507142,82.8515625 C251.830058,82.8515625 250.524394,83.1751302 249.590149,83.8222656 C248.655905,84.469401 248.188782,85.3489583 248.188782,86.4609375 C248.188782,87.1627604 248.341451,87.757487 248.64679,88.2451172 C248.952129,88.7327474 249.405579,89.1702474 250.007142,89.5576172 C250.608704,89.944987 251.652324,90.4075521 253.138001,90.9453125 L253.450796,91.059056 C254.674307,91.5146773 255.56581,91.9780649 256.125306,92.4492188 C256.731425,92.9596354 257.034485,93.5885417 257.034485,94.3359375 C257.034485,95.1471354 256.653951,95.7965495 255.892884,96.2841797 C255.131816,96.7718099 254.017558,97.015625 252.55011,97.015625 C250.891256,97.015625 249.314433,96.6419271 247.819642,95.8945312 L247.819642,95.8945312 L247.819642,97.3574219 C248.986308,97.968099 250.563131,98.2734375 252.55011,98.2734375 Z M269.330333,98.2734375 C270.187104,98.2734375 270.970958,98.2073568 271.681895,98.0751953 C272.392833,97.9430339 273.167572,97.6946615 274.006114,97.3300781 L274.006114,97.3300781 L274.006114,96.0996094 C273.021739,96.4915365 272.208262,96.7467448 271.565684,96.8652344 C270.923106,96.983724 270.177989,97.0429688 269.330333,97.0429688 C267.589447,97.0429688 266.251882,96.5052083 265.317637,95.4296875 C264.383393,94.3541667 263.907156,92.7955729 263.888927,90.7539062 L263.888927,90.7539062 L274.594005,90.7539062 L274.594005,89.6601562 C274.594005,87.5638021 274.088145,85.9049479 273.076427,84.6835938 C272.064708,83.4622396 270.683848,82.8515625 268.933848,82.8515625 C266.955984,82.8515625 265.383718,83.5647786 264.217052,84.9912109 C263.050385,86.4176432 262.467052,88.3157552 262.467052,90.6855469 C262.467052,93.0826823 263.070893,94.9466146 264.278575,96.2773438 C265.486257,97.6080729 267.170177,98.2734375 269.330333,98.2734375 Z M273.158458,89.5507812 L263.970958,89.5507812 C264.116791,87.7734375 264.62265,86.4130859 265.488536,85.4697266 C266.354421,84.5263672 267.502859,84.0546875 268.933848,84.0546875 C270.255463,84.0546875 271.289968,84.5400391 272.037364,85.5107422 C272.78476,86.4814453 273.158458,87.828125 273.158458,89.5507812 L273.158458,89.5507812 Z M281.175008,98 L281.175008,76.7265625 L279.821493,76.7265625 L279.821493,98 L281.175008,98 Z M298.780375,80.1855469 C299.363709,80.1855469 299.655375,79.7936198 299.655375,79.0097656 C299.655375,78.2259115 299.363709,77.8339844 298.780375,77.8339844 C298.488709,77.8339844 298.272237,77.9251302 298.130961,78.1074219 C297.989685,78.2897135 297.919047,78.5904948 297.919047,79.0097656 C297.919047,79.7936198 298.206157,80.1855469 298.780375,80.1855469 Z M303.98936,80.1855469 C304.572693,80.1855469 304.86436,79.7936198 304.86436,79.0097656 C304.86436,78.2259115 304.572693,77.8339844 303.98936,77.8339844 C303.697693,77.8339844 303.481222,77.9251302 303.339946,78.1074219 C303.19867,78.2897135 303.128032,78.5904948 303.128032,79.0097656 C303.128032,79.7936198 303.415141,80.1855469 303.98936,80.1855469 Z M301.337016,98.2734375 C303.406026,98.2734375 305.028422,97.5921224 306.204203,96.2294922 C307.379985,94.866862 307.967875,92.9733073 307.967875,90.5488281 C307.967875,88.1608073 307.386821,86.2809245 306.224711,84.9091797 C305.062602,83.5374349 303.460714,82.8515625 301.419047,82.8515625 C299.368266,82.8515625 297.754985,83.5283203 296.579203,84.8818359 C295.403422,86.2353516 294.815532,88.124349 294.815532,90.5488281 C294.815532,92.0891927 295.079854,93.4472656 295.6085,94.6230469 C296.137146,95.7988281 296.898214,96.7011719 297.891703,97.3300781 C298.885193,97.9589844 300.033631,98.2734375 301.337016,98.2734375 Z M301.391703,97.0429688 C299.751078,97.0429688 298.481873,96.4710286 297.584086,95.3271484 C296.6863,94.1832682 296.237407,92.5904948 296.237407,90.5488281 C296.237407,88.4889323 296.681742,86.8961589 297.570414,85.7705078 C298.459086,84.6448568 299.723735,84.0820312 301.36436,84.0820312 C303.004985,84.0820312 304.278748,84.6471354 305.185649,85.7773438 C306.09255,86.9075521 306.546,88.4980469 306.546,90.5488281 C306.546,92.5904948 306.097107,94.1832682 305.199321,95.3271484 C304.301534,96.4710286 303.032328,97.0429688 301.391703,97.0429688 Z M318.677785,98.2734375 C320.792369,98.2734375 322.414764,97.4257812 323.544973,95.7304688 L323.544973,95.7304688 L323.654348,95.7304688 L323.996145,98 L324.884817,98 L324.884817,76.7265625 L323.544973,76.7265625 L323.544973,82.0722656 C323.544973,83.1751302 323.572317,84.3007812 323.627004,85.4492188 L323.627004,85.4492188 L323.544973,85.4492188 C322.925181,84.5013021 322.223358,83.8313802 321.439504,83.4394531 C320.65565,83.047526 319.725962,82.8515625 318.650442,82.8515625 C316.59966,82.8515625 315.036509,83.530599 313.960988,84.8886719 C312.885468,86.2467448 312.347707,88.2109375 312.347707,90.78125 C312.347707,93.2239583 312.890025,95.0833333 313.97466,96.359375 C315.059296,97.6354167 316.627004,98.2734375 318.677785,98.2734375 Z M318.677785,97.0703125 C315.40565,97.0703125 313.769582,94.9648438 313.769582,90.7539062 C313.769582,88.5846354 314.17746,86.9303385 314.993215,85.7910156 C315.80897,84.6516927 317.028046,84.0820312 318.650442,84.0820312 C320.373098,84.0820312 321.619517,84.585612 322.389699,85.5927734 C323.159882,86.5999349 323.544973,88.2519531 323.544973,90.5488281 L323.544973,90.5488281 L323.544973,90.78125 C323.544973,93.0234375 323.153046,94.6321615 322.369192,95.6074219 C321.585337,96.5826823 320.354869,97.0703125 318.677785,97.0703125 Z M337.00293,98.2734375 C337.859701,98.2734375 338.643555,98.2073568 339.354492,98.0751953 C340.06543,97.9430339 340.840169,97.6946615 341.678711,97.3300781 L341.678711,97.3300781 L341.678711,96.0996094 C340.694336,96.4915365 339.880859,96.7467448 339.238281,96.8652344 C338.595703,96.983724 337.850586,97.0429688 337.00293,97.0429688 C335.262044,97.0429688 333.924479,96.5052083 332.990234,95.4296875 C332.05599,94.3541667 331.579753,92.7955729 331.561523,90.7539062 L331.561523,90.7539062 L342.266602,90.7539062 L342.266602,89.6601562 C342.266602,87.5638021 341.760742,85.9049479 340.749023,84.6835938 C339.737305,83.4622396 338.356445,82.8515625 336.606445,82.8515625 C334.628581,82.8515625 333.056315,83.5647786 331.889648,84.9912109 C330.722982,86.4176432 330.139648,88.3157552 330.139648,90.6855469 C330.139648,93.0826823 330.74349,94.9466146 331.951172,96.2773438 C333.158854,97.6080729 334.842773,98.2734375 337.00293,98.2734375 Z M340.831055,89.5507812 L331.643555,89.5507812 C331.789388,87.7734375 332.295247,86.4130859 333.161133,85.4697266 C334.027018,84.5263672 335.175456,84.0546875 336.606445,84.0546875 C337.92806,84.0546875 338.962565,84.5400391 339.709961,85.5107422 C340.457357,86.4814453 340.831055,87.828125 340.831055,89.5507812 L340.831055,89.5507812 Z M348.847605,98 L348.847605,89.796875 C348.847605,87.8007812 349.203074,86.3492839 349.914012,85.4423828 C350.624949,84.5354818 351.759715,84.0820312 353.318308,84.0820312 C355.615183,84.0820312 356.763621,85.3352865 356.763621,87.8417969 L356.763621,87.8417969 L356.763621,98 L358.14448,98 L358.14448,89.2910156 C358.14448,87.4954427 358.509064,86.1783854 359.23823,85.3398438 C359.967397,84.5013021 361.093048,84.0820312 362.615183,84.0820312 C363.78185,84.0820312 364.647736,84.4147135 365.21284,85.0800781 C365.777944,85.7454427 366.060496,86.8027344 366.060496,88.2519531 L366.060496,88.2519531 L366.060496,98 L367.40034,98 L367.40034,88.2792969 C367.40034,86.3925781 366.994741,85.016276 366.183543,84.1503906 C365.372345,83.2845052 364.155548,82.8515625 362.533152,82.8515625 C361.49409,82.8515625 360.566681,83.0794271 359.750926,83.5351562 C358.93517,83.9908854 358.285756,84.6425781 357.802683,85.4902344 L357.802683,85.4902344 L357.747996,85.4902344 C357.082631,83.7311198 355.578725,82.8515625 353.236277,82.8515625 C352.324819,82.8515625 351.490834,83.054362 350.734324,83.4599609 C349.977814,83.8655599 349.39448,84.4375 348.984324,85.1757812 L348.984324,85.1757812 L348.902293,85.1757812 L348.615183,83.1386719 L347.49409,83.1386719 L347.49409,98 L348.847605,98 Z M379.340718,98.2734375 C380.197489,98.2734375 380.981343,98.2073568 381.692281,98.0751953 C382.403218,97.9430339 383.177958,97.6946615 384.0165,97.3300781 L384.0165,97.3300781 L384.0165,96.0996094 C383.032125,96.4915365 382.218648,96.7467448 381.57607,96.8652344 C380.933492,96.983724 380.188375,97.0429688 379.340718,97.0429688 C377.599833,97.0429688 376.262268,96.5052083 375.328023,95.4296875 C374.393778,94.3541667 373.917541,92.7955729 373.899312,90.7539062 L373.899312,90.7539062 L384.60439,90.7539062 L384.60439,89.6601562 C384.60439,87.5638021 384.098531,85.9049479 383.086812,84.6835938 C382.075093,83.4622396 380.694234,82.8515625 378.944234,82.8515625 C376.966369,82.8515625 375.394104,83.5647786 374.227437,84.9912109 C373.060771,86.4176432 372.477437,88.3157552 372.477437,90.6855469 C372.477437,93.0826823 373.081278,94.9466146 374.288961,96.2773438 C375.496643,97.6080729 377.180562,98.2734375 379.340718,98.2734375 Z M383.168843,89.5507812 L373.981343,89.5507812 C374.127177,87.7734375 374.633036,86.4130859 375.498922,85.4697266 C376.364807,84.5263672 377.513244,84.0546875 378.944234,84.0546875 C380.265849,84.0546875 381.300354,84.5400391 382.04775,85.5107422 C382.795146,86.4814453 383.168843,87.828125 383.168843,89.5507812 L383.168843,89.5507812 Z M401.621867,98.2734375 C403.481242,98.2734375 404.916788,97.9156901 405.928507,97.2001953 C406.940226,96.4847005 407.446085,95.4615885 407.446085,94.1308594 C407.446085,93.4654948 407.293416,92.8867188 406.988078,92.3945312 C406.682739,91.9023438 406.224731,91.4625651 405.614054,91.0751953 C405.003377,90.6878255 404.028117,90.2526042 402.688273,89.7695312 C401.084106,89.1953125 400.006307,88.6757812 399.454874,88.2109375 C398.903442,87.7460938 398.627726,87.1263021 398.627726,86.3515625 C398.627726,85.640625 398.983195,85.0846354 399.694132,84.6835938 C400.40507,84.2825521 401.366658,84.0820312 402.578898,84.0820312 C403.827596,84.0820312 405.181111,84.3828125 406.639445,84.984375 L406.639445,84.984375 L407.145304,83.7539062 C405.7052,83.1523438 404.183064,82.8515625 402.578898,82.8515625 C400.901814,82.8515625 399.59615,83.1751302 398.661906,83.8222656 C397.727661,84.469401 397.260538,85.3489583 397.260538,86.4609375 C397.260538,87.1627604 397.413208,87.757487 397.718546,88.2451172 C398.023885,88.7327474 398.477335,89.1702474 399.078898,89.5576172 C399.68046,89.944987 400.72408,90.4075521 402.209757,90.9453125 C403.595174,91.4375 404.590942,91.9388021 405.197062,92.4492188 C405.803182,92.9596354 406.106242,93.5885417 406.106242,94.3359375 C406.106242,95.1471354 405.725708,95.7965495 404.96464,96.2841797 C404.203572,96.7718099 403.089314,97.015625 401.621867,97.015625 C399.963012,97.015625 398.386189,96.6419271 396.891398,95.8945312 L396.891398,95.8945312 L396.891398,97.3574219 C398.058064,97.968099 399.634887,98.2734375 401.621867,98.2734375 Z M413.070058,80.3359375 C413.35261,80.3359375 413.573639,80.2174479 413.733144,79.9804688 C413.892649,79.7434896 413.972402,79.4199219 413.972402,79.0097656 C413.972402,78.5904948 413.892649,78.2669271 413.733144,78.0390625 C413.573639,77.8111979 413.35261,77.6972656 413.070058,77.6972656 C412.495839,77.6972656 412.20873,78.1347656 412.20873,79.0097656 C412.20873,79.8938802 412.495839,80.3359375 413.070058,80.3359375 Z M413.753652,98 L413.753652,83.1386719 L412.400136,83.1386719 L412.400136,98 L413.753652,98 Z M423.246765,98.2734375 C425.10614,98.2734375 426.541687,97.9156901 427.553405,97.2001953 C428.565124,96.4847005 429.070983,95.4615885 429.070983,94.1308594 C429.070983,93.4654948 428.918314,92.8867188 428.612976,92.3945312 C428.307637,91.9023438 427.849629,91.4625651 427.238952,91.0751953 C426.628275,90.6878255 425.653015,90.2526042 424.313171,89.7695312 C422.709004,89.1953125 421.631205,88.6757812 421.079773,88.2109375 C420.52834,87.7460938 420.252624,87.1263021 420.252624,86.3515625 C420.252624,85.640625 420.608093,85.0846354 421.31903,84.6835938 C422.029968,84.2825521 422.991556,84.0820312 424.203796,84.0820312 C425.452494,84.0820312 426.80601,84.3828125 428.264343,84.984375 L428.264343,84.984375 L428.770202,83.7539062 C427.330098,83.1523438 425.807963,82.8515625 424.203796,82.8515625 C422.526713,82.8515625 421.221049,83.1751302 420.286804,83.8222656 C419.352559,84.469401 418.885437,85.3489583 418.885437,86.4609375 C418.885437,87.1627604 419.038106,87.757487 419.343444,88.2451172 C419.648783,88.7327474 420.102233,89.1702474 420.703796,89.5576172 C421.305358,89.944987 422.348978,90.4075521 423.834655,90.9453125 C425.220072,91.4375 426.21584,91.9388021 426.82196,92.4492188 C427.42808,92.9596354 427.73114,93.5885417 427.73114,94.3359375 C427.73114,95.1471354 427.350606,95.7965495 426.589538,96.2841797 C425.82847,96.7718099 424.714213,97.015625 423.246765,97.015625 C421.587911,97.015625 420.011088,96.6419271 418.516296,95.8945312 L418.516296,95.8945312 L418.516296,97.3574219 C419.682963,97.968099 421.259786,98.2734375 423.246765,98.2734375 Z M437.921518,98.2734375 C438.778289,98.2734375 439.5348,98.1640625 440.19105,97.9453125 L440.19105,97.9453125 L440.19105,96.8515625 C439.553029,96.9973958 438.805633,97.0703125 437.948862,97.0703125 C437.092091,97.0703125 436.463185,96.796875 436.062143,96.25 C435.661102,95.703125 435.460581,94.860026 435.460581,93.7207031 L435.460581,93.7207031 L435.460581,84.3144531 L439.821909,84.3144531 L439.821909,83.1386719 L435.460581,83.1386719 L435.460581,79.5429688 L434.763315,79.5429688 L434.079722,82.90625 L431.87855,83.5214844 L431.87855,84.3144531 L434.079722,84.3144531 L434.079722,93.9121094 C434.079722,95.4160156 434.391896,96.5188802 435.016245,97.2207031 C435.640594,97.922526 436.609018,98.2734375 437.921518,98.2734375 Z M450.531819,98.2734375 C451.38859,98.2734375 452.172444,98.2073568 452.883382,98.0751953 C453.594319,97.9430339 454.369059,97.6946615 455.2076,97.3300781 L455.2076,97.3300781 L455.2076,96.0996094 C454.223225,96.4915365 453.409749,96.7467448 452.767171,96.8652344 C452.124593,96.983724 451.379475,97.0429688 450.531819,97.0429688 C448.790934,97.0429688 447.453369,96.5052083 446.519124,95.4296875 C445.584879,94.3541667 445.108642,92.7955729 445.090413,90.7539062 L445.090413,90.7539062 L455.795491,90.7539062 L455.795491,89.6601562 C455.795491,87.5638021 455.289632,85.9049479 454.277913,84.6835938 C453.266194,83.4622396 451.885335,82.8515625 450.135335,82.8515625 C448.15747,82.8515625 446.585205,83.5647786 445.418538,84.9912109 C444.251871,86.4176432 443.668538,88.3157552 443.668538,90.6855469 C443.668538,93.0826823 444.272379,94.9466146 445.480061,96.2773438 C446.687744,97.6080729 448.371663,98.2734375 450.531819,98.2734375 Z M454.359944,89.5507812 L445.172444,89.5507812 C445.318277,87.7734375 445.824137,86.4130859 446.690022,85.4697266 C447.555908,84.5263672 448.704345,84.0546875 450.135335,84.0546875 C451.456949,84.0546875 452.491455,84.5400391 453.23885,85.5107422 C453.986246,86.4814453 454.359944,87.828125 454.359944,89.5507812 L454.359944,89.5507812 Z M462.376495,98 L462.376495,89.796875 C462.376495,87.8007812 462.731963,86.3492839 463.442901,85.4423828 C464.153838,84.5354818 465.288604,84.0820312 466.847198,84.0820312 C469.144073,84.0820312 470.29251,85.3352865 470.29251,87.8417969 L470.29251,87.8417969 L470.29251,98 L471.67337,98 L471.67337,89.2910156 C471.67337,87.4954427 472.037953,86.1783854 472.76712,85.3398438 C473.496286,84.5013021 474.621937,84.0820312 476.144073,84.0820312 C477.31074,84.0820312 478.176625,84.4147135 478.741729,85.0800781 C479.306833,85.7454427 479.589385,86.8027344 479.589385,88.2519531 L479.589385,88.2519531 L479.589385,98 L480.929229,98 L480.929229,88.2792969 C480.929229,86.3925781 480.52363,85.016276 479.712432,84.1503906 C478.901234,83.2845052 477.684437,82.8515625 476.062042,82.8515625 C475.022979,82.8515625 474.09557,83.0794271 473.279815,83.5351562 C472.46406,83.9908854 471.814646,84.6425781 471.331573,85.4902344 L471.331573,85.4902344 L471.276885,85.4902344 C470.611521,83.7311198 469.107615,82.8515625 466.765167,82.8515625 C465.853708,82.8515625 465.019724,83.054362 464.263213,83.4599609 C463.506703,83.8655599 462.92337,84.4375 462.513213,85.1757812 L462.513213,85.1757812 L462.431182,85.1757812 L462.144073,83.1386719 L461.022979,83.1386719 L461.022979,98 L462.376495,98 Z M487.537577,80.3359375 C487.820129,80.3359375 488.041157,80.2174479 488.200663,79.9804688 C488.360168,79.7434896 488.43992,79.4199219 488.43992,79.0097656 C488.43992,78.5904948 488.360168,78.2669271 488.200663,78.0390625 C488.041157,77.8111979 487.820129,77.6972656 487.537577,77.6972656 C486.963358,77.6972656 486.676248,78.1347656 486.676248,79.0097656 C486.676248,79.8938802 486.963358,80.3359375 487.537577,80.3359375 Z M488.22117,98 L488.22117,83.1386719 L486.867655,83.1386719 L486.867655,98 L488.22117,98 Z" id="evrenseldemesistemi" fill-rule="nonzero"></path>
            </g>
        </g>
    </g>
</svg>