<svg xmlns="http://www.w3.org/2000/svg" xmlns:xlink="http://www.w3.org/1999/xlink" width="25" height="31" viewBox="0 0 25 31" version="1.1">
    <g width="7" height="4" stroke="none" stroke-width="1" fill="none" fill-rule="evenodd">
        <g id="main-menu" transform="translate(-271.000000, -85.000000)" fill="#757575">
            <path d="M281.5,103.5 L281.5,104.5 L280.5,104.5 L280.5,103.5 L281.5,103.5 Z M282.5,102.5 L282.5,103.5 L281.5,103.5 L281.5,102.5 L282.5,102.5 Z M283.5,101.5 L283.5,102.5 L282.5,102.5 L282.5,101.5 L283.5,101.5 Z M281.5,101.5 L281.5,102.5 L280.5,102.5 L280.5,101.5 L281.5,101.5 Z M284.5,100.5 L284.5,101.5 L283.5,101.5 L283.5,100.5 L284.5,100.5 Z M282.5,100.5 L282.5,101.5 L281.5,101.5 L281.5,100.5 L282.5,100.5 Z M283.5,99.5 L283.5,100.5 L282.5,100.5 L282.5,99.5 L283.5,99.5 Z M281.5,99.5 L281.5,100.5 L280.5,100.5 L280.5,99.5 L281.5,99.5 Z M282.5,98.5 L282.5,99.5 L281.5,99.5 L281.5,98.5 L282.5,98.5 Z M281.5,97.5 L281.5,98.5 L280.5,98.5 L280.5,97.5 L281.5,97.5 Z" id="down" transform="translate(282.500000, 101.000000) rotate(90.000000) translate(-282.500000, -101.000000) "/>
        </g>
    </g>
</svg>