<svg width="24" height="24" viewBox="0 0 24 24" fill="none" xmlns="http://www.w3.org/2000/svg">
<path fill-rule="evenodd" clip-rule="evenodd" d="M10.2311 18.4648C14.7771 18.4648 18.4623 14.779 18.4623 10.2324C18.4623 5.68577 14.7771 2 10.2311 2C5.68521 2 2 5.68577 2 10.2324C2 14.779 5.68521 18.4648 10.2311 18.4648ZM10.2311 15.9317C13.3783 15.9317 15.9296 13.3801 15.9296 10.2324C15.9296 7.08473 13.3783 4.53305 10.2311 4.53305C7.08395 4.53305 4.53265 7.08473 4.53265 10.2324C4.53265 13.3801 7.08395 15.9317 10.2311 15.9317Z" fill="#D2D6DB"/>
<path d="M18.0914 16.3027L16.3005 18.0938L20.0207 21.8145C20.2671 22.061 20.6664 22.0619 20.914 21.8166L21.8125 20.9262C22.0616 20.6793 22.0626 20.2768 21.8147 20.0287L18.0914 16.3027Z" fill="#D2D6DB"/>
</svg>
