<svg width="40" height="40" viewBox="0 0 40 40" fill="none" xmlns="http://www.w3.org/2000/svg">
<path d="M0 20C0 8.95431 8.95431 0 20 0C31.0457 0 40 8.95431 40 20C40 31.0457 31.0457 40 20 40C8.95431 40 0 31.0457 0 20Z" fill="#0080D8"/>
<path fill-rule="evenodd" clip-rule="evenodd" d="M27 20C27 19.4477 26.5523 19 26 19L16.4142 19L20.7071 14.7071C21.0976 14.3166 21.0976 13.6834 20.7071 13.2929C20.3166 12.9024 19.6834 12.9024 19.2929 13.2929L13.2929 19.2929C12.9024 19.6834 12.9024 20.3166 13.2929 20.7071L19.2929 26.7071C19.6834 27.0976 20.3166 27.0976 20.7071 26.7071C21.0976 26.3166 21.0976 25.6834 20.7071 25.2929L16.4142 21L26 21C26.5523 21 27 20.5523 27 20Z" fill="white"/>
</svg>
