<svg width="40" height="40" viewBox="0 0 40 40" fill="none" xmlns="http://www.w3.org/2000/svg">
<rect width="40" height="40" rx="8" fill="url(#paint0_linear_88_4966)"/>
<mask id="mask0_88_4966" style="mask-type:luminance" maskUnits="userSpaceOnUse" x="9" y="13" width="17" height="18">
<path d="M26 13.8271H9V30.6173H26V13.8271Z" fill="white"/>
</mask>
<g mask="url(#mask0_88_4966)">
<path d="M22.1641 22.627H24.1561V27.3379H22.1641V22.627Z" fill="white"/>
<path d="M18.3906 22.627H20.3828V27.3379H18.3906V22.627Z" fill="white"/>
<path d="M14.6172 22.627H16.6093V27.3379H14.6172V22.627Z" fill="white"/>
<path d="M10.8438 22.627H12.8358V27.3379H10.8438V22.627Z" fill="white"/>
<path d="M24.8172 21.1511V20.6592H10.1797V21.1511C10.1797 21.4228 10.4026 21.643 10.6777 21.643H24.3191C24.5941 21.643 24.8172 21.4228 24.8172 21.1511Z" fill="white"/>
<path d="M25.5012 28.3213H9.49805C9.22295 28.3213 9 28.5415 9 28.8132V30.1249C9 30.3966 9.22295 30.6168 9.49805 30.6168H25.5012C25.7763 30.6168 25.9992 30.3966 25.9992 30.1249V28.8132C25.9992 28.5415 25.7763 28.3213 25.5012 28.3213Z" fill="white"/>
<path d="M9.49799 19.6756H25.5019C25.7247 19.6756 25.9204 19.5295 25.9811 19.3177C26.0417 19.106 25.9527 18.8801 25.763 18.7648L17.761 13.9002C17.601 13.8028 17.399 13.8028 17.2388 13.9002L9.2369 18.7648C9.04715 18.8802 8.95819 19.106 9.01889 19.3177C9.07959 19.5295 9.27529 19.6756 9.49799 19.6756ZM17.1614 16.7204H17.8386C18.1137 16.7204 18.3366 16.9406 18.3366 17.2123C18.3366 17.484 18.1137 17.7042 17.8386 17.7042H17.1614C16.8863 17.7042 16.6634 17.484 16.6634 17.2123C16.6634 16.9406 16.8863 16.7204 17.1614 16.7204Z" fill="white"/>
</g>
<path d="M26.016 11.1576C27.0313 10.1548 27.0313 8.52333 26.016 7.51997C24.999 6.51548 23.3517 6.51548 22.3336 7.51997C21.3162 8.52486 21.3155 10.152 22.3336 11.1576C23.3526 12.1637 25.0041 12.157 26.016 11.1576ZM23.5401 8.71217C23.8899 8.36639 24.4582 8.36491 24.8096 8.71217C25.1594 9.05745 25.1594 9.61982 24.8096 9.966C24.4597 10.3115 23.8903 10.3115 23.5401 9.966C23.1902 9.62047 23.1885 9.05918 23.5401 8.71217Z" fill="#AED0FF"/>
<path d="M32.069 13.5011C31.0549 12.4981 29.4067 12.4933 28.3866 13.5011C27.3711 14.5038 27.3711 16.1351 28.3866 17.138C29.4054 18.1442 31.0535 18.142 32.069 17.138C33.0878 16.1316 33.0858 14.504 32.069 13.5011ZM30.8626 15.9465C30.5121 16.2924 29.9438 16.2928 29.5931 15.9465C29.2432 15.6003 29.2432 15.0379 29.5931 14.6924C29.9436 14.3462 30.5118 14.346 30.8626 14.6924C31.2124 15.0379 31.2142 15.5992 30.8626 15.9465Z" fill="#AED0FF"/>
<path d="M30.5192 9.04756C30.1861 8.71852 29.6457 8.71852 29.3126 9.04756L23.8751 14.4182C23.5416 14.7473 23.5416 15.2807 23.8751 15.61C24.2082 15.939 24.7483 15.939 25.0815 15.61L30.5192 10.2394C30.8524 9.91032 30.8524 9.37684 30.5192 9.04756Z" fill="#AED0FF"/>
<defs>
<linearGradient id="paint0_linear_88_4966" x1="40" y1="-4.5" x2="-1.60589e-06" y2="42.125" gradientUnits="userSpaceOnUse">
<stop stop-color="#F06292"/>
<stop offset="1" stop-color="#CB4A75"/>
</linearGradient>
</defs>
</svg>
