<svg width="40" height="40" viewBox="0 0 40 40" fill="none" xmlns="http://www.w3.org/2000/svg">
<rect width="40" height="40" rx="8" fill="url(#paint0_linear_88_4925)"/>
<mask id="mask0_88_4925" style="mask-type:luminance" maskUnits="userSpaceOnUse" x="8" y="8" width="24" height="24">
<path d="M31.6083 8.07617H8.39844V31.286H31.6083V8.07617Z" fill="white"/>
</mask>
<g mask="url(#mask0_88_4925)">
<path d="M31.4827 16.7469C31.3962 16.654 31.2716 16.6062 31.1448 16.6062H29.7526C29.1904 14.2797 27.8757 12.1713 26.0191 10.6337C24.029 8.9857 21.5081 8.07755 18.9199 8.07617C18.8773 8.07617 18.8343 8.08531 18.798 8.10763C18.7 8.16797 18.6649 8.28358 18.7019 8.38239L19.9447 11.6992C19.9779 11.7877 20.0625 11.8463 20.157 11.8463C23.0959 11.8463 25.6712 13.8196 26.465 16.6062H25.2696C25.1427 16.6062 25.0182 16.654 24.9317 16.7469C24.7688 16.9219 24.7696 17.1783 24.9124 17.3497L27.859 20.8856C27.9451 20.9889 28.0727 21.0487 28.2072 21.0487C28.3418 21.0487 28.4693 20.989 28.5555 20.8856L31.5021 17.3497C31.6448 17.1783 31.6455 16.9219 31.4827 16.7469Z" fill="#AECAFF"/>
<path d="M18.6896 18.7288C21.4436 18.7288 23.6761 16.4963 23.6761 13.7423C23.6761 10.9884 21.4436 8.75586 18.6896 8.75586C15.9357 8.75586 13.7031 10.9884 13.7031 13.7423C13.7031 16.4963 15.9357 18.7288 18.6896 18.7288Z" fill="#FFEE78"/>
<path d="M23.674 13.7423C23.674 10.9884 21.4414 8.75586 18.6875 8.75586V18.7288C21.4414 18.7288 23.674 16.4963 23.674 13.7423Z" fill="#FCD232"/>
<path d="M18.6899 19.4092C15.5654 19.4092 13.0234 16.8671 13.0234 13.7426C13.0234 10.6181 15.5654 8.07617 18.6899 8.07617C21.8144 8.07617 24.3564 10.6181 24.3564 13.7426C24.3564 16.8671 21.8144 19.4092 18.6899 19.4092ZM18.6899 9.43612C16.3153 9.43612 14.3834 11.3681 14.3834 13.7426C14.3834 16.1173 16.3153 18.0492 18.6899 18.0492C21.0645 18.0492 22.9964 16.1173 22.9964 13.7426C22.9964 11.3681 21.0645 9.43612 18.6899 9.43612Z" fill="#FCD232"/>
<path d="M22.994 13.7426C22.994 16.1173 21.0621 18.0492 18.6875 18.0492V19.4092C21.812 19.4092 24.354 16.8671 24.354 13.7426C24.354 10.6181 21.812 8.07617 18.6875 8.07617V9.43612C21.0621 9.43612 22.994 11.3681 22.994 13.7426Z" fill="#F7B90F"/>
<path d="M20.5016 14.8761C20.5016 13.8762 19.6881 13.0628 18.6883 13.0628C18.4383 13.0628 18.2349 12.8594 18.2349 12.6094C18.2349 12.3595 18.4383 12.1562 18.6883 12.1562C18.9029 12.1562 19.0897 12.3084 19.1323 12.5181C19.207 12.8861 19.5662 13.1239 19.9341 13.0492C20.3021 12.9744 20.5398 12.6155 20.4652 12.2474C20.3418 11.6402 19.9178 11.1533 19.3682 10.9295V10.7962C19.3682 10.4207 19.0638 10.1162 18.6883 10.1162C18.3127 10.1162 18.0083 10.4207 18.0083 10.7962V10.929C17.3445 11.1985 16.875 11.85 16.875 12.6094C16.875 13.6093 17.6884 14.4227 18.6883 14.4227C18.9383 14.4227 19.1416 14.6261 19.1416 14.8761C19.1416 15.126 18.9383 15.3293 18.6883 15.3293C18.4736 15.3293 18.2868 15.1771 18.2442 14.9674C18.1695 14.5994 17.8106 14.3617 17.4425 14.4363C17.0744 14.5111 16.8367 14.87 16.9114 15.2381C17.0348 15.8453 17.4588 16.3323 18.0082 16.556V16.6893C18.0082 17.0649 18.3127 17.3693 18.6882 17.3693C19.0637 17.3693 19.3682 17.0649 19.3682 16.6893V16.5566C20.032 16.287 20.5016 15.6355 20.5016 14.8761Z" fill="#FCD232"/>
<path d="M18.6875 13.0625V14.4225C18.9375 14.4225 19.1408 14.6258 19.1408 14.8758C19.1408 15.1257 18.9375 15.3291 18.6875 15.3291V17.369C19.063 17.369 19.3675 17.0646 19.3675 16.689V16.5563C20.0313 16.2867 20.5008 15.6352 20.5008 14.8758C20.5008 13.8759 19.6874 13.0625 18.6875 13.0625Z" fill="#F7B90F"/>
<path d="M19.1315 12.5181C19.2063 12.8861 19.5654 13.1239 19.9333 13.0492C20.3013 12.9744 20.5391 12.6155 20.4644 12.2474C20.341 11.6402 19.917 11.1533 19.3675 10.9295V10.7962C19.3675 10.4207 19.063 10.1162 18.6875 10.1162V12.1562C18.9022 12.1562 19.0889 12.3084 19.1315 12.5181Z" fill="#F7B90F"/>
<path d="M31.3178 23.9853C30.8153 23.2675 29.8259 23.0931 29.1081 23.5957L24.2443 27.0013C24.0538 27.1348 23.8269 27.2063 23.5943 27.2063H20V30.3795H23.8801C24.5779 30.3795 25.2587 30.1649 25.8302 29.7647L30.9282 26.195C31.646 25.6924 31.8205 24.7031 31.3178 23.9853Z" fill="#FABE8C"/>
<path d="M24.2443 27.0009C24.0538 27.1343 23.8269 27.2058 23.5943 27.2058L20 26.9271V28.5658H23.6719C25.2966 28.5658 26.6184 27.244 26.6184 25.6192C26.6184 25.5276 26.6136 25.4371 26.6054 25.3477L24.2443 27.0009Z" fill="#E6A578"/>
<path d="M31.3228 23.985C30.8202 23.2673 29.8309 23.0928 29.1131 23.5954L25.0225 26.4597C25.175 26.216 25.2634 25.9281 25.2634 25.6194C25.2634 24.7432 24.5531 24.0328 23.6768 24.0328H19.8236L19.3801 23.7002C18.4968 23.0377 17.4023 22.6729 16.2982 22.6729C15.3674 22.6729 14.4536 22.9259 13.6555 23.4049C13.6555 23.4049 12.8993 23.8586 12.4473 24.1297C12.2425 24.2527 12.1172 24.4739 12.1172 24.7128V29.6993C12.1172 30.0748 12.4217 30.3793 12.7972 30.3793H23.8851C24.5828 30.3793 25.2636 30.1646 25.8352 29.7644L30.9331 26.1947C31.651 25.6922 31.8254 24.7028 31.3228 23.985Z" fill="#FFD2AA"/>
<path d="M20 30.3795H23.8801C24.5779 30.3795 25.2587 30.1649 25.8302 29.7647L30.9282 26.195C31.646 25.6924 31.8204 24.7031 31.3178 23.9853C30.8152 23.2675 29.8259 23.0931 29.1081 23.5957L25.0175 26.46C25.17 26.2162 25.2585 25.9284 25.2585 25.6197C25.2585 24.7434 24.5481 24.0331 23.6719 24.0331H20V30.3795Z" fill="#FABE8C"/>
<path d="M26.6078 25.3477L25.0199 26.4595C25.01 26.4752 25.0002 26.491 24.9898 26.5063C24.7047 26.9283 24.2218 27.2058 23.6742 27.2058H18.9144C18.5388 27.2058 18.2344 27.5103 18.2344 27.8858C18.2344 28.2613 18.5388 28.5658 18.9144 28.5658H23.6742C25.2989 28.5658 26.6207 27.244 26.6207 25.6192C26.6207 25.5276 26.616 25.4371 26.6078 25.3477Z" fill="#FABE8C"/>
<path d="M12.7956 31.286H9.07844C8.70288 31.286 8.39844 30.9816 8.39844 30.6061V22.8997C8.39844 22.5242 8.70288 22.2197 9.07844 22.2197H12.7956C13.1711 22.2197 13.4756 22.5242 13.4756 22.8997V30.6061C13.4756 30.9816 13.1711 31.286 12.7956 31.286Z" fill="#6496F7"/>
<path d="M26.6054 25.3477L25.0175 26.4595C25.0077 26.4752 24.9979 26.491 24.9875 26.5063C24.7024 26.9283 24.2195 27.2058 23.6719 27.2058H20V28.5658H23.6719C25.2966 28.5658 26.6184 27.244 26.6184 25.6192C26.6184 25.5276 26.6136 25.4371 26.6054 25.3477Z" fill="#E6A578"/>
</g>
<defs>
<linearGradient id="paint0_linear_88_4925" x1="40" y1="-4.5" x2="-3.50468e-07" y2="42.125" gradientUnits="userSpaceOnUse">
<stop offset="0.0001" stop-color="#D26B75"/>
<stop offset="1" stop-color="#B83F4B"/>
</linearGradient>
</defs>
</svg>
