<svg width="40" height="40" viewBox="0 0 40 40" fill="none" xmlns="http://www.w3.org/2000/svg">
<g clip-path="url(#clip0_88_4993)">
<rect width="40" height="40" rx="8" fill="url(#paint0_linear_88_4993)"/>
<g clip-path="url(#clip1_88_4993)">
<path d="M14.6645 23.7208H15.9812L13.3347 32.4019H11.5486L10.0755 27.5718C10.0233 27.4413 10.0103 27.2977 10.0103 27.1541V26.7886H9.81471V27.1541C9.81471 27.2977 9.78864 27.4413 9.74953 27.5718L8.27634 32.4019H6.49027L3.84375 23.7208H5.16049L7.22034 30.4829C7.27249 30.6135 7.28553 30.7571 7.28553 30.9007V31.4881H7.48108V30.9007C7.48108 30.7571 7.50716 30.6135 7.54627 30.4829L9.22805 24.9871H10.5969L12.2787 30.4829C12.3178 30.6135 12.3439 30.7571 12.3439 30.9007V31.4881H12.5395V30.9007C12.5395 30.7571 12.5525 30.6135 12.6046 30.4829L14.6645 23.7208ZM23.5541 23.7208H25.7965V32.4019H24.3494V25.6137C24.3494 25.4309 24.3885 25.2482 24.4537 25.0785L24.6232 24.6607L24.4406 24.5824L24.2842 24.974C24.2581 25.0263 24.232 25.0785 24.206 25.1307L21.8854 29.3211H20.2949L18.0134 25.196C17.9873 25.1438 17.9612 25.0915 17.9352 25.0393L17.7526 24.5824L17.5832 24.6607L17.7396 25.0785C17.8178 25.2482 17.8439 25.4309 17.8439 25.6137V32.4019H16.4098V23.7208H18.6392L20.8163 27.6632C20.9337 27.8721 20.9989 28.1201 20.9989 28.3551V28.6031H21.1944V28.342C21.1944 28.094 21.2596 27.859 21.3769 27.6371L23.5541 23.7208ZM32.5487 28.9686H36.1599V32.4019H34.7258V32.0494C34.7258 31.8275 34.778 31.6056 34.8692 31.4098L34.9866 31.1748L34.8171 31.0834L34.7128 31.2923C34.5824 31.5403 34.3869 31.7622 34.1261 31.9058C33.357 32.3366 32.4444 32.5847 31.4666 32.5847C28.6767 32.5847 26.4212 30.5613 26.4212 28.0548C26.4212 25.5615 28.6767 23.5381 31.4666 23.5381C33.2135 23.5381 34.7519 24.3213 35.6645 25.5223H33.735C33.1223 25.0785 32.327 24.8043 31.4666 24.8043C29.4719 24.8043 27.8553 26.2664 27.8553 28.0548C27.8553 29.8563 29.4719 31.3184 31.4666 31.3184C32.5356 31.3184 33.5004 30.9007 34.1653 30.2349H32.5487V28.9686Z" fill="#242424"/>
</g>
<path d="M18.6338 14.3203C18.9205 14.3203 19.1706 14.5134 19.2402 14.7881L20.1777 18.4922C20.2762 18.8817 19.9778 19.2588 19.5713 19.2588H12.4229C12.0163 19.2588 11.7179 18.8817 11.8164 18.4922L12.7539 14.7881C12.8235 14.5134 13.0736 14.3203 13.3604 14.3203H18.6338ZM28.6338 14.3203C28.9205 14.3203 29.1706 14.5134 29.2402 14.7881L30.1777 18.4922C30.2762 18.8817 29.9778 19.2588 29.5713 19.2588H22.4229C22.0163 19.2588 21.7179 18.8817 21.8164 18.4922L22.7539 14.7881C22.8235 14.5134 23.0736 14.3203 23.3604 14.3203H28.6338ZM23.6338 8.14746C23.9205 8.14746 24.1706 8.34053 24.2402 8.61523L25.1777 12.3193C25.2762 12.7089 24.9778 13.0859 24.5713 13.0859H17.4229C17.0163 13.0859 16.7179 12.7089 16.8164 12.3193L17.7539 8.61523C17.8236 8.34057 18.0736 8.14746 18.3604 8.14746H23.6338Z" fill="#242424"/>
</g>
<defs>
<linearGradient id="paint0_linear_88_4993" x1="40" y1="-4.5" x2="-1.60589e-06" y2="42.125" gradientUnits="userSpaceOnUse">
<stop stop-color="#EBA009"/>
<stop offset="1" stop-color="#F1B317"/>
</linearGradient>
<clipPath id="clip0_88_4993">
<rect width="40" height="40" rx="8" fill="white"/>
</clipPath>
<clipPath id="clip1_88_4993">
<rect width="33" height="9.38272" fill="white" transform="translate(3.5 23.21)"/>
</clipPath>
</defs>
</svg>
