<svg width="40" height="40" viewBox="0 0 40 40" fill="none" xmlns="http://www.w3.org/2000/svg">
<rect width="40" height="40" rx="8" fill="url(#paint0_linear_88_4952)"/>
<path d="M20.2184 7.7798C22.1382 7.7798 23.9644 8.21388 25.6029 8.99032C25.8599 9.10444 26.1184 9.24188 26.3746 9.37931L25.2516 10.363L23.5668 8.6479L20.6647 11.162L18.9555 9.35674L13.6181 14.0425L17.0357 17.722L15.7014 18.8634L19.0726 22.543L17.7382 23.6858L22.5616 28.9198L25.4158 26.3591L27.8982 29.103C27.4063 29.4687 26.868 29.8352 26.2833 30.1543C24.5042 31.138 22.4438 31.7072 20.2427 31.7072C13.4775 31.7072 7.97663 26.3381 7.97663 19.733C7.95383 13.1737 13.4547 7.77832 20.2191 7.77832L20.2184 7.7798ZM17.9709 19.0008L20.8981 16.4402L23.5196 19.2982L20.5924 21.8573L17.9709 19.0001V19.0008ZM20.0541 23.9382L22.9585 21.355L25.6029 24.2122L22.6757 26.7729L20.0541 23.9382ZM15.8892 14.1326L18.8141 11.5735L21.4371 14.43L18.51 16.9906L15.8892 14.1326ZM21.2493 12.7622L23.4254 10.8421L25.3923 12.9672L23.214 14.9098L21.2478 12.7622H21.2493ZM25.1345 21.5607L27.3105 19.6414L29.2774 21.789L27.0999 23.7099L25.1338 21.5607H25.1345ZM27.0535 25.8808L29.2311 23.9607L31.1965 26.0858L29.0197 28.0284L27.0535 25.8808ZM27.9431 16.0062L29.3953 14.7274L30.7053 16.1443L29.2546 17.4239L27.9423 16.0062H27.9431ZM26.0705 11.7785L27.5227 10.4764L28.8342 11.9166L27.382 13.197L26.0712 11.7792L26.0705 11.7785ZM29.7937 20.2361L31.2444 18.9558L32.5779 20.3728L31.1029 21.6523L29.7937 20.2361ZM23.2626 17.0582L25.4394 15.1389L27.4056 17.264L25.2296 19.184L23.2626 17.0582Z" fill="#D8E4EC"/>
<defs>
<linearGradient id="paint0_linear_88_4952" x1="40" y1="-4.5" x2="-1.60589e-06" y2="42.125" gradientUnits="userSpaceOnUse">
<stop stop-color="#5498B9"/>
<stop offset="1" stop-color="#1B5673"/>
</linearGradient>
</defs>
</svg>
