<svg width="48" height="48" viewBox="0 0 48 48" fill="none" xmlns="http://www.w3.org/2000/svg">
<g clip-path="url(#clip0_52_15044)">
<rect width="48" height="48" rx="12" fill="url(#paint0_linear_52_15044)"/>
<mask id="mask0_52_15044" style="mask-type:luminance" maskUnits="userSpaceOnUse" x="0" y="0" width="48" height="48">
<path d="M38.4 0H9.6C4.29807 0 0 4.29807 0 9.6V38.4C0 43.7019 4.29807 48 9.6 48H38.4C43.7019 48 48 43.7019 48 38.4V9.6C48 4.29807 43.7019 0 38.4 0Z" fill="white"/>
</mask>
<g mask="url(#mask0_52_15044)">
<mask id="mask1_52_15044" style="mask-type:luminance" maskUnits="userSpaceOnUse" x="18" y="18" width="25" height="25">
<path d="M42.5996 18.6016H18.5996V42.6016H42.5996V18.6016Z" fill="white"/>
</mask>
<g mask="url(#mask1_52_15044)">
<path d="M42.599 30.6004C42.599 37.2269 37.227 42.5992 30.5993 42.5992C23.9717 42.5992 18.5996 37.2269 18.5996 30.6004C18.5996 23.9738 23.9718 18.6016 30.5993 18.6016C37.2269 18.6016 42.599 23.9733 42.599 30.6004Z" fill="white"/>
<path d="M30.599 18.6016C23.9737 18.6016 18.5921 23.9815 18.6006 30.6C18.6022 31.9241 18.8134 33.1979 19.2098 34.3894H22.7999V24.2957L30.599 32.0939L38.3977 24.2957V34.3896H41.9887C42.3856 33.1982 42.5957 31.9244 42.598 30.6002C42.6094 23.9747 37.2251 18.6032 30.599 18.6032V18.6016Z" fill="#F26822"/>
<path d="M28.8059 33.8859L25.4024 30.4824V36.834H22.8002L20.3447 36.8344C22.451 40.2895 26.2574 42.6008 30.5995 42.6008C34.9416 42.6008 38.7482 40.289 40.8548 36.8339H35.7959V30.4824L32.3921 33.8859L30.5991 35.6787L28.8059 33.8859Z" fill="#4D4D4D"/>
</g>
<path d="M19.7756 9.05184L16.1466 13.5109C15.9462 13.7572 15.9833 14.1193 16.2296 14.3197L19.7968 17.2229C20.0431 17.4233 20.4052 17.3861 20.6056 17.1399L24.2346 12.6809C24.4351 12.4346 24.3979 12.0725 24.1516 11.8721L20.5844 8.96886C20.3381 8.76846 19.976 8.8056 19.7756 9.05184Z" fill="white"/>
<path d="M18.4829 8.82029C14.1791 5.78313 11.0594 5.70838 10.9157 5.70705C10.7966 5.70607 10.68 5.74212 10.5823 5.81023C10.4845 5.87833 10.4103 5.97513 10.37 6.08723C10.3296 6.19931 10.325 6.32123 10.3569 6.43601C10.3889 6.55079 10.4556 6.65285 10.548 6.72803L16.3457 11.4465L18.4829 8.82029Z" fill="white"/>
<path d="M29.3106 20.6789C29.2801 20.5384 28.5733 17.4992 24.7262 13.9023L22.5889 16.5285L28.3856 21.2462C28.478 21.3215 28.5914 21.3661 28.7104 21.374C28.8292 21.3819 28.9476 21.3528 29.0492 21.2904C29.1508 21.2282 29.2304 21.1359 29.2773 21.0263C29.3241 20.9168 29.3357 20.7953 29.3106 20.6789Z" fill="white"/>
<path d="M15.9512 15.5742L4.69934 29.3992C4.60308 29.5175 4.55775 29.6692 4.57332 29.8209C4.58888 29.9726 4.66407 30.1119 4.78235 30.2082L6.56643 31.6597C6.68469 31.756 6.83637 31.8013 6.98805 31.7858C7.13979 31.7702 7.27905 31.695 7.37535 31.5768L18.627 17.7519L15.9512 15.5742Z" fill="white"/>
</g>
</g>
<defs>
<linearGradient id="paint0_linear_52_15044" x1="0" y1="0" x2="69" y2="70.5" gradientUnits="userSpaceOnUse">
<stop stop-color="#DBDBDB"/>
<stop offset="1" stop-color="#707070"/>
</linearGradient>
<clipPath id="clip0_52_15044">
<rect width="48" height="48" rx="12" fill="white"/>
</clipPath>
</defs>
</svg>
