<svg width="48" height="48" viewBox="0 0 48 48" fill="none" xmlns="http://www.w3.org/2000/svg">
<rect width="48" height="48" rx="12" fill="url(#paint0_linear_52_15012)"/>
<path fill-rule="evenodd" clip-rule="evenodd" d="M27.6353 10.2469C26.5486 10.4615 25.6418 11.0644 25.0076 11.994C24.8121 12.2806 23.8294 14.1538 23.747 14.397C23.6683 14.6294 23.6785 14.9967 23.7708 15.2537C23.8819 15.5627 24.0805 15.7858 24.3817 15.9403C24.8844 16.1978 25.4309 16.0904 25.8125 15.6587C25.9221 15.5347 26.1674 15.1073 26.4932 14.4726C26.8471 13.7829 27.0565 13.4215 27.1798 13.2873C27.6267 12.8012 28.2477 12.6427 28.8149 12.8699C29.1332 12.9974 35.7143 17.2338 35.9452 17.4598C36.0792 17.5909 36.2 17.7641 36.2877 17.9509C36.5694 18.5506 36.5657 19.1587 36.2768 19.7797C35.9545 20.4724 29.8859 32.0849 29.7628 32.2443C29.5976 32.4584 29.2817 32.6842 29.0366 32.7632C28.7608 32.8522 28.3393 32.8454 28.0949 32.7483C27.7537 32.6125 21.1138 28.3415 20.899 28.1197C20.5174 27.7253 20.3126 27.0391 20.3999 26.4472C20.456 26.0671 20.4835 26.0082 21.6303 23.8097C22.1618 22.791 22.6228 21.8773 22.6548 21.7793C22.8446 21.1972 22.5608 20.5078 22.0173 20.2309C21.8345 20.1379 21.7415 20.1173 21.4989 20.1165C21.2425 20.1156 21.1683 20.1334 20.9409 20.2499C20.7966 20.3237 20.6294 20.4463 20.5694 20.5222C20.4516 20.671 18.433 24.5281 18.2666 24.9223C18.1028 25.3105 17.9781 25.8161 17.9283 26.2948C17.763 27.8819 18.5012 29.5853 19.7282 30.4481C20.2978 30.8486 26.7121 34.9255 26.9611 35.0452C28.1654 35.6245 29.59 35.5093 30.7318 34.7402C31.1413 34.4644 31.5849 34.0256 31.8511 33.6331C32.0108 33.3974 38.0425 21.8585 38.4853 20.9414C39.4347 18.9749 38.932 16.5736 37.2988 15.2738C36.9144 14.968 30.1734 10.6729 29.8472 10.526C29.6791 10.4504 29.4022 10.3508 29.2318 10.3047C28.8156 10.1922 28.0522 10.1645 27.6353 10.2469Z" fill="white"/>
<path fill-rule="evenodd" clip-rule="evenodd" d="M18.6191 15.2481C17.6778 15.3414 16.8293 15.5963 15.9552 16.0482C14.7325 16.6803 13.7102 17.6237 12.9387 18.8318C12.7101 19.1896 10.1922 23.9819 9.75283 24.8954C9.34797 25.7369 9.06246 26.7318 8.9414 27.7227C8.85292 28.4463 8.87864 29.6467 8.99722 30.3329C9.30839 32.133 10.0426 33.6453 11.2122 34.8953C12.9013 36.7006 15.2294 37.6693 17.4145 37.476C18.915 37.3432 20.2357 36.8192 21.44 35.8786C22.14 35.332 22.3402 35.019 22.3397 34.4725C22.3394 34.1756 22.3267 34.1222 22.1998 33.8811C21.9509 33.4082 21.5023 33.1527 21.0054 33.201C20.7016 33.2306 20.5032 33.3309 20.1468 33.6354C19.1712 34.469 18.0558 34.9004 16.8758 34.9004C15.8399 34.9004 14.9488 34.5984 13.9529 33.91C13.2628 33.433 12.7857 32.9382 12.3441 32.2417C11.2471 30.5112 11.0591 28.2615 11.852 26.3495C12.0703 25.823 14.8071 20.5871 15.085 20.1642C16.346 18.2455 18.6683 17.3705 20.7217 18.0404C21.78 18.3855 22.9803 19.2706 23.6205 20.1777C24.4417 21.3412 24.8282 22.664 24.7767 24.1337C24.7378 25.2391 24.5708 25.8436 23.954 27.1109L23.5273 27.9878L23.5431 28.3344C23.5561 28.6208 23.5786 28.7189 23.6724 28.8981C24.0374 29.5955 24.8633 29.7858 25.5109 29.3216C25.705 29.1825 25.8697 28.9173 26.2716 28.0973C26.6634 27.2976 26.8304 26.8541 27.0021 26.1567C27.2093 25.315 27.2719 24.7937 27.2719 23.9094C27.2719 21.8829 26.6844 20.0634 25.525 18.4994C24.5825 17.2279 23.0888 16.1309 21.5963 15.614C20.6055 15.2708 19.6158 15.1492 18.6191 15.2481Z" fill="white"/>
<defs>
<linearGradient id="paint0_linear_52_15012" x1="4.8" y1="48" x2="48" y2="-10.8" gradientUnits="userSpaceOnUse">
<stop stop-color="#4393C2"/>
<stop offset="1" stop-color="#7ABFE7"/>
</linearGradient>
</defs>
</svg>
