<svg width="32" height="32" viewBox="0 0 32 32" fill="none" xmlns="http://www.w3.org/2000/svg">
<path d="M8.8916 21.333C9.87344 21.333 10.6699 22.1295 10.6699 23.1113V24.8887C10.6699 25.8705 9.87344 26.667 8.8916 26.667H7.11426C6.13242 26.667 5.33594 25.8705 5.33594 24.8887V23.1113C5.33594 22.1295 6.13242 21.333 7.11426 21.333H8.8916ZM16.8916 21.333C17.8734 21.333 18.6699 22.1295 18.6699 23.1113V24.8887C18.6699 25.8705 17.8734 26.667 16.8916 26.667H15.1143C14.1324 26.667 13.3359 25.8705 13.3359 24.8887V23.1113C13.3359 22.1295 14.1324 21.333 15.1143 21.333H16.8916ZM24.8916 21.333C25.8734 21.333 26.6699 22.1295 26.6699 23.1113V24.8887C26.6699 25.8705 25.8734 26.667 24.8916 26.667H23.1143C22.1324 26.667 21.3359 25.8705 21.3359 24.8887V23.1113C21.3359 22.1295 22.1324 21.333 23.1143 21.333H24.8916ZM8.8916 13.333C9.87344 13.333 10.6699 14.1295 10.6699 15.1113V16.8887C10.6699 17.8705 9.87344 18.667 8.8916 18.667H7.11426C6.13242 18.667 5.33594 17.8705 5.33594 16.8887V15.1113C5.33594 14.1295 6.13242 13.333 7.11426 13.333H8.8916ZM16.8916 13.333C17.8734 13.333 18.6699 14.1295 18.6699 15.1113V16.8887C18.6699 17.8705 17.8734 18.667 16.8916 18.667H15.1143C14.1324 18.667 13.3359 17.8705 13.3359 16.8887V15.1113C13.3359 14.1295 14.1324 13.333 15.1143 13.333H16.8916ZM24.8916 13.333C25.8734 13.333 26.6699 14.1295 26.6699 15.1113V16.8887C26.6699 17.8705 25.8734 18.667 24.8916 18.667H23.1143C22.1324 18.667 21.3359 17.8705 21.3359 16.8887V15.1113C21.3359 14.1295 22.1324 13.333 23.1143 13.333H24.8916ZM8.8916 5.33301C9.87344 5.33301 10.6699 6.12949 10.6699 7.11133V8.88867C10.6699 9.87051 9.87344 10.667 8.8916 10.667H7.11426C6.13242 10.667 5.33594 9.87051 5.33594 8.88867V7.11133C5.33594 6.12949 6.13242 5.33301 7.11426 5.33301H8.8916ZM16.8916 5.33301C17.8734 5.33301 18.6699 6.12949 18.6699 7.11133V8.88867C18.6699 9.87051 17.8734 10.667 16.8916 10.667H15.1143C14.1324 10.667 13.3359 9.87051 13.3359 8.88867V7.11133C13.3359 6.12949 14.1324 5.33301 15.1143 5.33301H16.8916ZM24.8916 5.33301C25.8734 5.33301 26.6699 6.12949 26.6699 7.11133V8.88867C26.6699 9.87051 25.8734 10.667 24.8916 10.667H23.1143C22.1324 10.667 21.3359 9.87051 21.3359 8.88867V7.11133C21.3359 6.12949 22.1324 5.33301 23.1143 5.33301H24.8916Z" fill="#F3F4F6"/>
</svg>
