<svg width="32" height="32" viewBox="0 0 32 32" fill="none" xmlns="http://www.w3.org/2000/svg">
<path d="M21.7097 1.3335C21.8994 3.05263 21.2107 4.7774 20.1906 6.01781C19.1704 7.2564 17.4967 8.22146 15.8578 8.09391C15.6333 6.40977 16.4619 4.65365 17.4064 3.55738C18.4616 2.31697 20.2402 1.39272 21.7097 1.3335Z" fill="white"/>
<path d="M27.0112 11.3467C26.7452 11.5099 23.8356 13.2944 23.8679 16.9187C23.9079 21.2985 27.645 22.7946 27.7863 22.8512L27.79 22.8527C27.7888 22.8563 27.787 22.8623 27.7845 22.8705C27.7153 23.0975 27.126 25.0302 25.7682 27.0249C24.5492 28.8107 23.2861 30.5909 21.2956 30.6297C20.3395 30.6469 19.7002 30.369 19.0358 30.0802C18.3399 29.7777 17.6166 29.4633 16.4731 29.4633C15.2756 29.4633 14.5188 29.7868 13.7895 30.0987C13.1573 30.369 12.5457 30.6305 11.6856 30.6648C9.76324 30.7388 8.30122 28.7331 7.07304 26.9529C4.56513 23.3111 2.64645 16.6617 5.22249 12.1751C6.50038 9.94573 8.78549 8.53525 11.2676 8.49828C12.3369 8.47731 13.3731 8.88977 14.28 9.25079C14.9723 9.52636 15.5893 9.77196 16.0883 9.77196C16.536 9.77196 17.1364 9.53436 17.8367 9.25726C18.9394 8.82094 20.2896 8.28671 21.6804 8.42803C22.6342 8.4687 25.3079 8.81438 27.0258 11.3377C27.0226 11.3398 27.0177 11.3428 27.0112 11.3467Z" fill="white"/>
</svg>
