<svg width="30" height="30" viewBox="0 0 30 30" fill="none" xmlns="http://www.w3.org/2000/svg">
<path d="M12.6296 21.7344C12.6612 21.7053 12.6709 21.6568 12.6542 21.615C10.457 16.4034 7.71801 11.4925 4.49257 6.98146C4.49257 6.98146 1.92861 9.66981 2.11037 12.3679C2.19767 13.6251 2.73222 14.7928 3.59694 15.6153C5.83338 18.0251 11.2493 21.0667 12.5093 21.7548C12.5488 21.7791 12.5989 21.7703 12.6305 21.7354M11.7928 23.7968C11.7844 23.7702 11.7688 23.7471 11.748 23.7307C11.7273 23.7144 11.7024 23.7056 11.6769 23.7055V23.7036L2.65916 24.0511C3.63645 25.9785 5.29336 27.4751 6.99945 27.016C8.18308 26.6889 10.8665 24.6208 11.741 23.9229V23.92C11.8086 23.8521 11.7849 23.7977 11.7849 23.7977M11.9289 22.901C11.9728 22.8233 11.8938 22.7554 11.8938 22.7554L11.8947 22.7515C7.94337 19.8011 0.258524 15.2659 0.258524 15.2659C-0.156903 16.6872 -0.0692134 18.2298 0.503905 19.5824C1.07702 20.9351 2.09292 21.9972 3.34669 22.5545C3.89742 22.7957 4.47973 22.9373 5.07121 22.9738C5.20643 23.0029 10.4344 22.9767 11.8341 22.9699C11.8736 22.965 11.9087 22.9388 11.9272 22.9M12.5278 2.67815C12.1344 2.71697 11.0754 2.9829 11.0754 2.9829C9.67668 3.37693 8.56153 4.54059 8.12338 6.05946C7.8759 7.09599 7.88014 8.18632 8.13567 9.22046C8.93208 13.1278 12.8544 19.5507 13.6956 20.8978C13.7553 20.9638 13.8045 20.9396 13.8045 20.9396C13.8554 20.926 13.8905 20.8736 13.8879 20.8153H13.8896C15.1857 6.47776 12.5286 2.6665 12.5286 2.6665M15.5114 20.9357C15.5606 20.958 15.6168 20.9347 15.6414 20.8823H15.6423C16.508 19.4983 20.4058 13.1113 21.1978 9.22046C21.4349 8.18394 21.4401 7.09889 21.2127 6.05946C20.9943 5.30849 20.6058 4.63167 20.0843 4.09323C19.5627 3.55479 18.9253 3.17259 18.2326 2.9829C18.2326 2.9829 17.5433 2.79073 16.8127 2.67718C16.8127 2.67718 14.1399 6.4797 15.4394 20.826H15.4412C15.4421 20.8745 15.4693 20.9182 15.5114 20.9347M17.6451 23.7143C17.6451 23.7143 17.5573 23.7259 17.5433 23.79C17.5327 23.8385 17.5459 23.8909 17.5784 23.9259C18.4389 24.6101 21.0556 26.6433 22.32 27.0247C22.32 27.0247 24.6512 27.9021 26.6752 24.0588L17.6469 23.7094L17.6451 23.7143ZM29.0776 15.2435C29.0776 15.2435 21.4121 19.7895 17.4476 22.7457C17.4277 22.7621 17.4128 22.7848 17.4048 22.8108C17.3968 22.8368 17.3961 22.8649 17.4028 22.8913C17.4028 22.8913 17.4406 22.966 17.4959 22.966V22.968L24.4203 22.9485C24.9527 22.9023 25.4759 22.7688 25.9727 22.5526C27.2679 21.9916 28.3101 20.8891 28.8756 19.4838C29.4063 18.1439 29.4781 16.6366 29.0776 15.2426M16.7232 21.7451C16.7583 21.7742 16.8066 21.7781 16.8461 21.7548C18.1369 21.0424 23.5133 18.0212 25.7392 15.624C26.6036 14.7952 27.1374 13.6231 27.2249 12.3621C27.3873 9.57179 24.8541 6.9902 24.8541 6.9902C21.6351 11.4894 18.9006 16.3873 16.7056 21.585H16.7082C16.6845 21.6383 16.6942 21.7014 16.7328 21.7441" fill="#F3F4F6"/>
</svg>
