<svg width="32" height="32" viewBox="0 0 32 32" fill="none" xmlns="http://www.w3.org/2000/svg">
<path fill-rule="evenodd" clip-rule="evenodd" d="M3.98355 2.15627C3.5011 2.46219 3.17318 2.96165 3.06281 3.55873C2.97896 4.01222 2.97913 27.9765 3.06292 28.4301C3.16962 29.0072 3.48891 29.4983 3.97453 29.8324L4.2181 30L4.90898 29.3157C5.28899 28.9393 8.49012 25.7983 12.0227 22.3357C15.5552 18.8732 18.4455 16.0182 18.4455 15.9913C18.4455 15.9644 15.5306 13.0864 11.968 9.59573C8.4054 6.10496 5.20689 2.96793 4.86027 2.62446L4.22996 2L3.98355 2.15627ZM7.54037 2.7933C7.54037 2.80478 10.2722 5.5105 13.6111 8.80603L19.6818 14.7979L20.3756 14.1425C20.7571 13.7821 21.5091 13.0454 22.0467 12.5055C23.0228 11.5254 23.0239 11.5239 22.894 11.4418C22.8224 11.3966 19.5046 9.52139 15.5211 7.27458C11.5375 5.02776 8.1123 3.09561 7.90934 2.98094C7.70638 2.86622 7.54037 2.78177 7.54037 2.7933ZM22.7775 14.2236C21.7929 15.1733 20.9873 15.9708 20.9873 15.9959C20.9873 16.0492 24.482 19.436 24.5766 19.4743C24.6659 19.5106 27.8622 17.7173 28.0844 17.5063C28.5272 17.0857 28.7456 16.3772 28.6407 15.7014C28.5709 15.2515 28.3377 14.7806 28.0488 14.5061C27.8749 14.3409 24.7127 12.4948 24.6065 12.4965C24.5851 12.4968 23.7621 13.2741 22.7775 14.2236ZM13.6138 23.1852C10.2734 26.4798 7.54037 29.1876 7.54037 29.2027C7.54037 29.2178 7.62034 29.182 7.71802 29.1232C7.81575 29.0644 11.2902 27.1028 15.4391 24.764C19.5879 22.4252 22.9936 20.5028 23.0071 20.492C23.0388 20.4665 22.0024 19.4232 20.7063 18.1758L19.6873 17.1951L13.6138 23.1852Z" fill="#F3F4F6"/>
</svg>
