<svg width="48" height="48" viewBox="0 0 48 48" fill="none" xmlns="http://www.w3.org/2000/svg">
<rect width="48" height="48" rx="12" fill="url(#paint0_linear_88_4487)"/>
<path fill-rule="evenodd" clip-rule="evenodd" d="M18.6349 12.1741V26.9271L13.6398 21.932C12.9428 21.5447 11.3397 21.3511 10.5033 22.2805C9.66691 23.2098 9.45781 23.7906 9.69013 25.0684L17.9379 34.3617C18.1914 34.6658 18.4138 34.9876 18.6458 35.3231C18.9456 35.7568 19.2613 36.2135 19.6804 36.685C20.4239 37.5214 20.8421 37.8467 21.5391 38.079H30.6C31.297 37.9628 32.0023 37.7146 32.8072 37.382C33.9124 36.9251 34.7637 36.2162 34.8981 36.1042L33.1557 34.0132L30.9485 35.8718L27.2312 31.8061L28.0444 30.9929L25.7211 27.9725L26.6503 27.1594L24.2109 24.2552L28.1605 20.6542L29.5545 22.0481L31.5293 20.1895L32.9233 21.3511L33.6203 20.7703C33.4267 20.6154 32.9001 20.236 32.3425 19.9571C31.6089 19.5903 31.1808 19.4925 30.6 19.3763H23.7462V12.1741C23.729 12.1375 23.7112 12.0988 23.6926 12.0585L23.6922 12.0577C23.3762 11.3725 22.8351 10.1992 21.1906 10.1992C19.5461 10.1992 19.0053 11.3719 18.6892 12.0571L18.6889 12.0579C18.6702 12.0984 18.6523 12.1373 18.6349 12.1741ZM29.6707 26.2301L31.6167 28.4301L29.4881 30.3131L27.542 28.1131L29.6707 26.2301ZM30.0727 24.6091L28.0496 22.4002L25.8738 24.3931L27.8969 26.602L30.0727 24.6091ZM31.5602 21.8246L33.0814 23.4233L31.4241 25.0003L29.9029 23.4016L31.5602 21.8246ZM35.6665 22.6893L34.6936 21.6207L33.6204 22.5979L34.5934 23.6665L35.6665 22.6893ZM33.0661 25.1617L34.5973 26.7932L33.013 28.28L31.4818 26.6485L33.0661 25.1617ZM37.0443 25.8998L36.0759 24.8674L35.0143 25.8632L35.9828 26.8956L37.0443 25.8998ZM31.2639 30.0721L33.1867 32.1536L31.084 34.096L29.1612 32.0144L31.2639 30.0721ZM35.9815 30.2534L34.5439 28.6776L32.9113 30.1669L34.3489 31.7428L35.9815 30.2534ZM37.4455 28.1129L38.443 29.123L37.4057 30.1474L36.4083 29.1374L37.4455 28.1129ZM37.4283 33.6722L35.9525 32.1092L34.4401 33.5373L35.916 35.1003L37.4283 33.6722Z" fill="white"/>
<defs>
<linearGradient id="paint0_linear_88_4487" x1="48.75" y1="-2.1" x2="-3.15" y2="48.9" gradientUnits="userSpaceOnUse">
<stop stop-color="#02B3B3"/>
<stop offset="1" stop-color="#007397"/>
</linearGradient>
</defs>
</svg>
