<svg width="48" height="48" viewBox="0 0 48 48" fill="none" xmlns="http://www.w3.org/2000/svg">
<rect width="48" height="48" rx="12" fill="url(#paint0_linear_88_4472)"/>
<path d="M39.5469 25.6569C37.9925 20.2062 34.4041 17.8558 31.0751 18.805C30.2117 19.0512 29.4541 19.4989 28.8289 20.1183C28.4704 20.4733 27.9969 20.6879 27.4924 20.6879H21.755C21.2504 20.6879 20.7769 20.4732 20.4184 20.1181C19.7932 19.4989 19.0356 19.0512 18.1724 18.805C14.8432 17.8558 11.2548 20.2062 9.70063 25.6569C8.14621 31.1076 9.21469 37.5944 12.5438 38.5437C15.0547 39.2596 18.1332 36.6199 20.162 32.9411C20.3774 32.5505 20.7948 32.3147 21.2407 32.3147H28.0067C28.4527 32.3147 28.8701 32.5505 29.0855 32.9411C31.1143 36.6199 34.1928 39.2596 36.7037 38.5437C40.0328 37.5944 41.1011 31.1076 39.5469 25.6569Z" fill="#3A556A"/>
<path d="M32.6417 24.7385C33.5053 24.7385 34.2053 24.0385 34.2053 23.1749C34.2053 22.3113 33.5053 21.6113 32.6417 21.6113C31.7781 21.6113 31.0781 22.3113 31.0781 23.1749C31.0781 24.0385 31.7781 24.7385 32.6417 24.7385Z" fill="#FCD462"/>
<path d="M32.6417 30.3773C33.5053 30.3773 34.2053 29.6772 34.2053 28.8137C34.2053 27.9501 33.5053 27.25 32.6417 27.25C31.7781 27.25 31.0781 27.9501 31.0781 28.8137C31.0781 29.6772 31.7781 30.3773 32.6417 30.3773Z" fill="#44C4A1"/>
<path d="M35.462 27.5588C36.3256 27.5588 37.0256 26.8588 37.0256 25.9952C37.0256 25.1317 36.3256 24.4316 35.462 24.4316C34.5985 24.4316 33.8984 25.1317 33.8984 25.9952C33.8984 26.8588 34.5985 27.5588 35.462 27.5588Z" fill="#27A2DB"/>
<path d="M29.8214 27.5588C30.6849 27.5588 31.385 26.8588 31.385 25.9952C31.385 25.1317 30.6849 24.4316 29.8214 24.4316C28.9578 24.4316 28.2578 25.1317 28.2578 25.9952C28.2578 26.8588 28.9578 27.5588 29.8214 27.5588Z" fill="#E56353"/>
<path d="M19.3977 25.0782H17.081V22.7614C17.081 22.5189 16.8844 22.3223 16.6419 22.3223H14.734C14.4915 22.3223 14.2949 22.5189 14.2949 22.7614V25.0782H11.9782C11.7357 25.0782 11.5391 25.2747 11.5391 25.5173V27.4252C11.5391 27.6677 11.7357 27.8643 11.9782 27.8643H14.2949V30.181C14.2949 30.4235 14.4915 30.6201 14.734 30.6201H16.6419C16.8844 30.6201 17.081 30.4235 17.081 30.181V27.8643H19.3977C19.6402 27.8643 19.8368 27.6677 19.8368 27.4252V25.5173C19.8368 25.2747 19.6402 25.0782 19.3977 25.0782Z" fill="#EBF0F3"/>
<path d="M15.6858 22.7363L15.0078 23.4143L16.3639 23.4144L15.6858 22.7363Z" fill="#E1E6E9"/>
<path d="M15.6859 30.2055L16.3639 29.5275L15.0078 29.5273L15.6859 30.2055Z" fill="#E1E6E9"/>
<path d="M19.4203 26.4708L18.7423 25.793L18.7422 27.149L19.4203 26.4708Z" fill="#E1E6E9"/>
<path d="M11.9531 26.4711L12.6311 27.149L12.6313 25.793L11.9531 26.4711Z" fill="#E1E6E9"/>
<path d="M24.0718 22.0762H21.4297V23.1756H24.0718V22.0762Z" fill="#FCD462"/>
<path d="M27.8217 22.0762H25.1797V23.1756H27.8217V22.0762Z" fill="#44C4A1"/>
<path d="M24.6031 17.9992C27.5855 17.9992 30.0031 15.5816 30.0031 12.5992C30.0031 9.61686 27.5855 7.19922 24.6031 7.19922C21.6208 7.19922 19.2031 9.61686 19.2031 12.5992C19.2031 15.5816 21.6208 17.9992 24.6031 17.9992Z" fill="#FFE14D"/>
<path d="M30.0016 12.5992C30.0016 9.62166 27.5791 7.19922 24.6016 7.19922V17.9992C27.5791 17.9992 30.0016 15.5768 30.0016 12.5992Z" fill="#FFBB33"/>
<path d="M24.5977 16.7129C22.3297 16.7129 20.4844 14.8676 20.4844 12.5996C20.4844 10.3316 22.3297 8.48633 24.5977 8.48633C26.8657 8.48633 28.711 10.3316 28.711 12.5996C28.711 14.8676 26.8657 16.7129 24.5977 16.7129Z" fill="#FFBB33"/>
<path d="M28.7149 12.5996C28.7149 10.3316 26.8696 8.48633 24.6016 8.48633V16.7129C26.8696 16.7129 28.7149 14.8676 28.7149 12.5996Z" fill="#E68A2E"/>
<path d="M24.914 12.3068V11.0558C25.278 11.1451 25.5468 11.3793 25.5468 11.6484C25.5468 11.8233 25.6884 11.9648 25.8633 11.9648C26.0382 11.9648 26.1797 11.8233 26.1797 11.6484C26.1797 11.0371 25.6355 10.5259 24.914 10.4084V10.0664C24.914 9.89148 24.7725 9.75 24.5976 9.75C24.4227 9.75 24.2813 9.89148 24.2813 10.0664V10.4084C23.5598 10.5259 23.0156 11.0371 23.0156 11.6484C23.0156 12.2597 23.5598 12.7709 24.2813 12.8884V14.1394C23.9173 14.0501 23.6484 13.816 23.6484 13.5469C23.6484 13.372 23.5069 13.2305 23.332 13.2305C23.1571 13.2305 23.0156 13.372 23.0156 13.5469C23.0156 14.1582 23.5598 14.6693 24.2813 14.7869V15.132C24.2813 15.3068 24.4227 15.4484 24.5976 15.4484C24.7725 15.4484 24.914 15.3068 24.914 15.132V14.7869C25.6355 14.6693 26.1797 14.1582 26.1797 13.5469C26.1797 12.9355 25.6355 12.4244 24.914 12.3068ZM23.6484 11.6484C23.6484 11.3793 23.9173 11.1451 24.2813 11.0558V12.241C23.9173 12.1517 23.6484 11.9176 23.6484 11.6484ZM24.914 14.1394V12.9543C25.278 13.0436 25.5468 13.2777 25.5468 13.5469C25.5468 13.816 25.278 14.0501 24.914 14.1394Z" fill="#FFE14D"/>
<path d="M24.9179 15.132V14.7869C25.6394 14.6693 26.1836 14.1582 26.1836 13.5469C26.1836 12.9355 25.6394 12.4244 24.9179 12.3068V11.0558C25.2819 11.1451 25.5508 11.3793 25.5508 11.6484C25.5508 11.8233 25.6923 11.9648 25.8672 11.9648C26.0421 11.9648 26.1836 11.8233 26.1836 11.6484C26.1836 11.0371 25.6394 10.5259 24.9179 10.4084V10.0664C24.9179 9.89148 24.7765 9.75 24.6016 9.75V15.4484C24.7765 15.4484 24.9179 15.3068 24.9179 15.132ZM24.9179 12.9543C25.2819 13.0436 25.5508 13.2777 25.5508 13.5469C25.5508 13.816 25.2819 14.0501 24.9179 14.1394V12.9543Z" fill="#FFBB33"/>
<defs>
<linearGradient id="paint0_linear_88_4472" x1="48.75" y1="-2.1" x2="-3.15" y2="48.9" gradientUnits="userSpaceOnUse">
<stop stop-color="#E05B49"/>
<stop offset="1" stop-color="#D1402C"/>
</linearGradient>
</defs>
</svg>
