<svg width="48" height="48" viewBox="0 0 48 48" fill="none" xmlns="http://www.w3.org/2000/svg">
<rect width="48" height="48" rx="12" fill="url(#paint0_linear_88_4482)"/>
<g clip-path="url(#clip0_88_4482)">
<path d="M22.4805 9.23333L11.5843 15.9456C11.1203 16.2314 10.8372 16.7373 10.8355 17.2826L10.7969 30.9154C10.7952 31.4797 11.0952 32.0017 11.5832 32.2838L22.8338 38.789C23.3218 39.0711 23.9232 39.0703 24.4103 38.7867L35.5857 32.2826C36.0689 32.0017 36.3667 31.4848 36.3683 30.9253L36.4069 17.314C36.4087 16.7522 36.1111 16.232 35.6266 15.949L24.0968 9.21443C23.5956 8.92185 22.9744 8.92919 22.4805 9.23333Z" fill="white"/>
<path d="M23.6008 33.0042C23.518 33.0042 23.4349 32.9825 23.3602 32.9396L22.0766 32.1959C21.0611 31.6073 20.5534 31.2201 20.5534 31.034V22.8863L16.4704 25.2472C16.3216 25.333 16.1388 25.333 15.99 25.2472C15.8416 25.1614 15.75 25.0026 15.75 24.8308V19.7382C15.75 19.5664 15.8416 19.4075 15.99 19.3218L23.3602 15.0604C23.509 14.9746 23.6918 14.9746 23.8405 15.0604L31.2113 19.3218C31.3597 19.4075 31.4513 19.5664 31.4513 19.7382V24.8308C31.4513 25.0026 31.3597 25.1614 31.2113 25.2472C31.0625 25.333 30.8797 25.333 30.7309 25.2472L26.6479 22.8866V31.0338C26.6479 31.2198 26.1401 31.6071 25.1243 32.1956L23.8408 32.9393C23.7664 32.9822 23.6833 33.0039 23.6002 33.0039L23.6008 33.0042ZM21.5143 30.7582C21.9372 31.0039 22.8579 31.5377 23.6011 31.9679C24.344 31.5377 25.2652 31.0042 25.6881 30.7582V22.0537C25.6881 21.8819 25.7797 21.7231 25.9281 21.6373C26.0768 21.5515 26.2597 21.5515 26.4085 21.6373L30.4915 23.9982V20.0164L23.6011 16.0327L16.711 20.0164V23.9979L20.794 21.6373C20.9428 21.5515 21.1261 21.5515 21.2743 21.6373C21.4228 21.7231 21.5143 21.8819 21.5143 22.0537V30.7582Z" fill="white"/>
<path d="M23.6008 33.0042C23.518 33.0042 23.4349 32.9825 23.3602 32.9396L22.0766 32.1959C21.0611 31.6073 20.5534 31.2201 20.5534 31.034V22.8863L16.4704 25.2472C16.3216 25.333 16.1388 25.333 15.99 25.2472C15.8416 25.1614 15.75 25.0026 15.75 24.8308V19.7382C15.75 19.5664 15.8416 19.4075 15.99 19.3218L23.3602 15.0604C23.509 14.9746 23.6918 14.9746 23.8405 15.0604L31.2113 19.3218C31.3597 19.4075 31.4513 19.5664 31.4513 19.7382V24.8308C31.4513 25.0026 31.3597 25.1614 31.2113 25.2472C31.0625 25.333 30.8797 25.333 30.7309 25.2472L26.6479 22.8866V31.0338C26.6479 31.2198 26.1401 31.6071 25.1243 32.1956L23.8408 32.9393C23.7664 32.9822 23.6833 33.0039 23.6002 33.0039L23.6008 33.0042ZM21.5143 30.7582C21.9372 31.0039 22.8579 31.5377 23.6011 31.9679C24.344 31.5377 25.2652 31.0042 25.6881 30.7582V22.0537C25.6881 21.8819 25.7797 21.7231 25.9281 21.6373C26.0768 21.5515 26.2597 21.5515 26.4085 21.6373L30.4915 23.9982V20.0164L23.6011 16.0327L16.711 20.0164V23.9979L20.794 21.6373C20.9428 21.5515 21.1261 21.5515 21.2743 21.6373C21.4228 21.7231 21.5143 21.8819 21.5143 22.0537V30.7582Z" fill="#008EF3"/>
</g>
<defs>
<linearGradient id="paint0_linear_88_4482" x1="48.75" y1="-2.1" x2="-3.15" y2="48.9" gradientUnits="userSpaceOnUse">
<stop stop-color="#6FBAFF"/>
<stop offset="1" stop-color="#0084FF"/>
</linearGradient>
<clipPath id="clip0_88_4482">
<rect width="25.8" height="30" fill="white" transform="translate(10.7969 9)"/>
</clipPath>
</defs>
</svg>
