<svg width="48" height="48" viewBox="0 0 48 48" fill="none" xmlns="http://www.w3.org/2000/svg">
<rect width="48" height="48" rx="12" fill="url(#paint0_linear_88_4492)"/>
<mask id="mask0_88_4492" style="mask-type:luminance" maskUnits="userSpaceOnUse" x="12" y="10" width="24" height="25">
<path d="M36 10.9277H12V34.9277H36V10.9277Z" fill="white"/>
</mask>
<g mask="url(#mask0_88_4492)">
<path d="M30.5859 23.5059H33.3983V30.2398H30.5859V23.5059Z" fill="white"/>
<path d="M25.2578 23.5059H28.0703V30.2398H25.2578V23.5059Z" fill="white"/>
<path d="M19.9297 23.5059H22.7422V30.2398H19.9297V23.5059Z" fill="white"/>
<path d="M14.6016 23.5059H17.4139V30.2398H14.6016V23.5059Z" fill="white"/>
<path d="M34.3288 21.3965V20.6934H13.6641V21.3965C13.6641 21.7849 13.9788 22.0996 14.3672 22.0996H33.6256C34.0138 22.0996 34.3288 21.7849 34.3288 21.3965Z" fill="white"/>
<path d="M35.2958 31.6465H12.7031C12.3148 31.6465 12 31.9612 12 32.3496V34.2246C12 34.613 12.3148 34.9278 12.7031 34.9278H35.2958C35.6841 34.9278 35.9989 34.613 35.9989 34.2246V32.3496C35.9989 31.9612 35.6841 31.6465 35.2958 31.6465Z" fill="white"/>
<path d="M12.7031 19.2876H35.2968C35.6114 19.2876 35.8877 19.0787 35.9734 18.776C36.0589 18.4734 35.9333 18.1506 35.6654 17.9857L24.3685 11.0321C24.1426 10.8929 23.8575 10.8929 23.6314 11.0321L12.3345 17.9857C12.0666 18.1507 11.941 18.4734 12.0267 18.776C12.1124 19.0787 12.3887 19.2876 12.7031 19.2876ZM23.522 15.0634H24.478C24.8664 15.0634 25.1812 15.3781 25.1812 15.7665C25.1812 16.1548 24.8664 16.4696 24.478 16.4696H23.522C23.1337 16.4696 22.8189 16.1548 22.8189 15.7665C22.8189 15.3781 23.1337 15.0634 23.522 15.0634Z" fill="white"/>
</g>
<defs>
<linearGradient id="paint0_linear_88_4492" x1="48.75" y1="-2.1" x2="-3.15" y2="48.9" gradientUnits="userSpaceOnUse">
<stop stop-color="#D26B75"/>
<stop offset="1" stop-color="#B83F4B"/>
</linearGradient>
</defs>
</svg>
