<svg width="48" height="48" viewBox="0 0 48 48" fill="none" xmlns="http://www.w3.org/2000/svg">
<rect width="48" height="48" rx="12" fill="url(#paint0_linear_88_4497)"/>
<path d="M11.1875 19.509C11.1875 18.5915 11.9677 17.8477 12.9302 17.8477H35.0694C36.0318 17.8477 36.8121 18.5915 36.8121 19.509V34.1534C36.8121 35.0709 36.0318 35.8147 35.0694 35.8147H12.9302C11.9677 35.8147 11.1875 35.0709 11.1875 34.1534V19.509Z" fill="#007ED5"/>
<path d="M10.9862 13.2232C11.0858 12.6255 11.6263 12.1855 12.2611 12.1855H35.7421C36.3769 12.1855 36.9175 12.6255 37.0171 13.2232L38.1049 19.7539H9.89844L10.9862 13.2232Z" fill="#0066AC"/>
<mask id="mask0_88_4497" style="mask-type:alpha" maskUnits="userSpaceOnUse" x="11" y="17" width="26" height="19">
<path d="M11.1875 19.507C11.1875 18.5895 11.9677 17.8457 12.9302 17.8457H35.0694C36.0318 17.8457 36.8121 18.5895 36.8121 19.507V34.1514C36.8121 35.069 36.0318 35.8128 35.0694 35.8128H12.9302C11.9677 35.8128 11.1875 35.069 11.1875 34.1514V19.507Z" fill="#007ED5"/>
</mask>
<g mask="url(#mask0_88_4497)">
<path d="M16.5654 30.916C17.6106 30.916 18.6051 31.2251 19.4975 31.778C19.6374 31.8595 19.7783 31.957 19.9178 32.0546L19.3059 32.7542L18.3885 31.5343L16.8079 33.3233L15.8771 32.0382L12.9705 35.3728L14.8314 37.9916L14.105 38.8047L15.9409 41.4235L15.2144 42.2362L17.8406 45.9611L19.3949 44.1393L20.7468 46.0917C20.4789 46.352 20.1857 46.6127 19.8674 46.8401C18.8984 47.5394 17.7764 47.9453 16.5783 47.9453C12.8938 47.9453 9.89848 44.1237 9.89848 39.4234C9.88546 34.7548 12.8813 30.916 16.5654 30.916ZM15.3414 38.9025L16.9349 37.0806L18.363 39.1138L16.7691 40.9354L15.3414 38.9025ZM16.4763 42.4159L18.0569 40.5779L19.4975 42.6109L17.9039 44.4329L16.4763 42.4159ZM14.2075 35.4381L15.8006 33.6162L17.2283 35.6494L15.6347 37.4711L14.2075 35.4381ZM17.1262 34.4618L18.3118 33.0956L19.3829 34.6084L18.1973 35.9907L17.1262 34.4618ZM19.2426 40.724L20.4278 39.3577L21.4988 40.8863L20.3131 42.2534L19.2426 40.724ZM20.2877 43.7986L21.4734 42.432L22.5436 43.9447L21.3584 45.3269L20.2877 43.7986ZM20.7722 36.7715L21.5625 35.8606L22.2761 36.8694L21.486 37.78L20.7722 36.7715ZM19.7524 33.7624L20.5427 32.8355L21.2568 33.86L20.466 34.7709L19.7524 33.7624ZM21.7792 39.7809L22.5695 38.87L23.2961 39.8785L22.4932 40.7892L21.7792 39.7809ZM18.2226 37.5199L19.4084 36.1536L20.4789 37.666L19.2937 39.0326L18.2226 37.5199Z" fill="url(#paint1_linear_88_4497)"/>
</g>
<defs>
<linearGradient id="paint0_linear_88_4497" x1="48.75" y1="-2.1" x2="-3.15" y2="48.9" gradientUnits="userSpaceOnUse">
<stop stop-color="#BEE1FF"/>
<stop offset="1" stop-color="#97CEFF"/>
</linearGradient>
<linearGradient id="paint1_linear_88_4497" x1="20.6814" y1="30.916" x2="6.46918" y2="40.87" gradientUnits="userSpaceOnUse">
<stop stop-color="white" stop-opacity="0.31"/>
<stop offset="1" stop-color="#007ED5"/>
</linearGradient>
</defs>
</svg>
