<svg width="48" height="48" viewBox="0 0 48 48" fill="none" xmlns="http://www.w3.org/2000/svg">
<rect width="48" height="48" rx="12" fill="url(#paint0_linear_88_4462)"/>
<mask id="mask0_88_4462" style="mask-type:luminance" maskUnits="userSpaceOnUse" x="8" y="9" width="31" height="31">
<path d="M38.9984 9H8.39844V39.6H38.9984V9Z" fill="white"/>
</mask>
<g mask="url(#mask0_88_4462)">
<path d="M30.3341 12.7636C27.9071 10.3366 24.6803 9 21.248 9C17.8157 9 14.5889 10.3366 12.162 12.7636C9.73506 15.1905 8.39844 18.4173 8.39844 21.8496C8.39844 25.2819 9.73506 28.5087 12.162 30.9356C14.5889 33.3626 17.8157 34.6992 21.248 34.6992C24.6803 34.6992 27.9071 33.3626 30.3341 30.9356C32.7611 28.5087 34.0976 25.2819 34.0976 21.8496C34.0976 18.4173 32.7611 15.1905 30.3341 12.7636Z" fill="#FFEB7A"/>
<path d="M30.336 12.7636C27.9091 10.3366 24.6823 9 21.25 9V34.6992C24.6823 34.6992 27.9091 33.3626 30.336 30.9356C32.763 28.5087 34.0996 25.2819 34.0996 21.8496C34.0996 18.4173 32.763 15.1905 30.336 12.7636Z" fill="#FFCB49"/>
<path d="M21.2512 30.8734C26.2353 30.8734 30.2758 26.833 30.2758 21.8488C30.2758 16.8647 26.2353 12.8242 21.2512 12.8242C16.267 12.8242 12.2266 16.8647 12.2266 21.8488C12.2266 26.833 16.267 30.8734 21.2512 30.8734Z" fill="#FFCB49"/>
<path d="M21.25 12.8242V30.8734C26.2262 30.8734 30.2746 26.825 30.2746 21.8488C30.2746 16.8726 26.2262 12.8242 21.25 12.8242Z" fill="#FFAD09"/>
<path d="M24.0555 23.5231C24.0555 22.106 22.9026 20.9532 21.4856 20.9532H21.0074C20.579 20.9532 20.2305 20.6046 20.2305 20.1762C20.2305 19.7478 20.579 19.3992 21.0074 19.3992H22.6808C23.1759 19.3992 23.5773 18.9979 23.5773 18.5028C23.5773 18.0076 23.1759 17.6063 22.6808 17.6063H22.143V17.0684C22.143 16.5733 21.7416 16.1719 21.2465 16.1719C20.7514 16.1719 20.35 16.5733 20.35 17.0684V17.6919C19.2504 17.9831 18.4375 18.9864 18.4375 20.1762C18.4375 21.5932 19.5903 22.7461 21.0074 22.7461H21.4856C21.914 22.7461 22.2625 23.0947 22.2625 23.5231C22.2625 23.9515 21.914 24.3 21.4856 24.3H19.8121C19.317 24.3 18.9156 24.7014 18.9156 25.1965C18.9156 25.6916 19.317 26.093 19.8121 26.093H20.35V26.6309C20.35 27.126 20.7514 27.5274 21.2465 27.5274C21.7416 27.5274 22.143 27.126 22.143 26.6309V26.0074C23.2425 25.7161 24.0555 24.7129 24.0555 23.5231Z" fill="#FFEB7A"/>
<path d="M21.25 19.3992H22.6844C23.1795 19.3992 23.5809 18.9979 23.5809 18.5028C23.5809 18.0076 23.1795 17.6063 22.6844 17.6063H22.1465V17.0684C22.1465 16.5733 21.7451 16.1719 21.25 16.1719V19.3992Z" fill="#FFCB49"/>
<path d="M21.4891 20.9531H21.25V22.7461H21.4891C21.9175 22.7461 22.266 23.0946 22.266 23.523C22.266 23.9514 21.9175 24.3 21.4891 24.3H21.25V27.5273C21.7451 27.5273 22.1465 27.1259 22.1465 26.6309V26.0073C23.2461 25.7161 24.059 24.7128 24.059 23.523C24.059 22.106 22.9061 20.9531 21.4891 20.9531Z" fill="#FFCB49"/>
<path d="M38.7339 35.679L36.0582 33.0032L37.1438 32.189C37.4339 31.9714 37.5643 31.6006 37.4743 31.2493C37.3844 30.8981 37.0916 30.6356 36.7327 30.5843L30.0389 29.6281C29.7597 29.5885 29.4777 29.6821 29.2782 29.8817C29.0787 30.0812 28.9848 30.363 29.0246 30.6423L29.9809 37.336C30.0322 37.695 30.2946 37.9877 30.6459 38.0777C30.9972 38.168 31.368 38.0372 31.5856 37.7471L32.3998 36.6616L35.0756 39.3374C35.2506 39.5124 35.48 39.5999 35.7095 39.5999C35.9389 39.5999 36.1683 39.5124 36.3433 39.3374L38.7339 36.9467C39.0841 36.5967 39.0841 36.029 38.7339 35.679Z" fill="white"/>
</g>
<defs>
<linearGradient id="paint0_linear_88_4462" x1="48.75" y1="-2.1" x2="-3.15" y2="48.9" gradientUnits="userSpaceOnUse">
<stop stop-color="#5C6BC0"/>
<stop offset="1" stop-color="#4556B5"/>
</linearGradient>
</defs>
</svg>
