<svg width="48" height="48" viewBox="0 0 48 48" fill="none" xmlns="http://www.w3.org/2000/svg">
<rect width="48" height="48" rx="12" fill="url(#paint0_linear_88_4456)"/>
<path d="M31.0759 13.752V16.1047H29.5074V13.752H18.4759V16.1047H16.9074V13.752H11.3984V17.6731H36.5984V13.752H31.0759Z" fill="white"/>
<path d="M11.3984 36.0247H24.7387C20.0504 31.4573 23.335 23.3063 29.9519 23.3202C32.8581 23.3201 35.3802 24.9989 36.5984 27.4384V19.2422H11.3984V36.0247ZM22.1356 21.2289H25.8476V22.7974H22.1356V21.2289ZM14.7377 21.2289H18.4497V22.7974H14.7377V21.2289ZM14.7377 26.4571H18.4497V28.0255H14.7377V26.4571ZM14.7377 31.6853H18.4497V33.2537H14.7377V31.6853Z" fill="white"/>
<path d="M29.9511 24.8887C24.1283 24.9374 21.9438 32.4477 26.7254 35.629C27.6507 36.2422 28.7601 36.5999 29.9511 36.5999C33.1868 36.6102 35.8182 33.9357 35.8067 30.7443C35.8067 27.5154 33.18 24.8887 29.9511 24.8887ZM32.0225 33.0081C31.7543 33.5105 31.3089 33.8958 30.7746 34.0903V35.0314H29.2061C29.2061 34.8706 29.2061 34.3291 29.2061 34.1782C28.8495 34.1149 28.5228 33.9805 28.1103 33.7108L27.4541 33.2815L28.3126 31.9687L28.9688 32.3985C29.3462 32.6452 29.4675 32.6641 29.9851 32.661C30.4812 32.6578 30.6789 32.2683 30.717 32.0388C30.7678 31.7403 30.6376 31.5343 30.3317 31.426C29.6855 31.1976 29.0231 30.9357 28.5531 30.567C27.4241 29.6861 27.9237 27.793 29.2061 27.3004V26.4049H30.7746V27.1875C31.5024 27.3518 31.8675 27.631 32.4257 27.9163L31.6817 29.2971C31.2111 29.0764 30.5194 28.5116 29.8209 28.7434C29.574 28.8331 29.4209 29.1649 29.5214 29.3326C29.8142 29.5622 30.3594 29.7724 30.8546 29.947C32.1481 30.3748 32.6585 31.8514 32.0225 33.0081Z" fill="white"/>
<path d="M29.5078 11.4004H31.0763V13.7531H29.5078V11.4004Z" fill="white"/>
<path d="M16.9062 11.4004H18.4747V13.7531H16.9062V11.4004Z" fill="white"/>
<defs>
<linearGradient id="paint0_linear_88_4456" x1="48.75" y1="-2.1" x2="-3.15" y2="48.9" gradientUnits="userSpaceOnUse">
<stop stop-color="#289526"/>
<stop offset="1" stop-color="#196F17"/>
</linearGradient>
</defs>
</svg>
