<svg width="48" height="48" viewBox="0 0 48 48" fill="none" xmlns="http://www.w3.org/2000/svg">
<rect width="48" height="48" rx="12" fill="url(#paint0_linear_88_4477)"/>
<path d="M28.5019 22.9609H10.9942C10.5569 22.9609 10.2031 23.3148 10.2031 23.752V34.8262C10.2031 36.1348 11.2676 37.1992 12.5762 37.1992H26.9199C28.2284 37.1992 29.293 36.1348 29.293 34.8262V23.752C29.293 23.3148 28.9391 22.9609 28.5019 22.9609ZM24.4414 27.7071C24.4414 30.3242 22.3124 32.4532 19.6953 32.4532C17.0782 32.4532 14.9492 30.3242 14.9492 27.7071V26.916C14.9492 26.4788 15.303 26.125 15.7402 26.125C16.1774 26.125 16.5313 26.4788 16.5313 26.916V27.7071C16.5313 29.4521 17.9503 30.8711 19.6953 30.8711C21.4403 30.8711 22.8594 29.4521 22.8594 27.7071V26.916C22.8594 26.4788 23.2132 26.125 23.6504 26.125C24.0876 26.125 24.4414 26.4788 24.4414 26.916V27.7071Z" fill="white"/>
<path d="M36.4121 16.6328H32.3516V14.9453C32.3516 12.3281 30.2226 10.1992 27.6055 10.1992C24.9883 10.1992 22.8594 12.3281 22.8594 14.9453V16.6328H18.7989C18.3616 16.6328 18.0078 16.9866 18.0078 17.4238V21.3789H28.5019C29.8105 21.3789 30.875 22.4434 30.875 23.752V34.8262C30.875 35.7199 30.5657 36.5362 30.0638 37.1992H34.8301C36.1386 37.1992 37.2031 36.1348 37.2031 34.8262V17.4238C37.2031 16.9866 36.8493 16.6328 36.4121 16.6328ZM30.7695 16.6328H24.4414V14.9453C24.4414 13.2003 25.8604 11.7812 27.6055 11.7812C29.3505 11.7812 30.7695 13.2003 30.7695 14.9453V16.6328Z" fill="#FFCC80"/>
<defs>
<linearGradient id="paint0_linear_88_4477" x1="48.75" y1="-2.1" x2="-3.15" y2="48.9" gradientUnits="userSpaceOnUse">
<stop stop-color="#3498DB"/>
<stop offset="1" stop-color="#137CC2"/>
</linearGradient>
</defs>
</svg>
