<svg width="24" height="24" viewBox="0 0 24 24" fill="none" xmlns="http://www.w3.org/2000/svg">
<path fill-rule="evenodd" clip-rule="evenodd" d="M12 20C16.4183 20 20 16.4183 20 12C20 7.58172 16.4183 4 12 4C7.58172 4 4 7.58172 4 12C4 16.4183 7.58172 20 12 20ZM8.29289 8.29289C8.68342 7.90237 9.31658 7.90237 9.70711 8.29289L12.1097 10.6955L14.5122 8.29289C14.9028 7.90237 15.5359 7.90237 15.9264 8.29289C16.317 8.68342 16.317 9.31658 15.9264 9.70711L13.5239 12.1097L15.9264 14.5122C16.317 14.9028 16.317 15.5359 15.9264 15.9264C15.5359 16.317 14.9028 16.317 14.5122 15.9264L12.1097 13.5239L9.70711 15.9264C9.31658 16.317 8.68342 16.317 8.29289 15.9264C7.90237 15.5359 7.90237 14.9028 8.29289 14.5122L10.6955 12.1097L8.29289 9.70711C7.90237 9.31658 7.90237 8.68342 8.29289 8.29289Z" fill="#D2D6DB"/>
</svg>
