<svg width="24" height="24" viewBox="0 0 24 24" fill="none" xmlns="http://www.w3.org/2000/svg">
<path fill-rule="evenodd" clip-rule="evenodd" d="M4.56066 2.43934C3.97487 1.85355 3.02513 1.85355 2.43934 2.43934C1.85355 3.02513 1.85355 3.97487 2.43934 4.56066L9.88028 12.0016L2.43934 19.4426C1.85355 20.0283 1.85355 20.9781 2.43934 21.5639C3.02513 22.1497 3.97487 22.1497 4.56066 21.5639L12.0016 14.1229L19.4425 21.5638C20.0283 22.1496 20.9781 22.1496 21.5638 21.5638C22.1496 20.9781 22.1496 20.0283 21.5638 19.4425L14.1229 12.0016L21.5638 4.56068C22.1496 3.9749 22.1496 3.02515 21.5638 2.43936C20.9781 1.85358 20.0283 1.85358 19.4425 2.43936L12.0016 9.88028L4.56066 2.43934Z" fill="#9DA4AE"/>
</svg>
