<svg width="56" height="56" viewBox="0 0 56 56" fill="none" xmlns="http://www.w3.org/2000/svg">
<rect width="56" height="56" rx="12" fill="url(#paint0_linear_88_4637)"/>
<path d="M38.1224 28.3496C36.1899 28.3496 34.3008 28.9226 32.694 29.9963C31.0873 31.07 29.8349 32.5959 29.0953 34.3813C28.3558 36.1667 28.1623 38.1313 28.5393 40.0267C28.9163 41.922 29.8469 43.663 31.2134 45.0295C32.5799 46.396 34.3209 47.3265 36.2162 47.7036C38.1116 48.0806 40.0762 47.887 41.8616 47.1476C43.6469 46.408 45.1729 45.1556 46.2466 43.5488C47.3202 41.942 47.8933 40.0529 47.8933 38.1204C47.8904 35.5299 46.8601 33.0463 45.0283 31.2146C43.1965 29.3828 40.713 28.3525 38.1224 28.3496ZM38.1224 37.1434C38.9169 37.1412 39.6857 37.4246 40.2886 37.942C40.8915 38.4594 41.2884 39.1762 41.4068 39.9618C41.5253 40.7474 41.3574 41.5494 40.9339 42.2215C40.5103 42.8937 39.8593 43.3912 39.0995 43.6234V43.9829C39.0995 44.2421 38.9966 44.4906 38.8133 44.6738C38.6301 44.8571 38.3815 44.9601 38.1224 44.9601C37.8633 44.9601 37.6147 44.8571 37.4315 44.6738C37.2483 44.4906 37.1453 44.2421 37.1453 43.9829V43.6234C36.4686 43.4163 35.8759 42.9979 35.4539 42.4298C35.032 41.8615 34.8029 41.1732 34.8003 40.4654C34.8003 40.2063 34.9033 39.9578 35.0865 39.7745C35.2698 39.5913 35.5183 39.4884 35.7774 39.4884C36.0365 39.4884 36.2851 39.5913 36.4683 39.7745C36.6516 39.9578 36.7545 40.2063 36.7545 40.4654C36.7545 40.736 36.8347 41.0005 36.985 41.2254C37.1353 41.4504 37.349 41.6257 37.5989 41.7293C37.8489 41.8328 38.1239 41.8599 38.3893 41.8071C38.6547 41.7543 38.8984 41.624 39.0897 41.4327C39.281 41.2414 39.4113 40.9976 39.4641 40.7323C39.5169 40.467 39.4898 40.1919 39.3862 39.942C39.2827 39.692 39.1074 39.4783 38.8824 39.3281C38.6575 39.1778 38.3929 39.0975 38.1224 39.0975C37.328 39.0997 36.5592 38.8163 35.9562 38.2989C35.3533 37.7815 34.9565 37.0647 34.8381 36.2791C34.7196 35.4935 34.8874 34.6915 35.311 34.0193C35.7346 33.3472 36.3856 32.8497 37.1453 32.6175V32.2579C37.1453 31.9988 37.2483 31.7503 37.4315 31.567C37.6147 31.3838 37.8633 31.2809 38.1224 31.2809C38.3815 31.2809 38.6301 31.3838 38.8133 31.567C38.9966 31.7503 39.0995 31.9988 39.0995 32.2579V32.6175C39.7763 32.8246 40.369 33.2429 40.7909 33.8111C41.2129 34.3793 41.4419 35.0677 41.4445 35.7754C41.4445 36.0346 41.3416 36.2831 41.1583 36.4663C40.9751 36.6496 40.7265 36.7525 40.4674 36.7525C40.2083 36.7525 39.9598 36.6496 39.7765 36.4663C39.5933 36.2831 39.4903 36.0346 39.4903 35.7754C39.4903 35.5049 39.4101 35.2404 39.2598 35.0155C39.1095 34.7905 38.8958 34.6152 38.6459 34.5116C38.396 34.4081 38.1209 34.381 37.8555 34.4338C37.5902 34.4866 37.3464 34.6169 37.1551 34.8082C36.9638 34.9995 36.8335 35.2432 36.7808 35.5086C36.728 35.7739 36.7551 36.049 36.8586 36.299C36.9621 36.5489 37.1375 36.7625 37.3625 36.9128C37.5874 37.0631 37.8518 37.1434 38.1224 37.1434Z" fill="white"/>
<path d="M23.4656 14.6699C21.7264 14.6699 20.0262 15.1857 18.58 16.1519C17.134 17.1182 16.0068 18.4916 15.3413 20.0984C14.6756 21.7053 14.5016 23.4734 14.8408 25.1792C15.1801 26.8851 16.0177 28.4519 17.2475 29.6818C18.4773 30.9116 20.0442 31.7492 21.7501 32.0884C23.4559 32.4277 25.224 32.2536 26.8309 31.588C28.4377 30.9225 29.8111 29.7953 30.7773 28.3492C31.7436 26.9031 32.2594 25.2029 32.2594 23.4637C32.2557 21.1325 31.3281 18.8979 29.6797 17.2496C28.0314 15.6011 25.7968 14.6735 23.4656 14.6699ZM26.1135 26.1116C25.9283 26.2932 25.6792 26.395 25.4198 26.395C25.1604 26.395 24.9113 26.2932 24.726 26.1116L22.7719 24.1574C22.5919 23.9711 22.4904 23.7227 22.4886 23.4637V17.6012C22.4886 17.342 22.5915 17.0935 22.7747 16.9103C22.958 16.727 23.2065 16.624 23.4656 16.624C23.7248 16.624 23.9733 16.727 24.1565 16.9103C24.3398 17.0935 24.4427 17.342 24.4427 17.6012V23.0631L26.1135 24.7241C26.2966 24.9085 26.3993 25.158 26.3993 25.4178C26.3993 25.6777 26.2966 25.927 26.1135 26.1116Z" fill="white"/>
<path d="M23.4676 8.80859C21.4203 8.81202 19.3965 9.24427 17.5265 10.0776C15.6565 10.9109 13.9819 12.1267 12.6105 13.6467C11.2391 15.1668 10.2012 16.9572 9.56402 18.9027C8.92674 20.8483 8.70421 22.9058 8.91064 24.9426C9.11707 26.9794 9.74791 28.9504 10.7625 30.7285C11.7771 32.5067 13.1531 34.0525 14.8016 35.2664C16.4501 36.4804 18.3346 37.3355 20.3337 37.7767C22.3329 38.2179 24.4023 38.2353 26.4086 37.8279C26.4368 36.3347 26.7553 34.8612 27.3466 33.4897C25.0478 34.379 22.5132 34.4513 20.1674 33.6942C17.8217 32.9371 15.8075 31.3968 14.4623 29.3313C13.1172 27.2659 12.5228 24.8009 12.7788 22.3493C13.0348 19.8979 14.1257 17.6088 15.8686 15.8659C17.6116 14.123 19.9006 13.032 22.3521 12.7761C24.8037 12.52 27.2687 13.1144 29.3341 14.4596C31.3996 15.8047 32.9399 17.8189 33.697 20.1646C34.4541 22.5104 34.3818 25.045 33.4925 27.3438C34.864 26.7525 36.3375 26.434 37.8307 26.4058C38.2628 24.2759 38.2166 22.0767 37.6954 19.9669C37.1742 17.857 36.191 15.8892 34.8167 14.2056C33.4426 12.522 31.7116 11.1644 29.7489 10.2311C27.7863 9.29775 25.6409 8.81188 23.4676 8.80859Z" fill="white"/>
<defs>
<linearGradient id="paint0_linear_88_4637" x1="56.875" y1="-2.45" x2="-3.675" y2="57.05" gradientUnits="userSpaceOnUse">
<stop stop-color="#F18520"/>
<stop offset="1" stop-color="#D66700"/>
</linearGradient>
</defs>
</svg>
