<svg width="56" height="56" viewBox="0 0 56 56" fill="none" xmlns="http://www.w3.org/2000/svg">
<rect width="56" height="56" rx="12" fill="url(#paint0_linear_88_4631)"/>
<path fill-rule="evenodd" clip-rule="evenodd" d="M10.5452 9.45704C10.6163 9.45676 10.6857 9.46572 10.7527 9.48L16.2238 9.48014C16.7576 9.48042 17.1904 9.90511 17.1905 10.4295C17.1906 10.9536 16.7578 11.3786 16.2237 11.3787L11.5118 11.3785L11.5115 16.0286C11.5119 16.5527 11.0789 16.9778 10.5446 16.9778C10.2778 16.9776 10.0362 16.8714 9.86143 16.6998C9.68657 16.5282 9.57807 16.2906 9.57849 16.0287L9.57807 10.6332C9.56351 10.5674 9.55441 10.4996 9.55469 10.4295C9.55469 10.161 9.66858 9.92037 9.85065 9.74761C10.0266 9.56862 10.2721 9.45669 10.5452 9.45704ZM45.4574 9.45704C45.3863 9.45676 45.3169 9.46572 45.2499 9.48L39.7787 9.48014C39.245 9.48042 38.8122 9.90511 38.812 10.4295C38.8119 10.9536 39.2448 11.3786 39.7789 11.3787L44.4909 11.3785L44.4911 16.0286C44.4907 16.5527 44.9237 16.9778 45.4579 16.9778C45.7248 16.9776 45.9663 16.8714 46.1412 16.6998C46.316 16.5282 46.4245 16.2906 46.4241 16.0287L46.4245 10.6332C46.439 10.5674 46.4482 10.4996 46.4479 10.4295C46.4479 10.161 46.334 9.92037 46.152 9.74761C45.976 9.56862 45.7305 9.45669 45.4574 9.45704ZM45.2499 46.9945C45.3169 47.0089 45.3863 47.0178 45.4574 47.0176C45.7305 47.0179 45.976 46.9059 46.152 46.7269C46.334 46.5542 46.4479 46.3136 46.4479 46.0451C46.4482 45.975 46.439 45.9071 46.4245 45.8414L46.4241 40.4459C46.4245 40.184 46.316 39.9464 46.1412 39.7748C45.9663 39.6032 45.7248 39.497 45.4579 39.4968C44.9237 39.4968 44.4907 39.9219 44.4911 40.446L44.4909 45.0961L39.7789 45.0959C39.2448 45.096 38.8119 45.521 38.812 46.0451C38.8122 46.5695 39.245 46.9942 39.7787 46.9945L45.2499 46.9945ZM10.5452 47.0176C10.6163 47.0178 10.6857 47.0089 10.7527 46.9945L16.2238 46.9945C16.7576 46.9942 17.1904 46.5695 17.1905 46.0451C17.1906 45.521 16.7578 45.096 16.2237 45.0959L11.5118 45.0961L11.5115 40.446C11.5119 39.9219 11.0789 39.4968 10.5446 39.4968C10.2778 39.497 10.0362 39.6032 9.86143 39.7748C9.68657 39.9464 9.57807 40.184 9.57849 40.4459L9.57807 45.8414C9.56351 45.9071 9.55441 45.975 9.55469 46.0451C9.55469 46.3136 9.66858 46.5542 9.85065 46.7269C10.0266 46.9059 10.2721 47.0179 10.5452 47.0176ZM32.9441 19.982C32.9441 21.6341 29.387 23.4817 24.6265 23.4817C19.866 23.4817 16.309 21.6341 16.309 19.982C16.309 18.33 19.8661 16.4823 24.6265 16.4823C29.387 16.4823 32.9441 18.33 32.9441 19.982ZM24.6265 37.4813C25.3213 37.4813 25.9901 37.4416 26.6262 37.3693C26.09 36.6928 25.6465 35.942 25.3143 35.1356C25.086 35.1432 24.857 35.1484 24.6264 35.1484C21.9062 35.1484 19.3302 34.6192 17.3731 33.6584C16.9876 33.4692 16.633 33.266 16.3089 33.0508V33.9816C16.3089 35.6335 19.866 37.4813 24.6265 37.4813ZM24.6669 32.8146C24.6534 32.8147 24.64 32.8148 24.6265 32.8148C19.866 32.8148 16.3089 30.9671 16.3089 29.3151V28.3843C16.633 28.5994 16.9877 28.8027 17.3731 28.9919C19.3304 29.9527 21.9063 30.4818 24.6265 30.4818C24.6437 30.4818 24.6608 30.4814 24.6781 30.4812L24.6992 30.481C24.6504 30.863 24.625 31.2523 24.625 31.6473C24.625 32.0425 24.6505 32.4319 24.6992 32.8144L24.6669 32.8146ZM24.6265 28.1482C24.8622 28.1482 25.0948 28.1435 25.3245 28.1346C25.6934 27.2461 26.1975 26.4254 26.8122 25.6975C26.1005 25.7745 25.3692 25.8153 24.6265 25.8153C21.9063 25.8153 19.3304 25.2862 17.3731 24.3254C16.9877 24.1361 16.633 23.9329 16.3089 23.7178V24.6486C16.3089 26.3006 19.866 28.1482 24.6265 28.1482ZM27.1294 30.3284C27.3101 29.4015 27.6775 28.539 28.1917 27.78C29.2605 26.2026 30.963 25.0732 32.9396 24.745C33.3277 24.6806 33.7261 24.6465 34.1325 24.6465C38.0642 24.6465 41.2629 27.787 41.2629 31.6473C41.2629 35.5075 38.0642 38.6481 34.1325 38.6481C32.2835 38.6481 30.5968 37.9535 29.3284 36.8161C28.7182 36.2689 28.205 35.619 27.8171 34.8948C27.4475 34.2046 27.1918 33.4469 27.0747 32.6457C27.0271 32.3195 27.0019 31.9863 27.0019 31.6473C27.0019 31.1965 27.046 30.7557 27.1294 30.3284Z" fill="white"/>
<defs>
<linearGradient id="paint0_linear_88_4631" x1="56.875" y1="-2.45" x2="-3.675" y2="57.05" gradientUnits="userSpaceOnUse">
<stop stop-color="#C14E63"/>
<stop offset="1" stop-color="#822F3E"/>
</linearGradient>
</defs>
</svg>
