<svg width="56" height="56" viewBox="0 0 56 56" fill="none" xmlns="http://www.w3.org/2000/svg">
<rect width="56" height="56" rx="12" fill="url(#paint0_linear_88_4616)"/>
<path d="M23.1689 37.4766C23.0657 37.4374 22.9558 37.419 22.8455 37.4222C22.7352 37.4256 22.6267 37.4506 22.526 37.4959C22.4253 37.5412 22.3346 37.6059 22.259 37.6863C22.1834 37.7666 22.1243 37.8611 22.0853 37.9643L21.098 40.5784C21.029 40.7847 21.0428 41.0096 21.1364 41.206C21.2299 41.4023 21.3961 41.5547 21.5997 41.6311C21.8032 41.7074 22.0286 41.7019 22.2282 41.6155C22.4278 41.5291 22.5861 41.3688 22.6699 41.1681L23.6578 38.554C23.6965 38.4512 23.7147 38.3417 23.7111 38.2318C23.7075 38.122 23.6823 38.0139 23.6369 37.9139C23.5915 37.8138 23.5267 37.7236 23.4464 37.6486C23.3661 37.5735 23.2718 37.5151 23.1689 37.4766Z" fill="white"/>
<path d="M20.3593 37.0158C20.2566 36.9759 20.1471 36.9567 20.0369 36.9592C19.9268 36.9618 19.8183 36.986 19.7175 37.0306C19.6168 37.0752 19.5258 37.1392 19.45 37.219C19.374 37.2989 19.3147 37.3929 19.2752 37.4958L18.4845 39.5918C18.4453 39.6945 18.4268 39.804 18.4301 39.9138C18.4334 40.0237 18.4583 40.1319 18.5036 40.2321C18.5488 40.3322 18.6133 40.4225 18.6936 40.4976C18.7738 40.5727 18.8681 40.6313 18.9711 40.6698C19.1791 40.7467 19.409 40.7386 19.6111 40.6473C19.8133 40.5561 19.9713 40.3889 20.0513 40.1821L20.851 38.0709C20.9237 37.8657 20.9129 37.6402 20.8209 37.4428C20.7289 37.2455 20.5632 37.0922 20.3593 37.0158Z" fill="white"/>
<path d="M15.6803 28H12.8803C12.5711 28 12.3203 28.2507 12.3203 28.56V35.84C12.3203 36.1493 12.5711 36.4 12.8803 36.4H15.6803C15.9896 36.4 16.2403 36.1493 16.2403 35.84V28.56C16.2403 28.2507 15.9896 28 15.6803 28Z" fill="white"/>
<path d="M25.7892 38.4608C25.6861 38.4217 25.5762 38.4033 25.4658 38.4066C25.3554 38.41 25.2469 38.4351 25.1462 38.4804C25.0456 38.5258 24.9549 38.5905 24.8793 38.671C24.8037 38.7514 24.7447 38.8459 24.7056 38.9491L23.7178 41.5627C23.6464 41.7696 23.6586 41.9963 23.7518 42.1943C23.8451 42.3924 24.0119 42.5463 24.217 42.6232C24.4219 42.7 24.6488 42.6939 24.8493 42.6059C25.0498 42.518 25.208 42.3552 25.2903 42.1523L26.2781 39.536C26.3556 39.3286 26.3477 39.0989 26.2561 38.8973C26.1644 38.6957 25.9965 38.5388 25.7892 38.4608Z" fill="white"/>
<path d="M27.9799 27.4347C30.0403 26.4646 31.774 24.9164 32.9701 22.9785C34.1663 21.0407 34.7731 18.7969 34.7167 16.5203V14.2159C34.2304 14.1164 33.7831 13.8787 33.4287 13.531C33.0923 13.2015 32.8554 12.7839 32.7455 12.3259L23.2709 12.3203C23.145 12.7786 22.9015 13.1962 22.5647 13.5316C22.2126 13.8759 21.7707 14.1142 21.2896 14.2193L21.2767 16.5203C21.2229 18.7922 21.827 21.0311 23.0162 22.9676C24.2055 24.904 25.9293 26.4553 27.9799 27.4347ZM24.2408 19.7627C24.3458 19.6577 24.4883 19.5987 24.6367 19.5987C24.7852 19.5987 24.9277 19.6577 25.0327 19.7627L26.8767 21.6085L32.0808 16.4044C32.1865 16.3023 32.3279 16.2459 32.4747 16.2472C32.6216 16.2485 32.762 16.3074 32.8659 16.4112C32.9697 16.515 33.0286 16.6555 33.0298 16.8023C33.0311 16.9491 32.9747 17.0906 32.8727 17.1962L27.2727 22.7962C27.1677 22.9012 27.0252 22.9602 26.8767 22.9602C26.7283 22.9602 26.5858 22.9012 26.4808 22.7962L24.2408 20.5562C24.1358 20.4512 24.0769 20.3088 24.0769 20.1603C24.0769 20.0118 24.1358 19.8694 24.2408 19.7644V19.7627Z" fill="white"/>
<path d="M43.1178 26.8809H40.3178C40.0086 26.8809 39.7578 27.1316 39.7578 27.4409V34.7209C39.7578 35.0302 40.0086 35.2809 40.3178 35.2809H43.1178C43.4271 35.2809 43.6778 35.0302 43.6778 34.7209V27.4409C43.6778 27.1316 43.4271 26.8809 43.1178 26.8809Z" fill="white"/>
<path d="M28.0171 40.4918C27.8089 40.413 27.5779 40.4202 27.375 40.5117C27.172 40.6031 27.0136 40.7714 26.9347 40.9795L26.3416 42.5475C26.2713 42.7542 26.2842 42.9802 26.3777 43.1775C26.4711 43.3749 26.6377 43.528 26.8422 43.6047C27.0467 43.6813 27.2729 43.6752 27.473 43.5879C27.673 43.5005 27.8313 43.3387 27.9141 43.1367L28.5066 41.5687C28.5453 41.4658 28.5633 41.3564 28.5596 41.2466C28.556 41.1368 28.5307 41.0287 28.4852 40.9287C28.4397 40.8287 28.375 40.7386 28.2947 40.6636C28.2144 40.5887 28.12 40.5303 28.0171 40.4918Z" fill="white"/>
<path d="M28.4799 28.4531C28.3285 28.5243 28.1633 28.561 27.996 28.5606C27.8263 28.56 27.6587 28.5217 27.5055 28.4486C27.3279 28.3668 27.044 28.2246 26.6929 28.0258L23.2265 31.9105C23.0384 32.1135 22.935 32.3808 22.9375 32.6575C22.9363 32.8722 22.9974 33.0825 23.1134 33.263C23.2294 33.4435 23.3954 33.5864 23.5911 33.6744C23.7869 33.7624 24.004 33.7916 24.216 33.7585C24.4281 33.7254 24.6259 33.6314 24.7855 33.488L28.1019 30.3621C28.3546 30.1246 28.6747 29.971 29.018 29.9223C29.3614 29.8736 29.7116 29.9321 30.0204 30.0899L36.2034 33.2646C36.5447 33.4308 36.8303 33.6928 37.0253 34.0185C37.2203 34.3443 37.3163 34.7197 37.3015 35.0991L38.636 34.8242V27.3398L31.972 26.0059C30.9507 27.0083 29.7707 27.8352 28.4799 28.4531Z" fill="white"/>
<path d="M35.7095 34.2666L29.5114 31.088C29.4084 31.0351 29.2916 31.0154 29.177 31.0317C29.0623 31.0479 28.9556 31.0993 28.8713 31.1787L25.5432 34.3147C25.2232 34.6037 24.8263 34.7935 24.4005 34.8614C23.9747 34.9291 23.5384 34.8719 23.1445 34.6966C22.7506 34.5212 22.416 34.2354 22.1814 33.8737C21.9468 33.512 21.8221 33.0899 21.8226 32.6588C21.8191 32.1027 22.0268 31.5661 22.4039 31.1575L25.7392 27.4195C25.5858 27.3125 25.429 27.1999 25.2666 27.0762L17.3594 28.4695V36.0205L18.5847 36.5088C18.7828 36.2832 19.0302 36.1061 19.3076 35.9913C19.5851 35.8764 19.8852 35.8269 20.1849 35.8464C20.4845 35.8659 20.7756 35.9541 21.0358 36.1039C21.296 36.2539 21.5182 36.4616 21.6854 36.711C21.9188 36.5306 22.19 36.4054 22.4788 36.3447C22.7674 36.2842 23.0661 36.2897 23.3524 36.3611C23.6386 36.4324 23.905 36.5677 24.1315 36.7567C24.358 36.9457 24.5387 37.1835 24.6601 37.4524C24.6629 37.4591 24.664 37.4664 24.6668 37.4731C24.9015 37.3629 25.1557 37.3004 25.4147 37.2894C25.6737 37.2782 25.9323 37.3188 26.1755 37.4086C26.4187 37.4984 26.6417 37.6356 26.8314 37.8124C27.021 37.9891 27.1737 38.2018 27.2803 38.438C27.4072 38.7234 27.4631 39.0352 27.4433 39.3469C27.7794 39.2968 28.1229 39.3355 28.4394 39.4592C28.756 39.5828 29.0347 39.7871 29.248 40.0517C29.4612 40.3163 29.6015 40.6321 29.655 40.9677C29.7085 41.3033 29.6733 41.6471 29.5528 41.9649L29.3915 42.3922L31.3868 43.3666C31.4852 43.4138 31.592 43.4411 31.701 43.4469C31.8099 43.4527 31.919 43.4369 32.0219 43.4005C32.1247 43.3641 32.2193 43.3077 32.3004 43.2346C32.3814 43.1615 32.4472 43.0731 32.4939 42.9746C32.5464 42.8603 32.5738 42.7362 32.5746 42.6106C32.5759 42.4516 32.5317 42.2955 32.4472 42.1608C32.3628 42.0261 32.2417 41.9183 32.098 41.8501L30.558 41.1109C30.4319 41.0422 30.337 40.9276 30.2929 40.7909C30.2488 40.6541 30.2589 40.5057 30.3212 40.3762C30.3834 40.2468 30.4931 40.1462 30.6275 40.0953C30.7619 40.0444 30.9106 40.0472 31.043 40.1029L32.574 40.8382C32.7758 40.9326 33.0065 40.9445 33.2169 40.8713C33.4272 40.798 33.6007 40.6455 33.7002 40.4462C33.7965 40.2456 33.8093 40.015 33.7358 39.8051C33.6623 39.5951 33.5085 39.4229 33.3082 39.3262C33.3048 39.3262 33.3026 39.3217 33.2998 39.32L31.6809 38.5461C31.5559 38.4769 31.462 38.3625 31.4186 38.2263C31.3752 38.0903 31.3854 37.9426 31.4472 37.8138C31.5091 37.685 31.6178 37.5847 31.7512 37.5335C31.8846 37.4822 32.0325 37.4838 32.1647 37.5381L33.7887 38.3159H33.7921C33.9926 38.4095 34.222 38.4202 34.4303 38.3456C34.6386 38.2711 34.8091 38.1173 34.9048 37.9178C34.9565 37.8037 34.9836 37.68 34.9843 37.5549C34.9843 37.3974 34.9402 37.243 34.8571 37.1092C34.774 36.9754 34.6551 36.8676 34.5139 36.7978L34.5038 36.7927L32.9963 36.0726C32.9249 36.0442 32.8602 36.0016 32.806 35.9472C32.7518 35.8927 32.7095 35.8278 32.6815 35.7563C32.6535 35.6848 32.6404 35.6084 32.6432 35.5317C32.646 35.455 32.6645 35.3796 32.6976 35.3104C32.7308 35.2412 32.7778 35.1794 32.8357 35.1291C32.8938 35.0789 32.9615 35.041 33.0347 35.0179C33.1079 34.9949 33.185 34.9871 33.2614 34.9951C33.3377 35.0031 33.4116 35.0268 33.4784 35.0646L34.9905 35.787L35.0011 35.792C35.2009 35.8746 35.4248 35.877 35.6264 35.7987C35.8279 35.7203 35.9914 35.5672 36.083 35.3714C36.1745 35.1755 36.187 34.9519 36.1178 34.747C36.0487 34.5422 35.9033 34.3719 35.7117 34.2716L35.7095 34.2666Z" fill="white"/>
<defs>
<linearGradient id="paint0_linear_88_4616" x1="56.875" y1="-2.45" x2="-3.675" y2="57.05" gradientUnits="userSpaceOnUse">
<stop stop-color="#41C89E"/>
<stop offset="1" stop-color="#25A77E"/>
</linearGradient>
</defs>
</svg>
