<svg width="56" height="56" viewBox="0 0 56 56" fill="none" xmlns="http://www.w3.org/2000/svg">
<rect width="56" height="56" rx="12" fill="url(#paint0_linear_88_4661)"/>
<path d="M33.8993 14.5391H32.23V15.3737C32.23 16.7544 31.1069 17.8775 29.7262 17.8775H21.38C19.9994 17.8775 18.8762 16.7544 18.8762 15.3737V14.5391H17.207C15.8263 14.5391 14.7031 15.6622 14.7031 17.0429V37.0737C14.7031 38.4544 15.8263 39.6888 17.207 39.6888H33.8993C35.28 39.6888 36.4031 38.4544 36.4031 37.0737V17.0429C36.4031 15.6622 35.28 14.5391 33.8993 14.5391ZM24.474 32.6561L21.1355 35.9945C20.9725 36.1575 20.7589 36.2391 20.5454 36.2391C20.3319 36.2391 20.1183 36.1575 19.9554 35.9945L18.2861 34.3253C17.9601 33.9993 17.9601 33.4711 18.2861 33.1451C18.6121 32.8191 19.1403 32.8191 19.4663 33.1451L20.5454 34.2242L23.2938 31.4759C23.6198 31.1499 24.148 31.1499 24.474 31.4759C24.8 31.8019 24.8 32.3301 24.474 32.6561ZM24.474 26.8138L21.1355 30.1522C20.9725 30.3152 20.7589 30.3968 20.5454 30.3968C20.3319 30.3968 20.1183 30.3152 19.9554 30.1522L18.2861 28.483C17.9601 28.157 17.9601 27.6288 18.2861 27.3028C18.6121 26.9768 19.1403 26.9768 19.4663 27.3028L20.5454 28.3819L23.2938 25.6335C23.6198 25.3075 24.148 25.3075 24.474 25.6335C24.8 25.9595 24.8 26.4878 24.474 26.8138ZM24.474 20.9714L21.1355 24.3099C20.9725 24.4729 20.7589 24.5544 20.5454 24.5544C20.3319 24.5544 20.1183 24.4729 19.9554 24.3099L18.2861 22.6407C17.9601 22.3147 17.9601 21.7865 18.2861 21.4605C18.6121 21.1345 19.1403 21.1345 19.4663 21.4605L20.5454 22.5396L23.2938 19.7912C23.6198 19.4652 24.148 19.4652 24.474 19.7912C24.8 20.1172 24.8 20.6454 24.474 20.9714ZM32.23 34.5698H27.2224C26.761 34.5698 26.3877 34.1965 26.3877 33.7352C26.3877 33.2739 26.761 32.9006 27.2224 32.9006H32.23C32.6914 32.9006 33.0647 33.2739 33.0647 33.7352C33.0647 34.1965 32.6914 34.5698 32.23 34.5698ZM32.23 28.7275H27.2224C26.761 28.7275 26.3877 28.3542 26.3877 27.8929C26.3877 27.4316 26.761 27.0583 27.2224 27.0583H32.23C32.6914 27.0583 33.0647 27.4316 33.0647 27.8929C33.0647 28.3542 32.6914 28.7275 32.23 28.7275ZM32.23 22.8852H27.2224C26.761 22.8852 26.3877 22.5119 26.3877 22.0506C26.3877 21.5893 26.761 21.216 27.2224 21.216H32.23C32.6914 21.216 33.0647 21.5893 33.0647 22.0506C33.0647 22.5119 32.6914 22.8852 32.23 22.8852Z" fill="white"/>
<path d="M28.893 12.8684H27.3265L27.1293 12.3126C26.8929 11.6467 26.2604 11.1992 25.5546 11.1992C24.8487 11.1992 24.2162 11.6467 23.9799 12.3126L23.7826 12.8684H22.2161C21.2942 12.8684 20.5469 13.6158 20.5469 14.5377V15.3723C20.5469 15.8332 20.9206 16.2069 21.3815 16.2069H29.7276C30.1886 16.2069 30.5623 15.8332 30.5623 15.3723V14.5377C30.5623 13.6158 29.8149 12.8684 28.893 12.8684Z" fill="#FFA008"/>
<circle cx="36.925" cy="35.5246" r="8.925" fill="#FFD600"/>
<circle cx="36.9267" cy="35.5244" r="7.70795" fill="#FFC702"/>
<path d="M36.6221 40.5416H37.9129V39.5936C38.5984 39.4901 39.1447 39.2276 39.5517 38.8063C39.9623 38.385 40.1676 37.8601 40.1676 37.2317C40.1676 36.689 40.0194 36.2534 39.7231 35.9249C39.4303 35.5929 38.9501 35.3287 38.2824 35.1323L36.8953 34.7306C36.5275 34.6235 36.258 34.4968 36.0866 34.3504C35.9188 34.2004 35.8348 34.0183 35.8348 33.8041C35.8348 33.5184 35.967 33.281 36.2312 33.0918C36.4954 32.9025 36.8221 32.8115 37.2113 32.8186C37.6183 32.8293 37.9646 32.9525 38.2503 33.1882C38.5395 33.4203 38.7216 33.7273 38.7966 34.1094L40.1194 33.8684C39.9802 33.2721 39.7195 32.7865 39.3375 32.4116C38.959 32.0367 38.4841 31.7939 37.9129 31.6832V30.7031H36.6221V31.6564C35.983 31.7493 35.4778 31.9921 35.1065 32.3848C34.7387 32.774 34.5548 33.2685 34.5548 33.8684C34.5548 34.8502 35.0958 35.5072 36.1776 35.8393L38.036 36.4177C38.336 36.5105 38.5538 36.6283 38.6894 36.7712C38.8251 36.914 38.893 37.0961 38.893 37.3174C38.893 37.6352 38.7501 37.8994 38.4645 38.1101C38.1789 38.3207 37.8147 38.4261 37.3719 38.4261C36.9113 38.4261 36.5168 38.2975 36.1883 38.0405C35.8598 37.7834 35.6438 37.4335 35.5403 36.9907L34.2656 37.1943C34.3656 37.8334 34.6245 38.3618 35.0422 38.7795C35.4599 39.1973 35.9866 39.4633 36.6221 39.5775V40.5416Z" fill="white"/>
<defs>
<linearGradient id="paint0_linear_88_4661" x1="56.875" y1="-2.45" x2="-3.675" y2="57.05" gradientUnits="userSpaceOnUse">
<stop stop-color="#48B0D7"/>
<stop offset="1" stop-color="#005B9B"/>
</linearGradient>
</defs>
</svg>
