<svg width="56" height="56" viewBox="0 0 56 56" fill="none" xmlns="http://www.w3.org/2000/svg">
<rect width="56" height="56" rx="12" fill="url(#paint0_linear_88_4650)"/>
<mask id="mask0_88_4650" style="mask-type:luminance" maskUnits="userSpaceOnUse" x="11" y="11" width="34" height="34">
<path d="M44.8031 11.1992H11.2031V44.7992H44.8031V11.1992Z" fill="white"/>
</mask>
<g mask="url(#mask0_88_4650)">
<path d="M36.8593 43.6738C36.8593 42.0429 35.5372 40.7207 33.9062 40.7207H22.0937C20.4627 40.7207 19.1406 42.0429 19.1406 43.6738V44.7238H36.8593V43.6738Z" fill="white"/>
<path d="M42.8344 19.1399V17.1711H30.7749C30.4775 16.3371 29.8214 15.6811 28.9875 15.3837V11.1992H27.0188V15.3837C26.1848 15.6811 25.5288 16.3371 25.2313 17.1711H13.1719V19.1399H15.6331L11.2031 29.968C11.2031 32.6817 13.4112 34.8899 16.125 34.8899H18.0938C20.8075 34.8899 23.0156 32.6817 23.0156 29.968L18.5657 19.1399H25.2314C25.5288 19.9738 26.1849 20.6298 27.0188 20.9273V34.9977C25.095 35.3914 23.5732 36.9028 23.181 38.8274H32.8254C32.4332 36.9028 30.9113 35.3914 28.9875 34.9977V20.9273C29.8215 20.6298 30.4776 19.9738 30.775 19.1399H37.4206L32.9906 29.968C32.9906 32.6817 35.1987 34.8899 37.9125 34.8899H39.8813C42.595 34.8899 44.8031 32.6817 44.8031 29.968L40.3532 19.1399H42.8344ZM20.5544 28.9836H13.6643L17.1094 20.7145L20.5544 28.9836ZM42.3419 28.9836H35.4518L38.8969 20.7145L42.3419 28.9836Z" fill="white"/>
</g>
<defs>
<linearGradient id="paint0_linear_88_4650" x1="56.875" y1="-2.45" x2="-3.675" y2="57.05" gradientUnits="userSpaceOnUse">
<stop stop-color="#FF8844"/>
<stop offset="1" stop-color="#DF6621"/>
</linearGradient>
</defs>
</svg>
