<svg width="68" height="68" viewBox="0 0 68 68" fill="none" xmlns="http://www.w3.org/2000/svg">
<rect x="1" y="1" width="66" height="66" rx="13" fill="url(#paint0_linear_52_14811)"/>
<rect x="1" y="1" width="66" height="66" rx="13" stroke="#1F2A37" stroke-width="2"/>
<path d="M14.7998 38.0508V52.0758C14.7998 52.6971 15.3035 53.2008 15.9248 53.2008H52.0748C52.6961 53.2008 53.1998 52.6971 53.1998 52.0758V38.0508H14.7998ZM48.6998 47.5758C48.6998 48.1971 48.1961 48.7008 47.5748 48.7008H20.4248C19.8035 48.7008 19.2998 48.1971 19.2998 47.5758V41.4257C19.2998 40.8045 19.8035 40.3008 20.4248 40.3008H47.5748C48.1961 40.3008 48.6998 40.8045 48.6998 41.4257V47.5758Z" fill="white"/>
<path d="M21.5498 42.5508H46.4498V46.4508H21.5498V42.5508Z" fill="white"/>
<path d="M35.4404 25.0836C35.4897 24.7904 35.5098 24.0918 34.6982 23.75V26.1591C35.1201 25.9174 35.3721 25.4901 35.4404 25.0836Z" fill="white"/>
<path d="M33.198 19.8926C32.969 20.0681 32.843 20.3338 32.7995 20.5643C32.7396 20.8822 32.8154 21.1775 32.9929 21.3166C33.0554 21.3655 33.1242 21.4137 33.198 21.4611V19.8926Z" fill="white"/>
<path d="M34 31.3008C38.5563 31.3008 42.25 27.6071 42.25 23.0508C42.25 18.4945 38.5563 14.8008 34 14.8008C29.4437 14.8008 25.75 18.4945 25.75 23.0508C25.75 27.6071 29.4437 31.3008 34 31.3008ZM31.1621 26.116C31.3889 25.7694 31.8538 25.6722 32.2003 25.8989C32.6054 26.1639 32.8594 26.279 33.1982 26.3266V23.1591C32.7191 22.9396 32.3611 22.7283 32.0674 22.4978C31.445 22.0097 31.1608 21.1627 31.3258 20.2874C31.5054 19.3336 32.1694 18.5747 33.0584 18.3069C33.1054 18.2927 33.1521 18.2797 33.1982 18.2674V17.8008C33.1982 17.3866 33.534 17.0508 33.9482 17.0508C34.3624 17.0508 34.6982 17.3866 34.6982 17.8008V18.1853C35.4263 18.3113 35.9411 18.6698 36.1904 18.956C36.4625 19.2683 36.4298 19.7421 36.1174 20.0141C35.8068 20.2847 35.3365 20.254 35.0637 19.9462C35.0466 19.9289 34.9274 19.8141 34.6982 19.7297V22.1531C34.8314 22.2025 34.9644 22.2505 35.095 22.2966C36.4134 22.7627 37.1466 23.9831 36.9197 25.3335C36.7432 26.3831 35.9445 27.4476 34.6982 27.7637V28.3008C34.6982 28.7149 34.3624 29.0508 33.9482 29.0508C33.534 29.0508 33.1982 28.7149 33.1982 28.3008V27.8357C32.5927 27.7833 32.0907 27.6197 31.3792 27.1542C31.0325 26.9274 30.9353 26.4626 31.1621 26.116Z" fill="white"/>
<path d="M50.1423 27.5701C49.9891 27.1107 49.5593 26.8008 49.0751 26.8008H43.8072C43.1227 28.5849 41.9651 30.1367 40.4882 31.3008H43.7501C44.3714 31.3008 44.8751 31.8045 44.8751 32.4257C44.8751 33.0471 44.3714 33.5508 43.7501 33.5508H24.2501C23.6287 33.5508 23.1251 33.0471 23.1251 32.4257C23.1251 31.8045 23.6287 31.3008 24.2501 31.3008H27.5119C26.035 30.1367 24.8775 28.5849 24.1929 26.8008H18.9251C18.4408 26.8008 18.011 27.1107 17.8578 27.5701L15.1143 35.8008H52.8859L50.1423 27.5701Z" fill="white"/>
<defs>
<linearGradient id="paint0_linear_52_14811" x1="67" y1="-0.799998" x2="-2.2" y2="67.2" gradientUnits="userSpaceOnUse">
<stop stop-color="#1C9D72"/>
<stop offset="1" stop-color="#0A8B60"/>
</linearGradient>
</defs>
</svg>
