<svg width="68" height="68" viewBox="0 0 68 68" fill="none" xmlns="http://www.w3.org/2000/svg">
<rect x="1" y="1" width="66" height="66" rx="13" fill="url(#paint0_linear_195_7264)"/>
<rect x="1" y="1" width="66" height="66" rx="13" stroke="#FFFFFF" stroke-width="2"/>
<path fill-rule="evenodd" clip-rule="evenodd" d="M26.8414 18.2327V37.9034L20.1811 31.2433C19.2518 30.727 17.1144 30.4688 15.9992 31.7079C14.884 32.947 14.6052 33.7215 14.915 35.4252L25.912 47.8162C26.2499 48.2217 26.5465 48.6507 26.8558 49.0982C27.2556 49.6764 27.6766 50.2854 28.2354 50.914C29.2266 52.0291 29.7842 52.4629 30.7135 52.7727H42.7948C43.7241 52.6178 44.6646 52.2868 45.7377 51.8433C47.2114 51.2342 48.3464 50.2889 48.5256 50.1395L46.2023 47.3515L43.2594 49.8298L38.303 44.4087L39.3873 43.3245L36.2895 39.2974L37.5286 38.2132L34.2759 34.341L39.5421 29.5395L41.4007 31.3982L44.0338 28.9199L45.8925 30.4688L46.8218 29.6944C46.5638 29.4878 45.8616 28.9819 45.1181 28.6102C44.1399 28.121 43.5691 27.9907 42.7948 27.8357H33.6564V18.2327C33.6334 18.1839 33.6097 18.1324 33.5849 18.0786L33.5844 18.0775C33.163 17.1639 32.4416 15.5996 30.2489 15.5996C28.0562 15.5996 27.3351 17.1632 26.9138 18.0768L26.9133 18.0778C26.8883 18.1318 26.8645 18.1837 26.8414 18.2327ZM41.5557 36.9741L44.1504 39.9074L41.3122 42.4181L38.7174 39.4847L41.5557 36.9741ZM42.0918 34.8127L39.3942 31.8676L36.4931 34.5248L39.1906 37.4699L42.0918 34.8127ZM44.075 31.1002L46.1033 33.2318L43.8936 35.3343L41.8654 33.2028L44.075 31.1002ZM49.5502 32.253L48.2529 30.8282L46.822 32.1311L48.1193 33.5559L49.5502 32.253ZM46.083 35.5495L48.1245 37.725L46.0121 39.7073L43.9706 37.5319L46.083 35.5495ZM51.3872 36.5337L50.0959 35.1572L48.6806 36.485L49.9718 37.8615L51.3872 36.5337ZM43.6799 42.0967L46.2437 44.8721L43.4402 47.4619L40.8763 44.6866L43.6799 42.0967ZM49.9701 42.3386L48.0533 40.2374L45.8766 42.2232L47.7934 44.3243L49.9701 42.3386ZM51.9222 39.4846L53.2522 40.8313L51.869 42.1972L50.5391 40.8505L51.9222 39.4846ZM51.8992 46.8969L49.9314 44.813L47.9149 46.7171L49.8827 48.8011L51.8992 46.8969Z" fill="white"/>
<defs>
<linearGradient id="paint0_linear_195_7264" x1="67" y1="-0.800001" x2="-2.2" y2="67.2" gradientUnits="userSpaceOnUse">
<stop stop-color="#02B3B3"/>
<stop offset="1" stop-color="#007397"/>
</linearGradient>
</defs>
</svg>
