<svg width="68" height="68" viewBox="0 0 68 68" fill="none" xmlns="http://www.w3.org/2000/svg">
<path d="M54 1C61.1797 1 67 6.8203 67 14V54C67 61.1797 61.1797 67 54 67H14C6.8203 67 1 61.1797 1 54V14C1 6.8203 6.8203 1 14 1H54Z" fill="url(#paint0_linear_53_2510)"/>
<path d="M54 1C61.1797 1 67 6.8203 67 14V54C67 61.1797 61.1797 67 54 67H14C6.8203 67 1 61.1797 1 54V14C1 6.8203 6.8203 1 14 1H54Z" stroke="#1F2A37" stroke-width="2"/>
<path opacity="0.8" d="M30.0039 18.9629C30.3445 18.9629 30.6755 19.0783 30.9414 19.291L34.1758 21.8789H53.4707C54.5751 21.8791 55.4707 22.7744 55.4707 23.8789V46.7041C55.4707 47.5324 54.799 48.2039 53.9707 48.2041H16.1904C15.0859 48.2041 14.1904 47.3087 14.1904 46.2041V20.4629C14.1904 19.6345 14.862 18.9629 15.6904 18.9629H30.0039Z" fill="#99CCEF"/>
<path d="M29.5053 19.9297H15.6904C14.862 19.9297 14.1904 20.6013 14.1904 21.4297V44.169C14.1904 44.9974 14.862 45.669 15.6904 45.669H50.5709C51.3993 45.669 52.0709 44.9974 52.0709 44.169V26.7614C52.0709 25.933 51.3993 25.2614 50.5709 25.2614H36.5712C36.2002 25.2614 35.8423 25.1239 35.5667 24.8754L30.5098 20.3157C30.2343 20.0672 29.8764 19.9297 29.5053 19.9297Z" fill="#CCE6F7"/>
<path d="M14.1904 46.7006V26.3406C14.1904 26.0644 14.4143 25.8406 14.6904 25.8406H29.4776C29.6017 25.8406 29.7214 25.7945 29.8133 25.7112L32.5482 23.234C32.8241 22.9841 33.183 22.8457 33.5552 22.8457H52.9991C53.8276 22.8457 54.4991 23.5173 54.4991 24.3457V46.7006C54.4991 47.529 53.8276 48.2006 52.9991 48.2006H15.6904C14.862 48.2006 14.1904 47.529 14.1904 46.7006Z" fill="#E6F2FB"/>
<path d="M34.4014 28.9258C35.6527 28.9258 36.8381 29.2093 37.8936 29.7129C38.0594 29.7894 38.2248 29.8738 38.3906 29.9668L37.6562 30.6064L36.5547 29.4971L34.6934 31.1123L33.5889 29.9385L30.123 32.9785L32.3447 35.3623L31.4717 36.1104L33.6602 38.4971L32.792 39.2432L35.9189 42.6309L37.7754 40.9678L39.3809 42.75C39.0616 42.9916 38.7132 43.2186 38.3301 43.4287C37.1696 44.0728 35.8286 44.4424 34.4014 44.4424C30.0117 44.4424 26.4318 40.9569 26.4316 36.6846C26.4316 32.4112 30.0116 28.9258 34.4014 28.9258ZM41.5479 40.7881L40.126 42.0332L38.8467 40.6504L40.2676 39.4043L41.5479 40.7881ZM37.8984 39.5654L36.0039 41.2266L34.2969 39.3818L36.1924 37.7207L37.8984 39.5654ZM40.2979 37.9932L38.876 39.2393L37.5957 37.8555L39.0176 36.6094L40.2979 37.9932ZM36.5508 36.3779L34.6553 38.0381L32.9482 36.1943L34.8438 34.5322L36.5508 36.3779ZM42.4316 37.0771L41.4834 37.9082L40.6309 36.9854L41.5781 36.1553L42.4316 37.0771ZM39.082 35.0693L37.6611 36.3154L36.3809 34.9316L37.8018 33.6855L39.082 35.0693ZM41.2197 34.3369L40.2725 35.167L39.4189 34.2451L40.3662 33.4141L41.2197 34.3369ZM35.1943 33.2275L33.2988 34.8887L31.5928 33.043L33.4883 31.3828L35.1943 33.2275ZM37.7715 32.2871L36.3506 33.5332L35.0703 32.1494L36.4922 30.9043L37.7715 32.2871ZM40.0088 31.5967L39.0615 32.4268L38.208 31.5039L39.1553 30.6738L40.0088 31.5967Z" fill="#0068A3"/>
<defs>
<linearGradient id="paint0_linear_53_2510" x1="67" y1="-0.800001" x2="-2.2" y2="67.2" gradientUnits="userSpaceOnUse">
<stop stop-color="#1460A8"/>
<stop offset="1" stop-color="#014484"/>
</linearGradient>
</defs>
</svg>
