<svg width="68" height="68" viewBox="0 0 68 68" fill="none" xmlns="http://www.w3.org/2000/svg">
<rect x="1" y="1" width="66" height="66" rx="13" fill="url(#paint0_linear_52_14863)"/>
<rect x="1" y="1" width="66" height="66" rx="13" stroke="#1F2A37" stroke-width="2"/>
<mask id="mask0_52_14863" style="mask-type:luminance" maskUnits="userSpaceOnUse" x="14" y="14" width="40" height="40">
<path d="M53.1998 14.8008H14.7998V53.2008H53.1998V14.8008Z" fill="white"/>
</mask>
<g mask="url(#mask0_52_14863)">
<path d="M39.0227 27.9474C51.5159 27.9474 50.5929 27.9448 50.7853 27.9522C50.6723 27.5207 50.4477 27.1125 50.1101 26.7749L46.6849 23.3497C45.9447 22.6095 44.8084 22.3943 43.8569 22.8145C43.3461 23.0403 42.7373 22.9264 42.3422 22.5312C41.947 22.1361 41.8332 21.5274 42.0588 21.0165C42.479 20.0653 42.264 18.9288 41.5236 18.1885L38.0985 14.7633C37.0832 13.7482 35.4314 13.7481 34.4161 14.7633L30.1309 19.0486C31.3385 20.2572 37.8182 26.742 39.0227 27.9474Z" fill="white"/>
<path d="M28.5339 20.6465L21.2324 27.948H35.8285C35.8021 27.9215 35.2435 27.3623 28.5339 20.6465Z" fill="white"/>
<path d="M51.5786 40.0329C52.5483 39.6574 53.1998 38.7017 53.1998 37.6548V32.8109C53.1998 31.3751 52.0317 30.207 50.596 30.207H45.2939V52.4016H50.596C52.0317 52.4016 53.1998 51.2334 53.1998 49.7978V44.9538C53.1998 43.907 52.5483 42.9513 51.5787 42.5758C51.0578 42.374 50.7078 41.863 50.7078 41.3042C50.7078 40.7455 51.0578 40.2346 51.5786 40.0329Z" fill="white"/>
<path d="M14.7998 32.8109V37.6548C14.7998 38.7017 15.4513 39.6574 16.4209 40.0328C16.9419 40.2346 17.2917 40.7455 17.2917 41.3042C17.2917 41.863 16.9418 42.374 16.4209 42.5758C15.4512 42.9513 14.7998 43.907 14.7998 44.9538V49.7978C14.7998 51.2334 15.9679 52.4016 17.4036 52.4016H43.0351V30.207H17.4036C15.9679 30.207 14.7998 31.3751 14.7998 32.8109ZM22.7057 35.4604H39.6468V37.7192H22.7057V35.4604ZM22.7057 39.978H39.6468V42.2369H22.7057V39.978ZM22.7057 44.4957H39.6468V46.7545H22.7057V44.4957Z" fill="white"/>
</g>
<defs>
<linearGradient id="paint0_linear_52_14863" x1="67" y1="-0.799998" x2="-2.2" y2="67.2" gradientUnits="userSpaceOnUse">
<stop stop-color="#DB5F39"/>
<stop offset="1" stop-color="#CD441A"/>
</linearGradient>
</defs>
</svg>
