<svg width="68" height="68" viewBox="0 0 68 68" fill="none" xmlns="http://www.w3.org/2000/svg">
<rect x="1" y="1" width="66" height="66" rx="13" fill="url(#paint0_linear_52_14798)"/>
<rect x="1" y="1" width="66" height="66" rx="13" stroke="#1F2A37" stroke-width="2"/>
<mask id="mask0_52_14798" style="mask-type:luminance" maskUnits="userSpaceOnUse" x="15" y="14" width="38" height="39">
<path d="M52.5674 14.9219H15.4316V52.0577H52.5674V14.9219Z" fill="white"/>
</mask>
<g mask="url(#mask0_52_14798)">
<path d="M52.3687 28.795C52.2305 28.6465 52.0311 28.5699 51.8282 28.5699H49.6006C48.7011 24.8475 46.5977 21.4741 43.627 19.0138C40.4429 16.3771 36.4094 14.9241 32.2683 14.9219C32.2001 14.9219 32.1313 14.9365 32.0732 14.9722C31.9165 15.0688 31.8603 15.2537 31.9196 15.4118L33.9081 20.7187C33.9611 20.8604 34.0964 20.9542 34.2477 20.9542C38.95 20.9542 43.0703 24.1114 44.3405 28.5699H42.4278C42.2248 28.5699 42.0256 28.6465 41.8873 28.795C41.6265 29.075 41.6279 29.4854 41.8563 29.7594L46.5708 35.4169C46.7086 35.5823 46.9128 35.6779 47.128 35.6779C47.3433 35.6779 47.5474 35.5823 47.6853 35.4169L52.3998 29.7594C52.6281 29.4854 52.6293 29.075 52.3687 28.795Z" fill="#AECAFF"/>
<path d="M31.8964 31.9665C36.3028 31.9665 39.8748 28.3945 39.8748 23.9881C39.8748 19.5818 36.3028 16.0098 31.8964 16.0098C27.49 16.0098 23.918 19.5818 23.918 23.9881C23.918 28.3945 27.49 31.9665 31.8964 31.9665Z" fill="#FFEE78"/>
<path d="M39.8748 23.9881C39.8748 19.5818 36.3028 16.0098 31.8965 16.0098V31.9665C36.3028 31.9665 39.8748 28.3945 39.8748 23.9881Z" fill="#FCD232"/>
<path d="M31.8964 33.0547C26.8972 33.0547 22.8301 28.9874 22.8301 23.9882C22.8301 18.989 26.8972 14.9219 31.8964 14.9219C36.8956 14.9219 40.9628 18.989 40.9628 23.9882C40.9628 28.9874 36.8956 33.0547 31.8964 33.0547ZM31.8964 17.0978C28.097 17.0978 25.006 20.1889 25.006 23.9882C25.006 27.7876 28.097 30.8787 31.8964 30.8787C35.6958 30.8787 38.7869 27.7876 38.7869 23.9882C38.7869 20.1889 35.6958 17.0978 31.8964 17.0978Z" fill="#FCD232"/>
<path d="M38.7869 23.9882C38.7869 27.7876 35.6959 30.8787 31.8965 30.8787V33.0547C36.8957 33.0547 40.9628 28.9874 40.9628 23.9882C40.9628 18.989 36.8957 14.9219 31.8965 14.9219V17.0978C35.6959 17.0978 38.7869 20.1889 38.7869 23.9882Z" fill="#F7B90F"/>
<path d="M34.7976 25.8013C34.7976 24.2015 33.4961 22.9001 31.8964 22.9001C31.4964 22.9001 31.171 22.5747 31.171 22.1747C31.171 21.7748 31.4964 21.4495 31.8964 21.4495C32.2398 21.4495 32.5387 21.693 32.6068 22.0286C32.7264 22.6174 33.3011 22.9978 33.8897 22.8783C34.4785 22.7587 34.8589 22.1844 34.7394 21.5955C34.542 20.6239 33.8635 19.8449 32.9843 19.4869V19.2735C32.9843 18.6727 32.4972 18.1855 31.8964 18.1855C31.2955 18.1855 30.8084 18.6727 30.8084 19.2735V19.4859C29.7464 19.9173 28.9951 20.9597 28.9951 22.1747C28.9951 23.7745 30.2966 25.076 31.8964 25.076C32.2963 25.076 32.6217 25.4013 32.6217 25.8013C32.6217 26.2012 32.2963 26.5266 31.8964 26.5266C31.5528 26.5266 31.254 26.283 31.1858 25.9474C31.0663 25.3586 30.4921 24.9783 29.903 25.0977C29.3142 25.2173 28.9338 25.7917 29.0533 26.3805C29.2507 27.3522 29.9292 28.1312 30.8083 28.4892V28.7025C30.8083 29.3034 31.2955 29.7905 31.8963 29.7905C32.4971 29.7905 32.9843 29.3034 32.9843 28.7025V28.4901C34.0464 28.0588 34.7976 27.0164 34.7976 25.8013Z" fill="#FCD232"/>
<path d="M31.8965 22.9004V25.0763C32.2964 25.0763 32.6218 25.4017 32.6218 25.8016C32.6218 26.2015 32.2964 26.5269 31.8965 26.5269V29.7908C32.4973 29.7908 32.9844 29.3037 32.9844 28.7028V28.4904C34.0465 28.0591 34.7977 27.0167 34.7977 25.8016C34.7977 24.2019 33.4962 22.9004 31.8965 22.9004Z" fill="#F7B90F"/>
<path d="M32.607 22.0286C32.7265 22.6174 33.3012 22.9978 33.8898 22.8783C34.4786 22.7587 34.859 22.1844 34.7395 21.5955C34.5421 20.6239 33.8637 19.8449 32.9844 19.4869V19.2735C32.9844 18.6727 32.4973 18.1855 31.8965 18.1855V21.4495C32.24 21.4495 32.5388 21.693 32.607 22.0286Z" fill="#F7B90F"/>
<path d="M52.1085 40.3757C51.3044 39.2273 49.7215 38.9481 48.573 39.7523L40.791 45.2014C40.486 45.4149 40.123 45.5293 39.7509 45.5293H34V50.6065H40.2082C41.3246 50.6065 42.4139 50.263 43.3284 49.6227L51.4851 43.9112C52.6336 43.1071 52.9128 41.5241 52.1085 40.3757Z" fill="#FABE8C"/>
<path d="M40.791 45.2018C40.486 45.4153 40.123 45.5297 39.7509 45.5297L34 45.0838V47.7056H39.875C42.4745 47.7056 44.5895 45.5907 44.5895 42.9911C44.5895 42.8446 44.5818 42.6998 44.5687 42.5566L40.791 45.2018Z" fill="#E6A578"/>
<path d="M52.1078 40.3769C51.3037 39.2284 49.7208 38.9493 48.5723 39.7535L42.0274 44.3363C42.2714 43.9463 42.4129 43.4858 42.4129 42.9919C42.4129 41.5899 41.2764 40.4533 39.8743 40.4533H33.7092L32.9996 39.921C31.5863 38.8611 29.8351 38.2773 28.0685 38.2773C26.5792 38.2773 25.1171 38.6823 23.8401 39.4485C23.8401 39.4485 22.6302 40.1745 21.907 40.6084C21.5794 40.805 21.3789 41.1591 21.3789 41.5413V49.5196C21.3789 50.1205 21.8661 50.6076 22.4669 50.6076H40.2075C41.3239 50.6076 42.4132 50.2641 43.3277 49.6238L51.4844 43.9123C52.633 43.1082 52.9121 41.5253 52.1078 40.3769Z" fill="#FFD2AA"/>
<path d="M34 50.6065H40.2082C41.3246 50.6065 42.4139 50.263 43.3284 49.6227L51.4851 43.9112C52.6336 43.1071 52.9126 41.5241 52.1085 40.3757C51.3043 39.2273 49.7214 38.9481 48.573 39.7523L42.028 44.3352C42.272 43.9452 42.4136 43.4846 42.4136 42.9907C42.4136 41.5887 41.277 40.4521 39.875 40.4521H34V50.6065Z" fill="#FABE8C"/>
<path d="M44.5683 42.5566L42.0277 44.3356C42.0119 44.3607 41.9962 44.386 41.9796 44.4105C41.5235 45.0857 40.7508 45.5297 39.8746 45.5297H32.2589C31.658 45.5297 31.1709 46.0168 31.1709 46.6177C31.1709 47.2185 31.658 47.7056 32.2589 47.7056H39.8746C42.4742 47.7056 44.5891 45.5907 44.5891 42.9911C44.5891 42.8446 44.5814 42.6998 44.5683 42.5566Z" fill="#FABE8C"/>
<path d="M22.4671 52.0569H16.5196C15.9188 52.0569 15.4316 51.5698 15.4316 50.969V38.6387C15.4316 38.0379 15.9188 37.5508 16.5196 37.5508H22.4671C23.0679 37.5508 23.5551 38.0379 23.5551 38.6387V50.969C23.5551 51.5698 23.0679 52.0569 22.4671 52.0569Z" fill="#6496F7"/>
<path d="M44.5687 42.5566L42.028 44.3356C42.0123 44.3607 41.9966 44.386 41.98 44.4105C41.5239 45.0857 40.7512 45.5297 39.875 45.5297H34V47.7056H39.875C42.4745 47.7056 44.5895 45.5907 44.5895 42.9911C44.5895 42.8446 44.5818 42.6998 44.5687 42.5566Z" fill="#E6A578"/>
</g>
<defs>
<linearGradient id="paint0_linear_52_14798" x1="66" y1="-5.2" x2="2" y2="69.4" gradientUnits="userSpaceOnUse">
<stop offset="0.0001" stop-color="#D26B75"/>
<stop offset="1" stop-color="#B83F4B"/>
</linearGradient>
</defs>
</svg>
