<svg width="68" height="68" viewBox="0 0 68 68" fill="none" xmlns="http://www.w3.org/2000/svg">
<g clip-path="url(#clip0_52_14850)">
<rect x="2" y="2" width="64" height="64" rx="12" fill="url(#paint0_radial_52_14850)"/>
<mask id="mask0_52_14850" style="mask-type:luminance" maskUnits="userSpaceOnUse" x="2" y="2" width="64" height="64">
<path d="M66 2H2V66H66V2Z" fill="white"/>
</mask>
<g mask="url(#mask0_52_14850)">
<path fill-rule="evenodd" clip-rule="evenodd" d="M16.6434 28.8343C20.2785 26.7356 22.5834 23.9227 21.7918 22.5515L20.5972 20.4824L7.43359 28.0824L8.62816 30.1515C9.41985 31.5227 13.0084 30.933 16.6434 28.8343Z" fill="#FFAC00"/>
<path d="M21.5175 23.6758C21.5228 23.6849 21.5838 23.8079 21.4629 24.1573C21.3461 24.4952 21.0919 24.9362 20.6712 25.4497C19.8341 26.4712 18.4393 27.6559 16.5824 28.7279C14.7256 29.8 13.0021 30.4157 11.6989 30.6298C11.0439 30.7374 10.5349 30.737 10.1838 30.6693C9.82079 30.5993 9.74481 30.4849 9.73957 30.4758L8.44727 28.2375L20.2252 21.4375L21.5175 23.6758Z" fill="#FFAC00" stroke="#FFE595" stroke-width="2"/>
<path d="M19.8246 20.7445C19.8477 20.7845 19.9032 20.9289 19.7748 21.2836C19.6482 21.6336 19.3764 22.0815 18.9376 22.5972C18.065 23.6228 16.6492 24.7805 14.8895 25.7965C13.1297 26.8125 11.4192 27.4598 10.0946 27.7027C9.42865 27.8248 8.90482 27.8363 8.53842 27.7709C8.16704 27.7048 8.06974 27.5845 8.04662 27.5445C8.0235 27.5044 7.96797 27.36 8.09632 27.0053C8.22296 26.6553 8.49485 26.2074 8.93357 25.6917C9.80618 24.6661 11.222 23.5083 12.9817 22.4923C14.7415 21.4763 16.452 20.829 17.7766 20.5862C18.4425 20.4641 18.9664 20.4525 19.3328 20.5179C19.7041 20.5841 19.8015 20.7044 19.8246 20.7445Z" fill="#FFAC00" stroke="#FFE595" stroke-width="2"/>
<path fill-rule="evenodd" clip-rule="evenodd" d="M16.9202 18.4339C20.5553 20.5326 24.1438 21.1223 24.9355 19.7511L26.1301 17.682L12.9665 10.082L11.7719 12.1511C10.9802 13.5223 13.2852 16.3352 16.9202 18.4339Z" fill="#FFAC00"/>
<path d="M23.8243 20.0754C23.8191 20.0845 23.7431 20.1989 23.3801 20.2689C23.029 20.3366 22.52 20.337 21.865 20.2294C20.5618 20.0153 18.8383 19.3996 16.9815 18.3275C15.1247 17.2555 13.7298 16.0708 12.8927 15.0493C12.4719 14.5358 12.2179 14.0948 12.101 13.7569C11.9801 13.4075 12.0411 13.2845 12.0464 13.2754L13.3387 11.0371L25.1167 17.8371L23.8243 20.0754Z" fill="#FFAC00" stroke="#FFE595" stroke-width="2"/>
<path d="M25.5169 17.1441C25.4938 17.1841 25.3965 17.3044 25.0252 17.3706C24.6588 17.4359 24.1349 17.4244 23.469 17.3023C22.1444 17.0594 20.4339 16.4122 18.6741 15.3962C16.9144 14.3802 15.4986 13.2224 14.626 12.1968C14.1872 11.6811 13.9153 11.2332 13.7887 10.8832C13.6604 10.5285 13.7159 10.3841 13.739 10.3441C13.7621 10.304 13.8594 10.1837 14.2308 10.1175C14.5972 10.0522 15.1211 10.0637 15.787 10.1858C17.1116 10.4286 18.8221 11.0759 20.5818 12.0919C22.3416 13.1079 23.7574 14.2657 24.63 15.2914C25.0688 15.807 25.3406 16.2549 25.4672 16.6049C25.5956 16.9596 25.5401 17.104 25.5169 17.1441Z" fill="#FFAC00" stroke="#FFE595" stroke-width="2"/>
<path fill-rule="evenodd" clip-rule="evenodd" d="M48.6897 18.5189C46.591 22.1539 46.0013 25.7425 47.3725 26.5342L49.4416 27.7287L57.0416 14.5651L54.9725 13.3706C53.6013 12.5789 50.7884 14.8838 48.6897 18.5189Z" fill="#FFAC00"/>
<path d="M47.0489 25.423C47.0398 25.4177 46.9254 25.3418 46.8554 24.9787C46.7877 24.6276 46.7873 24.1187 46.8949 23.4636C47.1091 22.1604 47.7248 20.437 48.7968 18.5802C49.8689 16.7233 51.0536 15.3284 52.0751 14.4914C52.5885 14.0706 53.0296 13.8165 53.3674 13.6996C53.7169 13.5787 53.8398 13.6398 53.8489 13.6451L56.0873 14.9373L49.2873 26.7153L47.0489 25.423Z" fill="#FFAC00" stroke="#FFE595" stroke-width="2"/>
<path d="M49.9798 27.1166C49.9397 27.0934 49.8194 26.9961 49.7532 26.6248C49.6879 26.2584 49.6994 25.7345 49.8215 25.0686C50.0644 23.7441 50.7117 22.0335 51.7277 20.2737C52.7437 18.514 53.9014 17.0982 54.927 16.2256C55.4427 15.7869 55.8906 15.5149 56.2406 15.3883C56.5953 15.26 56.7397 15.3155 56.7798 15.3386C56.8198 15.3617 56.9401 15.459 57.0063 15.8305C57.0716 16.1969 57.0601 16.7207 56.938 17.3866C56.6951 18.7112 56.0478 20.4217 55.0318 22.1814C54.0158 23.9412 52.8582 25.357 51.8325 26.2297C51.3168 26.6684 50.8689 26.9402 50.519 27.0669C50.1642 27.1953 50.0198 27.1397 49.9798 27.1166Z" fill="#FFAC00" stroke="#FFE595" stroke-width="2"/>
<path d="M37.6019 29.9207L40.8576 22.7988L40.0491 29.8732C39.9837 30.4453 40.2308 31.0084 40.6961 31.3477L42.2018 32.4456C42.9558 32.9955 43.0813 34.0712 42.474 34.7797L39.029 38.7988L39.7955 35.0731C39.8893 34.6168 39.7797 34.1423 39.4951 33.7734L37.7901 31.5632C37.4275 31.0931 37.355 30.4608 37.6019 29.9207Z" fill="white" stroke="white" stroke-linejoin="round"/>
<path d="M34.4017 21.9207L35.8288 18.7988L35.4616 22.0121C35.406 22.4983 35.616 22.977 36.0115 23.2654C36.6523 23.7327 36.759 24.647 36.2428 25.2492L34.9146 26.7988L35.2239 25.2953C35.3177 24.839 35.208 24.3645 34.9235 23.9956L34.5899 23.5632C34.2273 23.0931 34.1548 22.4608 34.4017 21.9207Z" fill="white" stroke="white" stroke-linejoin="round"/>
<path d="M21.2002 42.1718C21.2002 44.0347 26.9309 45.5447 34.0002 45.5447C41.0695 45.5447 46.8002 44.0347 46.8002 42.1718C46.8002 40.309 41.0695 38.7988 34.0002 38.7988C26.9309 38.7988 21.2002 40.309 21.2002 42.1718Z" fill="#355996"/>
<path d="M21.2002 42.1718C21.2002 44.0347 26.9309 45.5447 34.0002 45.5447C41.0695 45.5447 46.8002 44.0347 46.8002 42.1718M21.2002 42.1718C21.2002 40.309 26.9309 38.7988 34.0002 38.7988C41.0695 38.7988 46.8002 40.309 46.8002 42.1718M21.2002 42.1718V43.8583V45.1414C21.2002 49.6361 23.3396 53.8624 26.9618 56.5235C27.1882 56.6898 27.322 56.9539 27.322 57.2348V57.623C27.322 58.1553 27.5948 58.6446 28.0961 58.8238C29.0197 59.1539 30.8492 59.5988 34.0002 59.5988C37.1512 59.5988 38.9807 59.1539 39.9043 58.8238C40.4056 58.6446 40.6784 58.1553 40.6784 57.623V57.2348C40.6784 56.9539 40.8122 56.6898 41.0386 56.5235C44.6608 53.8624 46.8002 49.6361 46.8002 45.1414V42.1718" stroke="white" stroke-width="3"/>
<path d="M34.0002 45.5448C26.9309 45.5448 21.2002 44.0348 21.2002 42.1719V43.8584V45.1415C21.2002 49.6362 23.3396 53.8625 26.9618 56.5236C27.1882 56.6899 27.322 56.954 27.322 57.2349V57.6231C27.322 58.1554 27.5948 58.6447 28.0961 58.8239C29.0197 59.154 30.8492 59.5989 34.0002 59.5989C37.1512 59.5989 38.9807 59.154 39.9043 58.8239C40.4056 58.6447 40.6784 58.1554 40.6784 57.6231V57.2349C40.6784 56.954 40.8122 56.6899 41.0386 56.5236C44.6608 53.8625 46.8002 49.6362 46.8002 45.1415V42.1719C46.8002 44.0348 41.0695 45.5448 34.0002 45.5448Z" fill="#355996" stroke="white" stroke-width="3"/>
<path d="M17.3049 43.5996H18.984C20.2082 43.5996 21.2006 44.592 21.2006 45.8162C21.2006 45.9382 21.2107 46.0602 21.2307 46.1806L21.4355 47.409C21.5454 48.0684 21.7067 48.7182 21.9182 49.3524L22.3755 50.7246C22.3923 50.7746 22.4124 50.8232 22.4359 50.8703C22.874 51.7464 22.0482 52.7202 21.1123 52.4312L19.0291 51.7878C16.9546 50.9336 15.6006 48.9118 15.6006 46.6682V45.3039C15.6006 44.3627 16.3636 43.5996 17.3049 43.5996Z" fill="#3A66AA" stroke="white" stroke-width="3"/>
</g>
</g>
<rect x="1" y="1" width="66" height="66" rx="13" stroke="#1F2A37" stroke-width="2"/>
<defs>
<radialGradient id="paint0_radial_52_14850" cx="0" cy="0" r="1" gradientUnits="userSpaceOnUse" gradientTransform="translate(34 2) rotate(90) scale(64)">
<stop stop-color="#212546"/>
<stop offset="1" stop-color="#3E73BE"/>
</radialGradient>
<clipPath id="clip0_52_14850">
<rect x="2" y="2" width="64" height="64" rx="12" fill="white"/>
</clipPath>
</defs>
</svg>
