<svg width="68" height="68" viewBox="0 0 68 68" fill="none" xmlns="http://www.w3.org/2000/svg">
<rect x="1" y="1" width="66" height="66" rx="13" fill="url(#paint0_linear_52_14876)"/>
<rect x="1" y="1" width="66" height="66" rx="13" stroke="#1F2A37" stroke-width="2"/>
<path fill-rule="evenodd" clip-rule="evenodd" d="M17.2 20.4004C15.4327 20.4004 14 21.8331 14 23.6004V45.2004C14 46.9677 15.4327 48.4004 17.2 48.4004H51.6C53.3673 48.4004 54.8 46.9677 54.8 45.2004V23.6004C54.8 21.8331 53.3673 20.4004 51.6 20.4004H17.2ZM36.92 31.8804V26.0004H42.7999V31.8804H36.92ZM38.6 30.2004H41.12V27.6804H38.6V30.2004ZM29.36 33.5604H26V35.2404H29.36V33.5604ZM31.04 33.5604H33.56V35.2404H31.04V33.5604ZM33.56 31.8804V33.5604H35.24V35.2404H36.08V36.9204H34.4V39.4404H31.88V36.9204H26V42.8004H31.88V41.1204H34.4V42.8004H37.76V41.1204H39.44V42.8004H41.96V41.1204H41.12V39.4404H42.8V37.7604H41.12V33.5604H35.24V31.8804H33.56ZM33.56 29.3604H31.88V26.0004H26V31.8804H31.88H33.56V29.3604ZM36.08 39.4404V36.9204H37.76V35.2404H39.44V37.7604H41.12V39.4404H39.44H37.76H36.08ZM36.08 39.4404V41.1204H34.4V39.4404H36.08ZM33.56 26.0004V29.3604H35.24V26.0004H33.56ZM27.68 30.2004H30.2V27.6804H27.68V30.2004ZM27.68 41.1204H30.2V38.6004H27.68V41.1204Z" fill="white"/>
<defs>
<linearGradient id="paint0_linear_52_14876" x1="67" y1="-0.800001" x2="-2.2" y2="67.2" gradientUnits="userSpaceOnUse">
<stop stop-color="#005BB6"/>
<stop offset="1" stop-color="#004D99"/>
</linearGradient>
</defs>
</svg>
