<svg width="68" height="68" viewBox="0 0 68 68" fill="none" xmlns="http://www.w3.org/2000/svg">
<rect x="1" y="1" width="66" height="66" rx="13" fill="url(#paint0_linear_52_14837)"/>
<rect x="1" y="1" width="66" height="66" rx="13" stroke="#1F2A37" stroke-width="2"/>
<path d="M28.7863 52.7844C26.6988 52.0951 25.5652 49.8442 26.2545 47.7566L33.4674 25.9113C34.1567 23.8238 36.4076 22.6902 38.4952 23.3795L28.7863 52.7844Z" fill="#2896FF"/>
<path d="M47.6782 57.2076L29.1272 51.0513C27.8644 50.6343 27.1787 49.2727 27.5957 48.01C28.0127 46.7473 29.3743 46.0616 30.637 46.4786L30.8448 46.5472L55.1384 31.4297L54.5827 36.269L49.1879 52.635L47.6782 57.2076Z" fill="white"/>
<path d="M41.9805 24.5273L55.8882 29.1209L49.062 49.7882L35.1543 45.1946L41.9805 24.5273Z" fill="#82CD64"/>
<path d="M49.4091 48.7855L39.0946 45.3799C37.8818 44.9795 37.2232 43.6716 37.6237 42.4589L43.39 24.9949L38.4959 23.3789L30.8457 46.5483L48.2504 52.295L49.4091 48.7855Z" fill="#84CD62"/>
<path d="M48.2502 52.2939L47.6787 57.2078L54.5833 36.269L55.1392 31.4297L48.2502 52.2939Z" fill="#FAF58C"/>
<path d="M18.2256 22.109L38.1005 19.7148L41.018 43.9335L21.1431 46.3276L18.2256 22.109Z" fill="#971D24"/>
<path d="M21.1544 46.3354C18.9718 46.5985 16.9892 45.0426 16.7261 42.86L13.9724 20.0201C13.7093 17.8375 15.2652 15.8549 17.4478 15.5918L21.1544 46.3354Z" fill="#D62F39"/>
<path d="M40.1363 42.3135L20.7274 44.6237C19.4073 44.7828 18.208 43.8417 18.0488 42.5215C17.8896 41.2012 18.8308 40.002 20.151 39.8428L20.3683 39.8167L35.9354 15.8086L37.4887 20.4254L39.5598 37.5328L40.1363 42.3135Z" fill="white"/>
<path d="M21.0908 15.1521L35.6323 13.4004L38.2355 35.0096L23.6939 36.7613L21.0908 15.1521Z" fill="#E85110"/>
<path d="M38.1235 33.9525L27.3394 35.2528C26.0714 35.4057 24.9194 34.5017 24.7666 33.2337L22.5653 14.9746L17.4482 15.5915L20.3688 39.8157L38.5658 37.6218L38.1235 33.9525Z" fill="#E85110"/>
<path d="M38.5655 37.6228L40.1363 42.3136L37.4888 20.4254L35.9355 15.8086L38.5655 37.6228Z" fill="#FAF58C"/>
<defs>
<linearGradient id="paint0_linear_52_14837" x1="66" y1="-5.2" x2="2" y2="69.4" gradientUnits="userSpaceOnUse">
<stop stop-color="#4E9CF5"/>
<stop offset="1" stop-color="#1565C0"/>
</linearGradient>
</defs>
</svg>
