<svg width="68" height="68" viewBox="0 0 68 68" fill="none" xmlns="http://www.w3.org/2000/svg">
<rect x="1" y="1" width="66" height="66" rx="13" fill="url(#paint0_linear_52_14824)"/>
<rect x="1" y="1" width="66" height="66" rx="13" stroke="#1F2A37" stroke-width="2"/>
<path fill-rule="evenodd" clip-rule="evenodd" d="M27.9983 26.1566C28.9424 24.5557 30.4695 23.3382 32.2856 22.7979C31.3978 21.3606 29.8082 20.4004 27.9983 20.4004C26.1882 20.4004 24.5988 21.3606 23.711 22.7979C25.5271 23.3382 27.0542 24.5558 27.9983 26.1566ZM21.5967 24.8815C24.3737 24.8815 26.633 27.1408 26.633 29.9178C26.633 32.6948 24.3737 34.9541 21.5967 34.9541C18.8198 34.9541 16.5606 32.6947 16.5606 29.9178C16.5606 27.1409 18.8198 24.8815 21.5967 24.8815ZM47.203 24.8815C49.9799 24.8815 52.2392 27.1408 52.2392 29.9178C52.2392 32.6948 49.9799 34.9541 47.203 34.9541C44.426 34.9541 42.1668 32.6947 42.1668 29.9178C42.1668 27.1409 44.426 24.8815 47.203 24.8815ZM40.8014 26.1566C39.8572 24.5557 38.3302 23.3382 36.5141 22.7979C37.4019 21.3606 38.9914 20.4005 40.8014 20.4004C42.6114 20.4004 44.2009 21.3606 45.0887 22.7979C43.2726 23.3382 41.7455 24.5557 40.8014 26.1566ZM39.4362 29.9178C39.4362 27.1408 37.1769 24.8815 34.3999 24.8815C31.623 24.8815 29.3637 27.1408 29.3637 29.9178C29.3637 32.6948 31.6229 34.9541 34.3998 34.9541C37.1768 34.9541 39.4362 32.6948 39.4362 29.9178ZM14 47.202V42.5509C14 38.362 17.4078 34.9541 21.5967 34.9541C23.3978 34.9541 25.0543 35.5845 26.3578 36.6357C25.1358 38.2926 24.4125 40.3388 24.4125 42.5509V47.202C24.4125 47.621 24.4854 48.0232 24.6181 48.3973H15.1953C14.5352 48.3973 14 47.8621 14 47.202ZM47.203 34.9541C45.4018 34.9541 43.7457 35.5845 42.4422 36.6357C43.6642 38.2926 44.3876 40.3388 44.3876 42.5509V47.202C44.3876 47.621 44.3147 48.0232 44.182 48.3973H53.6047C54.2649 48.3973 54.8001 47.8621 54.8001 47.202V42.5509C54.8001 38.362 51.3919 34.9541 47.203 34.9541ZM26.8031 42.5509C26.8031 38.3621 30.211 34.9541 34.3998 34.9541C38.5887 34.9541 41.9968 38.362 41.9969 42.5509V47.202C41.9969 47.8621 41.4618 48.3973 40.8016 48.3973H27.9984C27.3383 48.3973 26.8031 47.8621 26.8031 47.202V42.5509Z" fill="white"/>
<defs>
<linearGradient id="paint0_linear_52_14824" x1="67" y1="-0.800001" x2="-2.2" y2="67.2" gradientUnits="userSpaceOnUse">
<stop stop-color="#9F4771"/>
<stop offset="1" stop-color="#843058"/>
</linearGradient>
</defs>
</svg>
