<svg width="48" height="48" viewBox="0 0 48 48" fill="none" xmlns="http://www.w3.org/2000/svg">
<g clip-path="url(#clip0_88_6659)">
<rect width="48" height="48" fill="#F3F4F6"/>
<path d="M36.9502 36.9131H11.0557L20.9795 29.1943H27.0273L36.9502 36.9131ZM19.3486 28.3672L9.94531 35.6816V21.0537L19.3486 28.3672ZM38.0615 35.6816L28.6582 28.3672L38.0615 21.0537V35.6816ZM31.9971 12.3799C32.4537 12.3799 32.8242 12.7504 32.8242 13.207V23.0322L27.0273 27.541H20.9795L15.1826 23.0322V13.207C15.1826 12.7503 15.5531 12.3799 16.0098 12.3799H31.9971ZM26.8652 15.0098C25.4169 14.2469 23.7591 14.1007 22.1982 14.5977C20.719 15.0686 19.4886 16.0832 18.7334 17.4551C17.9779 18.8277 17.779 20.4107 18.1738 21.9121C18.5157 23.2121 19.2536 24.3344 20.3086 25.1562C21.3241 25.9475 22.5896 26.4021 23.8711 26.4375C23.8789 26.4377 23.8868 26.4385 23.8945 26.4385C24.3405 26.4384 24.7083 26.0825 24.7207 25.6338C24.7333 25.1774 24.3733 24.7969 23.917 24.7842C21.9731 24.7304 20.2692 23.3762 19.7734 21.4912C19.1767 19.2214 20.4621 16.8853 22.7002 16.1729C23.8356 15.8115 25.0416 15.918 26.0947 16.4727C27.1441 17.0254 27.912 17.9542 28.2578 19.0879C28.4731 19.9057 28.3999 20.6705 28.0137 21.6416C27.9185 21.881 27.6243 22.4375 26.957 22.4375C26.8834 22.4373 26.8177 22.3824 26.7852 22.3496C26.6912 22.2551 26.6351 22.1145 26.6357 21.9736L26.6592 17.3789C26.6613 16.9223 26.2926 16.5501 25.8359 16.5479H25.832C25.4286 16.5479 25.0919 16.8375 25.0195 17.2207C24.6466 17.0247 24.2316 16.9209 23.7949 16.9209C23.0006 16.9209 22.2223 17.278 21.6602 17.9004C21.0903 18.5315 20.7764 19.3904 20.7764 20.3184C20.7764 21.2422 21.0717 22.1105 21.6074 22.7627C22.1631 23.439 22.9401 23.8271 23.7393 23.8271C24.3511 23.8271 24.9135 23.6084 25.377 23.2314C25.4474 23.3327 25.526 23.4288 25.6133 23.5166C25.9822 23.8872 26.4594 24.0917 26.957 24.0918C28.3293 24.0918 29.1962 23.1417 29.5498 22.2529C30.0729 20.9378 30.1659 19.826 29.8516 18.6484C29.8493 18.64 29.8473 18.6314 29.8447 18.623C29.3718 17.056 28.3136 15.7727 26.8652 15.0098ZM23.7949 18.5742C24.4778 18.5743 24.9615 19.241 24.9912 20.207L24.9902 20.415C24.951 21.3942 24.4048 22.1728 23.7393 22.1729C23.1072 22.1729 22.4308 21.4278 22.4307 20.3184C22.4307 19.227 23.1242 18.5742 23.7949 18.5742ZM13.5283 21.7461L10.752 19.5859L13.5283 17.249V21.7461ZM37.2549 19.5859L34.4775 21.7461V17.249L37.2549 19.5859ZM23.4707 8.88086C23.7784 8.62192 24.2284 8.62192 24.5361 8.88086L26.7285 10.7266H21.2783L23.4707 8.88086Z" fill="#9DA4AE"/>
</g>
<defs>
<clipPath id="clip0_88_6659">
<rect width="48" height="48" rx="12" fill="white"/>
</clipPath>
</defs>
</svg>
