<svg width="48" height="48" viewBox="0 0 48 48" fill="none" xmlns="http://www.w3.org/2000/svg">
<rect width="48" height="48" rx="12" fill="url(#paint0_linear_88_7004)"/>
<path d="M19.8891 16.2488C20.4749 15.7765 21.295 15.7765 21.8808 16.3669L25.5126 20.3815C25.9812 20.9719 25.9812 21.7984 25.3954 22.2707L21.4122 25.813C20.8264 26.2853 20.0062 26.2854 19.4205 25.695L15.7887 21.6803C15.3201 21.0899 15.3201 20.2635 15.9058 19.7911L19.8891 16.2488ZM25.9812 16.8392C25.5126 16.3669 25.6297 15.6584 26.0983 15.1861L28.2071 13.2969C28.6757 12.8246 29.3787 12.9427 29.8473 13.415L31.7218 15.5403C32.1904 16.0127 32.0732 16.7211 31.6046 17.1935L29.4958 19.0827C29.0272 19.555 28.3243 19.4369 27.8557 18.9646L25.9812 16.8392ZM37.228 15.5403C36.8766 15.8946 36.1737 15.8946 35.8222 15.4223L34.5335 14.0054C34.182 13.6511 34.182 12.9427 34.6506 12.5884L36.0565 11.2896C36.408 10.9354 37.1109 10.9354 37.4623 11.4077L38.751 12.8246C39.1025 13.1788 39.1025 13.8873 38.6339 14.2415C38.6339 14.3596 37.228 15.5403 37.228 15.5403ZM34.7678 20.1454L37.1109 22.8611C37.4623 23.2153 37.3452 23.8057 36.9937 24.0418L22.818 36.6761L22.1151 37.2665C20.592 38.6834 18.249 38.5653 16.8431 37.0303L11.6883 31.2445L9.8138 29.1192C9.46232 28.765 9.57944 28.1745 9.93092 27.9384L12.274 25.813C12.6255 25.4588 13.2112 25.4588 13.4456 25.813L19.3033 31.953C19.6548 32.3072 20.1234 32.3072 20.592 31.953L33.5962 20.0273C33.8305 19.7911 34.4163 19.7911 34.7678 20.1454Z" fill="white"/>
<defs>
<linearGradient id="paint0_linear_88_7004" x1="48.75" y1="-2.1" x2="-3.15" y2="48.9" gradientUnits="userSpaceOnUse">
<stop stop-color="#036CB5"/>
<stop offset="1" stop-color="#00528B"/>
</linearGradient>
</defs>
</svg>
