<svg width="48" height="48" viewBox="0 0 48 48" fill="none" xmlns="http://www.w3.org/2000/svg">
<g clip-path="url(#clip0_88_6753)">
<path d="M0 0H48V48H0V0Z" fill="#F3F4F6"/>
<path d="M10 21.5916V17.4866H13.6332V12.3555H18.0033V17.4866H21.7051V21.5916H18.0033V35.0011H13.6332V21.5916H10Z" fill="#9DA4AE"/>
<path d="M26.3926 24.5677H35.3728C34.2246 20.0522 27.4209 20.0693 26.3926 24.5677ZM38.3205 32.2131C32.6136 38.3705 21.7997 35.0011 21.7997 26.261C21.7997 21.1982 25.8099 17.1446 30.8827 17.1446C35.9555 17.1446 40 21.1982 40 26.261C40 26.9109 39.9314 27.5609 39.8458 28.2108H26.3755C27.4209 32.1447 32.8193 32.4184 35.3728 29.6133L38.3205 32.2131Z" fill="#9DA4AE"/>
</g>
<defs>
<clipPath id="clip0_88_6753">
<rect width="48" height="48" rx="12" fill="white"/>
</clipPath>
</defs>
</svg>
