<svg width="48" height="48" viewBox="0 0 48 48" fill="none" xmlns="http://www.w3.org/2000/svg">
<g clip-path="url(#clip0_88_7011)">
<rect width="48" height="48" rx="12" fill="url(#paint0_linear_88_7011)"/>
<mask id="mask0_88_7011" style="mask-type:luminance" maskUnits="userSpaceOnUse" x="5" y="-2" width="35" height="35">
<path d="M39.5984 -1.7998H5.39844V32.4002H39.5984V-1.7998Z" fill="white"/>
</mask>
<g mask="url(#mask0_88_7011)">
<path d="M8.69334 23.1006H6.4281C5.85945 23.1006 5.39844 23.5616 5.39844 24.1302C5.39844 24.6989 5.85945 25.1598 6.4281 25.1598H8.69334C9.26196 25.1598 9.723 24.6989 9.723 24.1302C9.723 23.5616 9.26196 23.1006 8.69334 23.1006Z" fill="#99CCEF"/>
<path d="M16.3816 23.1006H12.5375C11.9689 23.1006 11.5078 23.5616 11.5078 24.1302C11.5078 24.6989 11.9689 25.1598 12.5375 25.1598H16.3816C16.9502 25.1598 17.4112 24.6989 17.4112 24.1302C17.4112 23.5616 16.9502 23.1006 16.3816 23.1006Z" fill="#99CCEF"/>
<path d="M24.069 23.1006H20.225C19.6564 23.1006 19.1953 23.5616 19.1953 24.1302C19.1953 24.6989 19.6564 25.1598 20.225 25.1598H24.069C24.6376 25.1598 25.0987 24.6989 25.0987 24.1302C25.0987 23.5616 24.6376 23.1006 24.069 23.1006Z" fill="#99CCEF"/>
<path d="M31.7565 23.1006H27.9125C27.3437 23.1006 26.8828 23.5616 26.8828 24.1302C26.8828 24.6989 27.3437 25.1598 27.9125 25.1598H31.7565C32.3251 25.1598 32.7862 24.6989 32.7862 24.1302C32.7862 23.5616 32.3251 23.1006 31.7565 23.1006Z" fill="#66B3E8"/>
<path d="M37.8652 23.1006H35.6C35.0312 23.1006 34.5703 23.5616 34.5703 24.1302C34.5703 24.6989 35.0312 25.1598 35.6 25.1598H37.8652C38.4338 25.1598 38.8948 24.6989 38.8948 24.1302C38.8948 23.5616 38.4338 23.1006 37.8652 23.1006Z" fill="#99CCEF"/>
<path d="M39.5823 16.7263C39.5254 16.1464 39.3028 15.5836 38.9388 15.0986C38.7303 14.8211 38.4794 14.5731 38.1933 14.362C37.4306 13.7989 36.4474 13.5053 35.4257 13.5362C35.4233 13.5362 35.4205 13.5363 35.4182 13.5367L35.1906 13.5498C34.6329 13.5925 34.0722 13.739 33.5685 13.9735C33.5664 13.9744 33.5644 13.9754 33.5617 13.9767C33.3873 14.0637 33.3319 14.0938 33.3108 14.1061C31.7353 14.9585 30.5691 15.3052 29.7818 15.4354C30.1263 14.7157 30.7843 13.6921 32.0416 12.4165C32.0594 12.3995 32.1035 12.3544 32.236 12.2111C32.2374 12.2094 32.2393 12.2077 32.2405 12.2057C32.6059 11.7875 32.9029 11.2894 33.1012 10.761L33.1753 10.5509C33.1766 10.5485 33.1772 10.5462 33.1777 10.5438C33.6132 9.19675 33.4117 7.73173 32.652 6.72025C32.3973 6.38131 32.085 6.10009 31.7238 5.88511C31.1005 5.51497 30.3538 5.36754 29.6209 5.47044C28.9451 5.56489 28.2849 5.85996 27.7125 6.3234C27.3832 6.59016 27.0894 6.90853 26.8412 7.26577C26.5066 7.78147 26.3473 8.14782 26.26 8.40048C25.7755 9.7767 25.9526 11.2987 26.7325 12.3366C26.865 12.5129 27.0152 12.6768 27.1794 12.8233C27.2708 12.9053 27.3667 12.982 27.466 13.0518L26.3365 15.6716L17.7523 17.1856C17.7213 17.1901 17.6901 17.1946 17.6588 17.1989C17.4651 17.2271 17.2641 17.256 17.0613 17.3333C16.3107 17.6189 15.8799 18.2977 15.6511 18.8164C15.54 19.0686 15.4677 19.2806 15.4246 19.4829L15.3109 20.002C15.2923 20.0861 15.316 20.1727 15.3736 20.2364C15.4315 20.2997 15.5162 20.3308 15.6011 20.3203L24.9514 19.1465L23.5786 22.4527H26.8994L28.6933 18.6658L31.4254 18.3234C31.5345 18.6427 31.6932 18.9418 31.8988 19.2154C32.6428 20.2059 33.9654 20.8074 35.351 20.7855C36.9426 20.7602 38.3896 19.9665 39.127 18.7145C39.4864 18.1042 39.6479 17.3983 39.5823 16.7263ZM28.7157 11.3299C28.608 11.2568 28.5123 11.1654 28.4317 11.0581C28.0905 10.6042 28.0677 9.9495 28.1596 9.4884C28.2883 8.84532 28.6436 8.26753 29.1339 7.90405C29.5872 7.56799 30.102 7.47283 30.511 7.64977C30.5114 7.64977 30.5119 7.64989 30.5125 7.65007C30.6876 7.72585 30.8373 7.845 30.957 8.00364C31.2152 8.34786 31.3306 8.89465 31.2577 9.43093C31.1611 10.1405 30.7773 10.7974 30.2307 11.1883C29.844 11.4645 29.2158 11.6672 28.7157 11.3299ZM37.4646 17.1517C37.4394 17.392 37.3317 17.6335 37.1539 17.8499C36.765 18.3234 36.1046 18.6251 35.3869 18.6566C34.8045 18.6822 34.0321 18.5093 33.6106 17.9484C33.5955 17.9282 33.5812 17.9078 33.5673 17.887C33.2905 17.4744 33.3327 16.9287 33.6743 16.496C34.0098 16.0706 34.5667 15.776 35.2023 15.6875L35.2756 15.6781C35.8715 15.6124 36.6827 15.7388 37.1748 16.2919C37.1977 16.3174 37.2191 16.3442 37.2397 16.3714C37.4135 16.6029 37.4934 16.88 37.4646 17.1517Z" fill="white"/>
</g>
<mask id="mask1_88_7011" style="mask-type:alpha" maskUnits="userSpaceOnUse" x="-5" y="26" width="49" height="24">
<path d="M43.7969 26.1455H-4.20312V49.7763H43.7969V26.1455Z" fill="#D9D9D9"/>
</mask>
<g mask="url(#mask1_88_7011)">
<path fill-rule="evenodd" clip-rule="evenodd" d="M18.181 38.1193C19.1215 39.4914 20.9962 39.8413 22.3684 38.9008C23.7404 37.9603 24.0904 36.0855 23.1498 34.7134L20.8792 31.4008C20.5657 30.9435 20.6823 30.3186 21.1397 30.0051C21.5971 29.6916 22.222 29.8082 22.5355 30.2656L24.8061 33.5781C26.3736 35.865 25.7905 38.9896 23.5037 40.5571C21.2168 42.1246 18.0922 41.5415 16.5247 39.2547L14.2541 35.9421C13.9406 35.4847 14.0572 34.8598 14.5146 34.5463C14.9719 34.2328 15.5969 34.3494 15.9104 34.8068L18.181 38.1193Z" fill="white"/>
<path fill-rule="evenodd" clip-rule="evenodd" d="M11.372 28.1815C10.4315 26.8094 10.7814 24.9346 12.1535 23.9941C13.5256 23.0536 15.4004 23.4035 16.3409 24.7756L18.6115 28.0882C18.925 28.5455 19.5499 28.6621 20.0073 28.3486C20.4647 28.0351 20.5813 27.4102 20.2678 26.9528L17.9972 23.6403C16.4296 21.3535 13.3051 20.7703 11.0182 22.3378C8.73138 23.9054 8.14824 27.0299 9.7158 29.3168L11.9864 32.6294C12.2999 33.0868 12.9248 33.2033 13.3822 32.8898C13.8395 32.5763 13.9562 31.9514 13.6427 31.4941L11.372 28.1815Z" fill="white"/>
<path fill-rule="evenodd" clip-rule="evenodd" d="M20.6702 36.4164C20.2128 36.7299 19.5879 36.6133 19.2744 36.1559L13.5978 27.8745C13.2843 27.4171 13.401 26.7922 13.8583 26.4787C14.3157 26.1652 14.9406 26.2818 15.2541 26.7392L20.9306 35.0206C21.2441 35.478 21.1275 36.1029 20.6702 36.4164Z" fill="white"/>
</g>
</g>
<defs>
<linearGradient id="paint0_linear_88_7011" x1="48" y1="-5.4" x2="-2.5021e-06" y2="50.55" gradientUnits="userSpaceOnUse">
<stop stop-color="#0080D8"/>
<stop offset="1" stop-color="#00497C"/>
</linearGradient>
<clipPath id="clip0_88_7011">
<rect width="48" height="48" rx="12" fill="white"/>
</clipPath>
</defs>
</svg>
