<svg width="48" height="48" viewBox="0 0 48 48" fill="none" xmlns="http://www.w3.org/2000/svg">
<g clip-path="url(#clip0_88_6734)">
<rect width="48" height="48" fill="#F3F4F6"/>
<path d="M23.6982 5.40039C30.4911 5.40055 35.9979 10.9073 35.998 17.7002C35.998 24.4932 30.4912 29.9998 23.6982 30C16.9051 30 11.3975 24.4933 11.3975 17.7002C11.3976 10.9072 16.9052 5.40039 23.6982 5.40039ZM18.5117 14.0068C17.6785 14.0068 17.0029 14.6824 17.0029 15.5156V20.5127C17.003 21.3459 17.6785 22.0215 18.5117 22.0215H26.5371C27.3703 22.0215 28.0458 21.3459 28.0459 20.5127V19.2793L29.6689 20.2715C30.004 20.476 30.4336 20.2344 30.4336 19.8418V16.3457C30.4333 15.9533 30.0039 15.7125 29.6689 15.917L28.0459 16.9082V15.5156C28.0459 14.6824 27.3704 14.0068 26.5371 14.0068H18.5117Z" fill="#9DA4AE"/>
<path d="M35.0967 30C38.5759 30.0002 41.3964 32.8206 41.3965 36.2998C41.3965 39.7791 38.5759 42.5995 35.0967 42.5996C31.6173 42.5996 28.7959 39.7792 28.7959 36.2998C28.796 32.8205 31.6174 30 35.0967 30ZM36.3877 34.9785C35.5495 34.7917 34.68 34.7917 33.8418 34.9785C32.9337 35.1722 32.084 35.5764 31.3604 36.1582C31.2963 36.2117 31.244 36.2777 31.207 36.3525C31.17 36.4274 31.1491 36.5093 31.1455 36.5928C31.1419 36.6761 31.1552 36.7592 31.1855 36.8369C31.216 36.9147 31.2629 36.9861 31.3223 37.0449L31.958 37.6807C32.0595 37.7873 32.1971 37.8531 32.3438 37.8652C32.4903 37.8773 32.6364 37.8354 32.7539 37.7471C32.9844 37.5703 33.2339 37.4195 33.498 37.2988C33.6025 37.2515 33.6915 37.1753 33.7539 37.0791C33.8163 36.9829 33.8499 36.8706 33.8506 36.7559V36.2168C34.6836 35.9877 35.5635 35.9877 36.3965 36.2168V36.7559C36.3971 36.8706 36.4308 36.9829 36.4932 37.0791C36.5555 37.1751 36.6438 37.2515 36.748 37.2988C37.0123 37.4195 37.2626 37.5703 37.4932 37.7471C37.6094 37.8344 37.7535 37.8761 37.8984 37.8652C38.0436 37.8543 38.1803 37.7914 38.2822 37.6875L38.918 37.0508C38.9768 36.9918 39.0236 36.9214 39.0537 36.8438C39.0838 36.7661 39.0966 36.6828 39.0928 36.5996C39.089 36.5164 39.0682 36.4349 39.0312 36.3604C38.9942 36.2857 38.9419 36.2194 38.8779 36.166C38.1527 35.58 37.2995 35.1734 36.3877 34.9785Z" fill="#9DA4AE"/>
<path d="M12.5967 30C16.076 30 18.8964 32.8205 18.8965 36.2998C18.8965 39.7792 16.0761 42.5996 12.5967 42.5996C9.11738 42.5995 6.29688 39.7791 6.29688 36.2998C6.29698 32.8206 9.11744 30.0001 12.5967 30ZM10.2363 33.6338C10.153 33.6339 10.0703 33.6509 9.99414 33.6846C9.91806 33.7182 9.85005 33.7677 9.79395 33.8291C9.73784 33.8906 9.69456 33.9631 9.66797 34.042C9.64138 34.1209 9.63118 34.2051 9.63867 34.2881C9.73717 35.2153 10.0536 36.1061 10.5605 36.8887C11.0211 37.6135 11.6355 38.2279 12.3604 38.6885C13.1395 39.1937 14.0261 39.5091 14.9492 39.6094C15.0324 39.6169 15.1162 39.6078 15.1953 39.5811C15.2745 39.5543 15.3476 39.5106 15.4092 39.4541C15.4705 39.3978 15.5193 39.3292 15.5527 39.2529C15.5862 39.1764 15.6039 39.0933 15.6035 39.0098V38.1094C15.6071 37.9624 15.556 37.8192 15.4609 37.707C15.3658 37.5948 15.2326 37.5215 15.0869 37.501C14.799 37.463 14.5162 37.3925 14.2441 37.291C14.1369 37.2507 14.0203 37.2418 13.9082 37.2656C13.7961 37.2895 13.6929 37.3452 13.6113 37.4258L13.2305 37.8066C12.4794 37.3796 11.8568 36.7579 11.4297 36.0068L11.8115 35.626C11.8921 35.5444 11.9478 35.4412 11.9717 35.3291C11.9956 35.217 11.9865 35.1004 11.9463 34.9932C11.8447 34.721 11.7743 34.4374 11.7363 34.1494C11.7159 34.0055 11.6434 33.8741 11.5332 33.7793C11.4228 33.6844 11.2813 33.6324 11.1357 33.6338H10.2363Z" fill="#9DA4AE"/>
</g>
<defs>
<clipPath id="clip0_88_6734">
<rect width="48" height="48" rx="12" fill="white"/>
</clipPath>
</defs>
</svg>
