<svg width="48" height="48" viewBox="0 0 48 48" fill="none" xmlns="http://www.w3.org/2000/svg">
<g clip-path="url(#clip0_88_6752)">
<rect width="48" height="48" fill="#F3F4F6"/>
<path d="M34.485 32.511C36.1955 32.6041 37.723 31.4178 37.9657 29.7521L39.8995 16.484C40.1554 14.7282 38.8868 13.1048 37.066 12.8581L30.7344 12L34.485 32.511Z" fill="#9DA4AE"/>
<path fill-rule="evenodd" clip-rule="evenodd" d="M13.2304 38.3175C13.4715 38.4 13.7306 38.4212 13.9826 38.3791C14.241 38.3281 14.4806 38.212 14.6771 38.0423L21.666 32.1882L30.811 35.3137C31.0567 35.3998 31.3216 35.4223 31.579 35.3785C31.8364 35.3347 32.0773 35.2263 32.2776 35.0643C32.4767 34.9032 32.6285 34.6948 32.7182 34.4595C32.8078 34.2244 32.8321 33.9706 32.7885 33.7235L28.9951 12.9784C28.8599 12.127 28.3821 11.3613 27.6654 10.8473C26.9487 10.3332 26.0508 10.1122 25.1663 10.2321L11.0879 12.6258C10.2142 12.8049 9.44888 13.3087 8.95774 14.0281C8.46661 14.7475 8.28928 15.6246 8.46417 16.4693L12.2576 37.2144C12.3038 37.4649 12.4183 37.6991 12.5892 37.8928C12.7602 38.0867 12.9815 38.2332 13.2304 38.3175ZM15.6645 23.028L15.6538 23.0187C15.2195 22.6294 14.5401 22.6518 14.1344 23.0695C13.7277 23.488 13.75 24.1453 14.1841 24.5375L14.9205 23.7796C14.1841 24.5375 14.1844 24.5379 14.1848 24.5381L14.1855 24.5387L14.187 24.5401L14.1909 24.5436L14.2014 24.5528L14.2333 24.5806C14.2594 24.6029 14.2952 24.633 14.3402 24.6694C14.4301 24.7422 14.5576 24.8409 14.7194 24.9551C15.042 25.183 15.5071 25.477 16.0893 25.7512C17.2493 26.2974 18.9264 26.7879 20.875 26.4566C22.8235 26.1253 24.2254 25.1112 25.1217 24.2154C25.5716 23.7657 25.9044 23.3361 26.1267 23.0156C26.2382 22.8548 26.3229 22.7201 26.3817 22.622C26.4111 22.5729 26.434 22.533 26.4506 22.5033L26.4708 22.4667L26.4774 22.4545L26.4797 22.4501L26.4812 22.4474C26.4813 22.447 26.4815 22.4466 25.5207 21.9772L26.4815 22.4466C26.7504 21.9349 26.5382 21.31 26.0075 21.0507C25.4781 20.792 24.8318 20.9953 24.5617 21.5043L24.555 21.5163C24.5478 21.5294 24.5348 21.552 24.5161 21.5832C24.4788 21.6456 24.4189 21.7413 24.3362 21.8606C24.1699 22.1001 23.9156 22.4291 23.5714 22.7731C22.8793 23.4648 21.8649 24.179 20.5009 24.4109C19.1368 24.6428 17.9302 24.3063 17.0346 23.8845C16.5891 23.6748 16.2335 23.4496 15.9923 23.2793C15.8722 23.1945 15.7819 23.1243 15.7247 23.078C15.6961 23.0549 15.6759 23.0378 15.6645 23.028ZM25.5207 21.9772L24.5599 21.5077L24.5603 21.5071C24.5601 21.5074 24.5599 21.5077 25.5207 21.9772ZM14.9205 23.7796L15.6538 23.0187L15.6548 23.0197L15.6558 23.0205L15.6563 23.021C15.6566 23.0213 15.6569 23.0215 14.9205 23.7796Z" fill="#9DA4AE"/>
</g>
<defs>
<clipPath id="clip0_88_6752">
<rect width="48" height="48" rx="12" fill="white"/>
</clipPath>
</defs>
</svg>
