<svg width="48" height="48" viewBox="0 0 48 48" fill="none" xmlns="http://www.w3.org/2000/svg">
<g clip-path="url(#clip0_88_6751)">
<rect width="48" height="48" fill="#F3F4F6"/>
<path d="M19.8891 15.969C20.4749 15.5005 21.295 15.5005 21.8807 16.0861L25.5125 20.0679C25.9812 20.6535 25.9811 21.4733 25.3954 21.9417L21.4121 25.4551C20.8263 25.9235 20.0062 25.9236 19.4205 25.338L15.7887 21.3561C15.32 20.7706 15.32 19.9508 15.9058 19.4824L19.8891 15.969ZM25.9811 16.5545C25.5125 16.0861 25.6297 15.3834 26.0983 14.9149L28.2071 13.0412C28.6757 12.5727 29.3786 12.6898 29.8473 13.1583L31.7217 15.2663C32.1904 15.7348 32.0732 16.4374 31.6046 16.9059L29.4958 18.7797C29.0272 19.2481 28.3243 19.131 27.8556 18.6626L25.9811 16.5545ZM37.228 15.2663C36.8766 15.6176 36.1736 15.6176 35.8222 15.1492L34.5335 13.7438C34.182 13.3925 34.182 12.6898 34.6506 12.3385L36.0565 11.0502C36.4079 10.6989 37.1109 10.6989 37.4623 11.1674L38.751 12.5727C39.1025 12.924 39.1025 13.6267 38.6339 13.9781C38.6339 14.0952 37.228 15.2663 37.228 15.2663ZM34.7678 19.8337L37.1109 22.5273C37.4623 22.8786 37.3452 23.4642 36.9937 23.6984L22.818 36.2295L22.115 36.815C20.592 38.2204 18.2489 38.1032 16.8431 36.5808L11.6882 30.8423L9.81379 28.7343C9.46232 28.3829 9.57945 27.7974 9.93091 27.5631L12.274 25.4551C12.6255 25.1037 13.2113 25.1037 13.4456 25.4551L19.3033 31.545C19.6548 31.8963 20.1234 31.8963 20.592 31.545L33.5962 19.7166C33.8305 19.4823 34.4163 19.4824 34.7678 19.8337Z" fill="#9DA4AE"/>
</g>
<defs>
<clipPath id="clip0_88_6751">
<rect width="48" height="48" rx="12" fill="white"/>
</clipPath>
</defs>
</svg>
