<svg width="48" height="48" viewBox="0 0 48 48" fill="none" xmlns="http://www.w3.org/2000/svg">
<g clip-path="url(#clip0_88_6989)">
<rect width="48" height="48" rx="12" fill="#6528C9"/>
<g opacity="0.3">
<path d="M38.0332 20.4141C35.2012 20.4141 32.5067 21.0783 30.0889 22.2666C29.7097 22.4418 29.328 22.6514 28.9501 22.8612L30.6079 24.3647L33.0934 21.7428L37.376 25.5878L39.898 22.8258L47.7732 29.9924L42.7312 35.6206L44.6996 37.3681L39.7252 42.9963L41.6936 44.743L34.5781 52.7486L30.3667 48.8331L26.7038 53.0291C27.4297 53.5885 28.2241 54.1489 29.0866 54.6375C31.712 56.1405 34.752 57.0128 37.9983 57.0128C47.9812 57.0128 56.0968 48.7995 56.0968 38.6977C56.132 28.6642 48.015 20.4141 38.0332 20.4141ZM41.3495 37.5783L37.0319 33.6628L33.1627 38.0323L37.4812 41.9474L41.3495 37.5783ZM38.2747 45.1293L33.9922 41.1792L30.0889 45.5483L34.4066 49.464L38.2747 45.1293ZM44.4218 30.1327L40.1054 26.2172L36.2371 30.5868L40.5548 34.502L44.4218 30.1327ZM36.5138 28.0346L33.3013 25.0983L30.3993 28.3495L33.6118 31.3204L36.5138 28.0346ZM30.7795 41.4931L27.5681 38.5567L24.6663 41.8418L27.8789 44.7801L30.7795 41.4931ZM27.9477 48.1008L24.7351 45.1638L21.8356 48.4148L25.0469 51.3853L27.9477 48.1008ZM26.635 32.9985L24.4938 31.0407L22.5602 33.2089L24.701 35.166L26.635 32.9985ZM29.3982 26.5314L27.2569 24.5393L25.3219 26.7412L27.4648 28.6989L29.3982 26.5314ZM23.9066 39.4662L21.7655 37.5086L19.7969 39.676L21.9721 41.6331L23.9066 39.4662ZM33.5429 34.6069L30.3303 31.6705L27.4297 34.921L30.6409 37.8579L33.5429 34.6069Z" fill="url(#paint0_linear_88_6989)"/>
</g>
<path d="M35.0969 43.1002C38.5763 43.1002 41.3969 40.2564 41.3969 36.7483C41.3969 33.2403 38.5763 30.3965 35.0969 30.3965C31.6175 30.3965 28.7969 33.2403 28.7969 36.7483C28.7969 40.2564 31.6175 43.1002 35.0969 43.1002Z" fill="#E24338"/>
<path d="M12.5969 43.1002C16.0763 43.1002 18.8969 40.2564 18.8969 36.7483C18.8969 33.2403 16.0763 30.3965 12.5969 30.3965C9.11748 30.3965 6.29688 33.2403 6.29688 36.7483C6.29688 40.2564 9.11748 43.1002 12.5969 43.1002Z" fill="#27AE60"/>
<path d="M23.6984 30.3962C30.4915 30.3962 35.9984 24.844 35.9984 17.995C35.9984 11.146 30.4915 5.59375 23.6984 5.59375C16.9053 5.59375 11.3984 11.146 11.3984 17.995C11.3984 24.844 16.9053 30.3962 23.6984 30.3962Z" fill="white"/>
<path d="M13.3055 7.51367C10.5487 10.2932 9 14.063 9 17.9937C9 21.9245 10.5487 25.6942 13.3055 28.4738L13.9857 27.7879C11.4093 25.1904 9.96192 21.6673 9.96192 17.9937C9.96192 14.3201 11.4093 10.7971 13.9857 8.19949L13.3055 7.51367Z" fill="url(#paint1_radial_88_6989)"/>
<path d="M11.6101 5.80273C8.40318 9.036 6.60156 13.4213 6.60156 17.9938C6.60156 22.5663 8.40318 26.9515 11.6101 30.1848L12.4013 29.3871C9.40422 26.3654 7.7205 22.2671 7.7205 17.9938C7.7205 13.7205 9.40422 9.62218 12.4013 6.60045L11.6101 5.80273Z" fill="url(#paint2_radial_88_6989)"/>
<path d="M34.0942 28.4738C36.851 25.6942 38.3998 21.9245 38.3998 17.9937C38.3998 14.063 36.851 10.2932 34.0942 7.51367L33.4141 8.19949C35.9905 10.7971 37.4378 14.3201 37.4378 17.9937C37.4378 21.6673 35.9905 25.1904 33.4141 27.7879L34.0942 28.4738Z" fill="url(#paint3_radial_88_6989)"/>
<path d="M35.7912 30.1848C38.9981 26.9516 40.7997 22.5663 40.7997 17.9938C40.7997 13.4213 38.9981 9.036 35.7912 5.80273L35 6.60046C37.9971 9.62219 39.6808 13.7205 39.6808 17.9938C39.6808 22.2671 37.9971 26.3654 35 29.3871L35.7912 30.1848Z" fill="url(#paint4_radial_88_6989)"/>
<path fill-rule="evenodd" clip-rule="evenodd" d="M17.913 14.2715C17.4131 14.2715 17.0078 14.6801 17.0078 15.1842V21.4392C17.0078 21.9433 17.4131 22.3519 17.913 22.3519H27.146C27.6459 22.3519 28.0512 21.9433 28.0512 21.4392V19.588L29.9796 20.7762C30.1807 20.9 30.4387 20.7542 30.4387 20.5166V16.2684C30.4387 16.0308 30.1807 15.8849 29.9796 16.0088L28.0512 17.197V15.1842C28.0512 14.6801 27.6459 14.2715 27.146 14.2715H17.913Z" fill="#6528C9"/>
<path d="M31.9623 38.1395L31.3259 37.4979C31.2666 37.4386 31.2202 37.3675 31.1897 37.289C31.1593 37.2105 31.1454 37.1266 31.149 37.0424C31.1526 36.9582 31.1736 36.8758 31.2106 36.8003C31.2476 36.7248 31.2999 36.6579 31.3641 36.6039C32.0878 36.0173 32.9378 35.61 33.846 35.4147C34.6843 35.2263 35.5534 35.2263 36.3916 35.4147C37.3035 35.6113 38.1567 36.0216 38.882 36.6124C38.946 36.6663 38.9981 36.7329 39.0352 36.8081C39.0722 36.8834 39.0932 36.9655 39.0971 37.0494C39.1009 37.1334 39.0873 37.2171 39.0572 37.2954C39.0271 37.3738 38.9812 37.4449 38.9224 37.5044L38.2859 38.146C38.184 38.2508 38.0477 38.3147 37.9025 38.3257C37.7574 38.3367 37.6132 38.2941 37.4968 38.2058C37.2663 38.0276 37.0165 37.8762 36.7522 37.7546C36.6478 37.7068 36.5591 37.6298 36.4967 37.5328C36.4342 37.4358 36.4007 37.3227 36.4001 37.207V36.6638C35.567 36.4328 34.6876 36.4328 33.8545 36.6638V37.207C33.8539 37.3227 33.8204 37.4358 33.7579 37.5328C33.6955 37.6298 33.6068 37.7068 33.5024 37.7546C33.2381 37.8762 32.9883 38.0276 32.7578 38.2058C32.6402 38.2951 32.4942 38.3377 32.3475 38.3254C32.2009 38.3132 32.0638 38.247 31.9623 38.1395Z" fill="white"/>
<path d="M15.6071 38.5715V39.4789C15.6074 39.5631 15.5903 39.6465 15.5568 39.7237C15.5234 39.8009 15.4743 39.8701 15.4127 39.9271C15.3511 39.9841 15.2784 40.0274 15.1993 40.0544C15.1202 40.0814 15.0363 40.0914 14.9531 40.0838C14.0299 39.9827 13.1432 39.6646 12.3641 39.1552C11.6392 38.6909 11.0247 38.0712 10.5641 37.3404C10.0571 36.5513 9.74152 35.6529 9.64306 34.718C9.63556 34.6344 9.64546 34.5501 9.67204 34.4705C9.69862 34.3909 9.74134 34.3178 9.7975 34.2557C9.85366 34.1937 9.922 34.1442 9.9982 34.1102C10.0744 34.0763 10.1568 34.0587 10.2401 34.0586H11.1401C11.2857 34.0572 11.4268 34.1092 11.5372 34.2049C11.6476 34.3006 11.7197 34.4336 11.7401 34.5789C11.778 34.8693 11.8485 35.1544 11.9501 35.4288C11.9904 35.5371 11.9992 35.6548 11.9753 35.7679C11.9513 35.881 11.8958 35.9848 11.8151 36.067L11.4341 36.4512C11.8611 37.2084 12.483 37.8354 13.2341 38.266L13.6151 37.8818C13.6967 37.8005 13.7996 37.7445 13.9118 37.7204C14.024 37.6962 14.1407 37.7051 14.2481 37.7457C14.5203 37.8481 14.8031 37.9192 15.0911 37.9575C15.2368 37.9782 15.3699 38.0522 15.465 38.1654C15.5602 38.2786 15.6107 38.4231 15.6071 38.5715Z" fill="white"/>
</g>
<defs>
<linearGradient id="paint0_linear_88_6989" x1="36.5969" y1="24.9511" x2="58.3315" y2="62.7916" gradientUnits="userSpaceOnUse">
<stop stop-color="white" stop-opacity="0"/>
<stop offset="1" stop-color="white"/>
</linearGradient>
<radialGradient id="paint1_radial_88_6989" cx="0" cy="0" r="1" gradientUnits="userSpaceOnUse" gradientTransform="translate(23.7 17.9937) rotate(90) scale(11.1914 17.1)">
<stop offset="0.560903" stop-color="white"/>
<stop offset="1" stop-color="white" stop-opacity="0"/>
</radialGradient>
<radialGradient id="paint2_radial_88_6989" cx="0" cy="0" r="1" gradientUnits="userSpaceOnUse" gradientTransform="translate(23.7016 17.9938) rotate(90) scale(11.1914 17.1)">
<stop offset="0.560903" stop-color="white"/>
<stop offset="1" stop-color="white" stop-opacity="0"/>
</radialGradient>
<radialGradient id="paint3_radial_88_6989" cx="0" cy="0" r="1" gradientUnits="userSpaceOnUse" gradientTransform="translate(23.6998 17.9937) rotate(90) scale(11.1914 17.1)">
<stop offset="0.560903" stop-color="white"/>
<stop offset="1" stop-color="white" stop-opacity="0"/>
</radialGradient>
<radialGradient id="paint4_radial_88_6989" cx="0" cy="0" r="1" gradientUnits="userSpaceOnUse" gradientTransform="translate(23.6997 17.9938) rotate(90) scale(11.1914 17.1)">
<stop offset="0.560903" stop-color="white"/>
<stop offset="1" stop-color="white" stop-opacity="0"/>
</radialGradient>
<clipPath id="clip0_88_6989">
<rect width="48" height="48" rx="12" fill="white"/>
</clipPath>
</defs>
</svg>
