<svg width="48" height="48" viewBox="0 0 48 48" fill="none" xmlns="http://www.w3.org/2000/svg">
<rect width="48" height="48" rx="12" fill="url(#paint0_linear_88_7006)"/>
<path d="M34.485 32.9279C36.1955 33.0217 37.723 31.8256 37.9658 30.1463L39.8995 16.7689C40.1555 14.9987 38.8868 13.362 37.0661 13.1132L30.7344 12.248L34.485 32.9279Z" fill="white"/>
<path fill-rule="evenodd" clip-rule="evenodd" d="M13.2305 38.7823C13.4715 38.8655 13.7306 38.887 13.9826 38.8444C14.2409 38.7931 14.4806 38.6759 14.6771 38.5049L21.6661 32.6026L30.811 35.7539C31.0567 35.8407 31.3216 35.8632 31.579 35.8191C31.8364 35.775 32.0773 35.6657 32.2776 35.5024C32.4767 35.34 32.6285 35.1298 32.7182 34.8926C32.8078 34.6555 32.8321 34.3996 32.7885 34.1505L28.9951 13.2347C28.8599 12.3763 28.382 11.6043 27.6655 11.086C26.9487 10.5677 26.0508 10.3449 25.1663 10.4657L11.0879 12.8792C10.2142 13.0597 9.44886 13.5677 8.95776 14.293C8.4666 15.0184 8.2893 15.9027 8.46414 16.7543L12.2576 37.6702C12.3038 37.9227 12.4183 38.1588 12.5893 38.3542C12.7602 38.5496 12.9815 38.6973 13.2305 38.7823ZM15.6644 23.367L15.6538 23.3576C15.2195 22.9651 14.5402 22.9877 14.1344 23.4088C13.7278 23.8308 13.75 24.4935 14.1841 24.8889L14.9205 24.1248C14.1841 24.8889 14.1844 24.8893 14.1848 24.8895L14.1855 24.8901L14.1871 24.8915L14.1909 24.895L14.2014 24.9043L14.2333 24.9324C14.2594 24.9549 14.2952 24.9852 14.3402 25.0219C14.4302 25.0953 14.5576 25.1948 14.7194 25.31C15.042 25.5397 15.5071 25.8361 16.0894 26.1125C17.2493 26.6633 18.9264 27.1579 20.875 26.8238C22.8235 26.4898 24.2254 25.4674 25.1217 24.5641C25.5716 24.1107 25.9043 23.6776 26.1266 23.3544C26.2382 23.1923 26.3229 23.0565 26.3817 22.9576C26.4111 22.9082 26.434 22.8679 26.4506 22.838L26.4708 22.801L26.4774 22.7888L26.4797 22.7843L26.4812 22.7816C26.4813 22.7811 26.4815 22.7808 25.5207 22.3075L26.4815 22.7808C26.7504 22.2649 26.5382 21.6348 26.0075 21.3734C25.4781 21.1126 24.8318 21.3175 24.5617 21.8307L24.5551 21.8429C24.5477 21.856 24.5348 21.8789 24.5161 21.9103C24.4788 21.9732 24.4189 22.0697 24.3362 22.1899C24.1699 22.4315 23.9156 22.7631 23.5714 23.11C22.8794 23.8074 21.8648 24.5274 20.5009 24.7613C19.1368 24.9951 17.9302 24.6558 17.0346 24.2306C16.5891 24.0191 16.2335 23.792 15.9923 23.6204C15.8722 23.5348 15.782 23.4641 15.7247 23.4173C15.6961 23.3941 15.676 23.3768 15.6644 23.367ZM25.5207 22.3075L24.56 21.8342L24.5603 21.8336C24.56 21.8339 24.56 21.8342 25.5207 22.3075ZM14.9205 24.1248L15.6538 23.3576L15.6548 23.3585L15.6557 23.3595L15.6563 23.3599C15.6566 23.3602 15.6569 23.3604 14.9205 24.1248Z" fill="white"/>
<defs>
<linearGradient id="paint0_linear_88_7006" x1="48.75" y1="-2.1" x2="-3.15" y2="48.9" gradientUnits="userSpaceOnUse">
<stop stop-color="#595959"/>
<stop offset="1" stop-color="#252525"/>
</linearGradient>
</defs>
</svg>
