<svg width="48" height="48" viewBox="0 0 48 48" fill="none" xmlns="http://www.w3.org/2000/svg">
<rect width="48" height="48" rx="12" fill="#F3F4F6"/>
<path d="M8.69336 23.1016C9.26181 23.1018 9.72266 23.5633 9.72266 24.1318C9.7224 24.7001 9.26165 25.1609 8.69336 25.1611H6.42773C5.85925 25.1611 5.39869 24.7003 5.39844 24.1318C5.39844 23.5632 5.85909 23.1016 6.42773 23.1016H8.69336ZM16.3809 23.1016C16.9494 23.1016 17.4102 23.5632 17.4102 24.1318C17.4099 24.7002 16.9493 25.1611 16.3809 25.1611H12.5371C11.9686 25.1611 11.5071 24.7003 11.5068 24.1318C11.5068 23.5632 11.9685 23.1016 12.5371 23.1016H16.3809ZM24.0684 23.1016C24.6369 23.1016 25.0986 23.5632 25.0986 24.1318C25.0984 24.7003 24.6368 25.1611 24.0684 25.1611H20.2246C19.6562 25.161 19.1956 24.7002 19.1953 24.1318C19.1953 23.5632 19.656 23.1016 20.2246 23.1016H24.0684ZM31.7568 23.1016C32.3254 23.1016 32.7861 23.5632 32.7861 24.1318C32.7859 24.7003 32.3253 25.1611 31.7568 25.1611H27.9131C27.3445 25.1611 26.8831 24.7003 26.8828 24.1318C26.8828 23.5632 27.3444 23.1016 27.9131 23.1016H31.7568ZM37.8662 23.1016C38.4348 23.1016 38.8955 23.5632 38.8955 24.1318C38.8953 24.7003 38.4346 25.1611 37.8662 25.1611H35.6006C35.0322 25.1609 34.5715 24.7001 34.5713 24.1318C34.5713 23.5633 35.032 23.1018 35.6006 23.1016H37.8662Z" fill="#9DA4AE"/>
<path d="M39.5823 16.7263C39.5254 16.1464 39.3028 15.5836 38.9388 15.0986C38.7303 14.8211 38.4794 14.5731 38.1933 14.362C37.4306 13.7989 36.4474 13.5053 35.4257 13.5363C35.4233 13.5363 35.4205 13.5363 35.4182 13.5367L35.1906 13.5498C34.6329 13.5926 34.0722 13.739 33.5685 13.9735C33.5664 13.9744 33.5644 13.9754 33.5618 13.9767C33.3873 14.0637 33.3319 14.0938 33.3108 14.1061C31.7354 14.9585 30.5691 15.3051 29.7818 15.4354C30.1263 14.7157 30.7843 13.6922 32.0416 12.4165C32.0594 12.3995 32.1035 12.3544 32.236 12.2112C32.2374 12.2094 32.2393 12.2077 32.2405 12.2057C32.606 11.7875 32.9029 11.2894 33.1012 10.761L33.1754 10.551C33.1766 10.5485 33.1772 10.5462 33.1778 10.5438C33.6132 9.19676 33.4117 7.7317 32.652 6.72023C32.6517 6.71989 32.6517 6.71989 32.6517 6.71989C32.3969 6.38093 32.085 6.10011 31.7238 5.88512C31.1005 5.51499 30.3538 5.36754 29.6209 5.47044C28.9451 5.56489 28.2849 5.85999 27.7125 6.32341C27.3832 6.59015 27.0894 6.90852 26.8412 7.26574C26.5066 7.78146 26.3473 8.14781 26.26 8.40049C25.7755 9.77672 25.9526 11.2987 26.7325 12.3366C26.865 12.5129 27.0152 12.6768 27.1793 12.8233C27.2708 12.9054 27.3667 12.982 27.466 13.0518L26.3365 15.6716L17.7523 17.1856C17.7213 17.1901 17.6901 17.1946 17.6588 17.1989C17.4651 17.2271 17.2641 17.256 17.0613 17.3333C16.3107 17.6189 15.8799 18.2977 15.6511 18.8164C15.54 19.0686 15.4677 19.2806 15.4246 19.4829L15.3109 20.002C15.2923 20.0861 15.316 20.1727 15.3736 20.2364C15.4315 20.2997 15.5162 20.3307 15.6011 20.3203L24.9514 19.1466L23.5786 22.4527H26.8994L28.6933 18.6658L31.4254 18.3234C31.5345 18.6427 31.6932 18.9417 31.8989 19.2153C32.6428 20.2059 33.9654 20.8074 35.351 20.7855C36.9426 20.7602 38.3896 19.9665 39.127 18.7145C39.4865 18.1041 39.6479 17.3983 39.5823 16.7263ZM28.7157 11.3299C28.608 11.2568 28.5123 11.1654 28.4317 11.0581C28.0905 10.6042 28.0677 9.9495 28.1596 9.48842C28.2883 8.8453 28.6436 8.26753 29.1338 7.90406C29.5872 7.56798 30.1021 7.47284 30.511 7.64974L30.5112 7.64981C30.5116 7.64981 30.5119 7.64987 30.5125 7.65008C30.6876 7.72586 30.8373 7.84503 30.9569 8.00366C31.2152 8.34784 31.3306 8.89466 31.2577 9.4309C31.1612 10.1405 30.7773 10.7974 30.2307 11.1882C29.844 11.4645 29.2158 11.6672 28.7157 11.3299ZM37.4646 17.1517C37.4394 17.392 37.3317 17.6335 37.1539 17.8499C36.765 18.3234 36.1046 18.6251 35.3869 18.6566C34.8045 18.6822 34.0322 18.5093 33.6106 17.9484C33.5955 17.9282 33.5813 17.9078 33.5673 17.887C33.2905 17.4744 33.3327 16.9287 33.6743 16.496C34.0098 16.0706 34.5667 15.776 35.2023 15.6875L35.2757 15.6781C35.8715 15.6124 36.6827 15.7388 37.1747 16.2919C37.1977 16.3174 37.2191 16.3442 37.2397 16.3714C37.4135 16.6029 37.4934 16.88 37.4646 17.1517Z" fill="#9DA4AE"/>
<mask id="mask0_88_6759" style="mask-type:alpha" maskUnits="userSpaceOnUse" x="3" y="25" width="41" height="19">
<path d="M3 25.7998H43.8V43.1998H3V25.7998Z" fill="#D9D9D9"/>
</mask>
<g mask="url(#mask0_88_6759)">
<path d="M11.0759 22.186C9.0982 23.5365 8.58982 26.2345 9.94036 28.2122L12.8307 32.4448C14.2278 34.4905 17.0006 34.848 18.857 33.5803C19.1679 33.368 19.4357 33.1188 19.6684 32.8462L19.1409 32.0737C18.7948 31.567 18.2681 31.6232 17.907 31.5631C17.823 31.6441 17.7342 31.7216 17.6343 31.7898C16.6818 32.4404 15.301 32.2175 14.6212 31.2221C14.5202 31.0742 11.7921 27.0793 11.7309 26.9896C11.0565 26.0021 11.3112 24.6508 12.2986 23.9765C13.2861 23.3021 14.6374 23.5568 15.3118 24.5442L17.2223 27.3419C17.6117 27.3448 18.581 27.1044 20.0132 27.5918C20.005 27.5797 20.0009 27.5662 19.9926 27.554L17.1022 23.3215C15.7516 21.3438 13.0536 20.8355 11.0759 22.186Z" fill="#9DA4AE"/>
<path d="M15.7985 29.1045C15.4876 29.3167 15.2198 29.566 14.9871 29.8385L15.5146 30.611C15.8606 31.1177 16.3873 31.0616 16.7484 31.1217C16.8324 31.0406 16.9213 30.963 17.0211 30.8949C17.9737 30.2443 19.3545 30.4672 20.0343 31.4626C20.1354 31.6108 23.0895 35.9366 23.1486 36.0232C23.823 37.0106 23.5683 38.362 22.5809 39.0363C21.5934 39.7106 20.2421 39.456 19.5677 38.4685L17.4332 35.3428C17.0437 35.3399 16.0745 35.5804 14.6423 35.0929C14.6504 35.105 14.6546 35.1186 14.6629 35.1308L17.7773 39.6913C19.1279 41.6689 21.8259 42.1773 23.8036 40.8268C25.7813 39.4762 26.2896 36.7782 24.9391 34.8005L21.8248 30.24C20.4537 28.2322 17.6965 27.8083 15.7985 29.1045Z" fill="#9DA4AE"/>
</g>
</svg>
