<svg width="48" height="48" viewBox="0 0 48 48" fill="none" xmlns="http://www.w3.org/2000/svg">
<rect width="48" height="48" rx="12" fill="url(#paint0_linear_88_6987)"/>
<path fill-rule="evenodd" clip-rule="evenodd" d="M24.5041 8.91741C24.2002 8.66165 23.7562 8.66165 23.4523 8.91741L21.2865 10.7402H26.6698L24.5041 8.91741ZM34.3234 21.6237V17.182L37.0661 19.4905L34.3234 21.6237ZM10.0938 35.3872V20.9404L19.3809 28.1638L10.0938 35.3872ZM10.8901 19.4905L13.6329 17.182V21.6237L10.8901 19.4905ZM20.9914 28.9805L11.1906 36.6033H36.7657L26.9649 28.9805H20.9914ZM37.8626 35.3872L28.5753 28.1638L37.8626 20.9403V35.3872ZM23.7723 18.4917C23.1099 18.4917 22.4246 19.1358 22.4246 20.2137C22.4246 21.3096 23.093 22.0457 23.7173 22.0457C24.3748 22.0457 24.9138 21.2765 24.9526 20.3094L24.9537 20.1041C24.9243 19.1499 24.4468 18.4917 23.7723 18.4917ZM32.69 22.8942L26.9649 27.3471H20.9914L15.2664 22.8942V13.1904C15.2664 12.7393 15.6321 12.3736 16.0831 12.3736H31.8732C32.3243 12.3736 32.69 12.7393 32.69 13.1904V22.8942ZM18.773 17.3863C18.0267 18.7421 17.8306 20.3054 18.2206 21.7883C18.5583 23.0723 19.2875 24.1799 20.3295 24.9917C21.3326 25.7731 22.5819 26.2227 23.8476 26.2577C23.8554 26.2579 23.8629 26.258 23.8706 26.258C24.3112 26.258 24.6743 25.9071 24.6866 25.4639C24.6991 25.013 24.3436 24.6373 23.8928 24.6249C21.9729 24.5717 20.29 23.2344 19.8004 21.3728C19.2108 19.1309 20.4805 16.8235 22.6911 16.1198C23.8125 15.7629 25.0032 15.868 26.0434 16.4158C27.0799 16.9617 27.8382 17.8786 28.1798 18.9984C28.3926 19.8062 28.3203 20.5614 27.9388 21.5207C27.8448 21.7571 27.5549 22.3069 26.8958 22.3069C26.823 22.3069 26.7581 22.2526 26.7259 22.2202C26.6329 22.1268 26.5778 21.9879 26.5786 21.8485L26.601 17.311C26.6033 16.86 26.2394 16.4925 25.7883 16.4903H25.7842C25.3857 16.4903 25.0538 16.7763 24.9823 17.1549C24.6139 16.9611 24.2039 16.8582 23.7723 16.8582C22.9878 16.8582 22.2194 17.2109 21.6642 17.8256C21.1012 18.449 20.7912 19.2971 20.7912 20.2137C20.7912 21.1262 21.0825 21.9835 21.6117 22.6277C22.1604 23.2959 22.9279 23.6791 23.7173 23.6791C24.3216 23.6791 24.8767 23.4637 25.3345 23.0914C25.4041 23.1914 25.4818 23.2858 25.568 23.3725C25.9325 23.7388 26.4041 23.9405 26.8958 23.9405C28.2514 23.9405 29.1074 23.0023 29.4567 22.1244C29.9732 20.8255 30.0651 19.7276 29.7547 18.5646C29.7525 18.5561 29.75 18.5476 29.7475 18.5392C29.2804 16.9914 28.2352 15.724 26.8046 14.9706C25.3741 14.2172 23.7372 14.0725 22.1956 14.5634C20.7343 15.0286 19.5189 16.0311 18.773 17.3863Z" fill="white"/>
<defs>
<linearGradient id="paint0_linear_88_6987" x1="48.75" y1="-2.1" x2="-3.15" y2="48.9" gradientUnits="userSpaceOnUse">
<stop stop-color="#0080D8"/>
<stop offset="1" stop-color="#0066AD"/>
</linearGradient>
</defs>
</svg>
