<svg width="48" height="48" viewBox="0 0 48 48" fill="none" xmlns="http://www.w3.org/2000/svg">
<g clip-path="url(#clip0_88_6660)">
<path d="M0 0H48V48H0V0Z" fill="#F3F4F6"/>
<path d="M17.725 24.1523C17.3936 24.1523 17.125 24.421 17.125 24.7523V30.4524C17.125 30.618 17.2593 30.7524 17.425 30.7524H25.225C25.3907 30.7524 25.525 30.618 25.525 30.4524V25.6524C25.525 25.4867 25.3907 25.3524 25.225 25.3524H20.965L20.8215 24.6347C20.7654 24.3542 20.5191 24.1523 20.2331 24.1523H17.725Z" fill="black"/>
<path d="M20.7266 14.0586C21.0672 14.0586 21.3981 14.174 21.6641 14.3867L23.8682 16.1504H37.1445C38.2491 16.1504 39.1445 17.0458 39.1445 18.1504V20V33.5352C39.1445 34.3636 38.473 35.0352 37.6445 35.0352H11.5312C10.4267 35.0352 9.53125 34.1397 9.53125 33.0352V20V15.5576C9.53151 14.7294 10.203 14.0586 11.0312 14.0586H20.7266Z" fill="#9DA4AE"/>
<path d="M9.53125 33.5327V19.4922C9.53125 19.2161 9.75511 18.9922 10.0313 18.9922H20.4434C20.5675 18.9922 20.6872 18.9461 20.7791 18.8628L22.5795 17.232C22.8554 16.9821 23.2143 16.8438 23.5865 16.8438H36.9477C37.7762 16.8438 38.4477 17.5153 38.4477 18.3438V33.5327C38.4477 34.3612 37.7762 35.0327 36.9477 35.0327H11.0312C10.2028 35.0327 9.53125 34.3612 9.53125 33.5327Z" fill="#9DA4AE"/>
<path d="M9.5 18.5H21.0633C21.6568 18.5 22.2197 18.2364 22.5997 17.7804L24.5 15.5" stroke="#F3F4F6"/>
<path d="M23.8184 20.7207C24.8215 20.7207 25.7721 20.9479 26.6182 21.3516C26.7508 21.4128 26.883 21.4803 27.0156 21.5547L26.4277 22.0674L25.5439 21.1777L24.0527 22.4727L23.167 21.5322L20.3887 23.9697L22.1699 25.8799L21.4697 26.4795L23.2246 28.3926L22.5283 28.9902L25.0352 31.7061L26.5234 30.373L27.8096 31.8018C27.5537 31.9954 27.2748 32.1773 26.9678 32.3457C26.0375 32.8621 24.9625 33.1582 23.8184 33.1582C20.2996 33.1582 17.4297 30.3641 17.4297 26.9395C17.4298 23.5141 20.2997 20.7207 23.8184 20.7207ZM29.5479 30.2285L28.4082 31.2266L27.3828 30.1182L28.5215 29.1191L29.5479 30.2285ZM26.6221 29.248L25.1025 30.5801L23.7344 29.1006L25.2539 27.7695L26.6221 29.248ZM28.5459 27.9893L27.4062 28.9873L26.3799 27.8779L27.5205 26.8799L28.5459 27.9893ZM25.542 26.6934L24.0225 28.0244L22.6543 26.5459L24.1738 25.2139L25.542 26.6934ZM30.2559 27.2539L29.4971 27.9199L28.8125 27.1807L29.5723 26.5146L30.2559 27.2539ZM27.5703 25.6445L26.4307 26.6436L25.4053 25.5342L26.5439 24.5352L27.5703 25.6445ZM29.2842 25.0576L28.5244 25.7227L27.8408 24.9834L28.6006 24.3174L29.2842 25.0576ZM24.4531 24.168L22.9346 25.5L21.5664 24.0205L23.0859 22.6895L24.4531 24.168ZM26.5215 23.415L25.3818 24.4131L24.3555 23.3037L25.4951 22.3057L26.5215 23.415ZM28.3135 22.8613L27.5537 23.5264L26.8701 22.7871L27.6299 22.1211L28.3135 22.8613Z" fill="#F3F4F6"/>
</g>
<defs>
<clipPath id="clip0_88_6660">
<rect width="48" height="48" rx="12" fill="white"/>
</clipPath>
</defs>
</svg>
