<svg width="139" height="34" viewBox="0 0 139 34" fill="none" xmlns="http://www.w3.org/2000/svg">
<path d="M122.744 0.340013C125.269 0.340013 127.671 0.918013 129.826 1.95201C130.164 2.10401 130.504 2.28701 130.841 2.47001L129.364 3.78001L127.148 1.49601L123.331 4.84401L121.083 2.44001L114.063 8.68001L118.558 13.58L116.803 15.1L121.237 20L119.482 21.522L125.826 28.492L129.58 25.082L132.845 28.736C132.198 29.223 131.49 29.711 130.721 30.136C128.381 31.446 125.671 32.204 122.776 32.204C113.878 32.204 106.643 25.054 106.643 16.258C106.613 7.52301 113.848 0.338013 122.745 0.338013L122.744 0.340013ZM119.788 15.283L123.638 11.873L127.086 15.679L123.236 19.087L119.788 15.282V15.283ZM122.528 21.858L126.348 18.418L129.826 22.223L125.976 25.633L122.528 21.858ZM117.05 8.80001L120.897 5.39201L124.347 9.19601L120.497 12.606L117.05 8.80001ZM124.1 6.97501L126.962 4.41801L129.549 7.24801L126.684 9.83501L124.098 6.97501H124.1ZM129.21 18.692L132.072 16.136L134.659 18.996L131.795 21.554L129.209 18.692H129.21ZM131.734 24.445L134.598 21.888L137.183 24.718L134.32 27.305L131.734 24.445ZM132.904 11.295L134.814 9.59201L136.537 11.479L134.629 13.183L132.903 11.295H132.904ZM130.441 5.66501L132.351 3.93101L134.076 5.84901L132.166 7.55401L130.442 5.66601L130.441 5.66501ZM135.338 16.928L137.246 15.223L139 17.11L137.06 18.814L135.338 16.928ZM126.748 12.696L129.611 10.14L132.197 12.97L129.335 15.527L126.748 12.696Z" fill="#006CB4"/>
<path d="M8.445 12.37H8.3L5.573 22.726H3.345L0 8.014H2.313L4.625 18.991H4.769L7.452 8.014H9.29L12.16 18.991H12.306L14.412 8.014H16.828L13.482 22.726H11.252M19.762 16.462H24.489C24.386 14.284 23.332 13.412 22.217 13.412C20.957 13.412 19.988 14.389 19.762 16.462ZM26.141 20.364V21.942C25.211 22.482 23.973 22.897 22.485 22.897C19.015 22.897 17.593 20.738 17.593 17.46C17.593 14.305 19.183 12.023 22.279 12.023C24.859 12.023 26.449 13.703 26.449 17.085V17.853H19.719C19.719 20.343 20.729 21.443 22.857 21.443C23.973 21.443 25.005 21.047 26.14 20.363M31.254 21.234C31.914 21.524 32.638 21.566 33.154 21.566C34.684 21.566 35.837 20.611 35.837 17.249C35.837 14.614 34.887 13.764 33.505 13.764C32.679 13.764 32.08 13.992 31.255 14.448V21.233L31.254 21.234ZM31.274 12.914C31.894 12.582 32.946 12.144 34.062 12.144C36.622 12.144 38.006 13.929 38.006 17.249C38.006 21.129 36.146 23.019 33.154 23.019C32.059 23.019 30.366 22.665 29.127 21.999V7.52L31.275 7L31.274 12.914ZM47.3 19.604H47.402L51.819 8.004H54.379V22.717H52.149V12.051H51.964L47.752 22.717H46.432L42.22 12.301H42.033V22.717H40.175V8.004H42.675M63.49 17.46C63.49 14.66 62.356 13.477 60.953 13.477C59.591 13.477 58.413 14.659 58.413 17.46C58.413 20.303 59.487 21.443 60.953 21.443C62.418 21.443 63.491 20.303 63.491 17.459M56.247 17.459C56.247 13.827 58.229 12.022 60.954 12.022C63.681 12.022 65.662 13.826 65.662 17.458C65.662 21.005 63.784 22.895 60.955 22.895C58.125 22.895 56.248 21.005 56.248 17.458M67.294 13.559C68.224 12.999 70.186 12.023 72.558 12.023C75.036 12.023 75.964 12.997 75.964 15.133V22.647H73.818V15.614C73.818 13.974 73.015 13.684 71.96 13.684C71.135 13.684 70.08 14.058 69.44 14.431V22.648H67.294V13.558V13.559ZM80.51 16.462H85.236C85.136 14.284 84.081 13.412 82.966 13.412C81.706 13.412 80.737 14.389 80.51 16.462ZM86.887 20.364V21.942C85.959 22.482 84.72 22.897 83.232 22.897C79.767 22.897 78.342 20.738 78.342 17.46C78.342 14.305 79.93 12.023 83.027 12.023C85.607 12.023 87.199 13.703 87.199 17.085V17.853H80.469C80.469 20.343 81.479 21.443 83.605 21.443C84.72 21.443 85.755 21.048 86.887 20.364ZM95.776 12.024H97.986L94.248 22.394C93.215 25.258 91.958 26.752 89.583 26.752V25.054C90.987 25.054 91.853 23.934 92.35 22.396L88.386 12.024H90.656L93.3 19.658H93.424L95.776 12.023V12.024Z" fill="#006CB4"/>
</svg>
